<svg fill="none" height="24" viewBox="0 0 24 24" width="24" xmlns="http://www.w3.org/2000/svg"><g clip-rule="evenodd" fill="#4360df" fill-rule="evenodd"><path d="m10.3077 19.25c-.1548 0-.2996.0729-.4008.19-.82518.9554-2.04543 1.56-3.4069 1.56-2.48528 0-4.5-2.0147-4.5-4.5s2.01472-4.5 4.5-4.5c1.36147 0 2.58172.6046 3.4069 1.56.1012.1171.246.19.4008.19h8.6923c1.5188 0 2.75 1.2312 2.75 2.75s-1.2312 2.75-2.75 2.75zm-.8077-2.75c0 1.6569-1.34315 3-3 3s-3-1.3431-3-3 1.34315-3 3-3 3 1.3431 3 3zm1.9888 1.25c-.3327 0-.5724-.3201-.5285-.65.0262-.1962.0397-.3965.0397-.6s-.0135-.4038-.0397-.6c-.0439-.3299.1958-.65.5285-.65h7.5112c.6904 0 1.25.5596 1.25 1.25s-.5596 1.25-1.25 1.25z"/><path d="m22 7.5c0 2.48528-2.0147 4.5-4.5 4.5-1.3615 0-2.5817-.6046-3.4069-1.56-.1012-.1171-.246-.19-.4008-.19h-8.6923c-1.51878 0-2.75-1.23122-2.75-2.75s1.23122-2.75 2.75-2.75h8.6923c.1548 0 .2996-.07286.4008-.19002.8252-.95537 2.0454-1.55998 3.4069-1.55998 2.4853 0 4.5 2.01472 4.5 4.5zm-1.5 0c0 1.65685-1.3431 3-3 3s-3-1.34315-3-3 1.3431-3 3-3 3 1.34315 3 3zm-7.9888-1.25c.3327 0 .5724.32013.5285.64995-.0262.1963-.0397.3966-.0397.60005s.0135.40375.0397.60005c.0439.32982-.1958.64995-.5285.64995h-7.5112c-.69036 0-1.25-.55964-1.25-1.25s.55964-1.25 1.25-1.25z"/></g></svg>