<svg fill="none" height="24" viewBox="0 0 24 24" width="24" xmlns="http://www.w3.org/2000/svg"><g fill="#4360df"><path d="m12 18.25c.4142 0 .75.3358.75.75v2c0 .4142-.3358.75-.75.75s-.75-.3358-.75-.75v-2c0-.4142.3358-.75.75-.75z"/><path d="m2.25 12c0-.4142.33579-.75.75-.75h2c.41421 0 .75.3358.75.75s-.33579.75-.75.75h-2c-.41421 0-.75-.3358-.75-.75z"/><path d="m18.25 12c0-.4142.3358-.75.75-.75h2c.4142 0 .75.3358.75.75s-.3358.75-.75.75h-2c-.4142 0-.75-.3358-.75-.75z"/><path d="m12.75 3c0-.41421-.3358-.75-.75-.75s-.75.33579-.75.75v2c0 .41421.3358.75.75.75s.75-.33579.75-.75z"/><path d="m6.16656 5.10566c-.29289-.2929-.76777-.2929-1.06066 0-.29289.29289-.29289.76776 0 1.06066l1.41421 1.41421c.2929.29289.76777.29289 1.06066 0 .2929-.29289.2929-.76777 0-1.06066z"/><path d="m16.4194 16.4194c.2929-.2929.7677-.2929 1.0606 0l1.4143 1.4142c.2928.2929.2928.7678 0 1.0607-.2929.2928-.7678.2928-1.0607 0l-1.4142-1.4143c-.2929-.2929-.2929-.7677 0-1.0606z"/><path d="m18.8941 6.16632c.2929-.2929.2929-.76777 0-1.06066-.2929-.2929-.7678-.2929-1.0607 0l-1.4142 1.41421c-.2929.29289-.2929.76777 0 1.06066s.7678.29289 1.0607 0z"/><path d="m7.58062 16.4194c.2929.2929.2929.7677 0 1.0606l-1.41421 1.4143c-.29289.2928-.76777.2928-1.06066 0-.29289-.2929-.29289-.7678 0-1.0607l1.41421-1.4142c.2929-.2929.76777-.2929 1.06066 0z"/><path clip-rule="evenodd" d="m12 8.25c-2.07107 0-3.75 1.67893-3.75 3.75 0 2.0711 1.67893 3.75 3.75 3.75 2.0711 0 3.75-1.6789 3.75-3.75 0-2.07107-1.6789-3.75-3.75-3.75zm-2.25 3.75c0-1.2426 1.0074-2.25 2.25-2.25s2.25 1.0074 2.25 2.25-1.0074 2.25-2.25 2.25-2.25-1.0074-2.25-2.25z" fill-rule="evenodd"/></g></svg>