<svg width="24" height="24" viewBox="0 0 24 24" fill="none" xmlns="http://www.w3.org/2000/svg">
<path fill-rule="evenodd" clip-rule="evenodd" d="M16.9995 8C16.9995 10.7614 14.7609 13 11.9995 13C9.23809 13 6.99951 10.7614 6.99951 8C6.99951 5.23858 9.23809 3 11.9995 3C14.7609 3 16.9995 5.23858 16.9995 8ZM15.4995 8C15.4995 9.933 13.9325 11.5 11.9995 11.5C10.0665 11.5 8.49951 9.933 8.49951 8C8.49951 6.067 10.0665 4.5 11.9995 4.5C13.9325 4.5 15.4995 6.067 15.4995 8Z" fill="#4360DF"/>
<path d="M18.383 20.3874C18.6855 20.7312 19.2215 20.7779 19.5453 20.4541C19.806 20.1933 19.8374 19.7784 19.5976 19.4984C17.7635 17.357 15.0399 16 11.9994 16C8.95884 16 6.23525 17.357 4.40118 19.4984C4.16132 19.7784 4.1927 20.1933 4.45343 20.454C4.77724 20.7779 5.31325 20.7312 5.61575 20.3874C7.17347 18.6171 9.45596 17.5 11.9994 17.5C14.5428 17.5 16.8253 18.6171 18.383 20.3874Z" fill="#4360DF"/>
</svg>
