<svg fill="none" height="24" viewBox="0 0 24 24" width="24" xmlns="http://www.w3.org/2000/svg"><g fill="#4360df"><path clip-rule="evenodd" d="m16.9995 8c0 2.7614-2.2386 5-5 5-2.76141 0-4.99999-2.2386-4.99999-5 0-2.76142 2.23858-5 4.99999-5 2.7614 0 5 2.23858 5 5zm-1.5 0c0 1.933-1.567 3.5-3.5 3.5s-3.49999-1.567-3.49999-3.5 1.56699-3.5 3.49999-3.5 3.5 1.567 3.5 3.5z" fill-rule="evenodd"/><path d="m18.383 20.3874c.3025.3438.8385.3905 1.1623.0667.2607-.2608.2921-.6757.0523-.9557-1.8341-2.1414-4.5577-3.4984-7.5982-3.4984-3.04056 0-5.76415 1.357-7.59822 3.4984-.23986.28-.20848.6949.05225.9556.32381.3239.85982.2772 1.16232-.0666 1.55772-1.7703 3.84021-2.8874 6.38365-2.8874 2.5434 0 4.8259 1.1171 6.3836 2.8874z"/></g></svg>