<svg fill="none" height="24" viewBox="0 0 24 24" width="24" xmlns="http://www.w3.org/2000/svg"><path clip-rule="evenodd" d="m12 2c-5.52285 0-10 4.47715-10 10 0 5.5228 4.47715 10 10 10 .4142 0 .75-.3358.75-.75s-.3358-.75-.75-.75c-4.69442 0-8.5-3.8056-8.5-8.5 0-4.69442 3.80558-8.5 8.5-8.5 4.6944 0 8.5 3.80558 8.5 8.5v2.375c0 1.0355-.8395 1.875-1.875 1.875s-1.875-.8395-1.875-1.875v-6.375c0-.41421-.3358-.75-.75-.75s-.75.33579-.75.75c0 .1176-.143.17946-.2329.10367-.8379-.70626-1.9027-1.10367-3.0171-1.10367-2.76142 0-5 2.23858-5 5 0 2.7614 2.23858 5 5 5 1.031 0 2.0194-.3401 2.8251-.9503.3004-.2274.7751-.1293.983.1849.604.9131 1.6401 1.5154 2.8169 1.5154 1.864 0 3.375-1.511 3.375-3.375v-2.375c0-5.52285-4.4772-10-10-10zm3.25 10c0 2.1716-1.5784 3.5-3.25 3.5-1.933 0-3.5-1.567-3.5-3.5s1.567-3.5 3.5-3.5c1.6716 0 3.25 1.32843 3.25 3.5z" fill="#4360df" fill-rule="evenodd"/></svg>