<svg fill="none" height="24" viewBox="0 0 24 24" width="24" xmlns="http://www.w3.org/2000/svg"><g fill="#4360df"><path d="m8.25 9c0-2.07421 1.67579-3.75 3.75-3.75 2.0742 0 3.75 1.67579 3.75 3.75 0 .7486-.3897 1.3772-.8051 1.8426-.4235.4745-.9522.8682-1.4048 1.1602-.4973.3209-.7901.8127-.7901 1.2943v.7029c0 .4142-.3358.75-.75.75s-.75-.3358-.75-.75v-.7029c0-1.0964.6481-2.02 1.4769-2.5547.3971-.2562.8016-.5655 1.0989-.89866.3055-.34226.4242-.6259.4242-.84374 0-1.24579-1.0042-2.25-2.25-2.25s-2.25 1.00421-2.25 2.25c0 .41421-.33579.75-.75.75s-.75-.33579-.75-.75z"/><path d="m12 18.75c.6904 0 1.25-.5596 1.25-1.25s-.5596-1.25-1.25-1.25-1.25.5596-1.25 1.25.5596 1.25 1.25 1.25z"/><path clip-rule="evenodd" d="m2 12c0 5.5228 4.47715 10 10 10 5.5228 0 10-4.4772 10-10 0-5.52285-4.4772-10-10-10-5.52285 0-10 4.47715-10 10zm1.5 0c0 4.6944 3.80558 8.5 8.5 8.5 4.6944 0 8.5-3.8056 8.5-8.5 0-4.69442-3.8056-8.5-8.5-8.5-4.69442 0-8.5 3.80558-8.5 8.5z" fill-rule="evenodd"/></g></svg>