<svg fill="none" height="24" viewBox="0 0 24 24" width="24" xmlns="http://www.w3.org/2000/svg"><g clip-rule="evenodd" fill="#4360df" fill-rule="evenodd"><path d="m15.75 9c0 2.0711-1.6789 3.75-3.75 3.75-2.07107 0-3.75-1.6789-3.75-3.75 0-2.07107 1.67893-3.75 3.75-3.75 2.0711 0 3.75 1.67893 3.75 3.75zm-1.5 0c0 1.2426-1.0074 2.25-2.25 2.25s-2.25-1.0074-2.25-2.25c0-1.24264 1.0074-2.25 2.25-2.25s2.25 1.00736 2.25 2.25z"/><path d="m23 12c0 6.0751-4.9249 11-11 11-6.07513 0-11-4.9249-11-11 0-6.07513 4.92487-11 11-11 6.0751 0 11 4.92487 11 11zm-1.5 0c0 5.2467-4.2533 9.5-9.5 9.5-5.24671 0-9.5-4.2533-9.5-9.5 0-5.24671 4.25329-9.5 9.5-9.5 5.2467 0 9.5 4.25329 9.5 9.5z"/><path d="m6.99199 16.3857-.00455.0043c-.30239.2831-.31804.7577-.03496 1.0601.28296.3022.7573.318 1.0597.0353l-.00089.0008.00876-.0079c.00916-.0081.02491-.022.047-.0407.04421-.0374.11363-.094.20648-.1636.18609-.1394.4638-.3289.819-.5191.71303-.3818 1.71597-.7549 2.90747-.7549s2.1944.3731 2.9075.7549c.3552.1902.6329.3797.819.5191.0928.0696.1622.1262.2065.1636.022.0187.0378.0326.047.0407l.0087.0079c.3024.2823.776.266 1.0588-.0361.2831-.3024.2674-.777-.0349-1.0601l-.0009-.0008-.0011-.001-.0026-.0025-.0072-.0066-.0226-.0203c-.0185-.0166-.0441-.039-.0766-.0665-.0649-.0549-.1574-.13-.2757-.2187-.2362-.1769-.5777-.4094-1.0103-.641-.8626-.4619-2.1097-.9326-3.6156-.9326s-2.75296.4707-3.61558.9326c-.43263.2316-.77415.4641-1.01034.641-.1183.0887-.21078.1638-.27568.2187-.03247.0275-.05809.0499-.07664.0665l-.02252.0203-.00725.0066-.00262.0025-.00105.001z"/></g></svg>