<svg fill="none" height="24" viewBox="0 0 24 24" width="24" xmlns="http://www.w3.org/2000/svg"><path clip-rule="evenodd" d="m15.2815 19c-.3363 0-.5779.3279-.5466.6628.01.1075.0155.2199.0155.3372 0 1.3889-1.2063 2.75-2.75 2.75-1.5436 0-2.74999-1.3611-2.74999-2.75 0-.1173.0055-.2297.01555-.3372.03129-.3349-.21032-.6628-.54662-.6628h-3.19783c-1.73628 0-2.64783-2.0606-1.47988-3.3453l1.17686-1.2946c.51072-.5618.851-1.2573.98109-2.0053l1.11547-6.41395c.39616-2.27792 2.37325-3.94085 4.68535-3.94085s4.2892 1.66293 4.6854 3.94085l1.1154 6.41395c.1301.748.4704 1.4435.9811 2.0053l1.1769 1.2946c1.1679 1.2847.2564 3.3453-1.4799 3.3453zm-4.2488.0283-.0009.001.0077-.0079.0024-.0026c.0013-.0013.0019-.002.002-.0021.0004-.0004 0 0 0 0l-.002.0021c.011-.0115.0266-.0188.0426-.0188h1.8319c.0159 0 .031.0068.042.0183.0028.0034.01.0119.0201.0255.023.0306.0609.0862.1011.1666.0791.1583.1708.4192.1708.7896 0 .6111-.5845 1.25-1.25 1.25s-1.25-.6389-1.25-1.25c0-.3704.0917-.6313.1708-.7896.0402-.0804.0781-.136.1011-.1666.0102-.0136.0168-.0216.0196-.025l-.0024.0026-.0018.0019-.0032.0032zm-5.88116-2.3646 1.17686-1.2946c.70224-.7724 1.17013-1.7288 1.349-2.7573l1.11546-6.41394c.27121-1.55944 1.62474-2.69786 3.20754-2.69786 1.5829 0 2.9364 1.13842 3.2076 2.69786l1.1154 6.41394c.1789 1.0285.6468 1.9849 1.349 2.7573l1.1769 1.2946c.292.3212.0641.8363-.37.8363h-12.95779c-.43407 0-.66195-.5151-.36997-.8363z" fill="#4360df" fill-rule="evenodd"/></svg>