<svg fill="none" height="20" viewBox="0 0 20 20" width="20" xmlns="http://www.w3.org/2000/svg"><g fill="#ff2d55"><path d="m10 18.5c4.6944 0 8.5-3.8056 8.5-8.5 0-2.79331-1.3474-5.27193-3.4277-6.82135-.3202-.2385-.4382-.67457-.247-1.02508.2062-.37791.6884-.50855 1.037-.25592 2.507 1.81708 4.1377 4.76928 4.1377 8.10235 0 5.5228-4.4772 10-10 10-5.52285 0-9.99999976-4.4772-10-10-.00000015-3.33307 1.63066-6.28527 4.13772-8.10235.34855-.25263.83082-.12199 1.03695.25592.19119.35051.07326.78659-.24695 1.02508-2.08032 1.54942-3.42772 4.02804-3.42772 6.82135 0 4.6944 3.80558 8.5 8.5 8.5z"/><path d="m10.75 1c0-.414213-.3358-.75-.75-.75-.41421 0-.75.335787-.75.75v9c0 .4142.33579.75.75.75.4142 0 .75-.3358.75-.75z"/></g></svg>