<svg fill="none" height="20" viewBox="0 0 18 20" width="18" xmlns="http://www.w3.org/2000/svg"><path clip-rule="evenodd" d="m5.25 7.01296c-.00017-.00932-.00017-.01862 0-.02789v-1.48147c0-1.81232 1.29609-3.36531 3.07918-3.68951l6.17892-1.123431c1.688-.306921 3.2419.989901 3.2419 2.705641v1.59044c.0002.00935.0002.01869 0 .02799v9.34557c0 1.3108-.9253 2.4395-2.2107 2.6966l-1.0464.2093c-1.6777.3355-3.2429-.9477-3.2429-2.6586 0-1.2923.9122-2.405 2.1795-2.6585l1.8156-.3631c.5843-.1169 1.0049-.6299 1.0049-1.2257v-3.86266c0-.31195-.2825-.54774-.5894-.49193l-8.50004 1.54545c-.23775.04323-.41056.25029-.41056.49194v8.3172c0 1.3108-.92526 2.4395-2.21068 2.6966l-1.04646.2093c-1.67764.3355-3.24286-.9477-3.24286-2.6586 0-1.2923.9122-2.405 2.17946-2.6585l1.81568-.3631c.58428-.1169 1.00486-.6299 1.00486-1.2257zm9.5264-4.8465c.7673-.13951 1.4736.44996 1.4736 1.22984v.56035c0 .24165-.1728.44871-.4106.49194l-8.50143 1.54572c-.30615.05566-.58797-.17953-.58797-.49071 0-1.08739.77765-2.01918 1.84751-2.2137zm.7629 10.89044c.3385-.0677.7107.1627.7107.5079v.7955c0 .5958-.4206 1.1088-1.0049 1.2257l-1.0464.2093c-.7495.1499-1.4487-.4234-1.4487-1.1877 0-.5773.4075-1.0744.9736-1.1876zm-10.99998 2c.33852-.0677.71068.1627.71068.5079v.7955c0 .5958-.42057 1.1088-1.00485 1.2257l-1.04646.2093c-.74946.1499-1.44869-.4234-1.44869-1.1877 0-.5773.40751-1.0744.97363-1.1876z" fill="#4360df" fill-rule="evenodd"/></svg>