<svg fill="none" height="24" viewBox="0 0 24 24" width="24" xmlns="http://www.w3.org/2000/svg"><g fill="#4360df"><path d="m12 18.5c.8284 0 1.5-.6716 1.5-1.5s-.6716-1.5-1.5-1.5-1.5.6716-1.5 1.5.6716 1.5 1.5 1.5z"/><path clip-rule="evenodd" d="m5 6c0-2.20914 1.79086-4 4-4h6c2.2091 0 4 1.79086 4 4v12c0 2.2091-1.7909 4-4 4h-6c-2.20914 0-4-1.7909-4-4zm1.5 0c0-1.38071 1.11929-2.5 2.5-2.5h6c1.3807 0 2.5 1.11929 2.5 2.5v12c0 1.3807-1.1193 2.5-2.5 2.5h-6c-1.38071 0-2.5-1.1193-2.5-2.5z" fill-rule="evenodd"/></g></svg>