<svg fill="none" height="27" viewBox="0 0 105 27" width="105" xmlns="http://www.w3.org/2000/svg"><g fill="#939ba1"><path d="m6.50864 24.7149c-.34702-.3375-.60224-.7576-.73879-1.2281-.20626-.7107-.11917-1.4495.24519-2.0803l1.57649-2.7305c.35476-.6145.92958-1.0525 1.62307-1.2383.01867-.005.03744-.0098.05631-.0144.47587-.1171.96739-.1062 1.43319.0255l.2315-.4009c-.347-.3376-.6023-.7576-.7389-1.2281-.20625-.7108-.1191-1.4498.2455-2.0809l1.5765-2.7306c.3643-.631.9611-1.07563 1.6792-1.2526.4758-.117.9672-.10598 1.433.02579l.2313-.40073c-.3471-.33755-.6023-.75776-.7389-1.22838-.2061-.71069-.1189-1.44965.2455-2.08068l1.5762-2.73026c.6275-1.08709 1.9233-1.56068 3.112-1.22663l.6639-1.149224 1.2282.709414-.6637 1.149c.8837.86233 1.1217 2.22109.4944 3.30836l-1.5761 2.73016c-.3547.61454-.9295 1.05261-1.6232 1.23838-.0187.005-.0376.0099-.0565.0145-.476.1171-.9676.1061-1.4335-.0256l-.2313.4007c.3471.3375.6024.7577.739 1.2284.2063.7106.1192 1.4496-.2451 2.0806l-1.5765 2.7306c-.3548.6146-.9296 1.0525-1.623 1.2383-.0187.005-.0375.0098-.0563.0144-.4761.1171-.9676.1061-1.4334-.0257l-.2314.4006c.3471.3376.6023.7579.7388 1.2287.2061.7107.1189 1.4497-.2454 2.0803l-1.5762 2.7306c-.3659.6333-.95848 1.0584-1.6246 1.2369-.4771.1278-.9919.129-1.48802-.0104l-.6638 1.1498-1.22845-.7088zm9.61086-16.64631.598-1.03609 1.2285.7091-.5982 1.03621c.1131.00071.2262-.01231.3374-.03964.3394-.08155.6207-.29128.7901-.5847l1.576-2.73009c.2335-.40478.2077-.89299-.0237-1.28746l-.2069.35831-1.2283-.7094.2064-.35729c-.1237-.00073-.2457.01455-.3627.04588-.315.08441-.5926.28229-.7628.57719l-1.5763 2.73042c-.1694.29331-.209.63999-.1115.97613.0319.10974.077.21407.134.31143zm-4.4264 7.66751.5984-1.0363 1.2283.7093-.5983 1.0362c.1128.0007.2259-.0123.3369-.0397.3404-.0842.6205-.2913.7898-.5845l1.5765-2.7307c.1693-.2932.2089-.6399.1113-.976-.0319-.1099-.0771-.2143-.1342-.3118l-.5981 1.036-1.2284-.709.5982-1.0363c-.1128-.0007-.2259.0124-.3368.0397-.0091.0022-.0182.0045-.0272.0069-.3276.0878-.5976.2921-.7624.5775l-1.5766 2.7306v.0002c-.1695.2933-.2091.64-.1115.9761.0317.1099.077.2143.1341.3118zm-4.42705 7.6667.2065-.3577 1.22837.7092-.20617.3572c.45725.003.89287-.2188 1.12665-.6233l1.5762-2.7305c.1693-.2932.2089-.6399.1114-.9761-.0319-.1099-.077-.2143-.1341-.3118l-.5984 1.0363-1.2283-.7093.59833-1.036c-.11281-.0007-.22569.0124-.3367.0397-.00907.0022-.01807.0045-.02708.007-.32781.0878-.59793.2921-.76278.5776l-1.57649 2.7306-.00007.0002c-.16929.2931-.2089.6395-.11131.9755.03181.1097.07698.2141.13395.3114z"/><path d="m98.4914 24.7149c.347-.3375.6022-.7576.7388-1.2281.2062-.7107.1191-1.4495-.2452-2.0803l-1.5765-2.7305c-.3548-.6145-.9296-1.0525-1.6231-1.2383-.0187-.005-.0374-.0098-.0563-.0144-.4759-.1171-.9674-.1062-1.4332.0255l-.2315-.4009c.347-.3376.6023-.7576.7389-1.2281.2062-.7108.1191-1.4498-.2455-2.0809l-1.5765-2.7306c-.3643-.631-.9611-1.07563-1.6792-1.2526-.4758-.117-.9672-.10598-1.433.02579l-.2313-.40073c.3471-.33755.6023-.75776.7389-1.22838.2061-.71069.1189-1.44965-.2455-2.08068l-1.5762-2.73026c-.6275-1.08709-1.9233-1.56068-3.112-1.22663l-.6639-1.149224-1.2282.709414.6637 1.149c-.8837.86233-1.1217 2.22109-.4944 3.30836l1.5761 2.73016c.3547.61454.9295 1.05261 1.6232 1.23838.0187.005.0376.0099.0565.0145.476.1171.9676.1061 1.4335-.0256l.2313.4007c-.3471.3375-.6024.7577-.739 1.2284-.2063.7106-.1192 1.4496.2451 2.0806l1.5765 2.7306c.3548.6146.9296 1.0525 1.623 1.2383.0187.005.0375.0098.0563.0144.4761.1171.9676.1061 1.4334-.0257l.2314.4006c-.3471.3376-.6023.7579-.7388 1.2287-.2061.7107-.1189 1.4497.2454 2.0803l1.5762 2.7306c.3659.6333.9585 1.0584 1.6246 1.2369.4771.1278.9919.129 1.488-.0104l.6638 1.1498 1.2285-.7088zm-9.6109-16.64631-.598-1.03609-1.2285.7091.5982 1.03621c-.1131.00071-.2262-.01231-.3374-.03964-.3394-.08155-.6207-.29128-.7901-.5847l-1.576-2.73009c-.2335-.40478-.2077-.89299.0237-1.28746l.2069.35831 1.2283-.7094-.2064-.35729c.1237-.00073.2457.01455.3627.04588.315.08441.5926.28229.7628.57719l1.5763 2.73042c.1694.29331.209.63999.1115.97613-.0319.10974-.077.21407-.134.31143zm4.4264 7.66751-.5984-1.0363-1.2283.7093.5983 1.0362c-.1128.0007-.2259-.0123-.3369-.0397-.3404-.0842-.6205-.2913-.7898-.5845l-1.5765-2.7307c-.1693-.2932-.2089-.6399-.1113-.976.0319-.1099.0771-.2143.1342-.3118l.5981 1.036 1.2284-.709-.5982-1.0363c.1128-.0007.2259.0124.3368.0397.0091.0022.0182.0045.0272.0069.3276.0878.5976.2921.7624.5775l1.5766 2.7306v.0002c.1695.2933.2091.64.1115.9761-.0317.1099-.077.2143-.1341.3118zm4.427 7.6667-.2065-.3577-1.2283.7092.2061.3572c-.4572.003-.8928-.2188-1.1266-.6233l-1.5762-2.7305c-.1693-.2932-.2089-.6399-.1114-.9761.0319-.1099.077-.2143.1341-.3118l.5984 1.0363 1.2283-.7093-.5983-1.036c.1128-.0007.2257.0124.3367.0397.009.0022.018.0045.0271.007.3278.0878.5979.2921.7627.5776l1.5765 2.7306.0001.0002c.1693.2931.2089.6395.1113.9755-.0318.1097-.077.2141-.134.3114z"/></g></svg>