<svg width="180" height="180" viewBox="0 0 180 180" fill="none" xmlns="http://www.w3.org/2000/svg">
<circle cx="90" cy="90" r="90" fill="#FF2D55" fill-opacity="0.1"/>
<circle cx="90" cy="90" r="63" fill="#FF2D55" fill-opacity="0.1"/>
<circle cx="90" cy="90" r="36" fill="#FF2D55" fill-opacity="0.1"/>
<g filter="url(#filter0_d_1023_298171)">
<path d="M50 71.8889C50 66.9797 53.9797 63 58.8889 63H121.111C126.02 63 130 66.9797 130 71.8889V107.444C130 112.354 126.02 116.333 121.111 116.333H58.8889C53.9797 116.333 50 112.354 50 107.444V71.8889Z" fill="#FF2D55"/>
</g>
<path d="M63.334 85.2222C63.334 83.9949 64.3289 83 65.5562 83H72.2229C73.4502 83 74.4451 83.9949 74.4451 85.2222V88.5556C74.4451 89.7829 73.4502 90.7778 72.2229 90.7778H65.5562C64.3289 90.7778 63.334 89.7829 63.334 88.5556V85.2222Z" fill="#F0CC73"/>
<path d="M108.499 88.0308C108.225 87.9967 108 87.7761 108 87.5L108 84C108 81.7909 106.209 80 104 80C101.791 80 100 81.7909 100 84L100 87.5C100 87.7761 99.775 87.9967 99.501 88.0308C97.5274 88.2764 96 89.9598 96 92L96 96C96 98.2091 97.7909 100 100 100L108 100C110.209 100 112 98.2091 112 96L112 92C112 89.9598 110.473 88.2764 108.499 88.0308ZM110.5 92C110.5 90.6193 109.381 89.5 108 89.5L100 89.5C98.6193 89.5 97.5 90.6193 97.5 92L97.5 96C97.5 97.3807 98.6193 98.5 100 98.5L108 98.5C109.381 98.5 110.5 97.3807 110.5 96L110.5 92ZM106 88C106.276 88 106.5 87.7761 106.5 87.5L106.5 84C106.5 82.6193 105.381 81.5 104 81.5C102.619 81.5 101.5 82.6193 101.5 84L101.5 87.5C101.5 87.7761 101.724 88 102 88L106 88ZM104.984 94.1319C104.85 94.2491 104.75 94.4092 104.75 94.5877L104.75 96C104.75 96.4142 104.414 96.75 104 96.75C103.586 96.75 103.25 96.4142 103.25 96L103.25 94.5877C103.25 94.4092 103.15 94.2491 103.016 94.1319C102.7 93.8569 102.5 93.4518 102.5 93C102.5 92.1716 103.172 91.5 104 91.5C104.828 91.5 105.5 92.1716 105.5 93C105.5 93.4518 105.3 93.8569 104.984 94.1319Z" fill="black"/>
<path d="M108.499 88.0308C108.225 87.9967 108 87.7761 108 87.5L108 84C108 81.7909 106.209 80 104 80C101.791 80 100 81.7909 100 84L100 87.5C100 87.7761 99.775 87.9967 99.501 88.0308C97.5274 88.2764 96 89.9598 96 92L96 96C96 98.2091 97.7909 100 100 100L108 100C110.209 100 112 98.2091 112 96L112 92C112 89.9598 110.473 88.2764 108.499 88.0308ZM110.5 92C110.5 90.6193 109.381 89.5 108 89.5L100 89.5C98.6193 89.5 97.5 90.6193 97.5 92L97.5 96C97.5 97.3807 98.6193 98.5 100 98.5L108 98.5C109.381 98.5 110.5 97.3807 110.5 96L110.5 92ZM106 88C106.276 88 106.5 87.7761 106.5 87.5L106.5 84C106.5 82.6193 105.381 81.5 104 81.5C102.619 81.5 101.5 82.6193 101.5 84L101.5 87.5C101.5 87.7761 101.724 88 102 88L106 88ZM104.984 94.1319C104.85 94.2491 104.75 94.4092 104.75 94.5877L104.75 96C104.75 96.4142 104.414 96.75 104 96.75C103.586 96.75 103.25 96.4142 103.25 96L103.25 94.5877C103.25 94.4092 103.15 94.2491 103.016 94.1319C102.7 93.8569 102.5 93.4518 102.5 93C102.5 92.1716 103.172 91.5 104 91.5C104.828 91.5 105.5 92.1716 105.5 93C105.5 93.4518 105.3 93.8569 104.984 94.1319Z" stroke="black"/>
<defs>
<filter id="filter0_d_1023_298171" x="34" y="49" width="112" height="85.334" filterUnits="userSpaceOnUse" color-interpolation-filters="sRGB">
<feFlood flood-opacity="0" result="BackgroundImageFix"/>
<feColorMatrix in="SourceAlpha" type="matrix" values="0 0 0 0 0 0 0 0 0 0 0 0 0 0 0 0 0 0 127 0" result="hardAlpha"/>
<feOffset dy="2"/>
<feGaussianBlur stdDeviation="8"/>
<feColorMatrix type="matrix" values="0 0 0 0 0 0 0 0 0 0.0333333 0 0 0 0 0.1 0 0 0 0.12 0"/>
<feBlend mode="normal" in2="BackgroundImageFix" result="effect1_dropShadow_1023_298171"/>
<feBlend mode="normal" in="SourceGraphic" in2="effect1_dropShadow_1023_298171" result="shape"/>
</filter>
</defs>
</svg>
