<svg width="180" height="180" viewBox="0 0 180 180" fill="none" xmlns="http://www.w3.org/2000/svg">
<rect width="180" height="180" fill="#E5E5E5"/>
<rect x="-526" y="-222" width="1232" height="770" rx="5" fill="white"/>
<circle cx="90" cy="90" r="36" fill="#4360DF" fill-opacity="0.1"/>
<g filter="url(#filter0_d_1023_298171)">
<path d="M50 71.8889C50 66.9797 53.9797 63 58.8889 63H121.111C126.02 63 130 66.9797 130 71.8889V107.444C130 112.354 126.02 116.333 121.111 116.333H58.8889C53.9797 116.333 50 112.354 50 107.444V71.8889Z" fill="#2D2D2D"/>
</g>
<path fill-rule="evenodd" clip-rule="evenodd" d="M101.274 89.4963C97.9997 88.8057 95.5547 85.8626 95.5547 82.393C95.5547 78.4189 98.7613 75.2227 102.748 75.2227C106.734 75.2227 109.941 78.4189 109.941 82.393C110.015 85.8031 107.6 88.7046 104.394 89.4588V96.6465H104.567L108.38 92.1547H112.02L107.514 97.3382L112.28 104.335H108.9L105.434 99.3244L104.394 100.534V104.335H101.274V89.4963ZM98.4147 82.393C98.4147 80.0606 100.321 78.0733 102.748 78.0733C105.174 78.0733 107.168 80.0601 107.081 82.393C107.081 84.7248 105.174 86.712 102.747 86.712C100.408 86.712 98.4147 84.8114 98.4147 82.393Z" fill="#27D8B9"/>
<path d="M63.334 85.2222C63.334 83.9949 64.3289 83 65.5562 83H72.2229C73.4502 83 74.4451 83.9949 74.4451 85.2222V88.5556C74.4451 89.7829 73.4502 90.7778 72.2229 90.7778H65.5562C64.3289 90.7778 63.334 89.7829 63.334 88.5556V85.2222Z" fill="#F0CC73"/>
<defs>
<filter id="filter0_d_1023_298171" x="34" y="49" width="112" height="85.334" filterUnits="userSpaceOnUse" color-interpolation-filters="sRGB">
<feFlood flood-opacity="0" result="BackgroundImageFix"/>
<feColorMatrix in="SourceAlpha" type="matrix" values="0 0 0 0 0 0 0 0 0 0 0 0 0 0 0 0 0 0 127 0" result="hardAlpha"/>
<feOffset dy="2"/>
<feGaussianBlur stdDeviation="8"/>
<feColorMatrix type="matrix" values="0 0 0 0 0 0 0 0 0 0.0333333 0 0 0 0 0.1 0 0 0 0.12 0"/>
<feBlend mode="normal" in2="BackgroundImageFix" result="effect1_dropShadow_1023_298171"/>
<feBlend mode="normal" in="SourceGraphic" in2="effect1_dropShadow_1023_298171" result="shape"/>
</filter>
</defs>
</svg>
