<svg width="824" height="824" viewBox="0 0 824 824" fill="none" xmlns="http://www.w3.org/2000/svg">
<g clip-path="url(#clip0_7514_412)">
<mask id="mask0_7514_412" style="mask-type:alpha" maskUnits="userSpaceOnUse" x="0" y="0" width="824" height="824">
<path d="M412 0C103 0 0 103 0 412C0 721 103 824 412 824C721 824 824 721 824 412C824 103 721 0 412 0Z" fill="white"/>
</mask>
<g mask="url(#mask0_7514_412)">
<g filter="url(#filter0_f_7514_412)">
<circle cx="592.25" cy="231.75" r="489.25" fill="#1992D7"/>
</g>
<g filter="url(#filter1_f_7514_412)">
<circle cx="849.75" cy="489.25" r="489.25" fill="#F6B03C"/>
</g>
<g filter="url(#filter2_f_7514_412)">
<circle cx="128.75" cy="798.25" r="489.25" fill="#FF7D46"/>
</g>
<g filter="url(#filter3_f_7514_412)">
<circle cx="-180.25" cy="231.75" r="489.25" fill="#7140FD"/>
</g>
<path fill-rule="evenodd" clip-rule="evenodd" d="M466.807 226.805C385.094 231.476 324.761 305.751 318.053 389.777C318.465 389.651 318.921 389.524 319.377 389.398C319.833 389.271 320.289 389.145 320.701 389.018C330.977 386.41 341.49 384.825 352.083 384.288C375.027 383.005 393.685 384.991 412.341 386.978C431.021 388.967 449.698 390.956 472.671 389.661C483.22 389.103 493.684 387.472 503.897 384.795C547.127 373.583 571.998 344.368 569.801 304.33C567.094 254.58 516.98 223.943 466.807 226.805ZM357.399 597.152C439.111 592.481 499.445 518.206 506.153 434.179C505.636 434.338 505.049 434.497 504.48 434.651C504.143 434.742 503.812 434.832 503.505 434.919C493.229 437.528 482.716 439.112 472.122 439.649C449.149 440.954 430.472 438.97 411.792 436.986C393.136 435.004 374.478 433.022 351.534 434.316C340.985 434.874 330.522 436.504 320.308 439.182C277.079 450.374 252.306 479.589 254.405 519.627C257.111 569.377 307.226 600.013 357.399 597.152Z" fill="white"/>
</g>
</g>
<defs>
<filter id="filter0_f_7514_412" x="-139.829" y="-500.329" width="1464.16" height="1464.16" filterUnits="userSpaceOnUse" color-interpolation-filters="sRGB">
<feFlood flood-opacity="0" result="BackgroundImageFix"/>
<feBlend mode="normal" in="SourceGraphic" in2="BackgroundImageFix" result="shape"/>
<feGaussianBlur stdDeviation="121.415" result="effect1_foregroundBlur_7514_412"/>
</filter>
<filter id="filter1_f_7514_412" x="117.671" y="-242.829" width="1464.16" height="1464.16" filterUnits="userSpaceOnUse" color-interpolation-filters="sRGB">
<feFlood flood-opacity="0" result="BackgroundImageFix"/>
<feBlend mode="normal" in="SourceGraphic" in2="BackgroundImageFix" result="shape"/>
<feGaussianBlur stdDeviation="121.415" result="effect1_foregroundBlur_7514_412"/>
</filter>
<filter id="filter2_f_7514_412" x="-603.329" y="66.1709" width="1464.16" height="1464.16" filterUnits="userSpaceOnUse" color-interpolation-filters="sRGB">
<feFlood flood-opacity="0" result="BackgroundImageFix"/>
<feBlend mode="normal" in="SourceGraphic" in2="BackgroundImageFix" result="shape"/>
<feGaussianBlur stdDeviation="121.415" result="effect1_foregroundBlur_7514_412"/>
</filter>
<filter id="filter3_f_7514_412" x="-912.329" y="-500.329" width="1464.16" height="1464.16" filterUnits="userSpaceOnUse" color-interpolation-filters="sRGB">
<feFlood flood-opacity="0" result="BackgroundImageFix"/>
<feBlend mode="normal" in="SourceGraphic" in2="BackgroundImageFix" result="shape"/>
<feGaussianBlur stdDeviation="121.415" result="effect1_foregroundBlur_7514_412"/>
</filter>
<clipPath id="clip0_7514_412">
<rect width="824" height="824" fill="white"/>
</clipPath>
</defs>
</svg>
