<svg width="16" height="16" viewBox="0 0 16 16" fill="none" xmlns="http://www.w3.org/2000/svg">
<path d="M12.0655 4.99469C12.3584 4.70179 12.3584 4.22692 12.0655 3.93403C11.7726 3.64113 11.2977 3.64113 11.0048 3.93403L12.0655 4.99469ZM3.93376 11.0051C3.64087 11.298 3.64087 11.7729 3.93376 12.0658C4.22665 12.3586 4.70153 12.3586 4.99442 12.0658L3.93376 11.0051ZM11.0048 3.93403L3.93376 11.0051L4.99442 12.0658L12.0655 4.99469L11.0048 3.93403Z" fill="black"/>
<path d="M11.0048 12.066C11.2977 12.3589 11.7726 12.3589 12.0655 12.066C12.3584 11.7731 12.3584 11.2982 12.0655 11.0053L11.0048 12.066ZM4.99442 3.93425C4.70153 3.64135 4.22665 3.64135 3.93376 3.93425C3.64087 4.22714 3.64087 4.70201 3.93376 4.99491L4.99442 3.93425ZM12.0655 11.0053L4.99442 3.93425L3.93376 4.99491L11.0048 12.066L12.0655 11.0053Z" fill="black"/>
</svg>
