<svg fill="none" height="36" viewBox="0 0 36 36" width="36" xmlns="http://www.w3.org/2000/svg" xmlns:xlink="http://www.w3.org/1999/xlink"><linearGradient id="a"><stop offset=".15" stop-color="#b32eff"/><stop offset=".42" stop-color="#ce60d3"/><stop offset=".65" stop-color="#e185b3"/><stop offset=".84" stop-color="#ee9c9f"/><stop offset=".96" stop-color="#f2a498"/></linearGradient><linearGradient id="b" gradientUnits="userSpaceOnUse" x1="28.4876" x2="4.57995" xlink:href="#a" y1="25.8943" y2="-3.51434"/><linearGradient id="c" gradientUnits="userSpaceOnUse" x1="6.99969" x2="30.9074" xlink:href="#a" y1="9.4931" y2="38.9018"/><clipPath id="d"><path d="m8 8h20v20h-20z"/></clipPath><circle cx="18" cy="18" fill="#fff" r="17.5" stroke="#f6f8fa"/><g clip-path="url(#d)"><path d="m27.1385 14.4178-4.0717-5.93042c-.6394-.9295-2.0855-.43607-2.0382.69321.0433 1.02941.4275 2.11891 1.3471 3.45601l.0005.0025-.0011.0022-.0022.0013-.0025-.0004c-.3761-.2808-6.0478-4.54516-12.78958-2.2746h-.00761c-.74405.2792-1.1239.8886-.93558 1.6031.17429.6615.85184 1.0586 1.52537.9467 1.432-.2387 2.8532-.3522 4.2508-.2294 1.3976.1227 2.7647.4814 4.0376 1.1076 1.273.6262 2.4261 1.5124 3.4859 2.5273 1.192 1.1405 2.671 3.5728 2.671 3.5728.0866.1541.2249.2726.3903.3346.1655.062.3475.0636.514.0044.4007-.1437.5873-.6062.4367-1.003-.3142-.8293-.6988-1.6301-1.1495-2.3937l-.001-.0027.0009-.0026.0025-.0014.0028.0007c.4984.1877.9596.4216 1.5053.2937.4452-.1048.8358-.408 1.0173-.8325.1315-.3027.1831-.634.15-.9624-.0332-.3284-.1499-.6428-.3391-.913z" fill="url(#b)"/><path d="m8.34877 20.9696 4.07173 5.9304c.6394.9295 2.0855.4361 2.0382-.6932-.0433-1.0294-.4275-2.119-1.3471-3.456l-.0005-.0025.0011-.0023.0022-.0012.0024.0003c.3763.2808 6.0479 4.5452 12.7897 2.2747h.0076c.744-.2792 1.1239-.8886.9356-1.6031-.1743-.6615-.8519-1.0587-1.5254-.9468-1.4321.2387-2.8532.3523-4.2508.2295s-2.7647-.4814-4.0376-1.1076c-1.273-.6262-2.4262-1.5124-3.4859-2.5274-1.192-1.1405-2.6709-3.5727-2.6709-3.5727-.0867-.1541-.225-.2726-.3904-.3347-.1655-.062-.3475-.0635-.51398-.0043-.40068.1436-.58739.6062-.43674 1.0029.3142.8293.69882 1.6302 1.14952 2.3938l.0011.0026-.001.0027-.0025.0014-.0028-.0007c-.4984-.1878-.9596-.4216-1.50533-.2936-.44515.1046-.83581.408-1.01732.8323-.1314.3027-.18302.6341-.14991.9625.03312.3283.14985.6427.33903.913z" fill="url(#c)"/></g></svg>