<svg width="10" height="10" viewBox="0 0 10 10" fill="none" xmlns="http://www.w3.org/2000/svg">
<path d="M5 0.5C5.27614 0.5 5.5 0.723858 5.5 1V4.16667C5.5 4.35076 5.64924 4.5 5.83333 4.5H9C9.27614 4.5 9.5 4.72386 9.5 5C9.5 5.27614 9.27614 5.5 9 5.5H5.83333C5.64924 5.5 5.5 5.64924 5.5 5.83333V9C5.5 9.27614 5.27614 9.5 5 9.5C4.72386 9.5 4.5 9.27614 4.5 9V5.83333C4.5 5.64924 4.35076 5.5 4.16667 5.5H1C0.723858 5.5 0.5 5.27614 0.5 5C0.5 4.72386 0.723858 4.5 1 4.5H4.16667C4.35076 4.5 4.5 4.35076 4.5 4.16667V1C4.5 0.723858 4.72386 0.5 5 0.5Z" fill="#4360DF"/>
</svg>
