<svg width="24" height="24" viewBox="0 0 24 24" fill="none" xmlns="http://www.w3.org/2000/svg">
<path d="M16.0303 7.96955C16.3232 8.26244 16.3232 8.73731 16.0303 9.03021L13.4142 11.6464C13.2189 11.8416 13.2189 12.1582 13.4142 12.3535L16.0303 14.9697C16.3232 15.2626 16.3232 15.7374 16.0303 16.0303C15.7374 16.3232 15.2626 16.3232 14.9697 16.0303L12.3535 13.4142C12.1582 13.2189 11.8416 13.2189 11.6464 13.4142L9.03033 16.0302C8.73744 16.3231 8.26256 16.3231 7.96967 16.0302C7.67678 15.7373 7.67678 15.2624 7.96967 14.9695L10.5857 12.3535C10.781 12.1582 10.781 11.8416 10.5857 11.6464L7.96967 9.03033C7.67678 8.73744 7.67678 8.26256 7.96967 7.96967C8.26256 7.67678 8.73744 7.67678 9.03033 7.96967L11.6464 10.5857C11.8416 10.781 12.1582 10.781 12.3535 10.5857L14.9697 7.96955C15.2626 7.67665 15.7374 7.67665 16.0303 7.96955Z" fill="black"/>
<path fill-rule="evenodd" clip-rule="evenodd" d="M12 22C17.5228 22 22 17.5228 22 12C22 6.47715 17.5228 2 12 2C6.47715 2 2 6.47715 2 12C2 17.5228 6.47715 22 12 22ZM12 20.5C16.6944 20.5 20.5 16.6944 20.5 12C20.5 7.30558 16.6944 3.5 12 3.5C7.30558 3.5 3.5 7.30558 3.5 12C3.5 16.6944 7.30558 20.5 12 20.5Z" fill="black"/>
</svg>
