<svg width="14" height="12" viewBox="0 0 14 12" fill="none" xmlns="http://www.w3.org/2000/svg">
<path d="M7.99838 0.00722752C7.70764 -0.0407138 7.43287 0.154896 7.38468 0.444134L5.5622 11.3825C5.51401 11.6718 5.71063 11.9451 6.00138 11.993C6.29212 12.041 6.56688 11.8454 6.61508 11.5561L8.43756 0.617744C8.48575 0.328507 8.28913 0.0551688 7.99838 0.00722752Z" fill="#4360DF"/>
<path fill-rule="evenodd" clip-rule="evenodd" d="M11.3333 3.5C9.95254 3.5 8.83325 4.61929 8.83325 6C8.83325 7.38071 9.95254 8.5 11.3333 8.5C12.714 8.5 13.8333 7.38071 13.8333 6C13.8333 4.61929 12.714 3.5 11.3333 3.5ZM9.83325 6C9.83325 6.82843 10.5048 7.5 11.3333 7.5C12.1617 7.5 12.8333 6.82843 12.8333 6C12.8333 5.17157 12.1617 4.5 11.3333 4.5C10.5048 4.5 9.83325 5.17157 9.83325 6Z" fill="#4360DF"/>
<path fill-rule="evenodd" clip-rule="evenodd" d="M1.66659 3.66667C0.930206 3.66667 0.333252 4.26362 0.333252 5V7C0.333252 7.73638 0.930206 8.33333 1.66659 8.33333H3.66659C4.40297 8.33333 4.99992 7.73638 4.99992 7V5C4.99992 4.26362 4.40297 3.66667 3.66659 3.66667H1.66659ZM3.66659 4.66667H1.66659C1.48249 4.66667 1.33325 4.81591 1.33325 5V7C1.33325 7.18409 1.48249 7.33333 1.66659 7.33333H3.66659C3.85068 7.33333 3.99992 7.18409 3.99992 7V5C3.99992 4.81591 3.85068 4.66667 3.66659 4.66667Z" fill="#4360DF"/>
</svg>
