<svg width="17" height="16" viewBox="0 0 17 16" fill="none" xmlns="http://www.w3.org/2000/svg">
<path d="M0.5 8C0.5 3.58172 4.08172 0 8.5 0C12.9183 0 16.5 3.58172 16.5 8C16.5 12.4183 12.9183 16 8.5 16C4.08172 16 0.5 12.4183 0.5 8Z" fill="#4360DF"/>
<path d="M8.49984 7.5C9.74248 7.5 10.7498 6.49264 10.7498 5.25C10.7498 4.00736 9.74248 3 8.49984 3C7.2572 3 6.24984 4.00736 6.24984 5.25C6.24984 6.49264 7.2572 7.5 8.49984 7.5Z" fill="white"/>
<path d="M4.62326 12.0101C5.06378 10.2798 6.63236 9 8.49984 9C10.3673 9 11.9359 10.2798 12.3764 12.0101C12.5127 12.5453 12.0521 13 11.4998 13H5.49984C4.94755 13 4.48701 12.5453 4.62326 12.0101Z" fill="white"/>
</svg>
