<svg width="18" height="18" viewBox="0 0 18 18" fill="none" xmlns="http://www.w3.org/2000/svg">
<path fill-rule="evenodd" clip-rule="evenodd" d="M8 10C10.7614 10 13 7.76142 13 5C13 2.23858 10.7614 0 8 0C5.23858 0 3 2.23858 3 5C3 7.76142 5.23858 10 8 10ZM8 8.5C9.933 8.5 11.5 6.933 11.5 5C11.5 3.067 9.933 1.5 8 1.5C6.067 1.5 4.5 3.067 4.5 5C4.5 6.933 6.067 8.5 8 8.5Z" fill="#4360DF"/>
<path d="M8.93455 13.7839C8.89975 14.2015 8.52884 14.506 8.10986 14.5007C8.07325 14.5002 8.03657 14.5 7.99985 14.5C5.45645 14.5 3.17395 15.6171 1.61624 17.3874C1.31374 17.7312 0.777725 17.7779 0.453922 17.454C0.193192 17.1933 0.161813 16.7784 0.401673 16.4984C2.23574 14.357 4.95932 13 7.99985 13C8.08678 13 8.17346 13.0011 8.25987 13.0033C8.66888 13.0138 8.96852 13.3762 8.93455 13.7839Z" fill="#4360DF"/>
<path d="M17.6708 10.3354C17.8561 9.96493 17.7059 9.51442 17.3354 9.32918C16.9649 9.14394 16.5144 9.29411 16.3292 9.66459L14.1048 14.1134C13.9522 14.4186 13.5453 14.4847 13.304 14.2433L12.5303 13.4697C12.2374 13.1768 11.7626 13.1768 11.4697 13.4697C11.1768 13.7626 11.1768 14.2374 11.4697 14.5303L12.9791 16.0398C13.5824 16.6431 14.5995 16.4781 14.9811 15.7149L17.6708 10.3354Z" fill="#4360DF"/>
</svg>
