<svg width="16" height="16" viewBox="0 0 16 16" fill="none" xmlns="http://www.w3.org/2000/svg">
<path d="M7.50016 2.33313C7.77631 2.33313 8.00016 2.10928 8.00016 1.83313C8.00016 1.55699 7.77631 1.33313 7.50016 1.33313L4.00016 1.33313C2.5274 1.33313 1.3335 2.52704 1.3335 3.9998L1.3335 11.9998C1.3335 13.4726 2.5274 14.6665 4.00016 14.6665H12.0002C13.4729 14.6665 14.6668 13.4726 14.6668 11.9998V8.4998C14.6668 8.22366 14.443 7.9998 14.1668 7.9998C13.8907 7.9998 13.6668 8.22366 13.6668 8.4998V11.9998C13.6668 12.9203 12.9206 13.6665 12.0002 13.6665H4.00016C3.07969 13.6665 2.3335 12.9203 2.3335 11.9998L2.3335 3.9998C2.3335 3.07933 3.07969 2.33313 4.00016 2.33313L7.50016 2.33313Z" fill="#4360DF"/>
<path fill-rule="evenodd" clip-rule="evenodd" d="M14.187 1.81291C13.5316 1.15741 12.4688 1.15741 11.8133 1.81291L6.22425 7.40194C6.00394 7.62225 5.84341 7.89507 5.75782 8.19465L5.18607 10.1958C5.13618 10.3704 5.18488 10.5583 5.31328 10.6867C5.44168 10.8151 5.62959 10.8638 5.80419 10.8139L7.80532 10.2421C8.10489 10.1566 8.37771 9.99602 8.59802 9.77571L14.187 4.18669C14.8425 3.53119 14.8426 2.46841 14.187 1.81291ZM12.5204 2.52002C12.7854 2.25505 13.215 2.25505 13.4799 2.52002C13.7449 2.785 13.7449 3.21461 13.4799 3.47958L7.89092 9.06861C7.79078 9.16875 7.66677 9.24172 7.53059 9.28062C7.03557 9.42206 6.57791 8.96439 6.71934 8.46937C6.75825 8.3332 6.83122 8.20919 6.93136 8.10905L12.5204 2.52002Z" fill="#4360DF"/>
</svg>
