<svg width="16" height="18" viewBox="0 0 16 18" fill="none" xmlns="http://www.w3.org/2000/svg">
<path fill-rule="evenodd" clip-rule="evenodd" d="M12.9995 5C12.9995 7.76142 10.7609 10 7.99951 10C5.23809 10 2.99951 7.76142 2.99951 5C2.99951 2.23858 5.23809 0 7.99951 0C10.7609 0 12.9995 2.23858 12.9995 5ZM11.4995 5C11.4995 6.933 9.93251 8.5 7.99951 8.5C6.06651 8.5 4.49951 6.933 4.49951 5C4.49951 3.067 6.06651 1.5 7.99951 1.5C9.93251 1.5 11.4995 3.067 11.4995 5Z" fill="#4360DF"/>
<path d="M14.383 17.3874C14.6855 17.7312 15.2215 17.7779 15.5453 17.4541C15.806 17.1933 15.8374 16.7784 15.5976 16.4984C13.7635 14.357 11.0399 13 7.99936 13C4.95884 13 2.23525 14.357 0.401185 16.4984C0.161325 16.7784 0.192703 17.1933 0.453434 17.454C0.777236 17.7779 1.31325 17.7312 1.61575 17.3874C3.17347 15.6171 5.45596 14.5 7.99936 14.5C10.5428 14.5 12.8253 15.6171 14.383 17.3874Z" fill="#4360DF"/>
</svg>
