<svg width="20" height="20" viewBox="0 0 20 20" fill="none" xmlns="http://www.w3.org/2000/svg">
<path fill-rule="evenodd" clip-rule="evenodd" d="M1.66663 8.92905C1.66663 7.64467 2.63986 6.56926 3.91787 6.44146L6.94809 6.13843C8.96573 5.93667 10.9296 5.36842 12.7433 4.4616L15.9213 2.87259C17.0294 2.31851 18.3333 3.12433 18.3333 4.3633V13.9699C18.3333 15.2088 17.0294 16.0147 15.9213 15.4606L12.7433 13.8716C12.2307 13.6153 11.7061 13.386 11.1717 13.1844C10.9049 13.0838 10.625 13.2845 10.625 13.5696V15.4167C10.625 16.4522 9.78549 17.2917 8.74996 17.2917H8.33329C6.6074 17.2917 5.20829 15.8925 5.20829 14.1667V12.3978C5.20829 12.1838 5.04609 12.0045 4.83309 11.9832L3.91787 11.8917C2.63986 11.7639 1.66663 10.6885 1.66663 9.40411V8.92905ZM17.0833 4.3633V13.9699C17.0833 14.2796 16.7573 14.4811 16.4803 14.3425L13.3023 12.7535C11.3526 11.7787 9.24143 11.1678 7.07247 10.9509L4.04225 10.6479C3.40324 10.584 2.91663 10.0463 2.91663 9.40411V8.92905C2.91663 8.28686 3.40324 7.74915 4.04225 7.68525L7.07247 7.38223C9.24143 7.16534 11.3526 6.55446 13.3023 5.57964L16.4803 3.99063C16.7573 3.85211 17.0833 4.05357 17.0833 4.3633ZM6.91642 12.1916C6.67113 12.167 6.45829 12.3596 6.45829 12.6062V14.1667C6.45829 15.2022 7.29776 16.0417 8.33329 16.0417H8.74996C9.09514 16.0417 9.37496 15.7618 9.37496 15.4167V12.9449C9.37496 12.7541 9.24551 12.5871 9.05967 12.544C8.36533 12.3828 7.66005 12.2659 6.94809 12.1947L6.91642 12.1916Z" fill="#4360DF"/>
</svg>
