<svg fill="none" height="24" viewBox="0 0 24 24" width="24" xmlns="http://www.w3.org/2000/svg"><g clip-rule="evenodd" fill="#939ba1" fill-rule="evenodd"><path d="m12 21.5c5.2467 0 9.5-4.2533 9.5-9.5 0-5.24671-4.2533-9.5-9.5-9.5-5.24671 0-9.5 4.25329-9.5 9.5 0 5.2467 4.25329 9.5 9.5 9.5zm0 1.5c6.0751 0 11-4.9249 11-11 0-6.07513-4.9249-11-11-11-6.07513 0-11 4.92487-11 11 0 6.0751 4.92487 11 11 11z"/><path d="m7.24014 16.1491c-.09744.3703.24048.7082.61079.6108l6.77087-1.7818c.1743-.0459.3104-.182.3563-.3563l1.7818-6.77087c.0974-.37031-.2405-.70823-.6108-.61079l-6.77087 1.7818c-.17429.04587-.31042.182-.35629.35629zm2.01777-1.7735c-.05847.2222.14429.425.36647.3665l3.76942-.992c.1743-.0458.3105-.182.3563-.3563l.992-3.76942c.0585-.22218-.1443-.42494-.3665-.36647l-3.7694.99199c-.1743.0458-.3105.182-.3563.3563z"/></g></svg>