<svg fill="none" height="24" viewBox="0 0 24 24" width="24" xmlns="http://www.w3.org/2000/svg"><path clip-rule="evenodd" d="m7.26285 18.4743c0 1.2574-1.0193 2.2767-2.27667 2.2767-1.25738 0-2.27668-1.0193-2.27668-2.2767s1.0193-2.2767 2.27668-2.2767c1.25737 0 2.27667 1.0193 2.27667 2.2767zm-2.27667 3.7767c1.829 0 3.35434-1.3002 3.7022-3.0267h6.62322c.3479 1.7265 1.8732 3.0267 3.7022 3.0267 2.0858 0 3.7767-1.6909 3.7767-3.7767s-1.6909-3.7767-3.7767-3.7767c-1.829 0-3.3543 1.3002-3.7022 3.0267h-6.62322c-.34786-1.7265-1.8732-3.0267-3.7022-3.0267-2.0858 0-3.77668 1.6909-3.77668 3.7767s1.69088 3.7767 3.77668 3.7767zm16.30432-3.7767c0 1.2574-1.0193 2.2767-2.2767 2.2767s-2.2767-1.0193-2.2767-2.2767 1.0193-2.2767 2.2767-2.2767 2.2767 1.0193 2.2767 2.2767zm-7.0138-12.9486c0 1.25737-1.0193 2.27667-2.2767 2.27667s-2.27668-1.0193-2.27668-2.27667c0-1.25738 1.01928-2.27668 2.27668-2.27668s2.2767 1.0193 2.2767 2.27668zm1.5 0c0 1.16383-.5265 2.20472-1.3542 2.8975l3.4874 6.4383c-.4891.1492-.936.395-1.3185.7152l-3.4874-6.43824c-.3492.10657-.7199.16391-1.104.16391s-.7548-.05733-1.104-.16391l-3.48738 6.43824c-.38255-.3202-.82945-.566-1.31849-.7152l3.48739-6.43829c-.82775-.69279-1.3542-1.73367-1.3542-2.89751 0-2.0858 1.69087-3.77668 3.77668-3.77668 2.0858 0 3.7767 1.69088 3.7767 3.77668z" fill="#939ba1" fill-rule="evenodd"/></svg>