<svg fill="none" height="24" viewBox="0 0 24 24" width="24" xmlns="http://www.w3.org/2000/svg"><path clip-rule="evenodd" d="m11.6192 18.1568-6.61756 2.7249c-.54765.2255-1.09216-.3287-.85708-.8723l7.15694-16.55047c.1205-.27858.395-.45893.6985-.45893s.578.18035.6984.45893l7.157 16.55047c.2351.5436-.3094 1.0978-.8571.8723l-6.6176-2.7249c-.2439-.1005-.5176-.1004-.7615 0zm-.3692-1.675c0 .1278-.0837.2393-.2019.288l-3.56877 1.4695c-.41489.1708-.82739-.249-.64931-.6608l3.94048-9.11243c.1077-.24912.4795-.17219.4795.09923zm1.5 0c0 .1278.0837.2393.2019.288l3.5687 1.4695c.4149.1708.8274-.249.6493-.6608l-3.9405-9.11243c-.1077-.24912-.4794-.17219-.4794.09923z" fill="#4360df" fill-rule="evenodd"/></svg>