<svg fill="none" height="24" viewBox="0 0 24 24" width="24" xmlns="http://www.w3.org/2000/svg"><g clip-rule="evenodd" fill="#939ba1" fill-rule="evenodd"><path d="m15.4083 12c0 1.8823-1.5259 3.4082-3.4083 3.4082-1.8823 0-3.4082-1.5259-3.4082-3.4082s1.5259-3.40826 3.4082-3.40826c1.8824 0 3.4083 1.52596 3.4083 3.40826zm-1.5 0c0 1.0539-.8544 1.9082-1.9083 1.9082s-1.9082-.8543-1.9082-1.9082.8543-1.9083 1.9082-1.9083 1.9083.8544 1.9083 1.9083z"/><path d="m12.2772 23h-.5544c-.8815 0-1.6562-.5844-1.89839-1.432l-.49811-1.7433c-.09703-.3397-.47875-.5076-.79467-.3496l-1.63103.8155c-.76011.3801-1.67813.2311-2.27904-.3698l-.54232-.5424c-.60092-.6009-.74989-1.5189-.36984-2.279l.81551-1.631c.15796-.3159-.00996-.6977-.34957-.7947l-1.74338-.4981c-.84759-.2422-1.43196-1.0169-1.43196-1.8984v-.5544c0-.8815.58437-1.6562 1.43196-1.89839l1.74338-.49811c.33961-.09703.50753-.47875.34957-.79467l-.81551-1.63103c-.38005-.76011-.23108-1.67813.36984-2.27904l.54232-.54232c.60091-.60092 1.51893-.74989 2.27904-.36984l1.63103.81551c.31592.15796.69764-.00996.79467-.34957l.49811-1.74338c.24219-.8476 1.01689-1.43196 1.89839-1.43196h.5544c.8815 0 1.6562.58436 1.8984 1.43196l.4981 1.74338c.097.33961.4788.50753.7947.34957l1.631-.81551c.7601-.38005 1.6781-.23108 2.279.36984l.5424.54232c.6009.60091.7499 1.51893.3698 2.27904l-.8155 1.63103c-.158.31592.0099.69764.3496.79467l1.7433.49811c.8476.24219 1.432 1.01689 1.432 1.89839v.5544c0 .8815-.5844 1.6562-1.432 1.8984l-1.7433.4981c-.3397.097-.5076.4788-.3496.7947l.8155 1.631c.3801.7601.2311 1.6781-.3698 2.279l-.5424.5424c-.6009.6009-1.5189.7499-2.279.3698l-1.631-.8155c-.3159-.158-.6977.0099-.7947.3496l-.4981 1.7433c-.2422.8476-1.0169 1.432-1.8984 1.432zm-.5544-1.5c-.2118 0-.3979-.1404-.4561-.344l-.4981-1.7434c-.3551-1.2427-1.75182-1.8571-2.90779-1.2792l-1.63103.8156c-.18262.0913-.40319.0555-.54756-.0889l-.54232-.5423c-.14438-.1444-.18017-.365-.08886-.5476l.81551-1.631c.57799-1.156-.03645-2.5527-1.27913-2.9078l-1.74338-.4981c-.20364-.0582-.34404-.2443-.34404-.4561v-.5544c0-.2118.1404-.3979.34404-.4561l1.74338-.4981c1.24269-.3551 1.85712-1.75182 1.27914-2.90779l-.81552-1.63103c-.09131-.18262-.05552-.40319.08886-.54756l.54232-.54232c.14437-.14438.36494-.18017.54756-.08886l1.63103.81551c1.15596.57799 2.55269-.03644 2.90779-1.27913l.4981-1.74338c.0582-.20364.2443-.34404.4561-.34404h.5544c.2118 0 .3979.1404.4561.34404l.4981 1.74338c.3551 1.24269 1.7518 1.85712 2.9078 1.27913l1.631-.81551c.1826-.09131.4032-.05552.5476.08886l.5423.54232c.1444.14437.1802.36494.0889.54756l-.8156 1.63103c-.5779 1.15597.0365 2.55269 1.2792 2.90779l1.7434.4981c.2036.0582.344.2443.344.4561v.5544c0 .2118-.1404.3979-.344.4561l-1.7434.4981c-1.2427.3551-1.8571 1.7518-1.2792 2.9078l.8156 1.631c.0913.1826.0555.4032-.0889.5476l-.5423.5423c-.1444.1444-.365.1802-.5476.0889l-1.631-.8156c-1.156-.5779-2.5527.0365-2.9078 1.2792l-.4981 1.7434c-.0582.2036-.2443.344-.4561.344z"/></g></svg>