<svg fill="none" height="24" viewBox="0 0 24 24" width="24" xmlns="http://www.w3.org/2000/svg"><path clip-rule="evenodd" d="m12 23c-6.07513 0-11-4.9249-11-11 0-6.07513 4.92487-11 11-11 6.0751 0 11 4.92487 11 11 0 6.0751-4.9249 11-11 11zm0-1.5c-1.6429 0-2.97477-1.3318-2.97477-2.9748 0-1.6429 1.33187-2.9747 2.97477-2.9747s2.9748 1.3318 2.9748 2.9747c0 1.643-1.3319 2.9748-2.9748 2.9748zm-4.88742-2.8249c.11346.1967.41265.0772.41265-.1499 0-2.4713 2.00342-4.4747 4.47477-4.4747 2.4713 0 4.4748 2.0034 4.4748 4.4747 0 .2271.2992.3466.4126.1499.4777-.8281.7511-1.7889.7511-2.8136 0-3.114-2.5245-5.6384-5.6385-5.6384-3.11403 0-5.63846 2.5244-5.63846 5.6384 0 1.0247.27333 1.9855.75104 2.8136zm11.93572-1.6759c-.07.4367.5015.7848.7542.4218 1.0701-1.5374 1.6975-3.4059 1.6975-5.421 0-5.24671-4.2533-9.5-9.5-9.5-5.24671 0-9.5 4.25329-9.5 9.5 0 2.0151.6274 3.8836 1.69751 5.421.25267.363.82414.0149.7542-.4218-.05934-.3705-.09017-.7505-.09017-1.1377 0-3.9424 3.196-7.13842 7.13846-7.13842 3.9425 0 7.1385 3.19602 7.1385 7.13842 0 .3872-.0309.7672-.0902 1.1377z" fill="#939ba1" fill-rule="evenodd"/></svg>