<svg fill="none" height="20" viewBox="0 0 20 20" width="20" xmlns="http://www.w3.org/2000/svg"><path clip-rule="evenodd" d="m14.7501 18.2272c4.5438-2.6233 6.1006-8.43342 3.4773-12.9772-2.6234-4.543781-8.4335-6.100595-12.97728-3.47724-4.543779 2.62335-6.100592 8.43344-3.47724 12.97724 2.62335 4.5438 8.43342 6.1006 12.97722 3.4772zm2.5871-7.2768c.2885.1394.6192-.0515.6427-.3711.1135-1.54406-.2191-3.1374-1.0516-4.5793-.8325-1.44191-2.046-2.52662-3.44-3.20037-.2885-.13942-.6192.05152-.6427.37105-.1135 1.5441.2191 3.13743 1.0516 4.57933.8325 1.44191 2.0461 2.52659 3.44 3.20039zm-.2526 1.5327c.2516.1076.387.3903.2803.6423-.6546 1.5456-1.7991 2.8989-3.3648 3.8028-1.5656.9039-3.3099 1.2185-4.97571 1.0125-.27153-.0335-.44873-.2921-.41607-.5638.23671-1.9686-.13855-4.0276-1.20624-5.8769-1.06769-1.84931-2.66325-3.20383-4.48646-3.98313-.25158-.10754-.38693-.39029-.28024-.64223.65455-1.54566 1.79907-2.89891 3.36474-3.80284 1.56567-.90394 3.30988-1.21851 4.97568-1.01253.2716.03357.4488.29216.4161.5638-.2367 1.9686.1386 4.02765 1.2063 5.87695 1.0677 1.84928 2.6632 3.20378 4.4864 3.98308zm-14.01268 1.5169c-.83249-1.4419-1.16509-3.0352-1.05158-4.57934.02348-.31952.35421-.51047.64267-.37105 1.39398.67375 2.60754 1.75849 3.44003 3.20039.83248 1.4419 1.16508 3.0352 1.05158 4.5793-.02349.3195-.35421.5105-.64267.3711-1.39398-.6738-2.60755-1.7585-3.44003-3.2004z" fill="#939ba1" fill-rule="evenodd"/></svg>