<svg fill="none" height="18" viewBox="0 0 16 18" width="16" xmlns="http://www.w3.org/2000/svg"><path clip-rule="evenodd" d="m1.80244 2.38248c-.03248.01709-.05244.05097-.05244.08766v6.68314c0 .36003.39262.59073.72817.46023 1.33942-.52088 3.21314-.62835 5.41933.75049 1.79987 1.125 3.4639 1.12 4.6863.8422.6169-.1402 1.1223-.3509 1.4714-.5254.1213-.0606.1948-.1863.1948-.3219v-6.52647c0-.34294-.3379-.58465-.6697-.4982-.2161.05628-.4487.10874-.6961.15373-1.4942.27166-3.5415.27197-5.71961-.81709-1.84087-.92044-3.28943-.90257-4.2519-.68869-.48791.10843-.86286.2701-1.11025.4003zm12.82596-1.03392-.001.00057-.02.01079c-.0197.01047-.0519.02722-.0959.04882-.0882.04324-.2232.10573-.3994.1762-.3531.14125-.867.31279-1.4963.42721-1.2558.22834-2.95848.22803-4.78039-.68292-2.15914-1.079577-3.96058-1.097448-5.24811-.811327-.63709.141577-1.13713.354913-1.48349.537207-.173309.09122-.308824.17502-.404605.23887-.047922.03195-.086005.05898-.11401.07954-.014007.01028-.025504.01896-.034464.02583l-.011537.00894-.004338.00342-.00181.00144-.000815.00065s.00954-.00757.0185-.01445l-.0185.01445-.09458.07566c-.118607.09489-.187651.23854-.187651.39043v15.62011c0 .2762.223858.5.5.5h.5c.27614 0 .5-.2239.5-.5v-5.4762c0-.1393.05713-.2736.16474-.3621.00413-.0034.00828-.0068.01248-.0102.25163-.2053.62194-.4562 1.09461-.64.91058-.3541 2.28686-.4966 4.08067.6245 2.20013 1.3751 4.2861 1.3801 5.8137 1.0329.7581-.1723 1.3777-.4304 1.8098-.6465.2167-.1083.3879-.2069.5079-.2804.06-.0368.1073-.0675.1412-.09.0137-.0091.0252-.0169.0345-.0233.0041-.0028.0082-.0058.0123-.0086.0022-.0016.0046-.0032.0066-.0045.012-.0076.0359-.0245.0496-.0342.0068-.0048.0137-.0095.0207-.014l.0442-.0284.0582-.0446c.028-.0214.0539-.0454.0744-.0741.0314-.0437.0744-.1132.0744-.1654v-9.68564c0-.38392-.4147-.624601-.7481-.43412l-.3718.21247z" fill="#939ba1" fill-rule="evenodd"/></svg>