<svg fill="none" height="20" viewBox="0 0 20 20" width="20" xmlns="http://www.w3.org/2000/svg"><path clip-rule="evenodd" d="m10.7177 4.3283c.0885.07865.229.02764.247-.08937.1021-.66713.2272-1.39664.3674-2.03295.1175-.53369.2572-1.05795.4226-1.426371.0717-.1596.202-.41879.4312-.592581.134-.1015898.346-.2063938.6142-.18502233.2648.02109813.4563.15511533.5727.27159133.4759.47585.8422 1.287803 1.0703 1.864883.0652.16479.2531.24484.4181.18013.0719-.02824.1458-.05603.2209-.08285.3536-.12619.7756-.24564 1.1853-.27341.3879-.0263.9349.0194 1.3409.4254s.4517.95296.4254 1.34093c-.0278.40966-.1472.83169-.2734 1.18524-.0268.07515-.0546.149-.0828.22098-.0648.16495.0153.35289.1801.41802.5771.22811 1.389.59446 1.8649 1.07031.1136.11366.2444.29892.27.55554.0262.26227-.0698.47432-.1695.61252-.1693.23462-.4259.36676-.5796.43773-.3563.16455-.863.30246-1.3782.41822-.5628.12646-1.2047.24108-1.8144.33819-.0318.00507-.0434.04484-.0193.06624.9886.87879.8708 2.45063-.2519 3.15003-4.5217 2.8173-14.47506 8.8029-15.629754 7.6484-1.171486-1.1714 4.883884-10.91248 7.592564-15.12325.6574-1.02194 2.06714-1.20584 2.97529-.39855zm2.7691-.32026c.0895.31108.4466.45637.7279.2962l.2758-.15707.0028-.00157.0149-.00826c.0138-.00764.0352-.0194.0635-.03449.0565-.03024.1395-.07358.2418-.12388.2066-.10153.4827-.22694.7729-.33049.2978-.10631.5713-.17525.7824-.18957.0982-.00665.175.07011.1683.16832-.0143.21118-.0832.48463-.1895.78247-.1036.29012-.229.56628-.3305.77283-.0503.10232-.0937.18536-.1239.24187-.0151.02821-.0268.04968-.0345.06349l-.0082.01483-.0018.00312-.1569.27553c-.1601.2813-.0149.63835.2962.72789l.3054.08791.0029.00085.0139.0041c.0128.00378.0325.00965.0582.0175.0514.01571.1269.03928.2201.06984.1872.06134.4428.1498.7177.25844.0823.03253.1635.0658.2428.09959.0653.02778.0565.12069-.0127.13624-.8674.1949-1.9602.36416-2.8034.48079-.1442.01996-.2897-.02467-.3986-.12144l-1.865-1.65781c-.1238-.11007-.1852-.27422-.163-.43841.1136-.84023.2875-1.9958.4907-2.91831.0202-.09186.1427-.10337.1789-.01656.0245.05853.0486.11791.0723.17789.1086.27485.1971.53044.2584.71763.0306.09327.0541.16876.0698.22019.0079.02569.0138.04533.0175.05811l.0041.01392.001.00333zm1.5482 6.16476-5.31378-4.72337c-.2297-.20418-.56499-.14776-.71725.08895-.47641.74059-1.05475 1.64988-1.67759 2.6511-.107.17199-.05208.39783.11933.50574.31244.19669.72269.46852 1.03479.72894.34759.29003.74659.69044 1.04632 1.00334.15271.1594.28506.3017.37935.4044.0472.0514.08501.0929.11123.1219l.0304.0337.0082.0091.0032.0037c.276.3088.2494.783-.05946 1.059-.30884.2759-.78294.2493-1.05895-.0595l-.00183-.002-.00667-.0075-.02714-.03c-.02396-.0265-.05922-.0653-.10364-.1137-.08894-.0968-.21396-.2313-.35782-.3814-.29343-.3063-.64443-.6559-.92421-.8893-.23149-.1932-.57124-.4214-.87291-.61128-.16427-.10342-.38045-.04984-.4809.11628-.1747.2889-.3501.581-.52512.8749-.02967.0498-.02442.1123.00514.1622.00654.011.01411.0212.02326.0302.0498.049.14421.1363.31162.276.34759.29.74659.6904 1.04632 1.0033.15271.1594.28506.3017.37935.4044.0472.0514.08501.0929.11123.1219l.0304.0337.00819.0091.00312.0035c.276.3089.24949.7832-.05937 1.0592-.30884.2759-.78293.2493-1.05894-.0595l-.00184-.002-.00667-.0075-.02714-.03c-.02395-.0265-.05922-.0653-.10363-.1137-.08894-.0968-.21396-.2313-.35783-.3814-.29343-.3063-.64443-.6559-.9242-.8893-.11462-.0957-.28932-.0672-.36364.0622-.29241.5093-.57757 1.0158-.8499 1.5119l-1.33209 2.7266c-.20761.425.23622.874.66355.6713l2.85917-1.3563c3.15182-1.6797 6.73585-3.8587 8.98975-5.263.2536-.158.3048-.5281.0486-.7558z" fill="#939ba1" fill-rule="evenodd"/></svg>