<svg fill="none" height="20" viewBox="0 0 20 20" width="20" xmlns="http://www.w3.org/2000/svg"><g clip-rule="evenodd" fill="#939ba1" fill-rule="evenodd"><path d="m7.35614 14.8391c0 1.1926-.97154 2.1594-2.17 2.1594s-2.17-.9668-2.17-2.1594.97154-2.1594 2.17-2.1594 2.17.9668 2.17 2.1594zm-1.50807 0c0 .3638-.29635.6587-.66193.6587-.36557 0-.66193-.2949-.66193-.6587s.29636-.6587.66193-.6587c.36558 0 .66193.2949.66193.6587z"/><path d="m15.1478 9.0812c-.0473.19183-.2036.33799-.3989.37306l-.9687.17391c-.2191.03934-.3861.21739-.4104.43763l-.1561 1.4119c-.013.1178-.0676.2272-.1541.3086l-.9076.8549c-.1253.118-.1795.2914-.154.4611.0439.2919.0666.5907.0666.8948 0 3.3153-2.70078 6.0029-6.03231 6.0029-3.33154 0-6.03229-2.6876-6.03229-6.0029 0-3.3154 2.70075-6.00296 6.03229-6.00296.69597 0 1.36442.11729 1.98647.33309.19021.06599.40366.02621.5473-.11432l8.24814-8.069392c.0941-.0919768.2206-.143518.3525-.143518h2.3304c.3193 0 .5576.292289.492.603182l-.8236 3.897438c-.036.17051-.1586.31008-.3236.36842l-.8895.31457c-.1486.05257-.2638.1715-.3111.32124l-.4005 1.26681c-.0506.15996-.1784.28407-.3403.33053l-1.0814.31029c-.1729.04963-.306.18748-.3489.36143zm-4.5913 4.9159c0-.3473-.0395-.6854-.1143-1.01l-.0093-.0276c-.057-.1681-.1213-.3331-.1925-.4946-.0125-.0283-.0061-.0614.0163-.0829l1.4528-1.3904c.0294-.0277.0479-.0648.0523-.1048l.2321-2.09896c.0243-.22022.1913-.39827.4104-.4376l1.1133-.19988c.1953-.03507.3517-.18124.399-.37307l.2971-1.20469c.0429-.17396.1759-.31181.3489-.36144l1.1423-.32777c.1619-.04646.2897-.17057.3402-.33054l.3831-1.21168c.0473-.14974.1626-.26868.3112-.32124l.8007-.28318c.165-.05835.2876-.19792.3236-.36843l.2896-1.3703c.0541-.25631-.1424-.49729-.4056-.49729-.1087 0-.213.0425-.2905.11832l-7.76987 7.6021-1.0886 1.06225c-.00192.0018-.00491.0021-.00712.0006-.72786-.4978-1.60941-.78913-2.55932-.78913-2.49866 0-4.52422 2.01573-4.52422 4.50223s2.02556 4.5022 4.52422 4.5022c2.49865 0 4.52421-2.0157 4.52421-4.5022z"/></g></svg>