<svg fill="none" height="17" viewBox="0 0 20 17" width="20" xmlns="http://www.w3.org/2000/svg"><path clip-rule="evenodd" d="m10.3664 4.56842c-.1998.23767-.56559.23767-.7654 0l-1.4276-1.69813c-1.7819-2.119579-5.1195-1.63656-6.25252.90486-.74575 1.67277-.47027 3.6137.70569 4.94862.69232.7859 1.38003 1.54583 1.89395 2.06983.68985.7034 2.22555 1.9148 3.68169 3.0101.54329.4086 1.0587.7887 1.48801 1.1022.1749.1277.41208.1277.58698 0 .4293-.3135.9448-.6936 1.488-1.1022 1.4562-1.0953 2.9919-2.3067 3.6817-3.0101.6861-.6994 1.3596-1.43113 1.9681-2.11506 1.1434-1.28523 1.401-3.17749.6621-4.8349-1.1472-2.57335-4.5268-3.062434-6.3311-.91622zm-1.38969-3.06753c-2.5624-2.53766-6.90815-1.769074-8.427373 1.63863-.984633 2.20859-.633606 4.80575.956383 6.61067.69555.78961 1.40556 1.57501 1.94948 2.12961 1.34197 1.3682 5.16448 4.1418 6.2424 4.9156.17268.124.3996.124.5723 0 1.0779-.7738 4.9004-3.5474 6.2424-4.9156.7077-.7216 1.3985-1.4723 2.0186-2.16924 1.5751-1.7705 1.8879-4.32643.9178-6.50255-1.5231-3.416378-5.862-4.20374-8.4534-1.70172-.1361.13139-.2674.27184-.3932.42146l-.2357.28036c-.1998.23767-.56559.23767-.7654 0l-.28372-.33748c-.10948-.13023-.22315-.25346-.34057-.36974z" fill="#939ba1" fill-rule="evenodd"/></svg>