<svg fill="none" height="20" viewBox="0 0 20 20" width="20" xmlns="http://www.w3.org/2000/svg"><g clip-rule="evenodd" fill="#939ba1" fill-rule="evenodd"><path d="m11.2468 6.03149c-1.49235 0-2.70212 1.20978-2.70212 2.7021 0 1.49231 1.20977 2.70211 2.70212 2.70211 1.4923 0 2.7021-1.2098 2.7021-2.70211 0-1.49232-1.2098-2.7021-2.7021-2.7021zm-1.2021 2.7021c0-.6639.5382-1.2021 1.2021-1.2021s1.2021.5382 1.2021 1.2021c0 .66391-.5382 1.2021-1.2021 1.2021s-1.2021-.53819-1.2021-1.2021z"/><path d="m7.03269 16.7958c-.25188.0322-.44958.2348-.49803.4836-.11916.6118-.41614 1.196-.89094 1.6699-.38471.3839-.93404.5993-1.42594.7323-.51331.1389-1.07555.2165-1.58189.2606-.51006.0444-.98479.0565-1.33065.0577-.17353.0006-.316087-.0015-.416203-.0039-.050091-.0011-.089651-.0023-.117254-.0033l-.03229-.0012-.009105-.0004-.002737-.0001-.230375-.0102c-.259115-.0115-.4665635-.2185-.4780663-.4771l-.0102261-.2299-.00011617-.0028-.00037045-.0091-.00118766-.0322c-.00095103-.0275-.00216883-.067-.0033364-.117-.00233404-.0999-.00447661-.2422-.00386826-.4154.00121257-.3452.01336344-.819.05785564-1.3281.0441677-.5054.1219307-1.0665.2610277-1.5789.133295-.4909.349052-1.0392.733762-1.4232.46925-.4683 1.04641-.7633 1.6516-.8849.25048-.0504.45301-.2512.48222-.5045.00377-.0327.00786-.0664.01231-.1011.06344-.495.19846-1.1916.48342-2.033.06488-.1916.13746-.3905.21865-.596.10414-.2637-.06815-.55952-.35077-.58714-.469-.04584-.93421-.09038-1.28227-.12346l-.86091-.08114c-.29997-.0281-.507341-.31232-.442069-.60589l.061469-.27648c.36641-1.64795 1.03143-2.78022 1.89607-3.50326.86613-.72427 1.85646-.97426 2.75253-.99863.72669-.01977 1.40747.10756 1.95057.25946.17876.04999.37161.00519.50713-.12145 2.3447-2.19087 5.0574-3.241161 7.1991-3.744387 1.1249-.264295 2.1012-.3799153 2.7995-.4294908.3494-.0248126.6303-.03315218.8264-.03518603.0981-.00101728.1751-.00045825.229.00041363.027.0004359.0482.00095012.0634.00138499l.0183.00057297.0057.00027079.0019.00001031.0014.0014453v-.00138932l.2316.00939666c.2614.0106061.4705.2202205.4801.4811355l.0085.23117.0001.003358.0002.005667.0005.018164c.0003.015116.0008.036206.0011.063025.0006.053631.0009.130208-.0005.227749-.0029.19503-.0123.47424-.0385.82174-.0524.69433-.1718 1.66528-.4401 2.7844-.5106 2.12988-1.5688 4.82808-3.7613 7.16584-.127.1354-.1718.3281-.1215.5066.1533.5435.2824 1.2264.2625 1.9556-.0245.8943-.2749 1.8827-1.0006 2.7472s-1.8589 1.5267-3.51 1.8924l-.277.0614c-.2942.0651-.5789-.1418-.6071-.4412l-.0813-.8593c-.0331-.3474-.0778-.8117-.1237-1.2798-.0268-.2734-.31502-.4393-.57022-.3364-.20318.082-.39976.1555-.5891.2213-.83587.291-1.52679.4324-2.01776.501-.03101.0043-.06123.0083-.09063.0121zm-2.49511-8.54415c.19593.01982.38486-.07658.48736-.24441.32997-.5403.71738-1.10277 1.1721-1.68013.23763-.30172.07626-.75177-.30822-.75765-.05744-.00088-.1151-.00058-.1729.00099-.64591.01757-1.28275.19263-1.82864.64911-.3307.27654-.65573.67953-.93071 1.26769-.13667.29232.07379.61626.39549.64742l.34454.03352c.28685.02804.57584.05663.84098.08346zm7.17472 7.16395c.0267.2637.0553.551.0833.8361l.0335.3438c.0313.3211.3558.5312.6487.3948.5893-.2745.9931-.5989 1.2701-.9289.4574-.5449.6328-1.1805.6504-1.8252.0017-.0602.0019-.1203.0009-.1802-.0066-.3838-.4579-.5441-.7596-.306-.5797.4575-1.1437.8478-1.6848 1.1807-.1668.1026-.2623.2903-.2425.4849zm-4.86011-.1084c-.14704.0191-.29312-.0349-.39797-.1395l-1.63434-1.6312c-.10315-.103-.15725-.2458-.1405-.3905.00295-.0255.00616-.0519.00966-.0791.05189-.405.16604-1.0037.41646-1.7432.49962-1.47533 1.54711-3.52728 3.75228-5.72819 1.53602-1.53305 3.28762-2.49567 4.91572-3.09889.2561-.09487.5349.04372.6504.29075.2486.53152.5928 1.02954 1.0324 1.46834.5155.51449 1.1126.89794 1.7497 1.15035.2642.10469.4202.39179.3228.65839-.6054 1.65727-1.5837 3.45532-3.1614 5.03005-2.2074 2.203-4.2533 3.2617-5.72097 3.7724-.73552.256-1.32977.3758-1.73113.4318-.0216.003-.04263.0058-.06311.0085zm11.35711-11.69664c.1437-.73601.2166-1.37403.2531-1.85838.0095-.12568-.0946-.23001-.2206-.2211l-.0039.00028c-.5134.03645-1.1983.11273-1.9889.26938-.2981.05905-.4662.37596-.3138.63833.1571.27034.3515.52497.5834.7564.3231.3225.6914.57248 1.0845.74997.262.1183.5512-.05315.6062-.33488zm-13.62787 11.81684c-.68107-.6798-1.78532-.6798-2.46639 0-.10251.1023-.23341.3402-.34605.7551-.10683.3935-.17427.8577-.21441 1.317-.01448.1657-.02519.328-.033.4827-.01424.2822.2174.5134.50007.4991.15505-.0077.31768-.0184.48369-.0329.46013-.04.92526-.1074 1.31952-.214.41566-.1124.65407-.2431.75657-.3454.68108-.6797.68108-1.7818 0-2.4616z"/></g></svg>