<svg width="31" height="48" viewBox="0 0 31 48" fill="none" xmlns="http://www.w3.org/2000/svg">
<g clip-path="url(#clip0_2372_6945)">
<path d="M0 36.483C0.667552 42.2861 10.2327 43.1861 10.8271 40.2283C10.8134 40.2095 10.8043 8.44233 10.8043 8.44233C10.6397 6.28608 9.60634 5.06733 7.98776 3.91889C6.47891 2.85483 4.58599 1.55639 3.55723 0.806391C0.649263 -1.31236 0.00457227 1.47202 0 1.55639C0 1.55639 0.0137168 36.5439 0 36.483Z" fill="url(#paint0_linear_2372_6945)"/>
<path d="M10.8271 39.0374C6.42861 42.4358 0.90531 41.0389 0.109735 36.9749C0.0731563 36.778 0 36.4874 0 36.4874C0 36.4874 0.0411504 36.8858 0.0914454 37.2655C0.146313 37.6639 0.260619 38.2405 0.379499 38.7327C1.75118 44.2546 6.41947 47.4514 10.914 47.9483C17.0683 48.5061 22.7425 43.6405 27.3879 40.1155C27.676 39.8249 28.092 39.3561 28.2155 39.1733C31.2423 34.7202 27.5937 29.9389 24.9006 30.1264C20.2021 33.082 15.5125 36.0524 10.8317 39.0374H10.8271Z" fill="url(#paint1_radial_2372_6945)"/>
<path fill-rule="evenodd" clip-rule="evenodd" d="M14.3021 17.8594C14.6404 20.0625 15.8841 22.9547 17.0271 25.95C17.9507 27.886 19.862 28.4532 21.7366 29.0204C23.6752 29.611 24.736 30.0047 25.6505 30.4688C31.983 33.6891 27.4108 40.2047 28.3755 38.9719C32.4448 33.7829 32.0196 23.7188 24.2605 19.3735C21.6269 18.0282 18.9841 16.2516 17.1049 15.4547C15.2302 14.6579 13.9637 15.6563 14.3021 17.8594Z" fill="url(#paint2_radial_2372_6945)"/>
</g>
<defs>
<linearGradient id="paint0_linear_2372_6945" x1="5.41357" y1="0.000141189" x2="5.41357" y2="41.4564" gradientUnits="userSpaceOnUse">
<stop stop-color="#00BBEC"/>
<stop offset="1" stop-color="#2756A9"/>
</linearGradient>
<radialGradient id="paint1_radial_2372_6945" cx="0" cy="0" r="1" gradientTransform="matrix(24.0501 -10.5656 17.1735 41.0906 4.06018 42.8952)" gradientUnits="userSpaceOnUse">
<stop stop-color="#00BBEC"/>
<stop offset="1" stop-color="#2756A9"/>
</radialGradient>
<radialGradient id="paint2_radial_2372_6945" cx="0" cy="0" r="1" gradientTransform="matrix(-15.8658 -18.7172 13.1361 -11.7094 29.9484 33.8438)" gradientUnits="userSpaceOnUse">
<stop stop-color="#00CACC"/>
<stop offset="1" stop-color="#048FCE"/>
</radialGradient>
<clipPath id="clip0_2372_6945">
<rect width="31" height="48" fill="white"/>
</clipPath>
</defs>
</svg>
