<svg width="48" height="48" viewBox="0 0 48 48" fill="none" xmlns="http://www.w3.org/2000/svg">
<path fill-rule="evenodd" clip-rule="evenodd" d="M42.969 11.4908L44.094 8.73375C44.094 8.73375 42.6623 7.2015 40.9238 5.46525C39.186 3.729 35.505 4.7505 35.505 4.7505L31.3133 0H16.59L12.3983 4.7505C12.3983 4.7505 8.71725 3.729 6.9795 5.46525C5.241 7.2015 3.81 8.73375 3.81 8.73375L4.935 11.4908L3.5025 15.576C3.5025 15.576 7.713 31.503 8.2065 33.4485C9.17775 37.278 9.84225 38.7585 12.603 40.6995C15.363 42.6397 20.373 46.0095 21.1905 46.521C22.0088 47.031 23.0318 47.901 23.952 47.901C24.8723 47.901 25.8945 47.031 26.712 46.521C27.5303 46.0103 32.5395 42.6397 35.301 40.6995C38.061 38.7593 38.7263 37.278 39.6975 33.4485C40.1903 31.503 44.4 15.576 44.4 15.576L42.969 11.4908Z" fill="url(#paint0_linear_2372_1052)"/>
<path fill-rule="evenodd" clip-rule="evenodd" d="M27.8745 12.4735C28.3347 12.4735 31.7473 11.8226 31.7473 11.8226C31.7473 11.8226 35.7912 16.7051 35.7912 17.7491C35.7912 18.612 35.443 18.9495 35.0335 19.3478C34.948 19.431 34.8591 19.5165 34.7708 19.611L31.7389 22.8268C31.7064 22.861 31.6734 22.8948 31.6399 22.9281C31.3373 23.2318 30.8918 23.6796 31.2057 24.4232L31.2703 24.5745C31.6152 25.38 32.041 26.3745 31.4993 27.3814C30.9227 28.4535 29.9355 29.169 29.3027 29.0503C28.6705 28.9322 27.1843 28.1565 26.6382 27.8027C26.092 27.4483 24.36 26.0218 24.36 25.4756C24.36 25.0206 25.6054 24.2635 26.2107 23.895C26.331 23.8219 26.4261 23.7645 26.4807 23.7274C26.5431 23.6852 26.6477 23.6205 26.7765 23.5406C27.3283 23.1975 28.3257 22.5788 28.351 22.3048C28.3819 21.9662 28.3701 21.8672 27.9246 21.0313C27.8301 20.8536 27.7193 20.6635 27.6051 20.4666C27.181 19.7381 26.7062 18.9225 26.812 18.3381C26.9301 17.6783 27.9651 17.3003 28.8415 16.9796C28.9506 16.9403 29.058 16.9009 29.1604 16.8621L30.0733 16.5195C30.9486 16.1921 31.9206 15.8282 32.0815 15.7545C32.3031 15.6527 32.2457 15.5548 31.5735 15.4913C31.4647 15.4806 31.356 15.4694 31.2473 15.4575C30.4148 15.3692 28.8797 15.2066 28.1338 15.4142C27.987 15.4553 27.8228 15.4997 27.6501 15.5464C26.812 15.7731 25.7843 16.051 25.6853 16.2113C25.6684 16.2394 25.6515 16.2636 25.6352 16.2861C25.5407 16.42 25.4794 16.5077 25.584 17.077C25.615 17.2468 25.6791 17.5804 25.7584 17.9933C25.989 19.2015 26.3507 21.0859 26.3963 21.5089C26.4025 21.5685 26.4098 21.6253 26.4165 21.6805C26.4745 22.153 26.5127 22.4674 25.9637 22.5928L25.8203 22.6255C25.2004 22.7672 24.292 22.9759 23.964 22.9759C23.6355 22.9759 22.7265 22.7678 22.1067 22.6255L21.9638 22.5928C21.4148 22.4674 21.4536 22.153 21.5115 21.6805C21.5183 21.6253 21.525 21.568 21.5312 21.5089C21.5768 21.0853 21.939 19.1959 22.1708 17.9882C22.2495 17.5776 22.3131 17.2457 22.344 17.077C22.4481 16.5077 22.3868 16.42 22.2923 16.2861C22.2749 16.2615 22.258 16.2366 22.2417 16.2113C22.1438 16.051 21.1167 15.7731 20.278 15.5464C20.1053 15.4997 19.9405 15.4553 19.7942 15.4142C19.0478 15.2061 17.5133 15.3692 16.6808 15.4575C16.5537 15.471 16.4434 15.4828 16.3545 15.4913C15.6818 15.5548 15.625 15.6527 15.8466 15.7545C16.0069 15.8282 16.9789 16.1921 17.8536 16.5195C18.1894 16.645 18.5117 16.7653 18.7671 16.8621C18.87 16.9009 18.9769 16.9397 19.0866 16.9802C19.963 17.3008 20.998 17.6783 21.1161 18.3381C21.2213 18.9225 20.7465 19.7381 20.323 20.4666C20.2082 20.6635 20.098 20.8536 20.0029 21.0313C19.558 21.8672 19.5462 21.9662 19.5771 22.3048C19.6018 22.5793 20.5986 23.1975 21.151 23.5406C21.2798 23.6205 21.3844 23.6852 21.4468 23.7274C21.502 23.7645 21.5965 23.8219 21.7168 23.895C22.3221 24.2629 23.5675 25.02 23.5675 25.4756C23.5675 26.0213 21.8361 27.4483 21.2893 27.8027C20.7437 28.1571 19.2576 28.9322 18.6248 29.0503C17.9925 29.1685 17.0048 28.4535 16.4288 27.382C15.8871 26.3745 16.3123 25.38 16.6572 24.5751L16.7218 24.4232C17.0363 23.6796 16.5908 23.2318 16.2876 22.9281C16.2543 22.8948 16.2215 22.861 16.1892 22.8268L13.1573 19.611C13.0684 19.5171 12.9795 19.431 12.894 19.3478C12.4845 18.9501 12.1369 18.612 12.1369 17.7491C12.1369 16.7057 16.1807 11.8226 16.1807 11.8226C16.1807 11.8226 19.5928 12.4735 20.053 12.4735C20.4203 12.4735 21.129 12.2299 21.8682 11.9756C22.0555 11.9115 22.2445 11.8463 22.4307 11.7844C23.3503 11.4778 23.964 11.4756 23.964 11.4756C23.964 11.4756 24.5772 11.4778 25.4974 11.7844C25.683 11.8463 25.8726 11.9115 26.0599 11.9756C26.7985 12.2299 27.5078 12.4735 27.8745 12.4735ZM27.289 29.7456C28.0101 30.1168 28.522 30.3801 28.7155 30.501C28.9658 30.6574 28.8133 30.9527 28.585 31.1141C28.3572 31.2745 25.2927 33.6448 24.9957 33.907L24.8747 34.0144C24.5884 34.2726 24.2228 34.6016 23.9635 34.6016C23.7047 34.6016 23.3391 34.272 23.0522 34.0144L22.9324 33.907C22.6343 33.6448 19.5703 31.2745 19.3425 31.1136C19.1147 30.9527 18.9617 30.658 19.212 30.5005C19.4055 30.3801 19.918 30.1163 20.6402 29.7445L21.3265 29.3906C22.4065 28.8326 23.7537 28.3573 23.964 28.3573C24.1738 28.3573 25.5205 28.8321 26.6016 29.3906C26.8468 29.5178 27.0769 29.637 27.289 29.7456Z" fill="white"/>
<path fill-rule="evenodd" clip-rule="evenodd" d="M32.6287 9.56288L29.4849 6H18.4425L15.2987 9.56288C15.2987 9.56288 12.5379 8.79675 11.2346 10.0989C11.2346 10.0989 14.9156 9.76706 16.1807 11.8224C16.1807 11.8224 19.5928 12.4733 20.0529 12.4733C20.5131 12.4733 21.5098 12.0908 22.4301 11.7842C23.3503 11.4776 23.964 11.4754 23.964 11.4754C23.964 11.4754 24.5771 11.4776 25.4974 11.7842C26.4176 12.0908 27.4144 12.4733 27.8745 12.4733C28.3346 12.4733 31.7473 11.8224 31.7473 11.8224C33.0124 9.76706 36.6928 10.0989 36.6928 10.0989C35.3895 8.79675 32.6287 9.56288 32.6287 9.56288Z" fill="url(#paint1_linear_2372_1052)"/>
<defs>
<linearGradient id="paint0_linear_2372_1052" x1="3.50325" y1="48.2392" x2="44.4" y2="48.2392" gradientUnits="userSpaceOnUse">
<stop stop-color="#FF5500"/>
<stop offset="0.41" stop-color="#FF5500"/>
<stop offset="0.582" stop-color="#FF2000"/>
<stop offset="1" stop-color="#FF2000"/>
</linearGradient>
<linearGradient id="paint1_linear_2372_1052" x1="11.7814" y1="12.4496" x2="36.6928" y2="12.4496" gradientUnits="userSpaceOnUse">
<stop stop-color="#FF452A"/>
<stop offset="1" stop-color="#FF2000"/>
</linearGradient>
</defs>
</svg>
