<svg width="48" height="48" viewBox="0 0 48 48" fill="none" xmlns="http://www.w3.org/2000/svg">
<rect width="48" height="48" rx="24" fill="#EEF2F5"/>
<path d="M26.9777 13.8508C27.3052 13.7125 27.6753 13.7036 28.0119 13.8293C28.9423 14.177 29.8222 14.6469 30.6271 15.2267L30.9669 15.4826L31.0871 15.5881C31.352 15.8485 31.5047 16.2053 31.506 16.5812L31.5158 19.6926C31.5305 19.7171 31.5454 19.7425 31.5607 19.7687L34.3263 21.3449L34.4591 21.4299C34.7557 21.6464 34.9571 21.9733 35.0158 22.34C35.1843 23.3932 35.1909 24.4654 35.0392 25.5207C35.0105 25.9827 34.7533 26.4131 34.3341 26.6515L31.5675 28.2248C31.5545 28.247 31.5413 28.2699 31.5275 28.2931L31.5128 31.4094C31.5108 31.8368 31.3139 32.2401 30.9777 32.5041C30.0856 33.2046 29.0916 33.7648 28.0304 34.1652C27.6449 34.3106 27.2146 34.2789 26.8546 34.0783L24.0626 32.5226H23.9523L21.1603 34.0822C20.8015 34.2825 20.3723 34.3149 19.9874 34.1711C18.9242 33.7738 17.9283 33.2158 17.0333 32.5178C16.6946 32.2535 16.4958 31.8487 16.4943 31.4191L16.4826 28.3058C16.4678 28.2813 16.4529 28.2559 16.4376 28.2297L13.674 26.6555C13.3044 26.4449 13.05 26.0776 12.9835 25.6574C12.8104 24.562 12.8104 23.4461 12.9835 22.3508L13.0177 22.1955C13.1158 21.8413 13.3502 21.538 13.673 21.3537L16.4347 19.7756C16.4481 19.7526 16.4625 19.7293 16.4767 19.7053L16.4914 16.591L16.5011 16.4318C16.5448 16.0647 16.7324 15.7273 17.0265 15.4963C17.9185 14.7958 18.9126 14.2356 19.9738 13.8351L20.1203 13.7883C20.4658 13.6998 20.8346 13.7464 21.1496 13.9221L23.9357 15.4777H24.047L26.84 13.9181L26.9777 13.8508ZM24.5929 16.7756C24.4656 16.8457 24.3222 16.8807 24.1769 16.8771H23.8068C23.6977 16.8801 23.5894 16.8619 23.4884 16.8224L23.3908 16.7756L20.4679 15.1447C19.5401 15.4948 18.6707 15.9844 17.8908 16.5969L17.8761 19.8722L17.8673 19.9855C17.8513 20.0968 17.8124 20.2041 17.7521 20.3C17.6892 20.4014 17.6273 20.5091 17.5685 20.6105C17.4963 20.7375 17.3907 20.8429 17.2638 20.9152L14.3664 22.5695L14.3175 22.926C14.2188 23.7615 14.2348 24.6075 14.3664 25.4396L17.2716 27.0939C17.3992 27.1682 17.5046 27.2754 17.5763 27.4045C17.6342 27.512 17.696 27.6135 17.7589 27.715C17.8394 27.8435 17.8824 27.9921 17.883 28.1437L17.8937 31.4142C18.5786 31.9484 19.3316 32.3885 20.132 32.7228L20.4777 32.8596L23.4064 31.2238C23.502 31.1712 23.6072 31.1387 23.715 31.1271L23.8234 31.1222H24.2121C24.3509 31.1216 24.488 31.1566 24.6095 31.2238L27.5363 32.8556C28.3481 32.5493 29.1151 32.136 29.8165 31.6271L30.1134 31.4025L30.1281 28.1271C30.1284 28.014 30.1525 27.9025 30.1984 27.8L30.2521 27.7004C30.3151 27.5988 30.3768 27.4904 30.4357 27.3888C30.508 27.2618 30.6133 27.1564 30.7404 27.0842L33.6427 25.4338H33.6378C33.7867 24.4818 33.7853 23.5122 33.633 22.5607L30.7287 20.9064C30.6011 20.8321 30.4957 20.7249 30.424 20.5959L30.2414 20.2853C30.1609 20.1569 30.1179 20.0082 30.1173 19.8566L30.1056 16.5861C29.3231 15.9758 28.4522 15.4882 27.5226 15.1408L24.5929 16.7756ZM31.6456 19.9152H31.6476C31.6425 19.906 31.6356 19.8978 31.63 19.8888C31.6349 19.8977 31.6407 19.9062 31.6456 19.9152Z" fill="#4360DF"/>
<path d="M27 24.0001C27 22.3432 25.6568 21.0001 24 21.0001C22.3431 21.0001 21 22.3432 21 24.0001C21 25.657 22.3431 27.0001 24 27.0001C25.6568 27.0001 27 25.657 27 24.0001ZM28.4004 24.0001C28.4004 26.4302 26.43 28.4005 24 28.4005C21.5699 28.4005 19.5996 26.4302 19.5996 24.0001C19.5996 21.57 21.5699 19.5997 24 19.5997C26.43 19.5997 28.4004 21.57 28.4004 24.0001Z" fill="#4360DF"/>
</svg>
