<svg width="48" height="48" viewBox="0 0 48 48" fill="none" xmlns="http://www.w3.org/2000/svg">
<g clip-path="url(#clip0_2372_265)">
<path fill-rule="evenodd" clip-rule="evenodd" d="M24 48C37.2552 48 48 37.2552 48 24C48 10.7448 37.2552 0 24 0C10.7448 0 0 10.7448 0 24C0 37.2552 10.7448 48 24 48Z" fill="#DE5833"/>
<path fill-rule="evenodd" clip-rule="evenodd" d="M26.5314 37.4301C26.5314 37.2895 26.5654 37.2569 26.1184 36.3664C24.9304 33.9871 23.7363 30.6336 24.2797 28.4702C24.3789 28.0769 23.1603 13.9174 22.2997 13.4609C21.342 12.9515 20.1649 12.1418 19.0883 11.9618C18.5415 11.8749 17.8249 11.9163 17.2652 11.9917C17.1653 12.0053 17.1612 12.184 17.2563 12.2159C17.6245 12.3409 18.0714 12.5569 18.3343 12.8843C18.3839 12.9454 18.3166 13.0432 18.2378 13.0466C17.9892 13.0554 17.5396 13.1594 16.9459 13.6634C16.8773 13.7218 16.9344 13.8304 17.0227 13.8128C18.2983 13.5601 19.6018 13.6844 20.3693 14.3834C20.4189 14.4282 20.3931 14.509 20.3286 14.5267C13.6645 16.3382 14.9829 22.1342 16.7578 29.2486C18.2609 35.2769 18.8723 37.4186 19.0896 38.1488C19.1073 38.21 19.139 38.2663 19.1821 38.3132C19.2252 38.3601 19.2787 38.3964 19.3382 38.4191C21.6735 39.2954 26.5314 39.313 26.5314 37.7813V37.4301Z" fill="#DDDDDD"/>
<path d="M27.445 38.7654C26.6367 39.0819 25.054 39.2225 24.1404 39.2225C22.8003 39.2225 20.8705 39.0119 20.1675 38.6954C19.7335 37.3587 18.4341 33.2166 17.1503 27.9559C17.1089 27.7833 17.0668 27.6122 17.0247 27.4417L17.024 27.4376C15.4984 21.2062 14.2527 16.1166 21.0818 14.5177C21.1436 14.5027 21.1742 14.4287 21.1334 14.3791C20.3496 13.4499 18.8817 13.1449 17.0253 13.7855C16.9493 13.812 16.8834 13.7352 16.9302 13.67C17.2943 13.168 18.0062 12.7822 18.3567 12.6131C18.4293 12.5784 18.4253 12.4718 18.3485 12.448C18.0011 12.3393 17.6466 12.2548 17.2875 12.1953C17.1836 12.1784 17.1741 11.9997 17.2787 11.9855C19.9101 11.6323 22.6583 12.4215 24.0372 14.159C24.0494 14.1753 24.0684 14.1862 24.0888 14.191C29.1383 15.275 29.4997 23.2569 28.9182 23.6203C28.8028 23.6923 28.436 23.6508 27.951 23.5965C25.9859 23.3771 22.0959 22.9417 25.3067 28.9258C25.3386 28.9849 25.2965 29.063 25.2299 29.0732C23.4198 29.3551 25.7394 35.0275 27.445 38.7654Z" fill="white"/>
<path d="M29.7035 31.5087C29.3191 31.33 27.841 32.3903 26.8602 33.2041C26.6551 32.914 26.2693 32.7028 25.3971 32.8543C24.6336 32.9874 24.2125 33.1715 24.0244 33.4887C22.8201 33.0322 20.7932 32.3272 20.3035 33.0078C19.7689 33.7516 20.4373 37.2714 21.1484 37.7285C21.5193 37.9669 23.2948 36.8265 24.2213 36.0392C24.3708 36.2498 24.6119 36.3707 25.1064 36.3592C25.8549 36.3422 27.0694 36.1676 27.2576 35.8192C27.2701 35.7954 27.2801 35.7703 27.2874 35.7445C28.2404 36.1004 29.9168 36.478 30.2918 36.421C31.2678 36.2743 30.1559 31.7179 29.7035 31.5087Z" fill="#3CA82B"/>
<path d="M26.9506 33.3081C26.9913 33.3801 27.0232 33.4562 27.0511 33.5336C27.1869 33.914 27.4077 35.1217 27.2413 35.4206C27.0735 35.7188 25.9867 35.8628 25.3156 35.8743C24.6445 35.8858 24.4944 35.6406 24.3586 35.2609C24.2499 34.9573 24.1969 34.2421 24.1976 33.8338C24.1704 33.2266 24.3918 33.0133 25.4168 32.8476C26.1749 32.7253 26.5763 32.868 26.8072 33.1125C27.8838 32.3083 29.6804 31.1746 29.8557 31.3818C30.7292 32.4149 30.8392 34.8751 30.6504 35.8648C30.5886 36.1881 27.6957 35.5442 27.6957 35.1951C27.6957 33.7462 27.3201 33.3489 26.9506 33.3081ZM20.6139 32.8557C20.8509 32.4808 22.7718 32.9474 23.8267 33.4161C23.8267 33.4161 23.6094 34.3983 23.9551 35.5551C24.0556 35.8933 21.5288 37.3992 21.1987 37.1404C20.8177 36.8409 20.116 33.6437 20.6139 32.8557Z" fill="#4CBA3C"/>
<path fill-rule="evenodd" clip-rule="evenodd" d="M21.5444 25.2396C21.6993 24.5638 22.424 23.2902 25.0092 23.3208C26.3168 23.3153 27.9402 23.3201 29.0168 23.1978C30.2423 23.0619 31.4454 22.7693 32.5964 22.327C33.7158 21.9005 34.1132 21.9956 34.2524 22.251C34.4052 22.5315 34.2252 23.0165 33.834 23.4627C33.0868 24.3152 31.7439 24.9761 29.3713 25.1717C26.9987 25.3673 25.4283 24.7316 24.7525 25.7674C24.4604 26.2143 24.6859 27.2672 26.9797 27.5986C30.0791 28.0463 32.6249 27.06 32.9394 27.6557C33.2539 28.2514 31.4424 29.4632 28.3375 29.4883C25.2334 29.5141 23.2935 28.4015 22.6061 27.8486C21.7332 27.147 21.3427 26.124 21.5444 25.2396Z" fill="#FFCC33"/>
<g opacity="0.8">
<path d="M25.4986 17.8483C25.6718 17.5651 26.0556 17.3457 26.6839 17.3457C27.3122 17.3457 27.6076 17.5963 27.8128 17.8755C27.8542 17.9319 27.791 17.9985 27.7265 17.9706L27.679 17.9502C27.4494 17.8497 27.1675 17.7261 26.6839 17.7193C26.167 17.7125 25.8409 17.8416 25.6351 17.9529C25.5665 17.991 25.4571 17.9156 25.4986 17.8483ZM18.4236 18.2111C19.0335 17.9563 19.5131 17.9889 19.852 18.0698C19.9233 18.0861 19.9729 18.0093 19.9159 17.9638C19.653 17.7512 19.0641 17.4883 18.2959 17.7736C17.6098 18.0297 17.2872 18.5609 17.2858 18.9093C17.2852 18.9922 17.4543 18.999 17.4978 18.9297C17.6159 18.7409 17.8129 18.4665 18.4229 18.2111H18.4236Z" fill="#14307E"/>
<path fill-rule="evenodd" clip-rule="evenodd" d="M27.2178 21.7275C26.6784 21.7275 26.241 21.2914 26.241 20.7541C26.241 20.2168 26.6784 19.7808 27.2178 19.7808C27.7571 19.7808 28.1945 20.2168 28.1945 20.7541C28.1945 21.2914 27.7571 21.7275 27.2178 21.7275ZM27.9058 20.4315C27.9058 20.3644 27.8792 20.3 27.8317 20.2526C27.7843 20.2051 27.7199 20.1785 27.6528 20.1785C27.5857 20.1785 27.5214 20.2051 27.4739 20.2526C27.4265 20.3 27.3998 20.3644 27.3998 20.4315C27.3998 20.4986 27.4265 20.5629 27.4739 20.6104C27.5214 20.6578 27.5857 20.6845 27.6528 20.6845C27.7199 20.6845 27.7843 20.6578 27.8317 20.6104C27.8792 20.5629 27.9058 20.4986 27.9058 20.4315ZM20.7439 21.4279C20.7439 22.0549 20.2344 22.563 19.6055 22.563C19.3041 22.5633 19.0148 22.4441 18.8013 22.2314C18.5877 22.0187 18.4673 21.73 18.4664 21.4286C18.4664 20.801 18.9772 20.2929 19.6055 20.2929C20.2331 20.2929 20.7439 20.801 20.7439 21.4279ZM20.4083 21.0516C20.4102 21.0118 20.4039 20.972 20.3898 20.9346C20.3758 20.8972 20.3544 20.8631 20.3268 20.8343C20.2992 20.8055 20.266 20.7826 20.2293 20.7669C20.1926 20.7513 20.1531 20.7433 20.1132 20.7434C20.0733 20.7435 20.0338 20.7517 19.9972 20.7675C19.9605 20.7833 19.9275 20.8063 19.9 20.8353C19.8725 20.8642 19.8512 20.8984 19.8374 20.9359C19.8235 20.9733 19.8174 21.0131 19.8194 21.053C19.8232 21.1286 19.856 21.1999 19.9109 21.252C19.9659 21.3042 20.0388 21.3331 20.1145 21.333C20.1903 21.3328 20.263 21.3035 20.3177 21.2511C20.3724 21.1987 20.4049 21.1273 20.4083 21.0516Z" fill="#14307E"/>
</g>
<path fill-rule="evenodd" clip-rule="evenodd" d="M23.9999 39.1172C32.3492 39.1172 39.1172 32.3492 39.1172 23.9999C39.1172 15.6506 32.3492 8.8826 23.9999 8.8826C15.6506 8.8826 8.8826 15.6506 8.8826 23.9999C8.8826 32.3492 15.6506 39.1172 23.9999 39.1172ZM23.9999 40.5232C33.1255 40.5232 40.5232 33.1255 40.5232 23.9999C40.5232 14.8742 33.1255 7.47656 23.9999 7.47656C14.8742 7.47656 7.47656 14.8742 7.47656 23.9999C7.47656 33.1255 14.8742 40.5232 23.9999 40.5232Z" fill="white"/>
<path fill-rule="evenodd" clip-rule="evenodd" d="M23.998 38.9011C32.2291 38.9011 38.9013 32.2289 38.9013 23.9985C38.9013 15.768 32.2291 9.09378 23.9987 9.09378C15.7683 9.09378 9.09402 15.7674 9.09402 23.9978C9.09402 32.2282 15.7676 38.9011 23.998 38.9011ZM40.4982 23.9985C40.4982 33.1105 33.1108 40.4973 23.998 40.4973C14.8853 40.4973 7.49847 33.1112 7.49847 23.9991C7.49847 14.8871 14.8846 7.49756 23.998 7.49756C33.1115 7.49756 40.4989 14.8844 40.4989 23.9978L40.4982 23.9985Z" fill="white"/>
</g>
<defs>
<clipPath id="clip0_2372_265">
<rect width="48" height="48" fill="white"/>
</clipPath>
</defs>
</svg>
