<svg width="48" height="48" viewBox="0 0 48 48" fill="none" xmlns="http://www.w3.org/2000/svg">
<g clip-path="url(#clip0_2372_7108)">
<path d="M22.4914 0.0412775C22.3612 0.0549918 21.9154 0.102992 21.4972 0.137277C17.1154 0.56242 12.8297 2.29728 9.18858 5.11556C8.16687 5.90413 5.8903 8.17385 5.10858 9.18871C2.29715 12.8367 0.630868 16.951 0.123439 21.4973C0.00686789 22.5601 0.00686789 25.4401 0.123439 26.503C0.637725 31.1178 2.40001 35.4173 5.25258 38.983C6.0343 39.9636 7.57715 41.5339 8.57144 42.3704C11.6983 44.9967 15.3532 46.7453 19.392 47.5544C19.7074 47.6161 20.0023 47.6504 20.0503 47.6367C20.112 47.6093 20.1532 47.3556 20.1874 46.8207C20.304 44.8801 20.6949 41.9247 20.9554 41.0676C20.9829 40.9716 20.8046 40.951 19.392 40.9167C16.3612 40.8276 14.3726 40.5464 12.4457 39.9293C8.94858 38.8047 6.78173 36.7681 5.80115 33.6687C4.53944 29.6916 5.01258 26.1327 7.07658 24.0687C8.70173 22.4367 11.04 22.0596 12.6789 23.1567C12.9189 23.3213 13.1314 23.4447 13.1452 23.431C13.1589 23.4104 13.0903 23.1567 13.0012 22.8619C12.6446 21.7236 12.2949 20.1876 12.096 18.8573C11.9314 17.7396 11.8903 15.1064 12.0274 14.0916C12.384 11.4173 13.2823 9.51099 14.9212 7.95442C16.3063 6.64471 18.1029 5.76014 20.3109 5.31442C24.3977 4.49156 28.4572 5.57499 31.2069 8.21499C32.6469 9.59328 33.4903 11.0333 33.9909 12.9327C34.176 13.6458 34.1829 13.7487 34.1829 15.2093C34.1829 16.0458 34.1897 16.7316 34.1966 16.7316C34.2103 16.7316 34.3612 16.6287 34.5394 16.4984C35.2594 15.9841 36.1372 15.6276 37.0012 15.4973C38.2286 15.3121 39.4972 15.7373 40.4777 16.6561C40.8412 16.999 41.0057 17.2184 41.2114 17.6504C41.5749 18.4253 41.6572 18.823 41.6503 19.8173C41.6503 20.8253 41.4994 21.5179 41.0949 22.4641C40.4023 24.0687 38.9212 25.687 37.3372 26.5716C37.0903 26.7087 36.8914 26.8459 36.8914 26.8664C36.8914 26.8939 37.2549 26.9144 37.7006 26.9213C39.8057 26.9281 41.7052 27.9567 42.5349 29.5338C43.2686 30.9258 43.1452 32.6264 42.1783 34.5533C40.7726 37.3441 38.544 39.0516 34.9783 40.0801C33.0446 40.6356 31.2274 40.8619 28.3269 40.9167L26.1806 40.9579L26.2217 41.5476C26.2492 41.8699 26.3452 42.6173 26.4412 43.2001C26.6263 44.3727 27.3394 47.5887 27.4286 47.6847C27.5452 47.8013 29.6777 47.3693 31.1177 46.9304C33.744 46.135 36.5074 44.6744 38.8594 42.8436C39.8057 42.1099 41.5269 40.4367 42.3703 39.4287C45.4629 35.7396 47.2869 31.4607 47.8766 26.503C47.9863 25.5499 47.9863 22.423 47.8766 21.4973C47.3486 17.1841 45.9909 13.5567 43.6252 10.1898C42.0206 7.90642 39.6686 5.60928 37.3372 4.04585C34.1829 1.93385 30.6994 0.651563 26.8114 0.164706C26.0092 0.0618489 23.0263 -0.0204368 22.4914 0.0412775Z" fill="#00751A"/>
<path d="M17.3486 35.7944H30.6514V28.8687H22.4229V26.263H27.7714V23.5887H22.4229V20.983H30.6514V14.0573H17.3486V35.7944Z" fill="#00751A"/>
</g>
<defs>
<clipPath id="clip0_2372_7108">
<rect width="48" height="48" fill="white"/>
</clipPath>
</defs>
</svg>
