<svg width="48" height="48" viewBox="0 0 48 48" fill="none" xmlns="http://www.w3.org/2000/svg">
<g clip-path="url(#clip0_2372_6993)">
<path d="M47.06 24.7872C47.06 23.1277 46.9075 21.5319 46.6244 20H24.06V29.0638H36.9539C36.3877 31.9787 34.6888 34.4468 32.1405 36.1064V42H39.9161C44.4464 37.9149 47.06 31.9149 47.06 24.7872Z" fill="#4285F4"/>
<path d="M24.3079 48C30.7343 48 36.122 45.9079 40.06 42.3213L32.3354 36.4079C30.215 37.8169 27.5103 38.6708 24.3079 38.6708C18.1196 38.6708 12.8618 34.5506 10.9793 29H3.06V35.0629C6.97637 42.727 15.0039 48 24.3079 48Z" fill="#34A853"/>
<path d="M11.06 28.6633C10.56 27.1907 10.2645 25.6288 10.2645 24C10.2645 22.3712 10.56 20.8093 11.06 19.3367V13H2.74182C1.03727 16.3022 0.0599976 20.0284 0.0599976 24C0.0599976 27.9716 1.03727 31.6978 2.74182 35L9.21909 30.0467L11.06 28.6633Z" fill="#FBBC05"/>
<path d="M24.209 9.34007C27.6979 9.34007 30.7992 10.5342 33.2759 12.8373L40.06 6.12009C35.9465 2.32435 30.6054 0 24.209 0C14.9482 0 6.95813 5.26712 3.06 12.9439L10.9424 19C12.8161 13.4557 18.0495 9.34007 24.209 9.34007Z" fill="#EA4335"/>
</g>
<defs>
<clipPath id="clip0_2372_6993">
<rect width="48" height="48" fill="white"/>
</clipPath>
</defs>
</svg>
