<svg width="48" height="30" viewBox="0 0 48 30" fill="none" xmlns="http://www.w3.org/2000/svg">
<path d="M45.9728 24.1325C44.8249 24.1325 44.1877 23.4141 44.1877 21.7974C44.1877 20.1811 45.2495 13.2878 45.6592 10.1262C46.4206 4.25478 42.8164 0 37.5894 0C33.4473 0 30.287 1.53832 27.8092 4.01551C26.1278 1.62782 24.2395 0 20.5654 0C16.9878 0 14.7689 1.23118 12.5841 3.20425C11.41 1.03666 9.31579 0 6.18459 0C3.58659 0 0.0960469 1.22363 -2 2.43504L0.334858 7.39813C1.9247 6.56742 3.2282 5.93905 4.3483 5.93905C5.575 5.93905 6.30372 6.76965 6.10039 8.50696C5.90408 10.1838 3.73984 29.4012 3.73984 29.4012H10.7828C10.7828 29.4012 12.1649 17.0664 12.6521 13.3556C13.2231 9.00661 15.4655 6.25316 18.661 6.25316C21.4661 6.25316 22.4211 8.32599 22.2201 10.7502C22.0446 12.861 19.9996 29.4012 19.9996 29.4012H27.082C27.082 29.4012 28.6454 15.6888 29.1336 12.2907C29.7685 7.87705 32.8 6.25316 34.7014 6.25316C37.8279 6.25316 38.7791 8.65551 38.4861 10.9313C38.2482 12.7849 37.4015 19.3115 37.1431 22.6987C36.8248 26.8865 38.9281 30 42.9127 30C45.5265 30 48.1382 29.3003 50 28.3009L48.4742 23.3911C47.5887 23.7509 46.7489 24.1325 45.9728 24.1325Z" fill="#7AB93C"/>
</svg>
