<svg width="24" height="24" viewBox="0 0 24 24" fill="none" xmlns="http://www.w3.org/2000/svg">
<path d="M18.88 3.01221L2.88 19.0122" stroke="#4360DF" stroke-width="1.4" stroke-linecap="round"/>
<path d="M16.0352 5.85547C17.3701 7.16251 18.2001 8.98431 18.2002 11C18.2001 12.7359 17.5857 14.3289 16.5625 15.5723L19.9951 19.0049C20.268 19.2783 20.2683 19.7219 19.9951 19.9951C19.7219 20.2683 19.2783 20.268 19.0049 19.9951L15.5723 16.5625C14.3289 17.5857 12.7359 18.2001 11 18.2002C8.98431 18.2001 7.16251 17.3701 5.85547 16.0352L6.8457 15.0449C7.89924 16.1265 9.3709 16.7997 11 16.7998C14.2029 16.7995 16.7995 14.2029 16.7998 11C16.7997 9.3709 16.1265 7.89924 15.0449 6.8457L16.0352 5.85547ZM11 3.79883C11.9912 3.79889 12.9356 3.99987 13.7949 4.3623L12.7031 5.4541C12.1646 5.28884 11.5927 5.20024 11 5.2002C7.79706 5.20041 5.20041 7.79706 5.2002 11C5.20024 11.5927 5.28884 12.1646 5.4541 12.7031L4.3623 13.7949C3.99987 12.9356 3.79889 11.9912 3.79883 11C3.79904 7.02386 7.02386 3.79904 11 3.79883Z" fill="#4360DF"/>
</svg>
