<svg width="48" height="48" viewBox="0 0 48 48" fill="none" xmlns="http://www.w3.org/2000/svg">
<rect width="48" height="48" rx="8" fill="#1E2023"/>
<path d="M35.0819 6L33.8909 10.6177L29.3227 11.7952V12.2662L33.8909 13.4452L35.0819 18.063H35.5274L36.7184 13.4452L41.3857 12.2407V11.8215L36.7184 10.6177L35.5274 6H35.0819Z" fill="white"/>
<path fill-rule="evenodd" clip-rule="evenodd" d="M33.5347 24.0638C33.5347 17.3363 28.8818 13.8721 23.1427 13.8721C17.403 13.8721 12.75 17.3341 12.75 24.0638C12.75 30.3128 16.6988 33.6976 21.8077 34.1918C24.4913 38.5028 28.6223 39.7838 32.7938 38.5568L33.0975 38.1743L33.5272 34.1513L32.7938 33.7538C30.444 35.7488 26.6663 35.7473 24.1635 34.2188C29.424 33.8326 33.5347 30.4313 33.5347 24.0638ZM28.602 24.0638C28.602 28.6928 26.8305 32.4458 23.1427 32.4458C19.2653 32.4458 17.6842 28.6928 17.6842 24.0638C17.6842 19.4348 19.3298 15.6826 23.1427 15.6826C27.0668 15.6826 28.602 19.4348 28.602 24.0638Z" fill="white"/>
</svg>
