<svg width="48" height="48" viewBox="0 0 48 48" fill="none" xmlns="http://www.w3.org/2000/svg">
<path d="M11.3348 17.3631C11.5211 12.7259 15.5808 8.97368 20.5346 8.97368C25.3021 8.97368 29.2128 12.4073 29.697 16.8321C32.1552 16.8675 34.5762 16.9029 37.0346 17.0091C36.5875 8.69049 29.362 2.03564 20.5346 2.03564C11.4466 2.03564 4.03461 9.07987 4.03461 17.717C4.03461 17.8232 4.03461 17.9294 4.03461 18.0356C6.4556 17.7524 8.91384 17.5401 11.3348 17.3631Z" fill="#6677FB"/>
<path d="M33.2067 28.0831L33.2797 27.974C35.1434 25.6436 36.276 22.9488 36.678 20.0356C34.2298 20.0356 31.8181 20.0356 29.3699 20.1084C28.3834 24.0412 24.839 26.9179 20.6371 26.9179C16.8735 26.9179 13.6214 24.5874 12.2695 21.3101C9.85783 21.565 7.44621 21.8928 5.03461 22.2569C6.93466 29.0664 13.2195 34.0552 20.6371 34.0552C23.0121 34.0552 25.3507 33.5455 27.5065 32.5258L27.6162 32.4893L27.6892 32.5622L37.7009 44.7247C38.3953 45.5621 39.3819 46.0356 40.4781 46.0356C41.3184 46.0356 42.1225 45.7441 42.7436 45.2344C43.4744 44.6154 43.9492 43.7779 44.0225 42.8311C44.0956 41.8843 43.8398 40.9739 43.2184 40.2093L33.2067 28.0831Z" fill="#202C46"/>
</svg>
