<svg width="16" height="16" viewBox="0 0 16 16" fill="none" xmlns="http://www.w3.org/2000/svg">
<path fill-rule="evenodd" clip-rule="evenodd" d="M8.75 4C8.75 3.58579 8.41421 3.25 8 3.25C7.58579 3.25 7.25 3.58579 7.25 4V6.75C7.25 7.02614 7.02614 7.25 6.75 7.25H4C3.58579 7.25 3.25 7.58579 3.25 8C3.25 8.41421 3.58579 8.75 4 8.75H6.75C7.02614 8.75 7.25 8.97386 7.25 9.25V12C7.25 12.4142 7.58579 12.75 8 12.75C8.41421 12.75 8.75 12.4142 8.75 12V9.25C8.75 8.97386 8.97386 8.75 9.25 8.75H12C12.4142 8.75 12.75 8.41421 12.75 8C12.75 7.58579 12.4142 7.25 12 7.25H9.25C8.97386 7.25 8.75 7.02614 8.75 6.75V4Z" fill="black"/>
</svg>
