<svg fill="none" height="17" viewBox="0 0 16 17" width="16" xmlns="http://www.w3.org/2000/svg"><path d="m8.875 3.5c0-.48325-.39175-.875-.875-.875s-.875.39175-.875.875v8.0976l-2.05554-1.76193c-.36691-.3145-.9193-.27201-1.23379.0949-.3145.36693-.27201.91933.0949 1.23383l3.49655 2.997c.14319.1241.32709.2025.52899.2125.03004.0015.06014.0015.09017-.0001.19279-.01.36907-.0825.509-.1975.00476-.0039.00948-.0079.01418-.0119l3.50004-3c.3669-.3145.4094-.8669.0949-1.23383-.3145-.36691-.8669-.4094-1.2338-.0949l-2.0556 1.76193z" fill="#000"/></svg>