<svg fill="none" height="15" viewBox="0 0 20 15" width="20" xmlns="http://www.w3.org/2000/svg"><path d="m18 1.00413h-11.78c-1.11-1.229996-3.01-1.319996-4.22-.199996-.64.559996-1 1.359996-1 2.199996v8.99997c-.265216 0-.51957.1054-.707107.2929-.187536.1876-.292893.4419-.292893.7071v1h8v-1c0-.2652-.10536-.5195-.29289-.7071-.18754-.1875-.44189-.2929-.70711-.2929v-6.99997h11c.5304 0 1.0391-.21071 1.4142-.58578.3751-.37508.5858-.88378.5858-1.41422 0-.53043-.2107-1.03914-.5858-1.41421s-.8838-.58579-1.4142-.58579zm-12.5 10.99997h-3v-6.39997c.93.54 2.07.54 3 0zm-1.5-7.49997c-.39782 0-.77936-.15803-1.06066-.43934-.2813-.2813-.43934-.66283-.43934-1.06066 0-.39782.15804-.77935.43934-1.06066.2813-.2813.66284-.43934 1.06066-.43934s.77936.15804 1.06066.43934c.2813.28131.43934.66284.43934 1.06066 0 .39783-.15804.77936-.43934 1.06066-.2813.28131-.66284.43934-1.06066.43934zm4.5-.5-1.5-2h1.5l1.5 2zm4 0-1.5-2h1.5l1.5 2zm4 0-1.5-2h1.5l1.5 2z" fill="#000"/></svg>