<svg width="20" height="15" viewBox="0 0 20 15" fill="none" xmlns="http://www.w3.org/2000/svg">
<path d="M18 1.00413H6.22C5.11 -0.225866 3.21 -0.315866 2 0.804134C1.36 1.36413 1 2.16413 1 3.00413V12.0041C0.734784 12.0041 0.48043 12.1095 0.292893 12.297C0.105357 12.4846 0 12.7389 0 13.0041V14.0041H8V13.0041C8 12.7389 7.89464 12.4846 7.70711 12.297C7.51957 12.1095 7.26522 12.0041 7 12.0041V5.00413H18C18.5304 5.00413 19.0391 4.79342 19.4142 4.41835C19.7893 4.04327 20 3.53457 20 3.00413C20 2.4737 19.7893 1.96499 19.4142 1.58992C19.0391 1.21485 18.5304 1.00413 18 1.00413ZM5.5 12.0041H2.5V5.60413C3.43 6.14413 4.57 6.14413 5.5 5.60413V12.0041ZM4 4.50413C3.60218 4.50413 3.22064 4.3461 2.93934 4.06479C2.65804 3.78349 2.5 3.40196 2.5 3.00413C2.5 2.60631 2.65804 2.22478 2.93934 1.94347C3.22064 1.66217 3.60218 1.50413 4 1.50413C4.39782 1.50413 4.77936 1.66217 5.06066 1.94347C5.34196 2.22478 5.5 2.60631 5.5 3.00413C5.5 3.40196 5.34196 3.78349 5.06066 4.06479C4.77936 4.3461 4.39782 4.50413 4 4.50413V4.50413ZM8.5 4.00413L7 2.00413H8.5L10 4.00413H8.5ZM12.5 4.00413L11 2.00413H12.5L14 4.00413H12.5ZM16.5 4.00413L15 2.00413H16.5L18 4.00413H16.5Z" fill="black"/>
</svg>
