<svg fill="none" height="16" viewBox="0 0 16 16" width="16" xmlns="http://www.w3.org/2000/svg"><g clip-rule="evenodd" fill="#000" fill-rule="evenodd"><path d="m6.14689 2.61886c.0725-.40782.46188-.67965.86969-.60716.40782.0725.67966.46188.60716.8697l-.24095 1.35539c-.0708.39826.23546.76377.63996.76377h1.975c.31505 0 .58485-.226.63995-.53623l.3281-1.84547c.0725-.40782.4619-.67965.8697-.60716.4078.0725.6796.46188.6071.8697l-.2409 1.35539c-.0708.39826.2354.76377.64.76377h1.2101c.4142 0 .75.33579.75.75 0 .41422-.3358.75-.75.75h-1.7079c-.3151 0-.5848.226-.64.53623l-.2045 1.34957c-.064.42208-.2614.81262-.5632 1.11448l-.5353.53526-.42402.395c-.37018.3448-.85728.5365-1.36319.5365h-1.88281c-.31509 0-.58481.226-.63996.5363l-.34329 1.931c-.0725.4079-.46188.6797-.8697.6072-.40781-.0725-.67965-.4619-.60715-.8697l.25617-1.441c.0708-.3983-.23546-.7638-.63996-.7638h-1.13699c-.41421 0-.75-.3358-.75-.75 0-.41419.33579-.74998.75-.74998h1.63474c.3151 0 .58482-.226.63997-.53623l.29635-1.66706c.0708-.39826-.23546-.76377-.63996-.76377h-1.1995c-.41421 0-.75-.33579-.75-.75s.33579-.75.75-.75h1.69725c.3151 0 .58482-.226.63997-.53623zm3.99311 4.64547-.29639 1.66706c-.05515.31023-.32487.53623-.63997.53623h-1.975c-.4045 0-.71076-.36551-.63996-.76377l.29635-1.66706c.05515-.31023.32487-.53623.63997-.53623h1.975c.4045 0 .7108.36551.64.76377z"/><path d="m12.035 10c-.6484 0-1.1685.543-1.2173 1.221h.5659c.0443-.376.3248-.6575.6514-.6575.3561 0 .6574.3348.6574.7618v.7097h-1.0644-.814-.2035c-.3372 0-.6105.2733-.6105.6105v1.221c0 .3372.2733.6105.6105.6105h2.849c.3372 0 .6105-.2733.6105-.6105v-1.221c0-.3372-.2733-.6105-.6105-.6105h-.2035v-.7096c0-.7258-.5397-1.3254-1.221-1.3254z"/></g></svg>