<svg fill="none" height="17" viewBox="0 0 16 17" width="16" xmlns="http://www.w3.org/2000/svg"><path clip-rule="evenodd" d="m6.61568 2.47557c-.40782-.0725-.79719.19933-.86969.60715l-.32807 1.84548c-.05515.31023-.32487.53623-.63997.53623h-1.69725c-.41421 0-.75.33579-.75.75s.33579.75.75.75h1.1995c.4045 0 .71076.36551.63996.76376l-.29635 1.66706c-.05515.31024-.32487.53624-.63997.53624h-1.63474c-.41422 0-.75.33581-.75.75001s.33578.75.75.75h1.13698c.40451 0 .71077.3655.63997.7638l-.25617 1.441c-.0725.4078.19933.7972.60715.8697s.7972-.1994.8697-.6072l.34329-1.9311c.05515-.3102.32487-.5362.63996-.5362h1.975c.4045 0 .71077.3655.63997.7638l-.25617 1.441c-.0725.4078.19933.7972.60715.8697s.79717-.1994.86967-.6072l.3433-1.9311c.0552-.3102.3249-.5362.64-.5362h1.7677c.4142 0 .75-.3358.75-.75s-.3358-.75001-.75-.75001h-1.27c-.4045 0-.7107-.36551-.6399-.76377l.2963-1.66706c.0552-.31023.3249-.53623.64-.53623h1.7079c.4142 0 .75-.33579.75-.75s-.3358-.75-.75-.75h-1.2101c-.4046 0-.7108-.36551-.64-.76377l.2409-1.3554c.0725-.40782-.1993-.79719-.6071-.86969s-.7972.19933-.8697.60715l-.3281 1.84548c-.0551.31023-.32485.53623-.63995.53623h-1.975c-.4045 0-.71076-.36551-.63996-.76377l.24095-1.3554c.07249-.40782-.19934-.79719-.60716-.86969zm2.18706 7.45592c.3151 0 .58482-.226.63997-.53624l.29635-1.66705c.0708-.39826-.23546-.76377-.63997-.76377h-1.975c-.31509 0-.58481.226-.63996.53623l-.29636 1.66706c-.0708.39826.23547.76377.63997.76377z" fill="#fff" fill-rule="evenodd"/></svg>