<svg fill="none" height="17" viewBox="0 0 16 17" width="16" xmlns="http://www.w3.org/2000/svg"><g fill="#000"><path clip-rule="evenodd" d="m8 14c3.0376 0 5.5-2.4624 5.5-5.5 0-3.03757-2.4624-5.5-5.5-5.5-3.03757 0-5.5 2.46243-5.5 5.5 0 3.0376 2.46243 5.5 5.5 5.5zm-1.55411-7.26086c-.97567.1501-1.69589.9896-1.69589 1.97674v1.56832c0 .9871.72022 1.8266 1.69589 1.9767l.33765.052c.80623.124 1.62669.124 2.43292 0l.33765-.052c.97569-.1501 1.69589-.9896 1.69589-1.9767v-1.56832c0-.98714-.7202-1.82664-1.69589-1.97674l-.33765-.05195c-.80623-.12404-1.62669-.12404-2.43292 0z" fill-rule="evenodd"/><circle cx="6.5" cy="8.5" r=".75"/><circle cx="9.5" cy="8.5" r=".75"/><path d="m8 11.25c.51765 0 .9618-.3147 1.15164-.7631.10764-.2543-.1255-.4869-.40164-.4869h-1.5c-.27614 0-.50928.2326-.40164.4869.18984.4484.63399.7631 1.15164.7631z"/><path d="m7 2.5c0-.55228.44772-1 1-1s1 .44772 1 1v2c0 .55228-.44772 1-1 1s-1-.44772-1-1z"/></g></svg>