<svg fill="none" height="17" viewBox="0 0 16 17" width="16" xmlns="http://www.w3.org/2000/svg"><path clip-rule="evenodd" d="m8 15.5c3.866 0 7-3.134 7-7 0-3.86599-3.134-7-7-7-3.86599 0-7 3.13401-7 7 0 3.866 3.13401 7 7 7zm3-10c.2441.24408.2441.63981 0 .88388l-2.11607 2.11612 2.11607 2.1161c.2441.2441.2441.6398 0 .8839-.244.2441-.6398.2441-.8838 0l-2.11615-2.11611-2.11612 2.11611c-.24408.2441-.63981.2441-.88388 0-.24408-.2441-.24408-.6398 0-.8839l2.11611-2.1161-2.11611-2.11611c-.24408-.24408-.24408-.63981 0-.88389.24407-.24407.6398-.24407.88388 0l2.11612 2.11612 2.11615-2.11612c.244-.24408.6398-.24408.8838 0z" fill="#000" fill-rule="evenodd"/></svg>