<svg fill="none" height="16" viewBox="0 0 16 16" width="16" xmlns="http://www.w3.org/2000/svg"><path clip-rule="evenodd" d="m10 14c1.1046 0 2-.8954 2-2 1.1046 0 2-.8954 2-2v-6c0-1.10457-.8954-2-2-2-5.52285 0-10 4.47715-10 10 0 1.1046.89543 2 2 2zm-5.5-2c-.27614 0-.50162-.2245-.48462-.5001.24794-4.01993 3.46459-7.23658 7.48452-7.48452.2756-.017.5001.20848.5001.48462v1c0 .27614-.2246.49783-.4998.52052-2.91507.24042-5.23926 2.56461-5.47968 5.47968-.02269.2752-.24438.4998-.52052.4998zm7.5-3.5c0-.27614-.225-.50328-.499-.46918-1.81017.22527-3.24491 1.66001-3.47018 3.47018-.0341.274.19304.499.46918.499h1c.27614 0 .49359-.2273.5617-.4949.18-.7069.7365-1.2634 1.4434-1.4434.2676-.06811.4949-.28556.4949-.5617z" fill="#000" fill-rule="evenodd"/></svg>