<svg fill="none" height="16" viewBox="0 0 16 16" width="16" xmlns="http://www.w3.org/2000/svg"><g fill="#000"><path d="m4.16634 7c.27614 0 .5-.22386.5-.5s-.22386-.5-.5-.5h-.16667c-1.47275 0-2.66666 1.19391-2.66666 2.66667v3.33333c0 1.4728 1.19391 2.6667 2.66666 2.6667h3.33334c1.47276 0 2.66666-1.1939 2.66666-2.6667v-.1667c0-.2761-.22385-.5-.5-.5-.27614 0-.5.2239-.5.5v.1667c0 .9205-.74619 1.6667-1.66666 1.6667h-3.33334c-.92047 0-1.66666-.7462-1.66666-1.6667v-3.33333c0-.92048.74619-1.66667 1.66666-1.66667z"/><path clip-rule="evenodd" d="m5.99967 4c0-1.47276 1.19391-2.66666 2.66667-2.66666h3.33336c1.4727 0 2.6666 1.1939 2.6666 2.66666v3.33334c0 1.47276-1.1939 2.66666-2.6666 2.66666h-3.33336c-1.47276 0-2.66667-1.1939-2.66667-2.66666zm2.66667-1.66666h3.33336c.9204 0 1.6666.74619 1.6666 1.66666v3.33334c0 .92047-.7462 1.66666-1.6666 1.66666h-3.33336c-.92047 0-1.66667-.74619-1.66667-1.66666v-3.33334c0-.92047.7462-1.66666 1.66667-1.66666z" fill-rule="evenodd"/></g></svg>