<svg fill="none" height="17" viewBox="0 0 16 17" width="16" xmlns="http://www.w3.org/2000/svg"><g clip-rule="evenodd" fill="#000" fill-rule="evenodd"><path d="m2.76413 10.1901 5.56066-5.41122c.38197-.37171.99997-.37297 1.38632.00299.38369.37336.38569.97674.00307 1.34906l-6.25843 6.09017c-.18993.1849-.43822.2781-.68737.2789-.25655-.0019-.50554-.0937-.69254-.2756l-1.791608-1.7166c-.3801333-.3699-.3799398-.96985.006406-1.34581.383671-.37336 1.007992-.37115 1.382992-.00623z"/><path d="m8.76413 10.1901 5.56067-5.41122c.382-.37171 1-.37297 1.3863.00299.3837.37336.3857.97674.0031 1.34906l-6.25844 6.09017c-.18994.1849-.43823.2781-.68738.2789-.25655-.0019-.50554-.0937-.69254-.2756l-1.79161-1.7166 1.3894-1.35204z"/></g></svg>