<svg fill="none" height="17" viewBox="0 0 16 17" width="16" xmlns="http://www.w3.org/2000/svg"><g fill="#000"><path d="m2.10105 14.0959.6974-2.7897c.03223-.1289.07287-.255.12149-.3777.06187-.1561.2616-.1862.38032-.0675l2.3388 2.3388c.11872.1187.08863.3185-.06745.3803-.12269.0487-.24886.0893-.37776.1215l-2.78964.6974c-.18309.0458-.34894-.12-.30316-.3031z"/><path d="m6.32321 11.7627c.39053.3905 1.02369.3905 1.41422 0l6.55547-6.5555c.3905-.39052.3905-1.02369 0-1.41421l-1.5858-1.58579c-.3905-.39052-1.0237-.39052-1.4142 0l-6.55547 6.55546c-.39053.39052-.39053 1.02369 0 1.41424z"/></g></svg>