<svg fill="none" height="17" viewBox="0 0 16 17" width="16" xmlns="http://www.w3.org/2000/svg"><g fill="#000"><path clip-rule="evenodd" d="m4.5 6.25c-.41421 0-.75.33579-.75.75v5c0 .4142.33579.75.75.75h5c.41421 0 .75-.3358.75-.75v-2.79289c0-.13261.0527-.25979.1464-.35356l.9268-.92677c.1575-.15749.4268-.04595.4268.17677v3.89645c0 1.2426-1.0074 2.25-2.25 2.25h-5c-1.24264 0-2.25-1.0074-2.25-2.25v-5c0-1.24264 1.00736-2.25 2.25-2.25h3.89645c.22272 0 .33426.26929.17677.42678l-.92677.92677c-.09377.09377-.22095.14645-.35356.14645z" fill-rule="evenodd"/><path d="m14.75 2.5c0-.19189-.0732-.38379-.2197-.53027-.1465-.14649-.3384-.21973-.5303-.21973h-5c-.41431 0-.75.33582-.75.75s.33569.75.75.75h2.7066c.1782 0 .2674.21543.1414.34142l-5.37827 5.37831c-.29297.29284-.29297.7677 0 1.06057.29272.2929.76782.2929 1.06054 0l5.37833-5.37833c.126-.12599.3414-.03676.3414.14142v2.70661c0 .41418.3359.75.75.75s.75-.33582.75-.75z"/></g></svg>