<svg fill="none" height="24" viewBox="0 0 24 24" width="24" xmlns="http://www.w3.org/2000/svg"><g fill="#000"><path d="m16.5668 13.9999c1.1045 0 1.8731.6595 1.7166 1.473s-1.1788 1.473-2.2834 1.473-1.8731-.6595-1.7166-1.473 1.1788-1.473 2.2834-1.473z"/><path clip-rule="evenodd" d="m2.51675 14.445.47225 3.1484c.29372 1.958 1.97576 3.4066 3.95575 3.4066h10.11055c1.9799 0 3.662-1.4486 3.9557-3.4066l.4722-3.1484c.2721-1.8138-1.1327-3.445-2.9668-3.445h-13.03284c-1.8341 0-3.23888 1.6312-2.96681 3.445zm2.36987 1.2732c-.30393.1519-.66766-.037-.71807-.3731l-.16839-1.1226c-.13604-.9069.56635-1.7225 1.4834-1.7225h13.03284c.9171 0 1.6195.8156 1.4834 1.7225l-.4722 3.1484c-.1836 1.2238-1.2349 2.1291-2.4723 2.1291h-1.0307c-.1011 0-.1999-.0307-.2833-.088l-6.83029-4.6958c-.52487-.3609-1.20435-.4081-1.77405-.1232zm-.25105 2.2407c-.08902-.2146.02473-.4505.23253-.5544l2.93968-1.4699c.08138-.0407.17845-.0339.25343.0176l3.83379 2.6358c.4047.2782.2078.912-.2832.912h-4.66705c-1.02923 0-1.92965-.6263-2.30918-1.5411z" fill-rule="evenodd"/><path d="m4.36256 8.63874c.06801.45346-.28318.86126-.74171.86126-.37124 0-.68663-.2716-.7417-.63874l-.36243-2.41624c-.27208-1.81381 1.1327-3.44502 2.96681-3.44502h13.03287c1.8341 0 3.2389 1.63121 2.9668 3.44502l-.3624 2.41624c-.0551.36714-.3705.63874-.7417.63874-.4586 0-.8097-.4078-.7417-.86125l.3624-2.41624c.136-.9069-.5663-1.72251-1.4834-1.72251h-13.03287c-.91706 0-1.61944.8156-1.48341 1.72251z"/></g></svg>