<svg fill="none" height="18" viewBox="0 0 17 18" width="17" xmlns="http://www.w3.org/2000/svg"><path clip-rule="evenodd" d="m3.75.00390625c-2.07107 0-3.75 1.67893375-3.75 3.75000375v11.99999c0 .9665.783502 1.75 1.75 1.75h6c.9665 0 1.75-.7835 1.75-1.75v-5.75h.25c.6904 0 1.25.5596 1.25 1.25v3.5c0 1.5188 1.2312 2.75 2.75 2.75s2.75-1.2312 2.75-2.75v-8.63869c0-1.08136-.4668-2.11008-1.2806-2.82216l-2.9755-2.603576c-.3117-.272762-.7856-.241174-1.0583.070554-.2728.311732-.2412.785552.0705 1.058312l1.4879 1.3019c-1.0112.32041-1.744 1.26646-1.744 2.38367 0 1.38071 1.1193 2.5 2.5 2.5.5628 0 1.0822-.18598 1.5-.49982v7.24981c0 .6904-.5596 1.25-1.25 1.25s-1.25-.5596-1.25-1.25v-3.5c0-1.51878-1.2312-2.74999-2.75-2.74999h-.25v-4.75c0-2.07107-1.67893-3.75000375-3.75-3.75000375zm-2.25 3.75000375c0-1.24264 1.00736-2.25 2.25-2.25h2c1.24264 0 2.25 1.00736 2.25 2.25v2.5h-6.5zm0 4v7.99999c0 .1381.11193.25.25.25h6c.13807 0 .25-.1119.25-.25v-7.99999zm12-3.25c-.5523 0-1 .44771-1 1 0 .55228.4477 1 1 1s1-.44772 1-1c0-.55229-.4477-1-1-1z" fill="#000" fill-rule="evenodd"/></svg>