<svg fill="none" height="16" viewBox="0 0 16 16" width="16" xmlns="http://www.w3.org/2000/svg"><g fill="#939ba1"><path d="m5.50016 6c0-1.38281 1.11719-2.5 2.5-2.5s2.50004 1.11719 2.50004 2.5c0 .49907-.2598.91811-.53676 1.22837-.28235.31636-.63484.57886-.93655.77353-.33152.21391-.52673.54175-.52673.86284v.4686c0 .27614-.22385.5-.5.5-.27614 0-.5-.22386-.5-.5v-.4686c0-.73095.43209-1.34664.98457-1.70311.26475-.17082.53444-.37706.73265-.59913.20365-.22818.28278-.41727.28278-.5625 0-.83052-.66947-1.5-1.5-1.5-.83052 0-1.5.66948-1.5 1.5 0 .27614-.22385.5-.5.5-.27614 0-.5-.22386-.5-.5z"/><path d="m8.00016 12.5c.46024 0 .83334-.3731.83334-.8333 0-.4603-.3731-.8334-.83334-.8334-.46023 0-.83333.3731-.83333.8334 0 .4602.3731.8333.83333.8333z"/><path clip-rule="evenodd" d="m1.3335 8c0 3.6819 2.98476 6.6667 6.66666 6.6667 3.68194 0 6.66664-2.9848 6.66664-6.6667s-2.9847-6.66666-6.66664-6.66666c-3.6819 0-6.66666 2.98476-6.66666 6.66666zm1 0c0 3.1296 2.53705 5.6667 5.66666 5.6667 3.12964 0 5.66664-2.5371 5.66664-5.6667 0-3.12961-2.537-5.66666-5.66664-5.66666-3.12961 0-5.66666 2.53705-5.66666 5.66666z" fill-rule="evenodd"/></g></svg>