<svg width="16" height="16" viewBox="0 0 16 16" fill="none" xmlns="http://www.w3.org/2000/svg">
<path fill-rule="evenodd" clip-rule="evenodd" d="M5.76326 2.13863C6.37499 1.52689 7.20714 1.40039 8.00002 1.40039C8.79291 1.40039 9.62505 1.52689 10.2368 2.13863C10.8228 2.72464 11.082 3.63065 11.0991 4.86755C11.4564 5.02873 11.7689 5.24124 12.0342 5.51905C12.8917 6.41698 13.1003 7.83827 13.1003 9.75039C13.1003 11.6625 12.8917 13.0838 12.0342 13.9817C11.1669 14.89 9.79528 15.1004 8.00027 15.1004C6.20526 15.1004 4.83368 14.89 3.96634 13.9817C3.10887 13.0838 2.90027 11.6625 2.90027 9.75039C2.90027 7.83827 3.10887 6.41698 3.96634 5.51905C4.23151 5.24137 4.54381 5.02892 4.90093 4.86777C4.91797 3.63076 5.17721 2.72468 5.76326 2.13863ZM9.38826 2.98715C9.61778 3.21668 9.82926 3.65266 9.88548 4.52256C9.32331 4.43176 8.69335 4.40039 8.00027 4.40039C7.30698 4.40039 6.67686 4.43178 6.11456 4.52263C6.17078 3.65269 6.38226 3.21668 6.61179 2.98715C6.87505 2.72389 7.29291 2.60039 8.00002 2.60039C8.70714 2.60039 9.12499 2.72389 9.38826 2.98715ZM4.83419 6.3478C4.34167 6.86356 4.10027 7.81727 4.10027 9.75039C4.10027 11.6835 4.34167 12.6372 4.83419 13.153C5.31685 13.6584 6.19528 13.9004 8.00027 13.9004C9.80526 13.9004 10.6837 13.6584 11.1663 13.153C11.6589 12.6372 11.9003 11.6835 11.9003 9.75039C11.9003 7.81727 11.6589 6.86356 11.1663 6.3478C10.6837 5.84237 9.80526 5.60039 8.00027 5.60039C6.19528 5.60039 5.31685 5.84237 4.83419 6.3478ZM6.50002 10.3504H9.50002V9.15044H6.50002V10.3504Z" fill="#647084"/>
</svg>
