<svg fill="none" height="16" viewBox="0 0 16 16" width="16" xmlns="http://www.w3.org/2000/svg"><path d="m4.625 10.6h2.75v-1.2h-2.75zm4.5 2.3h-6.25v1.2h6.25zm-6.25 0c-.15188 0-.275-.1231-.275-.275h-1.2c0 .8146.66038 1.475 1.475 1.475zm6.525-.275c0 .1519-.12312.275-.275.275v1.2c.81462 0 1.475-.6604 1.475-1.475zm-2.025-2.025c1.11838 0 2.025.9066 2.025 2.025h1.2c0-1.7811-1.44388-3.225-3.225-3.225zm-2.75-1.2c-1.78112 0-3.225 1.4439-3.225 3.225h1.2c0-1.1184.90662-2.025 2.025-2.025z" fill="#647084"/><path d="m11.25 9.4c-.3314 0-.6.26863-.6.6 0 .3314.2686.6.6.6zm.5 3.5c-.3314 0-.6.2686-.6.6s.2686.6.6.6zm-.5-2.3h.375v-1.2h-.375zm2.125 2.3h-1.625v1.2h1.625zm.275-.275c0 .1519-.1231.275-.275.275v1.2c.8146 0 1.475-.6604 1.475-1.475zm1.2 0c0-1.7811-1.4439-3.225-3.225-3.225v1.2c1.1184 0 2.025.9066 2.025 2.025z" fill="#a1abbd"/><g stroke-linejoin="round" stroke-width="1.2"><circle cx="6" cy="5" r="2" stroke="#647084"/><path d="m9.75 6.93182c.4253-.11395.801-.36504 1.0691-.71433.268-.34929.4133-.77725.4133-1.21752s-.1453-.86824-.4133-1.21753c-.2681-.34928-.6438-.60037-1.0691-.71432" stroke="#a1abbd" stroke-linecap="round"/></g></svg>