<svg fill="none" height="17" viewBox="0 0 16 17" width="16" xmlns="http://www.w3.org/2000/svg"><g fill="#fff"><path d="m9.70186 3.61736c.21359-.21359.19091-.56942-.07561-.71158-.48691-.25971-1.04146-.40578-1.62623-.40578-1.72139 0-3.18082 1.26576-3.42426 2.96984l-.43432 3.04021c-.02525.17679.29101.37672.41729.25044z"/><path d="m1.952 13.4879c-.2751.2941-.26921.7555.01767 1.0424.29289.2929.76777.2929 1.06066 0l1.88388-1.8839c.09377-.0937.22095-.1464.35356-.1464h.23223c.27614 0 .49359.2273.56171.4949.22026.8652 1.00455 1.5051 1.93829 1.5051s1.71803-.6399 1.93829-1.5051c.06811-.2676.28561-.4949.56171-.4949h2.0858c.8909 0 1.3371-1.0771.7071-1.7071l-.5858-.5858c-.459-.45899-.7567-1.05446-.8485-1.69705l-.3156-2.20951c-.0223-.15579.0301-.31298.1414-.42426l2.3459-2.34595c.2929-.29289.2929-.76777 0-1.06066-.2868-.28686-.7483-.29277-1.0423-.01772-.0058.00616-.0117.01225-.0177.01826l-10.99997 10.99999c-.00604.006-.01215.012-.01833.0177z"/></g></svg>