<svg width="16" height="17" viewBox="0 0 16 17" fill="none" xmlns="http://www.w3.org/2000/svg">
<path fill-rule="evenodd" clip-rule="evenodd" d="M8 3.5C6.40698 3.5 5.12915 4.83423 5.00928 6.5H6.39941C6.5083 5.57629 7.19775 4.88464 8 4.88464C8.87476 4.88464 9.61523 5.7074 9.61523 6.75647V8.5H7H6.38452H5H4.5C3.67163 8.5 3 9.17163 3 10V13C3 13.8284 3.67163 14.5 4.5 14.5H11.5C12.3284 14.5 13 13.8284 13 13V10C13 9.17163 12.3284 8.5 11.5 8.5H11V6.75647C11 4.97327 9.67407 3.5 8 3.5Z" fill="black"/>
</svg>
