<svg fill="none" height="16" viewBox="0 0 17 16" width="17" xmlns="http://www.w3.org/2000/svg"><path clip-rule="evenodd" d="m8.3335 16c4.418 0 8-3.582 8-8 0-4.41803-3.581-8-8-8-4.41804 0-8.000004 3.58197-8.000004 8 0 4.418 3.581964 8 8.000004 8zm4.8631-7.12629v.51534c0 .02959-.0181.05589-.0444.0674-.1611.06904-.7126.32219-.9419.64115-.1276.1775-.2486.3717-.3702.5669-.4362.7-.88 1.4123-1.6616 1.4123h-4.16964c-1.47781 0-2.67536-1.2017-2.67536-2.68447v-.04766c0-.03946.03204-.0715.0715-.0715h2.32442c.04601 0 .07971.04273.07561.08793-.01645.15123.01151.30576.08301.44631.13808.28029.42411.45539.73315.45539h1.15071v-.8984h-1.13756c-.05835 0-.09286-.06741-.05916-.11507.00681-.01046.01413-.02117.02182-.0324l.00007-.0001.01919-.02832c.10768-.15288.26138-.39042.41426-.66083.10438-.18247.20547-.37727.28685-.57288.01509-.03243.0274-.06557.03948-.09812l.00325-.00875.01745-.04821v-.00002c.01634-.04475.03207-.08784.0442-.13093.01342-.04025.02464-.08214.03546-.12253v-.00002l.00728-.02705c.03864-.16604.05507-.34192.05507-.52439 0-.0715-.00328-.1463-.00986-.21781-.00329-.07808-.01315-.15617-.02302-.23425-.00658-.06904-.0189-.13726-.03205-.20877-.01643-.10438-.03945-.20794-.06576-.31234l-.00904-.03944c-.00586-.02126-.01144-.04223-.01698-.06309l-.00002-.00006c-.01309-.04926-.02601-.09785-.04217-.14808-.06494-.2244-.13972-.44302-.21864-.64768-.02876-.08137-.06164-.15945-.09452-.23752v-.00001c-.0381-.09237-.07672-.17814-.11345-.2597l-.00002-.00004-.02954-.06575c-.02301-.04603-.04274-.08795-.06247-.13069-.02219-.0485-.0452-.09699-.06822-.14301-.00646-.01388-.0133-.02739-.02002-.04067-.01038-.02051-.02049-.04047-.02848-.06043l-.14054-.25973c-.01973-.03534.01315-.07726.05178-.06657l.87947.23835h.00246c.00096 0 .00164.00028.0022.00052l.00108.00031.11589.03205.12741.03617.04685.01314v-.52274c0-.25233.20219-.45699.45206-.45699.12493 0 .23835.05096.31973.13397.08136.08302.13232.19645.13232.32302v.77591l.09371.02629c.00739.00248.01478.00576.02136.01068l.03119.02366c.01869.01424.04096.0312.06662.05033.01331.01064.02702.02223.04147.03443l.00003.00003c.02123.01794.04404.03721.06946.05677.08466.06821.18576.15616.29672.25726.02958.02548.05835.05178.08465.07808.14303.13316.3033.28932.45618.46192.04274.0485.08466.09781.12739.14959.01514.01862.03058.03715.04601.05561v.00001c.028.03366.0559.0671.0814.10055l.029.03844c.0431.05708.0876.1159.1272.17691.01.01535.0206.03085.0312.04638l.0001.00009c.0138.02019.0276.04041.0402.06038.0624.09451.1175.19233.1701.29014.0222.0452.0452.09451.0649.14301.0584.13068.1044.26384.134.39699.009.02877.0156.06.0189.08795v.00658c.0099.03944.0132.08136.0164.12409.0132.13645.0066.27288-.023.41015-.0123.05836-.0287.11342-.0485.17179l-.0066.01878c-.0176.05008-.0357.1016-.0583.15053-.0493.11424-.1077.2285-.1767.33534-.0222.03946-.0485.08138-.0748.12084-.014.02045-.0283.04032-.0422.05979-.0147.02043-.029.04043-.0425.06021-.0361.04931-.0747.10108-.1142.14712-.0353.04849-.0715.09699-.111.13973-.05503.06492-.10764.12657-.16271.18575-.03287.03863-.06821.07808-.10439.11343-.03028.03381-.06119.06461-.09011.09343l-.00004.00003-.01423.0142c-.05506.05507-.10109.09781-.13973.13315l-.0904.08303c-.01315.0115-.03041.01808-.04849.01808h-.70029v.8984h.8811c.19727 0 .38467-.0699.53589-.1981l.0041-.0036c.0587-.0512.2802-.24441.5408-.53232.0091-.00987.0206-.01726.0338-.02054l2.4337-.70357c.0452-.01315.0912.02136.0912.06904zm-9.27589-.60494.03451-.05426 2.08112-3.25564c.03042-.04767.10192-.04274.12493.00904.34768.77918.64768 1.74823.50714 2.35153-.06.24823-.22439.58438-.40933.89507-.02382.04522-.05013.0896-.07808.13234-.01315.01973-.03534.03123-.05918.03123h-2.14029c-.05754 0-.09123-.06246-.06082-.10931z" fill="#2081e2" fill-rule="evenodd"/></svg>