<svg fill="none" height="17" viewBox="0 0 16 17" width="16" xmlns="http://www.w3.org/2000/svg"><g fill="#000"><path clip-rule="evenodd" d="m8.75003 10.9168c0-.4858.3553-.8897.80836-1.06492 1.61621-.6252 2.76241-2.19433 2.76241-4.03116 0-2.38627-1.9345-4.32072-4.32076-4.32072-2.38627 0-4.32072 1.93445-4.32072 4.32072 0 1.83683 1.14619 3.40595 2.76236 4.03115.45306.17523.80835.57913.80835 1.06493v4.1487c0 .4276.33579.7743.75.7743s.75-.3467.75-.7743zm2.07077-5.09608c0 1.55784-1.26292 2.82072-2.82076 2.82072s-2.82072-1.26288-2.82072-2.82072 1.26288-2.82072 2.82072-2.82072 2.82076 1.26288 2.82076 2.82072z" fill-rule="evenodd"/><path d="m9.78599 5.38285c0-.59277-.46381-1.19898-1.03596-1.354s-1.03596.19985-1.03596.79262c0 .59278.46381 1.19899 1.03596 1.35401.57215.15501 1.03596-.19986 1.03596-.79263z"/></g></svg>