<svg fill="none" height="24" viewBox="0 0 24 24" width="24" xmlns="http://www.w3.org/2000/svg"><g fill="#000"><path clip-rule="evenodd" d="m12 13c1.933 0 3.5-1.567 3.5-3.5s-1.567-3.5-3.5-3.5-3.5 1.567-3.5 3.5 1.567 3.5 3.5 3.5zm0-1.5c1.1046 0 2-.8954 2-2 0-1.10457-.8954-2-2-2s-2 .89543-2 2c0 1.1046.8954 2 2 2z" fill-rule="evenodd"/><path d="m16.4465 16.2731c.3654.2841.3755.8223.0192 1.1178-.3046.2526-.7427.2091-1.0614-.0254-.953-.7012-2.1302-1.1155-3.4041-1.1155-1.274 0-2.45119.4143-3.40423 1.1155-.31869.2345-.75678.278-1.06134.0254-.35635-.2955-.34627-.8337.0192-1.1178 1.22778-.9546 2.77067-1.5231 4.44637-1.5231 1.6756 0 3.2185.5685 4.4463 1.5231z"/><path clip-rule="evenodd" d="m12 22c5.5228 0 10-4.4772 10-10 0-5.52285-4.4772-10-10-10-5.52285 0-10 4.47715-10 10 0 5.5228 4.47715 10 10 10zm0-1.5c4.6944 0 8.5-3.8056 8.5-8.5 0-4.69442-3.8056-8.5-8.5-8.5-4.69442 0-8.5 3.80558-8.5 8.5 0 4.6944 3.80558 8.5 8.5 8.5z" fill-rule="evenodd"/></g></svg>