<svg fill="none" height="17" viewBox="0 0 16 17" width="16" xmlns="http://www.w3.org/2000/svg"><g fill="#fff"><path d="m9.82051 5.10748c.32749-.12596.67949.11578.67949.46667v5.85175c0 .3509-.352.5926-.6795.4666l-1.61905-.6227c-.18331-.0705-.36905-.1342-.55685-.191-.26188-.0792-.52982.0852-.59618.3506l-.38425 1.537c-.30298 1.212-2.02535 1.212-2.32834 0l-.58746-2.3498c-.04763-.1905-.20239-.3355-.39562-.3707l-.53163-.0966c-.47549-.0865-.82112-.50061-.82112-.98389v-1.33085c0-.48329.34562-.89742.82111-.98387l3.93953-.71628c.49182-.08942.97418-.22474 1.44075-.40419z"/><path d="m12.3205 12.8541c-.1931-.0743-.3205-.2598-.3205-.4667v-7.77479c0-.20688.1274-.3924.3205-.46667l.3205-.12327c.655-.25193 1.359.23156 1.359.93334v7.08809c0 .7017-.704 1.1852-1.359.9333z"/></g></svg>