<svg width="16" height="17" viewBox="0 0 16 17" fill="none" xmlns="http://www.w3.org/2000/svg">
<path fill-rule="evenodd" clip-rule="evenodd" d="M5 8.5V6.75641C5 4.97326 6.32593 3.5 8 3.5C9.67407 3.5 11 4.97326 11 6.75641V8.5H11.5C12.3284 8.5 13 9.17157 13 10V13C13 13.8284 12.3284 14.5 11.5 14.5H4.5C3.67157 14.5 3 13.8284 3 13V10C3 9.17157 3.67157 8.5 4.5 8.5H5ZM6.38452 8.50003H9.61529V6.75644C9.61529 5.70736 8.87484 4.88464 7.99991 4.88464C7.12497 4.88464 6.38452 5.70736 6.38452 6.75644V8.50003Z" fill="black"/>
</svg>
