<svg fill="none" height="17" viewBox="0 0 16 17" width="16" xmlns="http://www.w3.org/2000/svg"><path clip-rule="evenodd" d="m10.7803 3.5c.1562.00012.3005.07959.3786.20837l2.7825 4.58326c.0781.1289.0781.28784 0 .41674l-2.7825 4.58323c-.0781.1288-.2224.2083-.3786.2084h-5.56057c-.15625-.0001-.30054-.0796-.37867-.2084l-2.78247-4.58323c-.07812-.1289-.07812-.28784 0-.41674l2.78247-4.58326c.07813-.12878.22242-.20825.37867-.20837zm-4.7803 5c0 1.10461.89551 2 2 2 .53052 0 1.03906-.2107 1.41431-.58582.375-.375.58569-.88378.58569-1.41418 0-1.10461-.89551-2-2-2s-2 .89539-2 2z" fill="#000" fill-rule="evenodd"/></svg>