<svg fill="none" height="17" viewBox="0 0 16 17" width="16" xmlns="http://www.w3.org/2000/svg"><path clip-rule="evenodd" d="m10.3435 8.32275c-1.72489.0994-2.80587-.3024-4.53099-.20276-.42786.02402-.85275.08603-1.2697.1853.25464-3.19024 2.51247-5.98099 5.58269-6.15839 1.8842-.10871 3.7673 1.05457 3.8695 2.94301.1005 1.85608-1.315 3.09805-3.6515 3.23284zm-4.63196 6.52555c-1.80497.1019-3.60877-.9871-3.70673-2.7543-.09633-1.7371 1.25972-2.89919 3.49805-3.02537 1.65223-.09312 2.68796.28308 4.34019.18973.40965-.02246.81665-.08049 1.21635-.17343-.2435 2.98557-2.40643 5.59757-5.34786 5.76337z" fill="#000" fill-rule="evenodd"/></svg>