<svg fill="none" height="16" viewBox="0 0 16 16" width="16" xmlns="http://www.w3.org/2000/svg"><path clip-rule="evenodd" d="m8 15c3.866 0 7-3.134 7-7 0-3.86599-3.134-7-7-7-3.86599 0-7 3.13401-7 7 0 3.866 3.13401 7 7 7zm.24421-11.593c-.04913-.39306-.39546-.68014-.79081-.65553-.39536.02461-.7034.35243-.7034.74855v3.67157c0 .72935.28973 1.42882.80546 1.94455l2.41421 2.41426c.27593.2759.71733.2941 1.01513.0419.2977-.2522.3523-.6907.1255-1.0082l-2.20571-3.088c-.12072-.16901-.19742-.36542-.22318-.57151z" fill="#000" fill-rule="evenodd"/></svg>