<svg fill="none" height="16" viewBox="0 0 16 16" width="16" xmlns="http://www.w3.org/2000/svg"><path clip-rule="evenodd" d="m13.5 6.51587c0 .34137-.2543.94053-1.2967 1.53856-1.0011.57432-2.48396.97732-4.2033.97732s-3.20222-.403-4.20332-.97732c-1.04241-.59803-1.29668-1.19719-1.29668-1.53856s.25427-.94053 1.29668-1.53856c1.0011-.57432 2.48398-.97731 4.20332-.97731s3.2022.40299 4.2033.97731c1.0424.59803 1.2967 1.19719 1.2967 1.53856zm0 2.96826c0-.22322-.2691-.29489-.4609-.18078-1.2732.75735-3.06026 1.22835-5.0391 1.22835s-3.7659-.471-5.03906-1.22835c-.19184-.11411-.46094-.04244-.46094.18078 0 .34137.25427.94057 1.29668 1.53857 1.0011.5743 2.48398.9773 4.20332.9773s3.2022-.403 4.2033-.9773c1.0424-.598 1.2967-1.1972 1.2967-1.53857zm1.5-2.96826v2.96826.01584.00003s-.0001.00001-.0001.00003c-.0149 2.21057-3.1431 3.99997-6.9999 3.99997-3.85675 0-6.98501-1.7894-6.99995-3.99997 0-.00002-.00001-.00003-.00002-.00003-.00002 0-.00003-.00001-.00003-.00003v-.01584-2.96826-.01584c0-.00002.00001-.00003.00003-.00003.00001 0 .00002-.00001.00002-.00003.01494-2.21059 3.1432-3.99997 6.99995-3.99997 3.8568 0 6.985 1.78938 6.9999 3.99997 0 .00002.0001.00003.0001.00003v.00003z" fill="#000" fill-rule="evenodd"/></svg>