<svg width="16" height="16" viewBox="0 0 16 16" fill="none" xmlns="http://www.w3.org/2000/svg">
<path fill-rule="evenodd" clip-rule="evenodd" d="M13.5 6.51587C13.5 6.85724 13.2457 7.4564 12.2033 8.05443C11.2022 8.62875 9.71934 9.03175 8 9.03175C6.28066 9.03175 4.79778 8.62875 3.79668 8.05443C2.75427 7.4564 2.5 6.85724 2.5 6.51587C2.5 6.1745 2.75427 5.57534 3.79668 4.97731C4.79778 4.40299 6.28066 4 8 4C9.71934 4 11.2022 4.40299 12.2033 4.97731C13.2457 5.57534 13.5 6.1745 13.5 6.51587ZM13.5 9.48413C13.5 9.26091 13.2309 9.18924 13.0391 9.30335C11.7659 10.0607 9.97884 10.5317 8 10.5317C6.02116 10.5317 4.2341 10.0607 2.96094 9.30335C2.7691 9.18924 2.5 9.26091 2.5 9.48413C2.5 9.8255 2.75427 10.4247 3.79668 11.0227C4.79778 11.597 6.28066 12 8 12C9.71934 12 11.2022 11.597 12.2033 11.0227C13.2457 10.4247 13.5 9.8255 13.5 9.48413ZM15 6.51587V9.48413V9.49997C15 9.49999 15 9.5 15 9.5C15 9.5 14.9999 9.50001 14.9999 9.50003C14.985 11.7106 11.8568 13.5 8 13.5C4.14325 13.5 1.01499 11.7106 1.00005 9.50003C1.00005 9.50001 1.00004 9.5 1.00003 9.5C1.00001 9.5 1 9.49999 1 9.49997V9.48413V6.51587V6.50003C1 6.50001 1.00001 6.5 1.00003 6.5C1.00004 6.5 1.00005 6.49999 1.00005 6.49997C1.01499 4.28938 4.14325 2.5 8 2.5C11.8568 2.5 14.985 4.28938 14.9999 6.49997C14.9999 6.49999 15 6.5 15 6.5C15 6.5 15 6.50001 15 6.50003V6.51587Z" fill="black"/>
</svg>
