<svg fill="none" height="17" viewBox="0 0 16 17" width="16" xmlns="http://www.w3.org/2000/svg"><path clip-rule="evenodd" d="m8 2.5c-3.31371 0-6 2.68629-6 6v4c0 1.1046.89543 2 2 2h4c3.3137 0 6-2.6863 6-6 0-3.31371-2.6863-6-6-6zm-.36162 5.63711h-.00001c-.41963-.04521-.83927-.09042-1.35525-.06062-.25589.01437-.51.05146-.75936.11083.15229-1.90797 1.50262-3.57703 3.33884-3.68313 1.12683-.06502 2.2531.6307 2.3142 1.76012.0601 1.11006-.7865 1.85284-2.18385 1.93345-.51568.02972-.93513-.01547-1.35457-.06065zm-1.41863 4.35899c-1.07949.0609-2.15829-.5904-2.21687-1.6472-.05761-1.03896.75339-1.73398 2.09207-1.80944.49396-.02784.89578.01446 1.29758.05676h.00001.00002c.40198.04231.80393.08463 1.29811.05671.24501-.01343.48839-.04814.72743-.10373-.14563 1.7856-1.43918 3.3477-3.19835 3.4469z" fill="#000" fill-rule="evenodd"/></svg>