<svg width="16" height="17" viewBox="0 0 16 17" fill="none" xmlns="http://www.w3.org/2000/svg">
<path fill-rule="evenodd" clip-rule="evenodd" d="M8 2.5C4.68629 2.5 2 5.18629 2 8.5V12.5C2 13.6046 2.89543 14.5 4 14.5H8C11.3137 14.5 14 11.8137 14 8.5C14 5.18629 11.3137 2.5 8 2.5ZM7.63838 8.13711L7.63837 8.13711C7.21874 8.0919 6.7991 8.04669 6.28312 8.07649C6.02723 8.09086 5.77312 8.12795 5.52376 8.18732C5.67605 6.27935 7.02638 4.61029 8.8626 4.50419C9.98943 4.43917 11.1157 5.13489 11.1768 6.26431C11.2369 7.37437 10.3903 8.11715 8.99295 8.19776C8.47727 8.22748 8.05782 8.18229 7.63838 8.13711ZM6.21975 12.4961C5.14026 12.557 4.06146 11.9057 4.00288 10.8489C3.94527 9.80994 4.75627 9.11492 6.09495 9.03946C6.58891 9.01162 6.99073 9.05392 7.39253 9.09622L7.39254 9.09622L7.39256 9.09622C7.79454 9.13853 8.19649 9.18085 8.69067 9.15293C8.93568 9.1395 9.17906 9.10479 9.4181 9.0492C9.27247 10.8348 7.97892 12.3969 6.21975 12.4961Z" fill="black"/>
</svg>
