<svg width="16" height="16" viewBox="0 0 16 16" fill="none" xmlns="http://www.w3.org/2000/svg">
<path fill-rule="evenodd" clip-rule="evenodd" d="M7.47378 0.778159C8.31207 0.573936 9.0847 0.866836 9.71359 1.22993C10.3425 1.59302 10.9825 2.11568 11.2247 2.94377C11.3914 3.51343 11.3475 4.14886 11.0897 4.86257C11.4508 5.02424 11.7663 5.238 12.0339 5.51817C12.8914 6.4161 13.1 7.83739 13.1 9.74951C13.1 11.6616 12.8914 13.0829 12.0339 13.9809C11.1665 14.8891 9.79497 15.0995 7.99996 15.0995C6.20495 15.0995 4.83338 14.8891 3.96604 13.9809C3.10856 13.0829 2.89996 11.6616 2.89996 9.74951C2.89996 7.83739 3.10856 6.4161 3.96604 5.51817C4.83338 4.60991 6.20495 4.39951 7.99996 4.39951C8.71299 4.39951 9.3592 4.43271 9.93353 4.52966C10.1555 3.95284 10.1537 3.5565 10.073 3.28074C9.9596 2.8931 9.64204 2.57426 9.11359 2.26916C8.58514 1.96406 8.15023 1.84846 7.75782 1.94406C7.36888 2.03881 6.85379 2.38325 6.26814 3.39762L5.22891 2.79762C5.89326 1.64693 6.63203 0.983226 7.47378 0.778159ZM4.83389 6.34692C4.34136 6.86269 4.09996 7.81639 4.09996 9.74951C4.09996 11.6826 4.34136 12.6363 4.83389 13.1521C5.31655 13.6575 6.19497 13.8995 7.99996 13.8995C9.80495 13.8995 10.6834 13.6575 11.166 13.1521C11.6586 12.6363 11.9 11.6826 11.9 9.74951C11.9 7.81639 11.6586 6.86269 11.166 6.34692C10.6834 5.84149 9.80495 5.59951 7.99996 5.59951C6.19497 5.59951 5.31655 5.84149 4.83389 6.34692ZM7.39987 8.49941V10.9994H8.59986V8.49941H7.39987Z" fill="#647084"/>
</svg>
