<svg width="20" height="20" viewBox="0 0 20 20" fill="none" xmlns="http://www.w3.org/2000/svg">
<path d="M4 12.3C4 10.6198 4 9.77976 4.32698 9.13803C4.6146 8.57354 5.07354 8.1146 5.63803 7.82698C6.27976 7.5 7.11984 7.5 8.8 7.5H11.2C12.8802 7.5 13.7202 7.5 14.362 7.82698C14.9265 8.1146 15.3854 8.57354 15.673 9.13803C16 9.77976 16 10.6198 16 12.3V12.7C16 14.3802 16 15.2202 15.673 15.862C15.3854 16.4265 14.9265 16.8854 14.362 17.173C13.7202 17.5 12.8802 17.5 11.2 17.5H8.8C7.11984 17.5 6.27976 17.5 5.63803 17.173C5.07354 16.8854 4.6146 16.4265 4.32698 15.862C4 15.2202 4 14.3802 4 12.7V12.3Z" stroke="black" stroke-width="1.3" stroke-linejoin="round"/>
<path d="M10 11V14" stroke="black" stroke-width="1.3" stroke-linejoin="round"/>
<path d="M13 7.5V5.40569C13 3.80092 11.6991 2.5 10.0943 2.5V2.5C8.84361 2.5 7.73323 3.30032 7.33772 4.48683L7 5.5" stroke="black" stroke-width="1.3" stroke-linejoin="round"/>
</svg>
