<svg viewBox="0 0 36 36" xmlns="http://www.w3.org/2000/svg"><path d="m36 32c0 2.209-1.791 4-4 4h-28c-2.209 0-4-1.791-4-4v-28c0-2.209 1.791-4 4-4h28c2.209 0 4 1.791 4 4z" fill="#9266cc"/><path d="m5.717 9.156c0-1.55.992-2.418 2.325-2.418s2.325.868 2.325 2.418v17.611c0 1.551-.992 2.418-2.325 2.418s-2.325-.867-2.325-2.418zm7.44.156c0-1.427.992-2.388 2.387-2.388h5.148c6.945 0 10.914 4.465 10.914 11.348-.001 6.511-4.217 10.728-10.605 10.728h-5.395c-1.023 0-2.449-.559-2.449-2.325zm4.65 15.409h3.132c4 0 5.828-2.945 5.828-6.666 0-3.969-1.859-6.852-6.139-6.852h-2.822v13.518z" fill="#fff"/></svg>