<svg viewBox="0 0 36 36" xmlns="http://www.w3.org/2000/svg"><path d="m20.666 19-.467.809h.934zm-2.666 2.618.467-.809h-.934z" fill="#edecec"/><path d="m0 25h36v-14h-36zm.294-17.5h35.413c-.594-1.465-2.029-2.5-3.707-2.5h-28c-1.678 0-3.113 1.035-3.706 2.5z" fill="#eee"/><path d="m21.133 16.191h-.934l.467.809zm-5.332 0h-.934l.467.809zm3.243 3.618 1.045-1.809-1.045-1.809h-2.088l-1.045 1.809 1.045 1.809zm-3.71-.809-.467.809h.934zm2.666-4.618-.467.809h.934z" fill="#edecec"/><path d="m.294 7.5c-.188.464-.294.969-.294 1.5v2h36v-2c0-.531-.106-1.036-.294-1.5z" fill="#0038b8"/><path d="m.294 28.5h35.413c-.594 1.465-2.029 2.5-3.707 2.5h-28c-1.678 0-3.113-1.035-3.706-2.5z" fill="#eee"/><path d="m.294 28.5c-.188-.464-.294-.969-.294-1.5v-2h36v2c0 .531-.106 1.036-.294 1.5zm16.084-7.691 1.622 2.809 1.622-2.809h3.243l-1.621-2.809 1.622-2.809h-3.243l-1.623-2.809-1.622 2.809h-3.243l1.621 2.809-1.622 2.809zm1.622.809-.467-.809h.934zm3.133-5.427-.467.809-.467-.808h.934zm-.467 2.809.467.808h-.934zm-2.666-4.618.467.809h-.934zm-1.044 1.809h2.089l1.044 1.809-1.044 1.809h-2.089l-1.045-1.809zm-1.155 0-.467.809-.467-.808h.934zm-.467 2.809.467.808h-.934z" fill="#0038b8"/></svg>