<svg viewBox="0 0 36 36" xmlns="http://www.w3.org/2000/svg"><path d="m32 5h-28c-2.209 0-4 1.791-4 4v18c0 2.209 1.791 4 4 4h28c2.209 0 4-1.791 4-4v-18c0-2.209-1.791-4-4-4z" fill="#ce1126"/><path d="m3.5 8.5h29v19h-29z" fill="#007a5e"/><path d="m3.5 8.5h29l-29 19h29z" fill="#fcd116"/><circle cx="18" cy="18" fill="#ce1126" r="3.5"/><path d="m18 14.798.719 2.213h2.326l-1.882 1.367.719 2.212-1.882-1.367-1.882 1.367.719-2.212-1.882-1.367h2.326zm0-9.616.386 1.188h1.249l-1.01.734.386 1.188-1.011-.734-1.011.734.386-1.188-1.01-.734h1.249zm8.02 0 .386 1.188h1.249l-1.01.734.386 1.188-1.011-.734-1.01.734.386-1.188-1.011-.734h1.249zm-16.04 0 .386 1.188h1.249l-1.011.734.386 1.188-1.01-.734-1.011.734.386-1.188-1.01-.734h1.249zm8.02 22.5.386 1.188h1.249l-1.01.734.386 1.188-1.011-.734-1.011.734.386-1.188-1.01-.734h1.249zm8.02 0 .386 1.188h1.249l-1.01.734.386 1.188-1.011-.734-1.01.734.386-1.188-1.011-.734h1.249zm-16.04 0 .386 1.188h1.249l-1.011.734.386 1.188-1.01-.734-1.011.734.386-1.188-1.01-.734h1.249z" fill="#fcd116"/><path d="m6.118 19.067c.304.315.645.579.962.712.005-.349-.057-.748-.164-1.148-.268-.251-.572-.464-.868-.577-.043.318-.012.673.07 1.013z" fill="#ce1126"/><path d="m7.643 19.563c.803-2.916-2.06-2.738-2.803-3.67.512 1.068-1.329 3.617 1.739 4.214-.202-.276-.366-.649-.46-1.04-.082-.34-.113-.695-.07-1.013.297.113.6.326.868.577.313.293.578.637.726.932z" fill="#fcd116"/></svg>