<svg viewBox="0 0 36 36" xmlns="http://www.w3.org/2000/svg"><path d="m32 5h-28c-2.209 0-4 1.791-4 4v4.5h36v-4.5c0-2.209-1.791-4-4-4z" fill="#141414"/><path d="m0 27c0 2.209 1.791 4 4 4h28c2.209 0 4-1.791 4-4v-4.5h-36z" fill="#007a3d"/><path d="m0 13.5h36v9h-36z" fill="#eee"/><g fill="#c4111b"><path d="m1.129 6.223c-.696.72-1.129 1.697-1.129 2.777v18c0 1.08.433 2.057 1.129 2.777l10.871-11.777z"/><g><path d="m17.894 18.033c0-1.692 1.213-3.101 2.817-3.405-.211-.04-.428-.062-.65-.062-1.915 0-3.467 1.552-3.467 3.467s1.552 3.467 3.466 3.467c.222 0 .439-.022.65-.062-1.603-.304-2.816-1.712-2.816-3.405z"/><path d="m19.13 20.132 1.478-1.057 1.467 1.073-.548-1.732 1.473-1.063-1.817-.014-.556-1.73-.575 1.724-1.817-.006 1.462 1.079z"/></g></g></svg>