<svg viewBox="0 0 36 36" xmlns="http://www.w3.org/2000/svg"><path d="m36 27c0 2.209-1.791 4-4 4h-28c-2.209 0-4-1.791-4-4v-18c0-2.209 1.791-4 4-4h28c2.209 0 4 1.791 4 4z" fill="#ed1c23"/><path d="m0 17h36v7h-36z" fill="#034ea2"/><path d="m36 17v-8c0-2.209-1.791-4-4-4h-28c-2.209 0-4 1.791-4 4v8z" fill="#fd0"/><path d="m23 19c0 1.104-.896 2-2 2h-6c-1.104 0-2-.896-2-2v-3c0-1.104.896-2 2-2h6c1.104 0 2 .896 2 2z" fill="#fd0"/><path d="m22 18c0 1.104-.896 3-2 3h-4c-1.104 0-2-1.896-2-3v-1c0-1.104.896-2 2-2h4c1.104 0 2 .896 2 2z" fill="#034ea2"/><path d="m21 18c0 1.104-.896 3-2 3h-2c-1.104 0-2-1.896-2-3v-1c0-1.104.896-2 2-2h2c1.104 0 2 .896 2 2z" fill="#ed1c23"/><path d="m19.973 14.135c-.133.488-.961.865-1.973.865s-1.84-.377-1.973-.865c-1.205.172-1.027.493-1.027.865 0 .552.791 1 3 1s3-.448 3-1c0-.372.178-.693-1.027-.865z" fill="#6dbe46"/><path d="m19 19c0 .553-.448 1-1 1s-1-.447-1-1v-3c0-.552.448-1 1-1s1 .448 1 1z" fill="#a6d388"/><path d="m21.5 12c.44 0 .858.052 1.246.137-.623-1.076-2.746-2.137-4.746-.137-2-2-4.123-.939-4.746.137.388-.085.806-.137 1.246-.137 1.933 0 3.5.896 3.5 2 0-1.104 1.566-2 3.5-2z" fill="#662113"/><ellipse cx="18" cy="17.5" fill="#8ed2e7" rx="2" ry="3.5"/><path d="m17.5 17c-.536 0-1.037.13-1.491.345-.001.052-.009.102-.009.155 0 1.933.896 3.5 2 3.5 1.003 0 1.825-1.295 1.97-2.979-.633-.63-1.506-1.021-2.47-1.021z" fill="#6dbe46"/><ellipse cx="18" cy="22" fill="#ffcc4d" rx="3" ry="1"/><path d="m20 23c0 .828-.896 1-2 1s-2-.172-2-1 .896-2 2-2 2 1.172 2 2z" fill="#034ea2"/><path d="m17 23c0-.828.448-2 1-2s1 1.172 1 2-.448 1-1 1-1-.172-1-1z" fill="#ed1c23"/><path d="m17 11c0-.552.448 0 1 0s1-.552 1 0-.448 1-1 1-1-.448-1-1z" fill="#ccd6dd"/><ellipse cx="18" cy="17.5" fill="#fff" rx="1" ry=".5"/><g fill="#c1694f"><ellipse cx="13" cy="15.5" rx="1" ry=".5"/><ellipse cx="14" cy="13.5" rx="1" ry=".5"/><ellipse cx="23" cy="15.5" rx="1" ry=".5"/><ellipse cx="22" cy="13.5" rx="1" ry=".5"/></g></svg>