<svg viewBox="0 0 36 36" xmlns="http://www.w3.org/2000/svg"><path d="m13 5h-9c-2.209 0-4 1.791-4 4v9h13zm-4.663 9.292-1.882-1.367-1.882 1.367.719-2.212-1.882-1.368h2.326l.719-2.212.719 2.212h2.326l-1.882 1.368z" fill="#1f429b"/><path d="m32 5h-19v13h23v-9c0-2.209-1.791-4-4-4z" fill="#eee"/><path d="m0 18v9c0 2.209 1.791 4 4 4h28c2.209 0 4-1.791 4-4v-9z" fill="#d42d27"/><path d="m7.174 10.712-.719-2.212-.719 2.212h-2.326l1.882 1.368-.719 2.212 1.882-1.367 1.882 1.367-.719-2.212 1.882-1.368z" fill="#fff"/></svg>