<svg viewBox="0 0 36 36" xmlns="http://www.w3.org/2000/svg"><path d="m6 31h26c2.209 0 4-1.791 4-4v-4h-30z" fill="#4aa657"/><path d="m32 5h-26v18h30v-14c0-2.209-1.791-4-4-4z" fill="#c8313e"/><path d="m4 5c-2.209 0-4 1.791-4 4v18c0 2.209 1.791 4 4 4h2v-26z" fill="#fff"/><g fill="#c8313e"><path d="m.766 29.188.625-1.109.641 1.141-.542.871c.171.139.351.263.544.372l.792-1.437-1.42-2.276-1.117 1.726c.183.46.451.872.781 1.23zm5.215-.091-1.497-2.222-1.502 2.171 1.286 1.954h.647zm-1.453-1.019.641 1.141-.641 1.031-.625-1.062zm1.472-9.745v-.894l-.313.436zm-3.175-11.307-.894-1.434c-.778.473-1.374 1.199-1.685 2.07l1.285 1.713zm-2.059.162.625-1.109.641 1.141-.641 1.03zm3.851 2.343 1.364-2.435-1.412-2.096h-.171l-1.415 2.046zm.551-2.312-.64 1.031-.625-1.062.625-1.109z"/><path d="m4.953 15 .875-1.453.172.076v-.623l-1.406-2.188-1.688 2.344-1.5-2.406-1.406 2.173v.65l.859 1.427.609-.891-.437-.609.328-.438.953 1.234-1.406 2.312-.906-1.247v1.553l.058-.077.953 1.234-1.011 1.664v1.177l.906-1.248 1.406 2.312-.79 1.024-.163.211-.158-.211-.17-.227.438-.609-.609-.891-.86 1.428v.575l1.438 2.193 1.4-2.469.053-.094.058.094 1.614 2.609 1.437-2.547v-.391l-.125.056-.875-1.454-.61.891.438.609-.17.227-.158.211-.163-.211-.79-1.023 1.406-2.312 1.047 1.441v-1.142l-1.157-1.902.953-1.234.204.272v-1.997l-1.094 1.507-1.406-2.313.953-1.234.328.437-.438.609zm-.668 2.031v1.928l-1.395 2.203-1.314-2.212v-1.908l1.314-2.213z"/><path d="m2.031 16.823.598 1.091-.598 1.091.438.24.445-.811.445.811.438-.24-.598-1.091.598-1.091-.438-.24-.445.811-.445-.811zm-2.005 9.365.625 1.062.641-1.031-.641-1.141zm1.516 0 .625 1.062.64-1.031-.64-1.141zm1.484 0 .625 1.062.641-1.031-.641-1.141zm1.592 0 .625 1.062.64-1.031-.64-1.141zm-4.592-16.063.625 1.063.641-1.032-.641-1.14zm1.516 0 .625 1.063.64-1.032-.64-1.14zm1.484 0 .625 1.063.641-1.032-.641-1.14zm1.592 0 .625 1.063.64-1.032-.64-1.14z"/></g></svg>