<svg viewBox="0 0 36 36" xmlns="http://www.w3.org/2000/svg"><path d="m36 27c0 2.209-1.791 4-4 4h-28c-2.209 0-4-1.791-4-4v-5h36z" fill="#da1c0b"/><path d="m32 5h-28c-2.209 0-4 1.791-4 4v14h36v-14c0-2.209-1.791-4-4-4z" fill="#eee"/><path d="m14.451 10.363v.779h-.778v-.779h-1.557v.779h-.779v-.779h-.778v1.557h.778v3.892h3.114v-3.892h.779v-1.557z" fill="#da1c0b"/><path d="m15.241 14.255v.779h-.779v-.779h-.778v.779h-1.557v-.779h-.779v.779h-.778v-.779h-.778v1.557-.001.001h.778v4.254l-.778.416v.779h6.227v-.779l-.778-.416v-4.254h.778v-1.557z" fill="#da1c0b"/><path d="m12.116 13.477h1.557v1.557h-1.557z"/><path d="m13.673 13.477c0 .43-.348.778-.778.778s-.778-.348-.778-.778.348-.778.778-.778c.43-.001.778.348.778.778zm0 4.903c0-.621-.157-1.125-.778-1.125s-.778.504-.778 1.125v1.325h1.557v-1.325z"/><path d="m24.91 10.363v.779h-.778v-.779h-1.557v.779h-.778v-.779h-.779v1.557h.779v3.892h3.113v-3.892h.78v-1.557z" fill="#da1c0b"/><path d="m25.69 14.255v.779h-.78v-.779h-.778v.779h-1.557v-.779h-.778v.779h-.779v-.779h-.778v1.557-.001.001h.778v4.254l-.778.416v.779h6.227v-.779l-.777-.416v-4.254h.777v-1.557z" fill="#da1c0b"/><path d="m22.575 13.477h1.557v1.557h-1.557z"/><path d="m24.132 13.477c0 .43-.349.778-.778.778-.43 0-.778-.348-.778-.778s.349-.778.778-.778c.429-.001.778.348.778.778zm0 4.903c0-.621-.157-1.125-.778-1.125s-.778.504-.778 1.125v1.325h1.557v-1.325z"/><path d="m20 8v1h-1v-1h-2v1h-1v-1h-1v2h1v5h4v-5h1v-2z" fill="#da1c0b"/><path d="m21 13v1h-1v-1h-1v1h-2v-1h-1v1h-1v-1h-1v9h8v-9z" fill="#da1c0b"/><path d="m17 12h2v2h-2z"/><circle cx="18" cy="12" r="1"/><path d="m19.444 18.298c0-.798-.646-1.445-1.444-1.445s-1.444.647-1.444 1.445v2.167h2.889v-2.167z"/><path d="m18.162 23.349v.133l1.079 1.078-1.079 1.078v4.717h-.348v-.527h-1.191v-.707h.348v.361h.843v-1.049h-.843v.355h-.348v-.702h1.191v-2.45l-1.08-1.076 1.08-1.074v-.137z" fill="#fff100"/><path d="m17.24 24.557.748-.748.748.749-.749.748z" fill="#da1c0b"/><g fill="#fff100"><path d="m18.147 21.32h-.294c-.243 0-.44.3-.44.669v1.338c0 .369.197.669.44.669h.294c.243 0 .44-.3.44-.669v-1.338c0-.369-.197-.669-.44-.669zm.11 2.029c0 .209-.111.377-.247.377s-.248-.168-.248-.377v-1.349c0-.207.111-.375.248-.375s.247.168.247.375z"/><path d="m19.326 20.265c-.107-.06-.25-.058-.318.003l-1.008.909-1.008-.909c-.068-.061-.211-.062-.318-.003-.108.059-.14.156-.072.218l1.232 1.108c.038.034.1.045.166.041.066.004.127-.007.166-.041l1.232-1.108c.069-.062.037-.16-.072-.218z"/></g></svg>