<svg viewBox="0 0 36 36" xmlns="http://www.w3.org/2000/svg"><path d="m32 5h-28c-2.209 0-4 1.791-4 4v18c0 2.209 1.791 4 4 4h28c2.209 0 4-1.791 4-4v-18c0-2.209-1.791-4-4-4z" fill="#039"/><path d="m18.539 9.705.849-.617h-1.049l-.325-.998-.324.998h-1.049l.849.617-.325.998.849-.617.849.617zm0 17.333.849-.617h-1.049l-.325-.998-.324.998h-1.049l.849.617-.325.998.849-.617.849.617zm-8.666-8.667.849-.617h-1.05l-.324-.998-.325.998h-1.049l.849.617-.324.998.849-.617.849.617zm1.107-4.285.849-.617h-1.05l-.324-.998-.324.998h-1.05l.849.617-.324.998.849-.617.849.617zm0 8.619.849-.617h-1.05l-.324-.998-.324.998h-1.05l.849.617-.324.998.849-.617.849.617zm3.226-11.839.849-.617h-1.05l-.324-.998-.324.998h-1.05l.849.617-.324.998.849-.617.849.617zm0 15.067.849-.617h-1.05l-.324-.998-.324.998h-1.05l.849.617-.324.998.849-.616.849.616zm11.921-7.562-.849-.617h1.05l.324-.998.325.998h1.049l-.849.617.324.998-.849-.617-.849.617zm-1.107-4.285-.849-.617h1.05l.324-.998.324.998h1.05l-.849.617.324.998-.849-.617-.849.617zm0 8.619-.849-.617h1.05l.324-.998.324.998h1.05l-.849.617.324.998-.849-.617-.849.617zm-3.226-11.839-.849-.617h1.05l.324-.998.324.998h1.05l-.849.617.324.998-.849-.617-.849.617zm0 15.067-.849-.617h1.05l.324-.998.324.998h1.05l-.849.617.324.998-.849-.616-.849.616z" fill="#fc0"/></svg>