<svg viewBox="0 0 36 36" xmlns="http://www.w3.org/2000/svg"><path d="m36 27c0 2.209-1.791 4-4 4h-28c-2.209 0-4-1.791-4-4v-18c0-2.209 1.791-4 4-4h28c2.209 0 4 1.791 4 4z" fill="#ce1b26"/><path d="m.555 7c-.344.59-.555 1.268-.555 2v18c0 .732.211 1.409.555 2h34.891c.343-.591.554-1.268.554-2v-18c0-.732-.211-1.41-.555-2z" fill="#003e87"/><circle cx="18" cy="18" fill="#fff" r="10"/><circle cx="18" cy="18" fill="#730900" r="9"/><circle cx="18" cy="18" fill="#fff" r="8.743"/><g fill="#007f00"><ellipse cx="18" cy="9" rx=".51" ry=".657"/><ellipse cx="18" cy="27" rx=".51" ry=".657"/><path d="m15.179 26.562c.094-.351.39-.575.662-.503.273.073.417.416.323.767s-.39.575-.663.503c-.272-.074-.416-.417-.322-.767zm4.981-16.623c.272.073.568-.15.662-.501s-.05-.693-.322-.767c-.272-.072-.568.152-.662.502-.094.352.05.694.322.766zm-7.101 15.6c.181-.315.526-.455.77-.315.244.142.294.51.113.824-.181.315-.526.455-.769.315-.245-.141-.296-.509-.114-.824zm9.113-14.766c.244.141.588.001.77-.313s.131-.683-.113-.823c-.244-.141-.588-.001-.77.313-.182.315-.131.683.113.823zm-10.896 13.23c.256-.257.625-.304.825-.104.199.199.152.568-.104.825-.257.257-.625.304-.825.104-.199-.199-.153-.568.104-.825zm12.624-11.903c.199.199.567.152.824-.103.257-.258.303-.626.104-.825s-.567-.153-.824.104c-.257.255-.303.624-.104.824zm-13.949 9.958c.314-.181.683-.13.824.114.141.243 0 .588-.314.77s-.683.131-.824-.113c-.141-.245-.001-.59.314-.771zm15.276-8.23c.141.243.508.295.822.113.315-.182.455-.526.315-.769-.142-.244-.51-.296-.824-.114-.315.181-.455.526-.313.77zm-16.052 6.009c.351-.094.693.05.766.322s-.152.568-.502.663c-.351.094-.693-.051-.766-.323s.151-.568.502-.662zm16.885-3.997c.072.273.414.417.766.323.351-.095.574-.391.502-.663-.073-.271-.416-.416-.766-.322-.351.093-.575.39-.502.662z"/><ellipse cx="9" cy="18" rx=".657" ry=".51"/><path d="m26.344 18c0 .282.293.51.656.51s.656-.228.656-.51-.293-.51-.656-.51-.656.228-.656.51zm-16.906-2.821c.351.094.575.39.503.662-.073.273-.416.417-.767.323s-.575-.39-.503-.663c.074-.272.417-.416.767-.322zm16.622 4.981c-.073.272.15.568.501.662s.693-.05.767-.322c.072-.272-.152-.568-.502-.662-.351-.094-.693.05-.766.322zm-15.599-7.102c.314.181.455.526.314.77-.142.244-.51.295-.824.113-.314-.181-.455-.526-.314-.769.141-.245.509-.296.824-.114zm14.766 9.114c-.141.243-.001.588.313.77s.683.13.823-.113c.141-.244.001-.589-.313-.771-.315-.182-.683-.13-.823.114zm-13.23-10.897c.257.256.304.625.104.825-.199.199-.568.152-.825-.104-.257-.257-.304-.626-.104-.825.199-.199.568-.152.825.104zm11.903 12.625c-.199.199-.152.566.104.824.258.256.626.303.825.104s.153-.568-.104-.824c-.256-.258-.625-.303-.825-.104zm-9.958-13.95c.181.314.13.683-.114.824-.243.141-.588 0-.769-.314-.182-.314-.131-.683.113-.824s.589 0 .77.314zm8.23 15.276c-.243.141-.295.509-.113.823.182.315.526.454.77.314.244-.141.296-.509.114-.823-.182-.315-.527-.455-.771-.314zm-6.009-16.052c.094.351-.05.693-.322.766s-.568-.152-.663-.502c-.094-.351.051-.693.323-.766s.568.152.662.502zm3.997 16.886c-.273.073-.417.415-.323.767.095.35.391.574.663.501.271-.073.416-.415.322-.766-.093-.351-.39-.576-.662-.502z"/></g><path d="m14.96 12.198.992 1.693h1.087l.487.391.3 1.036-1.076-.472 1.004.822-.242.824h.827v-1.463l1.35-.827-.223-.166-1.12.626-.13-.914-.202-.217.688-.849-.355-.144-.52.77-.073-.626.073-.773s-.346-.275-.314-.185 0 .68 0 .68l-.65-.698-.301.12.653.579-.759.566-.921-.253.177-.939h-.189l-.163.885-.163-.754-.236.417m3.487-1.037h.217v.813h-.217zm1.138.163h.271v.433h-.271z" fill="#b34b00"/><path d="m16.16 13.159c.033.082.179.479.179.479l1.045.108.443.455-.174-.522-.269-.604z" fill="#fff"/><path d="m14.981 11.308c.629-.378 1.039.253 1.039.253s.26-.795 1.037-.849c.776-.054.77.289.77.289s.172-.499 1.209-.295c1.038.204 1.006.548.832.692-.174.145-1.745.054-1.745.054s.162.307.18.433c.018.127.578-.234 1.462 0 0 0 .435-.758 1.103-.361.669.398 1.106 1.156.941 1.373-.164.217-1.357.072-1.492-.072 0 0-.242.398-.803.325-.561-.072-1.5-.668-1.5-.668l-.188-.29s-.436-.343-.964-.361c-.528-.017-.896 0-.896 0s-.356.416-.771.47c-.415.055-.848.036-.848.036s-.087-.595.634-1.029z" fill="#289400"/><path d="m15.711 12.464c1.039-.163 1.725 0 1.797.506s-.775.416-.947.434c-.173.018-1.167.361-1.491.343-.325-.018-.994-.343-.506-.812.488-.471 1.147-.471 1.147-.471zm3.979.921c1.022.238 1.504.795 1.268 1.03-.234.234-.837.199-1.385 0s-1.308-.054-1.478-.434c-.171-.379.435-.867 1.595-.596zm-.348 1.301c.776.127.804.812.678.939-.127.126-1.319-.036-1.589-.361-.272-.325.143-.704.911-.578zm-2.886-.344c.968-.366 1.383.055 1.371.434-.011.379-.823.361-1.14.506-.316.145-.894.325-1.092.108-.2-.217.096-.759.861-1.048z" fill="#289400"/><path d="m15.792 24.336c-.27.266-.677.82.197.99.875.17.534-.69.35-.832-.185-.144-.547-.158-.547-.158z" fill="#adadad"/><path d="m16.227 24.584c.018.053.126.307 0 .451-.127.145-.343.254-.542.234 0 0 .849.145 1.029.236.181.088.343-.182.253-.561-.09-.378-.74-.36-.74-.36z" fill="#69f"/><path d="m21.753 22.832c-.47 0-1.102.379-1.102.379s-.289-.289-.759-.037c-.47.254-.74.326-.704.795 0 0-.256.131-.506.199-.397.109-.668.017-.668.017s-.271.092-.668-.017c-.25-.068-.505-.199-.505-.199.036-.469-.235-.541-.705-.795-.47-.252-.759.037-.759.037s-.632-.379-1.102-.379-.885.451-.867.578.235.559.361.775c.126.217.235.344.578.344s1.065-.217 1.065-.217.163.162 1.012.488c.849.324 1.589.307 1.589.307s.74.018 1.589-.307c.849-.326 1.012-.488 1.012-.488s.723.217 1.066.217.451-.127.578-.344c.126-.217.344-.648.361-.775.019-.127-.396-.578-.866-.578z" fill="#eee"/><path d="m15.458 23.27c.346.234 1.068.564 1.383.699 0 0 .112-.305-.167-.48-.279-.178-.684-.338-.881-.416-.199-.079-.335.197-.335.197zm.136 1.066c-.487-.438-.794-.601-1.156-.674-.361-.072-.784.061-.771.338.012.277.358.566.681.529.321-.035 1.246-.193 1.246-.193z" fill="#adadad"/><path d="m15.594 23.373s.018-.342.253-.199c.235.146.163.406.163.406zm-.325.85s-.614-.451-.885-.451c-.272 0-.542.018-.524.225.018.209.38.299.579.334.198.036.83-.108.83-.108z" fill="#69f"/><path d="m20.236 24.336c.271.266.678.82-.196.99-.876.17-.534-.69-.351-.832.186-.144.547-.158.547-.158z" fill="#adadad"/><path d="m19.803 24.584c-.018.053-.127.307 0 .451.126.145.343.254.541.234 0 0-.849.145-1.029.236-.181.088-.343-.182-.252-.561.089-.378.74-.36.74-.36z" fill="#69f"/><path d="m20.571 23.27c-.348.234-1.068.564-1.383.699 0 0-.112-.305.167-.48.279-.178.685-.338.881-.416.199-.079.335.197.335.197zm-.136 1.066c.487-.438.794-.601 1.156-.674.36-.072.783.061.771.338-.013.277-.358.566-.681.529-.323-.035-1.246-.193-1.246-.193z" fill="#adadad"/><path d="m20.435 23.373s-.018-.342-.252-.199c-.236.146-.163.406-.163.406zm.325.85s.614-.451.885-.451.542.018.524.225c-.018.209-.38.299-.578.334-.199.036-.831-.108-.831-.108z" fill="#69f"/><path d="m15.017 23.266c.422.164 1.102.902 0 .434-1.103-.471-.651-.688 0-.434zm1.462.867c.479.131 1.282.27 1.734.27.451 0 .74.471.18.416s-1.716-.176-2.113-.34c-.397-.167-.194-.456.199-.346zm2.854.052c.505-.269 1.463-.865 1.788-.939.325-.072.723-.035.687.127-.036.164-.235.252-.542.289-.308.037-1.301.867-1.933.957-.631.092 0-.434 0-.434z" fill="#d3d3d3"/><path d="m13.047 21.277c.996-.199 5.491-.324 6.773-.162 1.283.162 4.083.94 3.721 1.391-.36.451-1.914.416-2.799.271s-1.229.633-2.728.65c-1.5.018-2.258-.471-2.89-.705s-1.535-.108-2.077.055-2.33-1.029 0-1.5z" fill="#289400"/><path d="m15.359 16.275v3.414c0 1.246.939 2.258 1.327 2.619.389.359 1.328.885 1.328.885s.939-.525 1.327-.885c.389-.361 1.327-1.373 1.327-2.619v-3.414z"/><path d="m15.63 16.492v3.201c0 1.119.843 2.137 1.192 2.461s1.192.795 1.192.795.843-.471 1.191-.795c.349-.324 1.192-1.342 1.192-2.461v-3.201z" fill="#9ed7ff"/><path d="m16.456 21.748h3.118c.122-.154.25-.336.369-.541h-3.856c.118.205.247.387.369.541z" fill="#006ac8"/><path d="m16.456 21.748c.141.178.272.318.367.406.064.06.146.123.235.189h1.915c.09-.066.171-.129.234-.189.095-.088.226-.229.367-.406z" fill="#5ac800"/><path d="m18.015 22.949s.561-.314.957-.605h-1.915c.396.291.958.605.958.605z" fill="#ffd801"/><path d="m15.825 20.664 2.19-1.951v-2.221h-2.385v3.201c0 .338.078.668.195.971z" fill="#fff"/><path d="m20.203 20.664c.118-.303.195-.633.195-.971v-3.201h-2.384v2.221z" fill="#ffd83c"/><path d="m17.703 18.327-.011-.01c-.031-.032-.083-.032-.115 0l-.068.068-.473-.473c.056-.075.062-.167.011-.218l-.958-.941c-.058-.058-.168-.04-.246.039-.077.079-.093.188-.035.245l.958.942c.04.039.104.042.165.016l.483.483-.099.1c-.032.032-.032.083 0 .116l.011.01c.031.031.083.031.115 0l.261-.262c.033-.032.033-.084.001-.115z" fill="#b34b00"/><path d="m16.167 18.817c-.037.049-.107.059-.156.021-.049-.037-.058-.106-.021-.155l1.025-1.339c.037-.049.107-.058.155-.021.049.038.058.107.021.156z" fill="#782121"/><path d="m16.836 17.16.285-.45.6.38-.286.45z" fill="#d3d3d3"/><path d="m20.001 18.656c.041.045.112.049.157.007.045-.041.049-.111.007-.156l-1.137-1.246c-.042-.045-.112-.048-.157-.007s-.049.111-.007.157z" fill="#782121"/><path d="m18.216 17.34.515-.488.367.387-.515.488zm.214.8 1.345-1.292.338.352-1.346 1.291z" fill="#fff"/><path d="m16.687 20.598s.73.336 1.355.351.781-.088.781-.088l-.178.346h-1.523z" fill="#b34b00"/><path d="m16.927 20.551.383.275h1.417l-.192-.937-1.225.058z" fill="#fff"/><path d="m14.221 13.742c.42-.203 1.219-.65 1.341-.718s.325.176.136.258c-.19.081-1.192.677-1.477.812-.284.135 0-.352 0-.352z" fill="#892614"/><path d="m12.758 21.658c-.054.397-.289.795.163.92.451.127.536-.293.413-.67-.124-.377-.576-.25-.576-.25zm1.572-.021c-.072.166-.289.529.144.482.434-.047.705-.043.975 0 .272.045.434-.25.145-.238s-.506-.094-.615-.363c-.108-.268-.649.119-.649.119zm-1.061-4.991-.129-.7s-.365.373-.491.554-.377-.081-.522-.199c-.145-.117-.307-.478-.343-.785s-.398-.487-.271-.704c.126-.217.235-.325.452-.325.216 0 .271.289.271.289s.418.053.253.253c-.406.493-.085.576-.085.576l.246-.305s-.091-.578 0-.686c.091-.109.633-.307.814-.326.181-.018.398-.18.316-.289-.081-.108-.262-.307-.262-.543 0-.234-.082-.74.447-.667.529.072.71.415.565.704s-.216.379-.163.542c.054.163.07.361.423.379s.421.131.475.438.059.465.041.718c-.019.253.001.343.001.343s.324-.063.558-.027c.235.036.723.335.723.335h-1.174l-.09.38s-.127.145-.181.126-.353-.488-.353-.488l-.134.488z" fill="#fbd44d"/><path d="m13.173 16.601c-.198.433-.379 1.372-.343 1.877s.135 1.029-.005 1.498c-.14.471-.338 1.807-.338 1.807l.506.344.56-.361.09-2.113.32-1.046.312.757-.127 2.348.921-.017s-.073-2.168-.091-2.51c-.018-.343-.146-1.391-.19-1.716s-.134-.74-.134-.74z" fill="#d3d3d3"/><path d="m13.21 16.51s.372.102.754.091c.399-.012.809-.137.817-.091.019.091 0 .398 0 .398s-.335-.073-.781 0c-.446.072-.627.054-.79 0s0-.398 0-.398z" fill="#9b5f00"/><path d="m14.09 12.5c.398 0 .571.307.553.632s-.116.416-.116.416.065-.352-.143-.181v-.343s-.452.036-.605 0c-.154-.036-.244-.072-.244-.072l-.063.244s-.209-.244-.01-.479c.199-.234.534-.217.534-.217"/><path d="m11.038 15.449c.184-.271.515-.474.515-.474s.054.067.244 0c.19-.068.176-.122.285-.163.108-.041.095-.163.095-.163s.637-.258.908-.38.583-.311.583-.311l.122.095s0 .203-.108.27c-.109.068-.921.475-.989.529s-.217.108-.217.108-.067-.136-.135-.081c-.068.054-.109.203-.109.203s-.271.122-.434.231c-.163.108-.352.488-.528.569-.178.081-.301-.331-.232-.433z" fill="#892614"/><path d="m14.935 13.282c.099-.095.464-.351.553-.216.088.135.224.88.657.812 0 0-.257.23-.474.338s-.601.136-.601.136-.005-.352 0-.555c.005-.204-.135-.515-.135-.515z" fill="#d3d3d3"/><path d="m19.139 12.32c.149-.068 1.619.718 1.866.826s.396.542.641.637c.243.095.04.257-.108.176-.149-.082-.475-.054-.76-.149-.284-.095-1.806-.906-1.847-1.027-.04-.122.208-.463.208-.463z" fill="#b34b00"/><path d="m23.226 21.658c.054.397.289.795-.163.92-.451.127-.535-.293-.411-.67.121-.377.574-.25.574-.25zm-1.572-.021c.072.166.288.529-.145.482-.434-.047-.704-.043-.976 0-.271.045-.433-.25-.144-.238.288.012.507-.094.614-.363.11-.268.651.119.651.119zm1.061-4.991.129-.7s.29.291.417.472c.126.18.421.2.564.082.146-.117.34-.677.376-.983.035-.307.378-.253.251-.47-.126-.217-.261-.356-.478-.356s-.225.085-.225.085-.276.072-.168.307-.032.55-.032.55l-.215-.184s-.068-.691-.159-.799c-.092-.109-.474-.343-.654-.362-.181-.018-.397-.18-.316-.289.082-.108.262-.307.262-.543 0-.234.083-.74-.446-.667-.529.072-.71.415-.564.704.143.289.121.397.067.56-.055.162.024.343-.329.361-.352.018-.471.204-.525.511s-.008.392.01.645c.019.253-.002.343-.002.343s-.323-.063-.558-.027-.723.335-.723.335h1.174l.091.38s.126.145.181.126.352-.488.352-.488l.135.488z" fill="#892614"/><path d="m22.81 16.601c.198.433.379 1.372.343 1.877s-.136 1.029.005 1.498c.14.471.338 1.807.338 1.807l-.505.344-.56-.361-.09-2.113-.32-1.046-.312.757.127 2.348-.922-.017s.072-2.168.091-2.51c.019-.343.146-1.391.19-1.716.045-.325.135-.74.135-.74z" fill="#d3d3d3"/><path d="m22.773 16.51s-.371.102-.753.091c-.398-.012-.809-.137-.818-.091-.017.091 0 .398 0 .398s.336-.073.782 0c.446.072.627.054.789 0 .164-.054 0-.398 0-.398z" fill="#9b5f00"/><path d="m21.894 12.5c-.396 0-.571.307-.553.632s.111.416.111.416-.078-.352.139-.181v-.343s.456.036.609 0c.154-.036.247-.072.247-.072l.063.244s.208-.244.01-.479c-.199-.234-.533-.217-.533-.217"/><path d="m22.205 13.959 1.484.797s-.197-.001-.193.17c.005.171-1.215-.574-1.215-.574zm2.081 1.192.461.149s.055-.149.189-.075c.136.075-.067.678-.162.668-.095-.011-.203-.16-.217-.281-.014-.122-.42-.285-.42-.285z" fill="#b34b00"/></svg>