<svg viewBox="0 0 36 36" xmlns="http://www.w3.org/2000/svg"><path d="m36 27c0 2.209-1.791 4-4 4h-28c-2.209 0-4-1.791-4-4v-18c0-2.209 1.791-4 4-4h28c2.209 0 4 1.791 4 4z" fill="#eee"/><path d="m13.685 13.068c1.15-1.028 2.662-1.658 4.325-1.658 1.646 0 3.145.617 4.291 1.626l10.833-7.854c-.362-.107-.737-.182-1.134-.182h-28c-.411 0-.8.08-1.174.195z" fill="#ce1126"/><path d="m24.038 15.483c.303.751.473 1.569.473 2.427 0 .928-.198 1.809-.548 2.608l11.544 8.369c.304-.564.493-1.2.493-1.887v-18c0-.67-.181-1.292-.472-1.847zm-11.999 4.994c-.339-.788-.528-1.655-.528-2.566 0-.842.165-1.644.457-2.383l-11.512-8.346c-.282.548-.456 1.16-.456 1.818v18c0 .675.183 1.301.478 1.859z" fill="#1eb53a"/><path d="m22.157 22.916c-1.125.933-2.57 1.495-4.146 1.495-1.593 0-3.051-.575-4.181-1.526l-10.949 7.937c.357.104.728.178 1.119.178h28c.377 0 .734-.069 1.079-.166z" fill="#ce1126"/><path d="m19.077 15.266.317-.548.216-.375h-1.066l-.317-.548-.216-.375-.217.375-.316.548h-1.067l.217.375.316.548-.316.549-.217.375h1.067l.316.548.217.375.216-.375.317-.548h1.066l-.216-.375z" fill="#1eb53a"/><path d="m19.177 14.593h-.777l-.389-.673-.389.673h-.778l.389.673-.389.674h.778l.389.673.389-.673h.777l-.389-.674z" fill="#ce1126"/><path d="m21.928 19.805.317-.549.217-.375h-1.067l-.316-.548-.217-.375-.216.375-.317.548h-1.066l.216.375.317.549-.317.548-.216.375h1.066l.317.548.216.376.217-.376.316-.548h1.067l-.217-.375z" fill="#1eb53a"/><path d="m20.862 18.458-.389.673h-.777l.388.674-.388.673h.777l.389.673.389-.673h.778l-.389-.673.389-.674h-.778z" fill="#ce1126"/><path d="m16.542 20.353-.316-.548.316-.549.217-.375h-1.066l-.317-.548-.217-.375-.216.375-.317.548h-1.066l.216.375.317.549-.317.548-.216.375h1.066l.317.548.216.376.217-.376.317-.548h1.066z" fill="#1eb53a"/><path d="m16.326 19.131h-.778l-.389-.673-.388.673h-.778l.389.674-.389.673h.778l.388.673.389-.673h.778l-.389-.673z" fill="#ce1126"/></svg>