<svg viewBox="0 0 36 36" xmlns="http://www.w3.org/2000/svg"><path d="m32 5h-28c-.205 0-.407.015-.604.045l-.004 1.754-2.73-.004c-.418.632-.662 1.39-.662 2.205v18c0 2.209 1.791 4 4 4h28c2.209 0 4-1.791 4-4v-18c0-2.209-1.791-4-4-4z" fill="#68bfe5"/><path d="m27.646 11.625h-4.875v8.25c0 2.791 4.875 4.354 4.875 4.354s4.875-1.563 4.875-4.354v-8.25z"/><path d="m27.646 24.019c-.555-.191-4.675-1.694-4.675-4.144v-8.05h9.35v8.05c0 2.449-4.12 3.952-4.675 4.144z" fill="#fff"/><path d="m32.321 14.896v-3.071h-9.35v3.071h4.008v3.396h-4.008v1.312h4.008v4.158c.317.132.56.219.667.256.104-.036.338-.12.646-.247v-4.167h4.029v-1.312h-4.029v-3.396z" fill="#d21034"/><path d="m24.184 13.692c0 .275-.257.498-.572.498-.316 0-.572-.223-.572-.498s.256-.498.572-.498c.315 0 .572.223.572.498z" fill="#fff"/><path d="m23.719 13.297c-.326.057-.484-.141-.422-.328s.375-.359.672-.391c.297-.031.578.266.812.281.234.016.359-.114.406-.284s.375-.557.172-.654c.266 0 .266.281.266.281s.297-.297.516-.281c.125.219 0 .531 0 .531s.312-.125.531.016c-.422.062-.484.312-.484.312s.078.203-.031.312.859.312 1.391.156c.531-.156 1.547-.516 2.203-.516s.797.25.953.031-.188-.453-.75-.406-1.516.698-1.891.263c-.094 0-.141.112-.141.112s-.234-.078-.469-.203c-.234-.125-.188.297-.062.359-.391-.016-.378-.268-.378-.268s-.482-.354-.169-.62c.023.485.453.344.688.25.234-.094.531-.016.672.109s.547.234 1.062-.062c.516-.297 1.906-.406 1.922.219s-.688.672-.688.672.078.375.516.297.719-.203.844.141.406.359.313.641c-.094.281-.406.412-.828.339s-.469-.245-.125-.308c.344-.062.406-.328.281-.391s-.359.188-.672.062-.719-.375-.719-.375.016.172-.266.266c-.281.094-.047.203.031.375s-.281.312-.656.39-.656.282-1.016-.156c-.359-.438.094-.562.281-.422s.375.391.531.266-.109-.203-.141-.438c-.031-.234.016-.515.016-.515s-.5.78-1.562.936-1.25.156-1.25.156l-.312-.219-.375.25-.016-.281s-.594.466-.906.538-1.166-.131-1.185-.366c-.019-.234.075-.344.356-.438s.328.062.469.188.297.297.5.125.312-.234.312-.234l.062-.297-.297-.016.109-.343s-.219.046-.375-.095-.172-.281-.312-.234c-.139.048-.03.204-.389.267z" fill="#ffd101"/><path d="m24.469 17.828c-.266.109-.672-.766-.438-1.016.235-.25.703.907.438 1.016zm.515-.109c-.249.022-.156-1.188 0-1.188.157 0 .344 1.157 0 1.188zm.438.191c-.311-.057.156-.785.281-.785s.078.851-.281.785zm4.937.199c-.609.017-.266-.107-.203-.272.062-.166.025-1.4.025-1.4h.35s-.109 1.063 0 1.282c.11.219.391.375-.172.39zm1.203 2.157c.145-.162-.219-.422-.469-.422s-.533.141-.743.734c-.21.594.235.422.349.094s.207-.516.379-.531c.172-.016.234.406.484.125zm-2.39 2.078c-.321-.024-.594.812-.594.812s1.438-.75.594-.812z" fill="#964b36"/><g fill="#00a651"><path d="m24.184 17.125c.078.25-.715-.04-.73.394-.328-.05.141-.691.438-.597-.062-.344-.506-.484-.55.078-.497-.438.136-.859.421-.672-.152-.531-.443-.522-.479-.203-.376-.312.003-.812.329-.578s.35.484.35.484.227-.809.805-.545c-.701.296-.838.826-.584 1.639z"/><path d="m25.004 16.777c-.207-.199-.332-.418-.332-.418s.221.594-.124.844c.015-.547-.36-.734-.157-.953s.547 0 .547 0 .081-.127-.271-.438c-.352-.31-.604-.297-.62-.562.353.21.893.211.957.797.074-.703.391-.719.537-.734s.49.062.615-.062c0 .25-.281.172-.469.25.25.172.266.727.266.727s-.359-.633-.516-.586c-.156.047-.26.516-.26.516s.571-.017.363.75c-.088-.422-.182-.469-.291-.469s-.245.338-.245.338z"/><path d="m25.541 17.307c.021-.292.162-.792.318-.831.052-.32.219-.773.562-.851.344-.078.422.281.344.484-.203-.297-.484-.375-.547.328.297-.078.469.156.391.469-.281-.328-.484-.367-.609-.129.328.129.334.41.167.645-.073-.406-.29-.375-.405 0-.116.374-.221-.115-.221-.115zm4.754-.53c-.357 0-.826.369-.857.942-.375-.563.084-1.188.565-1.407-.847.016-1.159.391-1.268.703-.109-.828.943-1.156 1.268-1.016-.206-.359-1.018-.329-1.425-.032 0-.687 1.215-.852 1.717-.231-.061-.503.143-.628.143-.628v.672s1.131-1.062 1.753.219c-1.003-.516-1.491.016-1.491.016s1.039-.25.896.953c-.33-.734-1.018-.656-1.018-.656s.797.36.484 1.25c-.312-.859-.767-.785-.767-.785z"/></g><path d="m29.531 20.688c-.047-.469.547-.734.547-.734s1 .609 1.141.734-.086.648-.52.785c-.433.136-1.168-.785-1.168-.785z" fill="#fff202"/><path d="m29.256 22.355c-.235-.148-.385-.98 0-1.059-.146-.5.166-.75.275-.781s.514.152.819.443c.306.291.571.361.595.475.024.113-.191.457-.56.488.115.345-.764.665-1.129.434z" fill="#00a651"/><path d="m24.047 20.407s.234-.095.375-.235.328-.141.484.117.271.586.271.586-.053-.469.432-.719.558-.312.558-.312l-.167.668s.578-.355.672-.559c.125.797-.469 1.367-.844 1.52.203.34.109.621.109.621l.688.562-.75.234-.334-.719s-.867.031-.993-.625.173-1.008 0-1.035-.501-.104-.501-.104z"/><path d="m25.604 22.069-.067.003c-.146 0-.791-.028-.89-.544-.066-.343-.01-.597.028-.765.028-.129.047-.214-.001-.284l-.024-.036-.086-.03c-.063-.01-.148-.027-.23-.045.056-.035.112-.078.159-.126.03-.029.076-.065.128-.065.065 0 .137.058.2.163.149.246.262.565.263.567l.194-.044c-.002-.017-.036-.405.378-.619.157-.081.271-.143.355-.189l-.167.67.209-.129c.07-.044.345-.216.535-.391-.021.639-.533 1.066-.798 1.174l-.107.044.06.101c.175.292.103.528.101.538l-.021.065.596.488-.489.153z" fill="#fff"/><path d="m24.255 20.299c-.114-.267-.114-.267-.294-.346-.008.172 0 .281 0 .281s-.101-.328-.258-.281c-.094.375.242.454.242.454s-.148.048-.133.312c.266.108.234-.126.234-.126s-.055.24.137.378c.129-.205.072-.672.072-.672z" fill="#00a651"/><path d="m19 18v-13h-15c-.32 0-.604.045-.604.045l-.004 1.754-2.73-.004s-.042.059-.127.205c-.34.589-.535 1.272-.535 2v9z" fill="#00247d"/><path d="m19 5h-2.331l-4.669 3.269v-3.269h-5v2.569l-3.604-2.524c-.614.094-1.19.325-1.672.665l4.702 3.29h-1.736l-3.723-2.609c-.11.129-.211.262-.305.404l3.151 2.205h-3.813v5h3.885l-3.885 2.766v1.234h3.332l3.668-2.568v2.568h5v-3.269l4.668 3.269h2.332v-2.029l-2.815-1.971h2.815v-5h-2.814l2.814-1.971z" fill="#eee"/><path d="m11 5h-3v5h-8v3h8v5h3v-5h8v-3h-8z" fill="#cf1b2b"/><path d="m19 5h-1.461l-5.539 3.879v.121h1.571l5.429-3.802zm-17.276.71c-.281.195-.534.423-.757.681l3.723 2.609h1.735zm4.713 8.29-5.703 4h1.727l4.539-3.178v-.822zm12.563 3.802v-1.22l-3.687-2.582h-1.743z" fill="#cf1b2b"/></svg>