<svg viewBox="0 0 36 36" xmlns="http://www.w3.org/2000/svg"><path d="m36 27c0 2.209-1.791 4-4 4h-28c-2.209 0-4-1.791-4-4v-18c0-2.209 1.791-4 4-4h28c2.209 0 4 1.791 4 4z" fill="#fc0"/><path d="m4 5c-2.209 0-4 1.791-4 4v18c0 2.209 1.791 4 4 4h8v-26z" fill="#eee"/><path d="m12 5h12v26h-12z" fill="#0868a9"/><path d="m21.021 16.3c-.278-.29-.614 0-.762-.088-.146-.088-.336-.154-.321.154s.249.45.381.553.059.408.059.408-.22-.25-.308-.411-.161-.308-.322-.308-.322.219-.22.307c.103.088.469.176.469.41s.146.469.146.469l-.044.161s-.146-.073-.19-.161.044-.366-.161-.366-.264.454-.132.527.513.498.513.498.16.307.409.454c.249.146.572.469.572.469s-.425.308-.454.498c-.029.189.146.263.131.425-.015.16-.204.078-.365.166-.162.088.003.312.003.312h.44l.217-.405v-.294l.464-.103s-.042.176.046.278c.088.104.426.249.426.498s-.131.257-.278.271c-.146.016-.219.186-.219.186h.572s.16-.375.249-.55c.087-.177.028-.298-.074-.343-.103-.044-.204-.273-.175-.463 0 0 .204.164.439.12.234-.044.439-.241.454-.489.015-.25 0-.495-.234-.582s-.189.164-.103.236c.088.073.088.396-.029.47s-.307.162-.366-.043-.186-.526-.436-.614c-.249-.088-.589-.645-.574-1.04.012-.394.114-1.259-.223-1.61zm-6.061 0c.278-.29.615 0 .761-.088s.337-.154.322.154-.249.45-.38.553c-.132.103-.059.408-.059.408s.22-.25.308-.411.161-.308.322-.308.322.219.22.307c-.103.088-.469.176-.469.41s-.146.469-.146.469l.044.161s.146-.073.19-.161-.044-.366.161-.366.264.454.132.527-.513.498-.513.498-.161.307-.41.454c-.249.146-.571.469-.571.469s.425.308.454.498c.029.189-.146.263-.132.425.015.16.205.078.366.166s.118.307.118.307h-.441l-.336-.399v-.294l-.456-.103s.038.176-.05.278c-.088.104-.428.249-.428.498s.13.257.277.271c.146.016.218.186.218.186h-.571s-.162-.375-.249-.55c-.088-.177-.03-.298.073-.343.102-.044.205-.273.176-.463 0 0-.205.164-.439.12s-.439-.241-.454-.489c-.015-.25 0-.495.234-.582s.191.164.103.236c-.088.073-.088.396.029.47s.308.162.366-.043c.059-.205.186-.526.436-.614.249-.088.589-.645.575-1.04-.016-.395-.118-1.26.219-1.611z" fill="#c09b5a"/><path d="m21.226 17.245c-.213.036-.555.009-.805-.007-.088-.005-.122.249-.059.264.196.045.713.076.875-.018.061-.036.084-.255-.011-.239z" fill="#8c8d8f"/><path d="m20.176 16.169s-.086.131-.239.154c0 0-.017-.124.072-.172.09-.048.167.018.167.018zm.354.219c-.128-.026-.227.051-.103.095.126.044.183-.079.103-.095zm.55.3s-.015.468-.27.461c-.257-.007-.154-.402 0-.571 0 0-.185.47-.016.483.169.015.286-.373.286-.373z"/><path d="m14.754 17.245c.213.036.555.009.806-.007.088-.005.122.249.058.264-.196.045-.712.076-.875-.018-.061-.036-.084-.255.011-.239z" fill="#8c8d8f"/><path d="m15.805 16.169s.085.131.239.154c0 0 .017-.124-.072-.172-.09-.048-.167.018-.167.018zm-.355.219c.129-.026.227.051.103.095-.125.044-.183-.079-.103-.095zm-.549.3s.015.468.271.461.154-.402 0-.571c0 0 .184.47.015.483-.17.015-.286-.373-.286-.373z"/><path d="m18.757 15.138s-.296-.285-.616-.212l-.069-.046.006-.313h-.146l.007.313-.069.046c-.319-.072-.616.212-.616.212-.475-.19-.933.123-.933.484s.274.524.332.587c.059.064.374.847.374.847h1.955s.316-.783.375-.847c.059-.063.332-.227.332-.587.001-.361-.457-.675-.932-.484z" fill="#ebd11b"/><path d="m17.815 15.451v.234l-.163.182s-.158.014-.231-.04c-.072-.055-.136-.186-.136-.186s.167-.113.265-.141c.098-.027.265-.049.265-.049zm-.588.267s-.027.19-.168.24c-.14.05-.28.027-.28.027s.036-.099.153-.181c.118-.081.295-.086.295-.086z" fill="#be1827"/><path d="m17.507 15.247c.146-.035.308 0 .308 0s-.003.207-.194.237c-.19.03-.267-.056-.267-.056s.04-.154.153-.181zm-.903.394c-.052-.25.292-.342.464-.151 0 0 .034.259-.168.338-.203.08-.275-.088-.296-.187zm.467-.349c.043-.096.237-.008.179.095-.06.105-.254.069-.179-.095z" fill="#0868a9"/><path d="m17.112 15.537c.091-.095.227.094.115.144-.113.051-.185-.072-.115-.144z" fill="#0868a9"/><path d="m18.167 15.451v.234l.177.182s.166.014.238-.04c.072-.055.139-.186.139-.186s-.18-.113-.277-.141c-.097-.027-.277-.049-.277-.049zm.617.267s.027.19.167.24c.141.05.281.027.281.027s-.036-.099-.154-.181c-.117-.081-.294-.086-.294-.086z" fill="#be1827"/><path d="m18.503 15.247c-.145-.035-.307 0-.307 0s.003.207.194.237c.19.03.268-.056.268-.056s-.041-.154-.155-.181zm.903.394c.052-.25-.292-.342-.464-.151 0 0-.034.259.169.338.202.08.275-.088.295-.187zm-.466-.349c-.044-.096-.237-.008-.179.095.059.105.255.069.179-.095z" fill="#0868a9"/><path d="m18.898 15.537c-.09-.095-.226.094-.114.144.112.051.184-.072.114-.144z" fill="#0868a9"/><path d="m17.028 16.916c0-.186.431-.337.963-.337s.963.151.963.337-.431.337-.963.337c-.533-.001-.963-.152-.963-.337z" fill="#be1827"/><path d="m17.999 16.854h-1.874v3.063c0 1.207 1.875 1.207 1.875 1.207s1.854 0 1.854-1.207v-3.063z" fill="#020202"/><path d="m17.998 17.057h-1.661v2.861c0 .995 1.661.98 1.661.98s1.661.015 1.661-.98v-2.861z" fill="#4c86c7"/><path d="m20.364 14.738c.242-.088.44-.42.44-.42s-.39.049-.635 0-.427-.225-.427-.225c.177-.312-.113-.501-.669-.567-.43-.05-1.076-.068-1.076-.068s-.657.018-1.088.068c-.555.065-.851.254-.675.567 0 0-.185.176-.43.225s-.635 0-.635 0 .196.332.439.42c0 0-.069.225-.372.273 0 0 .635.107 1.093-.087.459-.195.713-.361.781-.43.069-.068-.181-.224.004-.244.186-.019.882-.039.882-.039s.685.02.871.039c.186.02-.077.176-.008.244.068.068.322.234.781.43.459.195 1.093.087 1.093.087-.3-.048-.369-.273-.369-.273z" fill="#a5a7a9"/><path d="m18.557 20.547h-1.132l.566-.567zm-.82-1.874h-1.133l.567-.567zm0-.879h-1.133l.567-.566zm0 1.815h-1.133l.567-.565zm1.581-.936h-1.132l.566-.567zm0-.879h-1.132l.566-.566zm0 1.815h-1.132l.566-.565z" fill="#fff"/></svg>