<svg viewBox="0 0 36 36" xmlns="http://www.w3.org/2000/svg"><path d="m32 5h-28c-.205 0-.407.015-.604.045l-.004 1.754-2.73-.004c-.418.632-.662 1.39-.662 2.205v18c0 2.209 1.791 4 4 4h28c2.209 0 4-1.791 4-4v-18c0-2.209-1.791-4-4-4z" fill="#00247d"/><path d="m26.656 10c-.135-.104-.344-.234-.641-.406s-.359-.531-.219-.797c.141-.266.475-.359.393-.109-.081.25-.169.557 0 .583s.122-.333.278-.317-.156.578 0 .594.109-.5.281-.438.141.516 0 .547.018.234.119.343c.102.109-.07.108-.211 0zm.799 0c.135-.104.344-.234.641-.406s.359-.531.219-.797c-.141-.266-.475-.359-.394-.109s.169.557 0 .583-.122-.333-.278-.317.156.578 0 .594-.109-.5-.281-.438-.141.516 0 .547-.016.234-.117.344c-.102.108.07.107.21-.001z" fill="#cdad57"/><path d="m26.917 10.875c.091-.348-.021-.687-.292-.583s-.521-.062-.479-.146.355-.333.771-.333.957.229.916.333-.5.198-.5.198.063.406.834.406 1.416.188 1.271 1.125-.188 1.062-.312 1.021-.146-.354-.083-.625-.104-.646-.188-.375-.251.792-.459.833.083-.792.062-.979-.5-.146-.521.146.037.771-.138.896-.195-.292-.175-.583-.187-.75-.208-.354-.042.896-.229.958 0-.479-.062-.812-.312-.73-.208-1.126z" fill="#923f00"/><path d="m27.516 15.609c-.266.25-1.266.812-1.656-.109.938.375 1.491-.438 1.491-.438zm-1.375-2.218c-.415-1.282-1.344-1.391-1.344-1.391s-.047.406.156.695c-.67-.062-1.328-.367-1.328-.367-.188.531.938 1.094 1.625 1.062-.328.328-.016.61.297.665-.156-.383.344-.639.453-.339s.141-.325.141-.325z" fill="#fff"/><path d="m26.312 15.597c-.843.091-1.442-1.203-1.439-1.587.503.147.909.491.909.491s.133-1.142.238-1.422c.418.313.527 1.188.387 1.594.459.022.547.406.406.688-.219-.314-.451-.017-.501.236z" fill="#1500ff"/><path d="m28.745 15.609c.266.25 1.266.812 1.656-.109-.938.375-1.491-.438-1.491-.438zm1.375-2.218c.415-1.282 1.344-1.391 1.344-1.391s.047.406-.156.695c.67-.062 1.328-.367 1.328-.367.188.531-.938 1.094-1.625 1.062.328.328.016.61-.297.665.156-.383-.344-.639-.453-.339-.11.3-.141-.325-.141-.325z" fill="#fff"/><path d="m29.949 15.597c.843.091 1.442-1.203 1.44-1.587-.503.147-.909.491-.909.491s-.133-1.142-.238-1.422c-.418.313-.527 1.188-.387 1.594-.459.022-.547.406-.406.688.218-.314.449-.017.5.236z" fill="#1500ff"/><path d="m28.203 17.406c-1.297 0-1.75-.594-1.625-1s.562-.188.703-.297.141-.828-.188-1.156c-.328-.328-.531-.672-.391-.844-.188-.312.107-.453.194-.812s.18-.694.316-.734c.137-.04.208.297.255.234.047-.062.1-.344.331-.359.231-.016.2.234.278.297.078.062.141-.29.359-.297.219-.008.281.297.375.313s.125-.225.312-.188.125.516.25.719.391.594.234.828c.219.156-.016.438-.281.641-.266.203-.578.703-.391 1.266.172.375.828-.016.984.219.16.233.098 1.17-1.715 1.17z" fill="#656263"/><path d="m26.559 13.891c0-.375 1.004-.5 1.566-.5s1.594.13 1.594.5-.785 0-1.58 0-1.58.359-1.58 0z" fill="#fff"/><path d="m27.588 13.423c-.176.02-.353.051-.511.093-.052.169-.022.353.069.493.151-.025.321-.055.503-.08-.105-.124-.147-.306-.061-.506zm.49-.031v.502c.021-.001.04-.003.061-.003.192 0 .383.022.563.05.056-.062.095-.133.095-.218 0-.119-.073-.219-.17-.304-.182-.02-.534-.027-.549-.027zm.97.606c.392.07.671.112.671-.108 0-.194-.285-.321-.636-.398.058.072.104.149.104.231.001.116-.065.204-.139.275z" fill="#1500ff"/><path d="m26.662 14.286c.041-.176 1.477.808 1.477.808s1.519-1.061 1.534-.917-1.534 1.182-1.534 1.182-1.518-.897-1.477-1.073z" fill="#adb0b2"/><path d="m26.688 18.438c-.688.656-3.438 3.031-3.594 3.531s.172.625.656.297c-.172.391.047.547.156.562.109.016.562-.141.75-.547.203.328.719.375.812.312.094-.062.141-.172.141-.172s.09.471.264.407c.174-.063.328-.313.439-.298.11.016-.007.234.247.219.254-.016.357-.125.493-.266s.354.062.464.031c.109-.031.219-.703.391-1.188.171-.482-1.219-2.888-1.219-2.888z" fill="#6a4c2d"/><path d="m29.188 20.875c.459.104.969-.021 1.214.125s.432.271.786.292 1.021-.291 1.167 0 .333.708.521.771.896.291.188.333-2.291 0-2.291 0l.188.25-1.386.084s-.813-.709-.776-1.209.389-.646.389-.646z" fill="#fff"/><path d="m27.516 20.875c-.565.342-.302.771-.302.771s.091.584.137.521c.046-.062.299-.271.299-.271s-.044.466-.037.447.309.001.309.001.11.409.157.491.308-.189.308-.189.25.16.359.205.151-.288.151-.288.296.378.486.272c.19-.105.43-.418.43-.418l-.354-.312s.062-.082 0-.239-.291-.22-.291-.22.229-.166.062-.271-.783-1.063-1.714-.5z" fill="#00713d"/><path d="m30.065 16.984-.287-.002-1.511 1.018-1.512-1.018-.25.001-.13.001v2.219c0 .193.034.497.146.833.088.265.226.548.441.82.105.133.232.26.375.382.198.168.443.317.729.446.069.031.127.069.202.097.078-.029.138-.068.209-.101.285-.13.53-.279.728-.447.149-.127.281-.26.388-.398.215-.278.334-.572.431-.833.118-.317.136-.613.136-.8v-2.219z" fill="#fff"/><path d="m30.161 17.921-.408-.53.313-.407-.287-.002-1.512 1.018-1.512-1.018-.25.001.313.407-.443.576v.036l.429.557-.429.557v.036l.413.537-.267.347c.088.265.226.548.441.82l.387-.503.335.434-.347.45c.198.168.443.317.729.446l.207-.269.204.265c.285-.13.53-.279.728-.447l-.343-.445.347-.451.384.499c.215-.278.346-.566.431-.833l-.242-.314.378-.491v-.127l-.394-.511.394-.511zm-.582.638-.37.481-.37-.481.37-.481zm-.724 1.129.354-.461.354.461-.354.461zm-1.149-1.129-.357.464-.357-.464.357-.464zm-.699 1.129.342-.444.342.444-.342.444zm.909 1.1.356-.463.356.463-.356.463z" fill="#1e5aa6"/><path d="m28.268 17.25c-.403-.246-1.011-.269-1.513-.268l1.506 4.234c0 .018.012.018.012 0l1.506-4.234c-.502-.001-1.11.022-1.511.268z" fill="#016c00"/><path d="m23.922 17.641c.036-1 .203-1.5.188-1.891s.328-.391.594-.469.391.141.609.156c.219.016.344.047.281.312s-.266.608-.312.703c-.047.094.266.688.516 1.188s.609 1.141.344 2.141c-.266 1-.422 1.359-.531 1.438-.109.078-.025-.656-.122-1s-.222-.422-.222-.422-.422.398-.578.902-.031.871.266 1.078.969.332 1.078.395c.109.062-.219.203-.672.172s-1.525-.412-1.927-.839c-.401-.427-.949-1.125-.636-1.896.172-.422.5-.562.609-.703.109-.14.504-.966.515-1.265z" fill="#8b9497"/><path d="m31.531 15.601c.341-.047 1.188 2.133 1.281 3.071.094.938.078 2.625-.484 2.688-.562.062-1.068-.156-1.245-1.094s-.042-1.656 0-2.266-.052-2.329.448-2.399z" fill="#fff"/><path d="m31.389 15.601c.024-.4.408-.539.861-.46.453.078.422.781.406 1.109s.711.25.715 2.016-.496 2.766-.356 3.016c.141.25.781.578.422.641s-.812-.312-1.125-.422.027-.547.154-1.078.064-1.111-.201-1.04c-.266.071.109 1.36-.328 1.317-.438-.043-.672-1.009-.625-1.893s.219-.947.469-1.228.094-.406-.172-.703-.172-.531.109-.688c.282-.157-.363-.048-.329-.587z"/><path d="m30.994 17.109c-.375.031-.76.141-.76.297s-.016.672 0 .734.531-.265.76-.25z" fill="#fff"/><path d="m31.531 15.601c.092-.483-.781-.023-.828.102s.735.39.828-.102z" fill="#f66b01"/><path d="m31.797 15.359c.047-.14 1.094-.312 1.266-.297s.162-.022.115.057c-.017.028-.515.096-.521.145-.014.087.439.032.516.095.051.042-.504.037-.41.106.125.093.598.305.459.253-.242-.09-1.502-.131-1.425-.359z" fill="#f8f001"/><path d="m31.63 21.233c-.233.043-.958-.011-.708.136.25.146.328.162.328.162s-.449.164-.256.246.637.031.931.025.51-.171.388-.303-.334-.329-.683-.266z" fill="#f66b01"/><path d="m25.054 25.078c.562.109 1.297.344 1.297.344l-.094 1.016s-.234-.344-1.469-.562c-.141-.407.266-.798.266-.798zm.187-1.703s.016.328-.422.703-.937.344-.906-.078c.422-.109.312-.946.663-1.054-.038.351.103.585.665.429zm6.473 1.703c-.562.109-1.297.344-1.297.344l.094 1.016s.234-.344 1.469-.562c.14-.407-.266-.798-.266-.798z" fill="#c11600"/><path d="m31.464 24.188c.359-.391.609-.375.797-.75s-.094-.672-.578-.583-.984.864-.984.864-.921-.547-2.314-.547c-1.394 0-2.315.547-2.315.547s-.5-.775-.984-.864-.766.208-.578.583.438.359.797.75c-.578.391-1.047 1.172-1.047 1.172l.531.516s.297-.5.922-1.016c.547.625.547 1.578.547 1.578s.164-.672.418-.891c-.012-.609-.184-1.062-.184-1.062s.816-.5 1.893-.5c1.076 0 1.893.5 1.893.5s-.172.453-.184 1.062c.254.219.418.891.418.891s0-.953.547-1.578c.625.516.922 1.016.922 1.016l.531-.516c-.001-.001-.47-.782-1.048-1.172z" fill="#ffbc00"/><path d="m31.526 23.375s-.016.328.422.703.938.344.906-.078c-.422-.109-.312-.946-.663-1.054.038.351-.102.585-.665.429z" fill="#c11600"/><path d="m19 18v-13h-15c-.32 0-.604.045-.604.045l-.004 1.754-2.73-.004s-.042.059-.127.205c-.34.589-.535 1.272-.535 2v9z" fill="#00247d"/><path d="m19 5h-2.331l-4.669 3.269v-3.269h-5v2.569l-3.604-2.524c-.614.094-1.19.325-1.672.665l4.702 3.29h-1.736l-3.723-2.609c-.11.129-.211.262-.305.404l3.151 2.205h-3.813v5h3.885l-3.885 2.766v1.234h3.332l3.668-2.568v2.568h5v-3.269l4.668 3.269h2.332v-2.029l-2.815-1.971h2.815v-5h-2.814l2.814-1.971z" fill="#eee"/><g fill="#cf1b2b"><path d="m11 5h-3v5h-8v3h8v5h3v-5h8v-3h-8z"/><path d="m19 5h-1.461l-5.539 3.879v.121h1.571l5.429-3.802zm-17.276.71c-.281.195-.534.423-.757.681l3.723 2.609h1.735zm4.713 8.29-5.703 4h1.727l4.539-3.178v-.822zm12.563 3.802v-1.22l-3.687-2.582h-1.743z"/></g></svg>