<svg viewBox="0 0 36 36" xmlns="http://www.w3.org/2000/svg"><path d="m32 5h-28c-.205 0-.407.015-.604.045l-.004 1.754-2.73-.004c-.418.632-.662 1.39-.662 2.205v18c0 2.209 1.791 4 4 4h28c2.209 0 4-1.791 4-4v-18c0-2.209-1.791-4-4-4z" fill="#00247d"/><path d="m23.278 22.656c.276-.516.468-1.031.692-1.188.225-.156 1.484-.031 1.729.25s.12 1.734-.364 2.547c-.484.812-1.387 1.125-1.725 1.062s-.557-.672-.619-.891.144-.297.619-.156 1.178-1.062 1.162-1.5c-.406-.297-.762-.062-.92.297-.157.361-.574-.421-.574-.421z" fill="#ba6747"/><path d="m22.648 23.703c.066.291.338.982.63 1.366-.142-.852.495-.585.448-.241.219.062-.059-.484-.115-.797-.057-.312-.01-.922-.525-.891-.516.032-.485.354-.438.563z" fill="#d7a896"/><path d="m32.612 22.656c-.276-.516-.468-1.031-.692-1.188-.225-.156-1.484-.031-1.73.25-.245.281-.12 1.734.364 2.547.484.812 1.387 1.125 1.725 1.062.338-.062.549-.672.611-.891s-.144-.297-.619-.156-1.17-1.062-1.154-1.5c.406-.297.762-.062.92.297.158.361.575-.421.575-.421z" fill="#ba6747"/><path d="m32.909 23.453c.073-.312-.297-.797-.531-1.263-.954 1.792-3.47 2.025-4.433 2.028-.963-.003-3.478-.236-4.433-2.028-.234.466-.604.95-.531 1.263.073.312 2.337 1.938 4.948 1.951v.002l.016-.001.016.001v-.002c2.611-.013 4.875-1.639 4.948-1.951z" fill="#e9cfc6"/><path d="m33.242 23.703c-.066.291-.338.982-.63 1.366.142-.852-.495-.585-.448-.241-.219.062.059-.484.115-.797.057-.312.01-.922.525-.891.516.032.486.354.438.563z" fill="#d7a896"/><path d="m27.958 10.646h-4.688v6.5c0 5.708 4.688 6.958 4.688 6.958s4.688-1.25 4.688-6.958v-6.5z" fill="#fff"/><path d="m27.957 23.703c-.517-.155-4.354-1.481-4.354-6.55v-6.113h8.709v6.113c0 5.022-3.872 6.398-4.355 6.55z" fill="#0072c4"/><path d="m26.094 16.688c.109-.438.188-1.047-.078-1.141s-.736-.375-.892-.875c-.155-.5-.077-1.656-.218-1.734s-.562.109-.812-.203-.094-.423.078-.532.656-.359.625-.453.031-.243.327-.344c.548-.188.985.297 1.157.484.172.188.625.438.828.453.203.016 2.656.047 2.938.078.281.031 1 .219.938 1.078s-.184 1.688-.303 1.844-.197.203-.197.203.125.688.109.812c-.016.125-.234.172-.25-.047s-.094-.734-.094-.734l-.422-.077s.016.75-.125.969-.5.078-.406-.078.141-.297.141-.484-.047-.469-.141-.5-.562.156-.906.156-1.109-.219-1.25-.094-.328.766-.422 1.125-.25.141-.234-.031.078-.75-.016-.656-.062.531-.125.672c-.063.14-.25.109-.25.109z" fill="#fff"/><path d="m24.984 15.906s.203 1.166.969 1.672 3.979.375 4.531-.016c.553-.391 1.062-1.344 1.062-1.344s-.453 0-.609-.172c-.453.25-.719.141-.812-.016-.359.359-.328.141-.375.031-.312.359-.766.141-.906.016-.312.203-.781.078-.875-.047-.359.312-.891.234-1 .094-.234.391-.578.25-.766.125-.266.25-.375-.031-.469-.203-.218.376-.578.11-.75-.14z" fill="#015121"/><path d="m23.422 17.375s.484.062.859-.281c.375-.344 1.016-.516 1.484 0 .469.516 1 .5 1.406.078s1.016-.622 1.594-.045 1.078.33 1.422 0 1.062-.545 1.531 0 .797.249.797.249l-.203 1.438s-.141.031-.578-.344c-.438-.375-1.047-.516-1.484-.047-.438.469-1.094.484-1.562.031-.469-.453-1.016-.406-1.422-.047s-1.109.531-1.672 0c-.562-.531-1.047-.266-1.328.016-.281.281-.662.391-.662.391zm.481 2.565c.124-.042.257-.11.378-.222.375-.344 1.016-.516 1.484 0 .469.516 1 .5 1.406.078s1.016-.622 1.594-.045c.578.576 1.078.329 1.422 0 .344-.33 1.062-.546 1.531 0 .094.108.182.183.263.234.081.311-.359 1.018-.419.979-.415-.272-.93-.329-1.312.081-.438.469-1.094.484-1.562.031-.469-.453-1.016-.406-1.422-.047s-1.109.531-1.672 0c-.486-.46-.915-.322-1.203-.095-.045.038-.746-.905-.488-.994zm1.221 2.049c.223.014.447.109.642.323.469.516 1 .5 1.406.078s1.016-.622 1.594-.045c.578.576 1.078.329 1.422 0 .125-.12.3-.226.494-.284-.644.924-2.479 1.861-2.724 1.86-.248 0-2.239-.874-2.834-1.932z" fill="#fff"/><path d="m24.703 12.094c.078-.172.342-.125.421 0s-.499.172-.421 0z"/><path d="m23.846 19.719c-.095.115 1.201.682 1.201.682s.115.615.219.537.547.007.547.007.106 1.837 2.156 1.837 2.601-1.963 2.601-1.963.74.009.827.054-.178-.243-.068-.472c.109-.229.375-.494.219-.557-.156-.062-1.812.391-1.812.391s.031 1.484-1.766 1.484-1.562-.969-1.562-.969-2.416-1.21-2.562-1.031z" fill="#dd8b59"/><path d="m26.484 21.322c0 .048-.038.086-.086.086s-.086-.038-.086-.086v-3.955c0-.047.038-.086.086-.086s.086.038.086.086zm1.485.483c0 .039-.031.07-.07.07s-.07-.031-.07-.07v-4.719c0-.039.031-.07.07-.07s.07.031.07.07zm1.547-.258c0 .043-.035.078-.078.078s-.078-.035-.078-.078v-4.188c0-.043.035-.078.078-.078s.078.035.078.078z" fill="#dd8b59"/><path d="m25.875 18s.141.281.609.156c.469-.125.484-.516.484-.516zm2.578-.625-1.062.266s.109.347.508.267c.398-.08.554-.533.554-.533zm.469.5s.25.297.594.188.562-.516.562-.516zm-1.797.313-1.34.368s-.129.24-.082.49.172.484.172.484.125-.312.438-.375.531.188.531.188-.12-.572.281-1.155zm.266 0s-.273.155-.266.625c.004.257.266.581.266.581s.141-.253.438-.347.625.172.625.172-.123-.379-.078-.672.25-.638.25-.638zm1.437.234s-.094.204-.094.438.188.671.188.671.094-.328.438-.406.531.156.531.156-.115-.231-.065-.569c.05-.337.394-.625.394-.625zm-1.937 1.031-1.171.219s.14.375.585.328.586-.547.586-.547zm1.625-.059s-1.125.061-1.125.138c0 .076.109.359.484.297s.641-.435.641-.435zm1.453.059-1.109.248s.156.283.555.205c.397-.078.554-.453.554-.453z" fill="#fecf3d"/><path d="m26.312 17.367-.828.274.828.088zm1.578-.267-.828.274.828.088zm1.563.181-.828.274.828.089z" fill="#ff0100"/><path d="m19 18v-13h-15c-.32 0-.604.045-.604.045l-.004 1.754-2.73-.004s-.042.059-.127.205c-.34.589-.535 1.272-.535 2v9z" fill="#00247d"/><path d="m19 5h-2.331l-4.669 3.269v-3.269h-5v2.569l-3.604-2.524c-.614.094-1.19.325-1.672.665l4.702 3.29h-1.736l-3.723-2.609c-.11.129-.211.262-.305.404l3.151 2.205h-3.813v5h3.885l-3.885 2.766v1.234h3.332l3.668-2.568v2.568h5v-3.269l4.668 3.269h2.332v-2.029l-2.815-1.971h2.815v-5h-2.814l2.814-1.971z" fill="#eee"/><g fill="#cf1b2b"><path d="m11 5h-3v5h-8v3h8v5h3v-5h8v-3h-8z"/><path d="m19 5h-1.461l-5.539 3.879v.121h1.571l5.429-3.802zm-17.276.71c-.281.195-.534.423-.757.681l3.723 2.609h1.735zm4.713 8.29-5.703 4h1.727l4.539-3.178v-.822zm12.563 3.802v-1.22l-3.687-2.582h-1.743z"/></g></svg>