<svg viewBox="0 0 36 36" xmlns="http://www.w3.org/2000/svg"><path d="m32 5h-15v13h-17v9c0 2.209 1.791 4 4 4h28c2.209 0 4-1.791 4-4v-18c0-2.209-1.791-4-4-4z" fill="#fe0000"/><path d="m17 5h-13c-2.209 0-4 1.791-4 4v9h17zm-6.063 4.61 2.035-.548-1.491 1.487c-.121-.348-.307-.665-.544-.939zm.251 1.89c0 1.346-1.091 2.438-2.438 2.438s-2.438-1.092-2.438-2.438 1.092-2.438 2.438-2.438 2.438 1.092 2.438 2.438zm0-4.222-.548 2.035c-.273-.237-.591-.423-.939-.544zm-2.438-.653.542 2.034c-.175-.033-.357-.052-.542-.052s-.367.019-.542.052zm-.951 2.144c-.348.121-.665.307-.939.544l-.548-2.035zm-1.236.841c-.237.273-.423.591-.544.939l-1.491-1.487zm-.654 1.348c-.034.176-.052.357-.052.542s.018.367.052.542l-2.034-.542zm.11 1.492c.121.348.308.666.544.939l-2.035.548zm.293 3.272.548-2.035c.273.236.591.423.939.544zm2.438.653-.542-2.034c.176.034.357.052.542.052s.367-.018.542-.052zm.951-2.144c.348-.121.666-.308.939-.544l.548 2.035zm1.236-.841c.237-.273.423-.591.544-.939l1.491 1.487zm.654-1.348c.034-.176.052-.357.052-.542s-.018-.367-.052-.542l2.034.542z" fill="#000095"/><g fill="#fff"><path d="m9.292 8.659-.542-2.034-.542 2.034c.175-.033.357-.052.542-.052s.367.019.542.052zm-3.435 2.841c0-.185.018-.367.052-.542l-2.034.542 2.034.542c-.033-.175-.052-.357-.052-.542zm2.351 2.841.542 2.034.542-2.034c-.176.034-.357.052-.542.052s-.367-.019-.542-.052zm3.435-2.841c0 .185-.018.367-.052.542l2.034-.542-2.034-.542c.033.175.052.357.052.542zm-.455-4.222-1.487 1.491c.348.122.666.308.939.544zm-.251 6.112 2.035.548-1.491-1.487c-.121.348-.307.665-.544.939zm-4.625 2.332 1.487-1.491c-.348-.121-.666-.308-.939-.544zm.251-6.112-2.035-.548 1.491 1.487c.121-.348.307-.665.544-.939zm3.138 4.621 1.487 1.491-.548-2.035c-.274.237-.591.423-.939.544zm-3.682-1.781-1.491 1.487 2.035-.548c-.237-.273-.423-.59-.544-.939zm1.78-3.681-1.487-1.491.548 2.035c.274-.237.591-.423.939-.544zm5.173.293-2.035.548c.237.273.423.591.544.939z"/><circle cx="8.75" cy="11.5" r="2.438"/></g></svg>