<svg viewBox="0 0 36 36" xmlns="http://www.w3.org/2000/svg"><path d="m36 27c0 2.209-1.791 4-4 4h-28c-2.209 0-4-1.791-4-4v-18c0-2.209 1.791-4 4-4h28c2.209 0 4 1.791 4 4z" fill="#29ae66"/><path d="m4 5h7v26h-7z" fill="#ca3745"/><path d="m4 8.312.805.805-.219.219.32.32.211-.211.664.664-.656.657-.273-.274-.29.289.243.242-.805.711v-.375l.441-.418-.238-.191.608-.607.351.304.328-.328-.351-.351-.246.246-.641-.641.24-.24-.492-.445zm0 4.626.805.804-.219.219.32.32.211-.211.664.664-.656.657-.273-.274-.29.289.243.242-.805.711v-.375l.441-.418-.238-.191.608-.607.351.304.328-.328-.351-.351-.246.246-.641-.641.24-.24-.492-.446zm0 4.718.805.805-.219.219.32.32.211-.211.664.664-.656.656-.273-.273-.29.289.243.242-.805.711v-.375l.441-.418-.238-.191.608-.608.351.305.328-.328-.351-.352-.246.246-.641-.64.24-.24-.492-.446zm0 4.656.805.805-.219.219.32.32.211-.211.664.664-.656.657-.273-.274-.29.289.243.242-.805.711v-.375l.441-.418-.238-.191.608-.607.351.304.328-.328-.351-.351-.246.246-.641-.641.24-.24-.492-.445zm7-14-.805.805.219.219-.32.32-.211-.211-.664.664.656.657.273-.274.29.289-.243.242.805.711v-.375l-.441-.418.238-.191-.608-.607-.351.304-.328-.328.351-.351.246.246.641-.641-.24-.24.492-.445zm-6.438-2.624.29-.29.273.274.656-.656-.015-.016h-.301l.025.025-.328.329-.351-.305-.608.607.238.192-.441.418v.375l.805-.711zm6.235-.032-.608-.607-.351.305-.328-.329.025-.025h-.301l-.015.016.656.656.273-.274.29.29-.243.242.805.711v-.375l-.441-.418zm.203 7.282-.805.804.219.219-.32.32-.211-.211-.664.664.656.657.273-.274.29.289-.243.242.805.711v-.375l-.441-.418.238-.191-.608-.607-.351.304-.328-.328.351-.351.246.246.641-.641-.24-.24.492-.446zm0 4.718-.805.805.219.219-.32.32-.211-.211-.664.664.656.656.273-.273.29.289-.243.242.805.711v-.375l-.441-.418.238-.191-.608-.608-.351.305-.328-.328.351-.352.246.246.641-.64-.24-.24.492-.446zm0 4.656-.805.805.219.219-.32.32-.211-.211-.664.664.656.657.273-.274.29.289-.243.242.805.711v-.375l-.441-.418.238-.191-.608-.607-.351.304-.328-.328.351-.351.246.246.641-.641-.24-.24.492-.445z" fill="#faae29"/><path d="m10.021 6.938v-.396l-.583-.354h-.438l-.708-.368h-1.584l-.708.368h-.438l-.583.354v.396l-.541.333v.917l.541.333v.396l.583.354h.438l.708.368h1.584l.708-.368h.438l.583-.354v-.396l.541-.333v-.917z" fill="#29ae66"/><path d="m4.928 7.728v-.391l.462-.285v-.337l.498-.303h.374l.604-.313h.676v1.629z" fill="#faae29"/><path d="m4.887 7.729v.392l.462.284v.338l.498.302h.373l.605.313h.675v-1.629zm5.226 0v-.391l-.462-.284v-.338l-.498-.302h-.373l-.605-.313h-.675v1.628z" fill="#fff"/><g fill="#faae29"><path d="m10.113 7.729v.392l-.462.284v.338l-.498.302h-.373l-.605.313h-.675v-1.629zm-5.185 3.833h.676v.729h-.676zm.676-.104h.676v.729h-.676zm.677-.26h.676v.729h-.676zm3.135.364h.676v.729h-.676zm-.677-.104h.676v.729h-.676zm-.677-.26h.676v.729h-.676z"/><path d="m6.958 10.833h1.105v.901h-1.105zm-2.03 1.651h.676v.729h-.676zm.676.104h.676v.729h-.676zm.677.261h.676v.729h-.676zm3.135-.365h.676v.729h-.676zm-.677.104h.676v.729h-.676zm-.677.261h.676v.729h-.676z"/><path d="m6.958 13.042h1.105v.901h-1.105z"/></g><path d="m8.549 24.608h-2.058l-1.456.932v1.316l1.456.931h2.058l1.456-.931v-1.316z" fill="#fff"/><path d="m8.383 15.646h-1.726l-1.221.86v1.217l1.221.86h1.727l1.221-.86v-1.217zm.736 1.936-.937.66h-1.324l-.937-.66v-.934l.937-.66h1.324l.937.66zm-.526 6.96h-2.146l-1.517.971v1.371l1.517.97h2.145l1.517-.97v-1.371zm1.059 2.221-1.25.799h-1.765l-1.25-.799v-1.13l1.25-.799h1.766l1.25.799v1.13zm.102-5.325v-.443h-.442v-.493h-3.593v.493h-.494v.443h-.433v.646h.433v.479h.494v.521h3.594v-.521h.441v-.479h.517v-.646zm-.677 1.374h-3.118v-2.084h3.118z" fill="#29ae66"/><path d="m7.5 20.25-1.896 1.125v.729l1.896 1.23 1.916-1.188v-.771z" fill="#29ae66"/><path d="m6.651 25.766.849-.491.848.491v.979l-.848.489-.849-.489z" fill="#ca3745"/><path d="m8.348 30.084-.244.166s-.208-.396-.771-.438-.875.188-1.354.219-1.955-1.086-1.188-2.797c.688.495.331 1.099.645 1.391s.645.49.772.834c.128.344.726.059 1.125.125.625.104 1.015.5 1.015.5z" fill="#faae29"/><path d="m6.651 30.084.244.166s.208-.396.771-.438.876.188 1.355.219 1.955-1.086 1.187-2.797c-.687.495-.331 1.099-.645 1.391s-.645.49-.772.834c-.128.344-.726.059-1.125.125-.625.104-1.015.5-1.015.5z" fill="#faae29"/><path d="m18.18 8.289c.65.564 1.07 1.387 1.07 2.316 0 1.7-1.378 3.078-3.078 3.078-.585 0-1.125-.172-1.591-.455.571.622 1.384 1.018 2.294 1.018 1.726 0 3.125-1.399 3.125-3.125 0-1.26-.748-2.337-1.82-2.832zm-2.334-.422-.246.483.383.384-.535-.085-.247.483-.084-.535-.536-.085.483-.246-.085-.537.384.384z" fill="#fff"/><path d="m17.377 8.795-.246.483.384.384-.536-.085-.247.483-.084-.536-.536-.085.483-.246-.084-.536.383.384zm-1.531.665-.246.483.383.384-.535-.085-.247.483-.084-.536-.536-.085.483-.246-.085-.536.384.384zm-1.594.809-.246.483.384.384-.536-.085-.247.484-.084-.536-.536-.085.483-.246-.084-.536.383.384zm1.594.902-.246.483.383.384-.535-.085-.247.483-.084-.536-.536-.085.483-.246-.085-.536.384.384z" fill="#fff"/><path d="m7.062 20.771h.915v.615h-.915zm0 1.401h.915v.615h-.915z" fill="#ca3745"/><path d="m5.604 21.484h1.253v.615h-1.253zm2.584 0h1.228v.615h-1.228z" fill="#faae29"/></svg>