<svg viewBox="0 0 36 36" xmlns="http://www.w3.org/2000/svg"><path d="m32 5h-28c-2.209 0-4 1.791-4 4v18c0 2.209 1.791 4 4 4h28c2.209 0 4-1.791 4-4v-18c0-2.209-1.791-4-4-4z" fill="#c1272d"/><path d="m15.047 22.165 1.128-3.471-2.953-2.145h3.649l1.129-3.475 1.129 3.474h3.649l-2.953 2.145 1.128 3.471-2.953-2.145zm3.583-2.603.916.665-.35-1.077zm-1.826-.412-.35 1.077.916-.665zm.241-.74.955.694.955-.694-.365-1.122h-1.182zm-1.545-1.122.915.665.216-.665zm3.869 0 .216.665.915-.665zm-1.019-.74-.35-1.078-.35 1.079h.7z" fill="#006233"/></svg>