<svg viewBox="0 0 36 36" xmlns="http://www.w3.org/2000/svg"><path d="m32 5h-13v13h-19v9c0 2.209 1.791 4 4 4h28c2.209 0 4-1.791 4-4v-18c0-2.209-1.791-4-4-4z" fill="#ce1126"/><path d="m19 5h-15c-2.209 0-4 1.791-4 4v9h19zm-9.924 1.591.341-1.049.341 1.049h1.103l-.893.649.341 1.049-.892-.648-.893.648.341-1.049-.893-.649zm-2.739 4.948-.893-.649-.893.649.341-1.049-.892-.649h1.103l.341-1.049.341 1.049h1.103l-.892.649zm4.196 5.919-1.116-.811-1.116.811.426-1.312-1.116-.811h1.379l.426-1.312.426 1.312h1.379l-1.116.811zm1.428-4.152-.558-.406-.558.405.213-.656-.558-.405h.69l.213-.656.213.656h.69l-.558.405zm2.355-2.48-.837-.608-.837.608.32-.984-.837-.608h1.034l.32-.984.32.984h1.034l-.837.608z" fill="#002b7f"/><path d="m8.524 8.289.893-.648.892.648-.341-1.049.893-.649h-1.103l-.341-1.049-.341 1.049h-1.104l.893.649zm-2.739 1.552-.341-1.049-.341 1.049h-1.103l.893.649-.341 1.049.892-.648.893.648-.341-1.049.893-.649zm8.014-.607-.32-.984-.32.984h-1.034l.837.608-.32.984.837-.608.837.608-.32-.984.837-.608zm-2.183 3.01-.213-.656-.213.656h-.69l.558.406-.213.656.558-.406.558.406-.213-.656.558-.406zm-1.773 3.092-.426-1.312-.427 1.312h-1.379l1.116.81-.426 1.312 1.116-.81 1.116.81-.427-1.312 1.116-.81z" fill="#fff"/></svg>