<svg viewBox="0 0 36 36" xmlns="http://www.w3.org/2000/svg"><path d="m33.552 5.312c-.477-.201-1.002-.312-1.552-.312h-28c-2.209 0-4 1.791-4 4v18c0 .806.239 1.556.649 2.184z" fill="#0051ba"/><path d="m2.448 30.687.006.003c.476.2.998.31 1.546.31h28c2.209 0 4-1.791 4-4v-18c0-.806-.238-1.556-.649-2.184z" fill="#215b33"/><path d="m.651 29.189c.434.662 1.059 1.188 1.797 1.499l32.903-23.872-.001-.002c-.434-.663-1.059-1.19-1.798-1.501l-32.903 23.871z" fill="#fcd116"/><g fill="#fff"><path d="m7.069 12.021.01.007-.484 1.49 1.292-.939 1.293.939-.484-1.49.009-.007-.009-.029 1.258-.915h-1.567l-.5-1.537-.499 1.537h-1.568l1.259.915z"/><path d="m8.705 12.021 1.299-.944h-.05l-1.258.915zm-1.636 0 .01-.029-1.259-.915h-.049zm-.474 1.497-.016.048 1.308-.951 1.308.951-.015-.048-1.293-.939zm-3.919-5.263.01.007-.485 1.491 1.293-.939 1.293.939-.485-1.491.01-.007-.01-.029 1.259-.914h-1.567l-.5-1.538-.5 1.538h-1.567l1.259.914z"/><path d="m2.201 9.753-.015.047 1.308-.95 1.308.95-.015-.047-1.293-.939zm.475-1.498.01-.029-1.259-.914h-.049zm1.636 0 1.299-.943h-.05l-1.259.914zm7.151 7.531.009.007-.484 1.491 1.293-.94 1.292.94-.484-1.491.01-.007-.01-.029 1.258-.914h-1.567l-.499-1.538-.5 1.538h-1.567l1.258.914z"/><path d="m13.099 15.786 1.298-.943h-.05l-1.258.914zm-1.636 0 .009-.029-1.258-.914h-.05zm-.475 1.498-.015.047 1.308-.95 1.308.95-.016-.047-1.292-.94zm-8.312-1.498.01.007-.485 1.491 1.293-.94 1.293.94-.485-1.491.01-.007-.01-.029 1.259-.914h-1.567l-.5-1.538-.5 1.538h-1.567l1.259.914z"/><path d="m4.312 15.786 1.299-.943h-.05l-1.259.914zm-2.111 1.498-.015.047 1.308-.95 1.308.95-.015-.047-1.293-.94zm.475-1.498.01-.029-1.259-.914h-.049zm8.787-7.531.009.007-.484 1.491 1.293-.939 1.292.939-.484-1.491.01-.007-.01-.029 1.258-.914h-1.567l-.499-1.538-.5 1.538h-1.567l1.258.914z"/><path d="m11.463 8.255.009-.029-1.258-.914h-.05zm1.636 0 1.298-.943h-.05l-1.258.914zm-2.111 1.498-.015.047 1.308-.95 1.308.95-.016-.047-1.292-.939z"/></g></svg>