<svg viewBox="0 0 36 36" xmlns="http://www.w3.org/2000/svg"><path d="m36 27c0 2.209-1.791 4-4 4h-28c-2.209 0-4-1.791-4-4v-18c0-2.209 1.791-4 4-4h28c2.209 0 4 1.791 4 4z" fill="#fce100"/><path d="m0 13h36v10h-36z" fill="#141414"/><path d="m32 5h-28c-2.209 0-4 1.791-4 4v4h36v-4c0-2.209-1.791-4-4-4z" fill="#007168"/><path d="m0 13h36v1h-36zm0 9h36v1h-36z" fill="#eee"/><path d="m1.313 29.945 15.719-11.881-15.702-12.023c-.811.732-1.33 1.781-1.33 2.959v18c0 1.171.512 2.214 1.313 2.945z" fill="#dd2e44"/><path d="m9.478 23.062-3.271-2.395-3.267 2.395 1.267-3.851-3.287-2.366 4.054.015 1.234-3.858 1.239 3.86 4.05-.018-3.288 2.371z" fill="#fce100"/><path d="m3.369 20.702h2.356c.19.213.613.3 1.016-.002.738-.404 2.167.002 2.167.002l.281-.299-.686-2.25-.246-.264s-.528-.317-1.53-.211-1.354-.036-1.354-.036-.879.106-1.125.229c-.027.022-.282.281-.282.281z" fill="#141414"/><path d="m3.369 20.376h2.356c.19.213.613.3 1.016-.002.738-.404 2.167.002 2.167.002l.281-.299-.686-2.25-.246-.264s-.528-.317-1.53-.211c-1.002.105-1.354-.036-1.354-.036s-.879.106-1.125.229c-.027.022-.282.281-.282.281z" fill="#fff"/><path d="m2.213 17.012 1.263-1.851.773.124.446-.46 1.541 1.888 1.236-.878.757-.632.454.279 1.607-1.036-1.453 1.362-1.205.856-.959.432 3.242 3.822-.424.301-3.091-3.75-1.002.805 1.317.421-.042.631-1.85-.51.083 1.309-.427.185-.378-.755-1.635 1.917-.589-1.01 1.851-1.557.042-.547 1.01-.925.294-.042.842-.337-1.263-1.346-1.686 2.352-.722-.87" fill="#141414"/></svg>