<svg viewBox="0 0 36 36" xmlns="http://www.w3.org/2000/svg"><path d="m32 5h-22.25v26h22.25c2.209 0 4-1.791 4-4v-18c0-2.209-1.791-4-4-4z" fill="#0092c8"/><path d="m33.75 13.719c-1.188-.406-2.531-.469-2.531-.469l-.875 1.719s2.594.055 2.594.215c0 .11-.59 1.088-.959 1.689-.189-.059-.421-.091-.697-.091-1.125 0-1.562.25-2.031.938s0 .969 0 .969-.58 1.287-2.752 2.002l.713-2.463c.813-.136 1.508.274 1.508.274s-.531-1.562.125-3.906c.655-2.346 3.092-4.096 3.092-4.096l-2.726.806.694-2.399s.344-.75 0-.969c-.224-.142-.34.162-.396.395-.239-.068-.657-.129-1.104.074-.688.312-2.281-.139-2.281-.139s.625.701 1.094.826c-.5.25-1.469.156-1.469.156s1.188.688 1.984.438c.529-.166 1.114-.18 1.451-.171l-.583 1.97-2.478.733s-1.125.906-1.5 3.562.969 4.625.969 4.625-.141-1.283.934-1.918l-.706 2.39c-.299.07-.615.132-.964.177-.008-.019-1.295-2.907-1.077-5.337.219-2.438 2.344-4.928 2.344-4.928l-2.781 1.011.978-3.396s.615-.406.084-.656c-.529-.25-.427.55-.427.55-.246-.048-.596-.063-.968.106-.688.312-2.281-.139-2.281-.139s.625.701 1.094.826c-.5.25-1.469.156-1.469.156s1.188.688 1.984.438c.514-.161.976-.185 1.241-.182l-.83 2.512-2.53.919s-.438.625-1.344 2.438c-.906 1.812.375 4.406.375 4.406s.378-.574 1.178-.738l-.485 1.47c-2.007-.922-2.442-2.512-2.442-2.512s.344-.062.344-.437c0-.361-.154-.546-1.195-.56l.252-.9c.455.268.787.679.787.679s-.438-1.625.469-3.25c.906-1.625 3.031-3.031 3.125-3.031.05 0-1.553.456-3.055.88l.627-2.236s.459-.675-.041-.831-.419.706-.419.706c-.235-.03-.536-.02-.853.124-.688.312-2.281-.139-2.281-.139s.625.701 1.094.826c-.5.25-1.469.156-1.469.156s1.187.688 1.984.438c.461-.144.889-.177 1.171-.18l-.374 1.293-1.979.557s-.406.625-.875 2.125.344 2.719.344 2.719.25-1.062 1.031-1.062c.074 0 .147.015.219.029l-.32 1.111c-.748.054-.867.259-.867.578 0 .375.406.406.406.406s-.094.656.156 1.469c.25.812-.312.656-1.25.188-.062-.03-.123-.047-.184-.069l.006-.006-2.353-1.052s-.5-.719-.75-.219.562.615.562.615l1.348.68c-.263.137-.394.357-.254.58.312.5 1 0 2.406 1.375.474.463 1.51 1.576 3.024 2.539.271.173 13.274-.395 13.182-.629-.227-.576-.719-1.611-1.394-1.878 1.5-1.344 1.594-2.906 1.594-2.906s.406 0 .75-.688c.172-.345.156-.649-.044-.868.478-.928 1.653-3.205 1.95-3.725.376-.657.001-.969-.624.312zm-10.5 7.437c-.995 0-1.816-.134-2.504-.341l.512-1.774c.101.017.195.023.305.053 1.589.436 3.285 1.953 3.295 1.962-.485.063-1.017.1-1.608.1z" fill="#ffcc4d"/><path d="m34.688 23.031c-.781-.562-1.5-.375-1.656.17s-.875.299-1.656-.264-1.312-.469-1.469.156-1.031.562-1.844-.031c-.812-.594-1.625-.156-1.938.29-.312.446-.562.491-1.566-.134s-1.715-.25-1.996.281-.688.406-1.531-.17c-.844-.576-1.625-.361-2.031 0s-.969.482-1.719 0-1.344-.455-1.719-.068-.812.957-2 .036-1.812-.142-2.406.265c-.595.407-1.157-.624-1.157-.624v.656s.562 1.031 1.156.625 1.219-1.186 2.406-.265 1.625.351 2-.036.969-.414 1.719.068 1.312.361 1.719 0c.406-.361 1.188-.576 2.031 0 .844.576 1.25.701 1.531.17s.992-.906 1.996-.281 1.254.58 1.566.134 1.125-.884 1.938-.29c.812.594 1.688.656 1.844.031s.688-.719 1.469-.156 1.5.809 1.656.264.875-.732 1.656-.17 1.313.312 1.313.312v-.656s-.531.25-1.312-.313z"/><path d="m34.688 23.688c-.781-.562-1.5-.375-1.656.17s-.875.299-1.656-.264-1.312-.469-1.469.156-1.031.562-1.844-.031c-.812-.594-1.625-.156-1.938.29-.312.446-.562.491-1.566-.134s-1.715-.25-1.996.281-.688.406-1.531-.17c-.844-.576-1.625-.361-2.031 0s-.969.482-1.719 0-1.344-.455-1.719-.068-.812.957-2 .036-1.812-.142-2.406.265c-.595.406-1.157-.625-1.157-.625v.625s.562 1.031 1.156.625 1.219-1.186 2.406-.265 1.625.351 2-.036.969-.414 1.719.068 1.312.361 1.719 0c.406-.361 1.188-.576 2.031 0 .844.576 1.25.701 1.531.17s.992-.906 1.996-.281 1.254.58 1.566.134 1.125-.884 1.938-.29c.812.594 1.688.656 1.844.031s.688-.719 1.469-.156 1.5.809 1.656.264.875-.732 1.656-.17 1.313.312 1.313.312v-.625s-.531.25-1.312-.312zm-22.532 2.281c.53-.601 1.344-.531 1.969 0s.906.129 1.5-.217 1.437-.367 1.625.128-.781-.179-1.375.346c-.594.524-1.556.68-2.25 0s-1.938.274-1.469-.257zm6.969.12c.571.194 1.344.255 2.031-.183s1.188-.233 1.938.368 1.312.399 2 0 1.25-.899 2.219-.462c.969.438 1.438.482 1.812.335.375-.148 0 .509-.938.352-.938-.156-1.594-.75-2.438-.188s-1.938 1.088-2.812.341c-.875-.747-1.344-.644-1.875-.32-.531.323-1.125.354-1.438.198-.312-.155-.959-.597-.499-.441zm12.031 0c.362.219.75.276 1.125 0s.75-.052 1.219.211.562.558 0 .379-.781-.577-1.219-.331-.906.316-1.125 0c-.219-.317-.271-.423 0-.259zm-16.094 1.474c.514-.272 1.344-.656 1.937 0 .594.656.875.312 1.344 0s.875-.688 1.594-.219 1.062.34 1.344.185c.281-.154.531-.06 0 .252s-1.062.281-1.469-.031c-.406-.312-.75-.469-1.281.062s-1.219.69-1.719.189-.656-.542-1.156-.287-1.108.121-.594-.151zm9.563.151c.629-.332 1.469-.901 2.156-.245.688.656 1.094.348 1.656-.029s1.094-.922 1.906-.274c.812.647 1.344.585 1.75.397s.219.172-.281.289-1.188.117-1.656-.289c-.469-.406-.906-.385-1.406.151s-1.75.686-2.219.205-1.062-.2-1.5-.013-1.034.14-.406-.192zm-13.125.496c.373-.344.875-.21 1.5.415s.906.5 1.469.188 1.312-.375 1.625-.031c.312.344.188.453-.188.289-.375-.164-.735-.258-1.243.18-.507.438-1.414.531-1.851 0-.438-.531-.688-.844-1.031-.719-.344.124-.781.138-.281-.322zm8.656.609c.364-.391 1.094-.712 1.812 0 .719.712.844.618 1.406.243s1.219-.805 1.906-.168c.688.637.969.512 1.562.168.594-.344 1.125-.648 1.781-.168s1.156.605 1.719.262c.562-.344.686-.191.156.25-.438.363-1.231.5-1.781-.031-.689-.665-1.125-.469-1.688-.062-.562.406-1.438.5-1.938-.031s-.844-.375-1.312 0c-.469.375-1.275.758-1.844-.031s-1.125-.438-1.406-.281c-.279.155-.904.419-.373-.151z" fill="#bbddf5"/><path d="m0 22v5c0 2.209 1.791 4 4 4h6v-9z" fill="#ca0000"/><path d="m8.141 24.641c-.406.156-.781.109-1.281-.462-.101-.115-.212-.191-.326-.249.241.057.549.172.81.195.516.047 1.031-.328 1.031-.328s-.234-.188-.859-.359c-.511-.141-1.368-.036-1.666.368-.242.014-.474.063-.662.086-.326.039-.703-.109-.703-.109s-.062-.766-.938-.766c-.766 0-.781.703-.781.703s-.391.188-.391-.363-.438-.52-.82-.52-.477-.023-.477.477.281.406.453.562c0 0 .172.875 1.203.75.046.085.062.297.062.297s-.187.052-.484-.016c-.443-.101-.766-.156-.766.453s.641.438 1.547.438.953-.562.953-.562.422-.125.922-.094c-.125.109-.054.374.062.5.243.262.688.156 1.031.156s.5-.266.422-.625c.328.234 1.234-.203 1.125 0s.156.703.844.422c.689-.283.095-1.111-.311-.954z" fill="#ffcc4d"/><ellipse cx="3.367" cy="24.25" rx=".289" ry=".297"/><path d="m3.367 23.695c0 .073-.1.133-.223.133s-.223-.059-.223-.133c0-.073.1-.133.223-.133.124.001.223.06.223.133z"/><ellipse cx="3.656" cy="23.695" rx=".223" ry=".133"/><path d="m8.141 28.156c-.406.156-.781.109-1.281-.462-.101-.115-.212-.191-.326-.249.241.058.549.172.81.195.516.047 1.031-.328 1.031-.328s-.234-.188-.859-.359c-.511-.141-1.367-.035-1.666.368-.242.014-.474.063-.662.086-.326.039-.703-.109-.703-.109s-.062-.766-.938-.766c-.766 0-.781.703-.781.703s-.391.188-.391-.363-.438-.52-.82-.52-.477-.023-.477.477.281.406.453.562c0 0 .172.875 1.203.75.046.085.062.297.062.297s-.187.052-.484-.016c-.443-.101-.766-.156-.766.453s.641.438 1.547.438.953-.562.953-.562.422-.125.922-.094c-.125.109-.054.374.062.5.243.262.688.156 1.031.156s.5-.266.422-.625c.328.234 1.234-.203 1.125 0s.156.703.844.422c.689-.282.095-1.11-.311-.954z" fill="#ffcc4d"/><path d="m3.656 27.766c0 .164-.129.297-.289.297s-.289-.133-.289-.297.129-.297.289-.297.289.133.289.297zm-.289-.555c0 .073-.1.133-.223.133s-.223-.06-.223-.133.1-.133.223-.133c.124 0 .223.06.223.133zm.512 0c0 .073-.1.133-.223.133s-.223-.06-.223-.133.1-.133.223-.133.223.06.223.133z"/><path d="m0 14h10v8h-10z" fill="#eee"/><path d="m2.079 17.319-.278-.421c-.011-.347-.063-.617-.129-.617s-.118.269-.129.617l-.278.421c-.062.095-.011.173.116.173h.191c.024.155.059.257.099.257s.075-.103.099-.257h.191c.129.001.18-.077.118-.173zm-.274-1.469c0 .237-.06.214-.133.214s-.133.023-.133-.214c0-.236.06-.428.133-.428.074 0 .133.192.133.428zm.194.48c-.237 0-.214-.06-.214-.133s-.023-.133.214-.133c.236 0 .428.059.428.133s-.192.133-.428.133zm-.653 0c.237 0 .214-.06.214-.133s.023-.133-.214-.133c-.236 0-.428.059-.428.133s.192.133.428.133zm3.877.989-.278-.421c-.011-.347-.063-.617-.129-.617s-.118.269-.129.617l-.277.421c-.062.095-.011.173.116.173h.191c.024.155.059.257.099.257s.075-.103.099-.257h.191c.128.001.179-.077.117-.173zm-.274-1.469c0 .237-.06.214-.133.214s-.133.023-.133-.214c0-.236.06-.428.133-.428.074 0 .133.192.133.428zm.194.48c-.237 0-.214-.06-.214-.133s-.023-.133.214-.133c.236 0 .428.059.428.133s-.192.133-.428.133zm-.653 0c.237 0 .214-.06.214-.133s.023-.133-.214-.133c-.236 0-.428.059-.428.133s.192.133.428.133zm3.951.989-.278-.421c-.011-.347-.063-.617-.129-.617s-.118.269-.129.617l-.278.421c-.062.095-.011.173.116.173h.191c.024.155.059.257.099.257s.075-.103.099-.257h.191c.13.001.181-.077.118-.173zm-.273-1.469c0 .237-.06.214-.133.214s-.133.023-.133-.214c0-.236.06-.428.133-.428s.133.192.133.428zm.193.48c-.237 0-.214-.06-.214-.133s-.023-.133.214-.133c.236 0 .428.059.428.133.001.074-.191.133-.428.133zm-.652 0c.237 0 .214-.06.214-.133s.023-.133-.214-.133c-.236 0-.428.059-.428.133s.192.133.428.133zm-1.724-1.632c-.062.095-.011.173.116.173h.191c.024.155.059.257.099.257s.075-.103.099-.257h.191c.127 0 .178-.078.116-.173l-.277-.421c-.003-.102-.011-.193-.021-.277h-.216c-.01.084-.017.175-.02.277zm-3.141 0c-.062.095-.011.173.116.173h.191c.024.155.059.257.099.257s.075-.103.099-.257h.191c.127 0 .178-.078.116-.173l-.278-.421c-.002-.102-.01-.193-.019-.277h-.217c-.01.084-.017.175-.02.277zm-2.492 3.73c0 .237-.06.214-.133.214s-.133.023-.133-.214c0-.236.06-.428.133-.428s.133.192.133.428zm.193.48c-.237 0-.214-.06-.214-.133s-.023-.133.214-.133c.236 0 .428.059.428.133.001.074-.191.133-.428.133zm-.326-3.779c.04 0 .075-.103.099-.257h.192c.127 0 .178-.078.116-.173l-.278-.421c-.003-.103-.011-.194-.021-.278h-.216c-.01.084-.017.175-.02.277l-.091.138v.457h.12c.025.154.059.257.099.257zm0 5.199c.04 0 .075-.103.099-.258h.192c.127 0 .178-.078.116-.173l-.278-.421c-.01-.348-.063-.617-.129-.617s-.118.269-.129.617l-.09.138v.456h.12c.024.155.059.258.099.258zm-.112-1.553c0-.059.009-.107-.107-.124v.249c.115-.018.107-.066.107-.125zm3.565 1.123-.278-.421c-.01-.348-.063-.617-.129-.617s-.118.269-.129.617l-.276.421c-.062.095-.011.173.116.173h.191c.024.155.059.258.099.258s.075-.103.099-.258h.191c.128-.001.179-.079.116-.173zm-.273-1.47c0 .237-.06.214-.133.214s-.133.023-.133-.214c0-.236.06-.428.133-.428s.133.192.133.428zm.193.48c-.237 0-.214-.06-.214-.133s-.023-.133.214-.133c.236 0 .428.059.428.133s-.191.133-.428.133zm-.652 0c.237 0 .214-.06.214-.133s.023-.133-.214-.133c-.236 0-.428.059-.428.133s.192.133.428.133zm3.889.99-.278-.421c-.01-.348-.063-.617-.129-.617s-.118.269-.129.617l-.278.421c-.062.095-.011.173.116.173h.191c.024.155.059.258.099.258s.075-.103.099-.258h.191c.129-.001.18-.079.118-.173zm-.274-1.47c0 .237-.06.214-.133.214s-.133.023-.133-.214c.001-.236.06-.428.133-.428.074 0 .133.192.133.428zm.194.48c-.237 0-.214-.06-.214-.133s-.023-.133.214-.133c.236 0 .428.059.428.133s-.192.133-.428.133zm-.653 0c.237 0 .214-.06.214-.133s.023-.133-.214-.133c-.236 0-.428.059-.428.133s.192.133.428.133zm3.699-.48c0 .237-.06.214-.133.214s-.132.024-.132-.214c0-.236.059-.428.133-.428s.132.192.132.428zm-.591-3.73c-.062.095-.011.173.116.173h.191c.024.155.059.257.099.257s.075-.103.099-.257h.191c.049 0 .075-.02.1-.039v-.158l-.262-.397c-.003-.102-.01-.193-.02-.277h-.216c-.01.084-.017.175-.02.277zm.459 4.161c-.066 0-.118.269-.129.617l-.278.421c-.062.095-.011.173.116.173h.191c.024.155.059.258.099.258s.075-.103.099-.258h.191c.023 0 .029-.014.047-.018v-.259l-.209-.316c-.009-.348-.062-.618-.127-.618zm.112-.084c0 .073-.023.133.214.133l.011-.001v-.264l-.011-.001c-.238.001-.214.06-.214.133zm-.439.133c.237 0 .214-.06.214-.133s.023-.133-.214-.133c-.236 0-.428.059-.428.133s.192.133.428.133zm-1.402 3.092h.238c-.019-.271-.064-.469-.119-.469s-.1.198-.119.469zm.252-.9c0 .238-.06.215-.133.215s-.133.023-.133-.215c0-.236.06-.428.133-.428s.133.191.133.428zm.193.48c-.237 0-.214-.06-.214-.133s-.023-.133.214-.133c.236 0 .428.059.428.133.001.074-.191.133-.428.133zm-.652 0c.237 0 .214-.06.214-.133s.023-.133-.214-.133c-.236 0-.428.059-.428.133s.192.133.428.133zm-2.744-.48c0 .238-.06.215-.133.215s-.133.023-.133-.215c0-.236.06-.428.133-.428s.133.191.133.428zm.193.48c-.237 0-.214-.06-.214-.133s-.023-.133.214-.133c.236 0 .428.059.428.133s-.191.133-.428.133zm-.652 0c.237 0 .214-.06.214-.133s.023-.133-.214-.133c-.236 0-.428.059-.428.133s.192.133.428.133zm.207.42h.238c-.019-.271-.064-.469-.119-.469s-.1.198-.119.469zm-3.215 0h.238c-.019-.271-.064-.469-.119-.469s-.1.198-.119.469zm.252-.9c0 .238-.06.215-.133.215s-.133.023-.133-.215c0-.236.06-.428.133-.428s.133.191.133.428zm.193.48c-.237 0-.214-.06-.214-.133s-.023-.133.214-.133c.236 0 .428.059.428.133s-.192.133-.428.133zm-.652 0c.237 0 .214-.06.214-.133s.023-.133-.214-.133c-.236 0-.428.059-.428.133-.001.074.191.133.428.133z" fill="#292f33"/><path d="m0 14v-5c0-2.209 1.791-4 4-4l1 1 1-1h4v9h-4l-1-1-1 1z" fill="#dc241f"/><path d="m10 6.49v-1.49h-.567l-3.433 3.09-1 .89-1-.89-2.476-2.229-.002-.001-.001.001c-.39.308-.722.689-.975 1.12l.003.003 2.217 1.996 1.23 1.01-1.23 1.01-2.766 2.49v.51h1.655l2.345-2.11 1-.89 1 .89 2.345 2.11h1.655v-.51l-2.766-2.49-1.237-1.01 1.237-1.01z" fill="#009543"/><path d="m6 8.979v-3.979h-2v3.979h-3.999l-.001.021v2h4v3h2v-3h4v-2.021z" fill="#eee"/></svg>