<svg viewBox="0 0 36 36" xmlns="http://www.w3.org/2000/svg"><path d="m32 5h-23v26h23c2.209 0 4-1.791 4-4v-18c0-2.209-1.791-4-4-4zm-9.5 20.472c-4.142 0-7.5-3.358-7.5-7.5 0-3.72 2.711-6.799 6.263-7.39-2.22 1.034-3.763 3.279-3.763 5.89 0 3.59 2.91 6.5 6.5 6.5 2.611 0 4.856-1.543 5.89-3.763-.591 3.553-3.67 6.263-7.39 6.263zm5.11-10.424-1.213 2.022-.208-2.349-2.298-.528 2.17-.924-.207-2.349 1.548 1.779 2.17-.924-1.212 2.023 1.548 1.779z" fill="#004600"/><path d="m4 5c-2.209 0-4 1.791-4 4v18c0 2.209 1.791 4 4 4h5v-26z" fill="#eee"/><g fill="#fff"><path d="m29.572 11.775-2.17.924-1.548-1.779.207 2.349-2.17.924 2.298.528.208 2.349 1.213-2.022 2.298.529-1.548-1.779z"/><path d="m24 22.972c-3.59 0-6.5-2.91-6.5-6.5 0-2.611 1.543-4.856 3.763-5.89-3.552.592-6.263 3.671-6.263 7.39 0 4.142 3.358 7.5 7.5 7.5 3.72 0 6.799-2.711 7.39-6.263-1.034 2.221-3.279 3.763-5.89 3.763z"/></g></svg>