<svg viewBox="0 0 36 36" xmlns="http://www.w3.org/2000/svg"><path d="m8 31h24c2.209 0 4-1.791 4-4v-4h-28z" fill="#008000"/><path d="m32 5h-24v8h28v-4c0-2.209-1.791-4-4-4z" fill="#eee"/><path d="m36 13h-27v-8h-5c-2.209 0-4 1.791-4 4v18c0 2.209 1.791 4 4 4h5v-8h27z" fill="#db161b"/><g fill="#eee"><path d="m3.625 8.453c.313.567.313.789.222.839-.09.05-.238-.09-.55-.657-.313-.567-.672-1.345-.582-1.395.091-.051.597.647.91 1.213zm1.891-.349c-.313.567-.493 1.067-.402 1.117.09.05.417-.369.73-.935.312-.567.493-1.067.402-1.117s-.418.369-.73.935zm-.563.912-.297-1.422-.028-.006c.103-.049.184-.126.184-.237 0-.16-.147-.289-.328-.289s-.328.13-.328.29c0 .108.075.193.175.243l-.284 1.436z"/><path d="m6.703 11.766c-.271-.226-1.349-1.159-1.861-1.716.046-.16.073-.332.062-.516h.017v.008h.891v.172h1.094v-.531h-1.094v.172h-.89v.008h-.031v-.269h-.813v.269h-.328v.016h-.641v-.22h-1.031v.578h1.031v-.218h.641v.016h.276l-.036.374s-1.039.046-1.318.091c-.688.109-.469.312.094.5.259.086.517.12.761.133-.397.424-1.207 1.053-1.402 1.164-.219.125-.219.281.203.188.409-.091 1.355-.926 1.684-1.348l.285-.012c.15-.006.269-.1.369-.224.427.505 1.264 1.254 1.6 1.458.359.219.527.214.654.193s.064-.052-.217-.286z"/></g></svg>