<svg viewBox="0 0 36 36" xmlns="http://www.w3.org/2000/svg"><path d="m32 5h-28c-.205 0-.407.015-.604.045l-.004 1.754-2.73-.004c-.418.632-.662 1.39-.662 2.205v18c0 2.209 1.791 4 4 4h28c2.209 0 4-1.791 4-4v-18c0-2.209-1.791-4-4-4z" fill="#00247d"/><path d="m27.47 23.513c-4.601-1.797-4.426-5.971-4.239-10.389l.011-.25.206-.141c.379-.26 2.206-.765 4.204-.765 1.999 0 3.825.505 4.204.765l.206.142.011.249c.187 4.418.363 8.592-4.239 10.389l-.182.071z" fill="#eee"/><path d="m31.572 13.146c-.274-.188-1.982-.677-3.921-.677s-3.647.489-3.921.677c-.189 4.479-.279 8.261 3.921 9.901 4.202-1.641 4.111-5.422 3.921-9.901z" fill="#ff0"/><path d="m23.668 16c.047 3.191.713 5.77 3.983 7.047 3.271-1.277 3.938-3.855 3.983-7.047z" fill="#8fc5ff"/><path d="m27.651 23.047c1.724-.673 2.72-1.711 3.287-3.006h-6.574c.568 1.295 1.564 2.333 3.287 3.006z" fill="#366cc9"/><path d="m27.614 20.793c-.098 0-.177.079-.177.177s.079.177.177.177h2.672c.087-.115.17-.233.246-.353h-2.918zm-.322.906c0 .098.079.177.177.177h2.143c.128-.114.247-.232.359-.353h-2.503c-.097 0-.176.079-.176.176zm-.459.73c0 .098.079.177.177.177h1.566c.199-.112.387-.229.562-.354h-2.128c-.098 0-.177.079-.177.177z" fill="#00d860"/><path d="m24.562 17.886c.168-.449.541-1.084.688-1.104.146-.021 1.746 3.113 1.621 3.26s-1.912.24-2.267.178-.042-2.334-.042-2.334z" fill="#5d3100"/><path d="m26.438 20.562c-.125-.396-2.104-4.084-2.229-4.084-.088 0-.319.34-.493.644.112 1.519.44 2.864 1.232 3.948.667-.056 1.578-.227 1.49-.508z" fill="#cf6200"/><path d="m27.099 16.271h.131v3.792h-.131zm1.333-.105h.131v3.897h-.131zm1.229.105h.131v3.792h-.131z" fill="#ff0"/><path d="m25.312 19.098c.198.055 1.039.521 1.559.677.625.188 1.546.163 1.796.163s.728-.729.937-.729h1.251c.188 0 .124 1.25-.354 1.25h-3.375c-.313 0-1.375-.979-1.583-1.083s-.407-.327-.231-.278z"/><path d="m27.651 16.677c0 .109-.089.198-.198.198h-.692c-.109 0-.198-.089-.198-.198s.089-.198.198-.198h.692c.109 0 .198.088.198.198zm1.325-.198c0 .109-.089.198-.198.198h-.692c-.109 0-.198-.089-.198-.198s.089-.198.198-.198h.692c.109-.001.198.088.198.198zm1.361.396c0 .109-.089.198-.198.198h-.692c-.109 0-.198-.089-.198-.198s.089-.198.198-.198h.692c.109 0 .198.089.198.198zm0 1.094c0 .109-.089.198-.198.198h-.692c-.109 0-.198-.089-.198-.198s.089-.198.198-.198h.692c.109 0 .198.088.198.198zm0 .725c0 .109-.089.198-.198.198h-.692c-.109 0-.198-.089-.198-.198s.089-.198.198-.198h.692c.109 0 .198.089.198.198zm-1.361-1.486c0 .109-.089.198-.198.198h-.692c-.109 0-.198-.089-.198-.198s.089-.198.198-.198h.692c.109 0 .198.089.198.198zm0 .761c0 .109-.089.198-.198.198h-.692c-.109 0-.198-.089-.198-.198s.089-.198.198-.198h.692c.109 0 .198.088.198.198zm0 .725c0 .109-.089.198-.198.198h-.692c-.109 0-.198-.089-.198-.198s.089-.198.198-.198h.692c.109 0 .198.089.198.198zm-1.325-1.288c0 .109-.089.198-.198.198h-.692c-.109 0-.198-.089-.198-.198s.089-.198.198-.198h.692c.109 0 .198.089.198.198zm0 .761c0 .109-.089.198-.198.198h-.692c-.109 0-.198-.089-.198-.198s.089-.198.198-.198h.692c.109 0 .198.089.198.198zm0 .726c0 .109-.089.198-.198.198h-.692c-.109 0-.198-.089-.198-.198s.089-.198.198-.198h.692c.109-.001.198.088.198.198z" fill="#eee"/><path d="m25.867 13.241c.023-.165.446-.032.612-.178s.617-.498.984-.042c.205.255.153.43.382.639s1.446.736 1.842.611c-.021.25-.375.375-.375.375s.335.249.377.541-.502-.453-1.273-.249c-.308.082-.651.403-1.276.249s-.642-1.093-.658-1.487c-.005-.143-.63-.349-.615-.459z" fill="#ac5f1a"/><path d="m26.18 13.156c.03-.134.364.004.51-.104.144-.106.537-.363.805.033.148.221.095.36.268.546.171.185 1.126.697 1.457.623-.033.201-.331.279-.331.279s.255.226.27.467c.015.239-.377-.404-1.018-.29-.256.046-.558.284-1.055.115-.499-.167-.449-.933-.436-1.255.003-.116-.491-.327-.47-.414z" fill="#eee"/><path d="m27.375 15.66c0 .041-.033.074-.074.074s-.075-.033-.075-.074v-.47c0-.041.034-.074.075-.074s.074.033.074.074zm.554 0c0 .041-.033.074-.074.074s-.075-.033-.075-.074v-.47c0-.041.034-.074.075-.074s.074.033.074.074zm-.659-2.394c0 .078-.063.141-.141.141s-.141-.062-.141-.141c0-.078.062-.141.141-.141.077 0 .141.063.141.141z"/><path d="m19 18v-13h-15c-.32 0-.604.045-.604.045l-.004 1.754-2.73-.004s-.042.059-.127.205c-.34.589-.535 1.272-.535 2v9z" fill="#00247d"/><path d="m19 5h-2.331l-4.669 3.269v-3.269h-5v2.569l-3.604-2.524c-.614.094-1.19.325-1.672.665l4.702 3.29h-1.736l-3.723-2.609c-.11.129-.211.262-.305.404l3.151 2.205h-3.813v5h3.885l-3.885 2.766v1.234h3.332l3.668-2.568v2.568h5v-3.269l4.668 3.269h2.332v-2.029l-2.815-1.971h2.815v-5h-2.814l2.814-1.971z" fill="#eee"/><g fill="#cf1b2b"><path d="m11 5h-3v5h-8v3h8v5h3v-5h8v-3h-8z"/><path d="m19 5h-1.461l-5.539 3.879v.121h1.571l5.429-3.802zm-17.276.71c-.281.195-.534.423-.757.681l3.723 2.609h1.735zm4.713 8.29-5.703 4h1.727l4.539-3.178v-.822zm12.563 3.802v-1.22l-3.687-2.582h-1.743z"/></g></svg>