<svg viewBox="0 0 36 36" xmlns="http://www.w3.org/2000/svg"><path d="m36 27c0 2.209-1.791 4-4 4h-28c-2.209 0-4-1.791-4-4v-18c0-2.209 1.791-4 4-4h28c2.209 0 4 1.791 4 4z" fill="#060"/><path d="m32 5h-17v26h17c2.209 0 4-1.791 4-4v-18c0-2.209-1.791-4-4-4z" fill="#d52b1e"/><path d="m15 10c-4.419 0-8 3.581-8 8 0 4.418 3.581 8 8 8 4.418 0 8-3.582 8-8 0-4.419-3.582-8-8-8zm-6.113 4.594 1.602 1.602-2.46 1.23c.083-1.022.383-1.981.858-2.832zm-.858 3.979 4.4 2.207-2.706 1.804.014.021c-.96-1.097-1.583-2.492-1.708-4.032zm5.971 6.347c-.937-.134-1.813-.453-2.592-.92h2.592zm0-1.92h-3.099l3.099-2.066zm0-3.268-.607.405-4.275-2.137 2.116-1.058 2.766 2.765zm0-1.439-3.543-3.543 3.543.59zm0-3.992-4.432-.713c1.084-1.333 2.65-2.253 4.432-2.508zm7.113.293c.475.851.775 1.81.858 2.833l-2.46-1.23zm-5.113-3.514c1.782.256 3.348 1.175 4.432 2.508l-4.432.713zm0 4.26 3.543-.591-3.543 3.544zm0 4.367 2.765-2.765 2.117 1.058-4.274 2.137-.608-.405zm0 5.213v-.92h2.592c-.779.467-1.655.786-2.592.92zm0-1.92v-2.066l3.099 2.066zm4.264-.395.014-.021-2.706-1.804 4.4-2.207c-.126 1.54-.749 2.935-1.708 4.032z" fill="#ffcc4d"/><path d="m11 13v7c0 2.209 1.791 4 4 4s4-1.791 4-4v-7z" fill="#d52b1e"/><path d="m12 14v6c0 1.656 1.343 3 3 3s3-1.344 3-3v-6z" fill="#fff"/><path d="m13 17h4v2h-4z" fill="#829acd"/><path d="m14 16h2v4h-2z" fill="#829acd"/><path d="m12 17h1v2h-1zm2 0h2v2h-2zm3 0h1v2h-1zm-3 3h2v2h-2zm0-6h2v2h-2z" fill="#039"/></svg>