<svg viewBox="0 0 36 36" xmlns="http://www.w3.org/2000/svg"><path d="m36 27v-1h-36v1c0 2.209 1.791 4 4 4h28c2.209 0 4-1.791 4-4z" fill="#d90001"/><path d="m0 22h36v4h-36z" fill="#fcdc02"/><path d="m0 18h36v4h-36z" fill="#141414"/><path d="m0 14h36v4h-36z" fill="#d90001"/><path d="m0 10h36v4h-36z" fill="#fcdc02"/><path d="m0 9v1h36v-1c0-2.209-1.791-4-4-4h-28c-2.209 0-4 1.791-4 4z" fill="#141414"/><circle cx="18" cy="18" fill="#fff" r="4"/><path d="m17.344 15.031-.267-.703s.579-.203 1.142 0c.429.155.469.703.469.703l-.671.203z" fill="#d90000"/><path d="m17.594 14.922v-.684s.111-.043.423 0 .453.262.453.262l-.438.532z" fill="#fcdc02"/><path d="m17.745 16.896c-.083-.146 0-1 .239-1.062s.698-.812 0-1.062-.844.479-.844.479-.69.203-.604.375c.083.167.667-.062.792.083s-.062.354-.562.938-.167 1.375.062 1.579.5.359.708.546.448.292.448.292v.604s-.698.062-1.031.021-.562.188-.646.458.125.417.125.209.083-.084.102.083.168.104.168-.104.083-.125.104-.021.167-.042.188-.167.208-.188.375-.229.614.041.614.041v1.104s-.927.062-1.01.188.562.104.562.104-.188.354-.104.375.667-.354.896-.396.583.104.625 0-.562-.25-.625-.354-.188-1.062-.188-1.062.271-.022.605-.001c.333.021.25-.271.042-.562s-.021-.375.333-.312.625 0 .625-.563-1.916-1.438-1.999-1.584zm.729 2.708h-.229l.083-.417c0 .001.292.417.146.417z" fill="#141414"/><path d="m17.474 15.812c.029-.249-.375-.229-.396 0s.355.355.396 0z" fill="#d90000"/><path d="m17.75 17.047c.115-.041 1.406.547 1.75.703s.303.75.245 1.109-.261.469-.261.469-.225-.58-.938-.859c-.957-.375-1.234-1.266-.796-1.422z" fill="#9ca69c"/><path d="m19.203 17.734c.421.11 1.312.312 1.391 1.219.078.906-.849 1.438-.849 1.438l.155-.281-.275.094.12-.204-.433.094s.725-.578.472-1.094c.019.43-.269.547-.269.547s.248-.596-.828-1.25l.281-.072-.28-.225.594.225-.282-.35.562.219z" fill="#d90000"/><path d="m17.594 15.336c0 .056-.045.102-.102.102-.056 0-.102-.045-.102-.102 0-.056.045-.102.102-.102.056 0 .102.046.102.102z" fill="#9ca69c"/></svg>