<svg viewBox="0 0 36 36" xmlns="http://www.w3.org/2000/svg"><path d="m36 27c0 2.209-1.791 4-4 4h-28c-2.209 0-4-1.791-4-4v-18c0-2.209 1.791-4 4-4h28c2.209 0 4 1.791 4 4z" fill="#77b255"/><path d="m0 13h36v10h-36z" fill="#dd2e44"/><path d="m32 5h-28c-2.209 0-4 1.791-4 4v4h36v-4c0-2.209-1.791-4-4-4z" fill="#141414"/><path d="m23.191 12c-1.038-1.792-2.971-3-5.191-3s-4.153 1.208-5.191 3zm-5.493-6h.603l-.301 2.163zm-1.514.18.594-.102.068 2.183zm-1.463.433.569-.201.435 2.14zm-1.368.673.527-.293.79 2.036zm-1.235.895.47-.378 1.122 1.873zm-1.067 1.09.401-.452 1.421 1.658zm-.866 1.255.317-.513 1.681 1.393zm.713 1.474-1.13-.65-.226.559.364.091zm15.355 0 .218-.054-.221-.557-1.074.611zm-.731-1.951.312.512-2.001.872zm-.943-1.198.394.451-1.826 1.198zm-1.132-1.023.464.38-1.596 1.487zm-1.288-.816.521.296-1.323 1.735zm-1.408-.588.564.204-1.011 1.934zm-1.487-.341.59.106-.67 2.077z" fill="#dd2e44"/></svg>