<svg viewBox="0 0 36 36" xmlns="http://www.w3.org/2000/svg"><path d="m32 5h-28c-.205 0-.407.015-.604.045l-.004 1.754-2.73-.004c-.418.632-.662 1.39-.662 2.205v18c0 2.209 1.791 4 4 4h28c2.209 0 4-1.791 4-4v-18c0-2.209-1.791-4-4-4z" fill="#00247d"/><path d="m23 12v3.726c0 5.18 2.887 7.072 5.156 8.305 2.27-1.233 4.802-3.125 4.802-8.305v-3.726z" fill="#fff"/><path d="m28.156 23.43c-2.202-1.231-4.739-3.008-4.739-7.704v-3.059h9.196v3.059c0 4.696-2.255 6.473-4.457 7.704z" fill="#fec400"/><path d="m29.953 20.984c-.062-.547-.516-2.266-1.047-2.781-.531-.516-.75-.117-.75-.117s-.219-.398-.75.117c-.531.516-.984 2.234-1.047 2.781s.062.672.344.672c.125.266.609.312.609.312s.547.359.844 0c.297.359.844 0 .844 0s.484-.047.609-.312c.282 0 .407-.125.344-.672z" fill="#00a728"/><path d="m28.953 17.576c0 .476.126.861-.781.861s-.781-.386-.781-.861c0-.476.35-.862.781-.862.432 0 .781.386.781.862z" fill="#f0082d"/><path d="m26.484 16.953c-.25.422-.641.125-.812-.375s-.859-.641-1.109-.781-.312-.375 0-.547.125-.391.344-.453c-.281-.062-.533.094-.556 0-.022-.094.196-.354.556-.396-.297-.37-.125-1.151 0-1.167s.381.219.511.453.505.188.474.516c.078.078.344.031.594.438.248.406-.002 2.312-.002 2.312z" fill="#ff9f3e"/><path d="m26.596 16.891c-.354.027-.486-.281-.549-.734-.062-.453-.703-.284-.406-.962s.408-.267.438-.793.202-.963.358-.963.359.484.438.688.379.156.51.859-.025 1.219-.197 1.375-.25.179-.281.355c-.032.175-.079.157-.311.175z" fill="#ff927f"/><path d="m26.596 13.906c.107.078.111.188 0 .375-.111.188.072.375.082.688.01.312-.152.422-.118.578s.284.453.253.812-.105.469-.217.531c-.111.062-.064-.188-.041-.422s-.133-.5-.211-.734.105-.406.154-.641c.049-.234-.076-.448-.092-.693-.015-.244.19-.494.19-.494z" fill="#fe9de0"/><g fill="#ba5b1f"><path d="m30.219 14.5c.047-.344.031-.875-.078-1.062-.109-.188-.281-.297-.172-.328s.625.516.344 1.625c-.282 1.109-.094-.235-.094-.235z"/><path d="m30.164 14.404c-.211-.123-.484-.436-.457-.607.027-.172.23-.484.262-.422.031.062-.094.256 0 .511s.14.269.267.439c.126.171-.072.079-.072.079zm-.115.237c-.126-.152-1.517-1.047-1.377-1.109s1.338.688 1.528 1.109c.191.421-.151 0-.151 0z"/><path d="m29.969 14.906c-.509-.505-1.766-.594-1.703-.672s1.674.07 1.899.535c.226.465-.196.137-.196.137z"/><path d="m29.934 15.173c-.574-.298-1.578-.361-1.67-.345s.969-.298 1.727.171c.759.47-.057.174-.057.174zm.035.421c-.594-.266-1.469-.188-1.625-.094s.453-.354.875-.31.83.132.946.213.011.283-.196.191z"/><path d="m30.315 14.401c-.072-.384-.073-.708-.588-.669s-.608 1.002-.479 2.346c.128 1.344-.028 1.784-.052 1.861-.023.077.287-.267.265-.861s-.153-1.899-.111-2.379.275-.84.585-.746c.31.095.24.336.231.629-.01.293.149-.181.149-.181z"/><path d="m30.656 16.9s.156-.088.359-1.15-.234-1.516-.625-1.516-.828.453-.625 1.516c.203 1.062.359 1.15.359 1.15s-.479.455-.411.676c.067.221.677.226.677.226s.609-.005.677-.226-.411-.676-.411-.676z"/><path d="m30.567 14.5c-.047-.344-.031-.875.078-1.062s.281-.297.172-.328-.625.516-.344 1.625c.282 1.109.094-.235.094-.235z"/><path d="m30.622 14.404c.211-.123.484-.436.457-.607s-.23-.484-.262-.422c-.031.062.094.256 0 .511s-.14.269-.267.439c-.126.171.072.079.072.079zm.115.237c.126-.152 1.518-1.047 1.377-1.109s-1.338.688-1.528 1.109.151 0 .151 0z"/><path d="m30.817 14.906c.509-.505 1.766-.594 1.703-.672s-1.674.07-1.899.535.196.137.196.137z"/><path d="m30.853 15.173c.574-.298 1.578-.361 1.67-.345s-.969-.298-1.728.171c-.759.47.058.174.058.174zm-.036.421c.594-.266 1.469-.188 1.625-.094s-.453-.354-.875-.31-.83.132-.946.213-.011.283.196.191z"/><path d="m30.472 14.401c.072-.384.073-.708.588-.669s.607 1.002.479 2.346.028 1.784.052 1.861-.287-.267-.265-.861.153-1.899.111-2.379-.275-.84-.585-.746c-.31.095-.24.336-.231.629s-.149-.181-.149-.181z"/></g><path d="m19 18v-13h-15c-.32 0-.604.045-.604.045l-.004 1.754-2.73-.004s-.042.059-.127.205c-.34.589-.535 1.272-.535 2v9z" fill="#00247d"/><path d="m19 5h-2.331l-4.669 3.269v-3.269h-5v2.569l-3.604-2.524c-.614.094-1.19.325-1.672.665l4.702 3.29h-1.736l-3.723-2.609c-.11.129-.211.262-.305.404l3.151 2.205h-3.813v5h3.885l-3.885 2.766v1.234h3.332l3.668-2.568v2.568h5v-3.269l4.668 3.269h2.332v-2.029l-2.815-1.971h2.815v-5h-2.814l2.814-1.971z" fill="#eee"/><path d="m11 5h-3v5h-8v3h8v5h3v-5h8v-3h-8z" fill="#cf1b2b"/><path d="m19 5h-1.461l-5.539 3.879v.121h1.571l5.429-3.802zm-17.276.71c-.281.195-.534.423-.757.681l3.723 2.609h1.735zm4.713 8.29-5.703 4h1.727l4.539-3.178v-.822zm12.563 3.802v-1.22l-3.687-2.582h-1.743z" fill="#cf1b2b"/></svg>