<svg viewBox="0 0 36 36" xmlns="http://www.w3.org/2000/svg"><path d="m32 5h-28c-.205 0-.407.015-.604.045l-.004 1.754-2.73-.004c-.418.632-.662 1.39-.662 2.205v18c0 2.209 1.791 4 4 4h28c2.209 0 4-1.791 4-4v-18c0-2.209-1.791-4-4-4z" fill="#00247d"/><path d="m26.641 13.104c-.141-.401-1.062-.745-1.469-.589.469-.875 1.246-1.141 1.639-1.547s.408-.766.408-.766.359.609.719 1.172.846.875.846.875-1.268.382-2.143.855z" fill="#c0e6e9"/><path d="m26.826 13.019c0 .047-.038.085-.085.085s-.085-.038-.085-.085v-2.466c0-.047.038-.085.085-.085s.085.038.085.085z" fill="#ae7521"/><path d="m27.412 13.5c-.673 0-1.74-.031-1.834-.219s-.125-.672-.125-.672.797.391 1.875.391 1.766-.391 1.766-.391.008.659-.311.781c-.223.087-.605.11-1.371.11z" fill="#c7e9eb"/><path d="m22.609 16.312c-.125.312-.141.719.094.891.234.172.609-.172.609-.172s-.671-.062-.703-.719z" fill="#9fc2ff"/><path d="m24.141 16.844c-.297-.266-.918-.062-.918-.062s.074-.36.262-.469c-.516-.047-.789.094-.965.531-.207-.234.09-.812.09-.812s.672-.406 1.312 0c.531-.734.615-2-.028-1.891.169-.422 1.378-.157 1.148.57-.229.727-.604 1.008-.604 1.008s.627-.592 1.056-.327.616 1.505-.321 1.096c-.938-.409-1.109-.153-1.125 0-.017.153.093.356.093.356z" fill="#00a3d6"/><path d="m26.312 16.625c-.4 1.177-1.188 1.177-1.188 1.177s.047-.406.203-.588c-.672.255-1.609-.151-1.406-1.182.156.656.812.875 1.422.578.61-.298 1.03-.163.969.015z" fill="#9fc2ff"/><path d="m21.922 14.891c-.114-.186.158-.516.524-.391-.243.266-.132.531 0 .719s-.399-.125-.524-.328z" fill="#00a3d6"/><path d="m24.406 14.078c-.297-.094-.513.062-.513.062s-.159-.359-.644-.219-.781-.033-.781-.033.156.506.891.512c-.453.583-1.219.693-1.438.49.125.281.562.625.719.641.156.016.979-.47 1.156-1.031.031-.099.125.015 0 .21-.125.196-.234.415-.156.758.113-.19.359-.203.484-.5s.016-.609.281-.703c.267-.093.001-.187.001-.187z" fill="#9fc2ff"/><path d="m28.208 18.479c-.485 0-.521-.833-.521-.833s-.146.068-.562.419c-.417.351-1.042.419-1.042.419s-.479-.526.084-1.151c-.021-.625-.729-1.271-.729-1.271l-.583-.125s1.395-1.354 2.416-1.438 1.083.375 1 1.312.209 1.521.209 1.521.874 1.147-.272 1.147z" fill="#8da8c3"/><path d="m25.641 15.532c-.109.125-.105.171.205.156.311-.016.473.003.473.003s-.646.338-1.053.152c.062-.202.375-.311.375-.311zm2.266 2.015s.421-.266.577.188c.156.453-.02.5-.229.516-.208.015-.348-.704-.348-.704z" fill="#cc1530"/><path d="m29.359 16.234c-.138.305-.141.969.547 1.219.125-.5.032-.797-.547-1.219zm1.485.328c.156-.156.047-.766-.422-.531-.469.234-.68.172-.801.094.082-.141.41-.25.41-.25s-.6.047-.745-.453c.354.094.526 0 .526 0s-.195-.141-.191-.25c.27-.094.645.203.645.203s-.133-.219-.16-.734c-.027-.516.395-.695.707-.449-.297.356.047 1.043.188 1.637.578-.422 1.281-.328 1.312.328s-.172.5-.172.5.25-.625-.656-.531c.391.188.203.362.203.362s-.422-.113-.844.074z" fill="#9fc2ff"/><path d="m28.799 14.875c-.408-.046-.252.455-.846.657.141.062.423 0 .423 0s-.28.515 0 1.046c.249-.203.327-.547.327-.547s0 .599.312.885c.274-.353.141-.792.141-.792s.191.536.799.792c.607.255 1.014-.307 1.061-.604s-.094-.386-.094-.386-.512.48-.967.199c.201-.188.115-.291-.334-.325s-.559-.659-.605-.737c-.047-.079-.217-.188-.217-.188zm1.355-.54c.174-.46.768-.535.986-.396.406-.22.834.217 1.175.077-.143.328-.565.489-.784.385.266.38.972.635 1.234.405.263-.229.084.297-.45.472s-.909-.472-.909-.472.109.402 0 .571c-.406-.143-.617-.568-.605-.877s-.242-.534-.647-.165z" fill="#00a3d6"/><path d="m32.315 15.278c.419-.091.732-.436.747-.568.016-.132-.213-.534-.747-.309.466.177.378.749 0 .877z" fill="#9fc2ff"/><path d="m32.222 15.842c.325.439.231.908.169 1.001-.062.094-.546.262-.734-.062.405-.031.788-.386.565-.939z" fill="#00a3d6"/><path d="m27.428 14.922c-.714 0-1.786.356-1.786.356s-.037-.424-.267-.778-.333-.854-.333-.854.583.104.646.458-.021.667-.021.667l.708-.188s-.188-.305-.354-.083-.354-.604-.104-.729.909-.271.909-.271.05.604.091.75-.334.151-.334.151l.062.099h.625s-.208-.234-.208-.604c0-.405.438-.792.438-.792s.391.523.391.833-.233.563-.233.563l.55.104s.208-.417 0-.312-.209-.125-.125-.396.021-.521.021-.521l.854.396s.062.091 0 .42c-.062.33-.438.299-.438.299v.197l.562.146s-.167-.388 0-.642.729-.42.729-.42-.459.827-.729 1.507c-.345-.164-.94-.356-1.654-.356z" fill="#d9a323"/><path d="m27.437 18h-2.663v3.219c0 2.747 1.848 3.181 2.644 3.401v.005l.01-.003.009.003v-.005c.796-.221 2.644-.654 2.644-3.401v-3.219z" fill="#fff"/><path d="m27.418 18h-2.644v3.141h5.306v-3.141z" fill="#179af9"/><path d="m27.428 22.984s-.193-.984-1.053-1.844h2s-.77.782-.947 1.844z" fill="#179af9"/><path d="m27.428 19.297s-.193.984-1.053 1.844h2s-.77-.782-.947-1.844zm-.24 0c-.059.173-.406.5-.656.578s-.637.375-.686.516c-.049-.157.123-.391.123-.391s-.281.031-.312.391c-.031.359-.614.375-.614.375s.114-.5.411-.797.48-.125.662-.234-.068-.359.135-.641c.203-.281.75-.203.938-.422.062.172-.469.484-.547.516-.078.031-.109.219-.016.203s.421-.063.562-.094zm.479 0c.059.173.406.5.656.578s.637.375.686.516c.049-.157-.123-.391-.123-.391s.281.031.312.391c.031.359.614.375.614.375s-.114-.5-.411-.797-.48-.125-.662-.234.068-.359-.135-.641c-.203-.281-.75-.203-.938-.422-.062.172.469.484.547.516.078.031.109.219.016.203s-.421-.063-.562-.094z" fill="#fff"/><path d="m27.188 22.969c-.059-.173-.406-.5-.656-.578s-.637-.375-.686-.516c-.049.156.123.391.123.391s-.281-.031-.312-.391c-.031-.359-.614-.375-.614-.375s.114.5.411.797.48.125.662.234-.068.359.135.641c.203.281.75.203.938.422.062-.172-.469-.484-.547-.516-.078-.031-.109-.219-.016-.203s.421.063.562.094zm.479 0c.059-.173.406-.5.656-.578s.637-.375.686-.516c.049.156-.123.391-.123.391s.281-.031.312-.391c.031-.359.614-.375.614-.375s-.114.5-.411.797-.48.125-.662.234.068.359-.135.641c-.203.281-.75.203-.938.422-.062-.172.469-.484.547-.516.078-.031.109-.219.016-.203s-.421.063-.562.094z" fill="#179af9"/><path d="m25.656 16.031c.453.188.844-.062 1.25-.391.406-.328.846-.156.971-.109s-.143.043-.604.311c-.461.267-.68.351-.695.645-.016.294-.141.128-.203 0s-.078.216 0 .56-.057.755-.057.755-.117-1.078-.662-1.771z"/><path d="m21.234 18.594s.078-.234.391-.406.094-.312-.109-.297c-.203.016-.359.031-.578.594-.219.562-1.047 3 .297 4.312-.391-.188-.75-.953-.75-.953s.047.516.312 1.031c-.797-1.25-.703-2.578-.578-3.578s.422-1.641.875-1.672c.375-.562 1.062-.271 1.578.177s.766.87.766.87.068-.828.456-.75.95.359 1.028.562-.484.047-.594-.078c-.109-.125-.322-.266-.434-.141s-.191.688-.191.688.277-.516.443-.469.922.719.896.953-.229-.125-.433-.281c-.203-.156-.363-.438-.463-.391s-.459.875-.49.953.084.062.237-.149.325-.445.419-.445.742.891.73 1.094-.108.391-.188.438.036-.233-.151-.562-.359-.673-.438-.626c-.078.047-.438.609-.5.75s.406-.328.578-.25.424.967.431 1.25-.163.469-.25.547-.054-.281 0-.453-.071-.391-.118-.656c-.047-.266-.094-.516-.141-.438s-.766.703-.828.75.225 0 .456-.125.356-.109.388.125c.031.234.078.969-.281 1.172s.031-.25.078-.469.016-.688-.078-.641-.75.531-.953.609-.094.609.109.906.646.594.737.328.436-.547.631-.406c.194.141.101.406.101.406s.256 0 .229.281c-.026.281-.386.562-1.261.438s-1.969-.469-1.906-2c-.328-1.344-.078-1.922-.031-2.297s.188-.927.141-.971c-.047-.043-.406.067-.563.27zm12.436 0s-.078-.234-.391-.406-.094-.312.109-.297c.203.016.359.031.578.594.219.562 1.047 3-.297 4.312.391-.188.75-.953.75-.953s-.047.516-.312 1.031c.797-1.25.703-2.578.578-3.578s-.422-1.641-.875-1.672c-.375-.562-1.062-.271-1.578.177s-.766.87-.766.87-.068-.828-.456-.75-.95.359-1.028.562.484.047.594-.078c.109-.125.322-.266.434-.141s.191.688.191.688-.277-.516-.443-.469-.922.719-.895.953c.026.234.229-.125.433-.281.203-.156.363-.438.463-.391s.459.875.49.953-.084.062-.237-.149-.325-.445-.419-.445-.742.891-.731 1.094c.012.203.108.391.189.438.08.047-.036-.233.151-.562s.359-.673.438-.626c.078.047.438.609.5.75s-.406-.328-.578-.25-.424.967-.431 1.25.163.469.25.547.054-.281 0-.453.071-.391.118-.656c.047-.266.094-.516.141-.438s.766.703.828.75-.225 0-.456-.125-.356-.109-.388.125c-.031.234-.078.969.281 1.172s-.031-.25-.078-.469-.016-.688.078-.641.75.531.953.609.094.609-.109.906-.646.594-.737.328-.437-.547-.631-.406-.101.406-.101.406-.256 0-.229.281c.026.281.386.562 1.261.438.875-.125 1.969-.469 1.906-2 .328-1.344.078-1.922.031-2.297s-.188-.927-.141-.971c.046-.043.406.067.562.27z" fill="#d8ab6d"/><path d="m23.797 24.797c.128-.448 1.219-.859 1.562-.797.344.062.969.312.609.625-.359.312-1.125.578-1.641.688-.515.109-.624-.188-.53-.516zm7.282 0c-.128-.448-1.219-.859-1.562-.797-.344.062-.969.312-.609.625.359.312 1.125.578 1.641.688.514.109.624-.188.53-.516z" fill="#cc1530"/><path d="m31.402 24.203s-.484-.527-.953-.209-1.824 1.443-3.021 1.443-2.553-1.125-3.021-1.443c-.469-.318-.953.209-.953.209s.234.109.188.344c-.047.234 0 .641.253.725-.294-.729.731-.365 1.149.064.418.43 1.52.945 2.385.945s1.967-.516 2.385-.945c.418-.43 1.443-.793 1.149-.064.253-.084.3-.49.253-.725-.048-.235.186-.344.186-.344z" fill="#fbfae7"/><path d="m25.266 23.997c.55-.116 1.266.487 1.391.628s-.062.578-.281.406-.362-.205-.627-.249-.609-.395-.232-.532c-.161.188 0 .44.25.282.249-.157.045-.428-.501-.535zm4.421 0c-.55-.116-1.266.487-1.391.628s.062.578.281.406.362-.205.627-.249.609-.395.232-.532c.161.188 0 .44-.25.282-.249-.157-.046-.428.501-.535z" fill="#fbfae7"/><path d="m19 18v-13h-15c-.32 0-.604.045-.604.045l-.004 1.754-2.73-.004s-.042.059-.127.205c-.34.589-.535 1.272-.535 2v9z" fill="#00247d"/><path d="m19 5h-2.331l-4.669 3.269v-3.269h-5v2.569l-3.604-2.524c-.614.094-1.19.325-1.672.665l4.702 3.29h-1.736l-3.723-2.609c-.11.129-.211.262-.305.404l3.151 2.205h-3.813v5h3.885l-3.885 2.766v1.234h3.332l3.668-2.568v2.568h5v-3.269l4.668 3.269h2.332v-2.029l-2.815-1.971h2.815v-5h-2.814l2.814-1.971z" fill="#eee"/><g fill="#cf1b2b"><path d="m11 5h-3v5h-8v3h8v5h3v-5h8v-3h-8z"/><path d="m19 5h-1.461l-5.539 3.879v.121h1.571l5.429-3.802zm-17.276.71c-.281.195-.534.423-.757.681l3.723 2.609h1.735zm4.713 8.29-5.703 4h1.727l4.539-3.178v-.822zm12.563 3.802v-1.22l-3.687-2.582h-1.743z"/></g></svg>