<svg viewBox="0 0 36 36" xmlns="http://www.w3.org/2000/svg"><path d="m32 5h-8v26h8c2.209 0 4-1.791 4-4v-18c0-2.209-1.791-4-4-4z" fill="#dd2e44"/><path d="m4 5c-2.209 0-4 1.791-4 4v18c0 2.209 1.791 4 4 4h8v-26z" fill="#265fb5"/><path d="m12 5h12v26h-12z" fill="#ffcc4d"/><path d="m16 15h4v3h-4z" fill="#dd2e44"/><path d="m16 18v2l2 1 2-1v-2z" fill="#269"/><path d="m16 11v1h1v2h2v-3zm3 10-1 .625-1-.625-1 3 2 1 2-1zm-4-8-1-1-1 1v10l2-2v-7h1zm7-1-1 1-1 1h1v7l2 2v-10z" fill="#a0724a"/><path d="m16.234 17.594h.531v.406h-.531zm3 0h.531v.406h-.531z" fill="#ffcc4d"/><path d="m15.637 22.743c-.106.062-.263-.01-.35-.159l-2.232-3.866c-.086-.15-.07-.321.037-.383l.136-.078c.106-.062.263.01.349.159l2.232 3.867c.087.149.07.32-.036.382z" fill="#77b255"/><path d="m22.817 18.393c.107.061.125.23.039.377l-2.191 3.798c-.086.147-.24.216-.348.155l-.135-.078c-.106-.062-.124-.23-.039-.378l2.192-3.798c.085-.146.24-.217.347-.154z" fill="#ffcc4d"/><path d="m16 21-1 1v1l1-1zm4 0v1l1 1v-1z" fill="#dd2e44"/><path d="m18 17-1-1v2.958l1 1.042 1-1.042v-2.958z" fill="#ffcc4d"/></svg>