<svg viewBox="0 0 36 36" xmlns="http://www.w3.org/2000/svg"><path d="m36 32c0 2.209-1.791 4-4 4h-28c-2.209 0-4-1.791-4-4v-28c0-2.209 1.791-4 4-4h28c2.209 0 4 1.791 4 4z" fill="#3b88c3"/><path d="m8.917 10.117c-.155-.403-.217-.713-.217-1.147 0-1.302 1.147-2.232 2.387-2.232 1.055 0 1.706.682 2.108 1.519l4.806 12.898 4.807-12.898c.402-.837 1.053-1.519 2.107-1.519 1.24 0 2.387.93 2.387 2.232 0 .434-.06.744-.217 1.147l-6.789 17.271c-.404.992-.931 1.798-2.295 1.798s-1.891-.806-2.295-1.798z" fill="#fff"/></svg>