<svg viewBox="0 0 36 36" xmlns="http://www.w3.org/2000/svg"><path d="m36 32c0 2.209-1.791 4-4 4h-28c-2.209 0-4-1.791-4-4v-28c0-2.209 1.791-4 4-4h28c2.209 0 4 1.791 4 4z" fill="#dd2e44"/><path d="m17.929 6.327c.572 0 1.145.208 1.482.624 2.782 3.614 6.267 6.059 10.271 7.957.416.182.624.546.624.936 0 .156-.026.338-.104.52-.182.39-.572.65-.988.65-.155 0-.338-.026-.493-.104-4.212-2.132-8.06-5.174-10.453-8.32-.13-.156-.233-.234-.338-.234-.104 0-.208.078-.311.208-2.341 3.198-6.345 6.474-10.349 8.346-.156.078-.338.13-.494.13-.39 0-.729-.208-.937-.624-.077-.156-.104-.312-.104-.468 0-.39.234-.78.65-.962 4.056-1.924 7.488-4.654 10.036-8.035.338-.416.935-.624 1.508-.624zm6.292 12.923c1.586 0 2.315.676 2.315 2.234v5.721c0 1.586-.729 2.236-2.315 2.236h-12.428c-1.587 0-2.314-.65-2.314-2.236v-5.721c0-1.559.728-2.234 2.314-2.234zm-.598 8.32c.546 0 .832-.156.832-.728v-4.992c0-.572-.286-.729-.832-.729h-11.259c-.546 0-.806.156-.806.729v4.992c0 .572.26.728.806.728zm-.363-13.157c.467 0 .754.442.754.962 0 .546-.287.962-.754.962h-10.531c-.494 0-.754-.416-.754-.962 0-.521.26-.962.754-.962z" fill="#fff"/></svg>