<svg viewBox="0 0 36 36" xmlns="http://www.w3.org/2000/svg"><path d="m36 32c0 2.209-1.791 4-4 4h-28c-2.209 0-4-1.791-4-4v-28c0-2.209 1.791-4 4-4h28c2.209 0 4 1.791 4 4z" fill="#269"/><path d="m9.465 22.721c-.468 0-.754-.338-.754-.885 0-.572.286-.935.754-.935h17.109c.468 0 .754.363.754.91s-.286.91-.754.91h-7.67v4.889h9.959c.494 0 .754.363.754.91 0 .545-.26.936-.754.936h-21.712c-.468 0-.754-.391-.754-.936 0-.572.286-.91.754-.91h9.698v-4.889zm17.421-13.469c1.534 0 2.288.676 2.288 2.158v1.612c0 .494-.364.728-.962.728s-.988-.234-.988-.728v-1.196c0-.572-.312-.754-.832-.754h-5.277v4.498c0 .832.129.936 2.625.936 2.08 0 2.341-.156 2.652-.468.183-.182.234-.624.26-1.17.053-.416.339-.598.78-.598.078 0 .156 0 .261.026.598.052.91.364.91.832v.13c-.078.91-.286 1.742-.625 2.106-.468.52-1.144.884-3.873.91h-.547c-1.586 0-2.704-.104-3.406-.364-.701-.26-.988-.754-.988-1.664v-5.174h-3.042c-.208 4.524-2.808 7.098-7.93 8.424-.13.053-.234.053-.338.053-.442 0-.754-.26-.858-.729-.026-.104-.052-.234-.052-.338 0-.416.286-.702.754-.806 4.316-1.066 6.318-3.12 6.5-6.604h-4.525c-.546 0-.832.182-.832.754v2.184c0 .52-.416.78-1.014.78s-.962-.26-.962-.78v-2.6c0-1.482.754-2.158 2.288-2.158h7.722v-2.288c0-.494.364-.728.988-.728s.988.234.988.728v2.288z" fill="#fff"/></svg>