<svg viewBox="0 0 36 36" xmlns="http://www.w3.org/2000/svg"><path d="m33.398 23.678c-7.562 4.875-20.062-.438-18.375-8.062 1.479-6.684 9.419-4.763 11.225-3.861s.713-3.889-3.475-5.327c-5.673-1.948-12.617-1.535-14.812 8.25-1.5 6.687 1.438 16.062 12.719 16.187s12.718-7.187 12.718-7.187z" fill="#269"/><path d="m35.988 25.193c0-2.146-2.754-2.334-4-1.119-2.994 2.919-7.402 4.012-13.298 2.861-10.25-2-10.341-14.014-3.333-17.441 3.791-1.854 8.289.341 9.999 1.655 1.488 1.143 4.334 2.66 4.185.752-.318-4.062-8.279-12.761-18.946-7.261-10.666 5.5-10.595 17.913-10.595 20.163v7.25c0 2.209 1.814 3.947 4.023 3.947h28c2.209 0 3.977-1.738 3.977-3.947 0 0-.004-6.854-.012-6.86z" fill="#55acee"/></svg>