<svg viewBox="0 0 36 36" xmlns="http://www.w3.org/2000/svg"><path d="m0 18c0 9.941 8.059 18 18 18 .295 0 .58-.029.87-.043 5.891-2.564 10.13-9.625 10.13-17.957 0-8.331-4.239-15.393-10.13-17.956-.29-.014-.575-.044-.87-.044-9.941 0-18 8.059-18 18z" fill="#ffd983"/><path d="m29 18c0-8.331-4.239-15.393-10.13-17.956 9.534.457 17.13 8.309 17.13 17.956 0 9.646-7.594 17.498-17.128 17.956 5.89-2.565 10.128-9.625 10.128-17.956z" fill="#66757f"/><g fill="#ffcc4d"><circle cx="10.5" cy="8.5" r="3.5"/><circle cx="20" cy="16" r="3"/><circle cx="21.5" cy="27.5" r="3.5"/><circle cx="21" cy="6" r="2"/><circle cx="3" cy="18" r="1"/></g><circle cx="30" cy="9" fill="#5b6876" r="1"/><circle cx="15" cy="31" fill="#ffcc4d" r="1"/><circle cx="32" cy="19" fill="#5b6876" r="2"/><circle cx="10" cy="23" fill="#ffcc4d" r="2"/></svg>