<svg viewBox="0 0 36 36" xmlns="http://www.w3.org/2000/svg"><path d="m12 7c-6.626 0-12 7.164-12 16h6v6h17.119c.564-1.854.881-3.877.881-6 0-8.836-5.373-16-12-16z" fill="#ffe8b6"/><path d="m29 21h4.896c-.74-7.89-5.778-14-11.896-14-6.627 0-12 7.164-12 16 0 2.123.317 4.146.88 6h18.12z" fill="#ffe8b6"/><path d="m36 23c0-8.836-5.373-16-12-16-6.626 0-12 7.164-12 16 0 2.123.317 4.146.88 6h17.12c3.314 0 6-2.685 6-6z" fill="#ffac33"/><path d="m6 23h10v6h-10z" fill="#ffac33"/><path d="m0 23c0-3.312 2.687-6 6-6s6 2.687 6 6c0 3.315-2.687 6-6 6s-6-2.685-6-6z" fill="#ffe8b6"/><path d="m14 7c-6.626 0-12 7.164-12 16 0 2.21 1.791 4 4 4s4-1.79 4-4c0-6.963 3.342-12.871 8-15.069-1.253-.592-2.595-.931-4-.931z" fill="#ffac33"/><circle cx="4" cy="23" fill="#d99e82" r="1"/><path d="m9.975 23.25c-.12-.709-.732-1.25-1.475-1.25-.18 0-.35.037-.51.095.002-.033.01-.063.01-.095 0-1.104-.896-2-2-2s-2 .896-2 2c0 .525.207 1 .539 1.357-.327.276-.539.682-.539 1.143 0 .678.453 1.244 1.07 1.43.167.557.651.962 1.241 1.039 1.978-.156 3.54-1.733 3.664-3.719z" fill="#c1694f"/><path d="m9.5 21c-.828 0-1.5.672-1.5 1.5s.672 1.5 1.5 1.5c.13 0 .254-.021.375-.053.075-.305.125-.619.125-.947 0-.637.037-1.261.091-1.878-.181-.078-.38-.122-.591-.122z" fill="#d99e82"/><ellipse cx="6.5" cy="20" fill="#ffcc4d" rx="1.5" ry="1"/><circle cx="7" cy="21" fill="#ffcc4d" r="1"/><circle cx="9" cy="21" fill="#c1694f" r="1"/><circle cx="5" cy="22" fill="#d99e82" r="1"/><circle cx="7" cy="22" fill="#d99e82" r="1"/><circle cx="8" cy="20" fill="#ffd983" r="1"/><circle cx="7" cy="18" fill="#ffe8b6" r="1"/><circle cx="6" cy="20" fill="#ffe8b6" r="1"/><circle cx="9" cy="18" fill="#ffd983" r="1"/><circle cx="9" cy="20" fill="#ffd983" r="1"/><circle cx="9" cy="19" fill="#ffd983" r="1"/><circle cx="9" cy="19" fill="#ffe8b6" r="1"/><path d="m10.572 12.453c-.272-.279-.651-.453-1.072-.453-.738 0-1.348.533-1.473 1.235-.215-.139-.478-.235-.777-.235-.69 0-1.25.448-1.25 1 0 .19.084.358.2.51-.123.146-.2.311-.2.49-.552 0-1 .448-1 1 0 .202.075.379.178.537-.11.139-.178.295-.178.463 0 .552.671 1 1.5 1 .43 0 .815-.122 1.089-.316.254.195.567.316.911.316.198 0 .385-.041.558-.11.163.602.69 1.042 1.331 1.091.495-2.544 1.45-4.835 2.738-6.72-.321-.164-.708-.261-1.127-.261-.56 0-1.065.174-1.428.453z" fill="#77b255"/><circle cx="8" cy="15" fill="#a6d388" r="1"/><path d="m10 13.5c0 .276-.224.5-.5.5s-.5-.223-.5-.5c0-.276.224-.5.5-.5s.5.224.5.5z" fill="#a6d388"/><circle cx="6.5" cy="16.5" fill="#a6d388" r=".5"/><path d="m10 16.5c0 .276-.224.5-.5.5s-.5-.223-.5-.5.224-.5.5-.5.5.224.5.5z" fill="#a6d388"/><circle cx="10" cy="15" fill="#a6d388" r="1"/><circle cx="9" cy="12" fill="#dd2e44" r="1"/><circle cx="11" cy="12" fill="#ffd983" r="1"/><circle cx="12" cy="10" fill="#ffd983" r="1"/><circle cx="9" cy="14" fill="#ffd983" r="1"/><path d="m15 9c-.552 0-1 .448-1 1 0 .035.016.064.02.098-.162-.06-.336-.098-.52-.098-.829 0-1.5.671-1.5 1.5 0 .561.311 1.043.767 1.301.845-1.354 1.856-2.513 2.989-3.436-.183-.218-.448-.365-.756-.365z" fill="#a6d388"/><circle cx="12" cy="11" fill="#dd2e44" r="1"/><ellipse cx="14" cy="9" fill="#dd2e44" rx="1" ry="1" transform="matrix(.16020853 -.98708319 .98708319 .16020853 2.873332 21.377288)"/><g fill="#f4900c"><circle cx="17" cy="25" r="1"/><circle cx="13" cy="28" r="1"/><circle cx="19" cy="28" r="1"/><circle cx="22" cy="27" r="1"/><circle cx="26" cy="27" r="1"/><circle cx="29" cy="28" r="1"/><circle cx="31" cy="26" r="1"/><circle cx="21" cy="22" r="1"/><circle cx="15" cy="22" r="1"/><circle cx="34" cy="24" r="1"/><circle cx="17" cy="18" r="1"/><circle cx="22" cy="16" r="1"/><path d="m20 12c0 .552-.447 1-1 1-.552 0-1-.448-1-1s.448-1 1-1c.553 0 1 .448 1 1z"/><circle cx="27" cy="13" r="1"/><circle cx="24" cy="10" r="1"/><circle cx="31" cy="19" r="1"/><circle cx="26" cy="19" r="1"/><circle cx="24" cy="23" r="1"/><circle cx="29" cy="22" r="1"/></g></svg>