<svg viewBox="0 0 36 36" xmlns="http://www.w3.org/2000/svg"><path d="m28 4c-.825 0-1.62.125-2.369.357-.887-2.535-3.293-4.357-6.131-4.357-3.044 0-5.592 2.096-6.299 4.921-.754-.57-1.682-.921-2.701-.921-2.485 0-4.5 2.015-4.5 4.5 0 .604.123 1.178.339 1.704-.429-.119-.872-.204-1.339-.204-2.762 0-5 2.238-5 5s2.238 5 5 5h23c4.418 0 8-3.581 8-8 0-4.418-3.582-8-8-8z" fill="#e1e8ed"/><path d="m11.999 24.961-.113-3.421-2.87 1.708c-.638.345-1.062 1.024-1.036 1.799.037 1.103.966 1.976 2.076 1.953 1.109-.023 1.98-.937 1.943-2.039zm-1.979 7.46-.113-3.421-2.87 1.708c-.638.345-1.062 1.024-1.036 1.799.037 1.103.966 1.976 2.076 1.953s1.98-.937 1.943-2.039zm-5-4.46-.113-3.421-2.87 1.708c-.638.345-1.062 1.024-1.036 1.799.037 1.102.966 1.975 2.076 1.953 1.11-.023 1.98-.937 1.943-2.039zm18-3-.113-3.421-2.869 1.708c-.639.345-1.062 1.024-1.036 1.799.037 1.103.966 1.976 2.076 1.953 1.109-.023 1.979-.937 1.942-2.039zm-6.021 4-.113-3.421-2.869 1.708c-.639.345-1.062 1.024-1.036 1.799.037 1.103.966 1.976 2.076 1.953 1.109-.023 1.979-.937 1.942-2.039zm5.021 4.46-.114-3.421-2.869 1.708c-.639.345-1.062 1.024-1.036 1.799.037 1.103.966 1.976 2.076 1.953s1.98-.937 1.943-2.039zm6.979-5.46-.113-3.421-2.869 1.708c-.639.345-1.062 1.024-1.036 1.799.037 1.103.966 1.976 2.076 1.953 1.109-.023 1.979-.937 1.942-2.039z" fill="#5dadec"/></svg>