<svg viewBox="0 0 36 36" xmlns="http://www.w3.org/2000/svg"><path d="m13 2s0-2 2-2 2 2 2 2v2s0 2-2 2-2-2-2-2zm-9 11s2 0 2 2-2 2-2 2h-2s-2 0-2-2 2-2 2-2zm3.872-6.957s1.414 1.414 0 2.828-2.828 0-2.828 0l-1.415-1.413s-1.414-1.414 0-2.829c1.415-1.414 2.829 0 2.829 0zm17.085 2.828s-1.414 1.414-2.828 0 0-2.828 0-2.828l1.414-1.414s1.414-1.414 2.828 0 0 2.828 0 2.828z" fill="#ffac33"/><circle cx="15" cy="15" fill="#ffac33" r="8"/><path d="m28.223 12.8c-.803 0-1.575.119-2.304.34-.862-2.409-3.201-4.14-5.961-4.14-2.959 0-5.437 1.991-6.123 4.675-.733-.542-1.636-.875-2.626-.875-2.417 0-4.375 1.914-4.375 4.275 0 .573.12 1.119.329 1.619-.417-.113-.848-.194-1.302-.194-2.685-0-4.861 2.126-4.861 4.75s2.176 4.75 4.861 4.75h22.361c4.296 0 7.778-3.402 7.778-7.6s-3.482-7.6-7.777-7.6z" fill="#e1e8ed"/><path d="m11.999 33.961-.113-3.421-2.869 1.708c-.639.345-1.062 1.024-1.036 1.799.037 1.102.966 1.976 2.076 1.953 1.109-.023 1.979-.937 1.942-2.039zm-6.979-1.54-.114-3.421-2.869 1.708c-.639.345-1.063 1.024-1.036 1.799.037 1.103.966 1.976 2.076 1.953s1.98-.937 1.943-2.039zm14 .54-.113-3.421-2.869 1.708c-.639.345-1.062 1.024-1.036 1.799.037 1.102.966 1.976 2.076 1.953 1.109-.023 1.979-.937 1.942-2.039zm5.978 1-.113-3.421-2.869 1.708c-.639.345-1.062 1.024-1.035 1.799.037 1.102.965 1.976 2.076 1.953 1.109-.023 1.978-.937 1.941-2.039zm6.021-1.54-.114-3.421-2.869 1.708c-.639.345-1.062 1.024-1.035 1.799.037 1.103.965 1.976 2.076 1.953 1.11-.023 1.979-.937 1.942-2.039z" fill="#5dadec"/></svg>