<svg viewBox="0 0 36 36" xmlns="http://www.w3.org/2000/svg"><path d="m13 6s0-2 2-2 2 2 2 2v2s0 2-2 2-2-2-2-2zm-9 11s2 0 2 2-2 2-2 2h-2s-2 0-2-2 2-2 2-2zm3.872-6.957s1.414 1.414 0 2.828-2.828 0-2.828 0l-1.415-1.414s-1.414-1.414 0-2.829c1.415-1.414 2.829 0 2.829 0zm17.085 2.828s-1.414 1.414-2.828 0 0-2.828 0-2.828l1.414-1.414s1.414-1.414 2.828 0 0 2.828 0 2.828z" fill="#ffac33"/><circle cx="15" cy="19" fill="#ffac33" r="8"/><path d="m28.223 16.8c-.803 0-1.575.119-2.304.34-.862-2.409-3.201-4.14-5.961-4.14-2.959 0-5.437 1.991-6.123 4.675-.733-.542-1.636-.875-2.626-.875-2.417 0-4.375 1.914-4.375 4.275 0 .573.12 1.118.329 1.618-.417-.113-.848-.193-1.302-.193-2.685 0-4.861 2.126-4.861 4.75s2.176 4.75 4.861 4.75h22.361c4.296 0 7.778-3.402 7.778-7.6s-3.482-7.6-7.777-7.6z" fill="#e1e8ed"/></svg>