<svg viewBox="0 0 36 36" xmlns="http://www.w3.org/2000/svg"><path d="m16 2s0-2 2-2 2 2 2 2v2s0 2-2 2-2-2-2-2zm18 14s2 0 2 2-2 2-2 2h-2s-2 0-2-2 2-2 2-2zm-30 0s2 0 2 2-2 2-2 2h-2s-2 0-2-2 2-2 2-2zm5.121-8.707s1.414 1.414 0 2.828-2.828 0-2.828 0l-1.415-1.413s-1.414-1.414 0-2.829c1.415-1.414 2.829 0 2.829 0zm20.587 2.828s-1.414 1.414-2.828 0 0-2.828 0-2.828l1.414-1.414s1.414-1.414 2.828 0 0 2.828 0 2.828zm-21 21s-1.414 1.414-2.828 0 0-2.828 0-2.828l1.414-1.414s1.414-1.414 2.828 0 0 2.828 0 2.828z" fill="#ffac33"/><circle cx="18" cy="18" fill="#ffac33" r="10"/><path d="m29.777 23.2c-.642 0-1.26.1-1.843.285-.688-2.028-2.56-3.485-4.767-3.485-2.368 0-4.35 1.678-4.899 3.937-.586-.456-1.309-.736-2.101-.736-1.933 0-3.5 1.611-3.5 3.6 0 .483.096.941.264 1.363-.334-.097-.679-.164-1.042-.164-2.148 0-3.889 1.791-3.889 4s1.741 4 3.889 4h17.889c3.436 0 6.222-2.864 6.222-6.4 0-3.535-2.786-6.4-6.223-6.4z" fill="#e1e8ed"/></svg>