<svg viewBox="0 0 36 36" xmlns="http://www.w3.org/2000/svg"><path d="m22 33c0 2.209-1.791 3-4 3s-4-.791-4-3l1-9c0-2.209.791-2 3-2s3-.209 3 2z" fill="#662113"/><path d="m34 17c0 8.837-7.163 12-16 12-8.836 0-16-3.163-16-12 0-8.836 9-17 16-17s16 8.164 16 17z" fill="#5c913b"/><g fill="#3e721d"><ellipse cx="6" cy="21" rx="2" ry="1"/><ellipse cx="30" cy="21" rx="2" ry="1"/><ellipse cx="10" cy="25" rx="2" ry="1"/><ellipse cx="14" cy="22" rx="2" ry="1"/><ellipse cx="10" cy="16" rx="2" ry="1"/><ellipse cx="7" cy="12" rx="2" ry="1"/><ellipse cx="29" cy="12" rx="2" ry="1"/><ellipse cx="14" cy="10" rx="2" ry="1"/><ellipse cx="22" cy="10" rx="2" ry="1"/><ellipse cx="26" cy="16" rx="2" ry="1"/><ellipse cx="18" cy="17" rx="2" ry="1"/><ellipse cx="22" cy="22" rx="2" ry="1"/><ellipse cx="18" cy="26" rx="2" ry="1"/><ellipse cx="26" cy="25" rx="2" ry="1"/></g></svg>