<svg viewBox="0 0 36 36" xmlns="http://www.w3.org/2000/svg"><path d="m31.924 10.982c4.418 7.652 1.99 17.326-5.424 21.607-7.414 4.28-16.505 2.413-20.924-5.241-4.999-8.66-2.49-18.192 4.924-22.472s17.924.044 21.424 6.106z" fill="#a6d388"/><path d="m24 6c3 1 6 4 8 7 .836 1.254.729-.078-.294-2.348-3.686-5.884-13.929-9.977-21.206-5.776-3.01 1.738-5.194 4.349-6.413 7.408.721-.813 1.433-1.284 1.913-1.284 1 0-1.896 3.279 1 11 3 8 3 4 3 4s-2-9-1-12 2-5 3-4 5 9 7 14c2.259 5.647 2-1-1-8-2.841-6.628-3-8-2-8s3.465 1.464 7 5c2 2 3 5 4 6s1-1 0-4c-.707-2.121-3-6-6-8-2.496-1.664 0-2 3-1z" fill="#77b255"/><path d="m11.934 6.358c-.479.276-1.091.112-1.367-.366-1.104-1.914-1.26-4.303-1.266-4.404-.033-.55.387-1.022.937-1.058.552-.034 1.025.385 1.061.936.001.021.137 2.027 1.001 3.525.275.479.112 1.091-.366 1.367z" fill="#5c913b"/><path d="m11.961 30.533c-.961-.533-1.727-1.976-2.409-3.225s.276-1.276.886-.159c.681 1.249 1.204 1.612 1.886 2.861s.194.832-.363.523zm9.543.373c-.874-2.059-.812-3.057-1.686-5.114-.874-2.059-.749-4.055.124-1.997.874 2.059 1.748 4.118 1.687 5.115-.064.999-.125 1.996-.125 1.996zm5.496-11.906c1 3 0 2 1 5s1 5 1 0c0-3.162-1-6-2-7-1.581-1.581 0 2 0 2z" fill="#77b255"/></svg>