<svg viewBox="0 0 36 36" xmlns="http://www.w3.org/2000/svg"><path d="m7.22 9.12c-2.48 6.42.72 13.66 7.13 16.14s13.65-.72 16.14-7.14z" fill="#c6e5b3"/><path d="m15.86 24.03c2.18.63 4.43.54 6.46-.16.35-.12.53-.51.38-.85l-3.22-7.3c-.23-.51-.96-.5-1.16.03-.81 2.1-2.3 5.95-2.88 7.45-.14.34.06.73.42.83zm-7.34-13.68c-.72 2.27-.64 4.62.08 6.74.12.35.51.53.85.38l7.65-3.38c.51-.23.49-.96-.03-1.16l-7.73-2.99a.626.626 0 0 0 -.82.41zm19.84 6.95-7.73-2.99c-.52-.2-1.03.33-.8.84l3.38 7.65c.15.34.56.47.89.29 1.96-1.08 3.6-2.77 4.6-4.93.15-.34 0-.73-.34-.86zm-18.98 1.56c1.04 1.88 2.64 3.46 4.68 4.47.33.17.74.02.87-.33.58-1.5 2.07-5.35 2.88-7.45.2-.52-.33-1.03-.84-.8l-7.3 3.23c-.34.14-.47.56-.29.88z" fill="#77b255"/><path d="m30.49 18.12c-2.48 6.42-9.72 9.62-16.14 7.13s-9.62-9.72-7.13-16.13l-.85-.33a.72.72 0 0 0 -.94.41l-.26.65c-2.8 7.23.62 15.49 7.82 18.38 7.31 2.94 15.59-.67 18.43-8l.33-.85c.15-.38-.04-.8-.42-.94z" fill="#4e932b"/></svg>