<svg viewBox="0 0 36 36" xmlns="http://www.w3.org/2000/svg"><path d="m9.999 12c-.15 0-.303-.034-.446-.106-4.38-2.19-7.484-7.526-8.501-10.578-.176-.524.108-1.09.632-1.265.525-.176 1.091.109 1.265.632.877 2.632 3.688 7.517 7.499 9.422.494.247.694.848.447 1.342-.176.351-.529.553-.896.553z" fill="#77b255"/><circle cx="19" cy="29" fill="#553788" r="7"/><circle cx="10" cy="15" fill="#9266cc" r="7"/><circle cx="19" cy="12" fill="#aa8dd8" r="7"/><circle cx="27" cy="18" fill="#744eaa" r="7"/><circle cx="9" cy="26" fill="#744eaa" r="7"/><g fill="#9266cc"><circle cx="18" cy="21" r="7"/><circle cx="29" cy="29" r="7"/></g></svg>