<svg viewBox="0 0 36 36" xmlns="http://www.w3.org/2000/svg"><path d="m2.472 6.572c-.944 2.126-1.472 4.466-1.472 6.928 0 9.665 8.059 17.5 18 17.5 7.746 0 14.33-4.767 16.868-11.44z" fill="#5c913b"/><path d="m4.332 7.295c-.853 1.902-1.332 3.998-1.332 6.205 0 8.591 7.164 15.556 16 15.556 6.904 0 12.77-4.26 15.013-10.218z" fill="#ffe8b6"/><path d="m6.191 8.019c-.761 1.678-1.191 3.529-1.191 5.481 0 7.518 6.268 13.611 14 13.611 6.062 0 11.21-3.753 13.156-8.995z" fill="#dd2e44"/><path d="m9.916 14.277c-.307.46-.741.708-.971.555s-.168-.649.139-1.109.741-.708.971-.555.168.649-.139 1.109zm6 1c-.307.46-.741.708-.971.555s-.168-.649.139-1.109.741-.708.971-.555.168.649-.139 1.109zm5.082 4.678c.05.551-.132 1.016-.406 1.041-.275.025-.538-.4-.588-.951-.051-.551.132-1.016.406-1.04.275-.026.538.398.588.95zm-9-2c.05.551-.132 1.016-.406 1.041-.275.025-.538-.4-.588-.951s.132-1.016.406-1.04c.276-.026.538.398.588.95zm3.901 5.346c-.333.441-.78.663-1 .497-.221-.166-.129-.658.205-1.099.333-.441.781-.663 1-.497.221.166.13.657-.205 1.099zm8.036.454c.273.481.299.979.06 1.115-.241.137-.656-.143-.929-.624-.273-.48-.299-.979-.059-1.115.241-.138.655.141.928.624zm-7.017-5.028c.303.463.362.958.131 1.109-.231.152-.663-.1-.966-.562s-.361-.958-.131-1.108c.231-.154.663.097.966.561zm8.981 1.574c-.333.441-.78.663-1.001.497s-.129-.658.205-1.099c.333-.442.78-.663 1-.497.222.166.131.657-.204 1.099z"/></svg>