<svg viewBox="0 0 36 36" xmlns="http://www.w3.org/2000/svg"><path d="m27 33c0 2.209-1.791 3-4 3h-10c-2.209 0-4-.791-4-3s3-7 3-13 12-6 12 0 3 10.791 3 13z" fill="#f2c994"/><path d="m34.666 11.189-.001-.002c-.96-2.357-2.404-4.453-4.208-6.182h-.003c-3.232-3.101-7.615-5.005-12.454-5.005-4.362 0-8.361 1.541-11.476 4.115-2.19 1.809-3.941 4.13-5.076 6.785-.93 2.175-1.448 4.573-1.448 7.1 0 2.209 1.791 4 4 4h28c2.209 0 4-1.791 4-4 0-2.417-.48-4.713-1.334-6.811z" fill="#c1694f"/><path d="m11.771 10.934c1.546-1.547 1.86-3.74.7-4.9s-3.353-.846-4.9.7c-1.546 1.546-1.86 3.74-.7 4.9s3.354.846 4.9-.7z" fill="#cc927a"/></svg>