<svg viewBox="0 0 36 36" xmlns="http://www.w3.org/2000/svg"><circle cx="18" cy="18" fill="#c1694f" r="17"/><path d="m27.258 27.642c-.461.316-1.091.199-1.406-.263-.316-.46-.198-1.091.262-1.406l1.67-1.144c.46-.315 1.089-.198 1.405.263.315.46.198 1.091-.263 1.405zm2.438-7.095c-.512-.207-.758-.792-.549-1.303s.793-.757 1.304-.549l1.852.755c.511.208.757.791.549 1.303s-.792.758-1.304.549zm-4.494-5.256c-.519-.21-.767-.801-.555-1.318.209-.517.801-.766 1.316-.556l1.875.764c.516.211.765.801.554 1.318s-.8.766-1.318.555zm-21.001 7c-.517-.21-.766-.801-.554-1.318.21-.517.801-.766 1.317-.556l1.873.764c.518.211.766.801.556 1.318-.211.518-.802.767-1.318.556zm3.557-6.149c-.461.316-1.091.199-1.406-.264-.315-.46-.198-1.09.262-1.405l1.67-1.144c.46-.315 1.089-.198 1.405.263.315.46.198 1.091-.263 1.406zm9.028 3.739c-.767-.312-1.137-1.188-.824-1.956.314-.766 1.189-1.135 1.956-.823l2.778 1.134c.767.312 1.136 1.186.824 1.953-.312.768-1.188 1.137-1.956.824zm-6.184 6.052c.522-.199 1.106.062 1.306.586.197.519-.066 1.105-.588 1.303l-1.892.721c-.519.199-1.104-.063-1.302-.586-.2-.524.062-1.107.585-1.307z" fill="#e29386"/><path d="m24 19h-12c-1.104 0-2 .896-2 2v11.998c2.385 1.275 5.106 2.002 8 2.002 2.893 0 5.615-.727 8-2.002v-11.998c0-1.104-.896-2-2-2z" fill="#292f33"/></svg>