<svg viewBox="0 0 36 36" xmlns="http://www.w3.org/2000/svg"><path d="m18 20.411c-9.371 0-16.967-.225-16.967 6.427-0 6.649 7.596 8.162 16.967 8.162s16.967-1.513 16.967-8.162c0-6.651-7.596-6.427-16.967-6.427z" fill="#d99e82"/><path d="m34.47 20.916s-8.219-.984-16.47-1.026c-8.251.042-16.47 1.026-16.47 1.026-.813 6.474 5.937 9.141 16.47 9.141s17.283-2.667 16.47-9.141z" fill="#662113"/><path d="m33.886 18.328-31.855.646c-1.1 0-2.021 2.229-.854 2.812 8.708 2.708 15.708 5.448 15.708 5.448.962.532 1.287.534 2.25.003 0 0 9.666-3.868 15.875-5.493.881-.23-.025-3.416-1.124-3.416z" fill="#ffcc4d"/><path d="m34.725 18.412c-1.9-1.751-1.79-.819-3.246-1.23-.553-.156-4.51-5.271-13.529-5.271h-.02c-9.019 0-12.976 5.115-13.529 5.271-1.456.411-1.346-.521-3.246 1.23-.872.804-1.108 1.222-.188 1.43 1.386.313 1.26 1.152 2.253 1.444 1.202.353 1.696-.292 3.634-.028 1.653.225 1.761 2.369 3.429 2.369s1.668-.8 3.335-.8 2.653 2.146 4.321 2.146 2.653-2.146 4.321-2.146 1.668.8 3.335.8c1.668 0 1.776-2.144 3.429-2.369 1.938-.263 2.433.381 3.634.028.993-.292.867-1.13 2.253-1.444.922-.207.687-.626-.186-1.43z" fill="#77b255"/><path d="m34.077 16.52c0 2.984-7.198 4.393-16.077 4.393s-16.077-1.409-16.077-4.393c0-5.403.966-5.403 16.077-5.403s16.077.001 16.077 5.403z" fill="#dd2e44"/><path d="m18 .524c-9.371 0-16.967 4.391-16.967 11.042 0 6.125 7.596 6.375 16.967 6.375s16.967-.25 16.967-6.375c0-6.652-7.596-11.042-16.967-11.042z" fill="#d99e82"/><path d="m10.784 3.695c-.498-.319-1.159-.173-1.477.325s-.173 1.16.325 1.477c.498.319 1.76.557 2.079.059.318-.498-.429-1.543-.927-1.861zm9.734-1.035c-.562.182-1.549 1.006-1.366 1.568s1.464.648 2.026.466.869-.786.686-1.348c-.182-.561-.786-.869-1.346-.686zm10.909 7.035c-.452-.38-1.585.225-1.966.677-.38.453-.321 1.127.131 1.507s1.127.321 1.507-.131c.381-.453.781-1.673.328-2.053zm-3.643-5c-.498-.318-1.159-.172-1.478.326-.318.498-.172 1.159.326 1.477.498.319 1.76.557 2.078.059.319-.499-.428-1.544-.926-1.862zm-15 7c-.498-.318-1.159-.172-1.478.326-.318.497-.172 1.159.326 1.476.498.319 1.76.558 2.078.059.319-.498-.428-1.543-.926-1.861zm3.046-4.808c-.336.486-.62 1.739-.133 2.075.486.336 1.557-.374 1.893-.86s.213-1.152-.273-1.488c-.485-.336-1.152-.213-1.487.273zm7.954 4.808c-.498-.318-1.159-.172-1.478.326-.318.497-.172 1.16.326 1.476.498.319 1.76.558 2.078.059.319-.498-.428-1.543-.926-1.861zm-18.836-3.887c-.394.441-.833 1.648-.392 2.042.439.394 1.591-.174 1.985-.615.395-.44.357-1.116-.083-1.511-.439-.394-1.116-.356-1.51.084z" fill="#ffe8b6"/></svg>