<svg viewBox="0 0 36 36" xmlns="http://www.w3.org/2000/svg"><path d="m18 2c-8.284 0-15 4.492-15 12.5 0 .059.052.758.125 1.509.266-.014 14.875 11.991 14.875 11.991s14.607-12.006 14.871-11.992c.05-.494.129-1.431.129-1.508 0-8.008-6.716-12.5-15-12.5z" fill="#be1931"/><path d="m30.166 11.509c-.333-.038-.649.04-.918.196-.003-.432-.059-.811-.202-1.104l.376-1.128c.262-.786-.162-1.635-.948-1.897-.351-.119-.713-.093-1.032.036-.192-.72-.884-1.206-1.645-1.1-.123.017-.238.052-.348.096-.153-.565-.63-1.012-1.246-1.096-.831-.111-1.578.463-1.689 1.284l-.314 2.306c-.296-.397-.779-.642-1.306-.6-.643.046-1.157.491-1.329 1.075l-.073-.728c-.083-.825-.825-1.427-1.642-1.343-.816.082-1.412.804-1.343 1.619l-.02.01c.049-.531-.183-1.041-.6-1.346l-.417-2.084c-.163-.812-.95-1.341-1.765-1.177-.812.162-1.339.953-1.177 1.765l.718 3.591-.382 1.605-1.454-4.002c-.284-.779-1.145-1.181-1.922-.897-.779.284-1.181 1.144-.898 1.923l1.108 3.047c-.345.236-.594.61-.646 1.058l-.245 2.099-.327-1.963c-.136-.818-.911-1.372-1.726-1.233-.817.136-1.369.909-1.233 1.726l1.55 9.299h23.305c.049-.122 1.116-9.38 1.116-9.38.09-.824-.503-1.565-1.326-1.657z" fill="#f4900c"/><path d="m27.486 7.797c-.009-.064-.028-.123-.044-.184-.192-.72-.884-1.206-1.645-1.1-.123.017-.238.052-.348.096-.627.248-1.031.895-.935 1.593l1.956 14.343h3.028zm-4.99 2.096c-.021-.297-.131-.567-.297-.79-.296-.397-.779-.642-1.306-.6-.643.046-1.157.491-1.329 1.075-.049.167-.074.344-.061.528l.879 12.312.009.127h3.009l-.002-.027zm-11.781 1.408c-.374-.043-.728.06-1.017.258-.345.236-.594.61-.646 1.058l-1.159 9.929h3.02l1.118-9.581c.096-.823-.493-1.568-1.316-1.664zm4.756-5.595c-.163-.812-.95-1.341-1.765-1.177-.812.162-1.339.953-1.177 1.765l3.25 16.252h3.059z" fill="#ffcc4d"/><path d="m29 17c0 2.762-4.373 5-11 5s-11-2.238-11-5c0-1.104-1.896-1-3-1-.316 0-.609-.005-.875.009.061.635 1.875 14.991 1.875 14.991 0 2.209 1.791 4 4 4h18c2.209 0 4-1.791 4-4 0 0 1.858-14.864 1.871-14.992-.264-.014-.557-.008-.871-.008-1.104 0-3-.104-3 1z" fill="#dd2e44"/><circle cx="18" cy="28" fill="#be1931" r="4"/></svg>