<svg viewBox="0 0 36 36" xmlns="http://www.w3.org/2000/svg"><path d="m14.017 10.368-5.844-5.844c.847-1.017.805-2.525-.15-3.479-1.011-1.011-2.65-1.011-3.662 0-.621.621-.856 1.478-.715 2.282-.804-.141-1.661.094-2.282.715-1.011 1.011-1.011 2.651 0 3.662.954.955 2.462.996 3.479.15l5.844 5.844z" fill="#ffd983"/><path d="m32.954 32.636c1.665-1.665 5.874-8.81.046-14.636-4.059-4.058-7.328-3.826-13.416-5.335-2.497-.832-5.751-3.832-6.584-4.665-.833.833-.542 3.873-.542 3.873s-3.625.294-4.458 1.127c.833.833 4.699 4.489 5.375 6.207 1.821 5.774 1.613 8.711 5.671 12.77 6.66 6.659 12.244 2.323 13.908.659z" fill="#c1694f"/></svg>