<svg viewBox="0 0 36 36" xmlns="http://www.w3.org/2000/svg"><path d="m16.769 22h-12.963s2.248 7.146 5.784 10.584c2.408 2.34 6.458 2.521 7.899 2.521 2.88 0 6.55-.192 8.958-2.534 4.198-4.078 6.165-10.571 6.165-10.571z" fill="#55acee"/><path d="m31.091 25.783c.623-1.304 1.048-2.413 1.287-3.088-.135-.24-.336-.472-.588-.695h-27.162c-.251.223-.452.454-.587.694.237.672.652 1.776 1.213 3.041 2.087 1.507 6.422 2.715 12.956 2.715 6.462 0 10.768-1.183 12.881-2.667z" fill="#3b88c3"/><path d="m2 17v4.453c0 2.318 7.251 4.198 16 4.198 8.751 0 16-1.88 16-4.198v-4.453z" fill="#55acee"/><path d="m3.857 19.283c.901.331 6.693 2.383 13.999 2.383 8.226 0 14.254-1.788 15.634-2.779 1.38-.993 1.328-9.595-4.955-12.91-5.365-2.831-5.515-5.611-10.628-5.611-7.664.001-21.203 16.286-14.05 18.917z" fill="#f9d2dc"/><path d="m11.848 11.769c2.91 3.9 9.483 1.756 12.293-.975 2.289-2.226 5.179-1.633 8.452-.784-.892-1.583-2.2-3.041-4.069-4.027-5.363-2.829-5.513-5.608-10.624-5.608-4.049 0-9.737 4.548-13.146 9.225 1.894-.617 4.802-.902 7.094 2.169z" fill="#f98097"/><g fill="#ea596e"><circle cx="12" cy="7" r="1"/><circle cx="18" cy="10" r="1"/><circle cx="22" cy="5" r="1"/></g></svg>