<svg viewBox="0 0 36 36" xmlns="http://www.w3.org/2000/svg"><path d="m19 20.255s10.042-2.213 10.042-16.005c0-1.481-1.167-2.25-3.416-2.25h-16.497c-1.125 0-3.329-.262-3.329 2.125 0 13.708 10.2 16.13 10.2 16.13v10.123s-4.584 2.34-5.498 2.883c-.984.562-.33 1.462.063 1.617.656.258 2.253 1.102 6.78 1.102 4.641 0 6.202-.914 6.765-1.102.217-.072 1.347-.932.011-1.723-2.378-1.408-5.121-2.777-5.121-2.777z" fill="#8899a6"/><path d="m29 3.442c0 1.621-3.547 2.935-11.623 2.935s-11.623-1.314-11.623-2.935c-0-1.622 3.547-2.935 11.623-2.935s11.623 1.314 11.623 2.935z" fill="#ccd6dd"/><path d="m7.458 3.583c2.042 9.5 5.458 12.792 8.699 13.835 1.11.358 2.026.428 2.801.123 3.5-1.375 7.542-5.667 8.167-13.583.161-2.037-19.667-.375-19.667-.375z" fill="#ccd6dd"/><path d="m9 9.5c0 3.5 3.333 8.5 8.333 8.5s8.667-5.458 8.667-8.458c-6 0-17-.042-17-.042z" fill="#a0041e"/><ellipse cx="17.5" cy="9.5" fill="#dd2e44" rx="8.5" ry="1.5"/><path d="m17.168 6.659c-5.03 0-8.783-1.11-9.801-1.587-.5-.234-.715-.83-.481-1.33.234-.501.831-.716 1.33-.481 1.239.582 9.455 2.894 18.596-.127.523-.174 1.088.112 1.262.636s-.111 1.09-.636 1.264c-3.676 1.214-7.209 1.625-10.27 1.625z" fill="#fff"/></svg>