<svg viewBox="0 0 36 36" xmlns="http://www.w3.org/2000/svg"><path d="m31 0h-26c-2.209 0-4 1.791-4 4v28c0 2.209 1.791 4 4 4h26c2.209 0 4-1.791 4-4v-28c0-2.209-1.791-4-4-4z" fill="#292f33"/><path d="m14 11c0 2.209-1.791 4-4 4h-1c-2.209 0-4-1.791-4-4v-2c0-2.209 1.791-4 4-4h1c2.209 0 4 1.791 4 4z" fill="#292f33"/><path d="m22 27c0 1.104-.896 2-2 2h-15c-1.104 0-2-.896-2-2v-8c0-1.104.896-2 2-2h15c1.104 0 2 .896 2 2zm11-8c0-1.104-.896-2-2-2h-5c-1.104 0-2 .896-2 2v8c0 1.104.896 2 2 2h5c1.104 0 2-.896 2-2zm-17-15c0-1.104.896-2 2-2h13c1.104 0 2 .896 2 2v9c0 1.104-.896 2-2 2h-13c-1.104 0-2-.896-2-2zm-2 9c0 1.104-.896 2-2 2h-7c-1.104 0-2-.896-2-2v-9c0-1.104.896-2 2-2h7c1.104 0 2 .896 2 2z" fill="#be1931"/><path d="m14 13c0 1.104-.896 2-2 2h-7c-1.104 0-2-.896-2-2v-6c0-1.104.896-2 2-2h7c1.104 0 2 .896 2 2zm19 0c0 1.104-.896 2-2 2h-13c-1.104 0-2-.896-2-2v-6c0-1.104.896-2 2-2h13c1.104 0 2 .896 2 2z" fill="#dd2e44"/><path d="m22 27c0 1.104-.896 2-2 2h-15c-1.104 0-2-.896-2-2v-5c0-1.104.896-2 2-2h15c1.104 0 2 .896 2 2z" fill="#e1e8ed"/><path d="m33 27c0 1.104-.896 2-2 2h-5c-1.104 0-2-.896-2-2v-5c0-1.104.896-2 2-2h5c1.104 0 2 .896 2 2z" fill="#dd2e44"/><path d="m27.015 9.24c1.315 1.478 1.908 3.098 1.322 3.619l-1.059.941c-.585.522-2.126-.255-3.44-1.733l-3.571-4.013c-1.314-1.479-1.907-3.099-1.321-3.62l1.059-.941c.586-.521 2.124.255 3.438 1.733z" fill="#ffac33"/><path d="m22.28 11.076c-.598 1.539-1.477 2.633-1.961 2.444l-.877-.341c-.485-.188-.393-1.588.205-3.126l1.625-4.178c.599-1.538 1.477-2.632 1.962-2.444l.876.341c.485.188.394 1.588-.205 3.126z" fill="#ffd983"/><path d="m23.113 11.536c-1.562.535-2.965.568-3.133.076l-.305-.891c-.169-.492.962-1.324 2.522-1.858l4.242-1.45c1.562-.534 2.964-.567 3.133-.075l.304.89c.169.493-.961 1.325-2.523 1.858z" fill="#ffd983"/><path d="m6.442 7.873c.373-4.106 4.907-.961 7.135 1.049-1.34 1.485-7.586 3.93-7.135-1.049z" fill="#5c913b"/><path d="m6.584 7.784c3.739-1.737 3.293 3.763 2.672 6.698-1.956-.414-7.206-4.59-2.672-6.698z" fill="#5c913b"/><path d="m5 8c-1.2-1.6 1-5 6-5 1 1-3 9-6 5z" fill="#77b255"/><path d="m6 27c-.256 0-.512-.098-.707-.293-.391-.391-.391-1.023 0-1.414l1-1c.391-.391 1.023-.391 1.414 0s.391 1.023 0 1.414l-1 1c-.195.195-.451.293-.707.293zm12.417.499c-.256 0-.512-.098-.707-.293l-1-1c-.391-.391-.391-1.024 0-1.414.391-.391 1.024-.391 1.415 0l1 1c.391.391.391 1.023 0 1.414-.196.195-.452.293-.708.293zm-6.167-4.291c-.255 0-.511-.098-.707-.292l-.459-.458c-.391-.391-.392-1.023-.002-1.414.389-.392 1.023-.392 1.415-.002l.459.458c.391.391.392 1.023.002 1.414-.195.196-.451.294-.708.294z" fill="#b2c2cc"/><path d="m32.149 23.412c.707.848.592 2.109-.257 2.816l-2.305 1.921c-.848.707-2.109.592-2.816-.257l-1.921-2.305c-.707-.848-.592-2.109.257-2.816l2.305-1.921c.848-.707 2.109-.592 2.816.257z" fill="#b26304"/><path d="m32.149 21.412c.707.848.592 2.109-.257 2.816l-2.305 1.921c-.848.707-2.109.592-2.816-.257l-1.921-2.305c-.707-.848-.592-2.109.257-2.816l2.305-1.921c.848-.707 2.109-.592 2.816.257z" fill="#f4900c"/><g fill="#ccd6dd"><circle cx="12" cy="26" r="1"/><circle cx="20" cy="22" r="1"/></g></svg>