<svg viewBox="0 0 36 36" xmlns="http://www.w3.org/2000/svg"><path d="m33.73 18.187c-.491 1.981-1.376 2.514-3.356 2.022l-11.654-2.887 3.332-13.448 11.655 2.888c1.979.491 2.515 1.376 2.023 3.356z" fill="#e8eaeb"/><path d="m14.1 34.383c-.073 0-.147-.009-.221-.027-.495-.121-.798-.622-.676-1.117l7.608-30.919c.122-.496.622-.798 1.117-.676s.798.623.676 1.118l-7.608 30.918c-.103.421-.481.703-.896.703z" fill="#66757f"/><path d="m30.248 13.042c-.43 1.733-2.183 2.79-3.915 2.36-1.733-.429-2.791-2.182-2.361-3.916.43-1.733 2.184-2.79 3.916-2.36s2.788 2.183 2.36 3.916z" fill="#be1931"/><path d="m2.27 18.187c.491 1.981 1.375 2.514 3.356 2.022l11.655-2.887-3.333-13.448-11.655 2.888c-1.98.491-2.514 1.376-2.023 3.356z" fill="#e8eaeb"/><path d="m21.9 34.383c-.415 0-.792-.282-.896-.703l-7.608-30.918c-.122-.495.181-.996.676-1.118.499-.121.996.181 1.118.676l7.607 30.918c.122.495-.181.996-.676 1.117-.074.019-.148.028-.221.028z" fill="#66757f"/><path d="m5.752 13.042c.43 1.733 2.183 2.79 3.916 2.36 1.733-.429 2.79-2.182 2.361-3.916-.429-1.733-2.183-2.79-3.915-2.36-1.734.43-2.791 2.183-2.362 3.916z" fill="#be1931"/></svg>