<svg viewBox="0 0 36 36" xmlns="http://www.w3.org/2000/svg"><path d="m22.088 32.83c0 1.997-1.619 2.712-3.616 2.712s-3.616-.715-3.616-2.712l.904-8.136c0-1.996.715-1.808 2.712-1.808s2.712-.188 2.712 1.808z" fill="#662113"/><path d="m30.59 27.675c-6.294-5.392-8.843-13.112-12.118-13.112s-5.824 7.721-12.118 13.112c-2.645 2.266-1.385 3.577 2.241 3.314 3.232-.233 6.255-.966 9.877-.966s6.646.733 9.876.966c3.627.263 4.886-1.049 2.242-3.314z" fill="#5c913b"/><path d="m28.546 25.538c-4.837-4.435-7.555-10.787-10.074-10.787-2.517 0-5.236 6.352-10.073 10.787-3.844 3.524 5.037 4.315 10.073 0 5.034 4.316 13.917 3.524 10.074 0z" fill="#3e721d"/><path d="m28.546 21.945c-4.837-4.143-7.555-10.077-10.074-10.077-2.517 0-5.236 5.934-10.073 10.077-3.844 3.292 5.037 4.031 10.073 0 5.034 4.032 13.917 3.292 10.074 0z" fill="#5c913b"/><path d="m26.336 19.003c-3.775-3.235-5.897-7.868-7.864-7.868-1.965 0-4.088 4.632-7.864 7.868-3 2.57 3.932 3.147 7.864 0 3.93 3.146 10.865 2.57 7.864 0z" fill="#3e721d"/><path d="m26.336 16.311c-3.775-3.235-5.897-7.867-7.864-7.867-1.965 0-4.088 4.632-7.864 7.867-3 2.571 3.932 3.147 7.864 0 3.93 3.147 10.865 2.571 7.864 0z" fill="#5c913b"/><path d="m24.818 13.92c-3.047-2.61-4.76-6.349-6.347-6.349-1.586 0-3.299 3.739-6.347 6.349-2.422 2.075 3.174 2.54 6.347 0 3.174 2.54 8.77 2.075 6.347 0z" fill="#3e721d"/><path d="m24.818 11.894c-3.047-2.61-4.76-6.349-6.347-6.349-1.586 0-3.299 3.739-6.347 6.349-2.422 2.075 3.174 2.54 6.347 0 3.174 2.54 8.77 2.075 6.347 0z" fill="#5c913b"/><path d="m23.301 8.911c-2.318-1.986-3.621-4.831-4.829-4.831-1.207 0-2.511 2.845-4.83 4.831-1.843 1.579 2.415 1.933 4.83 0 2.414 1.933 6.673 1.579 4.829 0z" fill="#3e721d"/><path d="m23.301 7.832c-2.318-1.987-3.621-4.832-4.829-4.832-1.207 0-2.511 2.845-4.83 4.832-1.843 1.579 2.415 1.933 4.83 0 2.414 1.932 6.673 1.578 4.829 0z" fill="#5c913b"/><circle cx="16.5" cy="12.042" fill="#ffcc4d" r="1.5"/><circle cx="20" cy="25" fill="#ffcc4d" r="2"/><circle cx="22.5" cy="15.5" fill="#dd2e44" r="2.5"/><circle cx="10" cy="26" fill="#dd2e44" r="2"/><circle cx="14" cy="19" fill="#a6d388" r="2"/><circle cx="26" cy="23" fill="#a6d388" r="2"/><path d="m19.379 1.679c.143.275.512.549.817.609l1.379.269c.305.06.377.29.159.512l-.983 1.004c-.217.222-.365.657-.326.965l.17 1.394c.038.309-.159.448-.438.31l-1.257-.625c-.279-.138-.738-.144-1.02-.013l-1.274.594c-.282.13-.476-.014-.43-.322l.205-1.39c.045-.307-.091-.745-.302-.973l-.959-1.027c-.212-.227-.135-.457.172-.508l1.385-.234c.307-.051.681-.316.832-.588l.681-1.229c.151-.272.394-.269.537.006z" fill="#ffac33"/></svg>