<svg viewBox="0 0 36 36" xmlns="http://www.w3.org/2000/svg"><path d="m6 15h24v2h-24zm15 15c0 2.208-.792 4-3 4-2.209 0-3-1.792-3-4s.791-2 3-2c2.208 0 3-.208 3 2z" fill="#292f33"/><path d="m18 31c-6.627 0-10 1.343-10 3v2h20v-2c0-1.657-3.373-3-10-3z" fill="#66757f"/><path d="m18 0c-4.971 0-9 4.029-9 9v7h18v-7c0-4.971-4.029-9-9-9z" fill="#99aab5"/><g fill="#292f33"><circle cx="15.5" cy="2.5" r="1.5"/><circle cx="20.5" cy="2.5" r="1.5"/><circle cx="17.5" cy="6.5" r="1.5"/><circle cx="22.5" cy="6.5" r="1.5"/><circle cx="12.5" cy="6.5" r="1.5"/><circle cx="15.5" cy="10.5" r="1.5"/><circle cx="10.5" cy="10.5" r="1.5"/><circle cx="20.5" cy="10.5" r="1.5"/><circle cx="25.5" cy="10.5" r="1.5"/><circle cx="17.5" cy="14.5" r="1.5"/><circle cx="22.5" cy="14.5" r="1.5"/><circle cx="12.5" cy="14.5" r="1.5"/></g><g fill="#66757f"><path d="m9 15.062v1.938c0 4.971 4.029 9 9 9s9-4.029 9-9v-1.938z"/><path d="m30 14c-.553 0-1 .448-1 1v2c0 6.074-4.925 11-11 11s-11-4.926-11-11v-2c0-.552-.448-1-1-1s-1 .448-1 1v2c0 7.18 5.82 13 13 13s13-5.82 13-13v-2c0-.552-.447-1-1-1z"/></g></svg>