<svg viewBox="0 0 36 36" xmlns="http://www.w3.org/2000/svg"><path d="m36 32c0 2.209-1.791 4-4 4h-28c-2.209 0-4-1.791-4-4v-28c0-2.209 1.791-4 4-4h28c2.209 0 4 1.791 4 4z" fill="#ccd6dd"/><g fill="#67757f"><circle cx="27" cy="20.6" r=".686"/><circle cx="30.2" cy="21.515" r=".686"/><circle cx="23.8" cy="21.515" r=".686"/><circle cx="21.514" cy="23.8" r=".686"/><circle cx="20.6" cy="27" r=".686"/><circle cx="32.486" cy="23.8" r=".686"/></g><circle cx="33.401" cy="27" fill="#da2f47" r=".686"/><circle cx="27" cy="27" r="4.881"/><circle cx="27" cy="27" fill="#292f33" r="3.994"/><path d="m28.182 24.118-1.697 2.824c-.134.223-.062.512.161.646s.512.062.646-.161l1.697-2.824c.134-.223.062-.512-.161-.646-.223-.133-.512-.061-.646.161z" fill="#e1e8ed"/><circle cx="9" cy="20.6" fill="#67757f" r=".686"/><circle cx="12.2" cy="21.515" fill="#67757f" r=".686"/><circle cx="5.8" cy="21.515" fill="#67757f" r=".686"/><circle cx="3.514" cy="23.8" fill="#67757f" r=".686"/><circle cx="2.6" cy="27" fill="#67757f" r=".686"/><circle cx="14.486" cy="23.8" fill="#67757f" r=".686"/><circle cx="15.401" cy="27" fill="#da2f47" r=".686"/><circle cx="9" cy="27" r="4.881"/><circle cx="9.001" cy="26.999" fill="#292f33" r="3.994"/><path d="m6.099 25.868 2.853 1.647c.225.13.513.053.643-.172s.053-.513-.172-.643l-2.853-1.647c-.226-.13-.513-.053-.643.172s-.053.513.172.643z" fill="#e1e8ed"/><circle cx="27" cy="3.6" fill="#67757f" r=".686"/><circle cx="30.2" cy="4.515" fill="#67757f" r=".686"/><circle cx="23.8" cy="4.515" fill="#67757f" r=".686"/><circle cx="21.514" cy="6.8" fill="#67757f" r=".686"/><circle cx="20.6" cy="10" fill="#67757f" r=".686"/><circle cx="32.486" cy="6.8" fill="#67757f" r=".686"/><circle cx="33.401" cy="10" fill="#da2f47" r=".686"/><circle cx="27" cy="10" r="4.881"/><circle cx="27.001" cy="10" fill="#292f33" r="3.994"/><path d="m25.011 7.603 1.697 2.824c.134.223.423.295.646.161s.295-.423.161-.646l-1.696-2.824c-.134-.223-.423-.295-.646-.161-.224.134-.296.424-.162.646z" fill="#e1e8ed"/><circle cx="9" cy="3.6" fill="#67757f" r=".686"/><circle cx="12.2" cy="4.515" fill="#67757f" r=".686"/><circle cx="5.8" cy="4.515" fill="#67757f" r=".686"/><circle cx="3.514" cy="6.8" fill="#67757f" r=".686"/><circle cx="2.6" cy="10" fill="#67757f" r=".686"/><circle cx="14.486" cy="6.8" fill="#67757f" r=".686"/><circle cx="15.401" cy="10" fill="#da2f47" r=".686"/><circle cx="9" cy="9.999" r="4.881"/><circle cx="8.999" cy="10" fill="#292f33" r="3.994"/><path d="m11.431 8.053-2.853 1.647c-.225.13-.302.418-.172.643s.418.302.643.172l2.853-1.647c.225-.13.302-.418.172-.643-.131-.225-.419-.302-.643-.172z" fill="#e1e8ed"/></svg>