<svg viewBox="0 0 36 36" xmlns="http://www.w3.org/2000/svg"><path d="m36 32c0 2.209-1.791 4-4 4h-28c-2.209 0-4-1.791-4-4v-28c0-2.209 1.791-4 4-4h28c2.209 0 4 1.791 4 4z" fill="#269"/><path d="m14.388 2.62c-1.852 0-4.235 1.849-6.22 4.826-2.322 3.483-1.069 5.989-.062 8.002.023.045.054.083.083.123 2.811-2.571 6.811-7.571 8.402-11.548-.494-.996-1.364-1.403-2.203-1.403zm4.574 12.2c-.109-1.382-.535-3.206-2.195-3.206-1.21 0-2.576 1.132-4.566 3.785-2.059 2.745-2.424 5.164-1.2 7.8 3.999-2.199 6.999-6.199 7.961-8.379z" fill="#ffcc4d"/><path d="m22.874 13.517c-.268-.482-.877-.654-1.359-.385-.861.479-1.714 1.051-2.553 1.689-2.909 2.211-5.642 5.264-7.962 8.379-2.584 3.469-4.654 7.011-5.852 9.541.838-10.195 5.569-20.044 13.559-28.034.391-.391.391-1.023 0-1.414s-1.023-.391-1.414 0c-.24.24-.468.487-.702.73-3.421 3.55-6.238 7.438-8.402 11.548-2.607 4.95-4.276 10.217-4.9 15.603-.674-5.697-.978-13.91 1.626-19.767.225-.505-.003-1.096-.507-1.32-.508-.227-1.097.002-1.322.507-1.326 2.983-1.945 6.501-2.162 10.009-.286-.612-.593-1.198-.924-1.722v4.343c.035.073.073.158.105.223.148.296.425.478.728.53.023 4.55.59 8.758 1.043 11.401.617.389 1.342.622 2.124.622h2.003c.08-1.071 2.509-6.019 6.14-11.024.103-.015.206-.033.304-.082.244-.122.516-.272.807-.433.934-.517 2.498-1.383 3.107-1.02.15.089.639.536.639 2.559 0 .553.448 1 1 1s1-.447 1-1c0-2.236-.531-3.636-1.623-4.28-.781-.46-1.666-.423-2.54-.172 2.321-2.715 4.939-5.166 7.648-6.672.484-.269.658-.876.389-1.359z" fill="#77b255"/><circle cx="28.5" cy="7.5" fill="#ffd983" r="5.5"/><path d="m29.5 28-.012.001c.317-.419.512-.935.512-1.501 0-1.381-1.119-2.5-2.5-2.5l-.012.001c.317-.419.512-.935.512-1.501 0-1.381-1.119-2.5-2.5-2.5s-2.5 1.119-2.5 2.5c0 .566.195 1.082.512 1.501l-.012-.001c-1.381 0-2.5 1.119-2.5 2.5 0 .566.195 1.082.512 1.501l-.012-.001c-1.381 0-2.5 1.119-2.5 2.5 0 .565.195 1.081.511 1.5h3.976l.013-.013.013.013h3.975l.013-.013.013.013h3.976c.315-.419.51-.935.51-1.5 0-1.381-1.119-2.5-2.5-2.5zm-6 1.013-.012-.015.012.001.012-.001zm2-1.013-.012.001.012-.015.012.015zm0-2.987-.012-.015.012.001.012-.001zm2 4-.012-.015.012.001.012-.001z" fill="#e1e8ed"/><path d="m18 32v4h14c.347 0 .679-.058 1-.141v-3.859z" fill="#c1694f"/></svg>