<svg viewBox="0 0 36 36" xmlns="http://www.w3.org/2000/svg"><path d="m35.845 32c0 2.2-1.8 4-4 4h-26c-2.2 0-4-1.8-4-4v-13c0-2.2 1.8-4 4-4h26c2.2 0 4 1.8 4 4z" fill="#3f7123"/><path d="m1.845 15h34v6h-34z" fill="#3f7123"/><path d="m1.845 15h34v7h-34z" fill="#ccd6dd"/><path d="m1.845 15h4l-4 7zm11 0-4 7h7l4-7zm14 0-4 7h7l4-7z" fill="#292f33"/><path d="m.155 8.207 32.993-8.207 1.69 6.792-32.993 8.208z" fill="#ccd6dd"/><path d="m.155 8.207 5.572 5.827-3.882.966zm19.158 2.448-5.572-5.828-6.793 1.69 5.572 5.828zm13.586-3.38-5.572-5.828-6.793 1.69 5.572 5.827z" fill="#292f33"/></svg>