<svg viewBox="0 0 36 36" xmlns="http://www.w3.org/2000/svg"><path d="m2.13 14.856-.004-.002s-2.051 12.417-2.051 14.207c0 1.824 1.343 3.302 3 3.302.68 0 1.3-.258 1.803-.678l10.166-8.938zm31.69 0 .004-.002s2.051 12.417 2.051 14.207c0 1.824-1.343 3.302-3 3.302-.68 0-1.3-.258-1.803-.678l-10.166-8.938z" fill="#31373d"/><g fill="#14171a"><g><circle cx="25.975" cy="15.551" r="8.5"/><circle cx="9.975" cy="15.551" r="8.5"/><path d="m9.975 7.051h16v16.87h-16z"/></g><circle cx="13.075" cy="23.301" r="5"/><circle cx="22.875" cy="23.301" r="5"/></g><circle cx="22.875" cy="23.301" fill="#67757f" r="3"/><circle cx="13.075" cy="23.301" fill="#67757f" r="3"/><circle cx="25.735" cy="11.133" fill="#ffcc4d" r="1.603"/><circle cx="25.735" cy="17.607" fill="#77b255" r="1.603"/><circle cx="22.498" cy="14.37" fill="#50a5e6" r="1.603"/><circle cx="28.972" cy="14.37" fill="#dd2e44" r="1.603"/><path d="m11.148 12.514v-2.168c0-.279-.226-.505-.505-.505h-1.558c-.279 0-.505.226-.505.505v2.168l1.284 1.285zm-2.569 3.63v2.168c0 .279.226.505.505.505h1.558c.279 0 .505-.226.505-.505v-2.168l-1.284-1.285zm5.269-3.1h-2.168l-1.285 1.285 1.285 1.285h2.168c.279 0 .505-.227.505-.505v-1.559c0-.279-.226-.506-.505-.506zm-5.799 0h-2.169c-.279 0-.505.227-.505.505v1.558c0 .279.226.505.505.505h2.168l1.285-1.285z" fill="#8899a6"/></svg>