<svg viewBox="0 0 36 36" xmlns="http://www.w3.org/2000/svg"><path d="m34.768 10.814-2.736-2.737-4.108-4.106-2.738-2.738c-1.512-1.512-3.963-1.512-5.433-.041l-5.91 5.911c.082.301.157.589.157.897 0 1.104-.896 2-2 2-.308 0-.596-.075-.857-.2l-9.91 9.911c-1.512 1.513-1.512 3.963 0 5.476l2.738 2.737 4.106 4.107 2.737 2.737c1.512 1.512 3.964 1.512 5.476 0l9.911-9.91c-.126-.261-.201-.55-.201-.858 0-1.104.896-2 2-2 .308 0 .597.075.857.2l5.91-5.911c1.512-1.512 1.512-3.964.001-5.475zm-18.768 3.186c-1.104 0-2-.896-2-2s.896-2 2-2 2 .896 2 2-.896 2-2 2zm4 4c-1.104 0-2-.896-2-2s.896-2 2-2 2 .896 2 2-.896 2-2 2zm4 4c-1.104 0-2-.896-2-2s.896-2 2-2 2 .896 2 2-.896 2-2 2z" fill="#ccd6dd"/><path d="m11 30c-.256 0-.512-.098-.707-.293-.391-.391-.391-1.023 0-1.414l4-4c.391-.391 1.023-.391 1.414 0s.391 1.023 0 1.414l-4 4c-.195.195-.451.293-.707.293zm-3-3c-.256 0-.512-.098-.707-.293-.391-.391-.391-1.023 0-1.414l7-7c.391-.391 1.023-.391 1.414 0s.391 1.023 0 1.414l-7 7c-.195.195-.451.293-.707.293zm-3-3c-.256 0-.512-.098-.707-.293-.391-.391-.391-1.023 0-1.414l7-7c.391-.391 1.023-.391 1.414 0s.391 1.023 0 1.414l-7 7c-.195.195-.451.293-.707.293zm15.397-17.217c-.245-.534-.229-1.179.204-1.611.45-.45 1.059-.467 1.61-.204l6.277 2.951c.186.084.322.187.381.246.331.331.289.832-.025 1.146-.355.356-.721.348-1.06.178l-1.051-.543-2.357 2.357.534 1.043c.179.347.187.712-.161 1.06-.34.339-.883.373-1.222.034-.136-.136-.194-.28-.22-.339zm3.172 2.985 1.611-1.611-3.248-1.671-.017.017z" fill="#99aab5"/></svg>