<svg viewBox="0 0 36 36" xmlns="http://www.w3.org/2000/svg"><path d="m33 33c0 1.104-.896 2-2 2h-26c-1.104 0-2-.896-2-2l1-12h28z" fill="#dd2e44"/><path d="m13 35c-.792-1.875-1.75-3.291-3.417-4.666 1.75-1.459 4.542-5.5 5.25-8.292s2.75 8.125 2.042 10.625-3.875 2.333-3.875 2.333zm10.303 0c.791-1.875 1.75-3.291 3.416-4.666-1.75-1.459-4.541-5.5-5.25-8.292-.707-2.792-2.75 8.125-2.04 10.625.708 2.5 3.874 2.333 3.874 2.333z" fill="#ea596e"/><g fill="#be1931"><path d="m3.728 24.263c.453.455 1.079.737 1.772.737 1.381 0 2.5-1.119 2.5-2.5 0-.565-.195-1.081-.511-1.5h-3.489zm28.544 0-.272-3.263h-3.489c-.316.419-.511.935-.511 1.5 0 1.381 1.119 2.5 2.5 2.5.693 0 1.319-.282 1.772-.737z"/><circle cx="14" cy="23" r="2"/><circle cx="22" cy="23" r="2"/><circle cx="10" cy="23" r="2"/><circle cx="26" cy="23" r="2"/></g><path d="m23 35h-10s2-6 2-13h6c0 7 2 13 2 13zm-6-33h2v7h-2z"/><path d="m18.838.206c-1.171-.164-1.838.112-1.838 1.212v1c0 1.1.865 1.753 1.923 1.451l5.154-.901c1.715-.343 1.548-1.593.085-1.884z" fill="#55acee"/><path d="m18 6-.081.123c-6.981 10.858-14.919 8.892-14.919 12.877v2.5c0 1.381 1.119 2.5 2.5 2.5 1.21 0 2.218-.859 2.45-2h4.05c0 1.104.896 2 2 2s2-.896 2-2h4c0 1.104.896 2 2 2s2-.896 2-2h4.05c.232 1.141 1.24 2 2.45 2 1.381 0 2.5-1.119 2.5-2.5v-2.5c0-4-8-2-15-13z" fill="#ccd6dd"/><g fill="#f5f8fa"><path d="m17.948 6.078-.03.045c-.786 5.496-7.107 10.003-9.918 11.877v4c0 1.104.896 2 2 2s2-.896 2-2v-4c.982-.982 5.813-6.787 5.984-11.732-.01-.064-.027-.126-.036-.19zm.08.398c.296 4.898 5.003 10.555 5.972 11.524v4c0 1.104.896 2 2 2s2-.896 2-2v-4c-2.75-1.833-8.953-6.19-9.972-11.524z"/><path d="m17.984 6.27c-.062 2.076-.378 10.124-1.984 11.73v4c0 1.104.896 2 2 2s2-.896 2-2v-4c-1.564-1.564-1.905-9.241-1.979-11.559-.011-.057-.027-.113-.037-.171z"/></g></svg>