<svg viewBox="0 0 36 36" xmlns="http://www.w3.org/2000/svg"><path d="m32.612 16.645v-1h-4.083v-7.312h-1v7.312h-3.11v1h3.11v4h-8.979v-4.604h-1v4.604h-4.75v1h4.75v4h-8.938v-3.208h-1v3.208h-5.407v1h5.407v4h-5.407v1h5.407v4.355h1v-4.355h8.938v4.355h1v-4.355h8.979v4.355h1v-4.355h4.083v-1h-4.083v-4h4.083v-1h-4.083v-4h4.083v-1h-4.083v-4zm-24 14v-4h8.938v4zm18.917 0h-8.979v-4h8.979zm0-5h-8.979v-4h8.979z" fill="#e1e8ed"/><path d="m31.05 6.595h4v29.405h-4z" fill="#ccd6dd"/><path d="m34.05 6.595h1v29.405h-1z" fill="#8899a6"/><path d="m25.05 10.208-4 2.417v23.375h4zm-14 10.709h4v15.083h-4zm-10 4.791h4v10.292h-4z" fill="#ccd6dd"/><path d="m4.05 25.708h1v10.292h-1zm10-4.791h1v15.083h-1zm10-10.709h1v25.792h-1z" fill="#8899a6"/><path d="m18.804 16.378c-5.856 4.949-12.313 10.393-18.804 12.657v1.816c7.387-2.665 14.422-8.66 20.363-13.725 4.789-4.083 9.313-7.939 11.764-7.939 1.46 0 2.746.513 3.873 1.337v-1.786c-1.11-.651-2.39-1.05-3.873-1.05-3.041 0-8.035 4.221-13.323 8.69z" fill="#ccd6dd"/><path d="m32.127 4.688c-4.139 0-9.292 4.355-15.26 9.399-5.344 4.516-11.214 9.471-16.867 11.753v3.196c6.491-2.265 12.948-7.708 18.804-12.657 5.288-4.469 10.282-8.69 13.323-8.69 1.483 0 2.763.399 3.873 1.05v-3.36c-1.154-.438-2.439-.691-3.873-.691z" fill="#dd2e44"/><path d="m10.912 14.422-.368.29c-.142.112-.348.087-.459-.054l-.918-1.164c-.112-.142-.087-.348.054-.459l.368-.29c.142-.112.348-.087.459.054l.918 1.164c.112.142.088.347-.054.459zm3.438-2.632-.368.29c-.142.112-.348.087-.459-.054l-.918-1.164c-.112-.142-.087-.348.054-.459l.368-.29c.142-.112.348-.087.459.054l.918 1.164c.112.142.088.347-.054.459zm6.52-5.208-.368.29c-.142.112-.348.087-.459-.054l-.918-1.164c-.112-.142-.087-.348.054-.459l.368-.29c.142-.112.348-.087.459.054l.918 1.164c.113.141.088.347-.054.459zm3.471-2.664-.368.29c-.142.112-.348.087-.459-.054l-.918-1.164c-.112-.142-.087-.348.054-.459l.368-.29c.142-.112.348-.087.459.054l.918 1.164c.112.141.088.347-.054.459zm-8.532 9.678c-.217 0-.433-.094-.581-.275-.262-.32-.215-.793.106-1.055l1.409-1.152c.321-.262.794-.216 1.056.106.262.32.215.793-.106 1.055l-1.409 1.152c-.14.113-.308.169-.475.169z" fill="#1c6399"/><path d="m9.349 14.069c.82 1.044.676 1.731.154 2.141s-1.224.387-2.044-.656-1.062-2.222-.54-2.632c.523-.411 1.61.103 2.43 1.147z" fill="#ea596e"/><path d="m12.745 11.401c.82 1.044.676 1.731.154 2.141s-1.224.387-2.044-.656-1.062-2.222-.54-2.632c.523-.411 1.61.103 2.43 1.147z" fill="#a6d388"/><path d="m13.599 11.67-5.892 4.629c-1.522 1.196-.604 4.01-.332 4.356.291.371.829.436 1.2.144l7.459-5.86c.742-.583.871-1.657.288-2.399l-.406-.517c-.583-.743-1.62-.901-2.317-.353z" fill="#3b94d9"/><path d="m19.178 6.108c.82 1.044.676 1.731.154 2.141s-1.224.387-2.043-.657c-.82-1.044-1.062-2.222-.539-2.632.521-.41 1.608.104 2.428 1.148z" fill="#f4900c"/><path d="m22.628 3.387c.82 1.044.676 1.731.154 2.141s-1.224.387-2.043-.657c-.82-1.044-1.062-2.222-.539-2.632.521-.41 1.609.104 2.428 1.148z" fill="#aa8dd8"/><path d="m23.429 3.709-5.893 4.629c-1.522 1.195-.604 4.01-.332 4.356.291.371.829.436 1.2.144l7.46-5.859c.742-.583.871-1.657.288-2.399l-.406-.517c-.583-.743-1.621-.901-2.317-.354z" fill="#3b94d9"/><path d="m9.096 20.838c-.148 0-.295-.066-.394-.192-.171-.217-.132-.532.086-.702l7.059-5.515c.215-.168.53-.132.701.086.171.217.132.532-.086.702l-7.059 5.515c-.09.072-.198.106-.307.106zm9.787-7.906c-.148 0-.295-.066-.394-.192-.171-.217-.132-.532.086-.702l7.059-5.515c.216-.169.53-.132.701.086.171.217.132.532-.086.702l-7.059 5.515c-.091.071-.199.106-.307.106z" fill="#e1e8ed"/></svg>