<svg viewBox="0 0 36 36" xmlns="http://www.w3.org/2000/svg"><path d="m24.357 16.337s2.248-3.959 4.805-4.169 3.929.934 4.144 3.432c.287 3.334-.878 3.802-.033 7.53 0 0-3.546-2.414-2.421-6.07 1.172-3.806-4.81-3.095-3.835.316z" fill="#dd2e44"/><path d="m14.31 20.375c-.553 0-1 .448-1 1v13.563c0 .552.447 1 1 1s1-.448 1-1v-13.563c0-.552-.448-1-1-1z" fill="#ffcc4d"/><path d="m15.31 25.77-2 1.047v2.257l2-1.047zm-2 8.054 2-1.047v-2.257l-2 1.047z" fill="#f4900c"/><path d="m3.912 21.935c-1.181-.117-1.918 1.621-1.918 1.621.114.814.447 2.255.597 2.778.327 1.141 2.121 3.095 3.262 2.768s.814-1.468.487-2.608c-.327-1.141-2.428.622-1.794-1.955.149-.606.865-.756 1.483-.695 2.362.234 2.881-.223 3.788-1.325 1.064-1.296-4.724-.467-5.905-.584zm25.142 6.7c0 2.373 1.187 3.56 3.56 3.56s1.187 0 0-2.373-3.56-3.56-3.56-3.56z" fill="#8899a6"/><path d="m34.987 31.008c-1.187-1.187-2.373 0-2.373-2.373s-1.187-3.56-2.373-3.56-1.187-4.746-1.187-5.933-2.373-5.933-5.933-5.933-5.933 1.187-8.306 1.187-3.56 0-4.746-4.746c-.91-3.64-4.746-4.746-8.306-3.56 0 0-2.582-.995-1.395.192s-.18.995-.18 3.368c0 .275.066.515.174.73-.008 1.109-.019 3.141.007 3.62.036.667.294.883 1.131 1.208 1.125.438 1.782-.319 1.854-.708.146-.792.021-1.656.021-1.656s1.167-.469 1.896-1.135c.098.081.625 1.146.052 2.688-.413 1.112-1.187 2.373 1.187 5.933 0 0-3.56 0-4.746 1.187-1.187 1.187-1.476 3.56-1.452 4.746.033 1.648 1.452 3.56 2.639 3.56s1.187-1.187 1.187-2.373c0-1.187-2.373 0-1.187-2.373 1.187-2.373 1.187-1.187 2.373-1.187 1.187 0 3.56-1.187 4.746-1.187s3.56 1.187 5.933 1.187 4.746-2.373 7.119 0 5.933 2.373 7.119 3.56c1.187 1.187 1.187 2.373 1.187 3.56s2.373 2.373 3.56 2.373 1.186-1.188-.001-2.375z" fill="#ccd6dd"/><path d="m10.712 11.761c1.006 2.629 2.154 2.635 4.103 2.635 2 0 4.008-.835 6.718-1.101.143.36.276.728.401 1.101 1.187 3.56 0 5.933-5.933 5.933-3.277 0-5.933-2.656-5.933-5.933.001-.951.246-1.838.644-2.635z" fill="#3b94d9"/><path d="m5.629 19.705c.225.026.459-.013.674-.124.17-.087 4.187-2.185 5.919-5.914.276-.594-1.171-1.719-1.446-1.629-.301.099-.56.318-.704.628-1.385 2.98-4.821 4.786-4.854 4.804-.581.301-.81 1.017-.509 1.598.187.367.539.594.92.637z" fill="#f4900c"/><ellipse cx="14.31" cy="15.245" fill="#1c6399" rx="1.455" ry="1.163"/><path d="m14.31.25c-.553 0-1 .448-1 1v13.573l.005-.001-.003.001c.006.547.449.989.998.989.553 0 1-.448 1-1v-13.562c0-.552-.448-1-1-1z" fill="#ffcc4d"/><path d="m15.31 2.02-2 1.047v2.257l2-1.047zm0 4.75-2 1.047v2.257l2-1.047zm-2 8.043.01.006 1.99-1.041v-2.258l-2 1.047z" fill="#f4900c"/><path d="m3.274 13.255c-.091 0-.182-.025-.262-.074-1.136-.698-2.341-.72-2.353-.72-.276-.003-.498-.229-.496-.504s.225-.496.5-.496c.057.011 1.129.003 2.35.584.287-.838.765-2.666.466-4.922-.036-.274.156-.525.43-.562.276-.033.525.156.562.43.452 3.409-.695 5.875-.744 5.978-.061.128-.173.225-.31.265-.047.014-.095.021-.143.021z" fill="#1c6399"/><ellipse cx="1.846" cy="8.862" fill="#292f33" rx=".555" ry=".424" transform="matrix(.55262084 -.83343279 .83343279 .55262084 -6.559572 5.504024)"/><path d="m12.442 13.21c-2.373-2.373-1.006-5.256-3.379-7.629-1.876-1.876-4.927-1.863-7.3.51 0 0 1.121 1.086 4.081 1.378 1.43.141 2.649 1.693 3.337 2.782 2.21 4.311 5.056 4.754 3.261 2.959z" fill="#dd2e44"/></svg>