<svg viewBox="0 0 36 36" xmlns="http://www.w3.org/2000/svg"><path d="m30.806 15.347h-11.605l8.205-8.205-.707-.707-8.205 8.205v-11.604h-1v11.604l-8.206-8.205-.707.707 8.206 8.205h-11.605v1h11.605l-8.206 8.206.707.707 8.206-8.206v11.605h1v-11.604l8.205 8.205.707-.707-8.205-8.206h11.605z" fill="#ccd6dd"/><path d="m17.994 1.394c-7.982 0-14.453 6.471-14.453 14.453s6.471 14.453 14.453 14.453c7.983 0 14.454-6.471 14.454-14.453-.001-7.982-6.472-14.453-14.454-14.453zm0 26.683c-6.755 0-12.23-5.475-12.23-12.23s5.475-12.23 12.23-12.23c6.754 0 12.23 5.475 12.23 12.23s-5.475 12.23-12.23 12.23z" fill="#aab8c2"/><path d="m17.993 23.374c-4.15 0-7.526-3.377-7.526-7.527s3.376-7.526 7.526-7.526c4.151 0 7.528 3.376 7.528 7.526s-3.376 7.527-7.528 7.527zm0-13.553c-3.323 0-6.026 2.704-6.026 6.026s2.704 6.027 6.026 6.027c3.324 0 6.028-2.704 6.028-6.027s-2.704-6.026-6.028-6.026z" fill="#aab8c2"/><path d="m27.279 34.429-8.376-18.344c-.021-.046-.058-.076-.085-.117-.038-.059-.072-.118-.123-.169s-.11-.085-.17-.123c-.041-.027-.071-.064-.117-.085-.012-.005-.024-.003-.035-.008-.064-.027-.132-.034-.201-.047-.061-.011-.121-.03-.182-.03-.054 0-.106.018-.161.027-.075.013-.149.022-.219.051-.011.005-.023.003-.034.008-.044.02-.074.057-.114.082-.061.039-.121.074-.173.125-.051.051-.086.111-.124.171-.026.04-.063.07-.083.115l-8.373 18.344c-.229.502-.008 1.096.494 1.325.135.061.276.09.415.09.379 0 .742-.217.91-.585l7.465-16.351 7.465 16.351c.168.368.531.585.911.585.139 0 .279-.029.414-.091.504-.229.725-.822.496-1.324z" fill="#8899a6"/><path d="m12.9 36h-5.821c-.552 0-1-.447-1-1s.448-1 1-1h5.821c.552 0 1 .447 1 1s-.448 1-1 1zm15.999 0h-5.82c-.553 0-1-.447-1-1s.447-1 1-1h5.82c.553 0 1 .447 1 1s-.447 1-1 1z" fill="#553788"/><path d="m21.284 29.819c0 1.535-1.244 2.779-2.779 2.779h-1.112c-1.535 0-2.779-1.244-2.779-2.779s1.244-2.779 2.779-2.779h1.112c1.534 0 2.779 1.244 2.779 2.779z" fill="#744eaa"/><path d="m21.227 29.263c-.257-1.269-1.378-2.224-2.723-2.224h-1.112c-1.345 0-2.466.954-2.724 2.224z" fill="#cbb7ea"/><path d="m11.017 26.527c0 1.535-1.244 2.779-2.779 2.779h-1.112c-1.535 0-2.779-1.244-2.779-2.779s1.244-2.779 2.779-2.779h1.112c1.535 0 2.779 1.244 2.779 2.779z" fill="#5c913b"/><path d="m10.96 25.971c-.257-1.269-1.378-2.224-2.723-2.224h-1.111c-1.345 0-2.466.954-2.724 2.224z" fill="#c6e5b3"/><path d="m34.977 17.633c0 1.535-1.244 2.779-2.779 2.779h-1.112c-1.535 0-2.779-1.244-2.779-2.779s1.244-2.779 2.779-2.779h1.112c1.535-.001 2.779 1.243 2.779 2.779z" fill="#3b94d9"/><path d="m34.921 17.077c-.257-1.269-1.378-2.224-2.723-2.224h-1.112c-1.344 0-2.466.954-2.723 2.224z" fill="#bbddf5"/><path d="m31.644 7.887c0 1.535-1.244 2.779-2.779 2.779h-1.112c-1.535 0-2.779-1.244-2.779-2.779s1.244-2.779 2.779-2.779h1.112c1.535 0 2.779 1.244 2.779 2.779z" fill="#5c913b"/><path d="m31.588 7.331c-.257-1.269-1.378-2.224-2.723-2.224h-1.112c-1.344 0-2.466.954-2.723 2.224z" fill="#c6e5b3"/><path d="m31.644 26.527c0 1.535-1.244 2.779-2.779 2.779h-1.112c-1.535 0-2.779-1.244-2.779-2.779s1.244-2.779 2.779-2.779h1.112c1.535 0 2.779 1.244 2.779 2.779z" fill="#be1931"/><path d="m31.588 25.971c-.257-1.269-1.378-2.224-2.723-2.224h-1.112c-1.344 0-2.466.954-2.723 2.224z" fill="#f4abba"/><path d="m11.017 7.887c0 1.535-1.244 2.779-2.779 2.779h-1.112c-1.535 0-2.779-1.244-2.779-2.779s1.244-2.779 2.779-2.779h1.112c1.535 0 2.779 1.244 2.779 2.779z" fill="#be1931"/><path d="m10.96 7.331c-.257-1.269-1.378-2.224-2.723-2.224h-1.111c-1.345 0-2.466.954-2.724 2.224z" fill="#f4abba"/><path d="m21.284 2.876c0 1.535-1.244 2.779-2.779 2.779h-1.112c-1.535 0-2.779-1.244-2.779-2.779s1.244-2.779 2.779-2.779h1.112c1.534-.001 2.779 1.243 2.779 2.779z" fill="#744eaa"/><path d="m21.227 2.32c-.257-1.269-1.378-2.224-2.723-2.224h-1.112c-1.345 0-2.466.954-2.724 2.224z" fill="#cbb7ea"/><path d="m7.682 17.633c0 1.535-1.244 2.779-2.779 2.779h-1.113c-1.535 0-2.779-1.244-2.779-2.779s1.244-2.779 2.779-2.779h1.112c1.535-.001 2.78 1.243 2.78 2.779z" fill="#3b94d9"/><path d="m7.625 17.077c-.257-1.269-1.378-2.224-2.723-2.224h-1.112c-1.345 0-2.466.954-2.724 2.224z" fill="#bbddf5"/><path d="m14.952 15.847c0-1.68 1.362-3.041 3.041-3.041 1.68 0 3.042 1.362 3.042 3.041s-1.362 3.041-3.042 3.041c-1.679.001-3.041-1.361-3.041-3.041z" fill="#553788"/></svg>