<svg viewBox="0 0 36 36" xmlns="http://www.w3.org/2000/svg"><circle cx="18" cy="18" fill="#dd2e44" r="18"/><circle cx="18" cy="18" fill="#fff" r="13.5"/><circle cx="18" cy="18" fill="#dd2e44" r="10"/><circle cx="18" cy="18" fill="#fff" r="6"/><circle cx="18" cy="18" fill="#dd2e44" r="3"/><path d="m18.24 18.282 13.144 11.754s-2.647 3.376-7.89 5.109l-5.915-16.725z" opacity=".2"/><path d="m18.294 19c-.255 0-.509-.097-.704-.292-.389-.389-.389-1.018 0-1.407l.563-.563c.389-.389 1.018-.389 1.408 0 .388.389.388 1.018 0 1.407l-.564.563c-.194.195-.448.292-.703.292z" fill="#ffac33"/><path d="m24.016 6.981c-.403 2.079 0 4.691 0 4.691l7.054-7.388c.291-1.454-.528-3.932-1.718-4.238-1.19-.306-4.079.803-5.336 6.935zm5.003 5.003c-2.079.403-4.691 0-4.691 0l7.388-7.054c1.454-.291 3.932.528 4.238 1.718s-.803 4.079-6.935 5.336z" fill="#55acee"/><path d="m32.798 4.485-11.622 13.102c-.362.362-1.673.882-2.51.046-.836-.836-.419-2.08-.057-2.443l13.206-11.689s.676-.635 1.159-.152-.176 1.136-.176 1.136z" fill="#3a87c2"/></svg>