<svg viewBox="0 0 36 36" xmlns="http://www.w3.org/2000/svg"><path d="m4 11v.137c0-.042.011-.084.015-.126zm13 11.137c-.146-.067-.287-.145-.412-.246l-12.023-9.646c-.377-.305-.565-.706-.565-1.108v12.238c0 2.042 1.093 2.484 1.093 2.484l11.574 9.099c.205.161.377.259.528.318-.114-.174-.195-.375-.195-.604zm-8.773.363c-.994 0-2.033-1.007-2.319-2.25-.287-1.242.287-2.249 1.28-2.249.994 0 2.033 1.007 2.319 2.249.287 1.243-.286 2.25-1.28 2.25zm5.583 7.5c-.994 0-2.033-1.008-2.319-2.25-.287-1.243.287-2.25 1.281-2.25s2.033 1.007 2.319 2.25c.286 1.242-.287 2.25-1.281 2.25z" fill="#a0041e"/><path d="m31.435 12.161-12.104 9.73c-.102.083-.214.152-.331.212v12.569c0 .233-.083.437-.2.614.155-.058.335-.16.548-.328 1.821-1.432 11.588-9.099 11.588-9.099s1.064-.442 1.064-2.484v-12.322c0 .402-.188.803-.565 1.108zm-7.457 16.731c-.242 1.137-1.119 2.058-1.958 2.058-.838 0-1.322-.921-1.08-2.058s1.118-2.058 1.957-2.058 1.322.921 1.081 2.058zm3.538-5.271c-.254 1.172-1.178 2.121-2.062 2.121-.883 0-1.392-.949-1.138-2.121.255-1.172 1.179-2.121 2.061-2.121.885 0 1.394.949 1.139 2.121zm3.063-5.105c-.251 1.115-1.163 2.017-2.035 2.017s-1.375-.902-1.123-2.017c.251-1.113 1.162-2.016 2.034-2.016.873 0 1.376.903 1.124 2.016zm1.415-7.511c.001.016.006.032.006.048v-.053z" fill="#dd2e44"/><path d="m31.435 9.945-12.146-9.445c-.753-.61-1.988-.61-2.742 0l-11.982 9.529c-.338.273-.515.624-.551.983-.003.042-.014.083-.014.125 0 .402.188.803.565 1.108l12.023 9.646c.125.101.265.178.412.246v12.535c0 .229.081.43.194.604.181.28.466.474.806.474.336 0 .619-.19.8-.464.117-.176.2-.38.2-.614v-12.569c.117-.06.229-.129.331-.212l12.104-9.73c.377-.305.565-.706.565-1.108 0-.016-.005-.032-.006-.049-.014-.385-.198-.767-.559-1.059zm-12.935-1.278c1.61 0 2.916 1.044 2.916 2.333s-1.306 2.333-2.916 2.333c-1.611 0-2.916-1.044-2.916-2.333s1.305-2.333 2.916-2.333z" fill="#ea596e"/><ellipse cx="18.5" cy="11" fill="#fff" rx="2.916" ry="2.333"/><path d="m29.455 16.5c-.872 0-1.783.903-2.034 2.016-.252 1.115.251 2.017 1.123 2.017s1.784-.902 2.035-2.017c.252-1.113-.251-2.016-1.124-2.016zm-3.077 5c-.883 0-1.807.949-2.061 2.121s.255 2.121 1.138 2.121c.884 0 1.808-.949 2.062-2.121s-.255-2.121-1.139-2.121zm-3.482 5.334c-.839 0-1.715.921-1.957 2.058s.242 2.058 1.08 2.058c.839 0 1.716-.921 1.958-2.058s-.242-2.058-1.081-2.058z" fill="#fff"/><path d="m7.188 18.001c-.994 0-1.567 1.007-1.28 2.249.287 1.243 1.325 2.25 2.319 2.25s1.567-1.007 1.28-2.25c-.286-1.242-1.325-2.249-2.319-2.249zm5.583 7.499c-.994 0-1.567 1.007-1.281 2.25.287 1.242 1.326 2.25 2.32 2.25s1.567-1.008 1.281-2.25c-.287-1.243-1.326-2.25-2.32-2.25z" fill="#e1e8ed"/></svg>