<svg viewBox="0 0 36 36" xmlns="http://www.w3.org/2000/svg"><path d="m23.912 12.087c-1.693-1.693-3.594-2.587-5.497-2.587-1.626 0-3.189.667-4.402 1.88-1.519 1.519-1.727 2.39-1.865 2.966-.071.295-.106.421-.255.57-.106.106-.155.256-.14.406.015.149.1.286.225.369.013.009.324.22.368.651.039.394-.13 1.08-1.16 2.11-.629.629-1.252.948-1.85.948-.981 0-1.649-.87-1.654-.877-.11-.15-.295-.226-.48-.197s-.337.159-.396.335c-.221.663-.251.668-.535.709-.59.086-1.578.229-3.624 2.275-1.675 1.675-2.266 3.767-1.708 6.048.395 1.617 1.408 3.358 2.708 4.659 1.408 1.408 3.802 2.912 6.301 2.912 1.654 0 3.137-.643 4.406-1.912 2.045-2.046 2.189-3.033 2.274-3.624.042-.284.046-.313.71-.534.177-.06.307-.212.336-.396s-.046-.369-.196-.48c-.008-.006-.805-.619-.873-1.527-.047-.638.27-1.302.944-1.976.963-.963 1.622-1.165 2.005-1.165.504 0 .746.357.752.366.08.13.216.216.368.234.142.016.303-.035.411-.144.149-.149.275-.185.57-.255.576-.139 1.446-.348 2.965-1.866 2.286-2.286 2.955-6.234-.708-9.898z" fill="#f18f26"/><path d="m34 3-15 17-3-3 17-15z" fill="#292f33"/><path d="m13 27c-.256 0-.512-.098-.707-.293l-3-3c-.391-.391-.391-1.023 0-1.414s1.023-.391 1.414 0l3 3c.391.391.391 1.023 0 1.414-.196.195-.452.293-.707.293z" fill="#642116"/><path d="m4.628 29.935 24.172-24.128.53.531-24.17 24.128zm.869.869 24.173-24.128.531.532-24.173 24.127z" fill="#ccd6dd"/><path d="m34.704 2.685c.438.438.438 1.155-.001 1.592l-3.186 3.186c-.438.438-1.155.438-1.593-.001l-1.39-1.389c-.438-.438-.438-1.155.001-1.592l3.187-3.186c.438-.438 1.155-.438 1.593 0z" fill="#f18f26"/><path d="m2 32 4-5s1 0 2 1 1 2 1 2l-5 4z" fill="#292f33"/><g fill="#642116"><circle cx="33" cy="8" r="1"/><circle cx="35" cy="6" r="1"/><circle cx="28" cy="3" r="1"/><circle cx="30" cy="1" r="1"/></g></svg>