<svg viewBox="0 0 36 36" xmlns="http://www.w3.org/2000/svg"><path d="m36 27c0 2.209-1.791 4-4 4h-28c-2.209 0-4-1.791-4-4v-18c0-2.209 1.791-4 4-4h28c2.209 0 4 1.791 4 4z" fill="#31373d"/><path d="m11 24c0 2.209-.791 3-3 3h-4c-2.209 0-3-.791-3-3v-12c0-2.209.791-3 3-3h4c2.209 0 3 .791 3 3zm12 0c0 2.209-.791 3-3 3h-4c-2.209 0-3-.791-3-3v-12c0-2.209.791-3 3-3h4c2.209 0 3 .791 3 3zm12 0c0 2.209-.791 3-3 3h-4c-2.209 0-3-.791-3-3v-12c0-2.209.791-3 3-3h4c2.209 0 3 .791 3 3z" fill="#ccd6dd"/><path d="m1 13h10v10h-10zm12 0h10v10h-10zm12 0h10v10h-10z" fill="#e1e8ed"/><path d="m30.795 15.685h-2.816c-.594 0-.813-.385-.813-.759 0-.385.209-.759.813-.759h3.983c.561 0 .792.506.792.792 0 .22-.121.451-.253.726l-2.729 5.545c-.308.615-.429.836-.925.836-.604 0-.912-.463-.912-.781 0-.133.033-.232.109-.385zm-12 0h-2.816c-.594 0-.814-.385-.814-.759 0-.385.209-.759.814-.759h3.983c.561 0 .792.506.792.792 0 .22-.121.451-.253.726l-2.729 5.545c-.308.615-.429.836-.924.836-.605 0-.913-.463-.913-.781 0-.133.033-.232.11-.385zm-12 0h-2.816c-.594 0-.814-.385-.814-.759 0-.385.209-.759.814-.759h3.983c.561 0 .792.506.792.792 0 .22-.121.451-.253.726l-2.729 5.545c-.308.615-.429.836-.924.836-.605 0-.913-.463-.913-.781 0-.133.033-.232.11-.385z" fill="#be1931"/><path d="m3.061 9c-.04.162-.061.329-.061.5 0 1.381 1.343 2.5 3 2.5s3-1.119 3-2.5c0-.171-.021-.338-.061-.5zm12 0c-.04.162-.061.329-.061.5 0 1.381 1.343 2.5 3 2.5 1.656 0 3-1.119 3-2.5 0-.171-.021-.338-.06-.5zm11.999 0c-.039.162-.06.329-.06.5 0 1.381 1.344 2.5 3 2.5s3-1.119 3-2.5c0-.171-.021-.338-.061-.5z" fill="#9266cc"/><path d="m8.816 27c.112-.157.184-.324.184-.5 0-.828-1.343-1.5-3-1.5s-3 .672-3 1.5c0 .176.072.343.184.5zm12 0c.112-.157.184-.324.184-.5 0-.828-1.344-1.5-3-1.5-1.657 0-3 .672-3 1.5 0 .176.072.343.184.5zm12 0c.112-.157.184-.324.184-.5 0-.828-1.344-1.5-3-1.5s-3 .672-3 1.5c0 .176.072.343.184.5z" fill="#f4900c"/></svg>