<svg viewBox="0 0 36 36" xmlns="http://www.w3.org/2000/svg"><path d="m6.318 1.031c1.499 1.499 13.184 8.685 23.386 0v10.969h-23.386z" fill="#269"/><path d="m34.918 5.946c0-2.537-2.429-4.475-4.27-5.391-.761-.378-1.812.393-1.896.873-.943 5.39-6.867 10.08-10.753 10.08-3.833 0-9.636-4.563-10.696-9.861-.11-.551-1.183-1.467-1.947-1.085-1.838.917-4.251 2.853-4.251 5.384 3.122 4.607 3.827 6.381 3.827 11.159 0 4.777-1.366 14.117-2.56 16.507 1.194 1.195 8.222 2.388 15.628 2.388 7.405 0 14.448-1.193 15.642-2.389-1.194-2.39-2.546-11.73-2.546-16.507s.701-6.551 3.822-11.158z" fill="#55acee"/><path d="m4.192 25.616c-.433 3.006-1.002 5.832-1.56 7.366l28.506-17.637c.177-3.329.976-5.184 3.323-8.717z" fill="#ffd983"/></svg>