<svg viewBox="0 0 36 36" xmlns="http://www.w3.org/2000/svg"><path d="m21.828 20.559c-2.121.707-2.828-2.828-2.828-2.828s.965-.968.235-1.829c1.138-1.137.473-1.707.473-1.707-1.954-1.953-5.119-1.953-7.071 0-.246.246-.414.467-.553.678-.061.086-.115.174-.17.262l-.014.027c-.285.475-.491.982-.605 1.509-.156.319-.379.659-.779 1.06-1.414 1.414-4.949-.707-7.778 2.121-.029.029-.045.069-.069.104-.094.084-.193.158-.284.25-3.319 3.319-3.003 9.018.708 12.728 3.524 3.525 8.84 3.979 12.209 1.17.058-.031.117-.061.165-.109.071-.072.126-.14.193-.21.053-.049.109-.093.161-.143 1.693-1.694 2.342-3.73 2.086-5.811-.068-.99-.165-1.766.39-2.321.707-.707 2.828 0 4.242-1.414 2.117-2.122.631-3.983-.711-3.537z" fill="#bb1a34"/><path d="m14.987 18.91 15.339-15.338 2.121 2.122-15.339 15.339z" fill="#292f33"/><path d="m10.001 29.134c1.782 1.277 1.959 3.473 1.859 4.751-.042.528.519.898.979.637 2.563-1.456 4.602-3.789 4.038-7.853-.111-.735.111-2.117 2.272-2.406 2.161-.29 2.941-1.099 3.208-1.485.153-.221.29-.832-.312-.854-.601-.022-2.094.446-3.431-1.136s-1.559-2.228-1.604-2.473-1.409-3.694-2.525-1.864c-.927 1.521-1.958 4.509-5.287 5.287-1.355.316-3.069 1.005-3.564 1.96-.832 1.604.46 2.725 1.574 3.483 1.115.757 2.793 1.953 2.793 1.953z" fill="#f5f8fa"/><path d="m13.072 19.412 1.414-1.415 3.536 3.535-1.414 1.414zm-4.475 4.474 1.415-1.414 3.535 3.535-1.414 1.414z" fill="#292f33"/><path d="m7.396 27.189 21.802-21.762.53.531-21.801 21.762zm.869.868 21.802-21.761.53.531-21.801 21.763z" fill="#ccd6dd"/><path d="m9.815 28.325c.389.389.389 1.025 0 1.414s-1.025.389-1.414 0l-2.122-2.121c-.389-.389-.389-1.025 0-1.414h.001c.389-.389 1.025-.389 1.414 0z" fill="#292f33"/><circle cx="13.028" cy="29.556" fill="#292f33" r="1"/><path d="m14.445 31.881c0 .379-.307.686-.686.686s-.686-.307-.686-.686.307-.686.686-.686.686.307.686.686z" fill="#292f33"/><path d="m35.088 4.54c.415.415.415 1.095-.001 1.51l-4.362 3.02c-.416.415-1.095.415-1.51 0l-2.265-2.266c-.415-.415-.415-1.095.001-1.51l3.02-4.361c.416-.415 1.095-.415 1.51 0z" fill="#bb1a34"/><g fill="#66757f"><circle cx="32.123" cy="9.402" r=".625"/><circle cx="33.381" cy="8.557" r=".625"/><circle cx="34.64" cy="7.712" r=".625"/><circle cx="26.712" cy="3.811" r=".625"/><circle cx="27.555" cy="2.571" r=".625"/><circle cx="28.398" cy="1.332" r=".625"/></g></svg>