<svg viewBox="0 0 36 36" xmlns="http://www.w3.org/2000/svg"><path clip-rule="evenodd" d="m14 16-5 10s-1 2 1 2c1 0 2-2 2-2l14-19s2-4 8-1v2c-3-1-4 1-4 1l-15 24s-2 3-7 3c-6 0-7-5-7-8 0-2 1-4 2-6s-2-6-2-6z" fill="#fcab40" fill-rule="evenodd"/><path d="m7.5 20c-3.46 0-7.5-1.048-7.5-4 0-2.953 4.04-4 7.5-4s7.5 1.047 7.5 4c0 2.952-4.04 4-7.5 4z" fill="#fdcb58"/><g fill="#ccd6dd"><circle cx="19" cy="17" r="2"/><circle cx="22" cy="13" r="2"/><circle cx="25" cy="9" r="2"/></g><path d="m33.998 10c-.3 0-.605-.068-.893-.211l-2-1c-.988-.494-1.389-1.695-.895-2.684.493-.986 1.693-1.39 2.684-.895l2 1c.988.494 1.389 1.695.895 2.684-.351.701-1.057 1.106-1.791 1.106z" fill="#9aaab4"/><path clip-rule="evenodd" d="m8.806 21.703 1.267-1.547 6.19 5.069-1.267 1.547z" fill="#fcab40" fill-rule="evenodd"/></svg>