<svg viewBox="0 0 36 36" xmlns="http://www.w3.org/2000/svg"><path d="m35.538 26.679s1.328 2.214-2.658 6.201c-3.987 3.986-6.201 2.658-6.201 2.658l-19.494-19.492s.977-2.748 3.544-5.316c2.568-2.567 5.316-3.544 5.316-3.544z" fill="#d99e82"/><path d="m13.388 9.844c.979.979 4.522 6.109 3.544 7.088-.979.978-6.109-2.565-7.088-3.544l-8.86-8.86c-.978-.979-.978-2.565 0-3.544.979-.978 2.565-.978 3.544 0z" fill="#c1694f"/><path d="m.983 4.528 3.545-3.544 5.316 5.316-3.544 3.544z" fill="#292f33"/><circle cx="19" cy="31" fill="#be1931" r="5"/><path d="m19 36c-.552 0-1-.447-1-1v-8c0-.553.448-1 1-1 .553 0 1 .447 1 1v8c0 .553-.447 1-1 1z" fill="#662113"/></svg>