<svg viewBox="0 0 36 36" xmlns="http://www.w3.org/2000/svg"><path d="m36 5v27s0 4-4 4h-28c-4 0-4-4-4-4v-5s25-2 36-22z" fill="#4289c1"/><path d="m31.844 23.243s2.565-1.635 2.258-2.288c-.309-.654-11.778.99-17.528 2.954-8.627 2.947-13.144 7.522-12.526 8.828.617 1.306 7.602 1.953 16.228-.993 5.752-1.964 15.368-7.524 15.06-8.177-.309-.653-3.492-.324-3.492-.324z" fill="#1c6399"/><path d="m31.474 22.747s2.65-1.619 2.349-2.291c-.303-.673-12.042.782-17.949 2.675-8.864 2.841-13.563 7.424-12.958 8.769s7.723 2.141 16.585-.699c5.91-1.893 15.833-7.383 15.532-8.055-.303-.673-3.559-.399-3.559-.399z" fill="#a6d388"/><path d="m31.474 22.747s2.507-1.534 2.358-2.235l-30.076 9.466c-.722.837-1.019 1.523-.84 1.922.156.348.755.657 1.7.878l30.395-9.566c.003-.02.029-.051.022-.066-.303-.673-3.559-.399-3.559-.399z" fill="#f5f8fa"/><path d="m27.755 12.233c-.589-.235-1.348-.276-2.104-.386-1.198-.175-2.852-.765-3.529-1.086-.825-.495-2.577-1.661-3.012-1.948s-1.017-.685-1.735-.813h-.156c.385.542.609 1.159.748 2.841 0 0 3.319 1.661 3.595 1.753 1.125.375 3.182.366 4.344.512.602.076 1.021-.014 1.499-.047.722-.049 1.38-.055 1.422-.371.05-.367-.595-.265-1.072-.455zm-13.057-11.236c-1.593-.627-4.077.182-4.365 2.043-.287 1.848.239 4.747 1.863 4.572 1.702-.184 3.448-.554 4.138-2.307.69-1.752-.043-3.681-1.636-4.308z" fill="#af7e57"/><path d="m15.882 5.757c2.318-2.723-3.266-2.458-3.266-2.458-1.057.038-.329 1.799-.827 2.761-.341.665 1.095 1.018 1.095 1.018s.659-.01.694.79v.007c.008.204-.013.445-.108.769-.473 1.601 1.677 2.582 2.149.978.187-.635.114-1.193.02-1.708l-.009-.046c-.144-.766-.322-1.438.252-2.111zm-4.883 2.645c-1.666.993-3.368 3.049-3.98 3.914-.36.283-.686.614-.897.736-.389.223-2.154 1.432-3.334 2.005-.354.166-1.458.438-1.992.781-.432.278-.845.262-.727.612.102.302.508.216 1.227.132s1.929-.289 2.325-.566c.8-.531 3.347-1.156 4.597-2.031.221-.155 2.385-2.163 2.781-2.741.543-1.515.282-2.556 0-2.842z" fill="#af7e57"/><path d="m16.518 1.64c-1.061-1.242-2.52-1.757-5.019-.791-2.183.844-1.481 2.579-.972 2.282 1.869-1.09 2.899.514 3.697 2.269.523 1.151 1.56 1.502 1.56 1.502s.337.132.912-1.001.876-3.028-.178-4.261z" fill="#60352a"/><path d="m16.261 28.432c-.378-.1-.67-.432-.807-.785-.059-.152-.365-1.001-.365-1.001h-1.819c.043.214-.037.696-.134 1.197-.062.322-.114.892-.013 1.093s.817.74 1.301.839c1.237.255 2.491-.342 2.644-.517.222-.255-.428-.726-.807-.826zm7.51-3.222c-.334-.065-.607-.336-.746-.634-.06-.129-.22-.651-.22-.651l-1.609.22c.05.183-.027.417-.008.793.017.335-.058.748.042.917.099.169.601.571 1.027.629 1.088.148 2.141-.443 2.264-.604.176-.235-.416-.605-.75-.67z" fill="#af7e57"/><path d="m16.188 2.219c.875-1.312 2.774-1.438 3.637-.469s1.185 2.25 2.338 2.25c.368 0 .552.344-.212.688s-3.889 1.031-5.076-1.188c-.531-.656-.687-1.281-.687-1.281z" fill="#60352a"/><path d="m22.777 22.241c.023-.706.412-2.193.265-2.824-.229-.981-1.5-2.047-2.677-2.948s-2.375-1.438-2.375-1.438c-.302-1.896.242-2.896.235-3.716-.006-.684-.433-2.648-1.006-3.315h-1.565s.246 1.013-.647 1.112c-.895.099-1.447-1.112-1.447-1.112l-1.748.167c-.278.043-.549.125-.813.236.376.639.23 2.285 0 2.841.823 1.188 1.536 3.003 1.146 5.256-.346 2.002.473 3.889.473 4.324 0 0-.503 1.749-.2 2.898.403 1.529.768 2.884.81 3.423 1.412 0 1.981-.39 1.981-.39s-.278-.638-.165-1.577c.069-.572.351-1.455.351-2.304s-.022-1.461.104-1.812.52-1.576.812-2.704c.534.292 1.493.792 2.084.954.849.232 1.494.595 1.718.79s.376.335.376.335-.07.625-.01 1.583c.055.877.53 1.551.636 2.596.893-.133 1.739-.528 1.739-.528s-.096-1.267-.077-1.847z" fill="#292f33"/><path d="m12.375 8.594.904-.086s1.202 1.373 2.096 1.274.841-1.354.841-1.354h1.269c-.085-.168-.173-.319-.266-.428h-1.565s.246 1.013-.647 1.112c-.895.099-1.447-1.112-1.447-1.112l-1.748.167c-.278.043-.549.125-.813.236.077.131.128.311.165.509.346-.118.973-.282 1.211-.318zm8.667 13.854c-.06-.958.01-1.583.01-1.583s-.151-.141-.376-.335c-.068-.059-.186-.136-.326-.218l.139.126s-.07.625-.01 1.583c.055.877.53 1.551.636 2.596.158-.024.313-.057.464-.093-.175-.763-.492-1.357-.537-2.076zm-8.061 1.701c-.303-1.149.2-2.898.2-2.898 0-.435-.798-2.791-.452-4.793 4-.021 5.26-1.427 5.26-1.427s-2.719 1.26-5.201.533c-.074-1.788-.788-3.661-1.707-4.579-.025.1-.053.188-.082.258.823 1.188 1.536 3.003 1.146 5.256-.346 2.002.473 3.889.473 4.324 0 0-.503 1.749-.2 2.898.403 1.529.768 2.884.81 3.423.178 0 .342-.006.494-.017-.129-.672-.421-1.766-.741-2.978z" fill="#67757f"/></svg>