<svg viewBox="0 0 36 36" xmlns="http://www.w3.org/2000/svg"><path d="m23.331 31.571c-.397-.703-2.062-3.517-2.271-4.202-.208-.688-.65-5.92-.425-8.497 0 0-4.17-2.707-3.805.281.371 3.032 1.247 8.775 1.412 9.329.166.552 2.589 3.442 3.342 4.393.417.527 2.093-.693 1.747-1.304z" fill="#f7dece"/><path d="m20.952 18.872c-.15 1.459-.079 4.396 0 6.047.037.776-3.354 2.279-3.464 1.39-.258-2.085-.748-5.292-1.016-7.156z" fill="#8e9195"/><path d="m17.407 25.676c.992-.192 2.218-.526 3.527-1.199-.014-.345-.027-.719-.038-1.12-1.334.758-2.597 1.123-3.621 1.33z" fill="#b7c0c1"/><path d="m19.084 26.313c-.283-2.525-.718-6.65-.761-7.178l-.996.082c.017.2.491 4.733.785 7.355.278-.028.621-.124.972-.259zm.555-.242c.371-.184.712-.397.954-.607-.16-2.229-.371-5.431-.437-6.542l-.996.063c.075 1.173.317 4.856.479 7.086z" fill="#a0a7ad"/><path d="m12.115 3.532-2.613-1.419c-.449-.249.029-1.303.479-1.054l2.692 1.466z" fill="#66757f"/><path d="m19.75 18.094c-.519-2.866-5.22.469-5.22.469s-1.768 8.649-1.768 9.48c0 .828.914 4.528 1.165 5.856.084.439 2.633.614 2.523-.354-.069-.599-.517-4.492-.444-4.948.073-.458.452-2.888 1.109-4.426.47-1.1 3.328-2.249 2.635-6.077z" fill="#f7dece"/><path d="m16.492 33.744c-.658-.864-4.719.256-6.118.957-.934.469-.657 1.299-.657 1.299h7.033s.399-1.391-.258-2.256z" fill="#ccd6dd"/><path d="m20.357 8.932c-2.148-1.12-5.023-2.745-7.273-5.713-.235-.31-2.122.944-1.969 1.156 2.125 2.938 4.438 5.5 11.075 7.398.069.02-.943-2.376-1.833-2.841z" fill="#eec2ad"/><path d="m20.214 21.561c.649-.842 1.058-1.939.713-3.468l-7.264.55s-1.247 4.619-1.559 7.508c-.104.963 4.067 1.474 4.307.602.204-.743.476-1.583.813-2.291.318-.914 2.354-1.993 2.99-2.901z" fill="#a0a7ad"/><path d="m19.198 22.592c.4-.332.798-.711 1.122-1.166-3.304.609-5.535-.062-7.198-.634-.061.324-.182.743-.255 1.103 1.255.419 2.721.779 4.84.779.476 0 .977-.032 1.491-.082zm-2.604 3.518c.104-.338.225-.678.354-1.01-1.907.06-3.431-.315-4.597-.645-.049.319-.135.829-.176 1.046 1.118.31 2.577.612 4.318.612z" fill="#ccd6dd"/><path d="m14.2 18.73c-.046.218-1.067 5.711-1.476 8.054.269.117.604.213.962.283.377-2.18 1.368-7.533 1.493-8.132zm3.488-.184-.996-.092c-.001.014-.133 1.436-.312 2.322-.051.253-.123.534-.198.819-.083.312-.177.637-.28.972-.25.814-.54 1.67-.815 2.472l-.001.004c-.083.242-.434 1.317-.67 2.128.367.033.723.037 1.035.008.267-.867.652-2.019.671-2.076.276-.805.557-1.647.799-2.454.102-.342.193-.671.274-.989.059-.234.122-.472.165-.686.189-.939.322-2.368.328-2.428zm1.709.507c0 .629-.265 1.913-.503 2.56-.045.121-.841 1.651-.985 1.979.359-.293.828-.617 1.298-1.008.201-.167.399-.348.59-.543.065-.167.128-.359.187-.566.238-.832.413-1.886.413-2.422z" fill="#b7c0c1"/><path d="m25.376 5.216c0 1.976-1.601 3.579-3.578 3.579s-3.58-1.603-3.58-3.579 1.603-3.579 3.58-3.579c1.976 0 3.578 1.602 3.578 3.579" fill="#f7dece"/><path d="m13.662 18.644s-.429-6.864 2.639-9.231c2.289-1.768 6.143-.446 7.165 1.599 1.024 2.045-2.874 3.118-2.414 8.28.092 1.019-7.39 1.356-7.39-.648z" fill="#fa743e"/><path d="m20.179 5.813c-.466 1.068-.788 1.977-.988 2.783.574.271 1.061 1.31 1.701 1.542 1.056.383 1.173-.277 1.197-.398.257-1.297.908-2.537 1.328-3.203.512-.809-2.646-2.084-3.238-.724z" fill="#f7dece"/><path d="m25.376 5.605c0 2.131-1.461 2.973-2.328 3.189-.867.217-2.147-.618-2.849-1.621-.74-1.058-1.177-2.188-.124-3.2 1.053-1.011-.14-.241-.599.204-.535.519-.535 1.447-.535 1.447s-1.16-1.234-.357-2.6 4.091-.123 4.545.145c.455.269 2.247 2.436 2.247 2.436z" fill="#292f33"/><path d="m19.929 5.215c-1.71-1.278-2.587-3.85-1.95-4.525 1.196-1.268 3.688-.109 4.328.983.641 1.094-1.86 3.929-2.378 3.542z" fill="#8e9195"/><path d="m18.942 3.06c0 1.151 1.674 4.486 4.971 4.473 1.727-.007 2.037-1.91 2.028-3.172-.006-1.081-1.176-2.966-2.808-3.433-1.631-.467-4.191.679-4.191 2.132z" fill="#a0a7ad"/><path d="m22.887 31.456c1.5-.255 1.286 1.386 1.247 1.974-.093 1.4-.37 2.57-1.362 2.57h-3.321s-.184-1.522 1.603-1.868c.353-.069-.312-2.312 1.833-2.676z" fill="#ccd6dd"/><path d="m13.63 8.191c-.717-.828-.977-1.983-.796-3.425.592-.259 1.006-.833 1.006-1.503 0-.913-.763-1.652-1.705-1.652-.94 0-1.704.739-1.704 1.652 0 .206.044.402.115.584-.005.007-.026.004-.028.014-.871 7.123 4.099 7.824 5.732 8.055.101.014 1.768-2.244 1.666-2.244-1.993 0-3.435-.498-4.286-1.481z" fill="#f7dece"/><path d="m14.445 8.385c-.384 1.283-1.605 2.723-1.605 2.723 1.765 1.579 3.844 1.719 3.844 1.719s1.818-2.049 2.159-3.28c-1.551.432-4.398-1.162-4.398-1.162z" fill="#fa743e"/><path d="m29.589 11.917c-.013-.006-.024-.007-.037-.012-.049-.036-.091-.076-.147-.107l-15.62-8.65c-.449-.249-.706.926-.257 1.175l14.883 8.24c-.436.748-.717 1.871-.827 2.339-.189.805 1.137 1.61 2.004 1.61.867.001 1.027-4.072.001-4.595z" fill="#66757f"/></svg>