<svg viewBox="0 0 36 36" xmlns="http://www.w3.org/2000/svg"><path d="m9.294 7.969.55-.372v-.395c0-.276-.224-.5-.5-.5h-2c-.276 0-.5.224-.5.5v1.868l.632.428-.632.427v4.277h3v-5.861z" fill="#662113"/><path d="m31 21v-5l-5.965-5.965-2.41 1.507.167-3.75-4.792-4.792-13 13v7h2v1h-2v9h26v-5.5h-1v-1h1v-4.5h-2v-1z" fill="#d99e82"/><path d="m10 26h4v6h-4zm0-9h4v4h-4zm12.5 9h4v4h-4z" fill="#c1694f"/><path d="m33.5 33.5c0 .828-.672 1.5-1.5 1.5h-28c-.828 0-1.5-.672-1.5-1.5s.672-1.5 1.5-1.5h28c.828 0 1.5.672 1.5 1.5z" fill="#bcbec0"/><path d="m31.707 15.293-5.802-5.802-1.74 1.088 6.128 6.128c.195.195.451.293.707.293s.512-.098.707-.293c.391-.391.391-1.023 0-1.414zm-8.854-8.855-4.146-4.146c-.391-.391-1.023-.391-1.414 0l-13 13c-.391.391-.391 1.023 0 1.414s1.023.391 1.414 0l12.293-12.292 4.732 4.732z" fill="#292f33"/><g fill="#662113"><path d="m24.42 10.42-1.795 1.122.125-2.792-1.979-1.979-1.625 7.417 3.687 1.729-2.75 7.666 6.917-6.583-1-5zm-15.423 8.498 5.58-1.722.428 1.389-5.58 1.721zm-.318 10.848 5.753-2.952.664 1.293-5.754 2.952zm18.489-.274-5.58-1.722.429-1.388 5.58 1.721z"/><path d="m14.728 31.046-5.99-2.705.597-1.324 5.99 2.704z"/></g></svg>