<svg viewBox="0 0 36 36" xmlns="http://www.w3.org/2000/svg"><path d="m23.106 5.971c-5.491-5.491-14.722-6.492-19.799-1.414-5.077 5.077-4.077 14.308 1.414 19.799 3.554 3.554 7.785 4.323 11.707 3.058l-.015.013.13-.052c.264-.088.527-.179.788-.284.698-.238 1.734-.558 2.942-.806 1.848-.38 3.541 1.606 4.955 3.021 1.414 1.414 4.242 5.657 4.949 6.364s1.414 0 2.122-.707l.707-.707.707-.707c.707-.708 1.414-1.415.707-2.122s-4.95-3.535-6.364-4.949-3.4-3.107-3.021-4.955c.198-.965.441-1.815.653-2.481 1.974-4.222 1.537-8.952-2.582-13.071z" fill="#dd2e44"/><path d="m15.564 27.655c.289-.07.578-.149.864-.241l-.015.013.13-.052c.264-.088.527-.179.788-.284.698-.238 1.734-.558 2.942-.806 1.848-.38 3.541 1.606 4.955 3.021 1.414 1.414 4.242 5.657 4.949 6.364s1.414 0 2.122-.707l.707-.707.707-.707c.707-.708 1.414-1.415.707-2.122s-4.95-3.535-6.364-4.949-3.4-3.107-3.021-4.955c.198-.965.441-1.815.653-2.481.357-.764.633-1.543.824-2.334z" fill="#d99e82"/><path d="m20.277 22.942 1.414-1.414 12.022 12.021-1.414 1.414z" fill="#ffcc4d"/><circle cx="31.5" cy="6.5" fill="#ccd6dd" r="3.5"/></svg>