<svg viewBox="0 0 36 36" xmlns="http://www.w3.org/2000/svg"><path d="m1.537 24.962c-.414 0-.75.336-.75.75 0 .415.336.75.75.75h18v-1.5zm33.671-7.955h-12.5v1.5h12.5c.414 0 .75-.336.75-.75 0-.415-.335-.75-.75-.75z" fill="#292f33"/><path d="m23.216 9.624 5.742-5.742 5.743 5.742v7.383h-11.485z" fill="#ffcc4d"/><path d="m34.701 10.445c-.21 0-.42-.08-.58-.24l-5.162-5.162-5.162 5.162c-.32.32-.84.32-1.16 0s-.32-.84 0-1.16l5.742-5.742c.32-.32.84-.32 1.16 0l5.742 5.742c.32.32.32.84 0 1.16-.161.159-.371.24-.58.24z" fill="#292f33"/><path d="m27.318 11.265h3.281v5.742h-3.281z" fill="#662113"/><path d="m24.857 11.265h1.641v1.641h-1.641zm6.562 0h1.641v1.641h-1.641zm0 2.461h1.641v1.641h-1.641z" fill="#3b88c3"/><path d="m10.537 5.259-8.296 8.296v11.407h16.592v-11.407z" fill="#ffcc4d"/><path d="m19.87 15.629c-.265 0-.531-.101-.733-.304l-8.6-8.6-8.6 8.6c-.405.405-1.061.405-1.466 0s-.405-1.061 0-1.466l9.333-9.333c.405-.405 1.061-.405 1.466 0l9.333 9.333c.405.405.405 1.061 0 1.466-.202.202-.467.304-.733.304z" fill="#292f33"/><path d="m8.463 15.629h4.148v9.333h-4.148z" fill="#662113"/><path d="m4.315 15.629h3.111v3.111h-3.111zm0 4.148h3.111v3.111h-3.111z" fill="#3b88c3"/><path d="m21.477 8.438-10.523 10.557v14.519h21.046v-14.519z" fill="#ffe8b6"/><path d="m33 33.008h-23c-.552 0-1 .449-1 1.003s.448 1.003 1 1.003h23c.552 0 1-.449 1-1.003s-.448-1.003-1-1.003z" fill="#66757f"/><path d="m21 19h1v14h-1z" fill="#ffcc4d"/><path d="m14 27h4v6h-4z" fill="#c1694f"/><path d="m14 20h4v4h-4zm11 0h4v4h-4zm0 7h4v4h-4z" fill="#55acee"/><g fill="#66757f"><path d="m21 19.603c-.256 0-.512-.098-.707-.293-.391-.391-.391-1.023 0-1.414l6.5-6.5 1.414 1.414-6.5 6.5c-.195.196-.451.293-.707.293z"/><path d="m32.884 19.603c-.265 0-.531-.101-.733-.304l-10.674-10.674-10.674 10.674c-.405.405-1.061.405-1.466 0s-.405-1.061 0-1.466l11.407-11.407c.405-.405 1.061-.405 1.466 0l11.407 11.407c.405.405.405 1.061 0 1.466-.202.203-.467.304-.733.304z"/></g></svg>