<svg viewBox="0 0 36 36" xmlns="http://www.w3.org/2000/svg"><path d="m28.25 8.513c0-.145-.117-.263-.263-.263h-.475c-.145 0-.263.118-.263.263v11.475c0 .145.117.263.263.263h.475c.145 0 .263-.117.263-.263z" fill="#66757f"/><g fill="#f19020"><circle cx="27.75" cy="19.75" r="1.5"/><circle cx="27.75" cy="22.25" r="1"/></g><path d="m33.25 8.25h-4.129l-19.175-7.96-.002-.001h-.001c-.016-.007-.032-.005-.047-.01-.047-.014-.094-.029-.146-.029h-.002c-.066 0-.13.014-.19.038-.045.02-.084.05-.122.082-.012.009-.026.014-.037.025-.047.046-.085.102-.11.164v.001c-.004.009-.003.02-.006.029l-5.541 7.81c-.003.004-.003.01-.006.014-.285.176-.486.477-.486.837v2c0 .552.448 1 1 1h1.495l-3.714 21.75h-1.781v2h18.958v-2h-1.74l-3.713-21.75h19.495c.553 0 1-.448 1-1v-2c0-.552-.447-1-1-1zm-21.769 4-1.731 1.389-1.73-1.389zm-1.731 9.05 3.667 2.404-3.667 2-3.667-2zm-3.639.71.474-2.784 1.866 1.223zm4.938-1.561 1.87-1.225.477 2.789zm-1.299-.866-2.828-1.885 2.828-2.322 2.828 2.322zm-2.563-3.887.362-2.127 1.131.928zm3.633-1.198 1.132-.929.364 2.13zm-5.747-6.248 4.177-5.888v3.888h-2c-.552 0-1 .448-1 1v1zm.53 16.738 2.73 1.489-3.29 1.794zm9.84 9.012h-11.376l.686-4.024 4.997-2.726 5.006 2.731zm-1.54-9.015.562 3.291-3.298-1.799zm-.653-16.735v-1c0-.552-.448-1-1-1h-2v-4.751l16.263 6.751zm2 3h-1.16v-2h1.16zm3 0h-2v-2h2zm3 0h-2v-2h2zm3 0h-2v-2h2zm3 0h-2v-2h2zm3 0h-2v-2h2zm3-.5c0 .276-.224.5-.5.5h-1.5v-2h1.5c.276 0 .5.224.5.5z" fill="#bd2032"/><path d="m12.25 7.25h-2c-.552 0-1 .448-1 1v2c0 .552.448 1 1 1h3v-4z" fill="#4b545d"/><path d="m11.25 7.25h2v4h-2z" fill="#cdd7df"/><path d="m34.844 24v-1h-14.188v1h.844v2.469h-.844v1h14.188v-1h-.844v-2.469z" fill="#66757f"/></svg>