<svg viewBox="0 0 36 36" xmlns="http://www.w3.org/2000/svg"><path d="m36 33.5c0 .828-.672 1.5-1.5 1.5h-33c-.828 0-1.5-.672-1.5-1.5s.672-1.5 1.5-1.5h33c.828 0 1.5.672 1.5 1.5z" fill="#5c913b"/><path d="m12.344 14.702h-2c-.276 0-.5-.224-.5-.5v-7c0-.276.224-.5.5-.5h2c.276 0 .5.224.5.5v7c0 .276-.224.5-.5.5z" fill="#a0041e"/><path d="m5.942 32c-.137-4.657-.506-8-.942-8-.435 0-.804 3.343-.941 8z" fill="#ffcc4d"/><path d="m10 18.731c0 5.575-2.238 7.269-5 7.269-2.761 0-5-1.694-5-7.269 0-5.577 4-13.731 5-13.731s5 8.154 5 13.731z" fill="#77b255"/><path d="m8 16 13-13 13 13v16h-26z" fill="#ffe8b6"/><path d="m21 16h1v16h-1z" fill="#ffcc4d"/><path d="m34 17c-.256 0-.512-.098-.707-.293l-12.293-12.293-12.293 12.293c-.391.391-1.023.391-1.414 0s-.391-1.023 0-1.414l13-13c.391-.391 1.023-.391 1.414 0l13 13c.391.391.391 1.023 0 1.414-.195.195-.451.293-.707.293z" fill="#66757f"/><path d="m21 17c-.256 0-.512-.098-.707-.293-.391-.391-.391-1.023 0-1.414l6.5-6.5c.391-.391 1.023-.391 1.414 0s.391 1.023 0 1.414l-6.5 6.5c-.195.195-.451.293-.707.293z" fill="#66757f"/><path d="m13 26h4v6h-4z" fill="#c1694f"/><path d="m13 17h4v4h-4zm12.5 0h4v4h-4zm0 9h4v4h-4z" fill="#55acee"/><path d="m10.625 29.991c0 1.613-.858 2.103-1.917 2.103-1.058 0-1.917-.49-1.917-2.103s1.533-3.973 1.917-3.973 1.917 2.359 1.917 3.973zm25.25 0c0 1.613-.858 2.103-1.917 2.103-1.058 0-1.917-.49-1.917-2.103s1.533-3.973 1.917-3.973 1.917 2.359 1.917 3.973z" fill="#77b255"/></svg>