<svg viewBox="0 0 36 36" xmlns="http://www.w3.org/2000/svg"><path d="m29 34c0 1.104-.896 2-2 2h-18c-1.104 0-2-.896-2-2v-32c0-1.104.896-2 2-2h18c1.104 0 2 .896 2 2z" fill="#292f33"/><path d="m6.699 32h22.602c4.082-3.3 5.699-8.342 5.699-14s-1.616-10.7-5.698-14h-22.604c-4.083 3.3-5.698 8.342-5.698 14s1.616 10.7 5.699 14z" fill="#be1931"/><path d="m1.301 22c.108.682.245 1.35.415 2h32.568c.17-.65.307-1.318.415-2zm-.229-2h33.855c.049-.657.073-1.324.073-2h-34c0 .676.024 1.343.072 2zm31.605 8c.363-.64.684-1.306.956-2h-31.266c.272.694.593 1.36.956 2zm-30.311-18c-.254.646-.471 1.313-.651 2h32.569c-.18-.687-.397-1.354-.651-2zm-1.065 4c-.104.654-.179 1.321-.229 2h33.855c-.049-.679-.125-1.346-.229-2zm30.014 16h-26.63c.591.721 1.26 1.391 2.014 2h22.602c.754-.609 1.422-1.279 2.014-2zm-26.63-24c-.515.627-.964 1.298-1.363 2h29.356c-.398-.702-.849-1.373-1.362-2z" fill="#dd2e44"/></svg>