<svg viewBox="0 0 36 36" xmlns="http://www.w3.org/2000/svg"><path d="m30.385 29c.382.382.382 1.002 0 1.385-.383.382-1.003.382-1.385 0l-13.5-13.501c-.382-.382-.382-1.002 0-1.384s1.001-.382 1.384 0z" fill="#55acee"/><path d="m35.561 33.439c.586.586.586 1.536 0 2.121-.585.586-1.535.586-2.121 0l-5.656-5.656c-.586-.586-.586-1.536 0-2.121.585-.586 1.535-.586 2.121 0z" fill="#292f33"/><g fill="#99aab5"><path d="m2.447 5.2.707-.707 12.024 12.017-.707.707zm1.417-2.83.707-.707 12.728 12.728-.708.707z"/><path d="m1.035 9.441 8.485-8.485.707.707-8.485 8.485zm.707 3.535 10.608-10.606.707.707-10.608 10.607zm2.122 2.122 11.313-11.313.707.707-11.313 11.313zm2.828 1.415 9.899-9.9.707.707-9.9 9.9zm2.828 1.413 8.485-8.485.707.707-8.485 8.486z"/><path d="m1.035 8.027.707-.707 10.608 10.606-.707.707zm6.365-6.364.706-.707 10.607 10.606-.707.708z"/></g><path d="m2.468 2.468c-3.471 3.472-3.119 9.452.786 13.357 3.906 3.906 9.885 4.257 13.356.786 3.472-3.472 3.121-9.45-.786-13.356-3.905-3.906-9.884-4.258-13.356-.787zm12.846 12.846c-2.733 2.733-7.535 2.364-10.725-.825-3.189-3.189-3.557-7.99-.824-10.724 2.734-2.734 7.535-2.364 10.724.825s3.559 7.991.825 10.724z" fill="#55acee"/><g fill="#269"><path d="m17.298 14.391c.391.391.39 1.024 0 1.414l-1.415 1.415c-.39.39-1.023.391-1.414 0s-.391-1.024 0-1.415l1.414-1.414c.391-.391 1.024-.391 1.415 0z"/><path d="m18.005 16.512c.391.391.391 1.024 0 1.415s-1.024.391-1.414 0l-.707-.707c-.391-.391-.39-1.024 0-1.415.391-.391 1.023-.391 1.415 0z"/></g><path d="m29.56 27.44c.586.585-.122.828-.707 1.414-.586.585-.829 1.292-1.414.707-.586-.586-.586-1.536 0-2.121.585-.586 1.536-.586 2.121 0z" fill="#269"/><path d="m21.81 3.182c-.781.781-.781 2.047 0 2.828l.707.707.707-.707 1.414-1.414.709-.707-.709-.707c-.779-.781-2.046-.781-2.828 0z" fill="#be1931"/><path d="m22.52 6.716 2.83-2.828.707.707-2.83 2.829z" fill="#99aab5"/><path d="m23.225 7.424 2.83-2.828c1.473.488 9.125 5.069 8.861 5.334-.758.759-1.912.201-1.912.201s.844.806.117 1.532-1.531-.118-1.531-.118.969.741.149 1.564c-.826.826-1.562-.149-1.562-.149s.729.981.098 1.613c-.633.631-1.514-.199-1.514-.199s.418.998-.342 1.756c-.362.364-4.609-7.33-5.194-8.706z" fill="#e1e8ed"/><path d="m26.414 7.823c.578-.683 5.432 3.727 4.58 4.579-.853.851-5.275-3.759-4.58-4.579zm1.705 7.448c.68-.443-3.072-5.816-3.535-5.427-.031.026-.045.072-.053.126.883 1.626 2.006 3.594 2.824 4.867.336.342.616.53.764.434zm.272-9.233c-.391.462 4.984 4.214 5.427 3.535.115-.178-.17-.541-.656-.97-1.215-.782-2.856-1.767-4.285-2.571-.24-.065-.418-.074-.486.006zm-2.989 2.859c.426-.429 4.641 4.589 4.002 5.093-.638.5-4.515-4.576-4.002-5.093zm2.041-2.041c-.428.426 4.59 4.64 5.092 4.002.502-.639-4.574-4.516-5.092-4.002z" fill="#ccd6dd"/></svg>