<svg viewBox="0 0 36 36" xmlns="http://www.w3.org/2000/svg"><path d="m32.017 20.181-14.672-14.435c-.658-.659-1.522-.746-2.385-.746h-10.077c-1.854 0-2.883 1.029-2.883 2.883v10.082c0 .861.089 1.723.746 2.38l14.554 14.672c1.311 1.31 3.378 1.31 4.688 0l10.059-10.088c1.31-1.312 1.28-3.438-.03-4.748zm-23.596-8.76c-.585.585-1.533.585-2.118 0s-.586-1.533 0-2.118c.585-.586 1.533-.585 2.118 0 .585.586.586 1.533 0 2.118z" fill="#ffd983"/><path d="m9.952 7.772c-1.43-1.431-3.749-1.431-5.179 0-1.431 1.43-1.431 3.749 0 5.18 1.43 1.43 3.749 1.43 5.18 0 1.43-1.431 1.429-3.749-.001-5.18zm-1.53 3.65c-.585.585-1.534.585-2.119 0s-.586-1.534 0-2.119c.585-.587 1.534-.585 2.119 0s.586 1.533 0 2.119z" fill="#d99e82"/><path d="m8.507 10.501c-.391.391-1.023.391-1.415 0-.391-.391-.39-1.023 0-1.414l8.485-8.485c.391-.391 1.023-.391 1.415 0 .391.391.39 1.023 0 1.414z" fill="#c1694f"/></svg>