<svg viewBox="0 0 36 36" xmlns="http://www.w3.org/2000/svg"><path d="m30 36h-13c-.552 0-1-.447-1-1s.448-1 1-1h13c2.542 0 4-1.367 4-3.75 0-1.537-1.643-3.25-4-3.25h-7c-.553 0-1-.447-1-1s.447-1 1-1h7c3.589 0 6 2.715 6 5.25 0 3.493-2.355 5.75-6 5.75z" fill="#ea596e"/><g fill="#ccd6dd"><path d="m12 26.717c0-2.85 3-7.035 0-7.035-4 0-10.137 6.566-10.137 8.442s6.441 1.876 9.29 1.876.847-.434.847-3.283z"/><path d="m33 23.902c0-7.973-6.554-9.752-11.381-8.787-9.38 1.876-11.132 6.442-11.132 10.194 0 4.922 9.149 4.69 14.071 4.69s8.442-1.174 8.442-6.097z"/><path d="m25 22.496-17.106 1.875 3.531 5.629h13.575zm-8.082-5.353c0-2.683-1.997-4.858-4.458-4.858-2.463.001-4.46 2.175-4.46 4.858s1.997 4.857 4.46 4.857c2.461 0 4.458-2.174 4.458-4.857z"/></g><path d="m14.37 17.683c0 1.788-1.141 3.239-2.548 3.239-1.408 0-2.548-1.451-2.548-3.239s1.14-3.238 2.548-3.238c1.407-.001 2.548 1.449 2.548 3.238z" fill="#f4abba"/><circle cx="8.5" cy="24.5" fill="#dd2e44" r="1.5"/></svg>