<svg viewBox="0 0 36 36" xmlns="http://www.w3.org/2000/svg"><path d="m29.049 7.033c-.07-.07-.141-.126-.211-.188-1.08-1.087-2.497-1.564-4.008-1.373l-3.812.483c-.382-3.003-2.25-4.446-4.351-4.181l-4.24.536c-.352-1.543-1.416-2.276-2.6-2.125l-4.794.605c-1.323.168-2.26 1.648-2.093 3.307l.606 6.007c.152 1.501 1.425 2.591 2.403 2.693l.514 5.093c.258 2.553 2.509 4.365 4.117 4.38l.498 4.926c.164 1.622.928 3.027 1.917 4.063.23.339.471.656.737.922 4.423 4.423 12.183 5.064 16.607.64 4.42-4.422 3.133-21.365-1.29-25.788z" fill="#ccd6dd"/><path d="m30.609 14.396c.801 2.371 1.545 11.57-1.532 15.543-3.079 3.972-8.043-1.389-5.312-6.205 2.73-4.814 6.036-11.733 6.844-9.338z" fill="#66757f"/><path d="m21.018 5.954c.009.072.028.133.036.206.318 3.154-7.686 15.799-10.204 16.119-.085.011-.181-.008-.271-.008l.401 3.971c3.694-1.936 12.412-15.71 13.087-20.673zm-8.59-3.645c.042.182.079.369.1.574.197 1.942-4.732 9.725-6.28 9.923-.094.012-.196.001-.299-.009l.353 3.502c2.78-2.096 8.093-10.489 9.094-14.365z" fill="#99aab5"/></svg>