<svg viewBox="0 0 36 36" xmlns="http://www.w3.org/2000/svg"><path d="m20.143 32.215c0 1.183-.959 2.143-2.143 2.143s-2.143-.96-2.143-2.143c0-1.184.96-2.144 2.143-2.144s2.143.96 2.143 2.144z" fill="#e1e8ed"/><path d="m27.643 15.643c0-5.326-4.319-9.643-9.643-9.643-5.326 0-9.643 4.317-9.643 9.643 0 5.357-1.071 16.572-1.071 16.572 0 1.183.959 2.143 2.143 2.143 1.183 0 2.143-.96 2.143-2.143 0 1.183.96 2.143 2.143 2.143s2.142-.96 2.142-2.143h4.286c0 1.183.96 2.143 2.144 2.143 1.183 0 2.143-.96 2.143-2.143 0 1.183.959 2.143 2.143 2.143s2.143-.96 2.143-2.143c-.002 0-1.073-11.215-1.073-16.572z" fill="#e1e8ed"/><path d="m20 3c0 2.209-1.447 6-2 6-.552 0-2-3.791-2-6s1.448-3 2-3c.553 0 2 .791 2 3zm-4.365 30c0-2.612 1.711-8 2.365-8 .653 0 2.365 5.388 2.365 8s-1.713 3-2.365 3c-.654 0-2.365-.388-2.365-3z" fill="#dd2e44"/><ellipse cx="18" cy="22.5" fill="#f4900c" rx="7" ry="4.5"/><path d="m25 22.5c0 1.5-14 1.5-14 0s4.791-4.5 7-4.5 7 3 7 4.5z" fill="#ffac33"/><g fill="#292f33"><circle cx="11.5" cy="18.5" r="1.5"/><circle cx="24.5" cy="18.5" r="1.5"/></g></svg>