<svg viewBox="0 0 36 36" xmlns="http://www.w3.org/2000/svg"><path d="m10 12c3 5 0 10.692-3 9.692s-4 2-1 3 9.465-.465 13-4c1-1 2-1 2-1z" fill="#553788"/><path d="m26 12c-3 5 0 10.692 3 9.692s4 2 1 3-9.465-.465-13-4c-1-1-2-1-2-1z" fill="#553788"/><path d="m30.188 16c-3 5 0 10.692 3 9.692s4 2 1 3-9.465-.465-13-4c-1-1-2-1-2-1zm-24.376 0c3 5 0 10.692-3 9.692s-4 2-1 3 9.465-.465 13-4c1-1 2-1 2-1z" fill="#744eaa"/><path d="m33.188 31.375c-2.729.91-6.425-5.626-4.812-10.578 1.646-3.243 2.624-6.857 2.624-9.797 0-7.18-5.82-11-13-11s-13 3.82-13 11c0 2.94.978 6.554 2.624 9.797 1.613 4.952-2.083 11.488-4.812 10.578-3-1-4 3-1 4s8.31-.627 12-4c2.189-2 4.189-2 4.189-2s2 0 4.188 2c3.69 3.373 9 5 12 4s1.999-5-1.001-4z" fill="#9266cc"/><g fill="#292f33"><circle cx="14" cy="21" r="2"/><circle cx="22" cy="21" r="2"/></g></svg>