<svg viewBox="0 0 36 36" xmlns="http://www.w3.org/2000/svg"><path d="m36 13.533c0-4.666-3.134-6.533-7-6.533-1.621 0-3.285.354-4.676 1.027-1.801-1.229-3.919-1.965-6.324-1.965s-4.523.736-6.324 1.965c-1.391-.673-3.055-1.027-4.676-1.027-3.866 0-7 1.867-7 6.533 0 3.844 2.128 6.417 5.038 7.206-.043.536-.068 1.073-.068 1.611 0 5.729 4.52 7.675 8.581 8.326 1.098.811 2.681 1.324 4.449 1.324s3.351-.513 4.449-1.323c4.062-.651 8.581-2.597 8.581-8.326 0-.538-.025-1.075-.068-1.611 2.91-.79 5.038-3.363 5.038-7.207z" fill="#99aab5"/><path d="m9.554 9.854c-.318-.033-.637-.054-.954-.054-3.093 0-5.6 1.493-5.6 5.226 0 2.154.838 3.808 2.138 4.824.473-3.797 2.005-7.416 4.416-9.996zm17.846-.054c-.317 0-.637.021-.955.054 2.412 2.58 3.943 6.199 4.416 9.997 1.301-1.017 2.139-2.67 2.139-4.825 0-3.733-2.507-5.226-5.6-5.226z" fill="#66757f"/><g fill="#292f33"><path d="m21.728 24.807c0 3.345-1.728 4.193-3.728 4.193s-3.727-.848-3.727-4.193 1.727-6.057 3.727-6.057 3.728 2.712 3.728 6.057z"/><circle cx="12.5" cy="19.875" r="1.5"/><circle cx="23.5" cy="19.875" r="1.5"/></g></svg>