<svg viewBox="0 0 36 36" xmlns="http://www.w3.org/2000/svg"><path d="m15 27v6s0 3 3 3 3-3 3-3v-6z" fill="#dd2e44"/><path d="m15 33 .001.037c1.041-.035 2.016-.274 2.632-1.286.171-.281.563-.281.735 0 .616 1.011 1.591 1.251 2.632 1.286v-6.037h-6z" fill="#be1931"/><path d="m31.954 21.619c0 6.276-5 6.276-5 6.276h-18s-5 0-5-6.276c0-6.724 5-18.619 14-18.619s14 12.895 14 18.619z" fill="#d99e82"/><path d="m18 20c-7 0-10 3.527-10 6.395 0 3.037 2.462 5.5 5.5 5.5 1.605 0 3.042-.664 4.049-2.767.185-.386.716-.386.901 0 1.007 2.103 2.445 2.767 4.049 2.767 3.038 0 5.5-2.463 5.5-5.5.001-2.868-2.999-6.395-9.999-6.395z" fill="#f4c7b5"/><path d="m15 22.895c-1 1 2 4 3 4s4-3 3-4-5-1-6 0zm-2-3.895c-1.1 0-2-.9-2-2v-2c0-1.1.9-2 2-2s2 .9 2 2v2c0 1.1-.9 2-2 2zm10 0c-1.1 0-2-.9-2-2v-2c0-1.1.9-2 2-2s2 .9 2 2v2c0 1.1-.9 2-2 2z" fill="#292f33"/><path d="m15 3.608c-1.059-1.409-3.319-2.727-12.172.592-4.144 1.554-2.12 13.604 1.107 14.385 1.106 0 4.426 0 4.426-8.852 0-.22-.002-.423-.005-.625 1.994-2.81 4.144-4.251 6.644-5.5zm18.172.592c-8.853-3.319-11.113-2.001-12.172-.592 2.5 1.25 4.65 2.691 6.644 5.501-.003.201-.005.404-.005.625 0 8.852 3.319 8.852 4.426 8.852 3.227-.782 5.251-12.832 1.107-14.386z" fill="#662113"/><g fill="#d99e82"><circle cx="23.5" cy="25.5" r=".5"/><circle cx="11.5" cy="25.5" r=".5"/><circle cx="25.5" cy="27.5" r=".5"/><circle cx="10.5" cy="27.5" r=".5"/><circle cx="23" cy="28" r="1"/><circle cx="13" cy="28" r="1"/></g><path d="m9.883 7.232c-.259-.673-.634-1.397-1.176-1.939-.391-.391-1.023-.391-1.414 0s-.391 1.023 0 1.414c.57.57 1.066 1.934 1.068 2.346.145-.404.839-1.15 1.522-1.821zm16.217 0c.259-.672.634-1.397 1.176-1.939.391-.391 1.023-.391 1.414 0s.391 1.023 0 1.414c-.57.57-1.066 1.934-1.068 2.346-.145-.404-.839-1.15-1.522-1.821z" fill="#380f09"/></svg>