<svg viewBox="0 0 36 36" xmlns="http://www.w3.org/2000/svg"><path d="m20.145 31s-2.436-.167-3.068-1.792c-.646-1.659.622-2.309.622-2.309s-1.914.059-2.622-1.941c-.668-1.885.958-2.75.958-2.75s-1.871-.307-2.417-2.292c-.46-1.671 1.166-2.916 1.166-2.916h-12.208c-.959 0-2.575-.542-2.576-2.543-.002-2 1.659-2.457 2.576-2.457h20.5c1 0 1-1 0-1h-2.666c-3.792 0-6.143-2.038-6.792-2.751-.65-.713-.98-1.667-.734-2.82.415-1.956 1.92-1.529 3.197-.975 3.078 1.337 7.464 2.254 9.538 2.533 5.858.791 10.375 5.809 10.381 11.884.004 6.626-5.298 12.124-11.924 12.129z" fill="#d5ab88"/></svg>