<svg viewBox="0 0 36 36" xmlns="http://www.w3.org/2000/svg"><path d="m32.942 11.244c-.041-.609-.284-1.18-.674-1.644l-.357-2.057c-.376-2.006-2.232-3.386-4.262-3.169l-23.39 3.736c-1.882.202-3.35 1.723-3.485 3.611l1.761 11.147c.305 2.169 2.151 3.788 4.341 3.813.677.008 1.238.017 1.463.027l9.483.463c-.363.483-.822 1.08-.822 1.718v.052c0 1.581 1.771 3.06 3.353 3.06h7.282c.76 0 1.488-.4 2.025-.938l4.424-4.472c.583-.584.887-1.416.832-2.24z" fill="#7c533e"/><g fill="#583529"><path d="m8.217 26.623c-.474 0-.895-.338-.983-.821l-2.06-11.332c-.099-.543.262-1.064.805-1.163.546-.097 1.064.262 1.163.805l2.06 11.332c.099.543-.262 1.063-.805 1.162-.061.012-.121.017-.18.017zm6.181 0c-.517 0-.955-.398-.996-.923l-1.03-13.393c-.043-.551.37-1.031.92-1.074.549-.044 1.031.371 1.074.92l1.03 13.392c.043.551-.37 1.032-.92 1.074-.026.003-.053.004-.078.004zm7.207 1.106c-.508 0-.757-.001-.951-1.062l-.044-.003c.001-.055.007-.108.017-.161-.174-1.068-.309-3.069-.561-6.817-.235-3.49-.486-7.552-.486-8.485 0-.552.447-1 1-1s1 .448 1 1c0 1.533.795 13.324.981 15.145.032.097.049.2.049.308 0 .266-.108.557-.295.744s-.444.331-.71.331z"/><path d="m25.178 28.684h-6.658c-.552 0-1-.447-1-1s.448-1 1-1h6.658c1.458 0 2.644-1.186 2.644-2.644v-12.839c0-.552.447-1 1-1s1 .448 1 1v12.839c-.001 2.561-2.084 4.644-4.644 4.644z"/></g></svg>