<svg viewBox="0 0 36 36" xmlns="http://www.w3.org/2000/svg"><path d="m29 25s-4 1-11 1-11-1-11-1 6 5 11 5 11-5 11-5zm-11-7.144c-5.514 0-10-4.515-10-10.063 0-2.858 1.214-5.591 3.331-7.499l1.339 1.485c-1.697 1.53-2.67 3.722-2.67 6.014 0 4.446 3.589 8.063 8 8.063s8-3.617 8-8.063c0-2.292-.973-4.483-2.669-6.012l1.34-1.485c2.115 1.907 3.329 4.64 3.329 7.497 0 5.549-4.486 10.063-10 10.063z" fill="#553788"/><path d="m16.625 16.856s-5.417-3.856-7.732-11.33c-.184.182-4.418 5.665-2.209 10.197s9.941 1.133 9.941 1.133zm2.815 0s5.477-4.731 7.732-11.33c.161.307 4.418 5.665 2.209 10.197s-9.941 1.133-9.941 1.133zm9.56 8.144s-4 3-11 3-11-3-11-3 7.208 5.625 9 11h4c1.958-6.625 9-11 9-11z" fill="#744eaa"/></svg>