<svg viewBox="0 0 36 36" xmlns="http://www.w3.org/2000/svg"><path d="m32 36v-2c0-3.313-2.687-6-6-6h-16c-3.313 0-6 2.687-6 6v2z" fill="#ce9e5d"/><path d="m4.09 33c-.055.326-.09.659-.09 1v2h28v-2c0-.341-.035-.674-.09-1z" fill="#fff35f"/><path d="m4 34h28v1h-28z" fill="#ccd6dd"/><path d="m32 13.656c0 3.59-6.268 6.5-14 6.5s-14-2.91-14-6.5 6.268-2.5 14-2.5 14-1.09 14 2.5z" fill="#a0041e"/><path d="m14 27h8s-1.018 7-4 7-4-7-4-7z" fill="#292f33"/><path d="m13.64 28.101c1.744 1.267 2.848 1.962 4.36 1.962 1.511 0 2.616-.696 4.36-1.962v-3.811h-8.72z" fill="#d5ab88"/><path d="m13.632 25.973c1.216 1.374 2.724 1.746 4.364 1.746 1.639 0 3.147-.372 4.364-1.746v-3.491h-8.728z" fill="#cc9b7a"/><path d="m11.444 15.935c0 1.448-.734 2.622-1.639 2.622s-1.639-1.174-1.639-2.622.734-2.623 1.639-2.623c.906.001 1.639 1.175 1.639 2.623zm16.389 0c0 1.448-.734 2.622-1.639 2.622s-1.639-1.174-1.639-2.622.734-2.623 1.639-2.623c.906.001 1.639 1.175 1.639 2.623z" fill="#d5ab88"/><path d="m9.478 16.96c0-5.589 3.816-10.121 8.522-10.121s8.522 4.531 8.522 10.121c0 5.589-3.816 10.12-8.522 10.12s-8.522-4.531-8.522-10.12z" fill="#d5ab88"/><path d="m18 23.802c-2.754 0-3.6-.706-3.741-.848-.256-.256-.256-.671 0-.927.248-.248.645-.255.902-.024.052.038.721.487 2.839.487 2.2 0 2.836-.485 2.842-.49.255-.255.656-.243.913.013.256.256.242.684-.014.94-.141.143-.987.849-3.741.849z" fill="#c1694f"/><path d="m18 3.479c5.648 0 9.178 4.168 9.178 7.641s-.706 4.863-1.412 3.473l-1.412-2.778s-4.236 0-5.648-1.39c0 0 2.118 4.168-2.118 0 0 0 .706 2.779-3.53-.695 0 0-2.118 1.39-2.824 4.863-.196.963-1.412 0-1.412-3.473s2.824-7.641 9.178-7.641z" fill="#963b22"/><path d="m14 17c-.55 0-1-.45-1-1v-1c0-.55.45-1 1-1s1 .45 1 1v1c0 .55-.45 1-1 1zm8 0c-.55 0-1-.45-1-1v-1c0-.55.45-1 1-1s1 .45 1 1v1c0 .55-.45 1-1 1z" fill="#662113"/><path d="m18.75 19.75h-1.5c-.413 0-.75-.337-.75-.75s.337-.75.75-.75h1.5c.413 0 .75.337.75.75s-.337.75-.75.75z" fill="#c1694f"/><path d="m27 36v-9c0-.55-.45-1-1-1h-1c-.55 0-1 .45-1 1v9zm-15 0v-9c0-.55-.45-1-1-1h-1c-.55 0-1 .45-1 1v9z" fill="#292f33"/><path d="m28.853 10.857c-.86-.173-1.093-4.028-3.084-6.859-1.875-2.663-5.465-3.998-7.772-3.998s-5.897 1.335-7.771 3.998c-1.992 2.831-2.224 6.686-3.084 6.859-3.317.665-3.161 2.386-3.14 2.782.123-.466.438-1.578 3.902-1.64 3.404-.06 6.58.806 10.094.806s6.69-.866 10.094-.806c3.464.061 3.778 1.173 3.902 1.64.02-.396.176-2.117-3.141-2.782z" fill="#df1f32"/><path d="m18 0c-2.094 0-5 3.593-5 5.054v3.946s.109 1 .92 1h8.16c.811 0 .92-1 .92-1v-3.946c0-1.461-2.906-5.054-5-5.054z" fill="#ea596e"/><path d="m23.883 25c-.406-.378-2.474.364-3.019 1s-.638 1.737-1.01 3c-.318 1.079-1.572 3.958-1.931 4.775-.358-.817-1.605-3.696-1.923-4.775-.372-1.263-.455-2.364-1-3s-2.594-1.378-3-1 .015 1.463 0 2 0 9 0 9h12s.015-8.463 0-9 .289-1.622-.117-2z" fill="#ce9e5d"/></svg>