<svg viewBox="0 0 36 36" xmlns="http://www.w3.org/2000/svg"><path d="m36 36v-2c0-3.314-2.686-6-6-6h-16c-3.313 0-6 2.686-6 6v2z" fill="#3b88c3"/><path d="m22 35.999-5.6-8.999h11.2z" fill="#292f33"/><path d="m17.64 30.038c1.744 1.268 2.848 1.963 4.36 1.963s2.615-.696 4.359-1.963v-5.749h-8.72v5.749z" fill="#af7e57"/><path d="m15 28c0 1 1 3 3 5 1.581 1.581 4 3 4 3 0-3.063-1-4-2-5s-3-2-3-4c0-1-2 1-2 1m14 0c0 1-1 3-3 5-1.581 1.581-4 3-4 3 0-3.063 1-4 2-5s3-2 3-4c0-1 2 1 2 1" fill="#55acee"/><path d="m17.632 25.973c1.216 1.374 2.724 1.746 4.364 1.746 1.639 0 3.146-.373 4.363-1.746v-3.491h-8.728v3.491z" fill="#9b6a49"/><path d="m15.444 15.936c0 1.448-.734 2.622-1.639 2.622s-1.639-1.174-1.639-2.622.734-2.623 1.639-2.623c.905-.001 1.639 1.174 1.639 2.623m16.389 0c0 1.448-.733 2.622-1.639 2.622-.905 0-1.639-1.174-1.639-2.622s.733-2.623 1.639-2.623c.906-.001 1.639 1.174 1.639 2.623" fill="#af7e57"/><path d="m13.477 16.959c0-5.589 3.816-10.121 8.523-10.121s8.522 4.532 8.522 10.121-3.815 10.121-8.522 10.121c-4.706 0-8.523-4.531-8.523-10.121" fill="#af7e57"/><path d="m22 23.802c-2.754 0-3.6-.705-3.741-.848-.256-.256-.256-.671 0-.927.248-.248.646-.255.902-.023.052.037.721.487 2.839.487 2.2 0 2.836-.485 2.842-.49.256-.255.657-.243.913.015.256.256.242.683-.014.938-.141.143-.987.848-3.741.848m.75-4.052h-1.5c-.413 0-.75-.337-.75-.75s.337-.75.75-.75h1.5c.413 0 .75.337.75.75s-.337.75-.75.75" fill="#915a34"/><path d="m22 3.48c5.648 0 9.178 4.168 9.178 7.641s-.706 4.863-1.412 3.473l-1.412-2.778s-4.235 0-5.647-1.39c0 0 2.118 4.168-2.118 0 0 0 .706 2.779-3.53-.694 0 0-2.118 1.389-2.824 4.862-.196.964-1.412 0-1.412-3.473-.001-3.473 2.823-7.641 9.177-7.641" fill="#60352a"/><g fill="#9b6a49"><circle cx="17.25" cy="16" r="3.75"/><circle cx="26.75" cy="16" r="3.75"/><path d="m19.5 15h5v2.5h-5z"/></g><circle cx="17.5" cy="15.5" fill="#e1e8ed" r="3.5"/><circle cx="26.5" cy="15.5" fill="#e1e8ed" r="3.5"/><path d="m19.5 14h5v2.5h-5z" fill="#e1e8ed"/><circle cx="17.5" cy="15.5" fill="#292f33" r="2.5"/><circle cx="26.5" cy="15.5" fill="#292f33" r="2.5"/><path d="m5 24-1.5 1s1.5 2.5 1.5 6v5h2v-5c0-4.5-2-7-2-7z" fill="#66757f"/><path d="m6.079 23.807c.208.379.071.854-.307 1.064l-2.13 1.178c-.379.208-.855.07-1.064-.309l-.451-.816c-.208-.379-.072-.855.307-1.064l2.13-1.178c.378-.209.855-.071 1.064.309z" fill="#99aab5"/><path d="m3.49 22.584c4.188-2.209-3.438-6.271-3.438-6.271s-.75 8.48 3.438 6.271z" fill="#f4900c"/><path d="m2.96 21.365c2.202-1.162-1.808-3.299-1.808-3.299s-.394 4.459 1.808 3.299z" fill="#ffdc5d"/><path d="m34 11c-3-2-1.008-4.169-3-7-1.874-2.663-5-4-9.003-4-4.997 0-7.123 1.337-8.997 4-1.992 2.831 0 5-3 7-1.861 1.24 6 2.313 12 2.313s13.861-1.073 12-2.313" fill="#3b88c3"/><path d="m20 11.5v-11.412c-.35.032-.683.074-1 .124v10.281c-2.09-.05-5.124-.396-7.653-.853-.174.297-.41.59-.73.877 2.911.565 6.596.982 8.883.982h.5zm4.5 0c2.421 0 6.037-.393 8.907-.959-.325-.288-.563-.58-.741-.877-2.431.448-5.371.787-7.667.832v-10.204c-.323-.066-.66-.112-1-.155v11.363z" fill="#269"/></svg>