<svg viewBox="0 0 36 36" xmlns="http://www.w3.org/2000/svg"><path d="m29.258 33.016-.287-6.788c.116-3.312-2.475-6.09-5.787-6.206l-9.994-.349c-3.312-.116-5.115 2.169-6.206 5.787l-.669 6.296z" fill="#4289c1"/><path d="m14.6 20.207c0 .692 1.841 1.543 3.4 1.543 1.56 0 3.4-.851 3.4-1.543v-2.957h-6.8z" fill="#af7e57"/><path d="m14.6 18.557c.947 1.058 2.122 1.344 3.4 1.344 1.277 0 2.452-.287 3.4-1.344v-2.688h-6.8z" fill="#9b6a49"/><path d="m13.159 10.449c-.058 1.113-.67 1.987-1.366 1.95-.696-.036-1.213-.969-1.154-2.082.058-1.114.67-1.987 1.366-1.951.696.037 1.213.969 1.154 2.083m12.602.661c-.058 1.113-.67 1.987-1.366 1.95-.696-.036-1.213-.969-1.154-2.082.058-1.114.67-1.987 1.366-1.951s1.213.969 1.154 2.083" fill="#af7e57"/><path d="m11.606 11.157c.225-4.298 3.342-7.628 6.961-7.439 3.619.19 6.371 3.828 6.145 8.126-.225 4.298-3.342 7.628-6.961 7.439-3.619-.19-6.371-3.828-6.145-8.126" fill="#af7e57"/><path d="m18.721.767c4.343.228 6.87 3.944 6.73 6.614s-.764 4.199-1.251 3.101l-.974-2.193s-3.257-.171-4.287-1.296c0 0 1.461 3.29-1.629-.085 0 0 .431 2.166-2.686-.676 0 0-1.685.983-2.368 3.625-.189.734-1.06-.545-.92-3.215.141-2.672 2.5-6.131 7.385-5.875" fill="#60352a"/><path d="m17.865 17.114c-2.118-.111-2.739-.687-2.843-.803-.186-.207-.17-.526.037-.713.201-.181.507-.17.695.018.038.031.535.404 2.163.489 1.692.089 2.2-.259 2.205-.262.207-.186.515-.161.702.048.186.207.159.535-.048.721-.115.105-.794.613-2.911.502m.729-2.89-1.153-.06c-.318-.017-.563-.289-.546-.607s.289-.563.607-.546l1.153.06c.318.017.563.289.546.607s-.289.563-.607.546" fill="#915a34"/><path d="m16.136 11.285c-.061 0-.122-.015-.179-.045-.003-.002-.366-.198-.738-.231-.423-.042-.898.167-.902.169-.188.086-.411 0-.496-.189-.084-.189 0-.411.189-.496.027-.012.656-.286 1.277-.231.532.049 1.011.31 1.031.321.181.1.247.327.148.508-.069.124-.197.194-.33.194zm5.901.525c-.076 0-.152-.023-.219-.07-.001 0-.309-.212-.743-.25-.443-.039-.792.086-.796.087-.194.073-.41-.026-.481-.22-.073-.193.023-.408.216-.481.021-.008.51-.188 1.128-.133.636.056 1.067.354 1.114.388.168.121.207.355.086.523-.073.102-.189.156-.305.156z" fill="#662113"/><path d="m28.526 30.798c.55 1.503-1.121.825-2.428 1.314-.848.317-2.282.836-2.503.135-.438-1.384-1.215-3.713-1.534-5.108.021-.008.073-.029.092-.038-.09-.134-.104-.552-.119-.723-.135-1.507.912-3.055.912-3.055s2.054-.278 2.573-.547c.246 1.605.468 2.641.468 2.641s1.882 3.586 2.539 5.381z" fill="#205e7a"/><path d="m23.519 21.032.406 1.236c.257.784-.173 1.636-.957 1.893l-4.506 1.48c-.784.257-1.636-.173-1.893-.957l-.406-1.236c-.257-.784.173-1.636.957-1.893l4.506-1.48c.784-.258 1.636.173 1.893.957z" fill="#e1e8ed"/><path d="m14.795 23.072c.224.681-1.922 1.386-1.698 2.067s2.369-.023 2.593.658.939.446.939.446l-.671-2.043-.671-2.043c0-.001-.715.234-.492.915z" fill="#88c9f9"/><path d="m16.602 22.024 1.164 3.545c.086.261-.058.545-.319.631l-.685.225c-.261.086-.545-.058-.631-.319l-1.164-3.545c-.086-.261.058-.545.319-.631l.685-.225c.261-.085.545.058.631.319z" fill="#55acee"/><path d="m21.989 35.145c1.066.007 2.736-2.31 1.089-3.653-1.648-1.343-4.499-3.099-5.959-3.806-1.869-.904-5.366-3.919-6.06-4.643s-2.351-.603-3.222.663c-.619.9-1.446 4.193-.004 6.844 1.686 3.098 4.561 5.082 8.396 5.082 1.013 0 2.116.067 2.742-.074s1.736-.421 3.018-.413z" fill="#a6d388"/><path d="m24.636 28.21c1.283-.13 1.305-1.899 1.127-2.981-.34-2.066.052-3.88-1.566-4.624-1.416-.651-.693 1.394-1.464 2.998-1.107 2.301-.356 3.386-.356 3.386s1.136 1.314 2.259 1.221z" fill="#af7e57"/><path d="m29.126 32.334c.748 2.158-1.786 3.587-3.434 2.993-.855-.308-1.36-1.539-1.973-3.658-.838-2.892-1.31-4.485-1.31-4.485s.882-.225 1.934-.685c1.042-.456 1.577-.915 1.577-.915s2.589 4.968 3.206 6.75z" fill="#4289c1"/><path d="m17.283 35.882h2.565c2.094 0 4.259-1.378 4.368-3.156.096-1.556-1.641-.279-3.392-.598-1.592-.291-2.97.074-2.97.074s.112 2.503-.571 3.68z" fill="#af7e57"/><path d="m6.516 30.976c.653-1.477 3.431-.958 5.844-.364 2.118.521 4.292 1.188 5.903 1.473 0 0 .334.755.171 2.106-.091.752-.506 1.665-.506 1.665s-3.248.091-5.405-.195c-3.238-.428-7.188-2.012-6.007-4.685z" fill="#4289c1"/></svg>