<svg viewBox="0 0 36 36" xmlns="http://www.w3.org/2000/svg"><path d="m31 27.575c-.959-.372-1.996-.575-3-.575h-12c-1.004 0-2.041.203-3 .575-2.207.855-4 2.614-4 4.925v3.5h26v-3.5c0-2.311-1.792-4.07-4-4.925z" fill="#ccd6dd"/><path d="m28 27v4h-12v-4c-1.004 0-2.041.203-3 .575v8.425h18v-8.425c-.959-.372-1.996-.575-3-.575z" fill="#269"/><ellipse cx="27.75" cy="33.75" fill="#f5f8fa" rx="2.25" ry="1.25"/><path d="m21.945 5.081c-4.105 0-10.949 2.053-10.949 10.947 0 2.737-.234 10.948 2.053 10.948 2.111 0 4.79-2.053 8.896-2.053 4.104 0 6.842 2.053 8.895 2.053s2.053-2.053 2.053-10.948c-.001-8.894-6.843-10.947-10.948-10.947z" fill="#292f33"/><path d="m18.328 27.018c.672 1.982 2.964 3.482 3.672 3.482s3-1.5 3.66-3.482v-3.203h-7.332z" fill="#f7dece"/><path d="m18.322 25.179c1.022 1.155 2.29 1.468 3.668 1.468 1.379 0 2.647-.312 3.67-1.468v-2.936h-7.338z" fill="#eec2ad"/><path d="m13.734 15.718c0-5.834 3.676-10.563 8.211-10.563 4.533 0 8.209 4.729 8.209 10.563 0 5.833-3.676 10.285-8.209 10.285-4.535 0-8.211-4.452-8.211-10.285" fill="#f7dece"/><path d="m21.945 23.543c-1.606 0-2.447-.794-2.537-.885-.268-.267-.268-.7 0-.967.266-.265.692-.267.961-.007.035.032.551.491 1.576.491 1.038 0 1.555-.473 1.576-.492.273-.256.703-.248.963.02.26.269.26.691-.004.955-.089.091-.929.885-2.535.885" fill="#df1f32"/><path d="m11.725 19.012c-.021-1-.044-.224-.044-.465 0-3.422 2.053.494 2.053-1.943 0-2.439 1.368-2.683 2.736-4.051.685-.684 2.053-2.026 2.053-2.026s3.421 2.067 6.158 2.067c2.736 0 5.474 1.375 5.474 4.112 0 2.736 2.053-1.584 2.053 1.837 0 .244-.022-.531-.04.469h.719c.006-2 .006-1.924.006-3.202 0-8.895-6.842-9.81-10.948-9.81-4.104 0-10.947.859-10.947 9.755 0 .793-.02 1.257.008 3.257z" fill="#292f33"/><path d="m15.444 15.936c0 1.448-.734 2.622-1.639 2.622s-1.639-1.174-1.639-2.622.734-2.623 1.639-2.623c.905-.001 1.639 1.174 1.639 2.623m16.389 0c0 1.448-.733 2.622-1.639 2.622-.905 0-1.639-1.174-1.639-2.622s.733-2.623 1.639-2.623c.906-.001 1.639 1.174 1.639 2.623" fill="#f7dece"/><path d="m18.608 17.887c-.465 0-.846-.381-.846-.847v-.845c0-.465.381-.846.846-.846.466 0 .847.381.847.846v.845c0 .466-.381.847-.847.847m6.765 0c-.465 0-.846-.381-.846-.847v-.845c0-.465.381-.846.846-.846s.846.381.846.846v.845c0 .466-.381.847-.846.847" fill="#662113"/><path d="m22.836 20.5h-1.69c-.233 0-.423-.19-.423-.423v-.153c0-.233.189-.424.423-.424h1.69c.233 0 .424.19.424.424v.153c0 .233-.191.423-.424.423" fill="#c1694f"/><path d="m31 9.5c0 1.32-18 1.32-18 0 0-3.546 1-8.5 9-8.5 7 0 9 4.954 9 8.5z" fill="#3b88c3"/><path d="m13.056 9.5s-.5 3 1.5 3c1 0 2.5-2 7.5-2s6.5 2 7.5 2c2 0 1.5-3 1.5-3s-1.5.5-9 .5-9-.5-9-.5z" fill="#269"/><path d="m13 9s-.5 3 1.5 3c1 0 2.5-2 7.5-2s6.5 2 7.5 2c2 0 1.5-3 1.5-3s-1.5.5-9 .5-9-.5-9-.5z" fill="#55acee"/><path d="m20.5 1.5s0-1.5 1.5-1.5 1.5 1.5 1.5 1.5z" fill="#269"/><path d="m9.501 23.635c-.005-1.805-1.026-3.353-2.511-4.153l.012 4.409c0 .553-1.006 1.003-2.249 1.005-1.242.003-2.25-.443-2.251-.995l-.01-4.408c-1.48.806-2.494 2.358-2.492 4.163.006 2.091 1.37 3.845 3.25 4.475v7.869h3v-7.869c1.888-.632 3.256-2.397 3.251-4.496z" fill="#66757f"/></svg>