<svg viewBox="0 0 36 36" xmlns="http://www.w3.org/2000/svg"><path d="m10 25c0-2.209-.896-4-2-4s-2-2-2 3c0 2.209 1 5 3 5 1.104 0 1 0 1-4zm16.003 0c0-2.209.896-4 2-4 1.105 0 2-2 2 3 0 2.209-1 5-3 5-1.105 0-1 0-1-4z" fill="#d1d3d4"/><path d="m6 18.562c0-8.526 5.373-15.438 12-15.438s12 6.912 12 15.438c0 9.438-7 15.438-12 15.438s-12-6-12-15.438z" fill="#d5ab88"/><ellipse cx="7" cy="14" fill="#d1d3d4" rx="2" ry="4"/><path d="m8 21c0 2.209-1.119 4-2.5 4s-2.5-1.791-2.5-4 1.119-4 2.5-4 2.5 1.791 2.5 4z" fill="#d5ab88"/><ellipse cx="29" cy="14" fill="#d1d3d4" rx="2" ry="4"/><path d="m33 21c0 2.209-1.119 4-2.5 4s-2.5-1.791-2.5-4 1.119-4 2.5-4 2.5 1.791 2.5 4z" fill="#d5ab88"/><path d="m30.961 10c.016-.185.039-.368.039-.556 0-5.215-5.825-9.444-13.011-9.444s-13.011 4.229-13.011 9.444c0 .188.024.371.039.556zm-12.961 20.651c-2.42 0-4.274-.687-4.352-.715-.517-.194-.779-.771-.584-1.288.194-.517.769-.779 1.286-.585.016.006 1.61.588 3.65.588 2.041 0 3.635-.582 3.65-.588.516-.194 1.094.071 1.285.587.193.517-.067 1.092-.584 1.286-.077.029-1.93.715-4.351.715z" fill="#dd2e44"/><path d="m19 26h-2c-.553 0-1-.447-1-1s.447-1 1-1h2c.553 0 1 .447 1 1s-.447 1-1 1z" fill="#c1694f"/><path d="m12 23c-.552 0-1-.447-1-1v-2c0-.553.448-1 1-1s1 .447 1 1v2c0 .553-.448 1-1 1zm12 0c-.553 0-1-.447-1-1v-2c0-.553.447-1 1-1s1 .447 1 1v2c0 .553-.447 1-1 1z" fill="#662113"/><g fill="#f1f2f2"><circle cx="18" cy="11" r="4"/><circle cx="11.5" cy="11.5" r="3.5"/><circle cx="6" cy="12" r="3"/><circle cx="24.5" cy="11.5" r="3.5"/><circle cx="30" cy="12" r="3"/></g><ellipse cx="23.5" cy="24" fill="#d1d3d4" rx="3.5" ry="2"/><ellipse cx="12.5" cy="24" fill="#d1d3d4" rx="3.5" ry="2"/><path d="m33 12c0-1.657-30-1.657-30 0s1.343 3 3 3h24c1.657 0 3-1.343 3-3z" fill="#f1f2f2"/></svg>