<svg viewBox="0 0 36 36" xmlns="http://www.w3.org/2000/svg"><path d="m36 36v-2c0-3.314-2.686-6-6-6h-16c-3.313 0-6 2.686-6 6v2z" fill="#292f33"/><path d="m17 28h9.929v8h-9.929z" fill="#e1e8ed"/><path d="m17.64 28.101c1.744 1.268 2.848 1.963 4.36 1.963s2.615-.696 4.359-1.963v-3.811h-8.72v3.811z" fill="#f7dece"/><path d="m17.632 25.973c1.216 1.374 2.724 1.746 4.364 1.746 1.639 0 3.146-.373 4.363-1.746v-3.491h-8.728v3.491z" fill="#eec2ad"/><path d="m15.444 15.936c0 1.448-.734 2.622-1.639 2.622s-1.639-1.174-1.639-2.622.734-2.623 1.639-2.623c.905-.001 1.639 1.174 1.639 2.623m16.389 0c0 1.448-.733 2.622-1.639 2.622-.905 0-1.639-1.174-1.639-2.622s.733-2.623 1.639-2.623c.906-.001 1.639 1.174 1.639 2.623" fill="#f7dece"/><path d="m13.477 16.959c0-5.589 3.816-10.121 8.523-10.121s8.522 4.532 8.522 10.121-3.815 10.121-8.522 10.121c-4.706 0-8.523-4.531-8.523-10.121" fill="#f7dece"/><path d="m26.525 21.346-1.268-.274c-.405-.095-1.173-.072-1.535-.072h-3.689c-.362 0-1.131-.023-1.536.071l-1.266.274c-.348.101-.55.393-.45.74.082.288.345.441.63.441.059 0 .12-.026.18-.042l1.267-.371c-.143.191-.181.446-.066.676.115.228.347.36.587.36.099 0 .199-.024.293-.071l1.034-.518c.022.215.139.414.346.518.094.046.195.069.293.069.241 0 .473-.134.587-.363l.068-.138-.053.138c.114.229.224.363.465.363.098 0 .198-.023.292-.069.207-.104.323-.303.347-.518l1.033.518c.095.047.195.071.293.071.241 0 .472-.132.587-.36.114-.23.076-.484-.066-.676l1.266.371c.059.016.121.042.181.042.285 0 .547-.152.63-.441.099-.347-.102-.639-.45-.739zm-4.525-17.866c5.648 0 9.178 4.168 9.178 7.641s-.706 4.863-1.412 3.473l-1.412-2.778s-4.235 0-5.647-1.39c0 0 2.118 4.168-2.118 0 0 0 .706 2.779-3.53-.694 0 0-2.118 1.389-2.824 4.862-.196.964-1.412 0-1.412-3.473-.001-3.473 2.823-7.641 9.177-7.641" fill="#6d6e71"/><path d="m18 17c-.55 0-1-.45-1-1v-1c0-.55.45-1 1-1s1 .45 1 1v1c0 .55-.45 1-1 1m8 0c-.55 0-1-.45-1-1v-1c0-.55.45-1 1-1s1 .45 1 1v1c0 .55-.45 1-1 1" fill="#662113"/><path d="m22.75 19.75h-1.5c-.413 0-.75-.337-.75-.75s.337-.75.75-.75h1.5c.413 0 .75.337.75.75s-.337.75-.75.75" fill="#c1694f"/><path d="m22.001 30.878s3.381 2.494 4.093 2.778c.156.063-.366-3.656-.366-3.656h-7.454s-.523 3.781-.231 3.625c.638-.343 3.958-2.747 3.958-2.747" fill="#99aab5"/><path d="m23.312 33.438s.375-.625.531-.906c.183-.329.453-1.57.453-1.57v-.963l-4.583.003v.96s.287 1.241.47 1.57c.156.281.528.906.528.906s-.753.562-1.035 2.563h4.667c-.281-1.595-1.031-2.563-1.031-2.563" fill="#269"/><path d="m17.292 26.625c.566.566 4.709 3.383 4.709 3.383s-2.126 1.242-4.084 3.534c-.197.23-1.542-4.625-1.583-5.709-.012-.303.687-1.479.958-1.208m9.438 0c-.566.566-4.709 3.383-4.709 3.383s2.126 1.242 4.084 3.534c.196.23 1.542-4.625 1.583-5.709.012-.303-.687-1.479-.958-1.208" fill="#f5f8fa"/><path d="m27.62 28s-1.542 5.463-5.62 7.411c-4.078-1.948-5.62-7.411-5.62-7.411h-1.38v8h14v-8z" fill="#292f33"/><path d="m12.083 33.341c.251 0 .401 2.659.401 2.659h-.956s.193-2.659.555-2.659m3 0c.251 0 .401 2.659.401 2.659h-.956s.193-2.659.555-2.659m16.846 0c-.251 0-.401 2.659-.401 2.659h.956c-.001 0-.194-2.659-.555-2.659m-3 0c-.251 0-.401 2.659-.401 2.659h.956c-.001 0-.194-2.659-.555-2.659" fill="#66757f"/><path d="m7.854 23.665c.468 1.24.178 2.498-.649 2.812-.826.311-1.876-.441-2.345-1.681-.468-1.239-.178-2.498.649-2.811.826-.312 1.876.44 2.345 1.68" fill="#c1694f"/><path d="m9.092 36-3.479-9.208.25-.094c1.098-.415 1.656-1.651 1.242-2.75-.415-1.097-1.652-1.656-2.75-1.241l-1.995.754c-1.098.413-1.657 1.65-1.242 2.749.414 1.098 1.652 1.656 2.749 1.241l.25-.094 3.265 8.643z" fill="#662113"/><path d="m3.363 25.361c.468 1.24.178 2.498-.649 2.812-.826.312-1.876-.44-2.345-1.681-.468-1.239-.178-2.498.649-2.811.827-.312 1.877.44 2.345 1.68" fill="#c1694f"/><path d="m11.318 36-.466-1.588c-.363-1.239-1.673-1.955-2.911-1.592l-1.255.368c-1.205.354-1.907 1.604-1.61 2.812z" fill="#f7dece"/></svg>