<svg viewBox="0 0 36 36" xmlns="http://www.w3.org/2000/svg"><path d="m32 36v-2c0-3.314-2.685-6-6-6h-16c-3.313 0-6 2.686-6 6v2z" fill="#e1e8ed"/><path d="m30 7.5c0 4.142-5.372 7.5-12 7.5-6.627 0-12-3.358-12-7.5s5.373-7.5 12-7.5c6.628 0 12 3.358 12 7.5" fill="#292f33"/><path d="m13.64 28.101c1.744 1.268 2.848 1.963 4.36 1.963s2.616-.696 4.36-1.963v-3.811h-8.72z" fill="#f3d2a2"/><path d="m13.632 25.973c1.216 1.374 2.724 1.746 4.364 1.746 1.639 0 3.147-.373 4.364-1.746v-3.491h-8.728z" fill="#e2c196"/><path d="m11.444 15.936c0 1.448-.734 2.622-1.639 2.622s-1.639-1.174-1.639-2.622.734-2.623 1.639-2.623c.905-.001 1.639 1.174 1.639 2.623m16.389 0c0 1.448-.733 2.622-1.639 2.622-.905 0-1.639-1.174-1.639-2.622s.733-2.623 1.639-2.623c.906-.001 1.639 1.174 1.639 2.623" fill="#f3d2a2"/><path d="m9.477 16.959c0-5.589 3.816-10.121 8.522-10.121 4.708 0 8.523 4.532 8.523 10.121s-3.815 10.121-8.523 10.121c-4.706 0-8.522-4.531-8.522-10.121" fill="#f3d2a2"/><path d="m18 23.802c-2.754 0-3.6-.705-3.741-.848-.256-.256-.256-.671 0-.927.248-.248.645-.255.902-.023.052.037.721.487 2.839.487 2.2 0 2.836-.485 2.842-.49.256-.255.657-.243.913.015.256.256.242.683-.014.938-.141.143-.987.848-3.741.848" fill="#c1694f"/><path d="m18 3.48c5.648 0 9.178 4.168 9.178 7.641s-.706 4.863-1.412 3.473l-1.412-2.778s-4.235 0-5.647-1.39c0 0 2.118 4.168-2.118 0 0 0 .706 2.779-3.53-.694 0 0-2.118 1.389-2.824 4.862-.196.964-1.412 0-1.412-3.473-.001-3.473 2.823-7.641 9.177-7.641" fill="#ffe51e"/><path d="m14 17c-.55 0-1-.45-1-1v-1c0-.55.45-1 1-1s1 .45 1 1v1c0 .55-.45 1-1 1m8 0c-.55 0-1-.45-1-1v-1c0-.55.45-1 1-1s1 .45 1 1v1c0 .55-.45 1-1 1" fill="#662113"/><path d="m18.75 19.75h-1.5c-.413 0-.75-.337-.75-.75s.337-.75.75-.75h1.5c.413 0 .75.337.75.75s-.337.75-.75.75" fill="#c1694f"/><path d="m8.5 9c0-1.105 4.253-2 9.5-2s9.5.895 9.5 2-4.253 2-9.5 2-9.5-.895-9.5-2" fill="#292f33"/><path d="m27.5 8h-19v-3.446s3.958-3.554 9.5-3.554 9.5 3.554 9.5 3.554z" fill="#66757f"/><path d="m15 5c0-2.792 1.343-1 3-1s3-1.792 3 1c0 1.657-1.343 2-3 2s-3-.343-3-2" fill="#ffac33"/><path d="m16 5c0-1.105.895-2 2-2s2 .895 2 2-.895 2-2 2-2-.895-2-2m11.5 4h-19c-.275 0-.5-.225-.5-.5s.225-.5.5-.5h19c.275 0 .5.225.5.5s-.225.5-.5.5" fill="#fdcb58"/><path d="m11.578 29.056-5.926.938c-.272.043-.529-.144-.572-.416l-.157-.988c-.043-.271.144-.528.416-.571l5.926-.938c.272-.043.529.145.572.415l.157.988c.043.271-.144.528-.416.572" fill="#292f33"/><path d="m5.834 27.94.989-.157.312 1.974-.989.157zm1.973-.313.987-.156.313 1.975-.988.157zm1.978-.313.988-.155.31 1.976-.988.155z" fill="#fdcb58"/><path d="m30.348 29.994-5.926-.939c-.272-.043-.459-.3-.416-.572l.157-.986c.043-.272.3-.459.572-.416l5.926.938c.271.043.459.3.416.572l-.157.987c-.043.272-.3.459-.572.416" fill="#292f33"/><path d="m24.916 29.135.312-1.975.988.156-.313 1.975zm1.976.312.31-1.976.989.155-.31 1.976zm1.975.315.312-1.976.99.156-.313 1.976z" fill="#fdcb58"/><path d="m18.001 30.878s3.381 2.494 4.093 2.778c.156.063-.366-3.656-.366-3.656h-7.454s-.524 3.781-.232 3.625c.639-.343 3.959-2.747 3.959-2.747" fill="#99aab5"/><path d="m19.312 33.438s.375-.625.531-.906c.183-.329.453-1.57.453-1.57l-2.188-.962c0-.007-.16.006-.16.006l-.184.042-.172.062c-.218.07.094.008.094.015l-1.974.837s.287 1.241.47 1.57c.156.281.528.906.528.906s-.753.562-1.035 2.563h4.668c-.281-1.595-1.031-2.563-1.031-2.563" fill="#292f33"/><path d="m13.292 26.625c.566.566 4.709 3.383 4.709 3.383s-2.126 1.242-4.084 3.534c-.197.23-1.542-4.625-1.583-5.709-.012-.303.687-1.479.958-1.208m9.438 0c-.566.566-4.709 3.383-4.709 3.383s2.126 1.242 4.084 3.534c.196.23 1.542-4.625 1.583-5.709.012-.303-.687-1.479-.958-1.208" fill="#f5f8fa"/><path d="m18.016 30.688c.39-.022 1.543.771 1.422 1.25-.461 1.827-.849 1.391-1.391 1.391-.611 0-.964.473-1.39-1.312-.094-.388.797-1.298 1.359-1.329m2.031 5.312h-4.024s.542-2.167 2.019-2.167 2.005 2.167 2.005 2.167" fill="#323a3f"/></svg>