<svg viewBox="0 0 36 36" xmlns="http://www.w3.org/2000/svg"><path d="m31 36v-3.5c0-3.313-3.687-5.5-7-5.5h-12c-3.313 0-7 2.187-7 5.5v3.5z" fill="#ce9e5d"/><path d="m5 33h26v3h-26z" fill="#fff35f"/><path d="m5.122 34h26v1h-26z" fill="#ccd6dd"/><path d="m32 13.656c0 3.59-6.268 6.5-14 6.5s-14-2.91-14-6.5 6.268-2.5 14-2.5 14-1.09 14 2.5z" fill="#a0041e"/><path d="m17.945 5.069c4.105 0 10.948 2.053 10.948 10.948s0 10.948-2.053 10.948-4.79-2.053-8.895-2.053-6.784 2.053-8.895 2.053c-2.287 0-2.053-8.211-2.053-10.948 0-8.895 6.842-10.948 10.948-10.948z" fill="#ffe51e"/><path d="m14 27h8s-1.018 5-4 5-4-5-4-5z" fill="#292f33"/><path d="m14.328 27.02c1.467 1.065 2.964.98 3.672.98s2.194.084 3.66-.98v-3.205h-7.332z" fill="#f3d2a2"/><path d="m14.321 25.179c1.023 1.155 2.291 1.468 3.669 1.468s2.646-.313 3.669-1.468v-2.936h-7.339v2.936z" fill="#e2c196"/><path d="m9.734 15.717c0-5.834 3.676-10.563 8.211-10.563 4.534 0 8.211 4.729 8.211 10.563 0 5.833-3.676 10.285-8.211 10.285-4.535.001-8.211-4.451-8.211-10.285z" fill="#f3d2a2"/><path d="m17.945 23.543c-1.606 0-2.446-.794-2.536-.885-.267-.267-.267-.7 0-.967.265-.265.693-.267.961-.007.035.032.551.49 1.576.49 1.039 0 1.556-.472 1.577-.492.273-.255.703-.248.964.02.259.269.26.692-.004.956-.092.092-.933.885-2.538.885z" fill="#df1f32"/><path d="m7.725 19c-.021-1-.044-.224-.044-.465 0-3.421 2.053.494 2.053-1.943 0-2.438 1.368-2.683 2.737-4.051.684-.684 2.053-2.025 2.053-2.025s3.421 2.066 6.158 2.066 5.474 1.376 5.474 4.113 2.053-1.584 2.053 1.837c0 .243-.023-.531-.039.469h.718c.006-2 .006-1.924.006-3.202 0-8.895-6.842-12.207-10.948-12.207s-10.949 3.256-10.949 12.151c0 .793-.02 1.257.008 3.257z" fill="#ffe51e"/><path d="m14.609 17.886c-.465 0-.846-.381-.846-.846v-.846c0-.465.381-.846.846-.846s.846.381.846.846v.846c-.001.466-.381.846-.846.846zm6.764 0c-.465 0-.846-.381-.846-.846v-.846c0-.465.381-.846.846-.846s.846.381.846.846v.846c0 .466-.381.846-.846.846z" fill="#662113"/><path d="m18.836 20.5h-1.691c-.233 0-.423-.19-.423-.423v-.154c0-.233.19-.423.423-.423h1.691c.233 0 .423.19.423.423v.154c0 .233-.19.423-.423.423z" fill="#c1694f"/><path d="m27 36v-9c0-.55-.45-1-1-1h-1c-.55 0-1 .45-1 1v9zm-15 0v-9c0-.55-.45-1-1-1h-1c-.55 0-1 .45-1 1v9z" fill="#292f33"/><path d="m28.853 10.857c-.86-.173-1.093-4.028-3.084-6.859-1.875-2.663-5.465-3.998-7.772-3.998s-5.897 1.335-7.771 3.998c-1.992 2.831-2.224 6.686-3.084 6.859-3.317.665-3.161 2.386-3.14 2.782.123-.466.438-1.578 3.902-1.64 3.404-.06 6.58.806 10.094.806s6.69-.866 10.094-.806c3.464.061 3.778 1.173 3.902 1.64.02-.396.176-2.117-3.141-2.782z" fill="#df1f32"/><path d="m18 0c-2.094 0-5 3.593-5 5.054v3.946s.109 1 .92 1h8.159c.812 0 .921-1 .921-1v-3.946c0-1.461-2.906-5.054-5-5.054z" fill="#ea596e"/><path d="m23.883 25c-.406-.378-2.474.364-3.019 1s-.638 1.737-1.01 3c-.319 1.083-1.577 2.506-1.931 2.893-.353-.387-1.604-1.81-1.923-2.893-.372-1.263-.455-2.364-1-3s-2.594-1.378-3-1 .015 1.463 0 2 0 9 0 9h12s.015-8.463 0-9 .289-1.622-.117-2z" fill="#ce9e5d"/></svg>