<svg viewBox="0 0 36 36" xmlns="http://www.w3.org/2000/svg"><path d="m31 36v-3.5c0-3.314-3.685-5.5-7-5.5h-12c-3.313 0-7 2.186-7 5.5v3.5z" fill="#e1e8ed"/><path d="m30 7.5c0 4.142-5.372 7.5-12 7.5-6.627 0-12-3.358-12-7.5s5.373-7.5 12-7.5c6.628 0 12 3.358 12 7.5" fill="#292f33"/><path d="m17.944 5.069c4.106 0 10.948 2.053 10.948 10.948s0 10.948-2.053 10.948c-2.054 0-4.79-2.053-8.896-2.053-4.105 0-6.784 2.053-8.895 2.053-2.287 0-2.053-8.211-2.053-10.948.002-8.895 6.844-10.948 10.949-10.948" fill="#292f33"/><path d="m14.328 27.02c1.466 1.065 2.964 1.98 3.672 1.98s2.194-.915 3.66-1.98v-3.205h-7.332z" fill="#f7dece"/><path d="m14.321 25.179c1.023 1.155 2.291 1.468 3.669 1.468 1.379 0 2.647-.312 3.67-1.468v-2.936h-7.339z" fill="#eec2ad"/><path d="m9.734 15.717c0-5.834 3.676-10.563 8.211-10.563 4.534 0 8.211 4.729 8.211 10.563 0 5.833-3.677 10.286-8.211 10.286-4.535 0-8.211-4.452-8.211-10.286" fill="#f7dece"/><path d="m17.944 23.543c-1.606 0-2.446-.794-2.536-.885-.268-.267-.268-.7 0-.967.265-.265.692-.267.96-.007.035.032.552.491 1.576.491 1.039 0 1.557-.473 1.577-.492.273-.256.703-.248.963.02.26.269.26.691-.004.955-.089.091-.929.885-2.536.885" fill="#df1f32"/><path d="m7.725 19c-.021-1-.044-.224-.044-.465 0-3.422 2.053.494 2.053-1.943 0-2.439 1.368-2.683 2.736-4.051.685-.685 2.053-2.026 2.053-2.026s3.421 2.067 6.158 2.067c2.736 0 5.474 1.375 5.474 4.112s2.053-1.584 2.053 1.837c0 .244-.023-.531-.04.469h.718c.007-2 .007-1.924.007-3.202 0-8.895-6.843-12.207-10.948-12.207s-10.947 3.257-10.947 12.152c0 .793-.02 1.257.008 3.257z" fill="#292f33"/><path d="m14.608 17.886c-.465 0-.846-.381-.846-.846v-.845c0-.465.381-.846.846-.846s.846.381.846.846v.845c.001.465-.38.846-.846.846m6.765 0c-.465 0-.846-.381-.846-.846v-.845c0-.465.381-.846.846-.846s.846.381.846.846v.845c0 .465-.381.846-.846.846" fill="#662113"/><path d="m18.837 20.5h-1.691c-.233 0-.423-.19-.423-.423v-.153c0-.233.19-.424.423-.424h1.691c.232 0 .423.19.423.424v.153c0 .233-.191.423-.423.423" fill="#c1694f"/><path d="m8.5 9c0-1.105 4.253-2 9.5-2s9.5.895 9.5 2-4.253 2-9.5 2-9.5-.895-9.5-2" fill="#292f33"/><path d="m27.5 8h-19v-3.446s3.958-3.554 9.5-3.554 9.5 3.554 9.5 3.554z" fill="#66757f"/><path d="m15 5c0-2.792 1.343-1 3-1s3-1.792 3 1c0 1.657-1.343 2-3 2s-3-.343-3-2" fill="#ffac33"/><path d="m16 5c0-1.105.895-2 2-2s2 .895 2 2-.895 2-2 2-2-.895-2-2m11.5 4h-19c-.275 0-.5-.225-.5-.5s.225-.5.5-.5h19c.275 0 .5.225.5.5s-.225.5-.5.5" fill="#fdcb58"/><path d="m11.578 29.056-5.926.938c-.272.043-.529-.144-.572-.416l-.157-.988c-.043-.271.144-.528.416-.571l5.926-.938c.272-.043.529.145.572.415l.157.988c.043.271-.144.528-.416.572" fill="#292f33"/><path d="m5.834 27.94.989-.157.312 1.974-.989.157zm1.973-.313.987-.156.313 1.975-.988.157zm1.978-.313.988-.155.31 1.976-.988.155z" fill="#fdcb58"/><path d="m30.348 29.994-5.926-.939c-.272-.043-.459-.3-.416-.572l.157-.986c.043-.272.3-.459.572-.416l5.926.938c.271.043.459.3.416.572l-.157.987c-.043.272-.3.459-.572.416" fill="#292f33"/><path d="m24.916 29.135.312-1.975.988.156-.313 1.975zm1.976.312.31-1.976.989.155-.31 1.976zm1.975.315.312-1.976.99.156-.313 1.976z" fill="#fdcb58"/><path d="m18.001 30.878s3.381 2.494 4.093 2.778c.156.063-.366-3.656-.366-3.656h-7.454s-.524 3.781-.232 3.625c.639-.343 3.959-2.747 3.959-2.747" fill="#99aab5"/><path d="m19.312 33.438s.375-.625.531-.906c.183-.329.453-1.57.453-1.57l-2.188-.962c0-.007-.16.006-.16.006l-.184.042-.172.062c-.218.07.094.008.094.015l-1.974.837s.287 1.241.47 1.57c.156.281.528.906.528.906s-.753.562-1.035 2.563h4.668c-.281-1.595-1.031-2.563-1.031-2.563" fill="#292f33"/><path d="m13.292 26.625c.566.566 4.709 3.383 4.709 3.383s-2.126 1.242-4.084 3.534c-.197.23-1.542-4.625-1.583-5.709-.012-.303.687-1.479.958-1.208m9.438 0c-.566.566-4.709 3.383-4.709 3.383s2.126 1.242 4.084 3.534c.196.23 1.542-4.625 1.583-5.709.012-.303-.687-1.479-.958-1.208" fill="#f5f8fa"/><path d="m18.016 30.688c.39-.022 1.543.771 1.422 1.25-.461 1.827-.849 1.391-1.391 1.391-.611 0-.964.473-1.39-1.312-.094-.388.797-1.298 1.359-1.329m2.031 5.312h-4.024s.542-2.167 2.019-2.167 2.005 2.167 2.005 2.167" fill="#323a3f"/></svg>