<svg viewBox="0 0 36 36" xmlns="http://www.w3.org/2000/svg"><path d="m30 26c0 2.209-1.791 4-4 4h-22c-2.209 0-4-1.791-4-4v-22c0-2.209 1.791-4 4-4h22c2.209 0 4 1.791 4 4z" fill="#d99e82"/><path d="m28 26c0 1.104-.896 2-2 2h-22c-1.104 0-2-.896-2-2v-22c0-1.105.896-2 2-2h22c1.104 0 2 .895 2 2z" fill="#5c913b"/><path d="m7.515 8.898c-.08.096-.184.24-.184.408 0 .368.272.528.624.528h2.67c.304 0 .576-.16.576-.528s-.271-.528-.624-.528h-1.463c.679-.855 1.919-1.958 1.919-3.07 0-1.015-.792-1.663-1.775-1.663s-1.879.807-1.879 1.815c0 .311.2.583.584.583.768 0 .328-1.295 1.247-1.295.328 0 .576.288.576.616 0 .288-.136.536-.28.744-.608.879-1.327 1.599-1.991 2.39zm-1.307 5.433h-1.159v-1.16c0-.288-.184-.479-.48-.479-.295 0-.479.192-.479.479v1.16h-1.159c-.296 0-.48.192-.48.479 0 .288.184.48.48.48h1.159v1.159c0 .288.184.479.479.479.296 0 .48-.191.48-.479v-1.159h1.159c.296 0 .48-.192.48-.48 0-.287-.184-.479-.48-.479zm4.369 1.447h-1.464c.68-.855 1.919-1.958 1.919-3.07 0-1.015-.792-1.663-1.775-1.663s-1.879.808-1.879 1.815c0 .311.2.583.583.583.768 0 .328-1.295 1.248-1.295.328 0 .576.288.576.616 0 .288-.136.536-.28.744-.608.879-1.327 1.599-1.991 2.391-.08.096-.184.24-.184.408 0 .368.272.528.624.528h2.67c.304 0 .576-.16.576-.528 0-.369-.271-.529-.623-.529zm.84 3.192h-8.334c-.276 0-.5-.224-.5-.5s.224-.5.5-.5h8.333c.276 0 .5.224.5.5.001.276-.223.5-.499.5z" fill="#fff"/><path d="m35 36v-3.5c0-3.314-3.685-5.5-7-5.5h-12c-3.313 0-7 2.186-7 5.5v3.5z" fill="#9266cc"/><path d="m21.944 5.069c4.106 0 10.948 2.053 10.948 10.948s0 10.948-2.053 10.948c-2.054 0-4.79-2.053-8.896-2.053-4.105 0-6.784 2.053-8.895 2.053-2.287 0-2.053-8.211-2.053-10.948.002-8.895 6.844-10.948 10.949-10.948" fill="#60352a"/><path d="m17 27h9.875s-1.256 3.5-4.938 3.5-4.937-3.5-4.937-3.5" fill="#292f33"/><path d="m18.328 27.02c0 1.48 2.172 2.48 3.672 2.48s3.66-1 3.66-2.48v-3.205h-7.332z" fill="#af7e57"/><path d="m18.321 25.179c1.023 1.155 2.291 1.468 3.669 1.468 1.379 0 2.647-.312 3.67-1.468v-2.936h-7.339z" fill="#9b6a49"/><path d="m13.734 15.717c0-5.834 3.676-10.563 8.21-10.563s8.211 4.729 8.211 10.563c0 5.833-3.677 10.286-8.211 10.286s-8.21-4.452-8.21-10.286" fill="#af7e57"/><path d="m21.944 23.543c-1.605 0-2.446-.794-2.536-.885-.268-.267-.268-.7 0-.967.266-.265.692-.267.96-.007.035.032.553.491 1.576.491 1.039 0 1.557-.473 1.577-.492.273-.256.703-.248.963.02.26.269.26.691-.004.955-.089.091-.929.885-2.536.885" fill="#df1f32"/><path d="m11.725 19c-.021-1-.044-.224-.044-.465 0-3.422 2.053.494 2.053-1.943 0-2.439 1.368-2.683 2.736-4.051.685-.685 2.053-2.026 2.053-2.026s3.421 2.067 6.158 2.067c2.736 0 5.474 1.375 5.474 4.112s2.053-1.584 2.053 1.837c0 .244-.022-.531-.04.469h.718c.007-2 .007-1.924.007-3.202 0-8.895-6.843-12.207-10.948-12.207s-10.947 3.257-10.947 12.152c0 .793-.02 1.257.008 3.257z" fill="#60352a"/><path d="m18.608 17.886c-.465 0-.846-.381-.846-.846v-.845c0-.465.381-.846.846-.846s.847.381.847.846v.845c0 .465-.382.846-.847.846m6.765 0c-.465 0-.846-.381-.846-.846v-.845c0-.465.381-.846.846-.846s.846.381.846.846v.845c0 .465-.381.846-.846.846" fill="#60352a"/><path d="m22.837 20.5h-1.691c-.233 0-.423-.19-.423-.423v-.153c0-.233.189-.424.423-.424h1.691c.232 0 .423.19.423.424v.153c0 .233-.191.423-.423.423" fill="#915a34"/><path d="m15.444 15.936c0 1.448-.734 2.622-1.639 2.622s-1.639-1.174-1.639-2.622.734-2.623 1.639-2.623c.905-.001 1.639 1.174 1.639 2.623m16.389 0c0 1.448-.733 2.622-1.639 2.622-.905 0-1.639-1.174-1.639-2.622s.733-2.623 1.639-2.623c.906-.001 1.639 1.174 1.639 2.623" fill="#af7e57"/><path d="m22 30.222s3.381 2.494 4.094 2.777c.156.062-.367-3.656-.367-3.656h-7.453s-.523 3.781-.234 3.625c.64-.342 3.96-2.746 3.96-2.746" fill="#744eaa"/><path d="m17.291 25.917c.564.566 4.709 3.383 4.709 3.383s-2.125 1.242-4.086 3.535c-.195.23-1.543-4.625-1.584-5.709-.012-.303.69-1.48.961-1.209m9.439 0c-.566.566-4.709 3.383-4.709 3.383s2.125 1.242 4.084 3.535c.195.23 1.541-4.625 1.582-5.709.012-.303-.687-1.48-.957-1.209" fill="#cbb7ea"/><path d="m21 30h2v6h-2z" fill="#744eaa"/><g fill="#cbb7ea"><circle cx="22" cy="34.5" r="1"/><circle cx="22" cy="31.5" r="1"/></g></svg>