<svg viewBox="0 0 36 36" xmlns="http://www.w3.org/2000/svg"><path d="m31 36v-4.5c0-3.314-3.56-5.5-6.875-5.5h-12c-3.313 0-7.125 2.186-7.125 5.5v4.5z" fill="#3b88c3"/><path d="m17.945 3.978c4.105 0 10.947 2.053 10.947 10.947 0 8.896 0 10.948-2.053 10.948s-4.79-2.053-8.895-2.053-6.785 2.053-8.895 2.053c-2.287 0-2.053-8.211-2.053-10.948.001-8.894 6.844-10.947 10.949-10.947" fill="#292f33"/><path d="m10.5 32.5h-2c0-4.094 1.877-8.5 6-8.5v2c-3.164 0-4 4.252-4 6.5zm16-4h-2c0-.411-.521-2.5-3-2.5v-2c3.533 0 5 2.931 5 4.5z" fill="#292f33"/><circle cx="9.5" cy="32.5" fill="#ccd6dd" r="3"/><circle cx="9.5" cy="32.5" fill="#f5f8fa" r="2"/><path d="m29.5 34h-2c0-.835-.108-5-2.25-5s-2.25 4.165-2.25 5h-2c0-4.383 1.589-7 4.25-7s4.25 2.617 4.25 7z" fill="#292f33"/><circle cx="22" cy="34" fill="#ccd6dd" r="1"/><circle cx="28.5" cy="34" fill="#ccd6dd" r="1"/><path d="m14.5 22.409v3.591l3.5 5 3.5-5v-3.591z" fill="#d5ab88"/><path d="m14.5 24c1.023 1.155 2.112 1.5 3.49 1.5 1.379 0 2.487-.345 3.51-1.5v-2.937h-7z" fill="#cc9b7a"/><path d="m9.734 14.627c0-5.834 3.676-10.563 8.211-10.563 4.533 0 8.209 4.73 8.209 10.563s-3.676 10.285-8.209 10.285c-4.535 0-8.211-4.452-8.211-10.285" fill="#d5ab88"/><path d="m17.945 22.452c-1.606 0-2.447-.794-2.537-.885-.268-.267-.268-.7 0-.967.266-.265.692-.267.961-.007.035.032.551.491 1.576.491 1.038 0 1.555-.473 1.576-.492.273-.256.703-.248.963.02.26.269.26.691-.004.955-.089.091-.929.885-2.535.885" fill="#df1f32"/><path d="m7.725 17.909c-.021-1-.044-.224-.044-.465 0-3.422 2.053.494 2.053-1.943 0-2.439 1.368-2.683 2.736-4.051.685-.685 2.053-2.026 2.053-2.026s3.421 2.067 6.158 2.067c2.736 0 5.474 1.375 5.474 4.112 0 2.736 2.053-1.584 2.053 1.837 0 .244-.023-.531-.04.469h.719c.006-2 .006-1.924.006-3.202 0-8.894-6.842-12.207-10.948-12.207-4.105 0-10.948 3.257-10.948 12.152 0 .793-.02 1.257.008 3.257z" fill="#292f33"/><path d="m14.608 16.796c-.465 0-.846-.381-.846-.847v-.845c0-.465.381-.846.846-.846.466 0 .847.381.847.846v.845c0 .466-.381.847-.847.847m6.765 0c-.465 0-.846-.381-.846-.847v-.845c0-.465.381-.846.846-.846s.846.381.846.846v.845c0 .466-.381.847-.846.847" fill="#662113"/><path d="m18.836 19.409h-1.69c-.233 0-.423-.19-.423-.423v-.153c0-.233.189-.424.423-.424h1.69c.233 0 .424.19.424.424v.153c0 .234-.191.423-.424.423" fill="#c1694f"/><path d="m11.444 14.845c0 1.448-.734 2.622-1.639 2.622s-1.639-1.174-1.639-2.622.734-2.623 1.639-2.623 1.639 1.174 1.639 2.623m16.389 0c0 1.448-.733 2.622-1.639 2.622-.905 0-1.639-1.174-1.639-2.622s.733-2.623 1.639-2.623 1.639 1.174 1.639 2.623" fill="#d5ab88"/></svg>