<svg viewBox="0 0 36 36" xmlns="http://www.w3.org/2000/svg"><path d="m11 0c-1.264 0-2.435.393-3.402 1.061-.197-.03-.393-.061-.598-.061-2.209 0-4 1.791-4 4v6c0 3.866 3.134 7 7 7s7-3.134 7-7v-4.999c0-3.314-2.686-6.001-6-6.001z" fill="#ffe51e"/><path d="m11.213 34.309c-.052.682 1.849.953 2.129.791.299-.173-.698-.623-.702-.977-.019-1.797.53-1.648.311-3.492.443-1.625.672-2.592.672-3.131 0-1.25-3.312-.766-3.312 0 0 .344.365 1.681.417 3.131-.313 1.659.641 1.615.485 3.678zm-2.448 0c.052.682-1.849.953-2.129.791-.299-.173.698-.623.702-.977.019-1.797-.53-1.648-.311-3.492-.443-1.625-.672-2.592-.672-3.131 0-1.25 3.313-.766 3.313 0 0 .344-.365 1.681-.417 3.131.311 1.659-.642 1.615-.486 3.678z" fill="#f3d2a2"/><path d="m13.623 27.5c0-1.25-3.312-.766-3.312 0 0 .151.071.499.154.961h3.029c.084-.411.129-.729.129-.961zm-3.956 0c0-.766-3.312-1.25-3.312 0 0 .232.045.55.13.961h3.029c.082-.462.153-.81.153-.961z" fill="#e2c196"/><path d="m3.258 26.96c-.258.124-.503-.097-.619-.227-.328-.367-.583-1.246-.282-2.209.303-.973.6-2.384 1.199-4.002.081-.22.499-3.764.805-4.445.197-.437 1.28-.896 1.81-.807.529.089.246.651.105 1.13 0 0-.916 3.953-1.016 4.296-.316 1.079-1.624 2.918-1.565 4.237.031.692.06 1.255-.339 1.246-.049.362-.003.735-.098.781zm14.984-.2c.271.091.487-.159.586-.302.279-.405.422-1.309.004-2.227-.423-.927-.894-2.29-1.69-3.821-.108-.208-.966-3.672-1.355-4.309-.25-.409-1.382-.729-1.897-.574-.513.154-.162.676.037 1.134 0 0 1.403 3.807 1.546 4.135.449 1.031 1.977 2.691 2.082 4.008.056.69.097 1.253.492 1.194.094.353.095.729.195.762z" fill="#f3d2a2"/><path d="m13.945 36c.305 0 .372-.418.089-.629-.379-.285-.88-1.371-1.561-1.371h-1.245c-.229 0-.49 1.209-.41 1.48.102.345.433.52.812.52zm-7.913 0c-.305 0-.372-.418-.089-.629.379-.285.88-1.371 1.561-1.371h1.245c.229 0 .49 1.209.41 1.48-.102.345-.433.52-.811.52z" fill="#292f33"/><path d="m14.354 17.771 1.646-1.771c-1.438-1.792-4-2-4-2h-4s-2.562.208-4 2l1.646 1.771s.604 2.917.604 3.229-1.25 4.75-1.25 7h10c0-2.25-1.25-6.688-1.25-7s.604-3.229.604-3.229z" fill="#e75a70"/><path d="m13.75 21c0-.106.07-.512.161-1h-7.822c.092.488.161.894.161 1 0 .083-.122.509-.223 1h7.942c-.108-.558-.219-.917-.219-1z" fill="#da2f47"/><path d="m8 11v4c0 1.104.896 2 2 2s2-.896 2-2v-4z" fill="#f3d2a2"/><path d="m8 13.56c.608.687 1.178.859 1.998.859.819 0 1.394-.173 2.002-.859v-.812h-4z" fill="#e2c196"/><path d="m15 3h-10v6c0 2.762 2.238 5 5 5s5-2.237 5-5z" fill="#f3d2a2"/><path d="m15 2h-10l-1 5c4 0 4-4 4-4s0 4 8 4z" fill="#ffe51e"/><path d="m12 12h-4s0 1 2 1 2-1 2-1z" fill="#df1f32"/><circle cx="7.5" cy="8.5" fill="#662113" r=".5"/><circle cx="12.5" cy="8.5" fill="#662113" r=".5"/><path d="m9 10h2s0 1-1 1-1-1-1-1z" fill="#c1694f"/><path d="m33 6.001c0-3.314-2.687-6.001-6-6.001-1.264 0-2.435.393-3.402 1.061-.197-.03-.393-.061-.598-.061-2.209 0-4 1.791-4 4v6h14z" fill="#963b22"/><path d="m27.213 34.309c-.052.682 1.849.953 2.129.791.299-.173-.698-.623-.702-.977-.019-1.797.53-1.648.311-3.492.443-1.625.672-2.592.672-3.131 0-1.25-3.312-.766-3.312 0 0 .344.365 1.681.417 3.131-.313 1.659.641 1.615.485 3.678zm-2.448 0c.052.682-1.849.953-2.129.791-.299-.173.698-.623.702-.977.019-1.797-.53-1.648-.311-3.492-.443-1.625-.672-2.592-.672-3.131 0-1.25 3.312-.766 3.312 0 0 .344-.365 1.681-.417 3.131.312 1.659-.642 1.615-.485 3.678z" fill="#d4ab88"/><path d="m29.623 27.5c0-1.25-3.312-.766-3.312 0 0 .151.071.499.154.961h3.029c.084-.411.129-.729.129-.961zm-3.956 0c0-.766-3.312-1.25-3.312 0 0 .232.045.55.13.961h3.029c.082-.462.153-.81.153-.961z" fill="#cc9b7a"/><path d="m18.117 26.76c-.271.091-.487-.159-.586-.302-.279-.405-.422-1.309-.004-2.227.423-.927.702-2.072 1.69-3.821.115-.204.494-2.746 1.242-4.354.202-.435 1.495-.685 2.009-.529.513.154-.005.98-.037 1.134-.344 1.651-1.305 4.077-1.45 4.404-.8 1.806-1.965 2.389-2.071 3.706-.056.69-.205 1.286-.6 1.228-.092.352-.094.728-.193.761zm14.595.204c.257.126.504-.094.62-.222.33-.365.591-1.242.296-2.208-.297-.975-.424-2.146-1.174-4.01-.088-.217-.129-2.787-.66-4.479-.143-.458-1.392-.875-1.922-.789-.529.086-.124.972-.112 1.129.124 1.682.758 4.213.859 4.556.556 1.895 1.634 2.626 1.566 3.946-.036.692.034 1.302.433 1.296.048.363 0 .735.094.781z" fill="#d4ab88"/><path d="m29.945 36c.305 0 .372-.418.089-.629-.379-.285-.88-1.371-1.561-1.371h-1.245c-.229 0-.49 1.209-.41 1.48.102.345.433.52.812.52zm-7.913 0c-.305 0-.372-.418-.089-.629.379-.285.88-1.371 1.561-1.371h1.245c.229 0 .49 1.209.41 1.48-.102.345-.433.52-.811.52z" fill="#292f33"/><path d="m30.354 17.771 1.646-1.771c-1.438-1.792-4-2-4-2h-4s-2.562.208-4 2l1.646 1.771s.604 2.917.604 3.229-1.25 4.75-1.25 7h10c0-2.25-1.25-6.688-1.25-7s.604-3.229.604-3.229z" fill="#9268ca"/><path d="m29.75 21c0-.106.07-.512.161-1h-7.822c.092.488.161.894.161 1 0 .083-.122.509-.223 1h7.942c-.108-.558-.219-.917-.219-1z" fill="#aa8ed6"/><path d="m24 11v4c0 1.104.896 2 2 2s2-.896 2-2v-4z" fill="#d4ab88"/><path d="m24 13.561c.608.687 1.178.859 1.998.859.819 0 1.394-.173 2.002-.859v-.812h-4z" fill="#cc9b7a"/><path d="m31 3h-10v6c0 2.762 2.238 5 5 5s5-2.237 5-5z" fill="#d4ab88"/><path d="m31 2h-10l-1 5c4 0 4-4 4-4s0 4 8 4z" fill="#963b22"/><path d="m28 12h-4s0 1 2 1 2-1 2-1z" fill="#df1f32"/><circle cx="23.5" cy="8.5" fill="#662113" r=".5"/><circle cx="28.5" cy="8.5" fill="#662113" r=".5"/><path d="m25 10h2s0 1-1 1-1-1-1-1z" fill="#c1694f"/></svg>