<svg viewBox="0 0 36 36" xmlns="http://www.w3.org/2000/svg"><g fill="#292f33"><path d="m29.96 23.087c4.04 3.913 4.083 10.934 3.061 10.934s-4.115-1.852-6.068-3.937c-1.953-2.084-1.75-6.778-1.75-6.778l1.586-4.319c0-.001-.869.187 3.171 4.1z"/><path d="m26.96 23.087c4.04 3.913 4.083 10.934 3.061 10.934s-4.115-1.852-6.068-3.937c-1.953-2.084-1.75-6.778-1.75-6.778l1.586-4.319c0-.001-.869.187 3.171 4.1zm-23.96 10.913c-1 0-1-7 3-11s3-4 3-4l2 4s0 5-2 7-5 4-6 4z"/><path d="m6 34c-1 0-1-7 3-11s3-4 3-4l2 4s0 5-2 7-5 4-6 4z"/></g><path d="m6.914 18.353c-.571-2.134-2.116-3.575-3.45-3.217s-1.95 2.378-1.379 4.511c.571 2.135 2.116 3.574 3.45 3.217 1.334-.358 1.951-2.378 1.379-4.511zm27.001 1.294c.571-2.134-.046-4.154-1.38-4.512-1.333-.356-2.878 1.083-3.449 3.218-.572 2.134.045 4.153 1.379 4.511s2.879-1.083 3.45-3.217z" fill="#f7dece"/><path d="m31 19c0-9.389-5.82-16-13-16s-13 6.611-13 16 5.82 15 13 15 13-5.611 13-15z" fill="#f7dece"/><path d="m18 27.651c-2.42 0-4.274-.687-4.352-.715-.517-.194-.779-.771-.584-1.288.194-.517.769-.779 1.286-.585.016.006 1.61.588 3.65.588 2.041 0 3.635-.582 3.65-.588.516-.194 1.094.071 1.285.587.193.517-.067 1.092-.584 1.286-.077.029-1.93.715-4.351.715z" fill="#df1f32"/><path d="m19 23h-2c-.552 0-1-.447-1-1s.448-1 1-1h2c.553 0 1 .447 1 1s-.447 1-1 1z" fill="#c1694f"/><path d="m12 20c-.552 0-1-.447-1-1v-2c0-.552.448-1 1-1s1 .448 1 1v2c0 .553-.448 1-1 1zm12 0c-.553 0-1-.447-1-1v-2c0-.552.447-1 1-1s1 .448 1 1v2c0 .553-.447 1-1 1z" fill="#662113"/><path d="m32 10c-2-7-7-9-10-9-2 0-4 2-4 2s-2-2-4-2c-3 0-8 2-10 9-1.648 5.769 1 11 1 11 0-3.001 2-9 7-9s6-4 6-4 .786 4 5.786 4 7.214 6 7.214 9c0 0 2.648-5.231 1-11z" fill="#292f33"/></svg>