<svg viewBox="0 0 36 36" xmlns="http://www.w3.org/2000/svg"><path d="m35 36v-3.5c0-3.314-3.685-5.5-7-5.5h-12c-3.313 0-7 2.186-7 5.5v3.5z" fill="#3b88c3"/><path d="m22 35.999-6-8.999h12z" fill="#292f33"/><path d="m14.5 27c0 1.068 1.5 3.662 3.5 5.798 1.581 1.687 4 3.202 4 3.202 0-3.271-1-4.27-2-5.338-1-1.066-3-1.526-3-3.662 0-1.066-2.5 0-2.5 0m15 0c0 1.068-1.5 3.662-3.5 5.798-1.581 1.687-4 3.202-4 3.202 0-3.271 1-4.27 2-5.338 1-1.066 3-1.526 3-3.662 0-1.066 2.5 0 2.5 0" fill="#55acee"/><path d="m21.945 5.069c4.105 0 10.947 2.053 10.947 10.947 0 8.896 0 10.948-2.053 10.948s-4.79-2.053-8.895-2.053-6.785 2.053-8.895 2.053c-2.287 0-2.053-8.211-2.053-10.948.001-8.894 6.844-10.947 10.949-10.947" fill="#60352a"/><path d="m18.328 27.018c1.466 1.065 2.964.98 3.672.98s2.194.085 3.66-.98v-3.203h-7.332z" fill="#af7e57"/><path d="m18.322 25.179c1.022 1.155 2.29 1.468 3.668 1.468 1.379 0 2.647-.312 3.67-1.468v-2.936h-7.338z" fill="#9b6a49"/><path d="m13.734 15.718c0-5.834 3.676-10.563 8.211-10.563 4.533 0 8.209 4.729 8.209 10.563 0 5.833-3.676 10.285-8.209 10.285-4.535 0-8.211-4.452-8.211-10.285" fill="#af7e57"/><path d="m21.945 23.543c-1.606 0-2.447-.794-2.537-.885-.268-.267-.268-.7 0-.967.266-.265.692-.267.961-.007.035.032.551.491 1.576.491 1.038 0 1.555-.473 1.576-.492.273-.256.703-.248.963.02.26.269.26.691-.004.955-.089.091-.929.885-2.535.885" fill="#df1f32"/><path d="m22.836 20.5h-1.69c-.233 0-.423-.19-.423-.423v-.153c0-.233.189-.424.423-.424h1.69c.233 0 .424.19.424.424v.153c0 .233-.191.423-.424.423" fill="#915a34"/><path d="m11.725 19c-.021-1-.044-.224-.044-.465 0-3.422 2.053.494 2.053-1.943 0-2.439 1.368-2.683 2.736-4.051.685-.685 2.053-2.026 2.053-2.026s3.421 2.067 6.158 2.067c2.736 0 5.474 1.375 5.474 4.112 0 2.736 2.053-1.584 2.053 1.837 0 .244-.022-.531-.04.469h.719c.006-2 .006-1.924.006-3.202 0-8.895-6.842-12.207-10.948-12.207-4.104 0-10.947 3.257-10.947 12.152 0 .793-.02 1.257.008 3.257z" fill="#60352a"/><path d="m15.444 15.936c0 1.448-.734 2.622-1.639 2.622s-1.639-1.174-1.639-2.622.734-2.623 1.639-2.623c.905-.001 1.639 1.174 1.639 2.623m16.389 0c0 1.448-.733 2.622-1.639 2.622-.905 0-1.639-1.174-1.639-2.622s.733-2.623 1.639-2.623c.906-.001 1.639 1.174 1.639 2.623" fill="#af7e57"/><g fill="#9b6a49"><circle cx="17.25" cy="16" r="3.75"/><circle cx="26.75" cy="16" r="3.75"/><path d="m19.5 15h5v2.5h-5z"/></g><circle cx="17.5" cy="15.5" fill="#e1e8ed" r="3.5"/><circle cx="26.5" cy="15.5" fill="#e1e8ed" r="3.5"/><path d="m19.5 14h5v2.5h-5z" fill="#e1e8ed"/><circle cx="17.5" cy="15.5" fill="#292f33" r="2.5"/><circle cx="26.5" cy="15.5" fill="#292f33" r="2.5"/><path d="m5 24-1.5 1s1.5 2.5 1.5 6v5h2v-5c0-4.5-2-7-2-7z" fill="#66757f"/><path d="m6.079 23.807c.208.379.071.854-.307 1.064l-2.13 1.178c-.379.208-.855.07-1.064-.309l-.451-.816c-.208-.379-.072-.855.307-1.064l2.13-1.178c.378-.209.855-.071 1.064.309z" fill="#99aab5"/><path d="m3.49 22.584c4.188-2.209-3.438-6.271-3.438-6.271s-.75 8.48 3.438 6.271z" fill="#f4900c"/><path d="m2.96 21.365c2.202-1.162-1.808-3.299-1.808-3.299s-.394 4.459 1.808 3.299z" fill="#ffdc5d"/><path d="m34 11c-3-2-1.008-4.169-3-7-1.874-2.663-5-4-9.003-4-4.997 0-7.123 1.337-8.997 4-1.992 2.831 0 5-3 7-1.861 1.24 6 2.313 12 2.313s13.861-1.073 12-2.313" fill="#3b88c3"/><path d="m20 11.5v-11.412c-.35.032-.683.074-1 .124v10.281c-2.09-.05-5.124-.396-7.653-.853-.174.297-.41.59-.73.877 2.911.565 6.596.982 8.883.982h.5zm4.5 0c2.421 0 6.037-.393 8.907-.959-.325-.288-.563-.58-.741-.877-2.431.448-5.371.787-7.667.832v-10.204c-.323-.066-.66-.112-1-.155v11.363z" fill="#269"/></svg>