<svg viewBox="0 0 36 36" xmlns="http://www.w3.org/2000/svg"><path d="m36 36v-4c0-3.314-2.686-6-6-6h-16c-3.313 0-6 2.686-6 6v4z" fill="#ccd6dd"/><path d="m18 27 4 4 4-4v-5h-8z" fill="#ffdc5d"/><path d="m18 24c1.216 1.374 2.355 1.719 3.996 1.719 1.639 0 2.787-.346 4.004-1.719v-4h-8z" fill="#f9ca55"/><path d="m15.444 13.936c0 1.448-.734 2.622-1.639 2.622s-1.639-1.174-1.639-2.622.734-2.623 1.639-2.623c.905-.001 1.639 1.174 1.639 2.623m16.389 0c0 1.448-.733 2.622-1.639 2.622-.905 0-1.639-1.174-1.639-2.622s.733-2.623 1.639-2.623c.906-.001 1.639 1.174 1.639 2.623" fill="#ffdc5d"/><path d="m13.477 14.96c0-5.589 3.816-10.121 8.523-10.121s8.522 4.532 8.522 10.121-3.815 10.121-8.522 10.121c-4.706-.001-8.523-4.532-8.523-10.121" fill="#ffdc5d"/><path d="m22 21.802c-2.754 0-3.6-.705-3.741-.848-.256-.256-.256-.671 0-.927.248-.248.646-.255.902-.023.052.037.721.487 2.839.487 2.2 0 2.836-.485 2.842-.49.256-.255.657-.243.913.015.256.256.242.683-.014.938-.141.143-.987.848-3.741.848" fill="#c1694f"/><path d="m22 1.48c5.648 0 9.178 4.168 9.178 7.641s-.706 4.863-1.412 3.473l-1.412-2.778s-4.235 0-5.647-1.39c0 0 2.118 4.168-2.118 0 0 0 .706 2.779-3.53-.694 0 0-2.118 1.389-2.824 4.862-.196.964-1.412 0-1.412-3.473-.001-3.473 2.823-7.641 9.177-7.641" fill="#ffac33"/><path d="m18 15c-.55 0-1-.45-1-1v-1c0-.55.45-1 1-1s1 .45 1 1v1c0 .55-.45 1-1 1m8 0c-.55 0-1-.45-1-1v-1c0-.55.45-1 1-1s1 .45 1 1v1c0 .55-.45 1-1 1" fill="#662113"/><path d="m22.75 17.75h-1.5c-.413 0-.75-.337-.75-.75s.337-.75.75-.75h1.5c.413 0 .75.337.75.75s-.337.75-.75.75" fill="#c1694f"/><path d="m19.059 36-1.059-9.219s1.41 1.645 4 1.645 4.219-1.645 4.219-1.645l-1.223 9.219z" fill="#66757f"/><path d="m18.081 25.25c.566.566 2.919 10.75 2.919 10.75h-3.156l-1.704-2.562 1.704-2.835-2.017-.634.254-3.957s1.729-1.033 2-.762m7.838 0c-.566.566-2.919 10.75-2.919 10.75h3.156l1.704-2.562-1.704-2.835 2.017-.634-.254-3.957s-1.729-1.033-2-.762" fill="#f5f8fa"/><path d="m14.753 10.75h14.5v5.25h-14.5z" fill="#fff" opacity=".4"/><path d="m29 10h-14c-1 0-1 1-1 1v4c0 1.461 2.333 2 4 2s2.599-1 4-1 2.333 1 4 1 4-.539 4-2v-4c0-1-1-1-1-1zm0 4c0 1.325-.852 2-3 2-1.539 0-2.804-1-4-1s-2.461 1-4 1c-2.148 0-3-.675-3-2v-3h14z" fill="#f5f8fa"/><g fill="#9266cc"><circle cx="7" cy="11" r="1"/><circle cx="9" cy="16" r="1"/><circle cx="5.5" cy="14.5" r="1.5"/></g><path d="m10 18h-5s-2 0-2 2 2 2 2 2v5l-4 5c-.883 1.104-1 1.821-1 2 0 2 2 2 2 2h11s2 0 2-2c0-.134.153-.559-1-2l-4-5v-5s2 0 2-2-2-2-2-2z" fill="#a8bccc"/><path d="m9 27.351v-6.351h1c.449-.012 1-.194 1-1 0-.803-.547-.987-1.008-1h-4.992c-.45.012-1 .194-1 1s.55.988 1.012 1l.975.024.013 6.327-1.894 2.368 3.394 3.5 3.394-3.5z" fill="#e1e8ed"/><path d="m.999 34.034c.001.772.551.954 1.013.966h10.988c.449-.012 1-.194 1-1v-.041l.006-.082c0-.003-.055-.337-.787-1.252l-2.325-2.906h-6.788l-2.325 2.906c-.719.899-.782 1.404-.782 1.409z" fill="#9266cc"/></svg>