<svg viewBox="0 0 36 36" xmlns="http://www.w3.org/2000/svg"><path d="m36 36v-2c0-3.314-2.686-6-6-6h-16c-3.313 0-6 2.686-6 6v2z" fill="#ccd6dd"/><path d="m17.64 28.038c0 2.846 8.72 2.962 8.72 0v-3.749h-8.72z" fill="#f7dece"/><path d="m17.632 25.973c1.216 1.374 2.724 1.746 4.364 1.746 1.639 0 3.146-.373 4.363-1.746v-3.491h-8.728v3.491z" fill="#eec2ad"/><path d="m15.444 15.936c0 1.448-.734 2.622-1.639 2.622s-1.639-1.174-1.639-2.622.734-2.623 1.639-2.623c.905-.001 1.639 1.174 1.639 2.623m16.389 0c0 1.448-.733 2.622-1.639 2.622-.905 0-1.639-1.174-1.639-2.622s.733-2.623 1.639-2.623c.906-.001 1.639 1.174 1.639 2.623" fill="#f7dece"/><path d="m13.477 16.959c0-5.589 3.816-10.121 8.523-10.121s8.522 4.532 8.522 10.121-3.815 10.121-8.522 10.121c-4.706 0-8.523-4.531-8.523-10.121" fill="#f7dece"/><path d="m22 23.802c-2.754 0-3.6-.705-3.741-.848-.256-.256-.256-.671 0-.927.248-.248.646-.255.902-.023.052.037.721.487 2.839.487 2.2 0 2.836-.485 2.842-.49.256-.255.657-.243.913.015.256.256.242.683-.014.938-.141.143-.987.848-3.741.848" fill="#c1694f"/><path d="m22 3.48c5.648 0 9.178 4.168 9.178 7.641s-.706 4.863-1.412 3.473l-1.412-2.778s-4.235 0-5.647-1.39c0 0 2.118 4.168-2.118 0 0 0 .706 2.779-3.53-.694 0 0-2.118 1.389-2.824 4.862-.196.964-1.412 0-1.412-3.473-.001-3.473 2.823-7.641 9.177-7.641" fill="#292f33"/><path d="m18 17c-.55 0-1-.45-1-1v-1c0-.55.45-1 1-1s1 .45 1 1v1c0 .55-.45 1-1 1m8 0c-.55 0-1-.45-1-1v-1c0-.55.45-1 1-1s1 .45 1 1v1c0 .55-.45 1-1 1" fill="#662113"/><path d="m22.75 19.75h-1.5c-.413 0-.75-.337-.75-.75s.337-.75.75-.75h1.5c.413 0 .75.337.75.75s-.337.75-.75.75" fill="#c1694f"/><path d="m13 28h3v8h-3zm15 0h3v8h-3z" fill="#269"/><path d="m30 31h-16l-.875 5h17.875z" fill="#269"/><path d="m31.056 9.5c0 1.32-4.092 0-9 0-4.909 0-9 1.32-9 0 0-3.547 1-8.5 9-8.5 7 0 9 4.953 9 8.5z" fill="#3b88c3"/><path d="m13.111 9.5s-.5 3 1.5 3c1 0 2.5-2 7.5-2s6.5 2 7.5 2c2 0 1.5-3 1.5-3s-1.5.5-9 .5-9-.5-9-.5z" fill="#269"/><path d="m13.056 9s-.5 3 1.5 3c1 0 2.5-2 7.5-2s6.5 2 7.5 2c2 0 1.5-3 1.5-3s-1.5.5-9 .5-9-.5-9-.5z" fill="#55acee"/><path d="m20.556 1.5s0-1.5 1.5-1.5 1.5 1.5 1.5 1.5z" fill="#269"/><ellipse cx="27.75" cy="33.75" fill="#f5f8fa" rx="2.25" ry="1.25"/><g fill="#66757f"><path d="m6.99 19.481.012 4.409c0 .553-1.006 1.003-2.249 1.005-1.242.003-2.25-.443-2.251-.995l-.01-4.408c-1.48.807-2.494 2.359-2.492 4.164.007 2.622 2.137 4.746 4.761 4.74 2.624-.007 4.746-2.139 4.74-4.762-.005-1.804-1.026-3.352-2.511-4.153z"/><path d="m3.25 27.396h3v8.604h-3z"/></g></svg>