<svg viewBox="0 0 36 36" xmlns="http://www.w3.org/2000/svg"><path d="m35 36v-7c0-3.315-3.685-5.5-7-5.5h-12c-3.313 0-7 2.185-7 5.5v7z" fill="#9266cc"/><path d="m21.944 1.569c4.106 0 10.948 2.053 10.948 10.948s0 10.948-2.053 10.948c-2.054 0-4.79-2.053-8.896-2.053-4.105 0-6.784 2.053-8.895 2.053-2.287 0-2.053-8.211-2.053-10.948.002-8.895 6.844-10.948 10.949-10.948" fill="#0b0200"/><path d="m18.328 23.52c0 1.48 2.172 1.98 3.672 1.98s3.66-.5 3.66-1.98v-3.205h-7.332z" fill="#7c533e"/><path d="m18.321 21.679c1.023 1.155 2.291 1.468 3.669 1.468 1.379 0 2.647-.312 3.67-1.468v-2.936h-7.339z" fill="#664131"/><path d="m13.734 12.217c0-5.834 3.676-10.563 8.21-10.563s8.211 4.729 8.211 10.563c0 5.833-3.677 10.286-8.211 10.286s-8.21-4.452-8.21-10.286" fill="#7c533e"/><path d="m21.944 20.043c-1.605 0-2.446-.794-2.536-.885-.268-.267-.268-.7 0-.967.266-.265.692-.267.96-.007.035.032.553.491 1.576.491 1.039 0 1.557-.473 1.577-.492.273-.256.703-.248.963.02.26.269.26.691-.004.955-.089.091-.929.885-2.536.885" fill="#df1f32"/><path d="m11.725 15.5c-.021-1-.044-.224-.044-.465 0-3.422 2.053.494 2.053-1.943 0-2.439 1.368-2.683 2.736-4.051.685-.685 2.053-2.026 2.053-2.026s3.421 2.067 6.158 2.067c2.736 0 5.474 1.375 5.474 4.112s2.053-1.584 2.053 1.837c0 .244-.022-.531-.04.469h.718c.007-2 .007-1.924.007-3.202 0-8.895-6.843-12.207-10.948-12.207s-10.947 3.257-10.947 12.152c0 .793-.02 1.257.008 3.257z" fill="#0b0200"/><path d="m18.608 14.386c-.465 0-.846-.381-.846-.846v-.845c0-.465.381-.846.846-.846s.847.381.847.846v.845c0 .465-.382.846-.847.846m6.765 0c-.465 0-.846-.381-.846-.846v-.845c0-.465.381-.846.846-.846s.846.381.846.846v.845c0 .465-.381.846-.846.846"/><path d="m22.837 17h-1.691c-.233 0-.423-.19-.423-.423v-.153c0-.233.189-.424.423-.424h1.691c.232 0 .423.19.423.424v.153c0 .233-.191.423-.423.423" fill="#3d2e24"/><path d="m15.444 13.436c0 1.448-.734 2.622-1.639 2.622s-1.639-1.174-1.639-2.622.734-2.623 1.639-2.623c.905-.001 1.639 1.174 1.639 2.623m16.389 0c0 1.448-.733 2.622-1.639 2.622-.905 0-1.639-1.174-1.639-2.622s.733-2.623 1.639-2.623c.906-.001 1.639 1.174 1.639 2.623" fill="#7c533e"/><path d="m33 35c0 .553-.447 1-1 1h-10c-.553 0-1-.447-1-1s.447-1 1-1h10c.553 0 1 .447 1 1z" fill="#e1e8ed"/><path d="m20.24 22h-16.481c-1.524 0-3.478.771-2.478 3.531l3.072 8.475c.001 0 .397 1.994 2.647 1.994h20l-4-11.24c-.438-1.322-1.235-2.76-2.76-2.76z" fill="#e1e8ed"/><path d="m19.24 22h-16.481c-1.524 0-3.478.771-2.478 3.531l3.072 8.475c.001 0 .397 1.994 2.647 1.994h20l-4-11.24c-.438-1.322-1.235-2.76-2.76-2.76z" fill="#99aab5"/><path d="m14.019 29.283c.524 1.572.1 3.13-.949 3.479-1.047.35-2.322-.641-2.846-2.213s-.099-3.13.949-3.479 2.323.641 2.846 2.213zm4.981-4.533h-16c-.414 0-.75-.336-.75-.75s.336-.75.75-.75h16c.414 0 .75.336.75.75s-.336.75-.75.75z" fill="#e1e8ed"/></svg>