<svg viewBox="0 0 36 36" xmlns="http://www.w3.org/2000/svg"><path d="m18 3c6 0 16 3 16 16s0 16-3 16-7-3-13-3-9.915 3-13 3c-3.343 0-3-12-3-16 0-13 10-16 16-16z" fill="#ffe51e"/><path d="m6 18.562c0-8.526 5.373-15.438 12-15.438s12 6.912 12 15.438-5.373 15.438-12 15.438-12-6.912-12-15.438z" fill="#ffdc5d"/><path d="m13.272 32.665-.169-.098c-4.102-2.356-6.783-7.384-6.998-13.121.191-2.32 1.35-3.255 2.577-4.246.44-.355.896-.723 1.35-1.177l3.125-3.125.319.191c.047.028 4.703 2.793 8.339 2.793 3.624 0 7.696 1.762 8.071 5.629-.249 5.741-2.927 10.717-6.985 13.052l-.169.098-.188-.049c-1.319-.34-7.771-.338-9.083.003zm.038-20.57-2.604 2.603c-.49.49-.986.891-1.425 1.245-1.201.969-2.068 1.669-2.224 3.526.201 5.279 2.634 9.947 6.365 12.18 1.716-.322 7.439-.324 9.16-.003 3.69-2.212 6.12-6.831 6.354-12.108-.316-3.208-3.913-4.699-7.12-4.699-3.368-.001-7.349-2.093-8.506-2.744z" fill="#ffac33"/><path d="m7.118 20c0-7.732 4.872-14 10.882-14s10.882 6.268 10.882 14c0 7.731-4.873 14-10.882 14-6.01 0-10.882-6.268-10.882-14z" fill="#ffdc5d"/><path d="m28.938 19.604c-.318-3.275-3.915-4.767-7.122-4.767-3.367 0-7.349-2.092-8.506-2.743l-2.604 2.603c-.49.49-.986.891-1.425 1.245-1.201.969-2.068 1.669-2.224 3.526l-.95-.08c.19-2.262 1.349-3.198 2.575-4.188.44-.355.896-.723 1.35-1.177l3.125-3.125.319.191c.047.028 4.703 2.793 8.339 2.793 3.624 0 7.696 1.762 8.071 5.629z" fill="#ffac33"/><path d="m3.064 24c-.03-.325-.064-.647-.064-1 0-5 3 .562 3-3 0-3.563 2-4 4-6l3-3s5 3 9 3 8 2 8 6 3-2 3 3c0 .355-.033.673-.058 1h1.049c.009-1.477.009-3.132.009-5 0-13-10-18-16-18s-16 5-16 18c0 1.158-.028 2.986.012 5z" fill="#ffe51e"/><path d="m18 30c-2.347 0-3.575-1.16-3.707-1.293-.391-.391-.391-1.023 0-1.414.387-.387 1.013-.39 1.404-.01.051.047.806.717 2.303.717 1.519 0 2.273-.69 2.305-.719.398-.373 1.027-.362 1.408.029.379.393.38 1.011-.006 1.397-.132.133-1.36 1.293-3.707 1.293z" fill="#df1f32"/><path d="m19 25h-2c-.552 0-1-.447-1-1s.448-1 1-1h2c.553 0 1 .447 1 1s-.447 1-1 1z" fill="#c1694f"/><path d="m13 22c-.552 0-1-.447-1-1v-2c0-.552.448-1 1-1s1 .448 1 1v2c0 .553-.448 1-1 1zm10 0c-.553 0-1-.447-1-1v-2c0-.552.447-1 1-1s1 .448 1 1v2c0 .553-.447 1-1 1z" fill="#662113"/></svg>