<svg viewBox="0 0 36 36" xmlns="http://www.w3.org/2000/svg"><path d="m36 18.5c0-1.639-.97-3.004-2.273-3.385-1.36-7.457-7.877-13.115-15.727-13.115s-14.367 5.658-15.727 13.115c-1.303.381-2.273 1.746-2.273 3.385 0 1.736 1.087 3.168 2.51 3.442 1.759 6.926 8.017 12.058 15.49 12.058s13.731-5.132 15.49-12.058c1.422-.274 2.51-1.706 2.51-3.442z" fill="#f3d2a2"/><g fill="#662214"><path d="m18 25c-3 0-4-1-4 1s2 4 4 4 4-2 4-4-1-1-4-1z"/><circle cx="22.5" cy="18.5" r="2.5"/><circle cx="13.5" cy="18.5" r="2.5"/></g><path d="m18 26h2v1s0 1-1 1-1-1-1-1z" fill="#fff"/><path d="m17.982 11h-.031c-1.188 0-2.301-.458-3.135-1.304-.746-.756-1.138-1.787-1.076-2.847.032-.551.49-.96 1.057-.935.551.033.972.508.939 1.06-.029.495.155.983.503 1.336.459.466 1.071.725 1.725.729.653-.036 1.27-.247 1.735-.705 1.298-1.28 1.312-3.378.032-4.677-1.699-1.721-4.48-1.74-6.202-.042-.394.389-1.027.383-1.414-.01-.388-.393-.383-1.026.01-1.414 2.506-2.472 6.557-2.444 9.03.062 2.055 2.084 2.031 5.432-.052 7.486-.836.826-1.945 1.261-3.121 1.261z" fill="#c68f6a"/></svg>