<svg viewBox="0 0 36 36" xmlns="http://www.w3.org/2000/svg"><path d="m18 4c6 0 16 3 16 16s0 16-3 16-7-3-13-3-9.915 3-13 3c-3.343 0-3-12-3-16 0-13 10-16 16-16z" fill="#292f33"/><path d="m6 19.562c0-8.526 5.373-15.438 12-15.438s12 6.912 12 15.438-5.373 15.438-12 15.438-12-6.912-12-15.438z" fill="#f7dece"/><path d="m18 31c-2.347 0-3.575-1.16-3.707-1.293-.391-.391-.391-1.023 0-1.414.387-.388 1.013-.39 1.404-.01.051.047.806.717 2.303.717 1.519 0 2.273-.69 2.305-.719.399-.374 1.027-.363 1.408.029.379.393.38 1.011-.006 1.397-.132.133-1.36 1.293-3.707 1.293z" fill="#df1f32"/><path d="m19 26h-2c-.552 0-1-.447-1-1s.448-1 1-1h2c.553 0 1 .447 1 1s-.447 1-1 1z" fill="#c1694f"/><path d="m3.064 25c-.03-.325-.064-.647-.064-1 0-5 3 .562 3-3 0-3.563 2-4 4-6l3-3s5 3 9 3 8 2 8 6 3-2 3 3c0 .355-.033.673-.058 1h1.049c.009-1.477.009-3.132.009-5 0-13-10-18-16-18s-16 5-16 18c0 1.158-.028 2.986.012 5z" fill="#292f33"/><path d="m8 6h20v-1l-3-1-2-3-3 1-2-2-2 2-3-1-2 3-3 1z" fill="#a7a9ac"/><g fill="#f1f2f2"><ellipse cx="18" cy="3.5" rx="1" ry="1.5"/><circle cx="14" cy="4" r="1"/><circle cx="22" cy="4" r="1"/></g><path d="m13 23c-.552 0-1-.447-1-1v-2c0-.553.448-1 1-1s1 .447 1 1v2c0 .553-.448 1-1 1zm10 0c-.553 0-1-.447-1-1v-2c0-.553.447-1 1-1s1 .447 1 1v2c0 .553-.447 1-1 1z" fill="#662113"/></svg>