<svg viewBox="0 0 36 36" xmlns="http://www.w3.org/2000/svg"><path d="m27 36v-4s0-4 4-4 4 4 4 4v4zm-9 0v-9s0-4 4-4 4 4 4 4v9zm-9 0v-12s0-4 4-4 4 4 4 4v12zm-9 0v-9s0-4 4-4 4 4 4 4v9z" fill="#af7e57"/><path d="m16 24c0-1.657 0-8-3-8s-3 6.343-3 8 1.343 3 3 3 3-1.343 3-3zm-9 3c0-1.657 0-8-3-8s-3 6.343-3 8 1.343 3 3 3 3-1.343 3-3zm18 0c0-1.657 0-8-3-8s-3 6.343-3 8 1.344 3 3 3c1.657 0 3-1.343 3-3zm9 5c0-1.657 0-8-3-8s-3 6.343-3 8 1.344 3 3 3c1.657 0 3-1.343 3-3z" fill="#dd2e44"/><path d="m13 16v4h2s2 0 6-4l-2-2s-2 2-6 2z" fill="#dd2e44"/><g fill="#8899a6"><path d="m19 14 8-8 2 2-8 8z"/><path d="m27 6s-2-2 0-4l2-2h7v5l-3 3c-2 2-4 0-4 0z"/></g></svg>