<svg viewBox="0 0 36 36" xmlns="http://www.w3.org/2000/svg"><path d="m15 22v6c0 1.657 1.343 3 3 3s3-1.343 3-3v-6z" fill="#7c533e"/><path d="m27 27h-18c-2.209 0-4 1.791-4 4v5h26v-5c0-2.209-1.791-4-4-4z" fill="#4289c1"/><path d="m26 32h1v4h-1zm-17 0h1v4h-1z" fill="#2a6797"/><g fill="#7c533e"><path d="m15 22v6c0 1.657 1.343 3 3 3s3-1.343 3-3v-6z"/><path d="m9 5.938v11.062c0 4.971 4.029 9 9 9s9-4.029 9-9v-10.75z"/><path d="m10.847 13.715c0 1.58-.8 2.861-1.788 2.861s-1.788-1.281-1.788-2.861.801-2.861 1.788-2.861 1.788 1.281 1.788 2.861zm17.882 0c0 1.58-.8 2.861-1.788 2.861s-1.788-1.281-1.788-2.861.8-2.861 1.788-2.861 1.788 1.281 1.788 2.861z"/></g><path d="m18 .823c-7.019 0-10.139 4.684-10.139 8.588 0 3.903 1.343 4.986 1.56 3.903.78-3.903 3.12-5.101 3.12-5.101 4.68 3.904 3.9.781 3.9.781 4.679 4.684 2.34 0 2.34 0 1.56 1.562 6.239 1.562 6.239 1.562s.78 1.198 1.559 2.759c.78 1.562 1.56 0 1.56-3.903 0-3.905-3.9-8.589-10.139-8.589z" fill="#0b0200"/><ellipse cx="18" cy="22" fill="#3d2e24" rx="2" ry="1"/><path d="m19 19.5h-2c-.276 0-.5-.224-.5-.5s.224-.5.5-.5h2c.276 0 .5.224.5.5s-.224.5-.5.5z" fill="#3d2e24"/><path d="m28.613 4.397-1.953-1.953-.525.619-3.5-1.271v1.58l-2.63.607c-.603.141-.98.743-.841 1.347.138.604.742.98 1.345.841l3.579-.825 1.79 1.791c.3.3.802.581 1.329.751l.678 5.586s0 .875.875.875.875-.875.875-.875v-7z" fill="#583529"/><path d="m28.957 4.053-1.953-1.953-.525-2.1h-3.5v3.027l-2.63.607c-.603.141-.98.743-.841 1.347.138.604.742.98 1.345.841l3.579-.825 1.79 1.791c.3.3.802.581 1.329.751l.678 5.586s0 .875.875.875.875-.875.875-.875v-7z" fill="#7c533e"/><path d="m7.387 4.397 1.953-1.953.525.619 3.5-1.396v1.705l2.63.607c.603.141.98.743.841 1.347-.138.604-.742.98-1.345.841l-3.579-.825-1.79 1.791c-.3.3-.802.581-1.329.751l-.678 5.586s0 .875-.875.875-.875-.875-.875-.875v-7z" fill="#583529"/><path d="m7.043 4.053 1.953-1.953.525-2.1h3.5v3.027l2.63.607c.603.141.98.743.841 1.347-.138.604-.742.98-1.345.841l-3.579-.825-1.79 1.791c-.3.3-.802.581-1.329.751l-.678 5.586s0 .875-.875.875-.875-.875-.875-.875v-7z" fill="#7c533e"/><path d="m23.906 15.056c-.088-.071-.213-.074-.305-.007-.006.005-.63.451-1.851.451-1.22 0-1.845-.446-1.85-.45-.091-.068-.217-.067-.306.004s-.119.193-.073.297c.03.068.751 1.649 2.229 1.649 1.479 0 2.199-1.581 2.229-1.648.046-.104.016-.225-.073-.296zm-7.5 0c-.088-.071-.213-.074-.305-.007-.006.005-.63.451-1.851.451-1.22 0-1.845-.446-1.85-.45-.091-.068-.217-.067-.306.004s-.119.193-.073.297c.03.068.751 1.649 2.229 1.649 1.479 0 2.199-1.581 2.229-1.648.045-.104.016-.225-.073-.296z"/></svg>