<svg viewBox="0 0 36 36" xmlns="http://www.w3.org/2000/svg"><path d="m30.169 8.15-14.849 14.85s-.707-2.121.707-3.535l12.728-12.729z" fill="#9aaab4"/><path d="m28.755 6.736c-1.952 1.953-2.586 4.484-1.414 5.656s3.705.539 5.657-1.414c1.952-1.952 2.586-4.484 1.414-5.656s-3.704-.539-5.657 1.414zm1.414 1.414c1.172-1.172 2.438-1.805 2.829-1.414.392.391-.243 1.656-1.415 2.828-1.171 1.172-2.437 1.805-2.828 1.414-.391-.39.243-1.656 1.414-2.828z" fill="#67757f"/><path d="m19.629 11.361c.178-4.812-2.645-8.456-7.723-10.099-2.02-.654-6.772-.475-7.96 1.069-1.314.026-2.722.549-3.946 1.421v8.248l15.399 10.066c1.147-.887 2.038-2.083 2.713-3.528 2.161 2.293 4.888 1.909 4.888 1.909-3.709-2.863-3.371-9.086-3.371-9.086z" fill="#ffe51e"/><path d="m20.61 29.303c-.64-1.357-2.01-2.303-3.61-2.303h-17v9h21v-5c0-.609-.147-1.18-.39-1.697z" fill="#fa743e"/><path d="m16 32h1v4h-1z" fill="#dd551f"/><path d="m15.909 11.701c-.677-.938-1.544-1.693-3.445-1.96.713.327 1.396 1.455 1.485 2.079s.178 1.129-.386.505c-2.261-2.499-4.723-1.515-7.163-3.041-1.705-1.067-2.223-2.246-2.223-2.246s-.208 1.574-2.792 3.178c-.452.28-.947.792-1.385 1.469v9.39c1.042 2.02 2.834 3.598 5 4.38v2.545c0 1.657 1.343 3 3 3s3-1.343 3-3v-2.539c1.795-.651 3.333-1.852 4.399-3.395 1.007-1.458 1.601-3.209 1.601-5.066 0-3.041-.318-4.229-1.091-5.299z" fill="#f3d2a2"/><path d="m12 22h-8s1 2 4 2 4-2 4-2zm-3-2.5h-2c-.276 0-.5-.224-.5-.5s.224-.5.5-.5h2c.276 0 .5.224.5.5s-.224.5-.5.5z" fill="#c1694f"/><path d="m4 16c-.552 0-1-.448-1-1v-1c0-.552.448-1 1-1s1 .448 1 1v1c0 .552-.448 1-1 1zm8 0c-.552 0-1-.448-1-1v-1c0-.552.448-1 1-1s1 .448 1 1v1c0 .552-.448 1-1 1z" fill="#662113"/><path d="m24 6v21s2-1 2-3v-18z" fill="#9aaab4"/><g fill="#67757f"><circle cx="25" cy="12" r="1"/><path d="m23 1c-1.657 0-3 2.239-3 5s1.343 5 3 5 3-2.239 3-5-1.343-5-3-5zm0 8c-.553 0-1-1.343-1-3s.447-3 1-3 1 1.343 1 3-.447 3-1 3z"/></g></svg>