<svg viewBox="0 0 36 36" xmlns="http://www.w3.org/2000/svg"><g fill="#ffac33"><ellipse cx="18.001" cy="19.656" rx="12" ry="12" transform="matrix(.16020853 -.98708319 .98708319 .16020853 -4.285861 34.274439)"/><circle cx="13.001" cy="8" r="7"/><circle cx="19.001" cy="11" r="11"/><path d="m30.001 20h-24v-12l24 3z"/></g><path d="m27.001 27h-18c-2.209 0-4 1.791-4 4v5h26v-5c0-2.209-1.791-4-4-4z" fill="#9268ca"/><path d="m26.001 32h1v4h-1zm-17 0h1v4h-1z" fill="#7450a8"/><path d="m15.001 22v6c0 1.657 1.343 3 3 3s3-1.343 3-3v-6z" fill="#ffdc5d"/><path d="m14.001 5s-.003 5.308-5 5.936v6.064c0 4.971 4.029 9 9 9s9-4.029 9-9v-5.019c-11.111-.376-13-6.981-13-6.981z" fill="#ffdc5d"/><ellipse cx="18.001" cy="22" fill="#df1f32" rx="2" ry="1"/><path d="m19.001 19.5h-2c-.276 0-.5-.224-.5-.5s.224-.5.5-.5h2c.276 0 .5.224.5.5s-.224.5-.5.5z" fill="#c1694f"/><path d="m5.561 5.032 5.189-3.823 1.638-.188v2.839l3.004.693c.689.161 1.119.849.96 1.538-.158.689-.847 1.119-1.536.96l-4.087-.941-2.045 2.045c-.342.343-.916.663-1.517.858l-.774 6.38s0 .999-.999.999-.999-.999-.999-.999v-7.995z" fill="#e39c2f"/><path d="m5.169 4.639 2.231-2.231.599-2.408h4.001v3.468l3 .693c.689.161 1.119.849.96 1.538-.158.689-.847 1.119-1.536.96l-4.088-.942-2.044 2.045c-.343.343-.917.664-1.518.858l-.774 6.381s0 .999-.999.999-.999-.999-.999-.999v-7.996z" fill="#ffdc5d"/><path d="m30.44 5.032-5.846-3.594-.982-.417v2.839l-3.004.693c-.689.161-1.119.849-.96 1.538.158.689.847 1.119 1.536.96l4.088-.942 2.045 2.045c.343.343.916.663 1.518.858l.774 6.38s0 .999.999.999.999-.999.999-.999v-7.994z" fill="#e39c2f"/><path d="m30.833 4.639-2.231-2.231-.6-2.408h-3.998v3.468l-3.003.692c-.689.161-1.119.849-.96 1.538.158.689.847 1.119 1.536.96l4.088-.942 2.045 2.045c.343.343.916.663 1.518.858l.774 6.38s0 .999.999.999c.999.002.999-.997.999-.997v-7.996z" fill="#ffdc5d"/><path d="m23.906 15.056c-.088-.071-.213-.074-.305-.007-.006.005-.63.451-1.851.451-1.22 0-1.845-.446-1.85-.45-.091-.068-.217-.067-.306.004s-.119.193-.073.297c.03.068.751 1.649 2.229 1.649 1.479 0 2.199-1.581 2.229-1.648.046-.104.016-.225-.073-.296zm-7.5 0c-.088-.071-.213-.074-.305-.007-.006.005-.63.451-1.851.451-1.22 0-1.845-.446-1.85-.45-.091-.068-.217-.067-.306.004s-.119.193-.073.297c.03.068.751 1.649 2.229 1.649 1.479 0 2.199-1.581 2.229-1.648.045-.104.016-.225-.073-.296z" fill="#662113"/></svg>