<svg viewBox="0 0 36 36" xmlns="http://www.w3.org/2000/svg"><path d="m27.071 9.929c-.256 0-.512-.098-.707-.293-.391-.391-.391-1.023 0-1.414 0 0 8.802-8.168 9.192-7.778.391.391-7.778 9.192-7.778 9.192-.195.195-.451.293-.707.293z" fill="#ccd6dd"/><path d="m28.839 11.404c-.586.586-1.536.585-2.121 0l-2.121-2.121c-.586-.586-.586-1.536 0-2.122.585-.586 3.817-1.747 4.403-1.161l1 1c.586.585-.575 3.818-1.161 4.404z" fill="#add3e0"/><path d="m17.464 25.606c-.781.781-2.047.781-2.828 0l-4.243-4.242c-.781-.781-.781-2.048 0-2.829l12.021-12.02c.781-.781 2.048-.781 2.828 0l4.243 4.243c.781.781.781 2.047 0 2.829z" fill="#c1e1ea"/><path d="m10.394 21.364c-.781-.781-.781-2.048 0-2.829l12.02-12.02c.781-.781 2.048-.781 2.828 0z" fill="#d2ecf3"/><path d="m7.272 32.971-4.242-4.243 11.777-11.777 4.243 4.241z" fill="#ccd6dd"/><path d="m7.747 35.324c-.585.586-1.536.586-2.122 0l-4.95-4.95c-.586-.586-.585-1.535 0-2.121s1.536-.586 2.122 0l4.95 4.95c.586.585.586 1.535 0 2.121zm10.071-7.243c-.585.586-1.536.586-2.121 0l-7.778-7.777c-.586-.586-.585-1.536 0-2.122s1.536-.586 2.122 0l7.778 7.778c.585.586.585 1.536-.001 2.121z" fill="#99aab5"/><path d="m14.322 14.607-1.042 1.042.04.04 7.035 7.035 1.042-1.042z" fill="#292f33"/><path d="m14.322 14.607-1.042 1.042.04.04 1.374 1.374 1.042-1.042zm8.291 3.333c-.288.288-.288.754 0 1.042l.742.742 1.042-1.042-.742-.742c-.288-.288-.754-.288-1.042 0zm1.875-1.875c-.288.288-.288.754 0 1.042l.742.742 1.042-1.042-.742-.742c-.288-.288-.754-.288-1.042 0zm2.917-1.875c-.288-.288-.755-.288-1.042 0-.288.288-.288.754 0 1.042l.742.742 1.042-1.042z" fill="#66757f"/></svg>