<svg viewBox="0 0 36 36" xmlns="http://www.w3.org/2000/svg"><path d="m35.885 11.833c0-5.45-4.418-9.868-9.867-9.868-3.308 0-6.227 1.633-8.018 4.129-1.791-2.496-4.71-4.129-8.017-4.129-5.45 0-9.868 4.417-9.868 9.868 0 .772.098 1.52.266 2.241 1.37 8.513 10.835 17.494 17.619 19.96 6.783-2.466 16.249-11.447 17.617-19.959.17-.721.268-1.469.268-2.242z" fill="#dd2e44"/><path d="m34.347 23.894-3.824-1.416-1.416-3.824c-.145-.394-.52-.654-.938-.654s-.793.26-.938.653l-1.416 3.824-3.824 1.416c-.393.144-.653.519-.653.938 0 .418.261.793.653.938l3.824 1.416 1.416 3.824c.145.393.52.653.938.653s.793-.261.938-.653l1.416-3.824 3.824-1.416c.392-.145.653-.52.653-.938s-.261-.793-.653-.937zm-23-16.001-2.365-.875-.875-2.365c-.146-.393-.52-.653-.938-.653-.419 0-.793.26-.938.653l-.876 2.365-2.364.875c-.393.146-.653.52-.653.938s.26.792.653.938l2.365.875.875 2.365c.146.393.52.653.938.653s.792-.26.938-.653l.875-2.365 2.365-.875c.393-.146.653-.519.653-.938 0-.418-.26-.792-.653-.938z" fill="#fdcb58"/></svg>