<svg viewBox="0 0 36 36" xmlns="http://www.w3.org/2000/svg"><path d="m16.867 15.734c.625.626 1.64.626 2.266 0l6.232-6.231c.625-.626.625-1.64 0-2.266l-6.232-6.231c-.625-.626-1.64-.626-2.266 0l-6.232 6.231c-.626.626-.626 1.64 0 2.266zm9.631 9.63c.625.626 1.64.626 2.266 0l6.232-6.231c.625-.626.625-1.64 0-2.266l-6.232-6.231c-.625-.626-1.64-.626-2.266 0l-6.232 6.231c-.626.626-.626 1.64 0 2.266zm-1.134 1.134-6.231-6.232c-.626-.626-1.64-.626-2.266 0l-6.231 6.232c-.626.626-.626 1.639 0 2.265l6.231 6.232c.626.625 1.64.625 2.266 0l6.231-6.232c.626-.626.626-1.639 0-2.265zm-9.63-9.63-6.231-6.232c-.626-.626-1.64-.626-2.266 0l-6.231 6.232c-.626.626-.626 1.639 0 2.265l6.231 6.232c.626.625 1.64.625 2.266 0l6.231-6.232c.626-.626.626-1.639 0-2.265z" fill="#55acee"/><path d="m15.734 16.868-3.214-3.215c-.949 1.195-1.52 2.703-1.52 4.347s.571 3.153 1.52 4.347l3.214-3.214c.626-.626.626-1.639 0-2.265zm6.614 6.612-3.215-3.215c-.625-.624-1.64-.624-2.266 0l-3.215 3.215c1.195.949 2.704 1.52 4.348 1.52s3.153-.571 4.348-1.52zm-2.082-4.347 3.215 3.215c.948-1.195 1.519-2.704 1.519-4.348s-.571-3.153-1.52-4.347l-3.215 3.215c-.624.626-.624 1.639.001 2.265zm-1.133-3.399 3.215-3.214c-1.195-.949-2.704-1.52-4.348-1.52s-3.153.571-4.347 1.52l3.215 3.214c.625.626 1.639.626 2.265 0z" fill="#3b88c3"/><circle cx="18" cy="18" fill="#bbddf5" r="5"/></svg>