<svg viewBox="0 0 36 36" xmlns="http://www.w3.org/2000/svg"><path d="m36 18c0 9.941-8.059 18-18 18s-18-8.059-18-18 8.059-18 18-18 18 8.059 18 18zm-18-3c-1.657 0-3 1.343-3 3s1.343 3 3 3 3-1.343 3-3-1.343-3-3-3z" fill="#8899a6"/><path d="m13.288 17.476c.122-1.104.598-2.101 1.343-2.846l-7.945-7.944c-2.504 2.504-4.176 5.835-4.584 9.547zm9.425 1.048c-.122 1.104-.598 2.101-1.343 2.846l7.944 7.944c2.504-2.504 4.176-5.835 4.584-9.547z" fill="#ccd6dd"/><path d="m18.527 22.712 1.251 11.183c3.707-.41 7.034-2.081 9.536-4.582l-7.944-7.944c-.745.744-1.741 1.22-2.843 1.343zm-1.023-9.427-1.179-11.196c-3.749.39-7.114 2.073-9.639 4.598l7.944 7.944c.752-.751 1.759-1.229 2.874-1.346z" fill="#f5f8fa"/></svg>