<svg viewBox="0 0 36 36" xmlns="http://www.w3.org/2000/svg"><path d="m2 11c-2 0-2 2-2 2v21s0 2 2 2h32c2 0 2-2 2-2v-21s0-2-2-2z" fill="#e5a157"/><path d="m2 6c-2 0-2 2-2 2v20s0 2 2 2h32c2 0 2-2 2-2v-20s0-2-2-2z" fill="#ffd983"/><circle cx="25" cy="18" fill="#edb980" r="6.5"/><path d="m33 28.5h-30c-.827 0-1.5-.673-1.5-1.5v-18c0-.827.673-1.5 1.5-1.5h30c.827 0 1.5.673 1.5 1.5v18c0 .827-.673 1.5-1.5 1.5zm-30-20c-.275 0-.5.224-.5.5v18c0 .275.225.5.5.5h30c.275 0 .5-.225.5-.5v-18c0-.276-.225-.5-.5-.5z" fill="#e5a157"/><path d="m14 6h8v24.062h-8z" fill="#ffe8b6"/><path d="m14 30h8v6h-8z" fill="#ffac33"/><path d="m7.238 18.415h-2.374c-.398 0-.709-.19-.709-.57 0-.383.312-.573.709-.573h1.664l-2.772-4.28c-.173-.259-.26-.449-.26-.691 0-.33.33-.573.607-.573.278 0 .554.122.797.485l3.1 4.661 3.102-4.662c.243-.364.52-.485.797-.485.276 0 .605.243.605.573 0 .243-.086.432-.259.691l-2.772 4.28h1.664c.399 0 .711.191.711.573 0 .381-.312.57-.711.57h-2.373v1.229h2.373c.399 0 .711.192.711.573s-.312.571-.711.571h-2.373v2.668c0 .502-.312.815-.763.815s-.762-.313-.762-.815v-2.668h-2.375c-.398 0-.709-.19-.709-.571s.312-.573.709-.573h2.375v-1.228z" fill="#e5a157"/></svg>