<svg viewBox="0 0 36 36" xmlns="http://www.w3.org/2000/svg"><path d="m31 2h-26c-1.657 0-3 1.343-3 3v26c0 1.657 1.343 3 3 3h26c1.657 0 3-1.343 3-3v-26c0-1.657-1.343-3-3-3z" fill="#ccd6dd"/><path d="m31 1h-26c-2.209 0-4 1.791-4 4v26c0 2.209 1.791 4 4 4h26c2.209 0 4-1.791 4-4v-26c0-2.209-1.791-4-4-4zm0 2c1.103 0 2 .897 2 2v4h-6v-6zm-4 16h6v6h-6zm0-2v-6h6v6zm-2-14v6h-6v-6zm-6 8h6v6h-6zm0 8h6v6h-6zm-2-16v6h-6v-6zm-6 8h6v6h-6zm0 8h6v6h-6zm-8-14c0-1.103.897-2 2-2h4v6h-6zm0 6h6v6h-6zm0 8h6v6h-6zm2 14c-1.103 0-2-.897-2-2v-4h6v6zm6 0v-6h6v6zm8 0v-6h6v6zm12 0h-4v-6h6v4c0 1.103-.897 2-2 2z" fill="#e1e8ed"/><path d="m31.002 33c-.721 0-1.416-.39-1.774-1.072l-9.738-18.59-6.076 6.076c-.446.447-1.076.66-1.705.564-.626-.092-1.171-.474-1.47-1.03l-7-13c-.524-.973-.16-2.186.813-2.709.975-.523 2.186-.16 2.709.812l5.726 10.633 6.1-6.099c.45-.45 1.089-.659 1.716-.563.629.096 1.175.485 1.47 1.049l11 21c.513.979.135 2.187-.844 2.699-.297.157-.614.23-.927.23z" fill="#3b94d9"/></svg>