<svg viewBox="0 0 36 36" xmlns="http://www.w3.org/2000/svg"><path d="m32 34c0 1.104-.896 2-2 2h-24c-1.104 0-2-.896-2-2v-27c0-1.104.896-2 2-2h24c1.104 0 2 .896 2 2z" fill="#c1694f"/><path d="m29 32c0 .553-.447 1-1 1h-20c-.552 0-1-.447-1-1v-23c0-.552.448-1 1-1h20c.553 0 1 .448 1 1z" fill="#fff"/><path d="m25 3h-4c0-1.657-1.343-3-3-3s-3 1.343-3 3h-4c-1.104 0-2 .896-2 2v5h18v-5c0-1.104-.896-2-2-2z" fill="#ccd6dd"/><circle cx="18" cy="3" fill="#292f33" r="2"/><path d="m20 14c0 .552-.447 1-1 1h-9c-.552 0-1-.448-1-1s.448-1 1-1h9c.553 0 1 .448 1 1zm7 4c0 .552-.447 1-1 1h-16c-.552 0-1-.448-1-1s.448-1 1-1h16c.553 0 1 .448 1 1zm0 4c0 .553-.447 1-1 1h-16c-.552 0-1-.447-1-1s.448-1 1-1h16c.553 0 1 .447 1 1zm0 4c0 .553-.447 1-1 1h-16c-.552 0-1-.447-1-1s.448-1 1-1h16c.553 0 1 .447 1 1zm0 4c0 .553-.447 1-1 1h-9c-.552 0-1-.447-1-1s.448-1 1-1h9c.553 0 1 .447 1 1z" fill="#99aab5"/></svg>