<svg viewBox="0 0 36 36" xmlns="http://www.w3.org/2000/svg"><path d="m32 13h-28c-2.209 0-4 1.791-4 4v2c0 2.209 1.791 4 4 4v9c0 2.209 1.791 4 4 4h20c2.209 0 4-1.791 4-4v-9c2.209 0 4-1.791 4-4v-2c0-2.209-1.791-4-4-4z" fill="#292f33"/><path d="m30 15c0 1.104-.896 2-2 2h-20c-1.104 0-2-.896-2-2v-13c0-1.105.896-2 2-2h20c1.104 0 2 .896 2 2z" fill="#ccd6dd"/><path d="m18 13c0 .552-.447 1-1 1h-8c-.552 0-1-.448-1-1v-10c0-.552.448-1 1-1h8c.553 0 1 .448 1 1z" fill="#55acee"/><path d="m30 32c0 1.104-.896 2-2 2h-20c-1.104 0-2-.896-2-2v-11c0-1.104.896-2 2-2h20c1.104 0 2 .896 2 2z" fill="#ccd6dd"/><path d="m28 4c0 .552-.447 1-1 1h-6c-.553 0-1-.448-1-1s.447-1 1-1h6c.553 0 1 .448 1 1zm0 4c0 .552-.447 1-1 1h-6c-.553 0-1-.448-1-1s.447-1 1-1h6c.553 0 1 .448 1 1zm0 4c0 .552-.447 1-1 1h-6c-.553 0-1-.448-1-1s.447-1 1-1h6c.553 0 1 .448 1 1z" fill="#66757f"/><path d="m14 20c0 .553-.448 1-1 1s-1-.447-1-1v-4c0-.553.448-1 1-1s1 .447 1 1zm10 0c0 .553-.447 1-1 1s-1-.447-1-1v-4c0-.553.447-1 1-1s1 .447 1 1z" fill="#99aab5"/></svg>