<svg viewBox="0 0 36 36" xmlns="http://www.w3.org/2000/svg"><path d="m30.415 9.586-9-9c-.361-.361-.862-.586-1.415-.586-1.104 0-1.999.896-2 2 0 .552.224 1.053.586 1.415l-3.859 3.859 9 9 3.859-3.859c.362.361.862.585 1.414.585 1.104 0 2.001-.896 2-2 0-.552-.224-1.052-.585-1.414z" fill="#e1e8ed"/><path d="m20 0h-15c-2.209 0-4 1.791-4 4v28c0 2.209 1.791 4 4 4h22c2.209 0 4-1.791 4-4v-21h-9c-1 0-2-1-2-2z" fill="#ccd6dd"/><path d="m20 0h-2v9c0 2.209 1.791 4 4 4h9v-2h-9c-1 0-2-1-2-2zm-5 8c0 .552-.448 1-1 1h-8c-.552 0-1-.448-1-1s.448-1 1-1h8c.552 0 1 .448 1 1zm0 4c0 .552-.448 1-1 1h-8c-.552 0-1-.448-1-1s.448-1 1-1h8c.552 0 1 .448 1 1zm12 4c0 .552-.447 1-1 1h-20c-.552 0-1-.448-1-1s.448-1 1-1h20c.553 0 1 .448 1 1zm0 4c0 .553-.447 1-1 1h-20c-.552 0-1-.447-1-1s.448-1 1-1h20c.553 0 1 .447 1 1zm0 4c0 .553-.447 1-1 1h-20c-.552 0-1-.447-1-1s.448-1 1-1h20c.553 0 1 .447 1 1zm0 4c0 .553-.447 1-1 1h-20c-.552 0-1-.447-1-1s.448-1 1-1h20c.553 0 1 .447 1 1z" fill="#99aab5"/><path d="m31 19s-5.906-.002-5.935 0c-.291 0-.91.174-1.255.606l-2.328 2.929c-.644.809-.644 2.119 0 2.93l2.328 2.929c.345.432.964.606 1.255.606.019.002 3.547 0 5.935 0z" fill="#66757f"/><path d="m33 19s-8.056-.002-8.084 0c-.291 0-.91.139-1.255.485l-2.328 2.342c-.643.647-.643 1.695 0 2.344l2.328 2.342c.345.346.964.487 1.255.487.028.002 8.084 0 8.084 0 1.104 0 2-.897 2-2.001v-3.999c0-1.104-.896-2-2-2z" fill="#744eaa"/></svg>