<svg viewBox="0 0 36 36" xmlns="http://www.w3.org/2000/svg"><path d="m12.908 30.75c-.276 2.209-2.291 3-4.5 3s-3.776-1.791-3.5-4l1-9c.276-2.209 2.291-4 4.5-4s6.468 0 3.5 4-1 10-1 10z" fill="#be1931"/><path d="m35.825 14.75c0 6.902-1.544 12.5-3.45 12.5-1.905 0-20.45-5.598-20.45-12.5 0-6.903 18.545-12.5 20.45-12.5 1.906 0 3.45 5.597 3.45 12.5z" fill="#ccd6dd"/><ellipse cx="32.375" cy="14.75" fill="#66757f" rx="3.45" ry="12.5"/><path d="m17.925 21.75-14-1c-5 0-5-12 0-12l14-1c-3 3-3 11 0 14z" fill="#dd2e44"/><ellipse cx="31.325" cy="14.75" fill="#99aab5" rx="1.5" ry="4.348"/></svg>