<svg viewBox="0 0 36 36" xmlns="http://www.w3.org/2000/svg"><g fill="#31373d"><path d="m35 31s0 4-4 4h-26c-4 0-4-4-4-4v-19c0-4 4-4 4-4h26s4 0 4 4z"/><path d="m21.303 10.389c.391.391.391 1.023 0 1.414s-1.023.391-1.414 0l-9.192-9.192c-.391-.391-.391-1.023 0-1.414s1.023-.391 1.414 0z"/><path d="m14.697 10.389c-.391.391-.391 1.023 0 1.414s1.023.391 1.414 0l9.192-9.192c.391-.391.391-1.023 0-1.414s-1.023-.391-1.414 0z"/></g><path d="m18 11c8 0 10 1 11 2s2 3 2 8-1 7-2 8-3 2-11 2-10-1-11-2-2-3-2-8 1-7 2-8 3-2 11-2z" fill="#55acee"/><circle cx="31.5" cy="31.5" fill="#66757f" r="1.5"/><circle cx="4.5" cy="31.5" fill="#66757f" r="1.5"/></svg>