<svg viewBox="0 0 36 36" xmlns="http://www.w3.org/2000/svg"><path d="m33 36h-29c4 0 3-9 3-9 0-2.209 1.791-15 4-15h21s4 0 4 4v17s0 3-3 3z" fill="#99aab5"/><path d="m30 33c0 3 3 3 3 3h-30s-3 0-3-4v-28c0-2.209 1.791-4 4-4h22c2.209 0 4 1.791 4 4z" fill="#ccd6dd"/><path d="m27 20c0 .553-.447 1-1 1h-8c-.552 0-1-.447-1-1s.448-1 1-1h8c.553 0 1 .447 1 1zm0-4c0 .553-.447 1-1 1h-8c-.552 0-1-.447-1-1s.448-1 1-1h8c.553 0 1 .447 1 1zm0-4c0 .553-.447 1-1 1h-8c-.552 0-1-.447-1-1s.448-1 1-1h8c.553 0 1 .447 1 1zm0 12c0 .553-.447 1-1 1h-22c-.552 0-1-.447-1-1s.448-1 1-1h22c.553 0 1 .447 1 1zm0 4c0 .553-.447 1-1 1h-22c-.552 0-1-.447-1-1s.448-1 1-1h22c.553 0 1 .447 1 1zm0 4c0 .553-.447 1-1 1h-22c-.552 0-1-.447-1-1s.448-1 1-1h22c.553 0 1 .447 1 1zm-2-23s2 0 2-2v-2s0-2-2-2h-20s-2 0-2 2v2s0 2 2 2z" fill="#99aab5"/><path d="m13 21s2 0 2-2v-6s0-2-2-2h-8s-2 0-2 2v6s0 2 2 2z" fill="#55acee"/></svg>