<svg viewBox="0 0 36 36" xmlns="http://www.w3.org/2000/svg"><g fill="#ffac33"><path d="m18 8c-5.523 0-10 4.477-10 10s4.477 10 10 10 10-4.477 10-10-4.477-10-10-10zm0 16c-3.314 0-6-2.685-6-6 0-3.313 2.686-6 6-6s6 2.687 6 6c0 3.315-2.687 6-6 6z"/><circle cx="18" cy="5" r="2"/><circle cx="18" cy="31" r="2"/><path d="m10.222 7.394c-.781-.781-2.047-.781-2.828 0s-.781 2.047 0 2.829c.781.781 2.047.781 2.828 0 .781-.782.781-2.048 0-2.829zm18.384 18.384c.781.78.781 2.048 0 2.828-.781.781-2.047.78-2.828 0-.781-.781-.781-2.047 0-2.828.782-.78 2.047-.781 2.828 0z"/><circle cx="5" cy="18" r="2"/><circle cx="31" cy="18" r="2"/><path d="m28.605 10.222c.781-.781.781-2.047.001-2.828-.781-.781-2.048-.781-2.829 0-.78.781-.781 2.047 0 2.828.782.781 2.048.781 2.828 0zm-18.383 18.384c-.781.781-2.047.781-2.828 0s-.781-2.047 0-2.828 2.047-.781 2.828 0c.78.782.781 2.047 0 2.828z"/></g></svg>