<svg viewBox="0 0 36 36" xmlns="http://www.w3.org/2000/svg"><path d="m30 32.7c0 1.657-5.373 3.3-12 3.3s-12-1.643-12-3.3 5.373-2.7 12-2.7 12 1.043 12 2.7z" fill="#77b255"/><path d="m6 3h24v29.7h-24z" fill="#77b255"/><ellipse cx="18" cy="3" fill="#5c913b" rx="12" ry="3"/><path d="m21.956 12.788c.091.544-.321 1.066-.922 1.136-.676.079-1.355.121-2.035.147v1.929a1 1 0 0 1 -2 0v-1.93a26.188 26.188 0 0 1 -2.035-.147c-.601-.07-1.012-.591-.922-1.136a1.042 1.042 0 0 1 1.152-.851c.6.07 1.202.109 1.804.133v-2.069a1 1 0 0 1 2 0v2.07a24.781 24.781 0 0 0 1.804-.133 1.042 1.042 0 0 1 1.154.851zm-1.652 17.746a21.119 21.119 0 0 1 -4.607 0 1.048 1.048 0 0 0 -1.153.854c-.091.544.326 1.067.934 1.134 1.676.184 3.368.184 5.044 0 .609-.067 1.026-.59.934-1.134a1.047 1.047 0 0 0 -1.152-.854z" fill="#fff"/><ellipse cx="18" cy="3" fill="#ccd6dd" rx="10" ry="2"/><path d="m14 1v1.5c0 .552 1.791 1 4 1s4-.448 4-1v-1.5z" fill="#99aab5"/><ellipse cx="18" cy="1" fill="#ccd6dd" rx="4" ry="1"/></svg>