<svg viewBox="0 0 36 36" xmlns="http://www.w3.org/2000/svg"><path d="m36 32c0 2.209-1.791 4-4 4h-28c-2.209 0-4-1.791-4-4v-28c0-2.209 1.791-4 4-4h28c2.209 0 4 1.791 4 4z" fill="#3b88c3"/><path d="m7.213 10.975h-1.958c-1.592 0-2.255-1.161-2.255-2.289 0-1.16.829-2.288 2.255-2.288h4.71c1.426 0 2.223 1.028 2.223 2.354v18.875c0 1.658-1.062 2.586-2.488 2.586s-2.487-.928-2.487-2.586zm7.967 7.231c0-5.407 2.09-12.206 8.79-12.206s8.791 6.799 8.791 12.206c0 5.406-2.091 12.207-8.791 12.207s-8.79-6.801-8.79-12.207zm12.406 0c0-2.521-.232-7.696-3.616-7.696-3.383 0-3.615 5.175-3.615 7.696 0 2.355.232 7.695 3.615 7.695 3.384 0 3.616-5.339 3.616-7.695z" fill="#f5f8fa"/></svg>