<svg viewBox="0 0 36 36" xmlns="http://www.w3.org/2000/svg"><circle cx="17" cy="20" fill="#9aaab4" r="3"/><path d="m19.235 17.059c-.259.485-.868.671-1.353.412l-12.353-6.588c-.485-.259-.67-.868-.412-1.353l2.823-5.295c.259-.485.868-.67 1.353-.412l12.353 6.588c.485.259.671.868.412 1.353z" fill="#da2f47"/><path d="m31.177 22.293c-.259.485-.868.671-1.354.412l-9.705-5.176c-.485-.259-.671-.868-.412-1.354l1.882-3.529c.259-.485.868-.67 1.354-.412l9.705 5.176c.485.259.671.868.412 1.354z" fill="#da2f47"/><path d="m19.235 17.058 2.824-5.293 1.765.941-2.825 5.294z" fill="#bb1a34"/><path d="m28.942 22.235 2.823-5.294 3.53 1.882-2.824 5.294z" fill="#9d0522"/><path d="m8.294 7.824 1.882-3.53-.881-.47v-.001l-4.413-2.352c-.485-.259-1.094-.074-1.353.411l-2.823 5.295c-.259.486-.074 1.094.412 1.353l3.529 1.882 1.766.941.47-.882zm14.706 17.176c0 1.104-.896 2-2 2h-8c-1.104 0-2-.896-2-2s.896-2 2-2h8c1.104 0 2 .896 2 2z" fill="#292f33"/><path d="m9.467 36 3.344-7.152c.468-1 .036-2.191-.965-2.658-1-.469-2.191-.037-2.658.965l-4.136 8.845zm15.065 0h4.416l-4.137-8.846c-.467-1.002-1.658-1.434-2.658-.965-1.001.467-1.433 1.658-.965 2.658zm-5.532 0v-8c0-1.104-.896-2-2-2s-2 .896-2 2v8z" fill="#9aaab4"/></svg>