<svg viewBox="0 0 36 36" xmlns="http://www.w3.org/2000/svg"><path d="m23 17 1-1s1-1 2 0l2 2s1 1 0 2l-1 1z" fill="#66757f"/><path d="m34.879 27.879c1.166 1.166 1.166 3.076 0 4.242l-2.758 2.758c-1.166 1.166-3.076 1.166-4.242 0l-18.758-18.758c-1.167-1.166-1.167-3.076 0-4.242l2.758-2.758c1.167-1.167 3.076-1.167 4.242 0z" fill="#8899a6"/><path d="m20.879 10.879c1.166 1.167 1.166 3.076 0 4.242l-5.758 5.758c-1.167 1.166-3.076 1.166-4.242 0l-4.879-4.879s-1-1 0-2l8-8c1-1 2 0 2 0z" fill="#66757f"/><path d="m7 17 10-10 2 2-10 10z" fill="#8899a6"/><path d="m11.001 6c-.367 0-.72-.202-.896-.553l-2-4c-.247-.494-.046-1.094.448-1.342.495-.248 1.095-.047 1.342.447l2 4c.247.494.047 1.095-.447 1.342-.144.072-.297.106-.447.106zm-6.002 6c-.15 0-.303-.034-.446-.106l-4-2c-.494-.247-.695-.847-.448-1.341s.847-.695 1.342-.447l4 2c.494.247.694.848.447 1.342-.175.35-.528.552-.895.552zm3.001-3c-.256 0-.512-.098-.707-.293l-4-4c-.391-.391-.391-1.023 0-1.414s1.023-.391 1.414 0l4 4c.391.391.391 1.023 0 1.414-.195.195-.451.293-.707.293z" fill="#ffcc4d"/></svg>