<svg viewBox="0 0 36 36" xmlns="http://www.w3.org/2000/svg"><path d="m23 4.326c0 4.368-9.837 6.652-9.837 13.206 0 2.184 1.085 4.468 2.177 4.468h15.291c1.093 0 2.192-2.284 2.192-4.468 0-6.555-9.823-8.838-9.823-13.206z" fill="#f4900c"/><path d="m35 33.815c0 1.207-.289 2.185-2.185 2.185h-19.66c-1.895 0-2.155-.978-2.155-2.185v-10.921c0-1.206.26-1.894 2.156-1.894h19.66c1.895 0 2.184.688 2.184 1.894z" fill="#ffd983"/><path d="m23 34c0 1.104-.896 2-2 2h-18c-1.104 0-2-.896-2-2v-1c0-1.104.896-2 2-2h18c1.104 0 2 .896 2 2z" fill="#ffd983"/><path d="m26 29c0-3-1.896-5-3-5s-3 2-3 5v7h6zm-8 2.333c0-2-1.264-3.333-2-3.333s-2 1.333-2 3.333v4.667h4zm14 0c0-2-1.264-3.333-2-3.333s-2 1.333-2 3.333v4.667h4z" fill="#662113"/><path d="m9 34c0 1.104-.896 2-2 2h-2c-1.104 0-2-.896-2-2v-26c0-1.104.896-2 2-2h2c1.104 0 2 .896 2 2z" fill="#ffd983"/><path d="m5.995.326c0 1.837-2.832 2.918-2.832 5.675 0 .919.312 2 .627 2h4.402c.314 0 .631-1.081.631-2 0-2.757-2.828-3.838-2.828-5.675z" fill="#f4900c"/><path d="m10 12c0 .552-.448 1-1 1h-6c-.552 0-1-.448-1-1s.448-1 1-1h6c.552 0 1 .448 1 1zm0-4c0 .552-.448 1-1 1h-6c-.552 0-1-.448-1-1s.448-1 1-1h6c.552 0 1 .448 1 1z" fill="#ffac33"/></svg>