<svg viewBox="0 0 36 36" xmlns="http://www.w3.org/2000/svg"><path d="m.794 16.112c1 0 5.875 1.344 6.5 2.312l-1.281-.124s-3.906-1.25-4.906-1.25c-1.001 0-.313-.938-.313-.938z" fill="#5c913b"/><path d="m11 2c1 1 3 7 3 10s-2 6 2 8 5.001-1 5.001-5-1.001-8-2.001-10-2 0-2 0-1-4-2-4-1 2-1 2-2-2-3-2 0 1 0 1z" fill="#99aab5"/><path d="m10 15c3 0 4 4 6 4s1-3 3-3 10-5 10-11 3-3 3-1c1 0 2 1.586 2 3 0 1 0 2-1 3 1 0 2 2 1 3 1 3-1 6-3 7 0 1-2 3-4 2 0 0-1 3-3 2 0 0 3.052 1.684 4 2 3 1 7 1 7 1s0 1-2 2c0 0 1 1 0 2s-2 1-2 1 1 2-2 1-6-4-6-4-5 1-9-1-6-6-6-8-3-1-4-1 2-2 3-2c0 0 0-2 3-2z" fill="#ccd6dd"/><g fill="#5c913b"><path d="m6.95 18.019s5.438 2.625 7.938 6.656c1.9 3.064 2.782 8.656 2.782 8.656s.043.564-.907-2.281c-1-3-2.217-6.288-4.312-8.188-3.344-3.031-4.75-3.5-6.062-4.25-.332-.189.217-.687.561-.593z"/><path d="m16.198 28.54s2.038.103 3.107 2.139c1.068 2.036-.053 4.914-.053 4.914s-2.75-1.268-3.462-2.947c-.712-1.68.408-4.106.408-4.106zm-2.133-4.778s1.274 1.437 3.558 1.705c2.284.269 4.121-1.379 4.121-1.379s-2.144-1.97-3.968-2.033c-1.823-.065-3.711 1.707-3.711 1.707zm-4.047-3.148s-2.015.329-2.85 2.472.425 4.01.425 4.01 2.534-.848 3.055-2.597c.521-1.747-.63-3.885-.63-3.885z"/></g></svg>