<svg viewBox="0 0 36 36" xmlns="http://www.w3.org/2000/svg"><g fill="#31373d"><path d="m14.999 17c-.208 0-.419-.065-.599-.2-4.537-3.403-7.441-9.215-7.4-14.807.004-.553.412-.975 1.007-.993.553.004.997.455.993 1.007-.037 4.98 2.554 10.159 6.6 13.193.442.331.531.958.2 1.4-.196.262-.497.4-.801.4z"/><path d="m16 19c-.377 0-9.273-.098-12.919-8.606-.218-.508.018-1.096.525-1.313.508-.218 1.096.018 1.313.525 3.133 7.31 10.758 7.394 11.081 7.394.552 0 1 .448 1 1 0 .553-.448 1-1 1z"/><path d="m4 29c-.104 0-.211-.017-.316-.052-.524-.174-.807-.74-.632-1.265 1.388-4.164 4.719-9.054 12.71-8.692.102.005.183.009.238.009.552 0 1 .447 1 1s-.448 1-1 1c-.076 0-.187-.005-.328-.011-5.411-.237-9.021 2.222-10.723 7.327-.14.419-.53.684-.949.684z"/><path d="m8 36c-.552 0-1-.447-1-1 0-4.495 3.228-12.703 8.485-15.857.474-.284 1.088-.131 1.372.343s.131 1.088-.343 1.372c-4.517 2.71-7.514 10.307-7.514 14.142 0 .553-.448 1-1 1zm13.001-19c-.305 0-.604-.138-.801-.4-.332-.442-.242-1.069.2-1.4 4.046-3.035 6.637-8.213 6.6-13.193-.004-.552.44-1.003.992-1.007h.008c.549 0 .996.443 1 .993.042 5.592-2.863 11.404-7.4 14.807-.18.135-.39.2-.599.2z"/><path d="m20 19c-.553 0-1-.447-1-1 0-.552.447-1 1-1 .323 0 7.948-.084 11.081-7.394.218-.507.808-.742 1.312-.525.508.217.743.805.525 1.313-3.646 8.508-12.541 8.606-12.918 8.606z"/><path d="m32 29c-.419 0-.809-.265-.948-.684-1.702-5.105-5.293-7.559-10.724-7.327-.141.006-.252.011-.328.011-.553 0-1-.447-1-1s.447-1 1-1c.055 0 .136-.004.238-.009 7.979-.36 11.323 4.528 12.71 8.692.175.524-.108 1.091-.632 1.265-.105.035-.212.052-.316.052z"/><path d="m28 36c-.553 0-1-.447-1-1 0-3.835-2.997-11.432-7.515-14.143-.474-.284-.627-.898-.343-1.372.284-.473.897-.627 1.372-.343 5.257 3.155 8.486 11.363 8.486 15.858 0 .553-.447 1-1 1z"/><ellipse cx="18" cy="25.208" rx="6" ry="6.792"/><ellipse cx="18" cy="17" rx="4" ry="6"/><path d="m16 14c-.256 0-.512-.098-.707-.293-1.293-1.293-1.293-2.631-1.293-3.707 0-.552.448-1 1-1s1 .448 1 1c0 .92 0 1.586.707 2.293.391.391.391 1.023 0 1.414-.195.195-.451.293-.707.293zm4 0c-.256 0-.512-.098-.707-.293-.391-.391-.391-1.023 0-1.414.707-.707.707-1.373.707-2.293 0-.552.447-1 1-1s1 .448 1 1c0 1.076 0 2.414-1.293 3.707-.195.195-.451.293-.707.293z"/></g></svg>