<svg viewBox="0 0 36 36" xmlns="http://www.w3.org/2000/svg"><path d="m16 9h4v17h-4z" fill="#99aab5"/><path d="m10 24.5c0 .828-.672 1.5-1.5 1.5h-3c-.828 0-1.5-.672-1.5-1.5s.672-1.5 1.5-1.5h3c.828 0 1.5.672 1.5 1.5z" fill="#da2f47"/><path d="m34 33c0 1.104-.896 2-2 2h-28c-1.104 0-2-.896-2-2v-6c0-1.104.896-2 2-2h28c1.104 0 2 .896 2 2z" fill="#31373d"/><path d="m10 34.5c0 .828-.671 1.5-1.5 1.5h-3c-.829 0-1.5-.672-1.5-1.5s.671-1.5 1.5-1.5h3c.829 0 1.5.672 1.5 1.5zm22 0c0 .828-.672 1.5-1.5 1.5h-3c-.828 0-1.5-.672-1.5-1.5s.672-1.5 1.5-1.5h3c.828 0 1.5.672 1.5 1.5z" fill="#31373d"/><circle cx="18" cy="7" fill="#da2f47" r="5"/><path d="m25 26c0 1.104-.896 2-2 2h-10c-1.104 0-2-.896-2-2v-1c0-1.104 3.896-6 5-6h4c1.104 0 5 4.896 5 6z" fill="#31373d"/><path d="m33 28c0 .553-.447 1-1 1h-28c-.552 0-1-.447-1-1s.448-1 1-1h28c.553 0 1 .447 1 1z" fill="#66757f"/></svg>