<svg viewBox="0 0 36 36" xmlns="http://www.w3.org/2000/svg"><path d="m17.983.717c1.747 0 4.658.873 4.658 4.657s0 4.657-.873 4.657-2.038-.873-3.785-.873-2.886.873-3.785.873c-.973 0-.873-3.492-.873-4.657 0-3.783 2.912-4.657 4.658-4.657z" fill="#963b22"/><path d="m14.49 5.247c0-2.481 1.564-4.493 3.494-4.493 1.929 0 3.494 2.012 3.494 4.493s-1.564 4.493-3.494 4.493-3.494-2.012-3.494-4.493z" fill="#d4ab88"/><path d="m13.635 6.829c-.009-.095-.019-.188-.019-.291 0-1.455.873.164.873-.873s.582-1.164 1.165-1.746l.873-.873s1.456.873 2.62.873 2.329.582 2.329 1.746.873-.582.873.873c0 .103-.01.196-.017.291h.305c.003-.43.003-.911.003-1.455 0-3.783-2.911-5.239-4.658-5.239s-4.658 1.455-4.658 5.239c0 .337-.008.869.004 1.455z" fill="#963b22"/><path d="m24.06 18.732c0 .559-.453 1.012-1.012 1.012s-1.012-.453-1.012-1.012v-2.589c0-.559 1.012-1.012 1.012-1.012.559 0 1.012.453 1.012 1.012zm-12.156 0c0 .559.453 1.012 1.012 1.012s1.012-.453 1.012-1.012v-2.839c0-.559-1.012-1.012-1.012-1.012-.559 0-1.012.453-1.012 1.012z" fill="#d4ab88"/><path d="m20.741 29.785c-.184-.513-.711-.764-1.55-.764-1.209 0-1.429.713-1.429 1.11 0 1.512 1.077 2.584 1.498 2.584.44 0 1.93-1.678 1.481-2.93z" fill="#dd2f45"/><path d="m15.223 29.785c.184-.513.711-.764 1.55-.764 1.209 0 1.429.713 1.429 1.11 0 1.512-1.077 2.584-1.498 2.584-.44 0-1.93-1.678-1.481-2.93z" fill="#dd2f45"/><path d="m20.225 29.562c0 .559-.453 1.012-1.012 1.012s-1.012-.453-1.012-1.012v-7.947c0-.559.453-1.012 1.012-1.012s1.012.453 1.012 1.012zm-2.523 0c0 .559-.453 1.012-1.012 1.012s-1.012-.453-1.012-1.012v-7.947c0-.559.453-1.012 1.012-1.012s1.012.453 1.012 1.012z" fill="#d4ab88"/><path d="m19.282 7.93c-.015-.025-.043-.041-.073-.041h-2.453c-.03 0-.058.015-.073.041-.015.025-.017.057-.003.084.015.029.372.704 1.303.704s1.288-.676 1.303-.704c.013-.027.011-.059-.004-.084z" fill="#de2032"/><path d="m17.982 6.77c-.269 0-.478-.048-.646-.122.055.198.21.474.646.474s.59-.276.646-.474c-.168.073-.377.122-.646.122z" fill="#c16a4f"/><ellipse cx="17.982" cy="34.833" fill="#98a9b4" rx="6" ry="1"/><path d="m20.478 24.992c2.209-5.322.594-7.213.594-7.213l-6.216-.006s-1.531 1.537.59 7.219z" fill="#8899a6"/><path d="m17.982 10c-6.625 0-6.228 6.853-6.228 6.853h2.285c0-2.186.839-3.145.839-3.145l.432 3.288-.436.782s1.041.569 3.108.569 3.108-.569 3.108-.569l-.436-.782.432-3.288s.839.958.839 3.145h2.285s.397-6.853-6.228-6.853z" fill="#292f33"/><path d="m16.781 9.125v1.155s.451.408 1.201.408 1.201-.408 1.201-.408v-1.155z" fill="#d4ab88"/><path d="m20.993 4.538c-.256-.25-1.536-.091-2.122.188-.236.112-.35.203-.51.336-.214.179-.379.178-.379.178s-.164.001-.379-.178c-.159-.133-.274-.224-.51-.336-.586-.28-1.867-.438-2.122-.188-.417.407-.101 2.32.635 2.47.536.109.952.07 1.19-.01.168-.056.507-.209.744-.808.214-.541.442-.536.442-.536s.228-.005.442.536c.237.598.576.751.744.807.238.08.655.119 1.19.01.736-.149 1.051-2.062.635-2.469z" fill="#dd2f45"/><path d="m16.578 4.835s-.942-.169-1.141.05c-.198.218-.142 1.254.218 1.696.196.241.977.186 1.148.104.309-.148.617-.6.617-1.18.001-.407-.554-.63-.842-.67zm2.808 0s.942-.169 1.141.05c.198.218.142 1.254-.218 1.696-.196.241-.977.186-1.148.104-.309-.148-.617-.6-.617-1.18-.001-.407.554-.63.842-.67z" fill="#292f33"/></svg>