<svg viewBox="0 0 36 36" xmlns="http://www.w3.org/2000/svg"><path d="m2 29-1 6h8s1-2 3-2h6v-4zm32 0 1 6h-8s-1-2-3-2h-6v-4zm-28-9c0 1 0 8-4 8l8 1zm24 0c0 1 0 8 4 8l-8 1z" fill="#662113"/><path d="m30 20c0 6.628-5.373 12-12 12s-12-5.372-12-12c0-6.627 5.373-12 12-12s12 5.373 12 12z" fill="#662113"/><path d="m10 35c0 .553-.448 1-1 1h-8c-.552 0-1-.447-1-1s.448-1 1-1h8c.552 0 1 .447 1 1zm26 0c0 .553-.447 1-1 1h-8c-.553 0-1-.447-1-1s.447-1 1-1h8c.553 0 1 .447 1 1zm-1-6c0 .553-.447 1-1 1h-32c-.552 0-1-.447-1-1s.448-1 1-1h32c.553 0 1 .447 1 1z" fill="#a0041e"/><path d="m27 20c0 4.971-4.03 9-9 9-4.971 0-9-4.029-9-9 0-4.97 4.029-9 9-9 4.97 0 9 4.03 9 9z" fill="#ffac33"/><path d="m26 20c0 4.418-3.582 8-8 8s-8-3.582-8-8 3.582-8 8-8 8 3.582 8 8z" fill="#f5f8fa"/><path d="m18 20s-.119 1-1.5 1-3.5-1-3.5-1 2.119-1 3.5-1 1.5 1 1.5 1z" fill="#c1694f"/><path d="m19 16.5c0 1.933-.448 3.5-1 3.5s-1-1.566-1-3.5 1-3.499 1-3.499c0-.001 1 1.566 1 3.499z" fill="#c1694f"/><circle cx="18" cy="20" fill="#662113" r=".586"/></svg>