<svg viewBox="0 0 36 36" xmlns="http://www.w3.org/2000/svg"><path d="m3.968 33.446c-1.757 1.758-3.498 2.866-3.889 2.475s.718-2.132 2.475-3.889c1.757-1.758 3.498-2.866 3.889-2.475.39.391-.718 2.131-2.475 3.889z" fill="#c1694f"/><path d="m6.443 29.558-2.122-2.122s-1.083 1.393-2.284 3.63c-.9 1.676-1.251 2.734-1.251 2.734l.707.707.707.707s1.059-.352 2.734-1.251c2.237-1.201 3.629-2.284 3.629-2.284z" fill="#ffcc4d"/><path d="m34.02 1.98c-3.535-3.536-18.164 10.297-18.871 11.004s-1.304 1.348-.928 1.724l-2.121 2.121c-2.122 2.122-8.486 9.899-7.779 10.606l2.122 2.122 2.121 2.121c.707.707 8.485-5.657 10.607-7.778l2.121-2.121c.376.376 1.017-.222 1.724-.929.707-.706 14.54-15.334 11.004-18.87z" fill="#31373d"/><path d="m23.016 20.851c.085-.084.362-.375.774-.817l-7.823-7.822c-.442.411-.732.689-.817.774-.707.707-1.304 1.348-.928 1.724l3.535 3.536 3.536 3.535c.375.374 1.016-.223 1.723-.93z" fill="#ffcc4d"/><g fill="#ffac33"><path d="m31.212 2.001c-.927-.927-2.164-1.899-3.932-1.015s-7.313 4.441-9.878 7.005c-1.322 1.322-1.247 2.102-.751 2.165.821.106 1.37.088 2.122-.663.75-.751.883-2.033.883-2.033s3.05-2.342 5.458-3.778c2.409-1.437 3.268-1.682 4.11-.84s1.988-.841 1.988-.841z"/><path d="m28.87 2.487 4.643 4.643c.353-.709.631-1.384.818-2.011l-3.45-3.45c-.627.188-1.301.466-2.011.818z"/></g></svg>