<svg viewBox="0 0 36 36" xmlns="http://www.w3.org/2000/svg"><path d="m4.167 32.729c.292.167.626.271.987.271 1.105 0 2-.896 2-2s-.895-2-2-2-2 .896-2 2c0 .361.103.695.27.987l-3.146 3.146.876-7.133 9-7 5 5-7 9-7.134.876z" fill="#99aab5"/><path d="m22.511 5.308c-1.151 1.151-1.151 3.016 0 4.167l4.167 4.168c1.151 1.15 3.018 1.15 4.167 0l4.167-4.168c1.15-1.151 1.15-3.016 0-4.167l-4.167-4.167c-1.15-1.151-3.016-1.151-4.167 0z" fill="#66757f"/><path d="m9.511 18.309 17.202-17.204 8.333 8.335-17.201 17.203c-1.15 1.15-3.016 1.15-4.168 0l-4.166-4.168c-1.151-1.151-1.151-3.016 0-4.166z" fill="#31373d"/><path d="m17.469 10.35 2.125-2.125 8.334 8.334-2.125 2.125z" fill="#66757f"/></svg>