<svg viewBox="0 0 36 36" xmlns="http://www.w3.org/2000/svg"><path d="m30 34c0 1.104-.896 2-2 2h-20c-1.104 0-2-.896-2-2v-32c0-1.104.896-2 2-2h20c1.104 0 2 .896 2 2z" fill="#292f33"/><path d="m28 16c0 .552-.447 1-1 1h-18c-.552 0-1-.448-1-1v-13c0-.552.448-1 1-1h18c.553 0 1 .448 1 1zm0 17c0 .553-.447 1-1 1h-18c-.552 0-1-.447-1-1v-13c0-.553.448-1 1-1h18c.553 0 1 .447 1 1z" fill="#66757f"/><path d="m22 8c0 .552-.447 1-1 1h-6c-.552 0-1-.448-1-1v-3c0-.552.448-1 1-1h6c.553 0 1 .448 1 1zm0 17c0 .553-.447 1-1 1h-6c-.552 0-1-.447-1-1v-3c0-.553.448-1 1-1h6c.553 0 1 .447 1 1z" fill="#292f33"/><path d="m15 5h6v3h-6zm0 17h6v3h-6zm9-8.97c0 .536-.435.97-.97.97h-10.06c-.536 0-.97-.435-.97-.97v-.06c0-.536.434-.97.97-.97h10.06c.535 0 .97.435.97.97zm0 16.999c0 .536-.435.971-.97.971h-10.06c-.536 0-.97-.435-.97-.971v-.059c0-.535.434-.97.97-.97h10.06c.535 0 .97.435.97.971z" fill="#e1e8ed"/></svg>