<svg viewBox="0 0 36 36" xmlns="http://www.w3.org/2000/svg"><path d="m31.5 4-1.784 4.542-1.784-4.542h-4.147l-1.926 4.903-1.927-4.903h-3.863l-1.926 4.903-1.927-4.903h-4.148l-1.784 4.542-1.784-4.542h-2.367l3.735 28.013h24.263l3.736-28.013zm-5.642 1.678 2.459 6.425-2.601 6.621-2.457-6.254zm-7.858.371 2.457 6.42-2.457 6.254-2.457-6.254zm-7.858-.371 2.599 6.792-2.457 6.254-2.601-6.621zm-4.184 10.933.326-.853 2.549 6.66-1.573 4.004zm2.11 15.389 2.216-5.79 2.216 5.79zm3.668-9.582 2.407-6.288 2.406 6.288-2.406 6.126zm4.048 9.582 2.216-5.79 2.216 5.79zm3.667-9.582 2.406-6.288 2.406 6.288-2.406 6.126zm4.049 9.582 2.216-5.79 2.216 5.79zm5.392-5.192-1.725-4.39 2.549-6.659.411 1.074z" fill="#9aaab4"/><path d="m32 34c0-1.104-.896-2-2-2h-24c-1.104 0-2 .896-2 2s.896 2 2 2h24c1.104 0 2-.896 2-2zm4-32c0-1.105-.896-2-2-2h-32c-1.104 0-2 .896-2 2 0 1.105.896 2 2 2h32c1.104 0 2-.895 2-2z" fill="#67757f"/></svg>