<svg viewBox="0 0 36 36" xmlns="http://www.w3.org/2000/svg"><g fill="#67757f"><circle cx="13" cy="33" r="3"/><circle cx="32" cy="33" r="3"/><path d="m13 32h19v2h-19z"/></g><path d="m20 15.502c0-1.381 1.119-1.5 2.5-1.5s2.5.119 2.5 1.5v17.998c0 1.381-1.119 2.5-2.5 2.5s-2.5-1.119-2.5-2.5z" fill="#9aaab4"/><path d="m27 15.002c0 1.104-.896 2-2 2h-5c-1.104 0-2-.896-2-2 0-1.105.896-1 2-1h5c1.104 0 2-.104 2 1z" fill="#67757f"/><path d="m28 27c0 1.104-.896 2-2 2h-7c-1.104 0-2-.896-2-2v-5c0-1.104.896-2 2-2h7c1.104 0 2 .896 2 2zm0-22c0 1.104-.896 2-2 2h-7c-1.104 0-2-.896-2-2v-1c0-1.105.896-2 2-2h7c1.104 0 2 .895 2 2z" fill="#da2f47"/><path d="m13 22c-1.104 0-2-.896-2-2v-13c0-1.104.896-2 2-2h15v-1c0-2.209-1.791-4-4-4h-17c-2.209 0-4 1.791-4 4v19c0 2.209 1.791 4 4 4h14c2.209 0 4-1.791 4-4v-1z" fill="#da2f47"/><path d="m9 20c0 1.104-.896 2-2 2s-2-.896-2-2v-13c0-1.104.896-2 2-2s2 .896 2 2z" fill="#e75a70"/></svg>