<svg viewBox="0 0 36 36" xmlns="http://www.w3.org/2000/svg"><path d="m27.066 26.519-.867-4.337 3.787.841-2.475-3.3 4.587-1.835-4.716-2.83 3.243-2.433h-4.375l2.769-3.691-4.33.865 1.292-6.028-4.727 4.297-1.817-4.544-2.887 5.774-2.858-4.763-1.336 4.453-4.985-3.323 2.169 5.207-4.026-.895 2.457 3.275-4.118 1.831 4.531 2.718-1.716 2.574h3.881l-5.487 10.13 9.202-7.528 1.848 4.621 2.938-4.896 2.887 5.774 1.786-4.465z" fill="#e1e8ed"/><path d="m29.489 20.277 5.413-2.165-5.284-3.17 4.757-3.567h-5.625l3.231-4.309-5.671 1.134 1.708-7.971-6.272 5.702-2.183-5.456-3.113 6.227-3.142-5.237-1.664 5.546-7.015-4.676 2.831 6.793-4.974-1.105 3.543 4.724-4.882 2.17 5.469 3.281-2.284 3.426h4.119l-7.513 13.87 12.798-10.472 2.151 5.379 3.062-5.104 3.113 6.227 2.214-5.535 4.656 3.492-1.133-5.663 5.213 1.158zm-10.439 2.425-2.938 4.896-1.849-4.621-9.202 7.528 5.487-10.13h-3.88l1.716-2.574-4.531-2.719 4.118-1.83-2.457-3.275 4.026.895-2.169-5.207 4.985 3.323 1.336-4.454 2.858 4.763 2.887-5.773 1.817 4.544 4.728-4.298-1.292 6.029 4.329-.866-2.769 3.691h4.375l-3.243 2.433 4.716 2.83-4.587 1.835 2.476 3.301-3.787-.842.867 4.337-3.344-2.508-1.786 4.465z" fill="#67757f"/></svg>