<svg viewBox="0 0 36 36" xmlns="http://www.w3.org/2000/svg"><path d="m23.378 19.029c-.708.707-7.073 12.728-22.628 16.971 1.414-1.415 19.54-21.691 19.54-21.691z" fill="#9aaab4"/><path d="m17.72 13.371c-.707.707-12.728 7.073-16.97 22.629l21.213-21.214z" fill="#ccd6dd"/><path d="m20.549 11.957c-.781.781-.655 2.174.283 3.112l.848.849c.938.937 2.33 1.063 3.112.282l7.778-7.778c.781-.781.654-2.174-.283-3.111l-.848-.848c-.938-.938-2.331-1.064-3.111-.283z" fill="#d99e82"/><path d="m28.892 12.1-7.071-1.414-1.271 1.271c-.133.133-.23.288-.311.452l6.954 1.391zm-7.212 3.818c.938.938 2.331 1.063 3.112.282l.826-.826-5.328-1.065c.131.27.312.529.543.76zm8.911-5.518 1.7-1.699-7.071-1.414-1.7 1.699zm2.423-3.793c-.107-.46-.346-.916-.727-1.297l-.848-.848c-.103-.103-.213-.192-.325-.275l-2.11-.422c-.252.084-.483.22-.676.414l-1.242 1.242z" fill="#bf6952"/><circle cx="31.858" cy="4.896" fill="#8a4633" r="4"/><g fill="#ffac33"><path d="m16.306 9.836c.586-.586 1.536-.586 2.121 0l8.839 8.839c.586.586.586 1.536 0 2.121-.586.586-1.535.586-2.121 0l-8.839-8.839c-.586-.584-.586-1.535 0-2.121z"/><circle cx="27.266" cy="20.796" r="2.5"/><circle cx="16.306" cy="9.836" r="2.5"/></g><circle cx="27.266" cy="20.796" fill="#ffcc4d" r="1.5"/><circle cx="16.306" cy="9.836" fill="#ffcc4d" r="1.5"/><path d="m26.566 3.803c.417-.417 1.093-.417 1.509 0l4.865 4.866c.417.417.417 1.092 0 1.509s-1.092.417-1.509 0l-4.865-4.866c-.417-.416-.417-1.092 0-1.509z" fill="#ffac33"/></svg>