<svg viewBox="0 0 36 36" xmlns="http://www.w3.org/2000/svg"><path d="m34.5 24.995c0 2.209-1.791 2-4 2h-25c-2.209 0-4 .209-4-2l2-13.995c.293-1.75 1-2 2-2h25c1 0 1.791.208 2 2z" fill="#8ccaf7"/><path d="m28.5 16.5c0 .829-.672 1.5-1.5 1.5h-18c-.829 0-1.5-.671-1.5-1.5s.672-1.5 1.5-1.5h18c.828 0 1.5.671 1.5 1.5z" fill="#292f33"/><path d="m26.25 17.188v-14c0-1.105-.895-2-2-2h-13c-1.104 0-2 .895-2 2v14z" fill="#ffd983"/><path d="m34.5 25c0-1.104-.896-2-2-2h-29c-1.104 0-2 .896-2 2v8c0 1.104.896 2 2 2h29c1.104 0 2-.896 2-2z" fill="#5dadec"/><path d="m13.5 23v6c0 1.104.896 2 2 2h5c1.105 0 2-.896 2-2v-6z" fill="#4289c1"/><path d="m22.5 23v-1c0-1.104-.895-2-2-2h-5c-1.104 0-2 .896-2 2v1zm-3 4.5c0 .828-.672 1.5-1.5 1.5-.829 0-1.5-.672-1.5-1.5v-1c0-.828.671-1.5 1.5-1.5.828 0 1.5.672 1.5 1.5z" fill="#5dadec"/><g fill="#c1694f"><path d="m24 5c0 .276-.224.5-.5.5h-7.5c-.276 0-.5-.224-.5-.5s.224-.5.5-.5h7.5c.276 0 .5.224.5.5m0 4c0 .276-.224.5-.5.5h-7.5c-.276 0-.5-.224-.5-.5s.224-.5.5-.5h7.5c.276 0 .5.224.5.5m0 4c0 .276-.224.5-.5.5h-7.5c-.276 0-.5-.224-.5-.5s.224-.5.5-.5h7.5c.276 0 .5.224.5.5"/><g><circle cx="13" cy="5" r="1"/><circle cx="13" cy="9" r="1"/><circle cx="13" cy="13" r="1"/></g></g></svg>