<svg viewBox="0 0 36 36" xmlns="http://www.w3.org/2000/svg"><path d="m36 18c0 9.941-8.059 18-18 18-9.94 0-18-8.059-18-18 0-9.94 8.06-18 18-18 9.941 0 18 8.06 18 18" fill="#ffcc4d"/><g fill="#664500"><ellipse cx="11.5" cy="12.5" rx="2.5" ry="5.5"/><ellipse cx="24.5" cy="12.5" rx="2.5" ry="5.5"/><path d="m18 22c-3.623 0-6.027-.422-9-1-.679-.131-2 0-2 2 0 4 4.595 9 11 9 6.404 0 11-5 11-9 0-2-1.321-2.132-2-2-2.973.578-5.377 1-9 1z"/></g><path d="m9 23s3 1 9 1 9-1 9-1-2 4-9 4-9-4-9-4z" fill="#fff"/></svg>