<svg viewBox="0 0 36 36" xmlns="http://www.w3.org/2000/svg"><path d="m36 18c0 9.941-8.059 18-18 18-9.94 0-18-8.059-18-18 0-9.94 8.06-18 18-18 9.941 0 18 8.06 18 18" fill="#ffcc4d"/><g fill="#66471b"><ellipse cx="11.5" cy="14.5" rx="2.5" ry="3.5"/><ellipse cx="24.5" cy="14.5" rx="2.5" ry="3.5"/><path d="m7 21.262c0 3.964 4.596 9 11 9s11-5 11-9c0 0-10.333 2.756-22 0z"/></g><path d="m18.545 23.604-1.091-.005c-3.216-.074-5.454-.596-5.454-.596v6.961c0 3 2 6 6 6s6-3 6-6v-6.92c-1.922.394-3.787.542-5.455.56z" fill="#e8596e"/><path d="m18 31.843c.301 0 .545-.244.545-.545v-7.694l-1.091-.005v7.699c.001.301.245.545.546.545z" fill="#dd2f45"/></svg>