<svg viewBox="0 0 36 36" xmlns="http://www.w3.org/2000/svg"><path d="m36 18c0 9.941-8.059 18-18 18s-18-8.059-18-18 8.059-18 18-18 18 8.059 18 18" fill="#ffcc4d"/><g fill="#664500"><path d="m23.485 28.879c-.011-.044-1.145-4.379-5.485-4.379s-5.474 4.335-5.485 4.379c-.053.213.044.431.232.544.188.112.433.086.596-.06.009-.008 1.013-.863 4.657-.863 3.59 0 4.617.83 4.656.863.095.09.219.137.344.137.084 0 .169-.021.246-.064.196-.112.294-.339.239-.557zm5.515-16.879c-5.554 0-7.802-4.367-7.895-4.553-.247-.494-.047-1.095.447-1.342.493-.247 1.092-.048 1.34.443.075.146 1.821 3.452 6.108 3.452.553 0 1 .448 1 1s-.447 1-1 1zm-22 0c-.552 0-1-.448-1-1s.448-1 1-1c5.083 0 5.996-3.12 6.033-3.253.145-.528.692-.848 1.219-.709.53.139.851.673.718 1.205-.049.194-1.266 4.757-7.97 4.757z"/><ellipse cx="12" cy="16.5" rx="2.5" ry="3.5"/><ellipse cx="24" cy="16.5" rx="2.5" ry="3.5"/></g></svg>