<svg viewBox="0 0 36 36" xmlns="http://www.w3.org/2000/svg"><path d="m36 18c0 9.941-8.059 18-18 18-9.94 0-18-8.059-18-18 0-9.94 8.06-18 18-18 9.941 0 18 8.06 18 18" fill="#ffcc4d"/><g fill="#664500"><ellipse cx="11.5" cy="16.5" rx="2.5" ry="3.5"/><ellipse cx="24.5" cy="16.5" rx="2.5" ry="3.5"/><path d="m23.485 27.879c-.011-.044-1.145-4.379-5.485-4.379s-5.474 4.335-5.485 4.379c-.053.213.044.431.232.544.188.112.433.086.596-.06.009-.007 1.013-.863 4.657-.863 3.59 0 4.617.83 4.656.863.095.091.219.137.344.137.084 0 .169-.021.246-.064.196-.111.294-.339.239-.557z"/></g><path d="m10 30c0 2.762-2.238 5-5 5s-5-2.238-5-5 4-10 5-10 5 7.238 5 10z" fill="#5dadec"/><path d="m30 13c-5.554 0-7.802-4.367-7.895-4.553-.247-.494-.047-1.095.447-1.342.492-.247 1.092-.048 1.34.443.075.146 1.821 3.452 6.108 3.452.553 0 1 .448 1 1 0 .553-.447 1-1 1zm-24 0c-.552 0-1-.448-1-1s.448-1 1-1c5.083 0 5.996-3.12 6.033-3.253.145-.528.69-.848 1.219-.709.53.139.851.673.718 1.205-.049.194-1.266 4.757-7.97 4.757z" fill="#664500"/></svg>