<svg viewBox="0 0 36 36" xmlns="http://www.w3.org/2000/svg"><path d="m36 18c0 9.941-8.059 18-18 18-9.94 0-18-8.059-18-18 0-9.94 8.06-18 18-18 9.941 0 18 8.06 18 18" fill="#ffcc4d"/><ellipse cx="18" cy="27" fill="#664500" rx="5" ry="6"/><path d="m5.999 11c-.208 0-.419-.065-.599-.2-.442-.331-.531-.958-.2-1.4 3.262-4.35 7.616-4.4 7.8-4.4.552 0 1 .448 1 1 0 .551-.445.998-.996 1-.155.002-3.568.086-6.204 3.6-.196.262-.497.4-.801.4zm24.002 0c-.305 0-.604-.138-.801-.4-2.64-3.521-6.061-3.598-6.206-3.6-.55-.006-.994-.456-.991-1.005.003-.551.447-.995.997-.995.184 0 4.537.05 7.8 4.4.332.442.242 1.069-.2 1.4-.18.135-.39.2-.599.2z" fill="#664500"/><path d="m18 23c-1.657 0-3 1.79-3 4h6c0-2.21-1.343-4-3-4z" fill="#f5f8fa"/><g fill="#664500"><ellipse cx="12" cy="14.5" rx="2.5" ry="3.5"/><ellipse cx="24" cy="14.5" rx="2.5" ry="3.5"/></g></svg>