<svg viewBox="0 0 36 36" xmlns="http://www.w3.org/2000/svg"><circle cx="18" cy="20" fill="#ffcc4d" r="16"/><path d="m27.85 22.97a.524.524 0 0 0 -.54-.01c-.01.01-1.12.66-3.29.66s-3.28-.65-3.28-.66c-.16-.1-.39-.1-.54.01-.16.1-.21.28-.13.43.05.1 1.33 2.4 3.96 2.4s3.9-2.3 3.96-2.4c.07-.15.01-.33-.14-.43zm-12.58-.01c-.01.01-1.12.66-3.29.66s-3.28-.65-3.28-.66c-.16-.1-.39-.1-.54.01-.16.1-.22.28-.14.43.05.1 1.33 2.4 3.96 2.4s3.9-2.3 3.96-2.4c.08-.15.03-.33-.13-.43a.524.524 0 0 0 -.54-.01zm-2.87 6.57c.03.14.89 3.33 5.69 3.33 4.81 0 5.66-3.19 5.69-3.33a.37.37 0 0 0 -.18-.42.395.395 0 0 0 -.46.06c-.01.01-1.49 1.41-5.06 1.41s-5.04-1.4-5.06-1.41a.386.386 0 0 0 -.46-.06c-.13.08-.2.25-.16.42z" fill="#664500"/><g fill="#5dadec"><path d="m6.61 15.95c-.41 0-.79-.25-.94-.66-3.11-8.55 2.69-14.66 2.94-14.92.39-.39 1.02-.4 1.42-.02s.41 1.02.02 1.41c-.21.23-5.17 5.5-2.5 12.84a.998.998 0 0 1 -.6 1.28c-.11.05-.22.07-.34.07z"/><path d="m9.578 12.63c-.48 0-.91-.35-.99-.84-.61-3.83.78-6.84 2.05-8.69.31-.45.94-.57 1.39-.26.46.31.57.94.26 1.39-1.55 2.25-2.13 4.69-1.73 7.24a.988.988 0 0 1 -.83 1.14c-.04.02-.09.02-.15.02z"/></g></svg>