<svg viewBox="0 0 36 36" xmlns="http://www.w3.org/2000/svg"><path d="m9 5.938v11.062c0 4.971 4.029 9 9 9s9-4.029 9-9v-10.75z" fill="#7c533e"/><path d="m14 22h8s-1 2-4 2-4-2-4-2z" fill="#3d2e24"/><path d="m14 16c-.552 0-1-.448-1-1v-1c0-.552.448-1 1-1s1 .448 1 1v1c0 .552-.448 1-1 1zm8 0c-.552 0-1-.448-1-1v-1c0-.552.448-1 1-1s1 .448 1 1v1c0 .552-.448 1-1 1z"/><path d="m19 19.5h-2c-.276 0-.5-.224-.5-.5s.224-.5.5-.5h2c.276 0 .5.224.5.5s-.224.5-.5.5z" fill="#3d2e24"/><path d="m10.847 13.715c0 1.58-.8 2.861-1.788 2.861s-1.788-1.281-1.788-2.861.801-2.861 1.788-2.861 1.788 1.281 1.788 2.861zm17.882 0c0 1.58-.8 2.861-1.788 2.861s-1.788-1.281-1.788-2.861.8-2.861 1.788-2.861 1.788 1.281 1.788 2.861z" fill="#7c533e"/><path d="m18 .823c-7.019 0-10.139 4.684-10.139 8.588 0 3.903 1.343 4.986 1.56 3.903.78-3.903 3.12-5.101 3.12-5.101 4.68 3.904 3.9.781 3.9.781 4.679 4.684 2.34 0 2.34 0 1.56 1.562 6.239 1.562 6.239 1.562s.78 1.198 1.559 2.759c.78 1.562 1.56 0 1.56-3.903 0-3.905-3.9-8.589-10.139-8.589z" fill="#0b0200"/><path d="m12.421 2.935c-.591-.389-1.387-.224-1.776.367l-.645.982v-2.284c0-1.105-.896-2-2-2h-4c-1.104 0-2 .896-2 2v8s0 1 1 1h6l1-1v-1.043l2.789-4.246c.389-.592.225-1.387-.368-1.776z" fill="#7c533e"/><path d="m4 0h1v5h-1zm3 0h1v5h-1z" fill="#583529"/><path d="m27 27h-18l1-17h-8v17s0 9 8 9h21v-5c0-2.209-1.791-4-4-4z" fill="#4289c1"/><path d="m26 32h1v4h-1z" fill="#2a6797"/><path d="m15 24v4c0 1.657 1.343 3 3 3s3-1.343 3-3v-4z" fill="#7c533e"/></svg>