<svg viewBox="0 0 36 36" xmlns="http://www.w3.org/2000/svg"><path d="m0 18c0-9.941 8.059-18 18-18s18 8.059 18 18-8.059 18-18 18-18-8.059-18-18" fill="#ffcc4d"/><g fill="#664500"><path d="m8.665 12.871c.178.161.444.171.635.029.039-.029 3.922-2.9 8.7-2.9 4.766 0 8.662 2.871 8.7 2.9.191.142.457.13.635-.029.177-.16.217-.424.094-.628-.129-.214-3.217-5.243-9.429-5.243s-9.301 5.028-9.429 5.243c-.123.205-.084.468.094.628z"/><ellipse cx="11.5" cy="21.5" rx="2.5" ry="3.5"/><ellipse cx="24.5" cy="21.5" rx="2.5" ry="3.5"/></g></svg>