<svg viewBox="0 0 36 36" xmlns="http://www.w3.org/2000/svg"><path d="m0 34h36v2h-36z" fill="#939598"/><path d="m3 35h33v-29h-15c-4 0-5 2-5 2l-4 6s-12 5-12 10c0 4 6 6 6 6z" fill="#d1d3d4"/><path d="m14 35 2-3h20v3z" fill="#231f20"/><path d="m0 23.999c0 4 6 6 6 6v-12.874c-3 1.875-6 4.374-6 6.874zm6 6.001v-.001z" fill="#3b88c3"/><path d="m6 30-3 5h33v-5z" fill="#269"/><path d="m20 30 4-6h12v6z" fill="#3b88c3"/><path d="m26 8h-10l-4 6h-.001 10.843c.477 0 1.108-.448 1.412-1l2.197-4c.303-.552.102-1-.451-1z" fill="#55acee"/><path d="m25.902 10 .549-1c.303-.552.102-1-.451-1h-10l-1.333 2z" fill="#3b88c3"/></svg>