<svg viewBox="0 0 36 36" xmlns="http://www.w3.org/2000/svg"><path d="m2 36h32l-11-17h-10z" fill="#a7a9ac"/><path d="m5 36h26l-10-17h-6z" fill="#58595b"/><path d="m8 36h20l-9-17h-2z" fill="#808285"/><path d="m28 35c0 .553-.447 1-1 1h-18c-.552 0-1-.447-1-1s.448-1 1-1h18c.553 0 1 .447 1 1zm-2-4c0 .553-.447 1-1 1h-14c-.552 0-1-.447-1-1s.448-1 1-1h14c.553 0 1 .447 1 1zm-2-4c0 .553-.447 1-1 1h-10c-.552 0-1-.447-1-1s.448-1 1-1h10c.553 0 1 .447 1 1z" fill="#a7a9ac"/><path d="m9.881 23.82c1.125 1.226 2.617 2.18 4.119 2.18h8c1.501 0 2.994-.955 4.119-2.18l-2.549-3.938c-1.359.097-3.148.118-5.57.118-2.465 0-4.274.023-5.642-.008z" fill="#58595b"/><path d="m19 2c0 .552-.448 1-1 1s-1-.448-1-1v-1c0-.552.448-1 1-1s1 .448 1 1z" fill="#414042"/><path d="m22 4c0 1.104-.896 2-2 2h-4c-1.104 0-2-.896-2-2s.896-2 2-2h4c1.104 0 2 .896 2 2z" fill="#6d6e71"/><path d="m28 18c0 2.209-3.791 5-6 5h-8c-2.209 0-6-2.791-6-5v-11c0-2.209 1.791-4 4-4h12c2.209 0 4 1.791 4 4z" fill="#d1d3d4"/><path d="m25 16c0 2.209-1.791 4-4 4h-6c-2.209 0-4-1.791-4-4v-5c0-2.209 1.791-4 4-4h6c2.209 0 4 1.791 4 4z" fill="#808285"/><path d="m15 15h6c2.209 0 4-1.791 4-4v-2h-14v2c0 2.209 1.791 4 4 4z" fill="#55acee"/><path d="m18 20c-7 0-8.754-1.801-10-3.242v1.242c0 2.209 3 6 6 6h8c3 0 6-3.791 6-6v-1.891c-1.246 1.73-3 3.891-10 3.891z" fill="#5c913b"/><path d="m15 17.5c0 .828-.672 1.5-1.5 1.5-.829 0-1.5-.672-1.5-1.5 0-.829.672-1.5 1.5-1.5s1.5.671 1.5 1.5zm9 0c0 .828-.672 1.5-1.5 1.5s-1.5-.672-1.5-1.5c0-.829.672-1.5 1.5-1.5s1.5.671 1.5 1.5z" fill="#ffd983"/><path d="m25 9v-2c0-1.104-.896-2-2-2h-10c-1.104 0-2 .896-2 2v2z" fill="#292f33"/><path d="m21 7c0 .552-.447 1-1 1h-4c-.552 0-1-.448-1-1s.448-1 1-1h4c.553 0 1 .448 1 1z" fill="#6d6e71"/></svg>