<svg viewBox="0 0 36 36" xmlns="http://www.w3.org/2000/svg"><path d="m0 36h28l-9.625-17h-8.75z" fill="#a7a9ac"/><path d="m2.625 36h22.75l-8.75-17h-5.25z" fill="#58595b"/><path d="m5.25 36h17.5l-7.875-17h-1.75z" fill="#808285"/><path d="m24 35c0 .553-.447 1-1 1h-18c-.552 0-1-.447-1-1s.448-1 1-1h18c.553 0 1 .447 1 1zm-2-4c0 .553-.447 1-1 1h-14c-.552 0-1-.447-1-1s.448-1 1-1h14c.553 0 1 .447 1 1zm-2-4c0 .553-.447 1-1 1h-10c-.552 0-1-.447-1-1s.448-1 1-1h10c.553 0 1 .447 1 1z" fill="#a7a9ac"/><path d="m6.896 23.82c.984 1.226 2.29 2.18 3.604 2.18h7c1.313 0 2.62-.955 3.604-2.18l-2.23-3.938c-1.189.097-2.755.118-4.874.118-2.157 0-3.74.023-4.937-.008z" fill="#58595b"/><path d="m15 3c0 .552-.448 1-1 1s-1-.448-1-1v-1c0-.552.448-1 1-1s1 .448 1 1z" fill="#414042"/><path d="m18 5c0 1.104-.896 2-2 2h-4c-1.104 0-2-.896-2-2s.896-2 2-2h4c1.104 0 2 .896 2 2z" fill="#6d6e71"/><path d="m23 18c0 2.209-3.412 5-5.4 5h-7.2c-1.988 0-5.4-2.791-5.4-5v-10c0-2.209 1.612-4 3.6-4h10.8c1.988 0 3.6 1.791 3.6 4z" fill="#d1d3d4"/><path d="m21 16c0 2.209-1.791 4-4 4h-6c-2.209 0-4-1.791-4-4v-5c0-2.209 1.791-3 4-3h6c2.209 0 4 .791 4 3z" fill="#808285"/><path d="m11 15h6c2.209 0 4-1.791 4-4v-1h-14v1c0 2.209 1.791 4 4 4z" fill="#55acee"/><path d="m14 20c-6.3 0-7.878-1.801-9-3.242v1.242c0 2.209 2.7 6 5.4 6h7.2c2.7 0 5.4-3.791 5.4-6v-1.891c-1.121 1.73-2.7 3.891-9 3.891z" fill="#5c913b"/><path d="m11 17.5c0 .828-.672 1.5-1.5 1.5-.829 0-1.5-.672-1.5-1.5 0-.829.671-1.5 1.5-1.5.828 0 1.5.671 1.5 1.5zm9 0c0 .828-.672 1.5-1.5 1.5s-1.5-.672-1.5-1.5c0-.829.672-1.5 1.5-1.5s1.5.671 1.5 1.5z" fill="#ffd983"/><path d="m21 10v-2c0-1.104-.896-2-2-2h-10c-1.104 0-2 .896-2 2v2z" fill="#292f33"/><path d="m17 8c0 .552-.447 1-1 1h-4c-.552 0-1-.448-1-1s.448-1 1-1h4c.553 0 1 .448 1 1z" fill="#6d6e71"/><path d="m23 22.94 9 13.06h4v-5h-4l-9-10z" fill="#58595b"/><path d="m36 31v-10h-13l9 10z" fill="#a7a9ac"/><path d="m33 24c0 1 0 1-1 1s-1 0-1-1v-11c0-.552.447-1 1-1s1 .448 1 1z" fill="#6d6e71"/><path d="m33 17c0 1 0 1-1 1s-1 0-1-1v-7c0-.552.447-1 1-1s1 .448 1 1z" fill="#939598"/><path d="m36 11c0 1.104-.896 2-2 2h-4c-1.104 0-2-.896-2-2v-2c0-1.104.896-2 2-2h4c1.104 0 2 .896 2 2z" fill="#58595b"/><path d="m34 10c0 .552-.447 1-1 1h-2c-.553 0-1-.448-1-1s.447-1 1-1h2c.553 0 1 .448 1 1z" fill="#939598"/></svg>