<svg viewBox="0 0 36 36" xmlns="http://www.w3.org/2000/svg"><path d="m14 7h2v29h-2z" fill="#6d6e71"/><path d="m15 19h3v2h-3zm0-6h3v2h-3z" fill="#6d6e71"/><path d="m29 24c0 .553-.447 1-1 1h-9c-.553 0-1-.447-1-1v-14c0-.552.447-1 1-1h9c.553 0 1 .448 1 1z" fill="#bcbec0"/><path d="m29 13v-3c0-.552-.447-1-1-1h-9c-.553 0-1 .448-1 1v3z" fill="#be1931"/><path d="m21 34h-12l-1 1v1h14v-1zm-2-2h-8l-1 1v1h10v-1z" fill="#6d6e71"/><circle cx="15" cy="4" fill="#be1931" r="4"/><path d="m20 13h3v3h-3z" fill="#808285"/><path d="m20 17h3v3h-3zm0 4h3v3h-3z" fill="#f4900c"/><path d="m24 13h3v3h-3zm0 4h3v3h-3z" fill="#808285"/><path d="m24 21h3v3h-3z" fill="#f4900c"/><path d="m13 2h4v4h-4zm7 8h7v2h-7z" fill="#dd2e44"/></svg>