<svg viewBox="0 0 36 36" xmlns="http://www.w3.org/2000/svg"><path d="m32 22s-2-8-5-8h-11c-3 0-7 7-7 7s-8 1-8 5v2c0 .09.021.175.026.263-.609.342-1.026.988-1.026 1.737 0 1.104.896 2 2 2h30c2.209 0 4-1.791 4-4v-2c0-2.209-1.791-4-4-4z" fill="#e1e8ed"/><path d="m1 26v2c0 .09.021.175.026.263-.609.342-1.026.988-1.026 1.737 0 1.104.896 2 2 2h30c2.209 0 4-1.791 4-4v-2c0-.348-.059-.679-.142-1h-34.657c-.117.312-.201.641-.201 1z" fill="#292f33"/><path d="m15.91 32c.055-.326.09-.658.09-1 0-3.313-2.686-6-6-6-3.313 0-6 2.687-6 6 0 .342.035.674.09 1zm17 0c.055-.326.09-.658.09-1 0-3.313-2.687-6-6-6s-6 2.687-6 6c0 .342.035.674.09 1z" fill="#66757f"/><circle cx="10" cy="31" fill="#292f33" r="4"/><circle cx="10" cy="31" fill="#e1e8ed" r="2"/><circle cx="27" cy="31" fill="#292f33" r="4"/><circle cx="27" cy="31" fill="#e1e8ed" r="2"/><path d="m21 13c0 .552-.447 1-1 1h-3c-.552 0-1-.448-1-1s.448-1 1-1h3c.553 0 1 .448 1 1z" fill="#dd2e44"/><path d="m22 13c0 .552-.447 1-1 1h-2c-.552 0-1-.448-1-1s.448-1 1-1h2c.553 0 1 .448 1 1zm1 8h7s-2-5-3-5h-4zm-2-5h-5c-2 0-5 5-5 5h10z" fill="#55acee"/></svg>