<svg viewBox="0 0 36 36" xmlns="http://www.w3.org/2000/svg"><path d="m11 11h3v9h-3z" fill="#ccd6dd"/><path d="m24 26.157c0 2.675-1.646 4.843-3.675 4.843h-15.616c-2.029 0-3.488-1.565-3.258-3.494l.625-5.241c.23-1.93 1.992-3.808 3.928-4.199l14.628-3.21c1.864-.443 3.368 1.363 3.368 4.037z" fill="#77b255"/><path d="m16.535 24.167c-.296 2.116 1.256 3.833 3.465 3.833h9c2.209 0 4-1.717 4-3.833v-15.334c0-2.117-1.453-3.833-3.245-3.833h-7.303c-1.792 0-3.484 1.716-3.78 3.833z" fill="#292f33"/><path d="m18.245 25c-.135 1.104.65 2 1.755 2h9c1.104 0 2-.896 2-2v-14c0-1.104-.743-2-1.66-2h-7.473c-.917 0-1.771.896-1.906 2z" fill="#bbddf5"/><path d="m15 21h18v10h-18z" fill="#77b255"/><path d="m33 23h-31l1-2h30z" fill="#ffcc4d"/><circle cx="8" cy="31" fill="#292f33" r="4"/><circle cx="8" cy="31" fill="#ffcc4d" r="2"/><path d="m33 16v4l-10 9-7-1 3-10 3-2z" fill="#77b255"/><path d="m18.222 26.111c0-4.91 3.979-8.889 8.889-8.889s8.889 3.979 8.889 8.889-3.979 8.889-8.889 8.889-8.889-3.979-8.889-8.889z" fill="#292f33"/><path d="m32.667 26.111c0 3.068-2.487 5.556-5.556 5.556-3.068 0-5.556-2.487-5.556-5.556 0-3.068 2.487-5.556 5.556-5.556 3.069.001 5.556 2.488 5.556 5.556z" fill="#ffcc4d"/><path d="m30.444 26.111c0 1.841-1.492 3.333-3.333 3.333-1.842 0-3.334-1.492-3.334-3.333 0-1.842 1.492-3.334 3.334-3.334 1.841 0 3.333 1.493 3.333 3.334z" fill="#ffe8b6"/><path d="m32.588 7c-.552-1.187-1.606-2-2.833-2h-7.303c-1.227 0-2.395.813-3.112 2z" fill="#77b255"/><path d="m29.333 26.111c0 1.227-.995 2.222-2.222 2.222s-2.223-.995-2.223-2.222.995-2.223 2.223-2.223c1.227.001 2.222.996 2.222 2.223z" fill="#f4900c"/><circle cx="8" cy="31" fill="#f4900c" r="1"/><path d="m11 13h3v2h-3z" fill="#66757f"/><path d="m16 28.75c-.094 0-.19-.013-.285-.041-.529-.157-.832-.714-.675-1.243l2-6.75c.381-1.92 2.148-5.716 5.96-5.716h10c.553 0 1 .448 1 1s-.447 1-1 1h-10c-3.144 0-4.011 4.154-4.02 4.196l-2.021 6.838c-.129.435-.527.716-.959.716z" fill="#5c913b"/><path d="m2.001 29c-.042 0-.083-.003-.125-.008-.548-.068-.937-.568-.868-1.116l1-8c.068-.549.569-.936 1.116-.868.548.068.937.568.868 1.116l-1 8c-.063.506-.494.876-.991.876z" fill="#3e721d"/></svg>