<svg viewBox="0 0 36 36" xmlns="http://www.w3.org/2000/svg"><path d="m21.377 15.449c.089.816-.83 1.495-2.053 1.515s-2.095-.635-1.947-1.463l.356-2c.147-.829.938-1.5 1.767-1.5.828 0 1.572.662 1.661 1.478z" fill="#ccd6dd"/><path d="m32.246 21h-.135l-.444-3c-.327-2.209-1.864-4-3.433-4h-12.072c-1.569 0-3.574 1.791-4.478 4l-1.228 3h-3.545c-2.073 0-4.104 1.791-4.538 4l-.588 3c-.001.008 0 .015-.002.021-1.001.111-1.783.949-1.783 1.979 0 1.104.896 2 2 2h30c2.209 0 4-1.791 4-4v-3c0-2.209-1.681-4-3.754-4z" fill="#ffcc4d"/><circle cx="10" cy="31" fill="#292f33" r="4"/><circle cx="10" cy="31" fill="#ccd6dd" r="2"/><circle cx="27" cy="31" fill="#292f33" r="4"/><circle cx="27" cy="31" fill="#ccd6dd" r="2"/><path d="m2.373 25-.196 1h33.823v-1c0-.348-.055-.679-.133-1h-33.165c-.141.321-.261.652-.329 1z" fill="#f4900c"/><path d="m24 21h5.92c-.014-.416-.064-.908-.156-1.5-.395-2.5-.552-3.5-3.437-3.5h-2.327zm-2-5h-5c-1.594 0-3.236 1.567-3.847 3.5-.194.599-.353 1.088-.472 1.5h9.319z" fill="#55acee"/></svg>