<svg viewBox="0 0 36 36" xmlns="http://www.w3.org/2000/svg"><path d="m19 12v-7h-2v7h-3v3h8v-3z" fill="#58595b"/><path d="m33.213 10.977-29.943-8.023c-.533-.144-.85-.691-.707-1.226.143-.533.691-.85 1.225-.707l29.942 8.024c.534.144.851.691.707 1.225-.142.534-.69.851-1.224.707z" fill="#6d6e71"/><path d="m23.348 4.361-1.933-.518.259-.965-5.795-1.553-.259.966-1.932-.518c-1.067-.285-2.164.348-2.45 1.415-.286 1.066.348 2.163 1.414 2.449l9.66 2.588c1.066.286 2.163-.348 2.449-1.414s-.347-2.164-1.413-2.45z" fill="#a7a9ac"/><path d="m13.877 4.931c-.286 1.066-1.383 1.7-2.45 1.414-1.066-.286-1.7-1.383-1.414-2.449.286-1.067 1.383-1.7 2.449-1.415 1.068.286 1.701 1.382 1.415 2.45zm11.592 3.105c-.286 1.067-1.383 1.7-2.449 1.414-1.067-.286-1.7-1.382-1.414-2.449.285-1.067 1.382-1.7 2.449-1.414 1.066.286 1.7 1.383 1.414 2.449z" fill="#808285"/><path d="m6 32c0 2.209 1.791 4 4 4h16c2.209 0 4-1.791 4-4v-5h-24zm20-18h-16c-1.477 0-2.752.809-3.445 2h22.89c-.693-1.191-1.968-2-3.445-2z" fill="#dd2e44"/><path d="m6 18h24v9h-24z" fill="#88c9f9"/><path d="m6.555 16c-.344.59-.555 1.268-.555 2h24c0-.732-.211-1.41-.555-2z" fill="#55acee"/><path d="m12 16h2v11h-2zm9 0h2v11h-2z" fill="#231f20"/></svg>