<svg viewBox="0 0 36 36" xmlns="http://www.w3.org/2000/svg"><path d="m34.16 28.812-2.916-26.134c-.17-1.525-1.459-2.678-2.993-2.678h-20.587c-1.545 0-2.839 1.168-2.997 2.704l-2.67 26.108z" fill="#dd2e44"/><circle cx="18.069" cy="14" fill="#be1931" r="9.366"/><path d="m35.521 29.18h-35.042l-.479 4.82c0 2 2 2 2 2h32s2 0 2-2z" fill="#99aab5"/><path d="m35.594 29.912-.073-.732c-.141-.738-.77-1.18-1.521-1.18h-32c-.751 0-1.38.442-1.521 1.18l-.073.732z" fill="#ccd6dd"/><path d="m29.647 13.63-7.668-1.248 4.539-6.308c.107-.148.091-.354-.039-.484-.131-.129-.336-.146-.484-.039l-6.309 4.538-1.247-7.667c-.029-.181-.187-.314-.37-.314s-.341.133-.37.314l-1.248 7.667-6.308-4.538c-.149-.107-.353-.09-.484.039-.13.131-.146.335-.039.484l4.538 6.308-7.668 1.248c-.181.029-.314.186-.314.37s.133.341.314.37l7.668 1.248-4.538 6.308c-.107.149-.091.354.039.484.131.129.335.146.484.039l6.308-4.538 1.248 7.667c.029.182.187.314.37.314s.341-.134.37-.314l1.247-7.667 6.308 4.538c.148.106.354.09.484-.039.13-.131.146-.335.039-.484l-4.538-6.308 7.668-1.248c.182-.029.314-.187.314-.37s-.132-.341-.314-.37z" fill="#ec9dad"/></svg>