<svg viewBox="0 0 36 36" xmlns="http://www.w3.org/2000/svg"><path d="m10 5c-1 1 0 2 0 3s2 0 2 0 1-1 2 1 4 1 3-1-4-1-4-3-3 0-3 0z" fill="#ffdc5d"/><path d="m19 16s-3 2-3 3 4 4 5 5 3 1 2-1-4-7-4-7z" fill="#f9ca55"/><path d="m14.347 2.901c-.745-.684-2.861-1.006-3.922.248-.899.018-1.073.91-.906 1.372.133.369 1.086.286 1.46.963.128-.213.099-.592.026-.783.353.229.369 1.007 1.634 1.272 1.223.256 1.217 1.294 1.217 1.294s.541-.397.863-.957c.614-1.071.448-2.654-.372-3.409z" fill="#ffac33"/><path d="m20.634 23.021s1.173.789 1.962-.385 1.365 1.771 1.365 1.771-2.559 2.539-4.521 2.924-1.173-.789-.385-1.962z" fill="#c63900"/><path d="m7 22c-3.866 0-7 3.134-7 7s3.134 7 7 7 7-3.134 7-7-3.133-7-7-7zm0 12c-2.761 0-5-2.238-5-5s2.239-5 5-5 5 2.238 5 5-2.238 5-5 5zm22-12c-3.865 0-7 3.134-7 7s3.135 7 7 7c3.867 0 7-3.134 7-7s-3.133-7-7-7zm0 12c-2.761 0-5-2.238-5-5s2.239-5 5-5c2.762 0 5 2.238 5 5s-2.238 5-5 5z" fill="#292f33"/><g fill="#aab8c2"><path d="m22 20c0-.553-.484-1-1.083-1h-10.834c-.598 0-1.083.447-1.083 1s.485 1 1.083 1h10.833c.6 0 1.084-.447 1.084-1zm8 9c0-.553-.447-1-1-1h-11c-.552 0-1 .447-1 1s.448 1 1 1h11c.553 0 1-.447 1-1z"/><path d="m21.224 17-4.166 11.664c-.185.519.086 1.092.606 1.277.111.04.224.059.336.059.411 0 .796-.255.942-.664l4.406-12.336z"/><path d="m29.001 30c-.33 0-.654-.164-.845-.463l-7-11c-.297-.466-.159-1.084.307-1.381.467-.297 1.084-.159 1.381.307l7 11c.297.466.159 1.084-.307 1.381-.167.105-.352.156-.536.156zm-10.001-4.266-8.387-6.524c-.435-.34-1.063-.26-1.403.176-.339.437-.26 1.064.176 1.403l9 7c.182.143.398.211.613.211h.001z"/><path d="m7 30c-.104 0-.211-.017-.316-.052-.524-.174-.807-.74-.632-1.265l2.772-8.316-3.423-2.568c-.442-.331-.531-.958-.2-1.4.331-.44.957-.531 1.4-.2l4.577 3.433-3.228 9.684c-.141.419-.532.684-.95.684z"/></g><path d="m26.383 19c-.03 0-.059-.002-.089-.006l-5.672-.708c-.372-.046-.644-.374-.62-.748.023-.374.333-.665.707-.665.041 0 4.067-.018 5.989-1.299.25-.167.582-.157.824.026.239.185.337.501.241.788l-.709 2.127c-.096.293-.369.485-.671.485zm-15.383-1h-5c-.552 0-1-.448-1-1s.448-1 1-1h5c.552 0 1 .448 1 1s-.448 1-1 1z" fill="#292f33"/><path d="m21.999 13-3.999 3 3 3z" fill="#c63900"/><path d="m19.999 17s-2 3-2 4 1 4 1 7 2 3 2 2 1.581-5.419 0-7c-1-1 2-4 2-4zm-4.314-3.703-2.75-.784c-.447 1.956-3.023 4.486-3.935 4.486-1 0-2 0-2 1s0 1 2 1 4-2 5-3c.65-.65 1.309-1.757 1.685-2.702z" fill="#ffdc5d"/><path d="m21.999 13-3 4 4 3s5-5 5-7-3-3-3-3z" fill="#dd551f"/><path d="m20.999 6.999c-3-1-5.585-.414-7 1-1 1-1 2-1 4 0 .176-.03.362-.073.55l2.744.784c.202-.509.33-.984.33-1.334 0-1 1-1 2 0s2 2 3 2 6-4 6-4c-3.001-1-4.103-2.368-6.001-3z" fill="#fa743e"/><path d="m19 29s1 1 2 0 1 2 1 2-3 2-5 2-1-1 0-2zm-8-27c2-1 6 0 4 2-1 1-7 2-7 2 0-1 1-3 3-4z" fill="#dd551f"/></svg>