<svg viewBox="0 0 36 36" xmlns="http://www.w3.org/2000/svg"><path d="m36 32c0 2.209-1.791 4-4 4h-28c-2.209 0-4-1.791-4-4v-28c0-2.209 1.791-4 4-4h28c2.209 0 4 1.791 4 4z" fill="#269"/><g fill="#f5f8fa"><path d="m26 17h-1v13h1c1.104 0 2-.896 2-2v-9c0-1.104-.896-2-2-2zm-16 0c-1.104 0-2 .896-2 2v9c0 1.104.896 2 2 2h1v-13zm12 0v-2c0-1.104-.896-2-2-2h-4c-1.104 0-2 .896-2 2v2h-1v13h10v-13zm-6-1c0-.553.448-1 1-1h2c.553 0 1 .447 1 1v1h-4z"/><path d="m32 10h-28c-1.104 0-2 .896-2 2v20c0 1.104.896 2 2 2h28c1.104 0 2-.896 2-2v-20c0-1.104-.896-2-2-2zm0 21c0 .553-.447 1-1 1h-26c-.552 0-1-.447-1-1v-18c0-.553.448-1 1-1h26c.553 0 1 .447 1 1zm-8-27h-6.35c-.563-1.179-1.756-2-3.15-2-1.933 0-3.5 1.567-3.5 3.5s1.567 3.5 3.5 3.5c1.762 0 3.205-1.306 3.45-3h1.719c.247.926.747 2 1.331 2s1.084-1.074 1.331-2h.669c0 1.104.448 2 1 2s1-1 1-3c0-1.105-.448-1-1-1zm-10.5 3c-.829 0-1.5-.671-1.5-1.5s.671-1.5 1.5-1.5 1.5.671 1.5 1.5-.671 1.5-1.5 1.5z"/></g></svg>