<svg viewBox="0 0 36 36" xmlns="http://www.w3.org/2000/svg"><ellipse cx="32" cy="16" fill="#99aab5" rx="2" ry="1"/><path d="m33 21c-.553 0-1-.447-1-1v-16c0-1.582-1.962-2-3-2s-3 .418-3 2c0 .552-.447 1-1 1s-1-.448-1-1c0-2.626 2.516-4 5-4s5 1.374 5 4v16c0 .553-.447 1-1 1z" fill="#ccd6dd"/><path d="m28 6c0 1.104-1.343 1-3 1s-3 .104-3-1 1.343-2 3-2 3 .896 3 2z" fill="#99aab5"/><path d="m29 7c0 .552-.447 1-1 1h-6c-.553 0-1-.448-1-1s.447-1 1-1h6c.553 0 1 .448 1 1z" fill="#ccd6dd"/><circle cx="12" cy="34" fill="#99aab5" r="2"/><circle cx="28" cy="34" fill="#99aab5" r="2"/><path d="m30 34h-18c-5 0-10-6-11-14-.248-1.984.812-1 3.021-1 0 0 12.979 2 25.979 2 2 0 5-1.209 5 1 0 0-1 12-5 12z" fill="#ccd6dd"/><path d="m36 21c0 .553-.447 1-1 1l-34-2c-.552 0-1-.447-1-1s.448-1 1-1l34 2c.553 0 1 .447 1 1z" fill="#99aab5"/></svg>