<svg viewBox="0 0 36 36" xmlns="http://www.w3.org/2000/svg"><path d="m31 29.5c0 .828-.672 1.5-1.5 1.5s-1.5-.672-1.5-1.5v-24c0-.829.672-1.5 1.5-1.5s1.5.671 1.5 1.5z" fill="#ccd6dd"/><path d="m34.882 32c.037-.164.062-.33.062-.5 0-1.933-2.463-3.5-5.5-3.5s-5.5 1.567-5.5 3.5c0 .17.025.336.062.5z" fill="#ccd6dd"/><path d="m35.944 9c.334 1.125-.896 2-2 2h-9c-1.104 0-2.291-1-2-2l2-7c.25-1.084.896-2 2-2h5c1.105 0 1.75 1.125 2 2z" fill="#fcab40"/><path d="m29.006 29.101c0 1.215-1.017 2.199-2.271 2.199h-20.439c-1.254 0-2.271-.984-2.271-2.199v-9.9c0-1.215 1.017-2.2 2.271-2.2h20.439c1.254 0 2.271.985 2.271 2.2z" fill="#5d9040"/><path d="m27.5 31.3c0 1.215-.985 2.2-2.2 2.2h-18.7c-1.215 0-2.2-.985-2.2-2.2v-1.1c0-1.215.985-2.2 2.2-2.2h18.7c1.215 0 2.2.985 2.2 2.2z" fill="#3f7123"/><ellipse cx="16.516" cy="19.125" fill="#5d9040" rx="12.484" ry="6.125"/><g fill="#78b159"><path d="m6.6 23.601c0 1.822-1.478 3.3-3.3 3.3s-3.3-1.478-3.3-3.3c0-1.824 1.478-3.301 3.3-3.301 1.823 0 3.3 1.477 3.3 3.301z"/><path d="m6.6 33.5c0 1.215-.985 2.2-2.2 2.2s-2.2-.985-2.2-2.2v-9.899c0-1.215.985-2.2 2.2-2.2s2.2.985 2.2 2.2zm19.8-9.899c0 1.822 1.477 3.3 3.3 3.3 1.821 0 3.3-1.478 3.3-3.3 0-1.823-1.479-3.301-3.3-3.301-1.822 0-3.3 1.477-3.3 3.301z"/><path d="m26.4 33.5c0 1.215.984 2.2 2.199 2.2s2.2-.985 2.2-2.2v-9.899c0-1.215-.985-2.2-2.2-2.2s-2.199.985-2.199 2.2zm-9.9-5.5c0 1.215-.985 2.2-2.2 2.2h-5.5c-1.215 0-2.2-.985-2.2-2.2s.985-2.2 2.2-2.2h5.5c1.215 0 2.2.985 2.2 2.2zm9.9 0c0 1.215-.985 2.2-2.2 2.2h-5.5c-1.215 0-2.2-.985-2.2-2.2s.985-2.2 2.2-2.2h5.5c1.215 0 2.2.985 2.2 2.2z"/><path d="m6 28h21v3h-21z"/></g></svg>