<svg viewBox="0 0 36 36" xmlns="http://www.w3.org/2000/svg"><path d="m36 32c0 2.209-1.791 4-4 4h-28c-2.209 0-4-1.791-4-4v-28c0-2.209 1.791-4 4-4h28c2.209 0 4 1.791 4 4z" fill="#269"/><g fill="#f5f8fa"><path d="m31 11c0 3.314-2.687 6-6 6s-6-2.686-6-6zm0-6h-12c-.553 0-1 .448-1 1 0 .182.049.569.134 1.007-.045-.002-.088-.007-.134-.007-1.104 0-2 .448-2 1s.896 1 2 1c.37 0 .684-.003.971-.008.009.002.019.008.029.008h12c.553 0 1-2.448 1-3s-.447-1-1-1zm-16 21c-5.013 0-7.558-3.731-7.664-3.891-.613-.919-.364-2.161.555-2.774.919-.615 2.161-.364 2.773.555.049.07 1.509 2.11 4.336 2.11 2.85 0 4.322-2.088 4.336-2.109.612-.919 1.854-1.17 2.774-.555.919.612 1.167 1.854.555 2.774-.106.159-2.652 3.89-7.665 3.89z"/><path d="m28 19h-7c-1.104 0-2 .896-2 2v7zm2.82 1.18-11.82 11.82c0 1.104.896 2 2 2h8c1.104 0 2-.896 2-2v-11c0-.293-.066-.569-.18-.82zm-18.82-17.14-6 1.43c-.154.044-.295.125-.426.224l5.426 1.266c.552.157 1 .733 1 1.285v5.795c.552-.157 1-.732 1-1.285v-8c0-.553-.448-.872-1-.715z"/><path d="m10 16.755c0 .553-.448.872-1 .715l-5-1.43c-.552-.157-1-.732-1-1.285v-8c0-.553.448-.872 1-.715l5 1.43c.552.157 1 .733 1 1.285z"/></g></svg>