<svg viewBox="0 0 36 36" xmlns="http://www.w3.org/2000/svg"><path d="m1 28h34v5h-34z" fill="#c1694f"/><path d="m36 35c0 .553-.447 1-1 1s-1-.447-1-1v-14c0-.553.447-1 1-1s1 .447 1 1zm-36 0c0 .553.447 1 1 1s1-.447 1-1v-22c0-.552-.447-1-1-1s-1 .448-1 1z" fill="#c1694f"/><path d="m32 23h-28c-1.104 0-2 .896-2 2v4h32v-4c0-1.104-.896-2-2-2z" fill="#269"/><path d="m32 23h-28c-1.104 0-2 .896-2 2v4h32v-4c0-1.104-.896-2-2-2z" fill="#55acee"/><path d="m2.126 19.938c-.261 1.073 1.485 2.419 3.9 3.006s4.584.192 4.846-.881c.261-1.073-1.485-2.419-3.9-3.007-2.415-.587-4.585-.192-4.846.882z" fill="#5c913b"/></svg>