<svg viewBox="0 0 36 36" xmlns="http://www.w3.org/2000/svg"><path d="m31 18h-26c-1.1 0-2 .9-2 2v15c0 .55.45 1 1 1h28c.55 0 1-.45 1-1v-15c0-1.1-.9-2-2-2z" fill="#d99e82"/><path d="m14 26h8v10h-8z" fill="#662113"/><path d="m33 24.671v-2.347h-30v2.34c.32-.133.625-.37.625-.37s.491.458.982.542c.491.083.848-.583.848-.583s.357.5 1.027.5.804-.5.804-.5.179.5.804.542.848-.5.848-.5.134.458.893.5.803-.542.803-.542.223.417.759.458c.536.042.848-.417.848-.417s.357.5.938.5c.58 0 .848-.417.848-.417s.089.542.67.542c.58 0 .893-.583.893-.583s0 .542.67.542.893-.5.893-.5 0 .542.625.542.982-.542.982-.542.045.583.804.542c.759-.042.938-.542.938-.542s.223.5.759.542.803-.542.803-.542.045.583.714.5c.67-.083.803-.542.803-.542s.089.667.759.625.848-.583.848-.583.179.583.803.583c.625 0 .759-.542.759-.542s0 .583.714.542c.714-.042.982-.583.982-.583s.223.542.938.542.759-.5.759-.5.223.5.848.458.759-.458.759-.458.357.458.804.458c.184-.001.329-.099.446-.207z" fill="#c1694f"/><path d="m5 36h-1c-.552 0-1-.448-1-1v-14h2zm27 0h-1v-15h2v14c0 .552-.448 1-1 1z" fill="#662113" opacity=".3"/><path d="m5 21h5v15h-5zm21 0h5v15h-5z" fill="#662113" opacity=".15"/><path d="m18.242 4.234c-.177-.129-.4-.132-.58-.007-1.179.823-5.745 4.565-10.379 9.037-3.675 3.546-6.071 7.361-7.162 8.794-.284.374-.033.928.416.928h34.928c.461 0 .707-.584.398-.951-1.562-1.856-5.152-6.882-8.193-9.703-3.573-3.313-8.235-7.228-9.428-8.098z" fill="#ffd983"/><path d="m16.997 5.203s-1.003-1.274-.821-1.813c.148-.437.775-.343.867 0 0 0 .182-.784.593-.882.41-.098.593.735.593.735s.365-.735.775-.588.137.931.137.931.319-.539.775-.196-1.231 2.058-1.231 2.058-1.368.294-1.688-.245zm-15.415 17.1c-.228.735.319 1.225.73 1.274s1.049-.539 1.049-.539.502.539 1.003.637.867-.686.867-.686.365.588 1.049.588.821-.588.821-.588.182.588.821.637.867-.588.867-.588.137.539.912.588.821-.637.821-.637.228.49.775.539.866-.49.866-.49.365.588.958.588.867-.49.867-.49.091.637.684.637.912-.686.912-.686 0 .637.684.637.912-.588.912-.588 0 .637.639.637 1.003-.637 1.003-.637.046.686.821.637.958-.637.958-.637.228.588.775.637.821-.637.821-.637.046.686.73.588.821-.637.821-.637.091.784.775.735.866-.686.866-.686.182.686.821.686.775-.637.775-.637 0 .686.73.637 1.003-.686 1.003-.686.228.637.958.637.775-.588.775-.588.228.588.867.539.775-.539.775-.539.365.539.821.539.73-.637.73-.637.274.735.912.588c.639-.147.456-.931.456-.931l-1.14-1.029-29.052-.098z" fill="#ffd983"/><path d="m16.085 7.064s-6.522 4.997-8.711 7.349-4.424 6.909-4.424 6.909 4.15-5.586 5.245-6.762c1.095-1.175 7.89-7.496 7.89-7.496zm5.519 1.568s2.417 2.94 3.512 4.115c1.095 1.176 4.834 8.33 4.834 8.33s-3.512-5.293-4.743-7.154c-.897-1.355-3.603-5.291-3.603-5.291zm-6.112.637s-2.691 3.038-4.014 5.291c-1.304 2.225-2.051 5.44-2.051 5.44s2.957-5.034 3.74-6.468zm3.649.882s.224 3.052.684 5.634c.41 2.303 1.095 5.929 1.095 5.929s-.319-4.362-.684-6.86c-.34-2.323-1.095-4.703-1.095-4.703z" fill="#ffac33"/><g fill="#c1694f"><path d="m4.958 27.292s-.917 5.667 0 7.667c0 0 .083-4.792.083-5.792s-.083-1.875-.083-1.875zm26.042-.875s.958 7 .042 9c0 0-.241-5.5-.241-6.5s.199-2.5.199-2.5z" opacity=".9"/><path d="m9.958 25.667s-.875 8 .042 10c0 0 .083-6.125.083-7.125s-.125-2.875-.125-2.875zm15.968-.292s.991 7.375.074 9.375c0 0-.157-4.542-.157-5.542s.083-3.833.083-3.833z" opacity=".7"/></g></svg>