<svg viewBox="0 0 36 36" xmlns="http://www.w3.org/2000/svg"><path d="m31 22h-20l-2-12h24z" fill="#ccd6dd"/><path d="m32.984 27h-22c-1.094 0-1.984-.891-1.984-1.984s.906-2.016 2-2.016l.007-.001.008.001h19.985c.489 0 .906-.354.986-.836l2-12c.049-.29-.033-.586-.224-.811-.189-.224-.468-.353-.762-.353h-23.183l-1.04-6.166c-.079-.473-.484-.792-.942-.814-.016-.003-.027-.02-.043-.02h-4.792c-.552 0-1 .448-1 1s.448 1 1 1h3.946l2.903 17.216c-1.642.493-2.849 2-2.849 3.8 0 2.197 1.788 3.984 3.984 3.984h22c.553 0 1-.447 1-1s-.447-1-1-1zm-2.164-10h-3.307l.273-2h3.366zm-5.326 0h-3.494v-2h3.767zm-5.494 0h-3.494l-.273-2h3.767zm-5.512 0h-3.307l-.333-2h3.367zm-2.641 4-.333-2h3.247l.273 2zm5.206 0-.273-2h3.22v2zm4.947 0v-2h3.22l-.273 2zm4.967 0 .273-2h3.247l-.333 2zm4.852-10-.333 2h-3.426l.273-2zm-5.505 0-.273 2h-4.041v-2zm-6.314 0v2h-4.041l-.273-2zm-6.333 0 .273 2h-3.427l-.333-2z" fill="#66757f"/><circle cx="14" cy="31" fill="#e1e8ed" r="3"/><path d="m14 35c-2.206 0-4-1.794-4-4s1.794-4 4-4 4 1.794 4 4-1.794 4-4 4zm0-6c-1.103 0-2 .897-2 2s.897 2 2 2 2-.897 2-2-.897-2-2-2z" fill="#292f33"/><circle cx="28" cy="31" fill="#e1e8ed" r="3"/><path d="m28 35c-2.206 0-4-1.794-4-4s1.794-4 4-4 4 1.794 4 4-1.794 4-4 4zm0-6c-1.103 0-2 .897-2 2s.897 2 2 2 2-.897 2-2-.897-2-2-2z" fill="#292f33"/></svg>