<svg viewBox="0 0 36 36" xmlns="http://www.w3.org/2000/svg"><path d="m34.247 6.324-2.742 2.743s-1.829.914-3.657-.915c-1.829-1.828-.915-3.657-.915-3.657l2.743-2.743c.915-.914-.184-1.752-1.009-1.752-4.051 0-7.334 3.283-7.334 7.333 0 .569.072 1.121.194 1.653l-6.199 6.199 5.485 5.485 6.199-6.198c.533.122 1.084.194 1.654.194 4.05 0 7.333-3.283 7.333-7.333.001-.83-.838-1.923-1.752-1.009zm-19.027 9.04-12.189 12.188c-1.495 1.496-1.495 3.921 0 5.417 1.497 1.495 3.921 1.495 5.417 0l12.187-12.188zm-9.457 16.474c-.819 0-1.482-.664-1.482-1.482s.664-1.483 1.482-1.483c.819 0 1.482.664 1.482 1.483 0 .818-.663 1.482-1.482 1.482z" fill="#8899a6"/><path d="m30.83 33.279c1.166 1.166 3.022 1.221 4.121.121 1.1-1.1 1.045-2.955-.121-4.121l-23.265-23.265c-1.167-1.167-3.021-1.221-4.121-.121s-1.045 2.955.121 4.121z" fill="#f4900c"/><path d="m21.444.893s-6-3-11 2l-7 7s-1-1-2 0l-1 1s-1 1 0 2l4 4s1 1 2 0l1-1s1-1 0-2l-.078-.078c.77-.743 1.923-1.5 3.078-.922l4-4s-1-3 1-5 3-2 5-2 1-1 1-1z" fill="#66757f"/></svg>