<svg viewBox="0 0 36 36" xmlns="http://www.w3.org/2000/svg"><path d="m36 32s0 4-4 4h-28s-4 0-4-4v-28c0-4 4-4 4-4h28c4 0 4 4 4 4z" fill="#88c9f9"/><path d="m0 32c0 4 4 4 4 4h28c4 0 4-4 4-4v-13h-36z" fill="#77b255"/><path d="m31.313 2.678c-.274 0-.539.042-.787.119-.296-.843-1.096-1.449-2.04-1.449-1.013 0-1.86.697-2.096 1.637-.25-.189-.559-.306-.898-.306-.827 0-1.497.67-1.497 1.497 0 .201.041.392.114.567-.144-.04-.292-.068-.446-.068-.919-.001-1.663.743-1.663 1.662s.744 1.663 1.663 1.663h7.65c1.469 0 2.661-1.191 2.661-2.661.001-1.469-1.192-2.661-2.661-2.661z" fill="#f5f8fa"/><path d="m22.375 19h-8.75l-11.362 16.616c.904.379 1.737.384 1.737.384h28c.71 0 1.289-.13 1.77-.338z" fill="#d99e82"/><path d="m4 36h28l-10.625-17h-6.75z" fill="#58595b"/><path d="m6.625 36h22.75l-8.75-17h-5.25z" fill="#808285"/><path d="m24 36h-1l-4-17h.469zm-7-17-4 17h-1l4.484-17z" fill="#ccd6dd"/><path d="m12 33h12v1h-12zm0-3h12v1h-12zm-.062-2.688h12v1h-12zm1.062-2.312h10v1h-10zm2-2h6v1h-6zm0-1.688h6v.688h-6zm0-1.437h6v.688h-6z" fill="#808285"/><path d="m8 21.5c0 .276-.224.5-.5.5s-.5-.224-.5-.5v-11c0-.276.224-.5.5-.5s.5.224.5.5zm21 .096c0 .223-.181.404-.404.404h-.191c-.224 0-.405-.181-.405-.404v-11.192c0-.223.181-.404.404-.404h.191c.224 0 .405.181.405.404z" fill="#66757f"/><path d="m29 10.5c0 .276-.224.5-.5.5h-21c-.276 0-.5-.224-.5-.5s.224-.5.5-.5h21c.276 0 .5.224.5.5zm0 5.116c0 .212-.172.384-.384.384h-21.232c-.212 0-.384-.172-.384-.384v-.232c0-.212.172-.384.384-.384h21.232c.212 0 .384.172.384.384z" fill="#66757f"/><path d="m27 15c0 .552-.447 1-1 1h-16c-.552 0-1-.448-1-1v-4c0-.552.448-1 1-1h16c.553 0 1 .448 1 1z" fill="#5c913b"/><path d="m13 11h2v2h-2z" fill="#a6d488"/><path d="m12 14h4v1h-4z" fill="#77b255"/><path d="m21 11h2v2h-2z" fill="#a6d488"/><path d="m20 14h4v1h-4z" fill="#77b255"/></svg>