<svg viewBox="0 0 36 36" xmlns="http://www.w3.org/2000/svg"><path d="m36 32s0 4-4 4h-28s-4 0-4-4v-28c0-4 4-4 4-4h28c4 0 4 4 4 4z" fill="#88c9f9"/><path d="m0 32c0 4 4 4 4 4h28c4 0 4-4 4-4v-13h-36z" fill="#77b255"/><path d="m29.313 4.678c-.274 0-.539.042-.787.119-.296-.843-1.096-1.449-2.04-1.449-1.013 0-1.86.697-2.096 1.637-.25-.189-.559-.306-.898-.306-.827 0-1.497.67-1.497 1.497 0 .201.041.392.114.567-.144-.04-.292-.068-.446-.068-.919-.001-1.663.743-1.663 1.662s.744 1.663 1.663 1.663h7.65c1.469 0 2.661-1.191 2.661-2.661.001-1.469-1.192-2.661-2.661-2.661z" fill="#f5f8fa"/><path d="m22.375 19h-8.75l-11.362 16.616c.904.379 1.737.384 1.737.384h28c.71 0 1.289-.13 1.77-.338z" fill="#c1694f"/><path d="m4 36h28l-10.625-17h-6.75z" fill="#ccd6dd"/><path d="m6.625 36h22.75l-8.75-17h-5.25z" fill="#58595b"/><path d="m9.25 36h17.5l-6.875-17h-3.75z" fill="#808285"/><path d="m28 35c0 .553-.447 1-1 1h-18c-.552 0-1-.447-1-1s.448-1 1-1h18c.553 0 1 .447 1 1zm-2-4c0 .553-.447 1-1 1h-14c-.552 0-1-.447-1-1s.448-1 1-1h14c.553 0 1 .447 1 1zm-2-4c0 .553-.447 1-1 1h-10c-.552 0-1-.447-1-1s.448-1 1-1h10c.553 0 1 .447 1 1zm-2-3.3c0 .387-.224.7-.5.7h-7c-.276 0-.5-.313-.5-.7s.224-.7.5-.7h7c.276 0 .5.313.5.7zm-1-2.366c0 .221-.18.399-.4.399h-5.2c-.221 0-.4-.179-.4-.399v-.201c0-.221.179-.399.4-.399h5.2c.221 0 .4.179.4.399zm-1-2.102c0 .085-.18.412-.4.412h-3.2c-.221 0-.4-.327-.4-.412v-.078c0-.085.179-.154.4-.154h3.2c.221 0 .4.069.4.154z" fill="#a7a9ac"/><path d="m3.562 15.125c2.133 0 3.554 2.252 4.621 2.252s1.207-.502 2.629-.502 1.859 2.125 3.415 2.125h-14.227l.005-2.001s1.335-1.874 3.557-1.874zm28.876 1.187c-2.133 0-3.554 1.065-4.621 1.065-1.066 0-1.269-.127-2.691-.127s-1.797 1.75-3.353 1.75h14.227l-.006-2.001s-1.334-.687-3.556-.687z" fill="#5c913b"/></svg>