<svg viewBox="0 0 36 36" xmlns="http://www.w3.org/2000/svg"><circle cx="4.5" cy="31.5" fill="#292f33" r="4.5"/><circle cx="4.5" cy="31.5" fill="#dd2e44" r="3"/><circle cx="31.5" cy="31.5" fill="#292f33" r="4.5"/><circle cx="31.5" cy="31.5" fill="#dd2e44" r="3"/><path d="m31.5 33h-20c-.825 0-1.5-.675-1.5-1.5s.675-1.5 1.5-1.5h20c.825 0 1.5.675 1.5 1.5s-.675 1.5-1.5 1.5z" fill="#55acee"/><path d="m26.012 31.746c-.003-.082-.012-.163-.012-.246 0-3.038 2.462-5.5 5.5-5.5 1.21 0 2.326.396 3.234 1.058l.89-1.205c-1.158-.847-2.58-1.353-4.125-1.353-3.866 0-7 3.134-7 7 0 .102.011.201.015.302zm-20.383-5.629c2.495.52 4.369 2.73 4.371 5.378l3.5.003c-.001-4.34-3.074-7.962-7.163-8.81-.232 1.13-.476 2.31-.708 3.429z" fill="#55acee"/><path d="m4.395 31.998c-.269-.057-.442-.324-.385-.593l6.002-28.238c.057-.269.324-.442.593-.385s.442.324.385.593l-6.002 28.238c-.057.269-.324.442-.593.385z" fill="#99aab5"/><path d="m6.123 26.261-.978-.208c-.538-.114-.885-.648-.77-1.186l1.247-5.869c.114-.538.648-.885 1.186-.77l.978.208c.538.114.885.648.77 1.186l-1.246 5.868c-.115.538-.649.885-1.187.771z" fill="#55acee"/><path d="m9.3 4.324-1.957-.416c-.807-.172-1.327-.972-1.155-1.779.171-.807.972-1.327 1.779-1.156l1.956.416c.807.172 1.327.972 1.155 1.779-.171.807-.972 1.327-1.778 1.156z" fill="#dd2e44"/><path d="m10.84 1.675c-.807-.172-1.608.348-1.779 1.155l-1.351 6.358c-.114.538.232 1.072.77 1.186l.978.208c.538.114 1.072-.232 1.186-.77l1.351-6.358c.172-.807-.348-1.607-1.155-1.779z" fill="#55acee"/><path d="m14.105 5.345-2.934-.624c-.807-.172-1.327-.972-1.155-1.779s.972-1.327 1.779-1.155l2.934.624c.807.172 1.327.972 1.155 1.779-.171.807-.972 1.327-1.779 1.155z" fill="#dd2e44"/><path d="m15.903 4.194c-.172.81-.969 1.328-1.779 1.155-.81-.172-1.328-.969-1.155-1.779.172-.81.969-1.328 1.779-1.155s1.328.968 1.155 1.779z" fill="#ea596e"/><circle cx="35.19" cy="26.46" fill="#55acee" r=".74"/></svg>