<svg viewBox="0 0 36 36" xmlns="http://www.w3.org/2000/svg"><path d="m33.793 17s-1.317 3-15.793 3c-14.477 0-16.027-3-16.027-3s-2.973 5.117 2.829 8c4.238 2.105 10.916-.131 12.723-.814 1.991.683 9.274 2.824 13.557.814 5.862-2.751 2.711-8 2.711-8z" fill="#dd2e44"/><path d="m0 24h36v12h-36z" fill="#55acee"/><path d="m27.005 25.389c.206 0 .412-.079.569-.236.315-.315.315-.824 0-1.139l-8.861-8.86c-.315-.315-.824-.315-1.139 0s-.315.824 0 1.139l8.861 8.86c.158.157.364.236.57.236z" fill="#ffac33"/><path d="m29.316 28.505c.412 0 .825-.157 1.139-.472.629-.629.629-1.649 0-2.278l-2.416-2.416c-.629-.629-1.65-.629-2.278 0-.629.629-.629 1.649 0 2.278l2.416 2.416c.314.315.727.472 1.139.472z" fill="#ffcc4d"/></svg>