<svg viewBox="0 0 36 36" xmlns="http://www.w3.org/2000/svg"><path d="m32.436 2.821c1.801 1.799 3.779 2.737 0 6.517l-19.552 19.551c-4.594 4.595-5.463 7.571-11.405 1.63-3.258-3.258.284-3.543 4.888-8.148l19.552-19.55c1.8-1.8 4.718-1.8 6.517 0z" fill="#a0041e"/><path d="m33.936 4.321c1.801 1.799 1.801 4.717 0 6.517l-19.551 19.551c-4.073 4.073-8.342 4.693-11.405 1.63-3.258-3.258.284-3.543 4.888-8.148l19.552-19.55c1.799-1.8 4.717-1.8 6.516 0z" fill="#dd2e44"/><path d="m15.301 33.18c.927.929 2.687.673 3.932-.572 1.244-1.244 1.501-3.004.572-3.932-.927-.928-2.688-.672-3.932.572-1.245 1.245-1.501 3.005-.572 3.932z" fill="#3b88c3"/><path d="m19.068 27.937-4.506 4.506.739.737 4.504-4.504z" fill="#3b88c3"/><path d="m14.613 32.493c.928.928 2.688.672 3.932-.573 1.245-1.244 1.501-3.004.573-3.932s-2.688-.672-3.932.572c-1.245 1.246-1.501 3.005-.573 3.933z" fill="#88c9f9"/><path d="m17.651 29.396c.302.367.243.973-.207 1.423s-1.032.477-1.422.207c-3.468-2.396-3.067-3.798-2.617-4.248.449-.45 1.148-1.148 4.246 2.618z" fill="#808285"/><path d="m16.243 29.83c-1.103 1.237-2.763.609-3.935-.562s-1.302-2.466-.13-3.638c1.171-1.172 2.36-.703 3.531.469 1.172 1.171 1.756 2.359.534 3.731z" fill="#a7a9ac"/><path d="m9.139 27.4c1.006 1.008 2.916.729 4.265-.621 1.351-1.35 1.628-3.259.622-4.266s-2.916-.729-4.266.621c-1.351 1.351-1.629 3.261-.621 4.266z" fill="#3b88c3"/><path d="m13.226 21.712-4.888 4.89.801.798 4.886-4.886z" fill="#3b88c3"/><path d="m8.393 26.655c1.007 1.007 2.917.729 4.266-.622 1.351-1.35 1.628-3.259.622-4.266s-2.916-.728-4.266.621c-1.351 1.351-1.629 3.26-.622 4.267z" fill="#88c9f9"/><path d="m11.651 23.396c.336.335.243.973-.207 1.423s-1.086.542-1.422.207c-.335-.336-.243-.973.208-1.423.449-.45 1.085-.541 1.421-.207zm17.651-4.216c.927.929 2.687.673 3.931-.572 1.244-1.244 1.5-3.004.572-3.932s-2.687-.672-3.931.572c-1.245 1.246-1.502 3.005-.572 3.932z" fill="#3b88c3"/><path d="m33.068 13.937-4.505 4.507.739.736 4.503-4.504z" fill="#3b88c3"/><path d="m28.614 18.494c.928.927 2.687.671 3.931-.573s1.5-3.004.572-3.932-2.686-.672-3.931.572c-1.244 1.245-1.501 3.005-.572 3.933z" fill="#88c9f9"/><path d="m31.65 15.397c.303.367.244.973-.207 1.423-.449.45-1.03.477-1.421.207-3.469-2.396-3.068-3.798-2.617-4.248.449-.45 1.149-1.149 4.245 2.618z" fill="#808285"/><path d="m30.243 15.831c-1.103 1.237-2.764.609-3.935-.562-1.172-1.171-1.302-2.466-.13-3.638s2.359-.703 3.531.469c1.173 1.17 1.756 2.358.534 3.731z" fill="#a7a9ac"/><path d="m23.14 13.401c1.006 1.008 2.915.729 4.265-.621 1.351-1.35 1.628-3.259.622-4.266-1.007-1.007-2.916-.729-4.266.621-1.352 1.351-1.629 3.26-.621 4.266z" fill="#3b88c3"/><path d="m22.341 12.601 4.887-4.889.8.8-4.886 4.89z" fill="#3b88c3"/><path d="m22.394 12.656c1.006 1.007 2.916.729 4.266-.622 1.35-1.35 1.628-3.259.621-4.266-1.006-1.007-2.916-.729-4.266.621-1.351 1.351-1.629 3.26-.621 4.267z" fill="#88c9f9"/><path d="m25.651 9.397c.336.335.243.973-.207 1.423s-1.086.542-1.422.207c-.336-.336-.243-.973.207-1.423.451-.45 1.086-.542 1.422-.207z" fill="#3b88c3"/></svg>