<svg viewBox="0 0 36 36" xmlns="http://www.w3.org/2000/svg"><circle cx="18" cy="18" fill="#ffcc4d" r="18"/><g fill="#664500"><ellipse cx="12.5" cy="16.5" rx="2.5" ry="3.5"/><ellipse cx="23.5" cy="16.5" rx="2.5" ry="3.5"/><path d="m29 12c-5.554 0-7.802-4.367-7.895-4.553-.247-.494-.047-1.095.447-1.342.492-.247 1.092-.048 1.34.443.075.146 1.821 3.452 6.108 3.452.553 0 1 .448 1 1 0 .553-.447 1-1 1zm-22-.006c-.552 0-1-.448-1-1s.448-1 1-1c5.083 0 5.996-3.12 6.033-3.253.145-.528.69-.848 1.219-.709.53.139.851.673.718 1.205-.049.194-1.266 4.757-7.97 4.757z"/></g><path d="m35.968 17.068-4.005.813-16.187 10.508 7.118.963 11.685-7.211c.703-.431.994-.835 1.198-1.747s.191-3.326.191-3.326z" fill="#ffac33"/><path d="m23.485 29.379c-.011-.044-1.145-2.879-5.485-2.879s-5.474 2.835-5.485 2.879c-.053.213.044.431.232.544.188.112.433.086.596-.06.009-.008 1.013-.863 4.657-.863 3.59 0 4.617.83 4.656.863.095.09.219.137.344.137.084 0 .169-.021.246-.064.196-.112.294-.339.239-.557z" fill="#664500"/><path d="m35.474 15.729c-.829-1.104-2.397-1.328-3.501-.5l-17.206 12.908c.646-.242 1.51-.444 2.615-.522.256-.018 2.66-.627 2.66-.627l1.293 1.036s.911.367 1.197.539l12.444-9.335c1.103-.827 1.326-2.395.498-3.499z" fill="#ccd6dd"/><path d="m28.686 20.87c-.448-.596-.787-1.145-1.383-.698l-9.922 7.443c.256-.018.5-.042.783-.044 1.36-.009 2.4.195 3.17.452l7.588-5.692c.596-.447.211-.864-.236-1.461z" fill="#da2f47"/><path d="m18.599 25.228 1.234 1.598.741-.595-1.197-1.587zm2.223-1.661 1.235 1.598.741-.595-1.197-1.587zm2.184-1.619 1.234 1.598.741-.595-1.197-1.587zm2.181-1.66 1.235 1.597.741-.594-1.197-1.587zm2.238-1.641 1.235 1.598.74-.595-1.196-1.587zm2.14-1.618 1.235 1.598.74-.595-1.196-1.587z" fill="#67757f"/><path d="m22.531 28.563.805.522s-.197-.362-.526-.726z" fill="#452e04"/></svg>