<svg viewBox="0 0 36 36" xmlns="http://www.w3.org/2000/svg"><circle cx="16" cy="18" fill="#ffcc4d" r="16"/><path d="m11.471 13.529c0 1.706-.987 3.088-2.206 3.088s-2.206-1.382-2.206-3.088c0-1.705.987-3.088 2.206-3.088 1.218 0 2.206 1.383 2.206 3.088zm11.529 0c0 1.706-.987 3.088-2.206 3.088-1.218 0-2.206-1.382-2.206-3.088 0-1.705.988-3.088 2.206-3.088 1.219 0 2.206 1.383 2.206 3.088zm-12.882 15.853c1.765-4.412 11.471-4.412 11.471-2.647-.001.883-7.06-.882-11.471 2.647z" fill="#664500"/><path d="m32.262 17.5h-15.262c-1.511 0-2.734 1.344-2.734 3 0 1.657 1.224 3 2.734 3h15.262c1.513 0 2.738-1.343 2.738-3 0-1.656-1.226-3-2.738-3z" fill="#f4900c"/></svg>