<svg viewBox="0 0 36 36" xmlns="http://www.w3.org/2000/svg"><path d="m35.597 14.232c2.083 9.72-4.108 19.289-13.828 21.372s-19.289-4.108-21.372-13.828 4.109-19.289 13.828-21.372c9.72-2.084 19.289 4.108 21.372 13.828" fill="#ffcb4c"/><path d="m29.284 9.012c.779 3.636-1.537 7.216-5.173 7.995s-7.216-1.537-7.996-5.173c-.779-3.636 1.537-7.216 5.173-7.995s7.217 1.536 7.996 5.173z" fill="#f4f7f9"/><circle cx="22.306" cy="9.291" fill="#292f33" r="2.037"/><path d="m14.088 14.282c.456 2.126-.899 4.219-3.025 4.675s-4.219-.899-4.675-3.025.899-4.219 3.025-4.675 4.219.899 4.675 3.025z" fill="#f4f7f9"/><ellipse cx="10.238" cy="15.857" fill="#292f33" rx="1.942" ry="1.942" transform="matrix(.97780153 -.20953323 .20953323 .97780153 -3.094507 2.496695)"/><path d="m18.625 20.937c-3.543.759-5.981.85-9.01.908-.691.015-1.955.419-1.536 2.375.838 3.911 6.379 7.837 12.642 6.495 6.262-1.342 9.708-7.194 8.87-11.105-.419-1.956-1.739-1.808-2.375-1.536-2.786 1.187-5.048 2.104-8.591 2.863z" fill="#65471b"/><path d="m11 24.004v6c0 3 2 6 6 6s6-3 6-6v-6z" fill="#e8596e"/><path d="m17 31.883c.301 0 .545-.244.545-.545v-6.295h-1.091v6.295c.001.301.245.545.546.545z" fill="#dd2f45"/><path d="m10.034 23.801s3.143.349 9.01-.908 8.591-2.864 8.591-2.864-1.117 4.33-7.962 5.797-9.639-2.025-9.639-2.025z" fill="#fff"/></svg>