<svg viewBox="0 0 36 36" xmlns="http://www.w3.org/2000/svg"><path d="m35 17c0 9.389-7.611 17-17 17-9.388 0-17-7.611-17-17 0-9.388 7.612-17 17-17 9.389 0 17 7.612 17 17" fill="#ffcc4d"/><path d="m28.457 14.297c-.06-.135-1.499-3.297-4.457-3.297-2.957 0-4.397 3.162-4.457 3.297-.092.207-.032.449.145.591.175.142.426.147.61.014.012-.009 1.262-.902 3.702-.902 2.426 0 3.674.881 3.702.901.088.066.194.099.298.099.11 0 .221-.037.312-.109.177-.142.238-.386.145-.594zm-12 0c-.06-.135-1.499-3.297-4.457-3.297-2.957 0-4.397 3.162-4.457 3.297-.092.207-.032.449.144.591s.427.147.61.014c.013-.009 1.262-.902 3.703-.902 2.426 0 3.674.881 3.702.901.088.066.194.099.298.099.11 0 .221-.037.312-.109.178-.142.237-.386.145-.594z" fill="#664500"/><path d="m26.503 27.371s.997-.721.165-1.614-1.621.052-1.621.052l-4.147 3.866c-.069-.205-.459-.743-.55-.947l5.755-5.366s.998-.721.164-1.615c-.832-.892-1.622.051-1.622.051l-5.413 5.046c-.125-.158-.461-.54-.594-.698l6.276-5.85s.997-.722.164-1.614c-.832-.893-1.621.051-1.621.051l-6.278 5.848c-.15-.145-.612-.609-.764-.746l5.866-5.468s.996-.722.164-1.614c-.833-.893-1.621.051-1.621.051l-6.203 5.781-.497.464-.222.207s-.538.744-1.087.179l1.842-4.158s.58-1.074-.493-1.655c-1.075-.581-1.655.493-1.655.493l-1.668 2.758c-.663 1.093-1.349 2.178-2.159 3.167-2.284 2.793-2.211 6.914.318 9.629 2.759 2.959 7.396 3.122 10.355.364l.447-.418 6.699-6.244z" fill="#f4900c"/></svg>