<svg viewBox="0 0 36 36" xmlns="http://www.w3.org/2000/svg"><g fill="#f18f26"><path d="m0 18h36v9h-36z"/><ellipse cx="18" cy="26" rx="18" ry="9"/><ellipse cx="18" cy="27" rx="18" ry="9"/></g><path d="m0 10v16h.117c.996 4.499 8.619 8 17.883 8s16.887-3.501 17.883-8h.117v-16z" fill="#9d0522"/><ellipse cx="18" cy="11" fill="#f18f26" rx="18" ry="9"/><ellipse cx="18" cy="12" fill="#f18f26" rx="18" ry="9"/><path d="m0 10h1v2h-1zm35 0h1v2h-1z" fill="#f18f26"/><ellipse cx="18" cy="10" fill="#fcab40" rx="18" ry="9"/><ellipse cx="18" cy="10" fill="#f5f8fa" rx="17" ry="8"/><path d="m18 3c9.03 0 16.395 3.316 16.946 7.5.022-.166.054-.331.054-.5 0-4.418-7.611-8-17-8s-17 3.582-17 8c0 .169.032.334.054.5.551-4.184 7.916-7.5 16.946-7.5z" fill="#fdd888"/><path d="m28.601 2.599c.44-.33.53-.96.2-1.4l-.6-.8c-.33-.44-.96-.53-1.4-.2l-12.644 10.044c-.774-.167-1.785.083-2.673.749-1.326.994-1.863 2.516-1.2 3.4s2.275.794 3.6-.2c.835-.626 1.355-1.461 1.462-2.215zm5.868 2.919-.509-.861c-.28-.474-.896-.632-1.37-.352l-13.913 8.751c-.719-.141-1.626.023-2.472.524-1.426.843-2.127 2.297-1.565 3.248s2.174 1.039 3.6.196c1.005-.594 1.638-1.49 1.735-2.301l14.142-7.835c.474-.281.632-.897.352-1.37z" fill="#aa695b"/><path d="m2 28c-.55 0-1-.45-1-1v-9c0-.55.45-1 1-1s1 .45 1 1v9c0 .55-.45 1-1 1zm9 4c-.55 0-1-.45-1-1v-9c0-.55.45-1 1-1s1 .45 1 1v9c0 .55-.45 1-1 1zm12 0c-.55 0-1-.45-1-1v-9c0-.55.45-1 1-1s1 .45 1 1v9c0 .55-.45 1-1 1zm11-4c-.55 0-1-.45-1-1v-9c0-.55.45-1 1-1s1 .45 1 1v9c0 .55-.45 1-1 1z" fill="#da2f47"/></svg>