<svg viewBox="0 0 36 36" xmlns="http://www.w3.org/2000/svg"><path d="m34 6c-2-3-9-4-16-4s-15 1-16 3c-1.907 3.814-1 20-1 21s5 1 5 1v-13l1-2v23s3 1 11 1 11-1 11-1v-23l1 2v13s5 0 5-1 1.365-16.452-1-20z" fill="#e1e8ed"/><path d="m7 27h-1v-13c0-1 1-2 1-2zm23 0h-1v-15s1 1 1 2z" fill="#99aab5"/><path d="m11.781 2 6.281 11.344 5.938-11.344-6.109-1.25z" fill="#66757f"/><path d="m12 .625s2.25-.547 6-.547 6 .547 6 .547v2.375s-1.625-1-6-1-6 1-6 1z" fill="#ccd6dd"/><path d="m7 35s17.748-31.659 17.748-32.638c0-1-.748-1.737-.748-1.737l-17 31.375z" fill="#99aab5"/><path d="m17.818 14.722s-6.692-11.381-6.692-12.36c0-1 .874-1.737.874-1.737l6.761 12.573z" fill="#99aab5"/><g fill="#292f33"><path d="m7 22s5 2 11 2 11-2 11-2v3s-4 2-11 2-11-2-11-2z"/><path d="m21 24s-2-1-3-1-3 1-3 1-1 0-1 1 1 2 1 2 2 1 3 1 3-1 3-1 1-1 1-2-1-1-1-1z"/><path d="m12 33 3 1s1-5 3-7l-2-3s-3 4-4 9zm12 0-3 1s-1-5-3-7l2-3s3 4 4 9z"/></g></svg>