<svg viewBox="0 0 36 36" xmlns="http://www.w3.org/2000/svg"><path d="m26.864 8h-8.864v28c6 0 10-1 11.393-7.015.774-3.342 1.663-12.335 1.663-17.841 0-1.865-1.433-3.144-4.192-3.144zm-17.972 0h9.108v28c-6 0-10-1-11.515-7.015-.838-3.327-1.724-12.335-1.724-17.841 0-1.865 1.371-3.144 4.131-3.144z" fill="#8899a6"/><path d="m31.052 10.5c0 2.071-3.13 3.75-13.057 3.75-9.926 0-13.057-1.679-13.057-3.75 0-2.072 3.131-3.75 13.057-3.75 9.927 0 13.057 1.678 13.057 3.75z" fill="#ccd6dd"/><path d="m18.025 12.997-11.509-.997c0 7 1.104 14.382 1.681 16.572.662 2.509 2.803 2.409 9.803 2.426v.002-.002c7-.018 9.166.083 9.827-2.426.578-2.19 1.693-9.572 1.693-16.572z" fill="#ccd6dd"/><path d="m18 21v13c7 0 9-1 9.857-5.428.241-1.243.807-4.075 1.174-7.572zm-10.981 0c.366 3.497.915 6.327 1.149 7.572.832 4.428 2.832 5.428 9.832 5.428v-13z" fill="#55acee"/><path d="m18 30.16c-4.556 0-8.249.895-8.249 2 0 .009.005.018.006.028 1.397 1.41 3.821 1.812 8.243 1.812 4.413 0 6.836-.4 8.241-1.803.001-.012.008-.024.008-.037 0-1.105-3.693-2-8.249-2z" fill="#3b88c3"/><ellipse cx="17.995" cy="21" fill="#88c9f9" rx="11.016" ry="2"/><path d="m33.958.936-6.824 1.697c-.751.187-1.565.577-2.44 1.239-1.643 1.243-1.978 2.93-2.246 3.861l-4.108 14.267h3.122l3.868-13.436c.264-.916.526-1.702 1.129-2.249.534-.484 1.417-.769 2.244-.983l5.977-1.483c.801-.199 1.293-1.016 1.095-1.817-.199-.802-1.016-1.295-1.817-1.096z" fill="#e1e8ed"/><path d="m18.34 22-2.671 9.277c-.228.793.234 1.628 1.026 1.857.793.228 1.628-.234 1.856-1.026l2.911-10.108z" fill="#88c9f9"/><path d="m18.641 22.677-.588.322-.273.947 2.066 3.669.776-2.696-1.261-2.241z" fill="#744eaa"/><path d="m27.906 2.441-1.128 3.647c.531-.347 1.242-.58 1.927-.757l.434-.108 1.035-3.346z" fill="#dd2e44"/><path d="m17.045 26.499-.777 2.697 1.962 3.485c.144-.162.258-.353.322-.574l.558-1.939z" fill="#744eaa"/><path d="m20.048 16.068-.777 2.698 1.381 2.452.472.105.626-.323.364-1.262zm14.447-15.161c-.175-.021-.356-.016-.537.029l-1.696.422-1.036 3.347 2.267-.563zm-13.704 12.581 2.066 3.668.776-2.696-2.065-3.669zm3.862-9.579c-.798.617-1.285 1.338-1.601 2.022l1.32 5.968.96-3.335c.066-.23.133-.452.204-.664z" fill="#dd2e44"/><path d="m18.663 20.881-.61 2.119c1.094-.001 2.15-.031 3.147-.086l.585-2.032c-.938.483-2.894.181-3.122-.001z" fill="#55acee"/><path d="m29.615 11.309c-.242-.649-.954-.975-1.584-.724-3.606 1.416-7.044 1.909-10.036 1.937v2.492c3.333-.034 7.089-.577 10.913-2.08.633-.248.95-.976.707-1.625zm-23.24 0c.242-.649.954-.975 1.584-.724 3.606 1.416 7.044 1.909 10.036 1.937v2.492c-3.333-.034-7.089-.577-10.913-2.08-.632-.248-.95-.976-.707-1.625z" fill="#fff"/></svg>