<svg viewBox="0 0 36 36" xmlns="http://www.w3.org/2000/svg"><path d="m18.09 9.295c-10.243 0-17.517 3.893-17.517 8.758 0 7.569 5.839 15.57 17.517 15.57s17.517-8.001 17.517-15.57c0-4.865-7.274-8.758-17.517-8.758z" fill="#c1694f"/><path d="m18.09 8.322c-10.243 0-17.517 3.639-17.517 9.605s7.273 9.858 17.517 9.858c10.243 0 17.517-4.146 17.517-9.858s-7.274-9.605-17.517-9.605z" fill="#d99e82"/><path d="m2.519 20.973c-.973.973 4.866 6.812 7.785 3.893s5.942 1.511 6.812 1.946c1.946.973 6.754-4.408 11.678-1.946 1.947.973 4.866-1.946 4.866-4.866 0-2.919-30.167 0-31.141.973z" fill="#ccd6dd"/><path d="m2.422 19.462s-.181.378-.169.496c.217 2.144 5.132 6.854 8.052 3.935 2.919-2.919 5.942 1.511 6.812 1.946 1.946.973 6.754-4.408 11.678-1.946 1.608.804 4.848-2.228 5.258-4.811-2.136 0-31.631.38-31.631.38z" fill="#fff"/><path d="m18.733 2.583c-4.165-.243-17.928 1.937-18.426 14.012.01.608.592 1.741 2.114 2.867 2.556 1.891 7.765 3.764 17.378 3.103 8.374-.576 12.357-2.1 14.253-3.483 1.577-1.15 1.711-2.203 1.711-2.532.001-3.89-3.541-13.164-17.03-13.967z" fill="#c1694f"/><path d="m14.468 10.228c1.188.461 2.637.578 3.799.622 1.54.058 3.13-.13 4.572-.699 0-.963 0-2.838-4.186-2.838s-4.185 1.771-4.185 2.915z" fill="#fff"/><path d="m18.811 6.302c-3.959-.262-7.406 2.073-5.272 3.453.279.191.596.344.93.473.897-.78 2.572-1.596 4.285-1.521 2.026.089 3.393.727 4.086 1.444.312-.123.62-.258.917-.419 1.489-1.108-.056-3.106-4.946-3.43z" fill="#8a4b38"/><g fill="#d99e82"><path d="m9.226 9.736c-.535.226-2.352.483-2.578-.052s1.225-1.659 1.76-1.885 1.152.024 1.378.559c.225.535-.025 1.152-.56 1.378zm22.199-.506c.311.349.977 1.667.628 1.978s-1.581-.503-1.892-.852-.28-.884.069-1.194c.349-.312.884-.281 1.195.068zm-6.578 8.119c-.442.152-1.915.258-2.067-.184s1.075-1.264 1.517-1.416.923.083 1.075.525-.083.923-.525 1.075zm-16.86-3.013c-.393.428-1.839 1.308-2.267.915s.325-1.909.718-2.337 1.058-.456 1.485-.064c.429.393.457 1.058.064 1.486z"/><ellipse cx="17.539" cy="4.159" rx="1.216" ry=".566" transform="matrix(1 -.0076 .0076 1 -.031 .133)"/></g></svg>