<svg viewBox="0 0 36 36" xmlns="http://www.w3.org/2000/svg"><circle cx="18" cy="18" fill="#ffcc4d" r="18"/><path d="m20.996 28.477a.978.978 0 0 1 -.309-.049 8.647 8.647 0 0 0 -5.375 0 1 1 0 1 1 -.617-1.902 10.633 10.633 0 0 1 6.609 0c.525.172.813.736.643 1.26a1.002 1.002 0 0 1 -.951.691zm7.998-18.466a1.005 1.005 0 0 0 -.983-1.011c-.067-.001-1.653-.056-3.304-1.707a1 1 0 1 0 -1.414 1.414c2.267 2.267 4.608 2.293 4.707 2.293a.995.995 0 0 0 .994-.989zm-16.287-1.304a.998.998 0 0 0 -.324-1.63 1 1 0 0 0 -1.09.216c-1.641 1.641-3.218 1.705-3.303 1.707a1 1 0 0 0 .01 2c.099 0 2.44-.026 4.707-2.293z" fill="#65471b"/><path d="m24.5 23a5.5 5.5 0 1 0 0-11 5.5 5.5 0 0 0 0 11z" fill="#fff"/><path d="m24.5 22a5 5 0 1 0 0-10 5 5 0 0 0 0 10z" fill="#292f33"/><path d="m24.337 16.836c1.044-1.046 1.23-2.552.417-3.364-.813-.813-2.32-.625-3.363.42-1.045 1.046-1.231 2.552-.418 3.364.814.813 2.32.625 3.364-.42zm3.288 2.845c.458-.459.54-1.12.183-1.477s-1.019-.274-1.478.185c-.458.459-.54 1.12-.183 1.477s1.019.275 1.478-.184zm-16.125 3.319a5.5 5.5 0 1 0 0-11 5.5 5.5 0 0 0 0 11z" fill="#fff"/><path d="m11.5 22a5 5 0 1 0 0-10 5 5 0 0 0 0 10z" fill="#292f33"/><path d="m11.337 16.836c1.044-1.046 1.23-2.552.417-3.364-.813-.813-2.32-.625-3.363.42-1.045 1.046-1.231 2.552-.418 3.364.814.813 2.32.625 3.364-.42zm3.287 2.845c.46-.459.541-1.12.184-1.477s-1.019-.274-1.478.185c-.458.459-.54 1.12-.183 1.477s1.019.275 1.477-.184z" fill="#fff"/></svg>