<svg viewBox="0 0 36 36" xmlns="http://www.w3.org/2000/svg"><circle cx="18" cy="18" fill="#ffcc4d" r="18"/><g fill="#664500"><ellipse cx="12" cy="13.5" rx="2.5" ry="3.5"/><ellipse cx="24" cy="13.5" rx="2.5" ry="3.5"/><path d="m27.335 22.629c-.178-.161-.444-.171-.635-.029-.039.029-3.922 2.9-8.7 2.9-4.766 0-8.662-2.871-8.7-2.9-.191-.142-.457-.13-.635.029-.177.16-.217.424-.094.628.129.215 3.217 5.243 9.429 5.243s9.301-5.028 9.429-5.243c.123-.205.084-.468-.094-.628z"/></g><path d="m29.5 27.5c0 2.762-2.238 5-5 5s-5-2.238-5-5 4-10 5-10 5 7.238 5 10z" fill="#5dadec"/></svg>