<svg viewBox="0 0 36 36" xmlns="http://www.w3.org/2000/svg"><circle cx="18" cy="18" fill="#ffcc4d" r="18"/><path d="m22.657 25.637a.513.513 0 0 1 .597-.06.497.497 0 0 1 .231.544c-.011.044-1.145 4.379-5.485 4.379s-5.474-4.335-5.484-4.38a.5.5 0 0 1 .838-.474s1.005.854 4.646.854c3.644 0 4.647-.855 4.657-.863z" fill="#664500"/><path d="m28.994 10.011a1.005 1.005 0 0 0 -.983-1.011c-.067-.001-1.653-.056-3.304-1.707a1 1 0 1 0 -1.414 1.414c2.267 2.267 4.608 2.293 4.707 2.293a.995.995 0 0 0 .994-.989zm-16.287-1.304a.998.998 0 0 0 -.324-1.63 1 1 0 0 0 -1.09.216c-1.641 1.641-3.218 1.705-3.303 1.707a1 1 0 0 0 .01 2c.099 0 2.44-.026 4.707-2.293z" fill="#65471b"/><path d="m24.5 23a5.5 5.5 0 1 0 0-11 5.5 5.5 0 0 0 0 11z" fill="#fff"/><path d="m24.5 22a5 5 0 1 0 0-10 5 5 0 0 0 0 10z" fill="#292f33"/><path d="m24.337 16.836c1.044-1.046 1.23-2.552.417-3.364-.813-.813-2.32-.625-3.363.42-1.045 1.046-1.231 2.552-.418 3.364.814.813 2.32.625 3.364-.42zm3.288 2.845c.458-.459.54-1.12.183-1.477s-1.019-.274-1.478.185c-.458.459-.54 1.12-.183 1.477s1.019.275 1.478-.184zm-16.125 3.319a5.5 5.5 0 1 0 0-11 5.5 5.5 0 0 0 0 11z" fill="#fff"/><path d="m11.5 22a5 5 0 1 0 0-10 5 5 0 0 0 0 10z" fill="#292f33"/><path d="m11.337 16.836c1.044-1.046 1.23-2.552.417-3.364-.813-.813-2.32-.625-3.363.42-1.045 1.046-1.231 2.552-.418 3.364.814.813 2.32.625 3.364-.42zm3.287 2.845c.46-.459.541-1.12.184-1.477s-1.019-.274-1.478.185c-.458.459-.54 1.12-.183 1.477s1.019.275 1.477-.184z" fill="#fff"/><path d="m29 21c0 .105-1.015 2-4.5 2s-4.5-1.895-4.5-2c-2-3.105 2.015 0 4.5 0s6.5-3.105 4.5 0zm-13 0c0 .105-1.015 2-4.5 2s-4.5-1.895-4.5-2c-2-3.105 2.015 0 4.5 0s6.5-3.105 4.5 0z" fill="#5dadec"/></svg>