<svg viewBox="0 0 36 36" xmlns="http://www.w3.org/2000/svg"><path d="m1.339 31.21c-.194.535 0 1.847.292 2.381.292.535 1.458.826 2.77.923s3.499 0 4.227-.097c.337-.045.926-.798 1.992-.875 1.118-.08 4.033.072 6.521.183 1.799.081 5.922.812 9.223.886 2.332.052 5.831-.437 7.629-1.069s2.38-2.53 1.166-2.624c-1.215-.094-33.82.292-33.82.292z" fill="#231f20"/><path d="m.764 24.065c.384-1.355 1.484-1.762 2.551-1.206 1.067.557 9.369 4.035 13.868 5.009s7.004.649 8.117 0 2.273-1.391 2.968-1.16c.696.232 4.36 1.484 5.705 1.994 1.073.407 1.855 1.531 1.67 2.505s-1.206 1.531-3.34 1.948c-2.866.561-7.176.746-10.853.232-4.313-.603-10.436-.557-13.636-.371-2.269.132-5.844.093-6.586-1.067-.742-1.159-1.438-4.452-.464-7.884z" fill="#3e721d"/><path d="m3.283 23.436c.893.592 9.956 4.148 13.298 5.128 2.397.703 5.896 1.14 8.21.603 1.757-.408 2.644-1.16 2.968-1.577.325-.417.359-.9-.506-.706-.107.024-.323.082-.462.149-.475.233-.987.542-1.491.836-1.113.649-3.618.974-8.117 0s-12.802-4.453-13.868-5.009c-1.113-.372-.72.119-.032.576z" fill="#d99e82"/></svg>