<svg viewBox="0 0 36 36" xmlns="http://www.w3.org/2000/svg"><g fill="#9aaab4"><path d="m18 9v11.756c-3 0-1.067 5.182-6 5.999-1.781.295-3.931.355-6 0-3.253-.559-4.824-3.027-5.042-7.681-.281-5.993 1.276-8.847 5.318-9.533 3.118-.529 7.724-.541 11.724-.541z"/><path d="m17.926 9v11.756c3 0 1.067 5.182 6 5.999 1.781.295 3.931.355 6 0 3.253-.559 4.824-3.027 5.042-7.681.281-5.993-1.276-8.847-5.318-9.533-3.118-.529-7.724-.541-11.724-.541zm-16.426 12c-.825 0-1.5-.675-1.5-1.5v-3c0-.825.675-1.5 1.5-1.5s1.5.675 1.5 1.5v3c0 .825-.675 1.5-1.5 1.5z"/><path d="m34.5 21c-.825 0-1.5-.675-1.5-1.5v-3c0-.825.675-1.5 1.5-1.5s1.5.675 1.5 1.5v3c0 .825-.675 1.5-1.5 1.5z"/><path d="m34.5 22c-.825 0-1.5-.675-1.5-1.5v-5c0-.825.675-1.5 1.5-1.5s1.5.675 1.5 1.5v5c0 .825-.675 1.5-1.5 1.5zm-33 0c-.825 0-1.5-.675-1.5-1.5v-5c0-.825.675-1.5 1.5-1.5s1.5.675 1.5 1.5v5c0 .825-.675 1.5-1.5 1.5z"/></g><path d="m18 11v7.756c-4 0-2.615 5.396-7 6-1.583.218-2.161.263-4 0-2.892-.413-3.922-2.555-4.169-5.89-.325-4.394 1.266-6.959 4.859-7.466 2.771-.391 6.754-.4 10.31-.4z" fill="#ccd6dd"/><path d="m18 11v7.756c4 0 2.615 5.396 7 6 1.583.218 2.161.263 4 0 2.892-.413 3.922-2.555 4.169-5.89.325-4.394-1.266-6.959-4.859-7.466-2.771-.391-6.754-.4-10.31-.4z" fill="#ccd6dd"/><path d="m26.993 11.252c-.655-.061-1.35-.107-2.077-.142l-3.695 10.151c.378.76.75 1.56 1.323 2.212zm-8.993-.252c-.646 0-1.308.001-1.973.004l-5.003 13.747c4.354-.621 2.984-5.995 6.976-5.995.601 0 1.07.133 1.466.342l2.937-8.068c-1.466-.027-2.968-.03-4.403-.03z" fill="#e1e8ed"/><path d="m35 16h-1v4h1c.55 0 1-.45 1-1v-2c0-.55-.45-1-1-1zm-34 0c-.55 0-1 .45-1 1v2c0 .55.45 1 1 1h1v-4z" fill="#292f33"/></svg>