<svg viewBox="0 0 36 36" xmlns="http://www.w3.org/2000/svg"><path d="m5 16c0-4-5-3-4 1s3 5 3 5zm26 0c0-4 5-3 4 1s-3 5-3 5z" fill="#31373d"/><path d="m32.65 21.736c0 10.892-4.691 14.087-14.65 14.087-9.958 0-14.651-3.195-14.651-14.087s4.693-21.413 14.651-21.413c9.959 0 14.65 10.521 14.65 21.413z" fill="#31373d"/><path d="m27.567 23c1.49-4.458 2.088-7.312-.443-7.312h-18.248c-2.532 0-1.933 2.854-.444 7.312-4.928 11.201 8.734 11.823 9.568 11.823s14.303-1.059 9.567-11.823z" fill="#66757f"/><g fill="#31373d"><path d="m15 18.003c0 1.105-.896 2-2 2s-2-.895-2-2c0-1.104.896-1 2-1s2-.105 2 1zm10 0c0 1.105-.896 2-2 2s-2-.895-2-2c0-1.104.896-1 2-1s2-.105 2 1z"/><ellipse cx="15.572" cy="23.655" rx="1.428" ry="1"/><path d="m21.856 23.655c0 .553-.639 1-1.428 1-.79 0-1.429-.447-1.429-1s.639-1 1.429-1 1.428.448 1.428 1z"/></g><path d="m21.02 21.04c-1.965-.26-3.02.834-3.02.834s-1.055-1.094-3.021-.834c-3.156.417-3.285 3.287-1.939 3.105.766-.104.135-.938 1.713-1.556 1.579-.616 3.247.66 3.247.66s1.667-1.276 3.246-.659.947 1.452 1.714 1.556c1.346.181 1.218-2.689-1.94-3.106z" fill="#99aab5"/><path d="m24.835 30.021c-1.209.323-3.204.596-6.835.596s-5.625-.272-6.835-.596c-3.205-.854-1.923-1.735 0-1.477 1.923.259 3.631.415 6.835.415 3.205 0 4.914-.156 6.835-.415 1.923-.258 3.204.623 0 1.477z" fill="#31373d"/><path d="m4.253 16.625c1.403-1.225-1.078-3.766-2.196-2.544-.341.373.921-.188 1.336 1.086.308.942.001 2.208.86 1.458zm27.493 0c-1.402-1.225 1.078-3.766 2.196-2.544.341.373-.921-.188-1.337 1.086-.306.942 0 2.208-.859 1.458z" fill="#66757f"/></svg>