<svg viewBox="0 0 36 36" xmlns="http://www.w3.org/2000/svg"><path d="m36 21c0 5-3 9-11 11-7.062 1.766-21-.934-21-2 0-1.129 2.503-1.371 6.812-1.125 10.938.625 13.75-3.857 12-5.25-3.062-2.437-6.437.375-12.062-.125-6.968-.619-10.75-6.028-10.75-7.5 0-2 11.716-8 20-8s16 4.25 16 13z" fill="#66757f"/><path d="m15 12.5c0 .829-.671 1.5-1.5 1.5s-1.5-.671-1.5-1.5.671-.5 1.5-.5 1.5-.329 1.5.5z" fill="#292f33"/><path d="m14 9c2-5 5.291-9 7.958-9s-.958 2 4.042 10-12-1-12-1zm-11 21c0-4-1.04-6 .146-6s6.011 4.031 6.011 6.24-4.826 5.76-6.011 5.76c-1.186 0-.146-2-.146-6z" fill="#66757f"/><path d="m26.921 22.5 7.996 7.5s-3.242 1.833-7.996-7.5z" fill="#292f33"/><path d="m26.921 22.5 5.537-3.833s3.875 9.917 2.459 11.333c-2.583-1-7.996-7.5-7.996-7.5z" fill="#66757f"/><path d="m9 20.307c0 .493-.508 2.673-1 2.673s-1-2.18-1-2.673v-1.779c0-.493.508.889 1 .889s1-1.382 1-.889zm3 0c0 .493-.508 2.673-1 2.673s-1-2.18-1-2.673v-1.779c0-.493.508.889 1 .889s1-1.382 1-.889zm3-1c0 .493-.508 2.673-1 2.673s-1-2.18-1-2.673v-1.779c0-.493.508.889 1 .889s1-1.382 1-.889zm3 0c0 .493-.508 2.673-1 2.673s-1-2.18-1-2.673v-1.779c0-.493.508.889 1 .889s1-1.382 1-.889z" fill="#fff"/><path d="m6 20 7-1h6v-2h-13z" fill="#66757f"/><path d="m18.417 19.167c-4-2.083-13.385-.011-14.917 1.513.469.36.988.707 1.547 1.028 6.109-3.281 14.082-2.169 13.37-2.541z" fill="#292f33"/></svg>