<svg viewBox="0 0 36 36" xmlns="http://www.w3.org/2000/svg"><path d="m31 11c0-6-13-11-13-11v25s13-8 13-14z" fill="#ea596e"/><path d="m5.002 11c0-6 13-11 13-11v25c.001 0-13-8-13-14z" fill="#ea596e"/><path d="m27 11c0 3.833-9 12-9 12s-9-8.167-9-12c0-5 9-11 9-11s9 6 9 11z" fill="#f4abba"/><path d="m13 15.867c2.552 4.254-1.806 9.096-4.357 8.245-2.552-.851-3.403 1.701-.851 2.552s8.052-.396 11.059-3.402c.851-.851 1.701-.851 1.701-.851z" fill="#be1931"/><path d="m23 15.867c-2.552 4.254 1.806 9.096 4.357 8.245 2.553-.851 3.403 1.701.851 2.552s-8.052-.396-11.059-3.402c-.851-.851-1.702-.851-1.702-.851z" fill="#be1931"/><path d="m9 17c2.552 4.254-1.369 11.366-3.921 10.515s-3.403 1.702-.851 2.553 8.052-.396 11.059-3.403c.851-.851 1.701-.851 1.701-.851zm17.989 0c-2.553 4.254 1.368 11.366 3.921 10.515 2.552-.851 3.402 1.702.851 2.553-2.553.851-8.052-.396-11.059-3.403-.851-.852-1.702-.852-1.702-.852z" fill="#ea596e"/><path d="m30.921 32.35c-2.322.774-6.921-5.35-5.921-11.35 2-5-4-7.482-4-9.983 0-6.108-2.031-9.735-3.031-9.735s-2.969 3.627-2.969 9.735c0 2.501-6 4.983-4 9.983 1 6-3.599 12.124-5.921 11.35-2.552-.851-3.403 2.552-.851 3.402 2.552.851 7.069-.533 10.208-3.402 1.863-1.703 3.564-1.703 3.564-1.703s1.701 0 3.563 1.702c3.139 2.869 7.656 4.253 10.208 3.402 2.552-.85 1.702-4.252-.85-3.401z" fill="#f4abba"/><g fill="#292f33"><circle cx="14.5" cy="23.5" r="2.5"/><circle cx="21.5" cy="23.5" r="2.5"/></g></svg>