<svg viewBox="0 0 36 36" xmlns="http://www.w3.org/2000/svg"><path d="m17.68 22s1.937 7.873 1.187 9.373c-2.373 4.746-1.187 4.627 0 4.627h2.373c2.373 0-1.187-14-1.187-14zm-12.425-2.613s-.436 7.993-1.187 9.493c-2.373 4.746-2.373 7.12-1.186 7.12h2.373c1.186 0 1.187-4.154 1.187-5.34 0-1.187 1.187-8.603 1.187-8.603z" fill="#3e721d"/><path d="m12.374 5.251c-2.068.017-4.209-.435-5.523 2.099-1.404 2.709-2.065 8.579.776 9.664 2.479.947 7.933-1.187 13.866 1.187 5.933 2.373 8.306 16.612 13.015 16.63 1.224.005 1.206 1.123.001 1.132-5.914.045-8.509-5.897-9.509-5.897 0 0 1 5.934 0 5.934h-4c-1 0 0-3.081 0-4.268v-1.667s-1.593 1.218-5.936 1.218c-3.283.001-6.064-1.217-6.064-1.217s1 5.934 0 5.934h-3.745c-1.678 0 .166-4.013 0-5.934-.102-1.182-.51-4.757-1.224-5.933-1.726-2.847-2.763-11.521-1.929-15.285.781-3.526 3.122-6.633 4.675-7.51 1.519-.859 2.863-1.5 6.191-.965 1.775.285 3.591 2.922 2.89 4.274-.421.81-1.94.591-3.484.604z" fill="#77b255"/><path d="m12.967 2.181c0 .328-.265.593-.593.593s-.593-.265-.593-.593.265-.593.593-.593.593.266.593.593z"/><path d="m10.218 18.485c.094.304-.076.626-.38.72s-.626-.076-.72-.38.076-.626.38-.72.626.076.72.38zm3.874 1.248c.134.433-.108.892-.54 1.025-.432.134-.892-.108-1.026-.541-.134-.432.108-.892.541-1.025.432-.133.891.109 1.025.541zm-1.625-1.426c.071.23-.057.474-.288.545-.23.071-.474-.058-.545-.288s.058-.474.288-.545.474.058.545.288zm2.458-.331c.067.218-.054.448-.272.516-.217.067-.448-.054-.516-.272-.067-.218.054-.448.272-.516.218-.067.449.055.516.272zm2.843.35c.125.402-.101.829-.503.954s-.829-.1-.954-.503c-.125-.402.101-.829.503-.954.403-.125.83.101.954.503zm4.753 1.979c.08.258-.064.531-.322.61-.257.08-.531-.064-.61-.322-.08-.257.064-.531.322-.61.258-.08.531.065.61.322zm-5.854 0c.08.258-.064.531-.322.61-.257.08-.531-.064-.61-.322-.08-.257.064-.531.322-.61.257-.08.531.065.61.322zm4.218-1.306c.08.257-.064.531-.322.61-.257.08-.531-.064-.61-.322s.064-.531.322-.61c.257-.08.531.065.61.322zm-1.501.199c.118.381-.095.785-.476.903s-.785-.095-.903-.476.095-.785.476-.903.785.095.903.476z" fill="#5c913b"/></svg>