<svg viewBox="0 0 36 36" xmlns="http://www.w3.org/2000/svg"><path d="m25.45 6.842 1.274 1.274-19.124 19.125-1.275-1.275zm-24.863 26.137c-.351-.351-.351-.924 0-1.275l3.825-3.825c.351-.351.924-.351 1.275 0s.351.924 0 1.275l-3.825 3.825c-.351.35-.924.35-1.275 0z" fill="#ccd6dd"/><path d="m7.599 24.691 1.275 1.275-5.1 5.1-1.274-1.276z" fill="#dd2e44"/><g fill="#292f33"><path d="m24.812 8.754c-.351-.351-.351-.924 0-1.275l3.825-3.825c.351-.351.924-.351 1.275 0s.351.924 0 1.275l-3.825 3.825c-.351.351-.925.351-1.275 0z"/><path d="m25.606 9.548-1.588-1.588c-.194-.194-.194-.513 0-.707l.568-.568c.194-.194.513-.194.707 0l1.588 1.588c.194.194.194.513 0 .707l-.568.568c-.195.194-.513.194-.707 0zm6.924-3.259c-1.527-.215-3.042-1.485-3.114-1.545l-.328-.278.261-.34c1.04-1.354 3.855-1.973 5.366-1.189 1.138.591 1.179 1.318 1.103 1.698-.175.872-1.263 1.561-2.648 1.677-.21.016-.425.007-.64-.023zm-2.148-1.939c.664.474 1.815 1.134 2.713 1.062 1.002-.084 1.76-.562 1.839-.955.064-.321-.423-.612-.635-.721-1.021-.534-2.947-.189-3.917.614z"/></g></svg>