<svg viewBox="0 0 36 36" xmlns="http://www.w3.org/2000/svg"><circle cx="8.553" cy="29.973" fill="#66757f" r="4.478"/><path d="m10.482 34.451c5.29 2 17 1 20-1s5.658-4.054 5-8c-1-6-9-7-14-6-4.903.981-9 4-10 6-.632 1.265 0 3 0 5 0 3-1.936 3.646-1 4z" fill="#ccd6dd"/><path d="m30.482 33.451c3-2 5.658-4.054 5-8l-.005-.02c-2.609 1.493-6.824 3.435-12.309 4.37-4.599.784-8.938.861-11.692.798-.064 2.869-1.913 3.505-.994 3.852 5.29 2 17 1 20-1z" fill="#99aab5"/><circle cx="8.489" cy="9.789" fill="#66757f" r="2.42"/><path d="m2.495 31.311c-3.926-5.609-1.447-12.69.586-17.247 1.559-3.495 3.025-4.696 3.025-4.696l4.557 2.033s-1.724 4.645-1.192 8.237c.561 3.786 1.227 6.976-.596 10.341s-5.399 2.734-6.38 1.332z" fill="#99aab5"/><path d="m7.952 10.192 2.711 1.21s-1.724 4.645-1.192 8.237c.561 3.786 1.227 6.976-.596 10.341-.754 1.392-1.808 2.1-2.855 2.353-4.436-9.786 1.932-22.141 1.932-22.141z" fill="#ccd6dd"/><path d="m6.316 8.176c.421-2.384 3.856-7.922 5.048-7.712s6.94 2.454 7.922 3.856-1.052 5.959-2.244 5.749-.771-2.594-.771-2.594.21-1.192-1.192-.21l-2.804 1.963c-1.402.982-5.959-1.052-5.959-1.052z" fill="#99aab5"/><path d="m6.316 8.176c-.981-1.402-.35-4.978-.14-6.169.21-1.192 2.594-.771 2.173 1.613-.42 2.383.771 2.594.771 2.594z" fill="#99aab5"/><path d="m6.316 8.176c.421-2.384 3.856-7.922 5.048-7.712s6.94 2.454 7.922 3.856c-5.749-2.244-7.782 2.313-8.192 5.174-1.886-.027-4.778-1.318-4.778-1.318z" fill="#ccd6dd"/></svg>