<svg viewBox="0 0 36 36" xmlns="http://www.w3.org/2000/svg"><path d="m26 4c0 3-3.582 6-8 6s-8-3-8-6c0-4.418 6-4 8-4s8-.418 8 4z" fill="#66757f"/><path d="m24.306 12h-12.612c-.978 0-1.812.707-1.973 1.671l-3.333 20c-.203 1.219.737 2.329 1.973 2.329h19.278c1.236 0 2.176-1.11 1.973-2.329l-3.333-20c-.161-.964-.996-1.671-1.973-1.671z" fill="#ccd6dd"/><path d="m19.344 14h-6.802c-.489 0-.906.353-.986.836l-3 18c-.103.609.367 1.164.985 1.164h10.427zm5.101.836c-.08-.483-.498-.836-.986-.836h-2.413l.909 20h4.505c.618 0 1.088-.555.986-1.164z" fill="#f5f8fa"/><g fill="#ccd6dd"><ellipse cx="15" cy="1.5" rx="1.2" ry=".6"/><ellipse cx="21" cy="1.5" rx="1.2" ry=".6"/><ellipse cx="18" cy="3.5" rx="1.2" ry=".6"/></g><path d="m25 12h-14v-2.472c0-.844.684-1.262 1.528-1.262h10.944c.844 0 1.528.418 1.528 1.262z" fill="#66757f"/><path d="m23.472 8h-10.944c-.657 0-1.213.417-1.429 1h13.801c-.215-.583-.77-1-1.428-1zm-12.472 2h14v1h-14zm0 2h14v.5h-14z" fill="#ccd6dd"/></svg>