<svg viewBox="0 0 36 36" xmlns="http://www.w3.org/2000/svg"><path d="m26.875 14.6c-1.775-1.822-5.325-1.822-8.875-1.822s-7.1 0-8.875 1.822c-2.663 2.733-5.325 9.72-3.55 15.186s9.557 6.028 12.425 6.028 10.65-.562 12.425-6.028c1.775-5.465-.887-12.453-3.55-15.186z" fill="#8a4b38"/><path d="m25.58 14.412c-1.516-1.556-4.548-1.556-7.58-1.556s-6.064 0-7.58 1.556c-2.274 2.334-4.548 8.302-3.032 12.969 1.516 4.668 8.162 5.148 10.612 5.148s9.096-.48 10.611-5.148c1.516-4.668-.757-10.635-3.031-12.969z" fill="#a5503c"/><path d="m27.453 13.025c-.383-1.616-2.263-3.17-9.437-3.17h-.032c-7.175 0-9.055 1.554-9.437 3.17-.733 3.093 2.263 4.278 9.437 4.278h.032c7.174-.001 10.17-1.185 9.437-4.278z" fill="#ccd6dd"/><path d="m25.622 12.355c.293.72-1.832 1.658-7.64 1.658s-7.938-.941-7.64-1.658c.323-.779 3.869-1.55 7.64-1.55s7.324.771 7.64 1.55z" fill="#66757f"/><path d="m10.993 13.144c1.015.473 3.226.869 6.99.869 3.767 0 5.976-.395 6.99-.869-.734-.635-2.76-1.27-6.99-1.27-4.23.001-6.256.635-6.99 1.27z" fill="#77b255"/><path d="m25 14.231c-.156-.424-.429-.393-.814-.276-1.779.537-4.36.641-6.211.652-1.851-.011-4.676-.162-6.211-.652-.384-.122-.701-.172-.862.276-.156.436.306.852.697.947 2.366.576 4.313.746 6.376.759 2.062-.013 3.765-.159 6.131-.735.392-.096 1.075-.476.894-.971z" fill="#fff"/><path d="m22.894 13.686 5.315-7.93 5.296-3.743s.141-.297-.78-1.01c-.921-.713-1.337-.416-1.337-.416l-4.548 3.617-6.492 9.696c.994-.051 1.839-.124 2.546-.214z" fill="#ccd6dd"/><path d="m22.894 13.686 5.315-7.93 5.296-3.743-.067-.089-5.792 3.208-5.8 8.674c.431-.034.635-.06 1.048-.12z" fill="#99aab5"/><circle cx="27.617" cy="4.945" fill="#99aab5" r="1.668"/><path d="m26.213 4.639c0-.697.565-1.262 1.262-1.262s1.262.565 1.262 1.262-.565 1.262-1.262 1.262-1.262-.565-1.262-1.262z" fill="#ccd6dd"/><path d="m11.459 10.865c1.604-.639 4.544-.802 5.569-.757s.571.757-.015.757c-1.693 0-3.787.401-5.228.772-.851.219-1.143-.447-.326-.772z" fill="#e1e8ed"/></svg>