<svg viewBox="0 0 36 36" xmlns="http://www.w3.org/2000/svg"><path d="m28.337 32.563-2.579 3.082c-.552.553-1.758.007-1.758-.545v-23.099c0-.552 2.372-4.501 5-4.501l-.028 23.007c0 1.134-.093 1.308-.635 2.056z" fill="#e3a919"/><path d="m26 10.454h-17l.194-.348 3.546-2.606c.486-.379.831-.5 1.383-.5h14.363c.188 0 .514.277.344.47z" fill="#ffd983"/><path d="m25 36h-15c-.552 0-1-.448-1-1v-24.546s.448-.454 1-.454h15c.552 0 1 .454 1 .454v24.546c0 .552-.448 1-1 1z" fill="#ffcc4d"/><circle cx="15" cy="27" fill="#f4900c" r="3"/><circle cx="15" cy="21" fill="#ea596e" r="4"/><circle cx="19.5" cy="23.5" fill="#ffe8b6" r="4.5"/><circle cx="19.5" cy="23.5" fill="#ffcc4d" r="2.5"/><path d="m22.999 8.464s-.21.431-.967.431-1.033-.431-1.033-.431v-4.122c0-1.993.532-3.309 1.582-3.911 1.005-.576 2.326-.398 3.922.535 1.274.743 4.421 2.972 4.496 3.034 0 0 .165.565-.303 1.1s-.965.447-.965.447c-.018-.014-3.101-2.191-4.236-2.855-.881-.515-1.584-.623-1.904-.436-.279.16-.592.726-.592 2.086z" fill="#ccd6dd"/><path d="m25.434.44c-1.124-.446-2.082-.451-2.853-.01-.791.454-1.287 1.314-1.484 2.562l1.975.367c.108-.664.322-.989.52-1.103.22-.129.63-.105 1.146.082z" fill="#99aab5"/><g fill="#ffe8b6"><path d="m25.931 11h-16.431c-.275 0-.5-.225-.5-.5s.225-.5.5-.5h16.431c.275 0 .5.225.5.5s-.225.5-.5.5z"/><path d="m28.908 7.796-2.536 3.036c-.163.201-.471.223-.684.05-.214-.173-.255-.479-.093-.68l2.536-3.036c.163-.201.471-.223.684-.05.214.174.255.479.093.68z"/></g></svg>