<svg viewBox="0 0 36 36" xmlns="http://www.w3.org/2000/svg"><ellipse cx="10.757" cy="8.247" fill="#c15829" rx="8.032" ry="6.884"/><path d="m15.347 13.984c0-.972.144-1.874.395-2.71-1.43-.467-2.983-.732-4.626-.732-2.628 0-5.057.628-7.053 1.785 1.438 1.83 3.898 2.805 6.694 2.805 1.714 0 3.291-.378 4.593-1.084 0-.022-.003-.042-.003-.064z" fill="#933813"/><path d="m13.052 13.984c0 .308.02.606.046.901 3.294-.721 5.691-3.017 5.691-6.638 0-.889-.15-1.695-.417-2.42-3.172 1.423-5.32 4.271-5.32 8.157z" fill="#933813"/><ellipse cx="25.673" cy="13.984" fill="#c15829" rx="10.327" ry="9.179"/><path d="m25.673 22.59c0-6.029-4.354-9.953-10.088-10.745-.153.673-.239 1.385-.239 2.139 0 5.693 4.608 9.166 10.297 9.178.01-.191.03-.377.03-.572z" fill="#933813"/><ellipse cx="12.263" cy="23.737" fill="#c15829" rx="12.263" ry="10.9"/><path d="m34.709 13.984c0-4.621-3.471-7.566-7.946-7.977-.107.032-.216.059-.321.101-2.761 1.102-3.698 5.254-2.094 9.275 1.274 3.192 3.767 5.334 6.123 5.533 2.543-1.302 4.238-3.707 4.238-6.932z" fill="#a0ad55"/><path d="m26.442 6.108c-2.761 1.102-3.698 5.254-2.094 9.275 1.274 3.192 3.767 5.334 6.123 5.533-5.945-10.374-3.924-14.85-4.029-14.808z" fill="#c4ce89"/><circle cx="3.873" cy="19.721" fill="#ffac33" r="1.147"/><circle cx="5.594" cy="16.853" fill="#77b255" r=".574"/><circle cx="8.462" cy="18.574" fill="#77b255" r="1.147"/><circle cx="10.757" cy="15.131" fill="#ffac33" r="1.147"/><circle cx="5.594" cy="5.378" fill="#ffac33" r=".574"/><circle cx="7.315" cy="3.657" fill="#77b255" r="1.147"/><circle cx="10.183" cy="3.084" fill="#ffac33" r=".574"/><circle cx="20.51" cy="7.673" fill="#77b255" r=".574"/><circle cx="18.789" cy="9.394" fill="#ffac33" r="1.147"/><circle cx="29" cy="10" fill="#a6d388" r="1"/><circle cx="33" cy="14" fill="#a6d388" r="1"/><g fill="#77b255"><circle cx="4" cy="27" r="1"/><circle cx="10" cy="30" r="1"/><circle cx="19" cy="25" r="1"/><circle cx="22" cy="13" r="1"/><circle cx="15" cy="5" r="1"/><circle cx="8" cy="9" r="1"/></g><circle cx="14" cy="22" fill="#ffac33" r="1"/></svg>