<svg viewBox="0 0 36 36" xmlns="http://www.w3.org/2000/svg"><path d="m8 14s-1 14-1 19h11v-20zm20 0s1 14 1 19h-11v-20z" fill="#662113"/><path d="m18 12v-8c-5 0-10 3-10 9s2.553.894 3 0c2-4 5-1 7-1zm0 0v-8c5 0 10 3 10 9s-2.553.894-3 0c-2-4-5-1-7-1z" fill="#662113"/><path d="m32 36v-2c0-3.313-2.687-6-6-6h-16c-3.313 0-6 2.687-6 6v2z" fill="#3b88c3"/><path d="m13.64 28.101c1.744 1.267 2.848 1.962 4.36 1.962 1.511 0 2.616-.696 4.36-1.962v-3.811h-8.72z" fill="#ffdc5d"/><path d="m13.632 25.973c1.216 1.374 2.724 1.746 4.364 1.746 1.639 0 3.147-.372 4.364-1.746v-3.491h-8.728z" fill="#f9ca55"/><path d="m9.478 16.96c0-5.589 3.816-10.121 8.522-10.121s8.522 4.531 8.522 10.121c0 5.589-3.816 10.12-8.522 10.12s-8.522-4.531-8.522-10.12z" fill="#ffdc5d"/><path d="m18 23.802c-2.754 0-3.6-.706-3.741-.848-.256-.256-.256-.671 0-.927.248-.248.645-.255.902-.024.052.038.721.487 2.839.487 2.2 0 2.836-.485 2.842-.49.255-.255.656-.243.913.013.256.256.242.684-.014.94-.141.143-.987.849-3.741.849z" fill="#c1694f"/><path d="m14 17c-.55 0-1-.45-1-1v-1c0-.55.45-1 1-1s1 .45 1 1v1c0 .55-.45 1-1 1zm8 0c-.55 0-1-.45-1-1v-1c0-.55.45-1 1-1s1 .45 1 1v1c0 .55-.45 1-1 1z" fill="#662113"/><path d="m18.75 19.75h-1.5c-.413 0-.75-.337-.75-.75s.337-.75.75-.75h1.5c.413 0 .75.337.75.75s-.337.75-.75.75z" fill="#c1694f"/><path d="m8 14.28 1.868 1.849s1.192 3.401 0 3.997c-2.664 1.331-4.868-5.514-4.868-6.846 0-1 3 1 3 1zm19.397 0-1.868 1.849s-1.192 3.401 0 3.997c2.665 1.331 5.471-5.514 5.471-6.846 0-1-3.603 1-3.603 1z" fill="#ffdc5d"/><g fill="#662113"><path d="m18 4c-5 0-9 3-9 9s1.553.894 2 0c2-4 5-3 7-3s5-1 7 3c.447.894 2 6 2 0s-4-9-9-9z"/><path d="m9 13-1 23h4s-2.627-20.484-1-23c.698-1.08-2 0-2 0zm18.058 0 1 23h-4.058s2.685-20.484 1.058-23c-.698-1.08 2 0 2 0z"/></g></svg>