<svg viewBox="0 0 36 36" xmlns="http://www.w3.org/2000/svg"><g fill="#e1e8ed"><circle cx="4.5" cy="25.5" r="4.5"/><circle cx="25.5" cy="20.5" r="5.5"/><circle cx="31" cy="26.5" r="5"/><circle cx="12" cy="24" r="5"/><path d="m33 30c-1.657 0-3 1.343-3 3h-24c0-1.657-1.343-3-3-3s-3 1.343-3 3 1.343 3 3 3h29v-.184c.314.112.647.184 1 .184 1.657 0 3-1.343 3-3s-1.343-3-3-3z"/><path d="m0 25.5h9v7.5h-9zm20-2.5h9v4h-9zm11 3.5h5v6.5h-5z"/></g><path d="m31 36v-4.5c0-3.314-3.56-5.5-6.875-5.5h-12c-3.313 0-7.125 2.186-7.125 5.5v4.5z" fill="#d4ab88"/><path d="m17.945 3.978c4.105 0 10.947 2.053 10.947 10.947 0 8.896 0 10.948-2.053 10.948s-4.79-2.053-8.895-2.053-6.785 2.053-8.895 2.053c-2.287 0-2.053-8.211-2.053-10.948.001-8.894 6.844-10.947 10.949-10.947" fill="#963b22"/><path d="m14.5 26c1 1.982 2.792 4.5 3.5 4.5s2.512-2.549 3.5-4.5v-3.591h-7z" fill="#d4ab88"/><path d="m14.322 24.088c1.022 1.155 2.29 1.468 3.668 1.468 1.379 0 2.647-.312 3.67-1.468v-2.937h-7.338z" fill="#cc9b7a"/><path d="m9.734 14.627c0-5.834 3.676-10.563 8.211-10.563 4.533 0 8.209 4.73 8.209 10.563s-3.676 10.285-8.209 10.285c-4.535 0-8.211-4.452-8.211-10.285" fill="#d4ab88"/><path d="m17.945 22.452c-1.606 0-2.447-.794-2.537-.885-.268-.267-.268-.7 0-.967.266-.265.692-.267.961-.007.035.032.551.491 1.576.491 1.038 0 1.555-.473 1.576-.492.273-.256.703-.248.963.02.26.269.26.691-.004.955-.089.091-.929.885-2.535.885" fill="#df1f32"/><path d="m7.735 17.909c-.021-1-.044-.224-.044-.465 0-3.422 2.053.494 2.053-1.943 0-2.439 1.368-2.683 2.736-4.051.684-.685 2.053-2.026 2.053-2.026s3.421 2.067 6.158 2.067c2.736 0 5.474 1.375 5.474 4.112 0 2.736 2.053-1.584 2.053 1.837 0 .244-.023-.531-.04.469h.719c.006-2 .006-1.924.006-3.202-.001-8.895-6.843-12.207-10.949-12.207-4.104 0-10.947 3.257-10.947 12.152 0 .793-.02 1.257.008 3.257z" fill="#963b22"/><path d="m14.608 16.796c-.465 0-.846-.381-.846-.847v-.845c0-.465.381-.846.846-.846.466 0 .847.381.847.846v.845c0 .466-.381.847-.847.847m6.765 0c-.465 0-.846-.381-.846-.847v-.845c0-.465.381-.846.846-.846s.846.381.846.846v.845c0 .466-.381.847-.846.847" fill="#662113"/><path d="m18.836 19.409h-1.69c-.233 0-.423-.19-.423-.423v-.153c0-.233.189-.424.423-.424h1.69c.233 0 .424.19.424.424v.153c0 .234-.191.423-.424.423" fill="#c1694f"/><path d="m9.75 31.5v4.5h11.5v-.5h5v-4z" fill="#9266cc"/><path d="m19.25 31.5c2 1 2 4 2 4v.5h1v-.5h3v-4z" fill="#a47de2"/><path d="m20.25 31.5c2 1 2 4 2 4v.5h4v-4.5z" fill="#744eaa"/><path d="m20.25 31.5h-10.5v1h11.621c-.277-.402-.64-.76-1.121-1z" fill="#744eaa"/><path d="m20.371 32.5h1c-.277-.402-.64-.76-1.121-1h-1c.481.24.844.598 1.121 1z" fill="#9266cc"/><path d="m20.25 31.5c.481.24.844.598 1.121 1h4.879v-1z" fill="#553788"/><path d="m32 28c-2.975 0-5.438 2.168-5.911 5.009-.031-.001-.059-.009-.089-.009-2.049 0-3.806 1.236-4.578 3h11.578c1.65 0 3-1.35 3-3v-3.463c-1.062-.953-2.461-1.537-4-1.537zm-18.422 8c-.772-1.764-2.529-3-4.578-3-.78 0-1.509.194-2.166.512.098-.322.166-.657.166-1.012 0-1.933-1.567-3.5-3.5-3.5-1.762 0-3.205 1.306-3.45 3h-.05v1c0 1.65 1.35 3 3 3z" fill="#fff" opacity=".7"/></svg>