<svg viewBox="0 0 36 36" xmlns="http://www.w3.org/2000/svg"><path d="m32.75 36h-28.75c-2.209 0-4-1.791-4-4v-28c0-2.209 1.791-4 4-4h15.042s4.849.569 4.542 2c-.351 1.634-2.455 6.896-2.542 7.708-.173 1.62 4.735 4.393 4.5 6.292-.733 5.934-3.5 8.25-2.505 11.305.126.386 3.679.718 4.588 1.195 5.375 2.818 5.333 7.5 5.125 7.5z" fill="#66757f"/><path d="m30 36h-26c-2.209 0-4-1.791-4-4v-28c0-2.209 1.791-4 4-4h7.167s8.955.862 8.842 2.062c-.173 1.851-3.639 7.717-2.51 8.812s4.432 3.794 4.571 5.542c.179 2.244-4.284 8.299-1.918 13.304.756 1.598 5.061.957 6.329 1.852 3.163 2.235 3.823 4.428 3.519 4.428z" fill="#99aab5"/><path d="m29.759 29.818s.404.278 1.516.666c.443.154-.044 1.84-.305 2.08s-2.188.627-3.928.098c-1.593-.484-.405-.938.744-1.193 1.151-.254 1.973-1.651 1.973-1.651z" fill="#292f33"/><g fill="#f9ca55"><path d="m28.313 14.316c-1.108.471-2.32.982-2.873.817-.415-.124-1.235-.382-1.886-.38s-.76.343-.325 1.021c.435.679 1.324 1.039 2.032.823s2.276-.29 3.233-.317c.956-.025 1.692-2.759-.181-1.964z"/><path d="m27.85 14.614c.484-.258 1.333-.391 1.333-.391l.929-2.272 2.482 1.636s-1.65 1.934-2.05 2.355c-.4.422-1.793.417-2.898.371-.833-.034-.337-1.411.204-1.699zm1.972 11.558s-2.739-1.872-2.937-1.076 2.252 2.908 2.846 4.888c.24.799 1.68 1.663 1.697.079.03-2.735-1.606-3.891-1.606-3.891z"/><path d="m27.162 25.501s.88 1.752 1.766 1.567 3.219-3.005 3.92-4.075.419-3.671-1.168-2.416c-1.586 1.253-4.518 4.924-4.518 4.924z"/></g><path d="m34.225 21.936-6.368.815 3.175 2.892z" fill="#2a6797"/><path d="m27.622 22.132s-2.369 2.157-2.583 3.02c-.215.862.003 3.664-.642 6.25s1.079 3.016 1.294 2.154 2.652-4.022 1.856-5.917c-.384-.916 2.231-3.138 2.231-3.138z" fill="#ffdc5d"/><path d="m29.807 19.266c-1.291.84-1.944 2.066-3.733 4.052l2.395 2.554s6.032-2.286 6.953-5.358c.794-2.649-1.491-4.143-1.491-4.143s-2.89 2.092-4.124 2.895z" fill="#357baa"/><path d="m32.932 7.593-.245 2.329-2.675-.429.01-2.022z" fill="#ffdc5d"/><path d="m33.434 7.67c-.953 1.243-2.434 1.138-3.838.894-1.338-.233-1.093-2.671-.44-4.083.658-1.422 2.829-1.498 3.959-.631 1.131.867 1.273 2.577.319 3.82z" fill="#ffdc5d"/><path d="m25.146 7.833c-.942-1.226-2.325-2.46-2.501-3.247-.214-.957-.164-1.954-1.499-2.752-.842-.503-.278.882-.154 2.717.071 1.055 1.664 4.103 2.633 5.094.623.637 3.588 1.518 4.57 3.638.166.358.605 1.03 1.117 1.841.85 1.343 1.341 2.469.658 4.033 2.984.155 5.318-1.113 5.318-1.113-.883-2.313-.212-4.329-.94-6.15-1.15-2.879-2.429-2.989-4.35-2.598 0 0-.402-.733-2.142-.546-.839-.331-1.635-.614-2.71-.917z" fill="#ffdc5d"/><path d="m29.779 19.141c2.984.155 5.625-.824 5.625-.824-.23-1.965-.328-4.602-1.056-6.423-.161-.404-.33-.736-.504-1.021-.011.256-.149.448-.597.356-.97-.2-1.585-1.274-2.541-1.898-.229-.01-.465-.019-.708-.035.76.597 1.077 2.165.639 3.292-.443 1.14-1.332 1.394-2.302 1.034.037.079.377.919.722 1.809.477 1.23.694 2.691.722 3.71z" fill="#4289c1"/><path d="m24.3 31.985s.371 1.007 1.62.869c.277-.031-.079 1.164-.39 1.461s-3.405 1.719-4.959.855c-1.553-.864-.345-1.208.864-1.553 1.208-.345 2.865-1.632 2.865-1.632z" fill="#292f33"/><path d="m30.938 2.812c1.992-.206 3.292.989 3.449 2.102.239 1.69-1.15 2.967-1.455 3.627-.308.667-2.387-.338-2.494-1.979-.037-.562-.269-1.191-.2-1.644.062-.41-.732-.442-1.05-.586-.446-.201.367-1.376 1.75-1.52z" fill="#ffac33"/><path d="m6.333 2.417h4.708c.792 0-2.208 3.156-3.292 3.156s-2.832-3.156-1.416-3.156zm4.334 6.208h4.458c.75 0-2.458 2.949-3.458 2.949s-2.292-2.949-1-2.949zm-1.792 9.118h9.125c1.292 0-5.542 5.098-6.667 5.098s-4.916-5.098-2.458-5.098zm-5.708 11.309h8.071c1.888 0-3.281 4.531-5.113 4.531s-4.792-4.531-2.958-4.531z" fill="#66757f"/><path d="m29.779 18.5c.01-.046 1.158.125 2.814-.125 1.297-.196 2.811-.54 2.811-.54l.095.649s-1.917.495-3.069.629-2.623.152-2.623.152-.111-.355-.028-.765z" fill="#2a6797"/><path d="m30.312 5.604c.261-.309.938-.208.917.271s-.188.938-.75.896-.396-.896-.167-1.167z" fill="#ffdc5d"/></svg>