<svg viewBox="0 0 36 36" xmlns="http://www.w3.org/2000/svg"><ellipse cx="18" cy="4.5" fill="#662113" rx="4" ry="3.5"/><ellipse cx="18" cy="6" fill="#ea596e" rx="4" ry="3"/><path d="m8 14s-1 14-1 19h11v-20zm20 0s1 14 1 19h-11v-20z" fill="#662113"/><path d="m18 12v-8c-5 0-10 3-10 9s2.553.894 3 0c2-4 5-1 7-1zm0 0v-8c5 0 10 3 10 9s-2.553.894-3 0c-2-4-5-1-7-1z" fill="#662113"/><path d="m32 36v-1c0-3.313-3.687-7-7-7h-14c-3.313 0-7 3.687-7 7v1z" fill="#5c913b"/><path d="m13.64 28.101c1.744 1.267 4.36 6.899 4.36 6.899s2.616-5.633 4.36-6.899v-3.811h-8.72z" fill="#f7dece"/><path d="m13.632 25.973c1.216 1.374 2.724 2.027 4.364 2.027 1.639 0 3.147-.654 4.364-2.027v-3.491h-8.728z" fill="#eec2ad"/><path d="m10 15c0-5.589 3.293-8.879 8-8.879s8 3.29 8 8.879c0 8-5 12-8 12s-8-4-8-12z" fill="#f7dece"/><path d="m14.5 17.75c-.468 0-.85-.382-.85-.85v-.8c0-.467.382-.85.85-.85.467 0 .85.382.85.85v.8c0 .468-.382.85-.85.85zm7 0c-.468 0-.85-.382-.85-.85v-.8c0-.467.382-.85.85-.85s.85.382.85.85v.8c0 .468-.382.85-.85.85z" fill="#662113"/><path d="m18.65 21.2h-1.3c-.33 0-.6-.27-.6-.6s.27-.6.6-.6h1.3c.33 0 .6.27.6.6s-.27.6-.6.6z" fill="#c1694f"/><path d="m18 24.339c-1.256 0-2.353-.361-2.933-.968-.229-.239-.221-.619.018-.849.239-.229.619-.221.848.019.348.363 1.159.598 2.067.598.907 0 1.719-.234 2.066-.598.229-.24.608-.249.849-.019.239.229.247.609.019.849-.581.607-1.678.968-2.934.968z" fill="#df1f32"/><path d="m8.11 14.073 1.936 1.849s.973 3.051 0 3.997c-.899.874-5.046-5.514-5.046-6.846 0-1 3.11 1 3.11 1zm19.458 0-1.779 1.849s-.602 2.823 0 3.997c.448.874 5.211-5.514 5.211-6.846 0-1-3.432 1-3.432 1z" fill="#f7dece"/><path d="m18 4c-5 0-9 3-9 9s1.445.832 2 0c2-3 5-1 7-1s5-2 7 1c.555.832 2 6 2 0s-4-9-9-9z" fill="#662113"/><path d="m9 13-1 23h4s-2.627-20.484-1-23c.698-1.08-2 0-2 0zm17.985 0 .986 23h-4s2.646-20.484 1.043-23c-.688-1.08 1.971 0 1.971 0z" fill="#662113"/><path d="m18 7c4 0 8 2 8 4 0 0-2-3-8-3s-8 3-8 3 1-4 8-4z" fill="#ea596e"/></svg>