<svg viewBox="0 0 36 36" xmlns="http://www.w3.org/2000/svg"><path d="m36 36v-2c0-3.314-2.686-6-6-6h-16c-3.313 0-6 2.686-6 6v2z" fill="#ccd6dd"/><path d="m17.64 28.038c0 2.846 8.72 2.962 8.72 0v-3.749h-8.72z" fill="#7c533e"/><path d="m17.632 25.973c1.216 1.374 2.724 1.746 4.364 1.746 1.639 0 3.147-.373 4.363-1.746v-3.491h-8.728v3.491z" fill="#664131"/><path d="m25.152 3.3c-1.925-.623-5.876-.46-7.008 1.012-2.944.057-6.083 2.932-6.536 6.443-.448 3.475.235 4.874.591 7.486.403 2.96 2.067 3.907 3.397 4.303 1.914 2.529 3.949 2.421 7.366 2.421 6.672 0 9.271-4.458 9.552-12.04.169-4.585-2.522-8.059-7.362-9.625z" fill="#0b0200"/><path d="m29.547 13.273c-.646-.894-1.472-1.614-3.284-1.868.68.311 1.331 1.387 1.416 1.982s.17 1.076-.368.481c-2.155-2.382-4.502-1.444-6.827-2.899-1.624-1.016-2.119-2.141-2.119-2.141s-.198 1.5-2.661 3.029c-.714.443-1.566 1.43-2.038 2.888-.34 1.048-.234 1.982-.234 3.578 0 4.66 3.841 8.578 8.578 8.578s8.578-3.953 8.578-8.578c-.002-2.898-.305-4.031-1.041-5.05z" fill="#7c533e"/><path d="m22.134 24.686c-2.754 0-3.6-.705-3.741-.848-.256-.256-.256-.671 0-.927.248-.248.646-.255.902-.023.052.037.721.487 2.839.487 2.2 0 2.836-.485 2.842-.49.256-.255.657-.243.913.015.256.256.242.683-.014.938-.142.143-.987.848-3.741.848m.827-3.979h-1.906c-.263 0-.477-.213-.477-.477s.213-.477.477-.477h1.906c.263 0 .477.213.477.477s-.213.477-.477.477z" fill="#3d2e24"/><path d="m18.195 17.37c-.526 0-.953-.427-.953-.953v-.953c0-.526.427-.953.953-.953s.953.427.953.953v.953c0 .527-.426.953-.953.953zm7.626 0c-.526 0-.953-.427-.953-.953v-.953c0-.526.427-.953.953-.953s.953.427.953.953v.953c0 .527-.427.953-.953.953z"/><path d="m13 28h3v8h-3zm15 0h3v8h-3z" fill="#269"/><path d="m13 31h18v5h-18z" fill="#269"/><ellipse cx="27.75" cy="33.75" fill="#f5f8fa" rx="2.25" ry="1.25"/><path d="m31 9.5c0 1.32-18 1.32-18 0 0-3.546 1-8.5 9-8.5 7 0 9 4.954 9 8.5z" fill="#3b88c3"/><path d="m13.056 9.5s-.5 3 1.5 3c1 0 2.5-2 7.5-2s6.5 2 7.5 2c2 0 1.5-3 1.5-3s-1.5.5-9 .5-9-.5-9-.5z" fill="#269"/><path d="m13 9s-.5 3 1.5 3c1 0 2.5-2 7.5-2s6.5 2 7.5 2c2 0 1.5-3 1.5-3s-1.5.5-9 .5-9-.5-9-.5z" fill="#55acee"/><path d="m20.5 1.5s0-1.5 1.5-1.5 1.5 1.5 1.5 1.5z" fill="#269"/><path d="m9.501 23.635c-.005-1.805-1.026-3.353-2.511-4.153l.012 4.409c0 .553-1.006 1.003-2.249 1.005-1.242.003-2.25-.443-2.251-.995l-.01-4.408c-1.48.806-2.494 2.358-2.492 4.163.006 2.091 1.37 3.845 3.25 4.475v7.869h3v-7.869c1.888-.632 3.256-2.397 3.251-4.496z" fill="#66757f"/></svg>