<svg viewBox="0 0 36 36" xmlns="http://www.w3.org/2000/svg"><path d="m8.22 28.583s.108-.118.211-.409c.104-.291.147-.888.133-.98s-.039-.164-.148-.171c-.083-.006-.768.08-1.145-.039-.699-.22-.812-.957-.812-.957s-.46.083-.829.152c-.368.069-.818.209-1.134.274-.271.056-.548.03-.823-.03s-.485-.147-.55-.165c-.066-.017-.575-.27-.782.25l-.051.154s.811.718 2.114 1.182 1.639.152 2.481.452c.843.3 1.335.287 1.335.287z" fill="#292f33"/><path d="m6.243 28.821c-.038-.07-.043-.253-.083-.292s-.577-.11-.83-.137-.687-.076-1.158-.244-1.032-.523-1.375-.752c-.343-.228-.594-.46-.646-.526s-.026-.078-.011-.107.119-.176.119-.176.196.213.569.459.754.467 1.458.717c.703.25 1.182.303 1.583.335.499.039 1.207.141 1.681.309.365.13.66.114.768.123.025.002.04.027.032.051l-.222.623c-.014.041-.081.121-.196.105s-1.651-.419-1.689-.488z" fill="#292f33"/><path d="m25.097 17.21c.069 1.432-.391 2.922-1.505 3.202-1.066.268-3.056-.151-3.056-.151s-.698.408-.531 1.189c.095.444.257.67.201.712-.05.038-.486-.022-.684-.032-.528-.027-1.1-.211-2.073-.484-.974-.273-1.421-.285-2.481-.577-1.175-.324-1.986-.835-2.33-1.956-.293-.956.277-2.123 1.654-2.63 1.12-.412 4.339-.347 5.539-.231 1.201.118 5.206-.287 5.266.958z" fill="#4289c1"/><path d="m7.002 27.225c-.646-.143-1.293-.6-1.419-1.224 1.346-1.871 3.671-7.538 3.671-7.538.695-1.744 1.517-3.426 3.133-3.182 2.081.315 5.629 1.028 5.629 1.028 2.276.329 1.144 1.007 1.778 1.912.635.903-1.294 1.99-2.786 1.891-2.602-.173-3.877-.453-5.522.846-.8 2.306-2.071 4.087-2.844 6.406-.826.244-.993.004-1.64-.139z" fill="#4289c1"/><path d="m26.082 1.281c-1.193-.904-3.4-.774-4.155.689-1.053 2.041-.331 4.222 1.077 4.458 1.476.247 2.444.176 3.438-1.136s.833-3.107-.36-4.011z" fill="#ffdc5d"/><path d="m25.955 5.565c2.593-1.744-2.168-2.839-2.168-2.839-.898-.217-.702 1.436-1.347 2.128-.444.479.681 1.115.681 1.115s.557.147.398.828l-.002.006c-.041.173-.116.372-.273.621-.776 1.235.802 2.568 1.577 1.33.307-.49.378-.977.42-1.433l.004-.041c.06-.677.069-1.284.71-1.715z" fill="#ffdc5d"/><path d="m27.639 2.218c-.41-1.08-2.408-2.493-4.134-1.755-.928-.443-1.562.38-1.629.937-.053.445.963.848.999 1.731.239-.152.404-.554.427-.787.243.414-.139 1.217 1.019 2.136 1.119.888.58 1.945.58 1.945s.756-.128 1.372-.536c1.176-.777 1.818-2.48 1.366-3.671z" fill="#ffac33"/><path d="m26.179 16.729c-.111.711-.178 1.672-.576 1.483-1.565-.742-5.391-1.527-5.391-1.527 1.043-2.613.343-4.713.838-6.42.566-1.95 2.382-3.745 3.585-3.428.506.134 1.027.644 1.333 1.049 1.928 2.547.322 8.132.211 8.843z" fill="#fa743e"/><path d="m27.811 10.609.425-5.242c.022-.274.265-.48.539-.458s.48.265.458.539l-.425 5.242c-.022.274-.265.48-.539.458s-.48-.265-.458-.539z" fill="#66757f"/><g fill="#292f33"><path d="m16 21v2s-2 0-2 2v3c0 1 1 2 2 2h10c1 0 2-1 2-2v-5c0-1-1-2-2-2z"/><path d="m22.956 22.559-9.848-1.736c-.985-.174-.985-.174-.811-1.158.096-.542.617-.907 1.158-.811l9.848 1.736c.542.096.907.617.811 1.158-.173.985-.173.985-1.158.811z"/><path d="m25.238 19.023c-.193.922-.557 1.827-2.094 1.537s-1.782 1.225-.824 1.493c.958.267 3.252.646 3.921-.446.668-1.092.78-2.139.713-2.606s-1.572-.66-1.716.022z"/></g><path d="m23.442 22.896-10.833-1.91c-.271-.048-.453-.308-.406-.579.048-.271.308-.453.579-.406l10.833 1.91c.271.048.453.308.406.579-.048.271-.309.454-.579.406z" fill="#dd2e44"/><path d="m28.932 9.642-1.736 9.848c-.174.985-.174.985-1.158.811-.542-.096-.907-.617-.811-1.158l1.736-9.848c.096-.542.617-.907 1.158-.811.984.173.984.173.811 1.158zm.992-7.49-.713 4.025c-.087.493-.168 1.007-1.153.834-.542-.096-.882-.715-.763-1.398l.639-3.609c.163-.579.626-1.004 1.167-.909.985.173.91.564.823 1.057z" fill="#292f33"/><path d="m29.406 9.224-1.91 10.833c-.048.271-.308.453-.579.406-.271-.048-.453-.308-.406-.579l1.91-10.833c.048-.271.308-.453.579-.406.272.048.454.308.406.579zm1.243-7.455-.91 5.18c-.048.271-.308.453-.579.406-.271-.048-.453-.308-.406-.579l.91-5.18c.048-.271.308-.453.579-.406s.454.308.406.579z" fill="#dd2e44"/><path d="m25.494 18.441-7.466-1.316c-.747-.132-.747-.132-.617-.869.071-.405.466-.678.877-.606l7.466 1.316c.411.072.688.463.617.869-.13.738-.13.738-.877.606z" fill="#292f33"/><path d="m23.123 21.824c.993.175 2.954.521 3.475-2.433s1.506-2.781.985.174-2.237 3.667-4.634 3.245c-1.969-.348-1.796-1.333.174-.986zm-10.33-1.821c1.971.34 2.277 1.422.308 1.07-.873-.156-.984.212-1.251.958-.252.702-.611 1.757-1.144 3.23-.391 1.082-1.279.603-.95-.342.551-1.588 1.061-2.968 1.392-3.847.338-.895.613-1.247 1.645-1.069z" fill="#dd2e44"/><path d="m10.62 24.01c-.258-.094-.547.04-.641.299l-2.052 5.638c-.094.258.04.547.299.641.258.094.547-.04.641-.299l2.052-5.638c.094-.259-.041-.547-.299-.641z" fill="#dd2e44"/><path d="m8.226 30.588-3.759-1.368c-.258-.094-.393-.382-.299-.641.094-.258.382-.393.641-.299l3.759 1.368c.258.094.393.382.299.641-.094.258-.383.393-.641.299z" fill="#66757f"/><path d="m13.844 30.862 2.95-2.95c.194-.194.194-.513 0-.707s-.513-.194-.707 0l-2.95 2.95c-.194.194-.194.513 0 .707s.512.194.707 0zm18.156 3.138c-.55 0-1-.45-1-1v-3c0-.55.45-1 1-1s1 .45 1 1v3c0 .55-.45 1-1 1z" fill="#dd2e44"/><path d="m13.5 34c-.55 0-1-.45-1-1v-3c0-.55.45-1 1-1s1 .45 1 1v3c0 .55-.45 1-1 1zm12.983-6.005h2c.275 0 .5-.225.5-.5s-.225-.5-.5-.5h-2c-.275 0-.5.225-.5.5s.225.5.5.5z" fill="#dd2e44"/><path d="m31.123 30.803-2.95-2.95c-.194-.194-.194-.513 0-.707s.513-.194.707 0l2.95 2.95c.194.194.194.513 0 .707-.194.195-.512.195-.707 0z" fill="#dd2e44"/><path d="m11.672 16.127c.742.318 2.05.936 2.339 1.047 0 0 .134-.891.49-.891 0 0 .134-.468.223-.668s.356-.134.379.245c.022.379-.089.512-.089.512s.334.423.134 1.002c0 0 .446.067.356.624-.089.557.067.98-.334 1.092-.401.111-1.916.535-1.938-.067-.022-.601-.401-1.069-1.136-1.515s-1.27-.936-1.181-1.181c.088-.244.133-.467.757-.2z" fill="#292f33"/><path d="m26.5 25h-11c-.275 0-.5-.225-.5-.5s.225-.5.5-.5h11c.275 0 .5.225.5.5s-.225.5-.5.5z" fill="#dd2e44"/><path d="m22.691 10.276c-.579 1.455-1.125 3.55-1.381 3.561-1.473.062-3.079.948-4.006.893-.672-.04-1.306-.167-1.651-.05-.552.187-1.159.289-1.351.632-.195.348.171.657 1.035.656.635 0 1.045.208 1.674.06.896-.21 3.986.754 5.665-.345.566-.371 1.441-1.871 2.525-4.663-1.084-.477-2.51-.744-2.51-.744z" fill="#ffdc5d"/><circle cx="21.5" cy="31.5" fill="#66757f" r="4.5"/><circle cx="13.5" cy="33.5" fill="#66757f" r="2.5"/><circle cx="32" cy="34" fill="#66757f" r="2"/><circle cx="21.5" cy="31.5" fill="#ccd6dd" r="2.5"/><circle cx="13.5" cy="33.5" fill="#ccd6dd" r="1.5"/><circle cx="32" cy="34" fill="#292f33" r="1"/><g fill="#292f33"><circle cx="22" cy="30.634" r=".5"/><circle cx="21" cy="32.366" r=".5"/><circle cx="20.634" cy="31" r=".5"/><circle cx="22.366" cy="32" r=".5"/></g><circle cx="13.5" cy="33.5" fill="#292f33" r=".75"/><circle cx="32" cy="34" fill="#66757f" r=".5"/></svg>