<svg viewBox="0 0 36 36" xmlns="http://www.w3.org/2000/svg"><g fill="#e1e8ed"><circle cx="4.5" cy="25.5" r="4.5"/><circle cx="25.5" cy="20.5" r="5.5"/><circle cx="31" cy="26.5" r="5"/><circle cx="12" cy="24" r="5"/><path d="m33 30c-1.657 0-3 1.343-3 3h-24c0-1.657-1.343-3-3-3s-3 1.343-3 3 1.343 3 3 3h29v-.184c.314.112.647.184 1 .184 1.657 0 3-1.343 3-3s-1.343-3-3-3z"/><path d="m0 25.5h9v7.5h-9zm20-2.5h9v4h-9zm11 3.5h5v6.5h-5z"/></g><path d="m23.35 20c1.014.324 2.845 1.15 2.65 2.941 1.924.357 2.306 1.966 2.436 2.907.248 1.79-7.436-.198-7.436-.198l-1-3.482zm-10.38.5c-.769.185-2.749.5-3.64 2.793-1.99 0-2.33 2.02-2.33 3.538 0 2.253 7.336 1.955 8.495.678 1.158-1.277.784-5.36.784-5.36z" fill="#77b255"/><path d="m32 36v-4c0-3.314-2.685-6-6-6h-16c-3.313 0-6 2.686-6 6v4z" fill="#af7e57"/><path d="m13.667 27.122 4.333 3.879 4.316-2.627-.316-6.374h-8z" fill="#af7e57"/><path d="m14 24c1.216 1.374 2.355 1.719 3.996 1.719 1.639 0 2.787-.346 4.004-1.719v-4h-8z" fill="#9b6a49"/><path d="m11.444 13.936c0 1.448-.734 2.622-1.639 2.622s-1.639-1.174-1.639-2.622.734-2.623 1.639-2.623c.905-.001 1.639 1.174 1.639 2.623m16.389 0c0 1.448-.733 2.622-1.639 2.622-.905 0-1.639-1.174-1.639-2.622s.733-2.623 1.639-2.623c.906-.001 1.639 1.174 1.639 2.623" fill="#af7e57"/><path d="m9.477 14.96c0-5.589 3.816-10.121 8.523-10.121s8.522 4.532 8.522 10.121-3.815 10.121-8.522 10.121c-4.707-.001-8.523-4.532-8.523-10.121" fill="#af7e57"/><path d="m18 21.802c-2.754 0-3.6-.705-3.741-.848-.256-.256-.256-.671 0-.927.248-.248.646-.255.902-.023.052.037.721.487 2.839.487 2.2 0 2.836-.485 2.842-.49.256-.255.657-.243.913.015.256.256.242.683-.014.938-.141.143-.987.848-3.741.848" fill="#915a34"/><path d="m18 1.48c5.648 0 9.178 4.168 9.178 7.641s-.706 4.863-1.412 3.473l-1.412-2.778s-4.235 0-5.647-1.39c0 0 2.118 4.168-2.118 0 0 0 .706 2.779-3.53-.694 0 0-2.118 1.389-2.824 4.862-.196.964-1.412 0-1.412-3.473-.001-3.473 2.823-7.641 9.177-7.641" fill="#60352a"/><path d="m14 15c-.55 0-1-.45-1-1v-1c0-.55.45-1 1-1s1 .45 1 1v1c0 .55-.45 1-1 1m8 0c-.55 0-1-.45-1-1v-1c0-.55.45-1 1-1s1 .45 1 1v1c0 .55-.45 1-1 1" fill="#662113"/><path d="m18.75 17.75h-1.5c-.413 0-.75-.337-.75-.75s.337-.75.75-.75h1.5c.413 0 .75.337.75.75s-.337.75-.75.75" fill="#915a34"/><path d="m13.758 25.712c-.269 3.395.314 5.641.636 6.672.158.505-.201 1.016-.729 1.045-.714.039-1.591.08-2.116.08-1 0-3.477 2.243-3.942-.193-.464-2.436-.607-4.605-.607-5.407s-.158-3.166 1.167-3.17c1.817-.005 2.155-.153 2.917-.705.857-.622 2.738.879 2.674 1.678zm8.426.007c.247 3.305-.257 5.437-.553 6.44-.145.492-.261.897.099 1.237.698.66 2.007-.07 2.49-.07.92 0 2.935 2.261 3.612-.991.633-3.039.604-5.475.604-6.255s-.468-1.038-1.077-1.363c-1.486-.792-1.982-.149-2.683-.687-.788-.605-2.55.911-2.492 1.689z" fill="#77b255"/><path d="m8.002 25.236c.156-.67.885-1.175 1.063-.623.177.55.233 3.471.295 4.387s-.608-.184-.861-.898c-.254-.714-.644-2.234-.497-2.866zm19.115-.849c-.175-.579-.846-.279-1.003.176s.021 1.692-.01 2.465.325.014.551-.574c.227-.588.627-1.521.462-2.067zm-16.802-.852c.024-.521.923-1.192 1.004-.656s.571 6.09.845 7.289-.196.978-.522.124-1.401-5.186-1.327-6.757zm14.802-.853c-.245-.141-.842.207-.89.639-.047.432-.005 4.021-.202 4.982-.196.961.115.81.383.133s1.831-5.106.709-5.754z" fill="#a6d388"/><path d="m32 28c-2.975 0-5.438 2.168-5.911 5.009-.031-.001-.059-.009-.089-.009-2.049 0-3.806 1.236-4.578 3h11.578c1.65 0 3-1.35 3-3v-3.463c-1.062-.953-2.461-1.537-4-1.537zm-18.422 8c-.772-1.764-2.529-3-4.578-3-.78 0-1.509.194-2.166.512.098-.322.166-.657.166-1.012 0-1.933-1.567-3.5-3.5-3.5-1.762 0-3.205 1.306-3.45 3h-.05v1c0 1.65 1.35 3 3 3z" fill="#fff" opacity=".7"/></svg>