<svg viewBox="0 0 36 36" xmlns="http://www.w3.org/2000/svg"><path d="m36 36v-2c0-3.314-2.686-6-6-6h-16c-3.313 0-6 2.686-6 6v2z" fill="#3b88c3"/><path d="m22 35.999-5.6-8.999h11.2z" fill="#292f33"/><path d="m17.64 30.038c1.744 1.268 2.848 1.963 4.36 1.963s2.615-.696 4.359-1.963v-5.749h-8.72v5.749z" fill="#f3d2a2"/><path d="m15 28c0 1 1 3 3 5 1.581 1.581 4 3 4 3 0-3.063-1-4-2-5s-3-2-3-4c0-1-2 1-2 1m14 0c0 1-1 3-3 5-1.581 1.581-4 3-4 3 0-3.063 1-4 2-5s3-2 3-4c0-1 2 1 2 1" fill="#55acee"/><path d="m17.632 25.973c1.216 1.374 2.724 1.746 4.364 1.746 1.639 0 3.147-.372 4.364-1.746v-3.491h-8.728z" fill="#e2c196"/><path d="m25.152 3.3c-1.925-.623-5.876-.46-7.008 1.012-2.944.057-6.083 2.932-6.536 6.443-.448 3.475.235 4.874.591 7.486.403 2.96 2.067 3.907 3.397 4.303 1.914 2.529 3.949 2.421 7.366 2.421 6.672 0 9.271-4.458 9.552-12.04.169-4.585-2.522-8.059-7.362-9.625z" fill="#ffe51e"/><path d="m29.547 13.243c-.646-.894-1.472-1.614-3.284-1.868.68.311 1.331 1.387 1.416 1.982s.17 1.076-.368.481c-2.155-2.382-4.502-1.444-6.827-2.899-1.624-1.016-2.119-2.141-2.119-2.141s-.198 1.5-2.661 3.029c-.714.443-1.566 1.43-2.038 2.888-.34 1.048-.234 1.982-.234 3.578 0 4.66 3.841 8.578 8.578 8.578s8.578-3.953 8.578-8.578c-.002-2.898-.305-4.03-1.041-5.05z" fill="#f3d2a2"/><path d="m22.961 20.677h-1.906c-.263 0-.477-.213-.477-.477s.213-.477.477-.477h1.906c.263 0 .477.213.477.477s-.213.477-.477.477z" fill="#c1694f"/><path d="m18.195 17.341c-.526 0-.953-.427-.953-.953v-.953c0-.526.427-.953.953-.953s.953.427.953.953v.953c0 .526-.426.953-.953.953zm7.626 0c-.526 0-.953-.427-.953-.953v-.953c0-.526.427-.953.953-.953s.953.427.953.953v.953c0 .526-.427.953-.953.953z" fill="#662113"/><path d="m22.134 24.657c-2.754 0-3.6-.705-3.741-.848-.256-.256-.256-.671 0-.927.248-.248.646-.255.902-.023.052.037.721.487 2.839.487 2.2 0 2.836-.485 2.842-.49.256-.255.657-.243.913.015.256.256.242.683-.014.939-.142.142-.987.847-3.741.847" fill="#c1694f"/><g fill="#e2c196"><circle cx="17.25" cy="16" r="3.75"/><circle cx="26.75" cy="16" r="3.75"/><path d="m19.5 15h5v2.5h-5z"/></g><circle cx="17.5" cy="15.5" fill="#e1e8ed" r="3.5"/><circle cx="26.5" cy="15.5" fill="#e1e8ed" r="3.5"/><path d="m19.5 14h5v2.5h-5z" fill="#e1e8ed"/><circle cx="17.5" cy="15.5" fill="#292f33" r="2.5"/><circle cx="26.5" cy="15.5" fill="#292f33" r="2.5"/><path d="m5 24-1.5 1s1.5 2.5 1.5 6v5h2v-5c0-4.5-2-7-2-7z" fill="#66757f"/><path d="m6.079 23.807c.208.379.071.854-.307 1.064l-2.13 1.178c-.379.208-.855.07-1.064-.309l-.451-.816c-.208-.379-.072-.855.307-1.064l2.13-1.178c.378-.209.855-.071 1.064.309z" fill="#99aab5"/><path d="m3.49 22.584c4.188-2.209-3.438-6.271-3.438-6.271s-.75 8.48 3.438 6.271z" fill="#f4900c"/><path d="m2.96 21.365c2.202-1.162-1.808-3.299-1.808-3.299s-.394 4.459 1.808 3.299z" fill="#ffdc5d"/><path d="m34 11c-3-2-1.008-4.169-3-7-1.874-2.663-5-4-9.003-4-4.997 0-7.123 1.337-8.997 4-1.992 2.831 0 5-3 7-1.861 1.24 6 2.313 12 2.313s13.861-1.073 12-2.313" fill="#3b88c3"/><path d="m20 11.5v-11.412c-.35.032-.683.074-1 .124v10.281c-2.09-.05-5.124-.396-7.653-.853-.174.297-.41.59-.73.877 2.911.565 6.596.982 8.883.982h.5zm4.5 0c2.421 0 6.037-.393 8.907-.959-.325-.288-.563-.58-.741-.877-2.431.448-5.371.787-7.667.832v-10.204c-.323-.066-.66-.112-1-.155v11.363z" fill="#269"/></svg>