<svg viewBox="0 0 36 36" xmlns="http://www.w3.org/2000/svg"><path d="m20.769 20.273c-4.558 6.089-5.676 12.675-2.497 14.71s9.451-1.252 14.008-7.341c4.558-6.089 2.752-17.029 2.497-16.631-1.777 2.774-9.45 3.173-14.008 9.262z" fill="#abdfff"/><path d="m15.255 20.273c4.558 6.089 5.676 12.675 2.498 14.71-3.179 2.035-9.451-1.252-14.009-7.341s-2.84-16.969-2.497-16.631c3.753 3.699 9.451 3.173 14.008 9.262z" fill="#abdfff"/><path d="m4.598 17.829c-.484-.808-1.158-1.652-.776-.211.542 2.047 2.184 5.253 4.848 7.268 1.12.847 1.209-.427.179-1.398-2.665-2.512-3.291-4.055-4.251-5.659zm26.804 0c-.96 1.604-1.586 3.147-4.251 5.659-1.03.971-.941 2.245.179 1.398 2.664-2.015 4.306-5.221 4.848-7.268.382-1.441-.292-.597-.776.211z" fill="#55acee"/><path d="m31 36v-3.5c0-3.314-3.685-5.5-7-5.5h-12c-3.313 0-7 2.186-7 5.5v3.5z" fill="#ffdc5d"/><path d="m18.853 2c-2.024 0-3.893.647-5.426 1.737-3.15.164-5.662 2.749-5.662 5.94 0 2.63.012 5.943 3.477 7.177 1.703 2.365 4.474 3.911 7.611 3.911 5.181 0 9.382-4.2 9.382-9.381 0-5.183-4.201-9.384-9.382-9.384z" fill="#ffac33"/><path d="m13.983 20.008v8.034c0 2.218 1.799 4.017 4.017 4.017s4.017-1.799 4.017-4.017v-8.034z" fill="#ffdc5d"/><path d="m22.017 18-8.034.037v7.996s4.017 2.008 8.034 0z" fill="#f9ca55"/><path d="m26.529 8h-17.058v9.354c0 4.712 3.818 8.529 8.529 8.529s8.529-3.817 8.529-8.529z" fill="#ffdc5d"/><path d="m8.625 7.118.846 6.824c3.98 0 4.861-4.115 5.058-5.95.067 1.835 1.389 5.95 12.001 5.95l.346-6.824z" fill="#ffac33"/><path d="m21.412 22.471h-6.824s0 1.706 3.412 1.706 3.412-1.706 3.412-1.706zm-5.118-3.412h3.412s0 1.706-1.706 1.706-1.706-1.706-1.706-1.706z" fill="#c1694f"/><path d="m25 27h-3l-4 6-4-6h-3c-3 0-4 1-4 1l2 5v3h18v-3l2-5s-1-1-4-1z" fill="#5c913b"/><path d="m22 18c-.55 0-1-.45-1-1v-1c0-.55.45-1 1-1s1 .45 1 1v1c0 .55-.45 1-1 1zm-7-1v-1c0-.55-.45-1-1-1s-1 .45-1 1v1c0 .55.45 1 1 1s1-.45 1-1z" fill="#662113"/></svg>