<svg viewBox="0 0 36 36" xmlns="http://www.w3.org/2000/svg"><path d="m18 10c-1.1 0-2-.9-2-2v-3c0-1.1.9-2 2-2s2 .9 2 2v3c0 1.1-.9 2-2 2z" fill="#66757f"/><circle cx="18" cy="15" fill="#dd2e44" r="6"/><path d="m16 8h4v4h-4zm6 28h-8c-1.1 0-2-.9-2-2v-19h12v19c0 1.1-.9 2-2 2z" fill="#dd2e44"/><path d="m9.406 35.849-4.492-1.263c-.529-.149-.838-.533-.685-.853l4.439-9.311c.458-.96 1.278-1.621 1.823-1.467l.22.062c.545.153.9 1.144.791 2.202l-1.065 10.26c-.038.353-.501.519-1.031.37z" fill="#292f33"/><path d="m26.022 2.248-9.848 1.736c-.542.095-1.063-.27-1.158-.811-.095-.542.27-1.063.811-1.158l9.848-1.736c.542-.096 1.063.27 1.158.811.095.542-.27 1.063-.811 1.158z" fill="#66757f"/><path d="m25.055 7.36-9.397-3.42c-.517-.188-.786-.765-.598-1.282s.765-.786 1.282-.598l9.397 3.42c.517.188.786.765.598 1.282s-.765.786-1.282.598z" fill="#66757f"/><path d="m10.524 24.407c-.042 0-.085-.004-.128-.011-.408-.07-.682-.459-.612-.867.726-4.203.161-6.198-.336-7.958-.386-1.364-.75-2.653-.33-4.556.934-4.229 4.627-5.765 6.882-5.765.414 0 .75.336.75.75s-.336.75-.75.75c-1.225 0-4.586.824-5.417 4.589-.339 1.535-.067 2.495.309 3.824.515 1.819 1.155 4.083.372 8.622-.064.364-.382.622-.74.622z" fill="#292f33"/><circle cx="16" cy="7" fill="#ccd6dd" r="3"/><circle cx="16" cy="7" fill="#dd2e44" r="2"/><path d="m16.5 10c-.828 0-1.5 1.567-1.5 3.5v22c0 .275.225.5.5.5h2c.275 0 .5-.225.5-.5v-22c0-1.933-.672-3.5-1.5-3.5z" fill="#ea596e"/><path d="m20.5 18h-5c-.825 0-1.5-.675-1.5-1.5v-2c0-.825.675-1.5 1.5-1.5h5c.825 0 1.5.675 1.5 1.5v2c0 .825-.675 1.5-1.5 1.5z" fill="#f5f8fa"/><path d="m16 5c-.552 0-1.052.224-1.414.586l1.414 1.414 1.414-1.414c-.362-.362-.862-.586-1.414-.586z" fill="#77b255"/></svg>