<svg viewBox="0 0 36 36" xmlns="http://www.w3.org/2000/svg"><path d="m3.019 26.246 3.432 3.432-.923.922-3.432-3.431z" fill="#77b255"/><path d="m6.362 29.587 3.431 3.432-.923.923-3.43-3.432z" fill="#ffd983"/><path d="m6.273 24.237 3.432 3.432-.923.923-3.432-3.432z" fill="#ffac33"/><path d="m8.998 26.962 3.432 3.432-.923.923-3.431-3.432zm3.909-9.359 3.431 3.432-.923.923-3.431-3.432z" fill="#ea596e"/><path d="m15.631 20.329 3.432 3.431-.923.923-3.432-3.431z" fill="#ffac33"/><path d="m14.97 14.377 3.432 3.432-.922.923-3.432-3.432z" fill="#77b255"/><path d="m18.277 17.683 3.432 3.432-.923.923-3.432-3.432z" fill="#ffd983"/><path d="m17.616 11.731 3.432 3.432-.923.922-3.432-3.431z" fill="#ffac33"/><path d="m20.923 15.038 3.432 3.431-.923.923-3.431-3.432zm3.464-10.078 3.432 3.432-.923.922-3.432-3.431z" fill="#ea596e"/><path d="m27.694 8.267 3.432 3.431-.923.923-3.432-3.432z" fill="#ffac33"/><path d="m27.013 2.252 3.432 3.432-.923.923-3.432-3.432z" fill="#77b255"/><path d="m30.36 5.6 3.432 3.431-.923.923-3.432-3.431z" fill="#ffd983"/><path d="m24.922.812c-2.52 2.52-2.601 6.145-2.396 9.806.501.028 1.002.061 1.502.094.39.026.775.051 1.159.074-.198-3.286-.199-6.299 1.606-8.104.727-.703.955-1.653.447-2.166-.535-.54-1.542-.497-2.318.296z" fill="#9266cc"/><path d="m13.146 25.65-.153-2.66c-.026-.445-.058-.899-.074-1.332-.296-.296-2.466-.349-2.653-.162.013.44.047.884.071 1.327.028.502.126 2.275.149 2.66.054.91.096 1.806.086 2.656.259.259 2.371.437 2.645.162.015-.872-.022-1.761-.071-2.651z" fill="#3b88c3"/><path d="m13.22 28.3-2.649-.162c-.026 2.209-.384 4.145-1.687 5.448-.517.517-.517 1.354 0 1.871.258.258.597.388.935.388s.677-.129.935-.388c2.423-2.422 2.467-7.174 2.466-7.157z" fill="#55acee"/><path d="m25.354 13.447c-.501-.028-1.003-.061-1.503-.094-.389-.026-.775-.051-1.158-.074.198 3.285.199 6.299-1.607 8.104-1.804 1.804-4.813 1.805-8.094 1.607-.386-.023-2.159-.14-2.656-.168-3.667-.206-7.297-.126-9.82 2.397-.516.516-.516 1.353.001 1.87.258.258.597.388.935.388s.677-.129.935-.388c1.805-1.804 4.815-1.806 8.098-1.608.385.023 2.161.14 2.66.168 3.662.205 7.289.125 9.811-2.396 2.521-2.52 2.603-6.145 2.398-9.806z" fill="#9266cc"/><path d="m25.354 13.447c-.028-.501-.145-2.277-.168-2.66-.027-.45-.049-.894-.064-1.332-.336-.021-2.1-.133-2.653-.163.013.44.032.883.056 1.326.028.501.145 2.277.168 2.661.055.914.091 1.804.081 2.656.333.021 2.094.132 2.645.162.015-.872-.015-1.759-.065-2.65z" fill="#744eaa"/><path d="m35.581 8.827c-.42-.436-1.385-.601-2.291.353-1.805 1.805-4.817 1.806-8.104 1.607-.384-.023-2.16-.141-2.661-.169-3.66-.205-7.286-.123-9.806 2.397-2.215 2.215-2.545 5.284-2.453 8.48.553.03 2.319.142 2.653.162-.098-2.755.113-5.214 1.671-6.772 1.805-1.805 4.818-1.805 8.104-1.607.383.023 2.16.14 2.661.168 3.661.205 7.286.124 9.806-2.396.886-.869.84-1.787.42-2.223z" fill="#55acee"/></svg>