<svg viewBox="0 0 36 36" xmlns="http://www.w3.org/2000/svg"><circle cx="29" cy="4" fill="#ffe8b6" r="4"/><circle cx="29" cy="4" fill="#ffd983" r="3"/><g fill="#ffcc4d"><path d="m32.5.5-4.207 2.793 1.414 1.414zm-7 7 2.793-4.207 1.414 1.414z"/><path d="m32.5 7.5-2.793-4.207-1.414 1.414z"/><path d="m25.5.5 4.207 2.793-1.414 1.414z"/></g><path d="m23 13.5c-.143 0-.285-.061-.384-.18-.177-.212-.148-.528.063-.705 5.709-4.757 5.82-8.581 5.82-8.619.003-.275.209-.534.503-.496.276.003.498.225.498.5 0 .173-.07 4.293-6.18 9.384-.093.078-.207.116-.32.116z" fill="#c1694f"/><path d="m4.826 35.417-4.243-4.243c-.778-.778-.778-2.051 0-2.828l19.092-19.092c.778-.778 2.051-.778 2.828 0l4.243 4.243c.778.778.778 2.051 0 2.828l-19.092 19.092c-.777.777-2.05.777-2.828 0z" fill="#dd2e44"/><path d="m18.261 10.668 7.071 7.07-2.121 2.122-7.071-7.071zm-14.141 14.142 7.07 7.07-2.12 2.122-7.072-7.07z" fill="#ffcc4d"/><path d="m22.504 9.254 1.414 1.414-2.828 2.828-1.415-1.414zm-19.092 19.092 1.414 1.414-2.828 2.828-1.414-1.414zm14.142-14.142 1.414 1.414-12.02 12.02-1.415-1.414z" fill="#ea596e"/><path d="m19.675 12.082 1.415 1.414-2.122 2.122-1.414-1.415zm-14.141 14.142 1.414 1.415-2.122 2.12-1.414-1.413z" fill="#ffd983"/></svg>