<svg viewBox="0 0 36 36" xmlns="http://www.w3.org/2000/svg"><path d="m1 15h34v6h-34z" fill="#99aab5"/><path d="m18 12c-9.389 0-17 4.029-17 9 0 1.06.364 2.073 1 3.017.858 1.275 2.226 2.421 4 3.357 3.075 1.622 7.316 2.626 12 2.626 5.81 0 10.934-1.545 14-3.9.832-.639 1.499-1.34 2-2.083.636-.945 1-1.957 1-3.017 0-4.971-7.611-9-17-9z" fill="#99aab5"/><path d="m2 18.017v6c.858 1.275 2.226 2.421 4 3.357v-6c-1.774-.936-3.142-2.082-4-3.357zm32 6v-6c-.501.744-1.168 1.444-2 2.083v6c.832-.638 1.499-1.339 2-2.083z" fill="#e1e8ed"/><ellipse cx="18" cy="15" fill="#ccd6dd" rx="17" ry="9"/><ellipse cx="18" cy="14.5" fill="#ea596e" rx="15.111" ry="7.5"/><path d="m18 9c7.661 0 13.974 2.832 14.961 6.5.088-.328.15-.66.15-1 0-4.142-6.765-7.5-15.111-7.5s-15.111 3.358-15.111 7.5c0 .34.061.672.15 1 .987-3.668 7.3-6.5 14.961-6.5z" fill="#99aab5"/><g fill="#f5f8fa"><ellipse cx="11.5" cy="13" rx="1.5" ry="1"/><ellipse cx="8.5" cy="15" rx="1.5" ry="1"/><ellipse cx="15.5" cy="14" rx="1.5" ry="1"/><ellipse cx="11.5" cy="17" rx="1.5" ry="1"/><ellipse cx="21.5" cy="18" rx="1.5" ry="1"/></g></svg>