<svg viewBox="0 0 36 36" xmlns="http://www.w3.org/2000/svg"><path d="m17 3h2v5h-2z" fill="#66757f"/><path d="m12 12v-3c0-1.1.9-2 2-2h8c1.1 0 2 .9 2 2v3z" fill="#99aab5"/><path d="m24 11h-12c-5 0-6 21-6 21 0 2.2 1.8 4 4 4h16c2.2 0 4-1.8 4-4 0 0-1-21-6-21z" fill="#ffac33"/><path d="m8 4s2-4 7-4h6c2 0 2 4 0 4h-6c-5 0-6 1-6 1z" fill="#ccd6dd"/><path d="m8.464 4.464.536.536s1-1 6-1h6c.975 0 1.472-.949 1.496-1.922-1.496-0-2.972-.078-7.496-.078-3.859 0-5.519 1.377-6.536 2.464z" fill="#99aab5"/><path d="m23.5 13h-11c-.275 0-.5-.225-.5-.5s.225-.5.5-.5h11c.275 0 .5.225.5.5s-.225.5-.5.5z" fill="#ffcc4d"/><path d="m18 18s-4 4.791-4 7 1.791 4 4 4 4-1.791 4-4-4-7-4-7z" fill="#ffe8b6"/></svg>