<svg viewBox="0 0 36 36" xmlns="http://www.w3.org/2000/svg"><path d="m19.175 16.825c-.706-.706-.706-1.861 0-2.567l13.258-13.258c.706-.706 1.861-.706 2.567 0s.706 1.861 0 2.567l-13.258 13.258c-.706.706-1.861.706-2.567 0z" fill="#c1694f"/><path d="m8.839 27.365-.204-.204c-.941-.941-.941-2.48 0-3.42l8.35-8.35c.941-.941 2.48-.941 3.42 0l.204.204c.941.941.941 2.48 0 3.42l-8.35 8.35c-.94.941-2.48.941-3.42 0z" fill="#66757f"/><path d="m19.389 26.341c1.688-1.688.671-5.441-1.809-7.921s-6.233-3.497-7.921-1.809l-9.659 9.549 9.84 9.84z" fill="#ffcc4d"/><path d="m2.02 28.18 8.66-8.658.58.58-8.66 8.658zm1.74 1.74 8.66-8.659.58.58-8.66 8.66zm1.74 1.74 8.658-8.66.58.58-8.66 8.66zm1.74 1.74 8.659-8.66.58.58-8.66 8.659z" fill="#ffac33"/><path d="m9.875 16.43c-.073.059-.149.114-.216.181l-2.199 2.168 9.761 9.761 2.167-2.199c.067-.067.123-.143.181-.216z" fill="#55acee"/><path d="m8.882 18.221.235-.568 9.225 9.224-.572.232z" fill="#269"/></svg>