<svg viewBox="0 0 36 36" xmlns="http://www.w3.org/2000/svg"><path d="m35.627 10.826-35.254 5.734v9.722h.004c-.012.149.129.295.443.473.727.412 9.835 5.286 10.553 5.639.895.439 1.441.493 2.206.112.626-.312 19.236-10.173 20.932-11.074.863-.459 1.146-.711 1.099-.919h.018v-9.687z" fill="#c1694f"/><path d="m.373 16.56v9.722h.004c-.012.149.129.295.443.473.727.412 9.835 5.286 10.553 5.639.432.212.781.329 1.114.356v-16.19z" fill="#a0041e"/><path d="m22.224 4.682c1.076-.558 1.113-.628 2.249-.024s9.846 5.248 10.487 5.589c.814.434 1.112.591-.449 1.421-1.696.902-20.306 10.763-20.932 11.074-.765.381-1.311.327-2.206-.112-.718-.352-9.826-5.226-10.553-5.639-.82-.465-.482-.706.769-1.37z" fill="#d99e82"/><ellipse cx="11.189" cy="17.191" fill="#c1694f" rx="3.679" ry="1.84"/><path d="m11.642 16.734c-1.569-.516-3.352-.369-4.108.339-.005.04-.024.078-.024.118 0 1.016 1.647 1.84 3.679 1.84 1.063 0 2.013-.229 2.684-.589-.333-.692-1.086-1.332-2.231-1.708z" fill="#a0041e"/><ellipse cx="18" cy="13.639" fill="#c1694f" rx="3.679" ry="1.84"/><path d="m18.453 13.182c-1.569-.516-3.352-.369-4.108.339-.005.04-.024.078-.024.118 0 1.016 1.647 1.84 3.679 1.84 1.063 0 2.013-.229 2.684-.589-.333-.692-1.086-1.332-2.231-1.708z" fill="#a0041e"/><ellipse cx="24.811" cy="10.087" fill="#c1694f" rx="3.679" ry="1.84"/><path d="m25.264 9.63c-1.569-.516-3.352-.369-4.108.339-.005.04-.024.078-.024.118 0 1.016 1.647 1.84 3.679 1.84 1.063 0 2.012-.229 2.684-.589-.333-.692-1.086-1.332-2.231-1.708z" fill="#a0041e"/></svg>