<svg viewBox="0 0 36 36" xmlns="http://www.w3.org/2000/svg"><path d="m2.92 21.393 18.473-18.473c3.227-3.227 8.46-3.227 11.687 0s3.227 8.46 0 11.687l-18.473 18.473c-3.227 3.227-8.46 3.227-11.687 0-3.227-3.228-3.227-8.46 0-11.687z" fill="#d99e82"/><g fill="#c1694f"><circle cx="4.389" cy="25.778" r=".972"/><circle cx="7.306" cy="28.694" r=".972"/><circle cx="10.222" cy="31.611" r=".972"/><circle cx="7.306" cy="22.861" r=".972"/><circle cx="10.222" cy="25.778" r=".972"/><circle cx="13.139" cy="28.694" r=".972"/><path d="m21.896 7.189c.064-.533.548-.913 1.081-.849s.913.548.849 1.081-.548.913-1.081.849c-.533-.063-.913-.547-.849-1.081z"/><circle cx="25.778" cy="10.222" r=".972"/><circle cx="28.694" cy="13.139" r=".972"/><circle cx="25.778" cy="4.389" r=".972"/><circle cx="28.694" cy="7.306" r=".972"/><circle cx="31.611" cy="10.222" r=".972"/></g><path d="m6.82 17.514 10.692-10.695 11.668 11.667-10.694 10.694z" fill="#eabaa7"/><path d="m9.799 18.423c-.249 0-.498-.095-.687-.285-.38-.38-.38-.995 0-1.375l7.715-7.715c.38-.38.995-.38 1.375 0s.38.995 0 1.375l-7.715 7.715c-.191.191-.439.285-.688.285z" fill="#f7ded5"/></svg>