<svg viewBox="0 0 36 36" xmlns="http://www.w3.org/2000/svg"><path d="m31.497 6.06s.244-4.293-6.702-3.83c-8.617.574-18.599 9.155-18.95 17.159-.267 6.089 8.109 1.203 11.139-1.96-.045-.045 3.282 1.426 4.752 4.545-3.267 2.733-8.047 4.803-11.644 5.109-6.282.535-8.546-2.727-7.557-9.15 1.223-7.933 11.053-17.075 22.069-17.138 8.377-.048 6.893 5.265 6.893 5.265z" fill="#ccd6dd"/><path d="m32.19 32.317c.351-1.768-.27-19.086-4.411-22.615s-22.238-1.972-23.898-1.267c-2.24.95-1.352 3.835.184 3.93 5.43.339 16.02.786 18.774 3.133s4.875 12.732 6.07 18.04c.337 1.501 2.643 1.99 3.281-1.221z" fill="#662113"/><path d="m32.19 32.317c.432-1.75-.057-20.063-4.197-23.592s-22.3-1.109-23.96-.405c-2.24.95-1.291 2.972.245 3.068 5.43.339 16.02.786 18.774 3.133s4.875 12.732 6.07 18.04c.338 1.501 2.484 2.118 3.068-.244z" fill="#c1694f"/><path d="m6.747 11.537c1.459.089 3.08.196 4.731.339l-.013-4.686c-1.373.125-2.649.274-3.749.426zm21.836 18.61c-.319-1.426-.682-3.01-1.084-4.618l4.629-.73c.094 1.376.149 2.659.174 3.769z" fill="#ffcc4d"/></svg>