<svg viewBox="0 0 36 36" xmlns="http://www.w3.org/2000/svg"><path d="m3.651 29.852 26.275-26.276c.391-.391 2.888 2.107 2.497 2.497l-26.275 26.276c-.39.391-2.888-2.107-2.497-2.497z" fill="#292f33"/><path d="m30.442 4.051-26.296 26.296.883.883 26.296-26.296z" fill="#66757f"/><path d="m34.546 2.537-.412-.412-.671-.671c-.075-.075-.165-.123-.255-.169-.376-.194-.844-.146-1.159.169l-2.102 2.102.495.495.883.883 1.119 1.119 2.102-2.102c.391-.391.391-1.024 0-1.414zm-29.517 28.693-.883-.883-.495-.495-2.209 2.208c-.315.315-.363.783-.169 1.159.046.09.094.18.169.255l.671.671.412.412c.391.391 1.024.391 1.414 0l2.208-2.208z" fill="#e1e8ed"/><path d="m31.325 4.934 2.809-2.809-.671-.671c-.075-.075-.165-.123-.255-.169l-2.767 2.767zm-27.179 25.413-2.873 2.873c.046.09.094.18.169.255l.671.671 2.916-2.916z" fill="#f5f8fa"/><path d="m28.897 14.913 1.542-.571.6-2.2c.079-.29.343-.491.644-.491.3 0 .564.201.643.491l.6 2.2 1.542.571c.262.096.435.346.435.625s-.173.529-.435.625l-1.534.568-.605 2.415c-.074.296-.341.505-.646.505-.306 0-.573-.209-.647-.505l-.605-2.415-1.534-.568c-.262-.096-.435-.346-.435-.625 0-.278.173-.528.435-.625m-16.936-9.628 2.61-.966.966-2.61c.16-.433.573-.72 1.035-.72.461 0 .874.287 1.035.72l.966 2.61 2.609.966c.434.161.721.573.721 1.035s-.287.874-.721 1.035l-2.609.966-.966 2.61c-.161.433-.574.72-1.035.72-.462 0-.875-.287-1.035-.72l-.966-2.61-2.61-.966c-.433-.161-.72-.573-.72-1.035.001-.462.288-.874.72-1.035m12.169 15.487 1.383-.512.512-1.382c.085-.229.304-.381.548-.381s.463.152.548.381l.512 1.382 1.382.512c.23.085.382.304.382.548 0 .245-.152.463-.382.548l-1.382.512-.512 1.382c-.085.229-.304.381-.548.381-.245 0-.463-.152-.548-.381l-.512-1.382-1.383-.512c-.229-.085-.381-.304-.381-.548 0-.245.152-.463.381-.548" fill="#ffac33"/></svg>