<svg viewBox="0 0 36 36" xmlns="http://www.w3.org/2000/svg" xmlns:xlink="http://www.w3.org/1999/xlink"><clipPath id="a"><path d="m-35.367 13.848h36v-36h-36z"/></clipPath><clipPath id="b"><path d="m-24.343 34.246h36v-36h-36z"/></clipPath><clipPath id="c"><path d="m-36 10.269h36v-36h-36z"/></clipPath><clipPath id="d"><path d="m-34.38 15.907h36v-36h-36z"/></clipPath><clipPath id="e"><path d="m-31.406 19.303h36v-36h-36z"/></clipPath><clipPath id="f"><path d="m-28.11 21.53h36v-36h-36z"/></clipPath><clipPath id="g"><path d="m-12.71 6.294h36v-36h-36z"/></clipPath><clipPath id="h"><path d="m-16.316 29.198h36v-36h-36z"/></clipPath><clipPath id="i"><path d="m-11.042 3.065h36v-36h-36z"/></clipPath><clipPath id="j"><path d="m-13.173 8.53h36v-36h-36z"/></clipPath><clipPath id="k"><path d="m-12.869 13.034h36v-36h-36z"/></clipPath><clipPath id="l"><path d="m-11.599 16.805h36v-36h-36z"/></clipPath><path clip-path="url(#a)" d="m0 0a10.926 10.926 0 0 0 -.987-2.058l-.001-.001c-1.379-1.093-5.157-1.888-7.379-1.093-2.222.794-4 3-4.227 5.246.098.732.276 1.477.54 2.217a10.562 10.562 0 0 0 1.783 3.168c1.904-.631 3.847.105 5.904-.631 2.058-.736 3-2 5-3.269a10.622 10.622 0 0 0 -.633-3.579" fill="#fcd646" transform="matrix(1 0 0 -1 35.367 13.848)"/><path clip-path="url(#b)" d="m0 0c-.55-1.538-2.122-2.092-3.626-1.554-1.502.537-2.368 1.963-1.818 3.501.348.972.898 1.811 1.275 2.334 1.491 2.067 2.65 4.354 3.508 6.755l.036.101c.045.125.086.251.123.378 1.159.731 1.691.898 2.159.731.468-.168 0 0 .592-1.715a6.6 6.6 0 0 1 -.145-.37l-.036-.101c-.859-2.401-1.414-4.904-1.572-7.448-.04-.643-.102-1.51-.496-2.612" fill="#d4a086" transform="matrix(1 0 0 -1 24.343 34.246)"/><path clip-path="url(#c)" d="m0 0c-1.778-.237-3.836-.021-5.895.715-2.056.736-3.785 1.875-5.009 3.185 1.922 2.334 4.664 3.444 7.073 2.583 2.409-.862 3.824-3.459 3.831-6.483" fill="#d24248" transform="matrix(1 0 0 -1 36 10.269)"/><path clip-path="url(#d)" d="m0 0a10.36 10.36 0 0 0 -.431-.64 12.303 12.303 0 0 0 -2.543-2.757c-1.406-.696-3.867-.247-5.406.304-1.538.55-2 1-3.082 2.732a12.312 12.312 0 0 0 -.217 3.745c.015.255.039.511.073.769 1.233-1.444 3.071-2.708 5.292-3.503 2.223-.795 4.445-.983 6.314-.65" fill="#82ae63" transform="matrix(1 0 0 -1 34.38 15.907)"/><path clip-path="url(#e)" d="m0 0a10.735 10.735 0 0 0 -1.724-1.11 6.727 6.727 0 0 1 -1.573-1.117c-2.109 0-1.41-.72-2.109-.47-.697.25-1.013.987-1.946 1.92a6.698 6.698 0 0 1 -.507 1.861 10.78 10.78 0 0 0 -.629 1.952c1.096-.904 2.45-1.679 3.989-2.229 1.538-.551 3.077-.81 4.499-.807" fill="#d24248" transform="matrix(1 0 0 -1 31.406 19.303)"/><path clip-path="url(#f)" d="m0 0a6.63 6.63 0 0 1 -1.517-2.184 14.314 14.314 0 0 0 -2.751.984c.252.865.32 1.766.213 2.651.614-.334 1.274-.63 1.971-.88.699-.25 1.396-.439 2.084-.571" fill="#ba6e54" transform="matrix(1 0 0 -1 28.11 21.53)"/><path clip-path="url(#g)" d="m0 0c.239-.75.391-1.499.463-2.235v-.001c-.434-1.706-2.955-4.629-5.204-5.345-2.248-.716-5-.041-6.542 1.608a10.935 10.935 0 0 0 -.916 2.091 10.586 10.586 0 0 0 -.504 3.599c1.897.653 2.996 2.416 5.077 3.079 2.083.663 3.599.229 5.958.433a10.592 10.592 0 0 0 1.668-3.229" fill="#fcd646" transform="matrix(1 0 0 -1 12.71 6.294)"/><path clip-path="url(#h)" d="m0 0c.496-1.557-.419-2.95-1.94-3.434s-3.074.124-3.569 1.681c-.313.983-.384 1.983-.402 2.628-.068 2.548-.534 5.069-1.307 7.499l-.033.102c-.04.127-.084.252-.132.375.478 1.284.8 1.739 1.273 1.89.474.151 0 0 1.511-1.003.033-.129.069-.256.109-.383l.033-.103c.773-2.429 1.85-4.756 3.267-6.875.358-.536.835-1.262 1.19-2.377" fill="#d4a086" transform="matrix(1 0 0 -1 16.316 29.198)"/><path clip-path="url(#i)" d="m0 0c-1.27-1.267-3.037-2.343-5.12-3.006-2.082-.663-4.147-.806-5.915-.506.113 3.022 1.62 5.567 4.057 6.343 2.438.776 5.138-.431 6.978-2.831" fill="#d24248" transform="matrix(1 0 0 -1 11.042 3.065)"/><path clip-path="url(#j)" d="m0 0c.024-.258.04-.516.046-.77.059-1.085 0-2.378-.35-3.734-.696-1.407-2.925-2.542-4.482-3.038-1.557-.495-2.197-.417-4.109.304a12.287 12.287 0 0 0 -2.443 2.845c-.143.212-.279.43-.409.656 1.857-.4 4.084-.291 6.332.425 2.25.716 4.131 1.914 5.415 3.312" fill="#ec9435" transform="matrix(1 0 0 -1 13.173 8.53)"/><path clip-path="url(#k)" d="m0 0a10.72 10.72 0 0 0 -.698-1.928 6.694 6.694 0 0 1 -.572-1.842c-1.677-1.279-.686-1.428-1.393-1.653-.705-.224-1.404.171-2.712.347a6.693 6.693 0 0 1 -1.531 1.172c-.624.35-1.184.747-1.684 1.17 1.42-.054 2.966.151 4.523.647 1.557.495 2.938 1.222 4.067 2.087" fill="#d24248" transform="matrix(1 0 0 -1 12.869 13.035)"/><path clip-path="url(#l)" d="m0 0a6.594 6.594 0 0 1 .119-2.656 13.854 13.854 0 0 0 -1.371-.514 14.2 14.2 0 0 0 -1.414-.373 6.617 6.617 0 0 1 -1.438 2.237c.691.107 1.395.272 2.101.497.707.225 1.376.497 2.003.809" fill="#ba6e54" transform="matrix(1 0 0 -1 11.599 16.805)"/></svg>