<svg viewBox="0 0 36 36" xmlns="http://www.w3.org/2000/svg"><g fill="#66757f"><path d="m11.945 32.885c-.185 0-.363-.103-.45-.28l-10.843-21.981c-.123-.248-.021-.549.228-.671.25-.122.549-.02.671.228l10.843 21.98c.123.248.021.549-.228.672-.071.035-.147.052-.221.052z"/><path d="m11.944 32.885c-.216 0-.416-.141-.481-.358l-7.421-24.915c-.079-.265.072-.545.338-.624.268-.079.545.073.624.338l7.421 24.914c.079.266-.072.545-.338.624-.047.014-.095.021-.143.021z"/><path d="m11.944 32.885c-.259 0-.479-.199-.5-.462l-2.23-27.995c-.022-.276.184-.518.46-.54.278-.02.518.184.54.46l2.23 27.995c.022.276-.184.518-.46.54z"/><path d="m11.945 32.885c-.17 0-.336-.087-.43-.243-.143-.237-.066-.546.171-.688l21-12.64c.237-.143.546-.066.688.171s.066.546-.171.688l-21 12.64c-.081.048-.17.072-.258.072z"/><path d="m11.944 32.885c-.141 0-.281-.06-.38-.175-.181-.21-.157-.526.053-.707l19.705-16.957c.21-.18.527-.157.707.053.181.21.157.527-.053.708l-19.705 16.956c-.094.082-.21.122-.327.122z"/><path d="m11.944 32.885c-.106 0-.212-.034-.303-.103-.22-.168-.263-.482-.096-.703l17.001-22.353c.168-.221.482-.262.703-.096.221.168.264.482.096.703l-17.001 22.354c-.099.129-.249.198-.4.198z"/></g><path d="m33.25 20.343s-3.106-3.669-15.62-7.34-17.109-2.262-17.109-2.262-1.679-15.658 20.461-9.163 12.268 18.765 12.268 18.765z" fill="#a0041e"/><path d="m15.799 29.523c-.095-.427-.489-.521-.633-.196s-.214 1.356-.214 1.356-.337-.915-.656-1.37l-.031-.047c-.054-.072-.107-.132-.157-.167l-.02-.013c-.246-.206-.596-.356-1.034-.485s-.813-.191-1.132-.151h-.024c-.061.003-.139.025-.222.056-.018.006-.034.015-.052.022-.514.21-1.292.799-1.292.799s.498-.906.552-1.257-.328-.485-.639-.177c-.31.308-1.13 2.047-1.011 2.449s.788.23 1.217.097l.198-.064c-.07.395-.111.863-.02 1.321-.887 1.998-.811 3.811-.411 3.928.616.181 1.137-2.356 1.44-2.267s-.524 2.461.092 2.642c.4.117 1.339-1.323 1.671-3.484.324-.337.542-.752.697-1.123.045.055.091.113.132.161.29.344.759.85 1.077.576.318-.272.567-2.179.472-2.606z" fill="#f4900c"/><path d="m14.531 28.329c-.174.592-.851 1.497-1.758 1.231s-.988-1.393-.815-1.985.511-1.742 1.798-1.365.949 1.527.775 2.119z" fill="#ffac33"/><path d="m13.783 26.115c-1.729-.507-2.329 1.149-2.03 1.65.299.502.64.04 1.463.282.823.241.861.814 1.384.553.522-.26.913-1.977-.817-2.485z" fill="#292f33"/><path d="m14.665 28.462c-.117.4-.536.629-.936.511-.4-.117-.629-.536-.511-.936.117-.4.472-.411.872-.294.399.118.692.319.575.719z" fill="#99aab5"/><path d="m14.398 28.425c-.076.258-.347.406-.605.331-.258-.076-.406-.347-.331-.605.076-.258.305-.266.564-.19.258.076.448.206.372.464z" fill="#88c9f9"/><path d="m13.219 28.038c-.117.4-.536.629-.936.511-.4-.117-.629-.536-.511-.936.117-.4.472-.411.872-.294s.693.319.575.719z" fill="#99aab5"/><path d="m12.952 28.001c-.076.258-.347.406-.605.331-.258-.076-.406-.347-.331-.605.076-.258.305-.266.564-.19s.448.206.372.464z" fill="#88c9f9"/><path d="m13.093 32.695-2.284-.67c-.14-.041-.22-.188-.179-.328s.188-.22.328-.179l2.284.67c.14.041.22.188.179.328-.042.14-.188.22-.328.179z" fill="#ffac33"/><path d="m7.156 10.73c1.122.135 2.402.336 3.854.626l.08-11.344c-1.484.034-2.763.232-3.862.553zm16.935 4.463c1.379.541 2.564 1.063 3.581 1.555l5.431-8.593c-.752-.864-1.721-1.721-2.951-2.552z" fill="#f4abba"/><path d="m24.091 15.193 6.061-9.59c-2.163-1.461-5.128-2.84-9.17-4.026s-7.282-1.627-9.892-1.566l-.08 11.344c1.907.38 4.095.907 6.62 1.647 2.525.742 4.65 1.481 6.461 2.191z" fill="#dd2e44"/></svg>