<svg viewBox="0 0 36 36" xmlns="http://www.w3.org/2000/svg"><circle cx="18" cy="19" fill="#f4900c" r="17"/><circle cx="18" cy="17" fill="#ffcc4d" r="17"/><circle cx="18" cy="18" fill="#ffe8b6" r="14"/><circle cx="18" cy="17" fill="#ffac33" r="14"/><path d="m9.543 10.856c0-.545.535-.763.535-.763l7.878-3.7 7.953 3.7s.548.122.548.767v.641h-16.914z" fill="#ffe8b6"/><path d="m25.929 12.836c0-.584-.505-1.057-1.127-1.057h-13.673c-.623 0-1.057.473-1.057 1.057 0 .397.204.739.529.92v.666h2.114v-.529h2.114v.529h2.114v-.529h2.114v.529h2.114v-.529h2.114v.529h2.115v-.693c.317-.188.529-.517.529-.893zm1.585 11.164c0 .438-.355.793-.793.793h-17.442c-.438 0-.793-.355-.793-.793s.355-.793.793-.793h17.443c.437 0 .792.355.792.793z" fill="#f4900c"/><path d="m26.457 12.2c0 .292-.236.529-.529.529h-15.857c-.292 0-.529-.237-.529-.529s.237-.529.529-.529l15.857.003c.293.001.529.234.529.526zm-14.271.614h11.629v1.186h-11.629z" fill="#f4900c"/><path d="m12.714 20.829c0 .584-.316 1.057-.705 1.057h-.705c-.389 0-.705-.473-.705-1.057v-8.014c0-.584.316-1.057.705-1.057h.705c.389 0 .705.473.705 1.057zm12.686 0c0 .584-.315 1.057-.705 1.057h-.705c-.389 0-.705-.473-.705-1.057v-8.014c0-.584.315-1.057.705-1.057h.705c.389 0 .705.473.705 1.057zm-8.457 0c0 .584-.316 1.057-.705 1.057h-.705c-.389 0-.705-.473-.705-1.057v-8.014c0-.584.316-1.057.705-1.057h.705c.389 0 .705.473.705 1.057zm4.228 0c0 .584-.316 1.057-.705 1.057h-.704c-.389 0-.705-.473-.705-1.057v-8.014c0-.584.316-1.057.705-1.057h.704c.389 0 .705.473.705 1.057z" fill="#ffd983"/><path d="m25.929 21.357c0 .584-.473 1.057-1.057 1.057h-13.743c-.584 0-1.057-.473-1.057-1.057s.473-1.057 1.057-1.057h13.743c.583 0 1.057.473 1.057 1.057z" fill="#ffcc4d"/><path d="m26.986 22.414c0 .584-.473 1.057-1.057 1.057h-15.858c-.584 0-1.057-.473-1.057-1.057s.473-1.057 1.057-1.057h15.857c.584 0 1.058.473 1.058 1.057z" fill="#ffd983"/><path d="m27.514 23.207c0 .438-.355.793-.793.793h-17.442c-.438 0-.793-.355-.793-.793s.355-.793.793-.793h17.443c.437 0 .792.355.792.793z" fill="#ffd983"/><path d="m25.929 12.286c0-.584-.505-1.057-1.127-1.057h-13.673c-.623 0-1.057.473-1.057 1.057 0 .397.204.739.529.92v.666h2.114v-.529h2.114v.529h2.114v-.529h2.114v.529h2.114v-.529h2.114v.529h2.115v-.693c.317-.188.529-.517.529-.893z" fill="#ffcc4d"/><path d="m9.543 11.463c0-.545.535-.763.535-.763l7.878-3.7 7.953 3.7s.548.122.548.767v.291h-16.914z" fill="#ffd983"/><path d="m18 8.343s-5.455 2.571-5.999 2.803c-.545.231-.363.611.001.611h11.97c.562 0 .429-.429-.017-.661-.446-.231-5.955-2.753-5.955-2.753z" fill="#ffac33"/><path d="m26.457 11.757c0 .292-.236.529-.529.529h-15.857c-.292 0-.529-.237-.529-.529s.237-.529.529-.529l15.857.003c.293.001.529.234.529.526z" fill="#ffd983"/></svg>