<svg viewBox="0 0 36 36" xmlns="http://www.w3.org/2000/svg"><path d="m5.597 7.805 11.647 11.646 2.207-2.207-11.646-11.647-.805-2.597-4-2-2 2 2 4z" fill="#99aab5"/><path d="m17.289 17.333-9.254-9.254c-.458-.457-.637-1.026-.399-1.264.239-.238.807-.059 1.264.398l9.254 9.254c.457.457.636 1.026.398 1.264-.237.238-.806.059-1.263-.398z" fill="#e1e8ed"/><path d="m16.33 20.744 4.414-4.414c.711-.711 1.875-.711 2.586 0l10.964 10.964c.711.711.711 1.875 0 2.586l-4.414 4.414c-.711.711-1.875.711-2.586 0l-10.964-10.964c-.711-.711-.711-1.875 0-2.586zm-2.263-1.616 5.061-5.061c.533-.533 1.406-.533 1.939 0s.533 1.406 0 1.939l-5.061 5.061c-.533.533-1.406.533-1.939 0s-.533-1.406 0-1.939z" fill="#dd2e44"/><path d="m15.832 17.947 3.338-3.338c.457-.457 1.026-.636 1.264-.398s.059.807-.398 1.264l-3.338 3.338c-.457.457-1.026.636-1.264.398-.239-.238-.059-.807.398-1.264z" fill="#ea596e"/><path d="m22.037 17.623c.356-.356.937-.356 1.293 0l9.672 9.672c.356.356.356.937 0 1.293s-.937.356-1.293 0l-9.672-9.672c-.356-.356-.356-.938 0-1.293zm-4.414 4.414c.356-.356.937-.356 1.293 0l9.672 9.672c.356.356.356.937 0 1.293s-.937.356-1.293 0l-9.672-9.672c-.356-.356-.356-.938 0-1.293zm1.639-2.932c.356-.356.97-.323 1.364.072l10.632 10.632c.395.395.427 1.009.072 1.364-.356.356-.97.323-1.364-.072l-10.633-10.632c-.395-.395-.427-1.009-.071-1.364z" fill="#a0041e"/><path d="m3.155 1.078h-.233l-1.87 1.87.004.166.324.646 2.38-2.38z" fill="#66757f"/><path d="m2.147 3.573 1.648-1.649 2.763 1.426-2.228 2.168z" fill="#e1e8ed"/></svg>