<svg viewBox="0 0 36 36" xmlns="http://www.w3.org/2000/svg"><path d="m12 20c-1.1 0-2 .9-2 2v10c0 1.1.9 2 2 2s2-.9 2-2v-10c0-1.1-.9-2-2-2zm18 0c-1.1 0-2 .9-2 2v10c0 1.1.9 2 2 2s2-.9 2-2v-10c0-1.1-.9-2-2-2z" fill="#a4523a"/><g fill="#c1694f"><path d="m13 2h16v8h-16z"/><path d="m16 9h2v13h-2zm4 0h2v13h-2zm4 0h2v13h-2zm-17 14c-1.1 0-2 .9-2 2v9c0 1.1.9 2 2 2s2-.9 2-2v-9c0-1.1-.9-2-2-2z"/><path d="m25 21c-1.1 0-2 .9-2 2v11c0 1.1.9 2 2 2s2-.9 2-2v-11c0-1.1-.9-2-2-2zm-13-21c-1.1 0-2 .9-2 2v20h4v-20c0-1.1-.9-2-2-2zm18 0c-1.1 0-2 .9-2 2v20h4v-20c0-1.1-.9-2-2-2z"/></g><path d="m14 2h1v8h-1zm14 8h-1v-8h1z" fill="#a4523a"/><path d="m30.769 20h-20.428c-.223 0-.442.061-.633.175l-5.954 3.041s22.726 2.418 24.726 2.418l3.029-2.265c.309-.232.491-.597.491-.985v-1.153c0-.68-.551-1.231-1.231-1.231z" fill="#d99e82"/><path d="m16 10h2v1h-2zm-11 16h4v1h-4zm18 0h4v1h-4zm-3-16h2v1h-2zm4 0h2v1h-2z" fill="#a4523a"/><path d="m27.44 26h-22.88c-.862 0-1.56-.672-1.56-1.5s.698-1.5 1.56-1.5h22.88c.862 0 1.56.672 1.56 1.5s-.698 1.5-1.56 1.5z" fill="#c1694f"/></svg>