<svg viewBox="0 0 36 36" xmlns="http://www.w3.org/2000/svg"><path d="m8.53 21.304 12.774-12.774c1.451-1.451 1.451-3.825 0-5.276l-1.666-1.666c-1.451-1.451-3.825-1.451-5.276 0l-12.774 12.774c-1.451 1.451-1.451 3.825 0 5.276l1.666 1.666c1.451 1.45 3.825 1.45 5.276 0z" fill="#77b255"/><path d="m34.355 34.355c1.145-1.145 1.145-3.02 0-4.165l-19.438-19.438c-1.145-1.145-3.02-1.145-4.165 0s-1.145 3.02 0 4.165l19.438 19.438c1.145 1.145 3.019 1.145 4.165 0z" fill="#77b255"/><path d="m24.551 18.998 9.803 9.803c1.527 1.527 1.527 4.026 0 5.554-1.527 1.527-4.026 1.527-5.554 0l-9.803-9.803c-1.534-1.534-1.534-4.02 0-5.554s4.021-1.534 5.554 0z" fill="#5c913b"/><path d="m5.198 17.694 12.496-12.496c.382-.382.382-1.007 0-1.388-.382-.382-1.007-.382-1.388 0l-12.496 12.495c-.382.382-.382 1.007 0 1.388.381.382 1.006.382 1.388.001zm2.083 2.082 12.495-12.495c.382-.382.382-1.007 0-1.388-.382-.382-1.007-.382-1.388 0l-12.496 12.495c-.382.382-.382 1.007 0 1.388.382.382 1.007.382 1.389 0z" fill="#e1e8ed"/><path d="m18.388 14.223-4.165 4.166-1.39-1.39 4.167-4.164z" fill="#5c913b"/><path d="m23.594 25.677 2.083-2.083c.573-.573.573-1.51 0-2.083s-1.51-.573-2.083 0l-2.083 2.083c-.573.573-.573 1.51 0 2.083.574.573 1.511.573 2.083 0zm3.471 3.471 2.083-2.083c.573-.573.573-1.51 0-2.083s-1.51-.573-2.083 0l-2.083 2.083c-.573.573-.573 1.51 0 2.083.574.573 1.511.573 2.083 0zm3.471 3.471 2.083-2.083c.573-.573.573-1.51 0-2.083s-1.51-.573-2.083 0l-2.083 2.083c-.573.573-.573 1.51 0 2.083.574.573 1.511.573 2.083 0z" fill="#3e721d"/><path d="m3.472 15.255 11.783-11.783c.58-.58.58-1.521 0-2.101l-.338-.338-13.884 13.884.338.338c.58.58 1.521.58 2.101 0z" fill="#a6d388"/></svg>