<svg viewBox="0 0 36 36" xmlns="http://www.w3.org/2000/svg"><path d="m33.139 21.464c.719.341.364 1.157 0 1.865-1.755 3.412-11.661 12.123-19.776 12.123-7.104 0-12.863-5.646-12.863-12.123s7.91-3.098 13.056-6.528c1.715 0 1.865-3.73 19.583 4.663z" fill="#be1931"/><path d="m31.274 21.464c3.129 2.014-11.033 7.027-18.138 7.027-7.104 0-12.636-2.509-12.636-6.139s5.759-6.573 12.863-6.573c7.105 0 12.316 2.085 17.911 5.685z" fill="#7f031e"/><path d="m29.409 22.396c2.655 1.8-8.492 6.201-16.046 6.201-7.03 0-11.35-2.432-11.35-5.432s5.082-5.432 11.35-5.432 12.316 2.134 16.046 4.663z" fill="#ffac33"/><path d="m24.745 24.262c-.418 0-.798-.282-.904-.706-.124-.499.178-1.005.679-1.131 3.698-.925 5.061-1.766 5.849-4.917.125-.5.632-.803 1.131-.679.499.125.803.631.679 1.131-1.107 4.428-3.685 5.393-7.207 6.274-.076.019-.152.028-.227.028z"/><path d="m26.75 12.119c0 4.296 2.496 5.833 4.375 5.833s4.375-1.538 4.375-5.833c0-4.296-1.944-8.651-4.375-11.567-2.431 2.916-4.375 7.271-4.375 11.567z" fill="#f4900c"/><g fill="#ffcc4d"><ellipse cx="31.125" cy="13.577" rx="2.431" ry="4.375"/><ellipse cx="12.167" cy="22.813" rx="6.806" ry="2.917"/></g></svg>