<svg viewBox="0 0 36 36" xmlns="http://www.w3.org/2000/svg"><path d="m10.481 25.519c-.706-.706-.706-1.861 0-2.567l21.952-21.952c.706-.706 1.861-.706 2.567 0s.706 1.861 0 2.567l-21.952 21.952c-.706.706-1.861.706-2.567 0z" fill="#d99e82"/><path d="m15.009 24.848-3.901-3.901c-.583-.583-.583-1.538 0-2.121l.298-.298c.583-.583 1.538-.583 2.121 0l3.901 3.901c.583.583.583 1.538 0 2.121l-.298.298c-.583.583-1.538.583-2.121 0z" fill="#dd637f"/><path d="m2.95 22.466c3.118-3.118 8.004-3.286 10.915-.376s2.742 7.797-.376 10.915z" fill="#dd637f"/><path d="m11.922 34.664-10.63-10.63c-.389-.389-.389-1.025 0-1.414l.199-.199c.389-.389 1.025-.389 1.414 0l10.63 10.63c.389.389.389 1.025 0 1.414l-.199.199c-.389.389-1.025.389-1.414 0zm4.862-9.587-5.905-5.905c-.239.434-.251.945-.029 1.385l4.548 4.548c.441.223.952.211 1.386-.028z" fill="#bf345d"/><path d="m6 25c3-3 5.5-3.5 5.5-3.5s-4.5-1.5-7.5 1.5z" fill="#eb8caa"/></svg>