<svg viewBox="0 0 36 36" xmlns="http://www.w3.org/2000/svg"><path d="m18 0c-6.627 0-12 1.343-12 3v29.7h24v-29.7c0-1.657-5.373-3-12-3z" fill="#e1e8ed"/><path d="m6 24.7v8c0 1.657 5.373 3.3 12 3.3s12-1.643 12-3.3v-8z" fill="#d42544"/><path d="m30 24.7c0 1.657-5.373 3.3-12 3.3s-12-1.643-12-3.3 5.373-2.7 12-2.7 12 1.043 12 2.7z" fill="#ff475c"/><path d="m21.956 12.788c.091.544-.321 1.066-.922 1.136-.676.079-1.355.121-2.035.147v1.929a1 1 0 0 1 -2 0v-1.93a26.188 26.188 0 0 1 -2.035-.147c-.601-.07-1.012-.591-.922-1.136a1.042 1.042 0 0 1 1.152-.851c.6.07 1.202.109 1.804.133v-2.069a1 1 0 0 1 2 0v2.07a24.781 24.781 0 0 0 1.804-.133 1.042 1.042 0 0 1 1.154.851zm4.695-9.788c-1.73-.597-4.952-1-8.651-1s-6.921.403-8.651 1h-1.349v1c0 1.105 4.477 2 10 2s10-.895 10-2v-1z" fill="#99aab5"/><ellipse cx="18" cy="3" fill="#ccd6dd" rx="10" ry="2"/><path d="m14 1v1.5c0 .552 1.791 1 4 1s4-.448 4-1v-1.5z" fill="#99aab5"/><ellipse cx="18" cy="1" fill="#ccd6dd" rx="4" ry="1"/><path d="m15.478 32.522c-.609-.067-1.026-.59-.934-1.134a1.048 1.048 0 0 1 1.153-.854c1.531.168 3.076.168 4.607 0a1.048 1.048 0 0 1 1.153.854c.091.544-.326 1.067-.934 1.134a23.123 23.123 0 0 1 -5.045 0z" fill="#fff"/></svg>