<svg viewBox="0 0 36 36" xmlns="http://www.w3.org/2000/svg"><path d="m24.833.089-24.833 11.566 12 17.431v.003h18.212l5.788-12.261z" fill="#662113"/><path d="m29.249 28.073h-16.792l2.431-15.561h3.291z" fill="#3d130c"/><path d="m12.457 28.073-10.699-15.561h13.13l2.666 4.149z" fill="#511212"/><path d="m25.608 24.422-12.364 5.522.78-1.581c.141.025.269.038.422.038.69 0 1.266-.301 1.266-.69 0-.339-.46-.615-1.048-.678l1.805-3.665c.602-.19 2.872-.405 5.918.163-.013.364.192.703.55.841.435.176.933-.025 1.125-.452.243.05.473.125.703.213z" fill="#ffcc4d"/><g fill="#f4900c"><ellipse cx="18.604" cy="24.424" rx="1.053" ry=".517"/><path d="m15.716 27.706c0 .389-.574.697-1.27.697-.15 0-.287-.013-.423-.04l.642-1.327c.586.054 1.051.335 1.051.67zm10.097 2.238-12.569 5.146v-1.092c.627 0 1.138-.515 1.138-1.142 0-.615-.511-1.13-1.138-1.13v-1.782l12.364-5.522.077 2.033c-.153-.088-.32-.125-.511-.125-.639 0-1.151.502-1.151 1.13s.511 1.129 1.151 1.129c.217 0 .422-.063.588-.163z"/><ellipse cx="20.039" cy="27.023" rx="2.156" ry="1.058"/></g><path d="m18.293 11.655h-18.293l7.562-11.566h17.271z" fill="#c1694f"/><g fill="#f98e00"><path d="m6.69 13.401h1.583v22.599h-1.583z"/><path d="m7.485 12.842c-.874 0-1.582-.708-1.582-1.582v-2.368c0-.409-.321-.73-.73-.73-.398 0-.73.321-.73.73v2.235c0 .83.343 1.593.885 2.147.553.542 1.317.885 2.158.885 1.093 0 2.045-.588 2.579-1.459h-1.933c-.197.089-.415.142-.647.142z"/></g></svg>