<svg viewBox="0 0 36 36" xmlns="http://www.w3.org/2000/svg"><path d="m5.833 6.748 5.657-5.657.707 2.122 2.122.707.707 2.121 2.121.707.707 2.121 2.121.708-5.656 5.656z" fill="#ccd6dd"/><path d="m11.844 4.273-4.596 4.596c-.195.195-.512.195-.707 0s-.195-.512 0-.707l4.596-4.596c.195-.195.512-.195.707 0 .195.196.195.512 0 .707zm1.414 1.415-4.596 4.596c-.195.195-.512.195-.707 0s-.195-.512 0-.707l4.596-4.596c.195-.195.512-.195.707 0s.195.511 0 .707zm1.414 1.414-4.596 4.596c-.195.195-.512.195-.707 0s-.195-.512 0-.707l4.596-4.596c.195-.195.512-.195.707 0s.196.511 0 .707zm1.414 1.414-4.596 4.596c-.195.195-.512.195-.707 0s-.195-.512 0-.707l4.596-4.596c.195-.195.512-.195.707 0 .196.195.196.512 0 .707zm1.415 1.414-4.596 4.596c-.195.195-.512.195-.707 0s-.195-.512 0-.707l4.596-4.596c.195-.195.512-.195.707 0s.195.512 0 .707z" fill="#99aab5"/><path d="m31.996 34.325c-.778.778-2.051.778-2.828 0l-17.678-17.677c-.778-.778-.778-2.051 0-2.828.778-.778 2.051-.778 2.828 0l17.678 17.678c.778.777.778 2.05 0 2.827z" fill="#289193"/><path d="m15.026 17.355c-.778.778-2.051.778-2.828 0l-8.486-8.486c-.389-.389-.389-1.025 0-1.414l1.414-1.414c.389-.389 1.025-.389 1.414 0l8.485 8.485c.779.778.779 2.051.001 2.829z" fill="#3db8c1"/></svg>