<svg viewBox="0 0 36 36" xmlns="http://www.w3.org/2000/svg"><path d="m17.094 24.242h-9.534s1.653 6.469 4.254 9.581c1.771 2.118 4.75 2.282 5.81 2.282 2.118 0 4.818-.174 6.589-2.294 3.087-3.691 4.534-9.569 4.534-9.569z" fill="#c1694f"/><path d="m27.628 27.666c.458-1.18.771-2.184.947-2.795-.099-.217-.247-.427-.432-.629h-19.979c-.185.202-.333.411-.432.628.174.608.479 1.608.892 2.753 1.535 1.364 4.723 2.458 9.529 2.458 4.754 0 7.922-1.072 9.475-2.415z" fill="#a04e3c"/><ellipse cx="18" cy="19.716" fill="#a04e3c" rx="11.768" ry="2.716"/><path d="m7.819 21.073c2.036.811 5.828 1.358 10.181 1.358s8.145-.547 10.181-1.358c-2.036-.811-5.828-1.358-10.181-1.358s-8.145.548-10.181 1.358z" fill="#662113"/><g fill="#3e721d"><path d="m18.733 23.524c-.259 0-.485-.189-.525-.452-1.074-7.082.905-17.425 5.465-20.944.231-.179.566-.137.747.096.18.233.137.567-.096.747-4.145 3.198-6.091 13.166-5.064 19.941.045.291-.155.562-.446.606-.028.004-.055.006-.081.006z"/><path d="m18.745 15.719c.061.401 1.265.552 2.69.335 1.424-.216 2.53-.717 2.469-1.118s-1.265-.552-2.69-.335c-1.425.215-2.53.716-2.469 1.118zm.095 1.739c.061.401 1.358.537 2.897.304 1.539-.234 2.737-.748 2.676-1.15-.061-.401-1.358-.537-2.897-.304-1.539.234-2.737.748-2.676 1.15z"/><ellipse cx="21.824" cy="18.734" rx="3.083" ry=".735" transform="matrix(.98867271 -.15008755 .15008755 .98867271 -2.564267 3.487243)"/><path d="m19.095 14.226c.103.393 1.236.435 2.531.095 1.294-.34 2.26-.935 2.157-1.327-.103-.393-1.236-.435-2.531-.095-1.294.341-2.26.935-2.157 1.327zm.178-1.765c.121.388 1.149.411 2.298.053 1.148-.358 1.98-.963 1.859-1.35-.121-.388-1.149-.411-2.298-.053-1.148.358-1.98.963-1.859 1.35zm.105-1.584c.127.325 1.068.263 2.102-.14s1.77-.993 1.643-1.318-1.068-.263-2.102.14c-1.034.402-1.769.992-1.643 1.318zm.802-1.738c.113.291.898.258 1.752-.075.854-.332 1.455-.838 1.342-1.129s-.898-.258-1.752.075c-.855.333-1.456.838-1.342 1.129zm.652-1.918c.05.308.718.456 1.493.331.774-.126 1.361-.478 1.311-.786s-.718-.456-1.493-.331c-.774.125-1.361.477-1.311.786zm.786-1.276c.052.322.787.47 1.641.331s1.504-.512 1.452-.834-.787-.47-1.641-.331-1.504.512-1.452.834zm1.152-1.441c.047.287.714.417 1.491.291s1.369-.461 1.322-.748-.714-.417-1.491-.291c-.776.127-1.368.462-1.322.748zm.949-1.358c.041.251.603.369 1.256.263s1.149-.396 1.108-.647-.603-.369-1.256-.263-1.149.396-1.108.647z"/><path d="m24.431 2.351c.129.219.696.124 1.266-.212s.927-.786.798-1.005-.696-.124-1.266.212c-.57.335-.927.786-.798 1.005z"/><path d="m24.066 2.291c.244.073.596-.381.786-1.014.19-.634.147-1.206-.096-1.28-.244-.073-.596.381-.786 1.014-.19.634-.147 1.207.096 1.28zm-10.796 13.2c0 .406 1.168.735 2.609.735s2.609-.329 2.609-.735-1.168-.735-2.609-.735-2.609.329-2.609.735zm-.336 1.458c-.039.404 1.092.844 2.526.981 1.434.138 2.628-.078 2.667-.482s-1.092-.844-2.526-.981c-1.434-.138-2.628.078-2.667.482zm-.537 1.653c-.039.404 1.22.856 2.811 1.009s2.913-.051 2.952-.455-1.22-.856-2.811-1.009c-1.592-.153-2.913.051-2.952.455zm1.64-4.934c-.034.405.968.818 2.237.924s2.325-.137 2.359-.541c.034-.405-.968-.818-2.237-.924s-2.325.136-2.359.541zm.778-1.404c-.018.406.907.776 2.065.828 1.159.051 2.113-.236 2.131-.641.018-.406-.907-.776-2.065-.828-1.159-.052-2.113.235-2.131.641z"/><path d="m15.825 10.677c-.068.352.654.788 1.612.973s1.79.049 1.858-.303-.654-.788-1.612-.973-1.79-.049-1.858.303zm.464-1.802c-.135.333.489.9 1.393 1.267s1.747.395 1.882.063c.135-.333-.488-.9-1.393-1.267s-1.747-.395-1.882-.063zm.381-2.029c-.189.275.338.966 1.178 1.543s1.673.821 1.863.546c.189-.275-.338-.966-1.178-1.543s-1.674-.821-1.863-.546zm1.131-.878c-.189.275.251.906.983 1.409s1.479.687 1.668.412-.251-.906-.983-1.409-1.479-.687-1.668-.412zm.7-1.543c-.233.239.094.936.731 1.555s1.341.927 1.574.688-.094-.936-.731-1.555c-.636-.619-1.341-.927-1.574-.688zm.914-1.103c-.233.239.054.896.64 1.466s1.25.839 1.483.599c.233-.239-.054-.896-.64-1.466s-1.25-.838-1.483-.599zm.94-.972c-.229.235.018.848.553 1.367s1.153.75 1.382.515-.018-.848-.553-1.367-1.153-.751-1.382-.515z"/><ellipse cx="22.186" cy="2.439" rx=".595" ry="1.349" transform="matrix(.84299736 -.5379177 .5379177 .84299736 2.170898 12.317867)"/><path d="m22.804.537c-.261.09-.305.65-.097 1.251.208.6.588 1.014.849.923s.305-.65.097-1.251c-.208-.6-.588-1.013-.849-.923z"/></g><path d="m16.885 23.63c-.278-.041-.478-.293-.453-.576.753-8.173-2.365-13.97-8.781-16.321-.276-.1-.417-.406-.316-.682.1-.276.404-.421.683-.317 6.912 2.532 10.277 8.718 9.475 17.418-.027.292-.286.508-.578.481-.011 0-.02-.001-.03-.003z" fill="#3e721d"/><path d="m16.664 16.81c-.008.406-1.181.713-2.622.686s-2.602-.378-2.595-.784c.008-.406 1.182-.713 2.622-.687 1.441.028 2.602.379 2.595.785zm-.002 1.758c-.008.406-1.181.713-2.622.687s-2.912-.478-2.904-.884c.007-.406 1.491-.613 2.932-.586 1.44.026 2.601.377 2.594.783z" fill="#3e721d"/><path d="m17.077 20.098c-.008.406-1.181.713-2.622.687-1.44-.027-2.912-.478-2.904-.884s1.491-.613 2.932-.586 2.601.378 2.594.783z" fill="#5c913b"/><path d="m16.499 15.517c-.054.402-1.173.584-2.5.405-1.326-.179-2.358-.65-2.304-1.052s1.174-.584 2.5-.405c1.327.179 2.358.65 2.304 1.052zm-.744-1.769c-.054.402-1.064.599-2.256.438-1.192-.16-2.114-.617-2.06-1.019s1.064-.599 2.256-.438 2.114.617 2.06 1.019z" fill="#3e721d"/><path d="m15.314 12.1c.004.349-.893.642-2.002.654-1.11.012-2.012-.261-2.016-.61s.893-.642 2.002-.654 2.012.261 2.016.61zm-1.392-1.313c.003.312-.737.574-1.653.584-.917.01-1.662-.235-1.666-.547-.003-.312.737-.574 1.653-.584.917-.011 1.663.234 1.666.547zm-1.321-1.537c.068.305-.496.691-1.262.863-.765.172-1.441.064-1.51-.24-.068-.305.496-.691 1.262-.863s1.442-.065 1.51.24zm-1.204-.891c.071.318-.555.73-1.399.919-.844.19-1.587.086-1.658-.232s.555-.73 1.399-.919c.844-.19 1.586-.086 1.658.232zm-1.607-.907c.064.283-.507.653-1.275.826-.767.172-1.441.082-1.505-.201-.064-.284.507-.653 1.275-.826.768-.172 1.442-.082 1.505.201zm-1.387-.907c.056.248-.422.567-1.068.712-.645.145-1.214.062-1.269-.187-.056-.248.422-.567 1.067-.712.646-.145 1.214-.061 1.27.187z" fill="#3e721d"/><path d="m7.446 6.073c-.038.251-.6.375-1.254.275s-1.153-.384-1.114-.636c.038-.251.6-.375 1.254-.275.653.1 1.152.385 1.114.636z" fill="#3e721d"/><g fill="#5c913b"><path d="m7.762 5.882c-.198.159-.694-.131-1.107-.648s-.587-1.065-.388-1.223c.199-.159.695.131 1.108.648.412.517.586 1.064.387 1.223zm14.18 9.727c.065.401-1.036.912-2.458 1.141s-2.628.09-2.692-.311c-.065-.401 1.036-.912 2.458-1.141s2.628-.09 2.692.311zm.884 1.279c.065.401-1.478 1.199-2.901 1.429-1.422.229-2.628.09-2.693-.311s1.036-.912 2.458-1.141c1.424-.229 3.071-.378 3.136.023zm.553 1.679c.065.401-1.877 1.301-3.299 1.53s-2.628.09-2.692-.311c-.065-.401 1.036-.912 2.458-1.141s3.468-.479 3.533-.078zm-2.585-4.869c.124.387-.758 1.016-1.97 1.405-1.212.39-2.296.392-2.42.005s.758-1.016 1.97-1.405 2.296-.391 2.42-.005zm-.799-1.416c.124.387-.67.988-1.774 1.342s-2.1.329-2.224-.057c-.124-.387.67-.988 1.774-1.342 1.104-.355 2.099-.33 2.224.057zm-1.459-1.692c.194.302-.313.975-1.133 1.504s-1.643.713-1.837.411.313-.975 1.133-1.504c.82-.528 1.642-.712 1.837-.411zm-1.102-1.499c.249.258-.118 1.017-.82 1.695s-1.473 1.018-1.723.76c-.249-.258.118-1.017.82-1.695s1.474-1.018 1.723-.76zm-1.11-1.741c.278.185.047 1.022-.517 1.871-.564.848-1.247 1.386-1.525 1.201s-.047-1.022.517-1.871c.564-.848 1.247-1.386 1.525-1.201zm-1.377-.393c.278.185.105.934-.387 1.674s-1.116 1.189-1.394 1.004-.105-.934.387-1.674c.491-.739 1.115-1.189 1.394-1.004zm-1.225-1.17c.305.135.261.903-.099 1.715s-.899 1.36-1.204 1.225-.261-.903.099-1.715c.359-.812.899-1.361 1.204-1.225zm-1.259-.683c.305.135.284.851-.047 1.599s-.848 1.245-1.153 1.109-.284-.851.047-1.599.847-1.244 1.153-1.109zm-1.235-.552c.3.133.299.793-.003 1.475-.302.681-.79 1.126-1.09.993s-.299-.793.003-1.475c.302-.681.79-1.126 1.09-.993z"/><path d="m9.812 3.992c.323.061.473.704.335 1.436s-.511 1.277-.834 1.216-.473-.704-.335-1.436c.138-.733.511-1.277.834-1.216zm-1.532-.208c.276-.014.525.49.556 1.124.031.635-.167 1.16-.443 1.173-.276.014-.525-.49-.556-1.124-.032-.634.167-1.16.443-1.173zm10.596 21.305c-.023 0-.047-.001-.071-.005-.292-.039-.496-.307-.457-.598 1.481-11.036 8.282-15.97 12.221-16.488.287-.038.559.166.597.458.039.292-.166.559-.458.597-3.627.477-9.903 5.127-11.305 15.574-.036.268-.264.462-.527.462z"/><path d="m20.889 18.194c-.032.405 1.106.825 2.542.939s2.626-.122 2.659-.527c.032-.405-1.106-.825-2.542-.939-1.437-.113-2.627.122-2.659.527z"/><ellipse cx="23.601" cy="16.836" rx="2.423" ry=".735" transform="matrix(.99935185 -.03599836 .03599836 .99935185 -.591088 .860947)"/><path d="m22.093 15.236c.015.406 1.001.7 2.202.656 1.202-.043 2.164-.407 2.149-.813s-1.001-.7-2.202-.656c-1.202.043-2.164.407-2.149.813z"/><path d="m22.693 13.638c-.038.347.826.726 1.929.847s2.028-.063 2.066-.41-.826-.726-1.929-.847c-1.103-.12-2.029.063-2.066.41zm1.512-1.171c-.034.311.677.643 1.588.742s1.677-.072 1.711-.382c.034-.311-.677-.643-1.588-.742s-1.677.072-1.711.382zm1.465-1.4c-.098.297.427.736 1.172.982s1.428.205 1.526-.092-.427-.736-1.172-.982-1.428-.205-1.526.092zm1.286-.769c-.102.31.481.78 1.303 1.052.822.271 1.571.24 1.673-.069.102-.31-.481-.78-1.303-1.052s-1.571-.241-1.673.069zm1.687-.746c-.091.276.441.699 1.188.946s1.427.223 1.518-.053-.441-.7-1.188-.946c-.747-.247-1.427-.223-1.518.053zm1.469-.767c-.08.242.365.605.993.813.628.207 1.202.18 1.282-.062s-.365-.605-.993-.813-1.202-.18-1.282.062z"/><path d="m31.111 8.408c.014.254.56.431 1.221.396s1.185-.27 1.172-.524c-.014-.254-.56-.431-1.221-.396-.661.036-1.186.27-1.172.524z"/></g><path d="m30.815 8.187c.182.177.704-.063 1.166-.537.461-.474.688-1.002.506-1.18-.182-.177-.704.063-1.166.537-.462.475-.688 1.003-.506 1.18zm-15.062 8.296c-.103.393.942 1.008 2.335 1.375s2.607.346 2.71-.046c.104-.393-.942-1.008-2.335-1.375s-2.607-.347-2.71.046zm1.329-1.789c-.161.373.655 1.085 1.824 1.591s2.247.614 2.408.242c.161-.373-.655-1.085-1.824-1.591-1.168-.507-2.246-.615-2.408-.242zm.934-1.332c-.161.373.571 1.048 1.635 1.509s2.058.533 2.219.16-.571-1.048-1.635-1.509-2.058-.532-2.219-.16zm1.617-1.541c-.223.281.216 1.001.981 1.607s1.565.87 1.788.589-.216-1.001-.981-1.607c-.764-.606-1.565-.87-1.788-.589zm1.243-1.384c-.273.233.018 1.024.65 1.767.633.743 1.367 1.157 1.64.924s-.018-1.024-.65-1.767-1.367-1.157-1.64-.924zm1.275-1.625c-.295.157-.146 1.013.332 1.912s1.105 1.501 1.4 1.344.146-1.013-.332-1.912-1.105-1.501-1.4-1.344zm1.409-.256c-.295.157-.196.92.221 1.704s.994 1.293 1.289 1.136.196-.92-.221-1.704c-.417-.785-.994-1.293-1.289-1.136zm1.333-1.046c-.317.105-.348.873-.069 1.717.279.843.762 1.442 1.079 1.337s.348-.873.069-1.717c-.279-.843-.762-1.441-1.079-1.337zm1.32-.556c-.317.105-.366.819-.109 1.596s.722 1.321 1.039 1.216.366-.819.109-1.596c-.257-.776-.722-1.32-1.039-1.216zm1.282-.429c-.312.103-.375.76-.141 1.468s.676 1.198.988 1.095.375-.76.141-1.468c-.233-.708-.676-1.198-.988-1.095z" fill="#77b255"/><path d="m28.96 6.106c-.327.029-.539.654-.474 1.397.066.742.384 1.321.711 1.292s.539-.654.474-1.397-.384-1.321-.711-1.292zm1.545-.058c-.274-.04-.57.436-.663 1.065-.093.628.053 1.171.327 1.211s.571-.436.663-1.065c.092-.628-.054-1.17-.327-1.211z" fill="#77b255"/><path d="m16.947 23.468c-.227-.016-.427-.177-.481-.41-.071-.304-1.857-7.429-12.713-7.742-.266.012-.525-.252-.517-.547.008-.294.253-.525.547-.517 11.696.33 13.702 8.485 13.72 8.568.065.286-.114.57-.399.636-.054.012-.106.016-.157.012z" fill="#5c913b"/><path d="m16.196 21.209c.153.376-.805 1.121-2.14 1.663s-2.541.677-2.693.301c-.153-.376.805-1.121 2.14-1.663 1.334-.543 2.54-.677 2.693-.301zm-.66-1.124c.109.391-.849.998-2.139 1.356s-2.423.331-2.532-.06.849-.998 2.139-1.356 2.423-.331 2.532.06zm-1.38-1.333c.109.391-.743.969-1.902 1.291s-2.186.265-2.295-.126.743-.969 1.901-1.291c1.16-.322 2.187-.265 2.296.126z" fill="#77b255"/><path d="m13.101 17.41c.141.319-.568.942-1.583 1.389-1.015.448-1.953.552-2.094.233s.568-.942 1.583-1.389c1.016-.448 1.953-.552 2.094-.233zm-1.795-.659c.126.286-.452.817-1.29 1.187-.839.37-1.621.438-1.747.152s.452-.817 1.29-1.187 1.62-.438 1.747-.152zm-1.82-.893c.183.253-.184.831-.82 1.29s-1.3.626-1.483.373.184-.831.82-1.29 1.3-.627 1.483-.373zm-1.458-.345c.191.264-.223.889-.925 1.396s-1.425.703-1.616.439.223-.889.925-1.396 1.425-.703 1.616-.439zm-1.834-.202c.17.235-.209.8-.847 1.261s-1.293.643-1.463.408.209-.8.847-1.261 1.293-.643 1.463-.408zm-1.632-.287c.149.206-.165.687-.701 1.075-.536.387-1.092.534-1.241.328s.165-.687.701-1.075c.537-.388 1.092-.535 1.241-.328z" fill="#77b255"/><path d="m3.496 14.966c.064.246-.404.58-1.044.746s-1.211.101-1.275-.146c-.064-.246.404-.58 1.044-.746.641-.165 1.212-.1 1.275.146z" fill="#77b255"/><path d="m3.712 14.666c-.12.224-.69.153-1.273-.16-.583-.312-.958-.748-.838-.972s.69-.153 1.273.16.958.748.838.972zm16.864 3.361c.217.343-.594 1.246-1.811 2.016s-2.38 1.117-2.597.774.594-1.246 1.811-2.016 2.38-1.117 2.597-.774zm-1.808-1.304c.266.306-.297 1.232-1.258 2.067s-1.956 1.264-2.223.958c-.266-.307.297-1.232 1.258-2.067.962-.836 1.957-1.265 2.223-.958zm-1.292-.988c.266.306-.227 1.172-1.103 1.932-.875.761-1.801 1.129-2.067.823-.266-.307.227-1.172 1.103-1.932.875-.761 1.801-1.129 2.067-.823zm-2.007-.981c.298.201.096 1.019-.45 1.828s-1.23 1.302-1.527 1.101c-.298-.201-.096-1.019.45-1.828s1.23-1.302 1.527-1.101zm-1.603-.944c.331.139.292.981-.087 1.881-.379.899-.954 1.516-1.285 1.376-.331-.139-.292-.981.087-1.881.379-.899.954-1.516 1.285-1.376zm-1.705-1.164c.329.061.445.922.261 1.923-.185 1.002-.601 1.765-.929 1.704s-.445-.922-.261-1.923c.184-1.002.6-1.765.929-1.704zm-1.421.181c.328.061.464.818.303 1.691s-.558 1.532-.886 1.472c-.329-.061-.464-.818-.303-1.691.161-.874.557-1.533.886-1.472zm-1.587-.594c.334.004.596.727.585 1.615s-.291 1.604-.625 1.6-.596-.727-.585-1.615c.012-.888.291-1.604.625-1.6zm-1.426-.132c.334.004.596.671.586 1.489s-.289 1.478-.623 1.473c-.334-.004-.596-.671-.586-1.489.01-.817.289-1.477.623-1.473zm-1.352-.022c.328.004.587.612.578 1.357s-.283 1.346-.612 1.342c-.328-.004-.587-.612-.578-1.357.01-.745.284-1.346.612-1.342z" fill="#5c913b"/><path d="m4.852 12.122c.321-.071.712.461.873 1.188s.033 1.375-.288 1.446-.712-.461-.873-1.188c-.161-.728-.032-1.375.288-1.446zm-1.49.411c.248-.121.676.244.954.815s.303 1.132.054 1.253c-.248.121-.676-.244-.954-.815-.278-.57-.302-1.131-.054-1.253z" fill="#5c913b"/><path d="m18.447 24.397h-.024c-.294-.014-.521-.262-.508-.556.051-1.16-.052-7.065-7.123-9.303-.28-.088-.436-.388-.347-.668.089-.279.387-.437.668-.347 7.812 2.473 7.922 9.068 7.865 10.365-.012.286-.248.509-.531.509z" fill="#77b255"/><path d="m18.441 23.459c-.057.402-1.178.575-2.503.386s-2.353-.668-2.295-1.07c.057-.402 1.178-.575 2.503-.386 1.324.189 2.352.668 2.295 1.07z" fill="#a6d388"/><path d="m18.374 21.969c-.057.402-1.069.59-2.259.421-1.191-.17-2.109-.633-2.052-1.035s1.069-.59 2.259-.421 2.109.633 2.052 1.035zm-.681-1.873c.001.349-.898.635-2.007.639-1.11.003-2.01-.277-2.012-.626-.001-.349.898-.635 2.007-.639 1.11-.003 2.011.277 2.012.626zm-.78-1.229c.001.312-.741.568-1.658.571s-1.66-.248-1.661-.56.741-.568 1.658-.571c.916-.003 1.66.248 1.661.56zm-1.31-1.547c.066.305-.502.687-1.269.853s-1.442.053-1.508-.252.502-.687 1.269-.853 1.442-.053 1.508.252zm-1.197-.9c.069.319-.561.725-1.406.909-.846.183-1.587.073-1.656-.245-.069-.319.561-.725 1.406-.909.845-.183 1.587-.074 1.656.245zm-1.094-.983c.062.284-.512.649-1.281.816s-1.442.071-1.504-.213c-.061-.284.512-.649 1.281-.816.77-.166 1.443-.071 1.504.213zm-1.696-.791c.054.249-.427.564-1.073.704-.647.14-1.214.052-1.268-.196-.054-.249.427-.564 1.073-.704.646-.141 1.214-.053 1.268.196zm-1.143-.543c-.04.251-.602.37-1.256.265-.653-.105-1.15-.393-1.11-.644s.602-.37 1.256-.265c.653.105 1.15.393 1.11.644z" fill="#c6e5b3"/><path d="m10.791 13.915c-.2.157-.694-.137-1.103-.657s-.578-1.069-.379-1.226c.2-.157.694.137 1.103.657.409.519.579 1.068.379 1.226zm12.338 8.043c.121.387-.766 1.01-1.981 1.39s-2.299.374-2.42-.013c-.121-.388.766-1.01 1.981-1.39s2.299-.374 2.42.013zm-.693-1.359c.121.387-.678.982-1.785 1.328s-2.102.313-2.224-.075.678-.982 1.785-1.329c1.107-.345 2.102-.312 2.224.076zm-1.098-1.893c.192.303-.32.972-1.144 1.495-.824.522-1.648.7-1.84.397s.32-.973 1.145-1.495c.823-.522 1.647-.7 1.839-.397zm-.901-1.507c.247.26-.126 1.016-.833 1.688s-1.481 1.007-1.729.746c-.247-.26.126-1.016.833-1.688.708-.672 1.482-1.007 1.729-.746zm-1.096-1.75c.277.187.039 1.023-.532 1.867-.57.844-1.257 1.376-1.534 1.189s-.039-1.023.532-1.867c.57-.844 1.257-1.376 1.534-1.189zm-1.374-.404c.277.187.098.935-.399 1.671s-1.125 1.181-1.402.993c-.277-.187-.098-.935.399-1.671.497-.735 1.125-1.18 1.402-.993zm-1.216-1.18c.304.138.254.905-.112 1.714s-.91 1.354-1.214 1.216-.254-.905.112-1.714.91-1.353 1.214-1.216zm-1.254-.692c.304.138.278.854-.059 1.599s-.857 1.238-1.162 1.1c-.304-.138-.278-.854.059-1.599.338-.745.858-1.237 1.162-1.1zm-1.23-.561c.299.135.293.796-.014 1.475s-.799 1.12-1.098.984c-.299-.135-.293-.795.014-1.475.307-.679.799-1.12 1.098-.984z" fill="#a6d388"/><path d="m12.855 12.04c.322.063.467.707.324 1.439-.143.731-.521 1.273-.843 1.21s-.467-.707-.324-1.439.521-1.273.843-1.21zm-1.53-.22c.276-.012.521.494.548 1.129.026.635-.176 1.158-.453 1.17-.276.011-.521-.494-.548-1.129-.026-.634.176-1.158.453-1.17zm8.879 12.32-.042-.001c-.293-.023-.513-.279-.491-.572.222-2.938 2.831-7.78 8.884-8.269.287-.021.55.195.573.488.024.293-.194.549-.488.573-6.041.487-7.776 5.553-7.907 7.289-.021.279-.253.492-.529.492z" fill="#a6d388"/><path d="m19.959 22.482c-.008.406.959.756 2.161.781s2.184-.283 2.192-.689-.959-.755-2.162-.781c-1.201-.026-2.182.283-2.191.689zm.976-1.739c-.058.344.783.772 1.878.955 1.094.183 2.029.053 2.086-.292.058-.344-.783-.772-1.878-.955-1.094-.183-2.028-.052-2.086.292zm.969-1.086c-.052.308.639.681 1.544.832.904.151 1.679.024 1.73-.284s-.64-.681-1.544-.832-1.679-.024-1.73.284zm1.542-1.315c-.115.291.384.76 1.114 1.048s1.414.286 1.529-.005-.384-.76-1.114-1.048c-.729-.288-1.414-.285-1.529.005zm1.169-.915c-.12.303.436.807 1.241 1.124s1.555.33 1.674.026c.12-.303-.436-.806-1.241-1.124-.804-.318-1.554-.33-1.674-.026z" fill="#a6d388"/><path d="m26.012 16.855c-.107.27.4.724 1.132 1.012.732.289 1.412.304 1.518.034.107-.27-.4-.723-1.132-1.012s-1.412-.304-1.518-.034zm1.802-.506c-.093.237.33.625.945.868s1.19.248 1.283.011-.33-.625-.945-.868-1.19-.248-1.283-.011z" fill="#a6d388"/><path d="m29.03 15.998c-.001.254.535.463 1.196.465s1.199-.202 1.199-.456c.001-.254-.535-.462-1.196-.465-.661-.002-1.198.202-1.199.456z" fill="#c6e5b3"/><path d="m28.747 15.761c.172.188.707-.023 1.194-.47.488-.447.744-.961.572-1.149s-.707.023-1.194.47c-.488.447-.744.961-.572 1.149zm-12.257 4.869c-.182.363.51 1.079 1.546 1.6s2.024.649 2.206.286-.51-1.079-1.546-1.6-2.024-.649-2.206-.286z" fill="#c6e5b3"/><path d="m17.879 19.161c-.239.268.159 1.011.887 1.66s1.513.958 1.752.69-.159-1.012-.887-1.661-1.513-.957-1.752-.689zm.817-1.721c-.286.217-.041 1.023.549 1.801.589.778 1.299 1.233 1.585 1.016s.04-1.023-.549-1.801c-.59-.778-1.299-1.233-1.585-1.016zm1.365-1.549c-.303.14-.204 1.003.223 1.928.426.925 1.018 1.562 1.321 1.422s.204-1.003-.223-1.928c-.426-.925-1.018-1.562-1.321-1.422zm1.421-.176c-.303.14-.248.907.124 1.714s.919 1.347 1.222 1.207.248-.907-.124-1.713c-.371-.807-.918-1.348-1.222-1.208zm1.391-.968c-.323.087-.398.852-.167 1.71.23.858.678 1.483 1.001 1.396s.398-.852.167-1.71c-.23-.857-.679-1.482-1.001-1.396zm1.349-.479c-.323.087-.412.797-.2 1.587s.646 1.36.968 1.274c.323-.087.412-.797.2-1.587-.211-.791-.645-1.361-.968-1.274zm1.305-.356c-.317.085-.418.738-.225 1.457s.607 1.234.924 1.149.418-.738.225-1.457-.607-1.234-.924-1.149z" fill="#c6e5b3"/><path d="m27.013 13.577c-.328.01-.576.622-.553 1.367s.308 1.34.636 1.33.576-.622.552-1.367-.307-1.34-.635-1.33zm1.546.031c-.271-.056-.594.403-.723 1.025s-.014 1.172.257 1.228.594-.403.723-1.025.014-1.172-.257-1.228z" fill="#c6e5b3"/><path d="m18 22.431c-6.499 0-11.768-1.216-11.768-2.716v4.031c0 2.099 5.333 3.8 11.768 3.8 6.436 0 11.768-1.702 11.768-3.8v-4.031c0 1.501-5.269 2.716-11.768 2.716z" fill="#c1694f"/></svg>