<svg viewBox="0 0 36 36" xmlns="http://www.w3.org/2000/svg"><ellipse cx="24" cy="31.93" fill="#292f33" rx="12" ry="3"/><path d="m12 31.001h24v1h-24z" fill="#292f33"/><ellipse cx="24" cy="31.018" fill="#66757f" rx="12" ry="3"/><path d="m18 31.001c0-.828 2.686-2.501 6-2.501s6 1.672 6 2.501c0 .828-2.686 1.5-6 1.5s-6-.672-6-1.5z" fill="#99aab5"/><path d="m18 27.52h12v3.481h-12z" fill="#99aab5"/><ellipse cx="24" cy="27.5" fill="#ccd6dd" rx="6" ry="1.5"/><ellipse cx="24" cy="27.5" fill="#ffac33" rx="5" ry="1"/><path d="m19.507 27.931c.808.336 2.508.569 4.493.569s3.685-.233 4.493-.569c-.807-.335-2.507-.569-4.493-.569s-3.685.234-4.493.569z" fill="#ffe8b6"/><path d="m14 21.001c-.376.827-.839 9.111-.839 9.762s.434.521 2.257.477c.738-.018.608-.651.738-3.993.056-1.437.304-4.297.521-5.078.216-.781-2.185-2.25-2.677-1.168zm19.993 0c.376.827.839 9.111.839 9.762s-.434.521-2.257.477c-.738-.018-.608-.651-.738-3.993-.056-1.437-.304-4.297-.521-5.078s2.185-2.25 2.677-1.168zm-9.993 12.236c-.37 0-.673-.303-.673-.673v-9.722c0-.37.303-.673.673-.673s.673.303.673.673v9.722c0 .37-.303.673-.673.673z" fill="#292f33"/><ellipse cx="24" cy="22.001" fill="#292f33" rx="10" ry="2"/><ellipse cx="24" cy="21.001" fill="#66757f" rx="10" ry="2"/><ellipse cx="24" cy="20.401" fill="#292f33" rx="8" ry="1.4"/><path d="m35.939 9.001c0-1.499-5.964-2.994-11.939-3h-.03c-5.974.005-11.939 1.5-11.939 3 0 .327-.006.668-.012 1.014-.036.799-1.103.444-1.994.289-.007-.001-.013.002-.019.001-.035-.007-.067-.022-.103-.027l-7.433-1.198c-1.087-.175-2.105.732-2.262 2.017l-.143 1.168c-.157 1.284.611 2.413 1.708 2.508l7.5.649c.075.007.148-.003.223-.003.021.003.038.012.06.013 1.298.099 2.721.058 3.136.919.031.065.064.118.098.164.436 1.007 1.102 1.923 2.131 2.66 1.764 1.264 4.654 1.823 9.05 1.826h.03c4.396-.003 7.286-.562 9.05-1.826 3.425-2.456 2.888-6.876 2.888-10.174z" fill="#be1931"/><ellipse cx="24" cy="9.001" fill="#ea596e" rx="11.969" ry="3"/><ellipse cx="24" cy="9.001" fill="#ffe8b6" rx="10.972" ry="2.25"/><ellipse cx="24" cy="9.934" fill="#ffac33" rx="9.975" ry="1.317"/><path d="m3.989 3.209c-.243.493-.029 1.078.475 1.299l9.165 4.024c.468.206.607.02.817-.173.025-.285.087-.507-.361-.753l-8.777-4.813c-.482-.265-1.076-.078-1.319.416z" fill="#269"/><path d="m18.588 10.956c.843.099 1.755.175 2.72.225l-7.678-3.781c-.247-.122-.548-.019-.669.228s-.019.548.228.669z" fill="#99aab5"/><path d="m10.334 1.589c-.31.454-.181 1.063.287 1.353l8.508 5.274c.435.269.598.106.834-.056.065-.278.158-.49-.251-.797l-8.012-6c-.442-.33-1.056-.228-1.366.226z" fill="#269"/><path d="m19.289 7.095c-.227-.155-.54-.096-.695.131s-.096.54.131.695l4.874 3.326c.134.001.266.004.401.004.459 0 .908-.008 1.352-.019z" fill="#99aab5"/></svg>