<svg viewBox="0 0 36 36" xmlns="http://www.w3.org/2000/svg" xmlns:xlink="http://www.w3.org/1999/xlink"><clipPath id="a"><path d="m.997 18 16.999-16.999 16.999 17-17 16.998z"/></clipPath><g clip-path="url(#a)"><path d="m26.5 26.5c-4.69 4.69-12.31 4.69-17 0s-4.69-12.31 0-17 12.31-4.69 17 0 4.69 12.31 0 17" fill="#ffcb26"/><g fill="#b68600"><path d="m14.93 13.99c.65.65 1.92.44 2.83-.47s1.12-2.18.47-2.83-1.92-.44-2.83.47-1.12 2.18-.47 2.83z"/><path d="m16.35 15.4c.65.65 1.92.44 2.83-.47s1.12-2.18.47-2.83-1.92-.44-2.83.47-1.12 2.18-.47 2.83m5.66 5.67c.65.65 1.92.44 2.83-.47s1.12-2.18.47-2.83-1.92-.44-2.83.47-1.12 2.18-.47 2.83z"/><path d="m20.6 19.65c.65.65 1.92.44 2.83-.47s1.12-2.18.47-2.83-1.92-.44-2.83.47-1.12 2.18-.47 2.83"/></g><path d="m12.33 23.67c1.04 1.04 2.95.83 4.25-.47s1.52-3.21.47-4.25-2.95-.83-4.25.47-1.52 3.21-.47 4.25z" fill="#694400"/></g><path d="m21.89 33.66c-.46 0-.88-.32-.98-.79-.11-.54.23-1.07.77-1.19 8.4-1.78 9.92-9.63 9.99-9.96.1-.54.62-.9 1.16-.81s.9.62.81 1.16c-.02.09-1.79 9.5-11.54 11.57-.07.01-.14.02-.21.02zm5.31 2.33c-.46 0-.88-.32-.98-.79-.11-.54.23-1.07.77-1.19 5.89-1.25 6.97-6.75 7.01-6.99.1-.54.62-.9 1.16-.8s.9.61.81 1.16c-.05.29-1.33 7.06-8.57 8.59-.07.01-.14.02-.21.02zm-23.86-20.89c-.07 0-.14 0-.21-.02a.998.998 0 0 1 -.77-1.19c2.07-9.74 11.47-11.52 11.57-11.53a1 1 0 1 1 .35 1.97c-.35.06-8.18 1.6-9.96 9.99-.1.47-.52.79-.98.79zm-2.33-5.3c-.07 0-.14 0-.21-.02a.998.998 0 0 1 -.77-1.19c1.53-7.23 8.31-8.51 8.59-8.56a1 1 0 1 1 .35 1.97c-.26.05-5.74 1.14-6.99 7.01-.1.47-.51.79-.98.79z" fill="#4facf0"/><path d="m15.64 14.69c.65.65 1.92.44 2.83-.47s1.12-2.18.47-2.83-1.92-.44-2.83.47-1.12 2.18-.47 2.83zm5.67 5.67c.65.65 1.92.44 2.83-.47s1.12-2.18.47-2.83-1.92-.44-2.83.47-1.12 2.18-.47 2.83" fill="#694400"/></svg>