<svg viewBox="0 0 36 36" xmlns="http://www.w3.org/2000/svg"><path d="m35.25 18c0 9.527-7.723 17.25-17.25 17.25s-17.25-7.723-17.25-17.25 7.723-17.25 17.25-17.25 17.25 7.723 17.25 17.25" fill="#fff5db"/><path d="m18.079 35.949c-.789 0-1.571-.043-2.325-.129l.17-1.49c1.492.169 3.091.158 4.74-.04l.281 1.475-.096.015c-.945.113-1.874.169-2.77.169zm-7.281-1.399a16.756 16.756 0 0 1 -4.378-2.68l.97-1.145a15.235 15.235 0 0 0 3.988 2.439zm15.031-.323-.652-1.35a16.552 16.552 0 0 0 3.894-2.626l1.006 1.113a18.043 18.043 0 0 1 -4.248 2.863zm-22.783-6.22a18.6 18.6 0 0 1 -2.138-4.648l1.436-.436a17.099 17.099 0 0 0 1.965 4.273zm30.305-.577-1.277-.787a16.23 16.23 0 0 0 1.861-4.308l1.449.389a17.804 17.804 0 0 1 -2.033 4.706zm-33.264-9.116a18.58 18.58 0 0 1 .553-5.086l1.454.367a17.067 17.067 0 0 0 -.508 4.676l-1.499.043zm34.41-.645a16.466 16.466 0 0 0 -.759-4.632l1.43-.452c.516 1.631.794 3.33.829 5.053zm-30.603-8.397-1.283-.777a16.701 16.701 0 0 1 3.304-3.93l.987 1.13a15.203 15.203 0 0 0 -3.008 3.577zm27.803-.461a16.645 16.645 0 0 0 -3.147-3.487l.961-1.152a18.13 18.13 0 0 1 3.431 3.801zm-20.849-5.656-.629-1.361a21.776 21.776 0 0 1 4.843-1.558l.295 1.471a20.309 20.309 0 0 0 -4.509 1.448zm13.706-.297a16.358 16.358 0 0 0 -4.527-1.234l.184-1.488c1.704.209 3.367.663 4.941 1.347z" fill="#ffcc4d"/><g fill="#65471b"><ellipse cx="11.5" cy="16.5" rx="2.5" ry="3.5"/><ellipse cx="24.5" cy="16.5" rx="2.5" ry="3.5"/><path d="m25 26h-14a1 1 0 1 1 0-2h14a1 1 0 1 1 0 2z"/></g></svg>