<svg viewBox="0 0 36 36" xmlns="http://www.w3.org/2000/svg"><path d="m35.07 32.558a1.92 1.92 0 0 0 .836-2.241c-.259-.81-1.07-1.317-1.921-1.317h-1.985a1 1 0 0 1 0-2h1.5a1.5 1.5 0 1 0 -.04-3c-.8.021-1.46-.623-1.46-1.423v-.003c0-.293.06-.578.176-.847a15.294 15.294 0 0 0 1.294-7.191c-.492-7.876-7.059-14.267-14.946-14.527-8.8-.29-16.024 6.757-16.024 15.491 0 2.371.548 4.609 1.5 6.619v1.88c0 1.086-.865 2.021-1.951 2a2 2 0 0 0 -2.034 2.167c.086 1.059 1.054 1.834 2.118 1.834h8.039a1.17 1.17 0 0 1 .828 2l-3.03.757a1.281 1.281 0 0 0 0 2.485c1.932.483 3.914.737 5.905.756l2.712.026c1.406.014 2.803-.31 4.029-1a8.289 8.289 0 0 1 5.642-.913c3.028.588 6.167.034 8.812-1.553z" fill="#ffcc4d"/><g fill="#65471b"><path d="m18.736 24.003c-.754 0-1.504-.078-2.244-.234-2.693-.571-5.003-2.115-6.338-4.236a1 1 0 0 1 1.692-1.066c1.033 1.642 2.925 2.892 5.06 3.345 1.767.375 4.507.393 7.536-1.642a1 1 0 0 1 1.116 1.66c-2.129 1.43-4.489 2.173-6.822 2.173z"/><ellipse cx="14" cy="12" rx="2" ry="3"/><ellipse cx="23" cy="14" rx="2" ry="3"/></g></svg>