<svg viewBox="0 0 36 36" xmlns="http://www.w3.org/2000/svg"><path d="m33.035 15.5a2.5 2.5 0 0 1 -2.5 2.5h-.005l5.005 2.5a2.5 2.5 0 0 1 -2.5 2.5h-1.285l1.535 2.5a2.5 2.5 0 0 1 -2.5 2.5h-3.535l-9.25 1v-13.542z" fill="#b78b60"/><path d="m19.781 4.625c.611 1.381-.208 3.354-2.188 4.75-1.3.917-3.151 1.187-3.344 2.391-.073.46.313 1.234 1.397 1.234h15.854s2 0 2 2-2 2-2 2h-11.633c.029 0 .064 1 .082 1h14.051s2 0 2 2-2 2-2 2h-14.053c-.017 0-.041 1-.069 1h11.872s2 0 2 2-2 2-2 2h-12.638c-.118 0-.251 1-.398 1h8.536s2 0 2 2-2 2-2 2h-15.25c-6.627 0-12-5.373-12-12 0-4.775 2.598-8.06 5.292-9.896 2.285-1.557 4.657-2.008 5.374-2.104 0 0 1.479-.123 2.865-1.156a57.846 57.846 0 0 0 3.866-3.125c.359-.317 1.707-.625 2.384.906z" fill="#d4ab88"/></svg>