<svg viewBox="0 0 36 36" xmlns="http://www.w3.org/2000/svg"><path d="m36 28c0 1.104-.896 2-2 2h-32c-1.104 0-2-.896-2-2v-16c0-1.104.896-2 2-2h32c1.104 0 2 .896 2 2z" fill="#99aab5"/><path d="m5.5 19c0 .553-.448 1-1 1h-1c-.552 0-1-.447-1-1v-1c0-.553.448-1 1-1h1c.552 0 1 .447 1 1zm4 0c0 .553-.448 1-1 1h-1c-.552 0-1-.447-1-1v-1c0-.553.448-1 1-1h1c.552 0 1 .447 1 1zm4 0c0 .553-.448 1-1 1h-1c-.552 0-1-.447-1-1v-1c0-.553.448-1 1-1h1c.552 0 1 .447 1 1zm4 0c0 .553-.448 1-1 1h-1c-.552 0-1-.447-1-1v-1c0-.553.448-1 1-1h1c.552 0 1 .447 1 1zm4 0c0 .553-.447 1-1 1h-1c-.553 0-1-.447-1-1v-1c0-.553.447-1 1-1h1c.553 0 1 .447 1 1zm4 0c0 .553-.447 1-1 1h-1c-.553 0-1-.447-1-1v-1c0-.553.447-1 1-1h1c.553 0 1 .447 1 1zm4 0c0 .553-.447 1-1 1h-1c-.553 0-1-.447-1-1v-1c0-.553.447-1 1-1h1c.553 0 1 .447 1 1zm4 0c0 .553-.447 1-1 1h-1c-.553 0-1-.447-1-1v-1c0-.553.447-1 1-1h1c.553 0 1 .447 1 1zm-26 4c0 .553-.448 1-1 1h-1c-.552 0-1-.447-1-1v-1c0-.553.448-1 1-1h1c.552 0 1 .447 1 1zm4 0c0 .553-.448 1-1 1h-1c-.552 0-1-.447-1-1v-1c0-.553.448-1 1-1h1c.552 0 1 .447 1 1zm4 0c0 .553-.448 1-1 1h-1c-.552 0-1-.447-1-1v-1c0-.553.448-1 1-1h1c.552 0 1 .447 1 1zm4 0c0 .553-.447 1-1 1h-1c-.552 0-1-.447-1-1v-1c0-.553.448-1 1-1h1c.553 0 1 .447 1 1zm4 0c0 .553-.447 1-1 1h-1c-.553 0-1-.447-1-1v-1c0-.553.447-1 1-1h1c.553 0 1 .447 1 1zm4 0c0 .553-.447 1-1 1h-1c-.553 0-1-.447-1-1v-1c0-.553.447-1 1-1h1c.553 0 1 .447 1 1zm4 0c0 .553-.447 1-1 1h-1c-.553 0-1-.447-1-1v-1c0-.553.447-1 1-1h1c.553 0 1 .447 1 1zm-21.5 4c0 .553-.448 1-1 1h-2c-.552 0-1-.447-1-1v-1c0-.553.448-1 1-1h2c.552 0 1 .447 1 1zm20 0c0 .553-.447 1-1 1h-2c-.553 0-1-.447-1-1v-1c0-.553.447-1 1-1h2c.553 0 1 .447 1 1zm-5 0c0 .553-.447 1-1 1h-12c-.552 0-1-.447-1-1v-1c0-.553.448-1 1-1h12c.553 0 1 .447 1 1zm-19.5-13.917c0 .552-.448 1-1 1h-1c-.552 0-1-.448-1-1s.448-1 1-1h1c.552 0 1 .448 1 1zm4 0c0 .552-.448 1-1 1h-1c-.552 0-1-.448-1-1s.448-1 1-1h1c.552 0 1 .448 1 1zm4 0c0 .552-.448 1-1 1h-1c-.552 0-1-.448-1-1s.448-1 1-1h1c.552 0 1 .448 1 1zm4 0c0 .552-.448 1-1 1h-1c-.552 0-1-.448-1-1s.448-1 1-1h1c.552 0 1 .448 1 1zm4 0c0 .552-.447 1-1 1h-1c-.553 0-1-.448-1-1s.447-1 1-1h1c.553 0 1 .448 1 1zm4 0c0 .552-.447 1-1 1h-1c-.553 0-1-.448-1-1s.447-1 1-1h1c.553 0 1 .448 1 1zm4 0c0 .552-.447 1-1 1h-1c-.553 0-1-.448-1-1s.447-1 1-1h1c.553 0 1 .448 1 1zm4 0c0 .552-.447 1-1 1h-1c-.553 0-1-.448-1-1s.447-1 1-1h1c.553 0 1 .448 1 1z" fill="#292f33"/></svg>