<svg viewBox="0 0 36 36" xmlns="http://www.w3.org/2000/svg"><path d="m16 5h4v3h-4z" fill="#292f33"/><path d="m22 1h-8c-1.1 0-2 .9-2 2s.9 2 2 2h8c1.1 0 2-.9 2-2s-.9-2-2-2zm6.184 10.507-1.504-1.318c-.827-.725-.911-1.995-.186-2.822s1.995-.911 2.822-.186l1.504 1.318c.827.725.911 1.995.186 2.822s-1.995.911-2.822.186z" fill="#8899a6"/><circle cx="18" cy="21" fill="#f5f8fa" r="11"/><path d="m18 7c-7.732 0-14 6.268-14 14s6.268 14 14 14 14-6.268 14-14-6.268-14-14-14zm0 25c-6.065 0-11-4.935-11-11s4.935-11 11-11 11 4.935 11 11-4.935 11-11 11z" fill="#66757f"/><g fill="#292f33"><path d="m27 22h-10c-.552 0-1-.447-1-1s.448-1 1-1h10c.553 0 1 .447 1 1s-.447 1-1 1z"/><circle cx="18" cy="12" r="1"/><circle cx="18" cy="30" r="1"/><circle cx="12" cy="15" r="1"/><circle cx="24" cy="27" r="1"/><circle cx="9" cy="21" r="1"/><circle cx="24" cy="15" r="1"/></g><path d="m12 28c-.256 0-.512-.098-.707-.293-.391-.391-.391-1.023 0-1.414l7-7c.391-.391 1.023-.391 1.414 0s.391 1.023 0 1.414l-7 7c-.195.195-.451.293-.707.293z" fill="#dd2e44"/></svg>