<svg viewBox="0 0 36 36" xmlns="http://www.w3.org/2000/svg"><g fill="#ffac33"><path d="m16 2s0-2 2-2 2 2 2 2v2s0 2-2 2-2-2-2-2zm18 14s2 0 2 2-2 2-2 2h-2s-2 0-2-2 2-2 2-2zm-30 0s2 0 2 2-2 2-2 2h-2s-2 0-2-2 2-2 2-2zm5.121-8.707s1.414 1.414 0 2.828-2.828 0-2.828 0l-1.415-1.413s-1.414-1.414 0-2.829c1.415-1.414 2.829 0 2.829 0zm21 21s1.414 1.414 0 2.828-2.828 0-2.828 0l-1.414-1.414s-1.414-1.414 0-2.828 2.828 0 2.828 0zm-.413-18.172s-1.414 1.414-2.828 0 0-2.828 0-2.828l1.414-1.414s1.414-1.414 2.828 0 0 2.828 0 2.828zm-21 21s-1.414 1.414-2.828 0 0-2.828 0-2.828l1.414-1.414s1.414-1.414 2.828 0 0 2.828 0 2.828zm7.292.879s0-2 2-2 2 2 2 2v2s0 2-2 2-2-2-2-2z"/><circle cx="18" cy="18" r="10"/></g></svg>