<svg viewBox="0 0 36 36" xmlns="http://www.w3.org/2000/svg"><path d="m36 11.5c0-3.038-3-7.5-18-7.5s-18 4.462-18 7.5c0 .045.019.076.022.119-.012.196-.022.402-.022.631 0 2.623 2.239 3.75 5 3.75s5-1.127 5-3.75c0-.218-.021-.412-.051-.597 2.425-.351 5.153-.653 8.051-.653s5.626.302 8.051.653c-.03.185-.051.379-.051.597 0 2.623 2.238 3.75 5 3.75s5-1.127 5-3.75c0-.225-.009-.429-.024-.621.004-.046.024-.08.024-.129z" fill="#be1931"/><path d="m34.934 23c-.482-1.031-2.31-4.19-3.968-7.007-1.558-2.647-3.966-4.993-5.966-4.993v-2c0-1.104-.896-2-2-2s-2 .896-2 2v2h-6v-2c0-1.104-.896-2-2-2s-2 .896-2 2v2c-2 0-4.41 2.351-5.97 5-1.657 2.815-3.483 5.97-3.964 7-.578 1.239-1.066 2-1.066 4s1.791 5 4 5h28c2.209 0 4-3 4-5s-.448-2.676-1.066-4z" fill="#dd2e44"/><path d="m20.046 14.818c0 .452-.916.818-2.046.818s-2.045-.366-2.045-.818.915-.818 2.045-.818 2.046.366 2.046.818zm-4.91 0c0 .452-.915.818-2.045.818s-2.045-.366-2.045-.818.916-.818 2.045-.818 2.045.366 2.045.818zm9.818 0c0 .452-.915.818-2.045.818s-2.046-.366-2.046-.818.916-.818 2.046-.818 2.045.366 2.045.818zm-4.5 2.864c0 .679-1.099 1.228-2.454 1.228s-2.455-.549-2.455-1.228c0-.677 1.099-1.227 2.455-1.227s2.454.549 2.454 1.227zm5.728 0c0 .679-1.1 1.228-2.454 1.228-1.355 0-2.455-.549-2.455-1.228 0-.677 1.1-1.227 2.455-1.227 1.354 0 2.454.549 2.454 1.227zm-11.455 0c0 .679-1.099 1.228-2.454 1.228s-2.455-.549-2.455-1.228c0-.677 1.099-1.227 2.455-1.227 1.355 0 2.454.549 2.454 1.227zm6.545 3.681c-0 .906-1.465 1.637-3.272 1.637s-3.273-.731-3.273-1.637c0-.903 1.466-1.636 3.273-1.636 1.807.001 3.272.733 3.272 1.636zm7.365 0c0 .905-1.467 1.637-3.273 1.637-1.807 0-3.273-.731-3.273-1.637 0-.903 1.466-1.636 3.273-1.636 1.806.001 3.273.733 3.273 1.636zm-14.728 0c0 .905-1.466 1.637-3.273 1.637s-3.272-.731-3.272-1.637c0-.903 1.465-1.636 3.272-1.636 1.807.001 3.273.733 3.273 1.636z" fill="#fff"/></svg>