<svg viewBox="0 0 36 36" xmlns="http://www.w3.org/2000/svg"><path d="m9 28.5c0-.828.672-1.5 1.5-1.5s1.5.672 1.5 1.5v.5s0 3 3 3 3-3 3-3v-25.5c0-.829.671-1.5 1.5-1.5s1.5.671 1.5 1.5v25.5s0 6-6 6-6-6-6-6z" fill="#66757f"/><path d="m19.5 4c9.112 0 16.5 5.82 16.5 13 0 0 0 2-1 2s-3-2-3-2h-25s-2 2-3 2-1-2-1-2c0-7.18 7.387-13 16.5-13z" fill="#744eaa"/><path d="m19.5 4c6.903 0 12.5 5.82 12.5 13 0 0 0 2-2 2s-5-2-5-2h-11s-3 2-5 2-2-2-2-2c0-7.18 5.596-13 12.5-13z" fill="#9266cc"/><path d="m19.5 4c3.59 0 5.5 5.82 5.5 13 0 0-3 2-5 2h-1c-2 0-5-2-5-2 0-7.18 1.91-13 5.5-13z" fill="#744eaa"/><path d="m30.383 4.472c-.863 1.413-.403 3.247 1.028 4.099s3.291.398 4.154-1.014c.607-.992.557-2.192-.021-3.114l-2.483-4.353zm-8.001 3c-.863 1.413-.403 3.247 1.028 4.099s3.291.398 4.154-1.014c.607-.992.557-2.192-.021-3.114l-2.482-4.353zm-11.947-3c-.863 1.413-.402 3.247 1.028 4.099 1.431.852 3.291.398 4.154-1.014.607-.992.558-2.192-.022-3.114l-2.481-4.353zm-10 5.91c-.863 1.413-.402 3.247 1.028 4.099 1.431.851 3.291.398 4.154-1.014.607-.992.558-2.192-.022-3.114l-2.481-4.353-2.679 4.382z" fill="#5dadec"/></svg>