<svg viewBox="0 0 36 36" xmlns="http://www.w3.org/2000/svg"><path d="m36 32c0 2.209-1.791 4-4 4h-28c-2.209 0-4-1.791-4-4v-28c0-2.209 1.791-4 4-4h28c2.209 0 4 1.791 4 4z" fill="#9266cc"/><path d="m18 4c-7.719 0-14 6.281-14 14s6.281 14 14 14 14-6.281 14-14-6.281-14-14-14zm11.103 14c0 2.246-.675 4.335-1.827 6.085l-7.823-7.178v-9.904c5.437.716 9.65 5.368 9.65 10.997zm-12.65 10.983c-2.209-.31-4.207-1.268-5.802-2.682l5.802-5.323zm3-8.005 5.848 5.366c-1.609 1.41-3.624 2.36-5.848 2.653zm-3-13.961v9.889l-7.763 7.124c-1.13-1.739-1.793-3.807-1.793-6.03 0-5.596 4.165-10.226 9.556-10.983z" fill="#fff"/></svg>