<svg viewBox="0 0 36 36" xmlns="http://www.w3.org/2000/svg"><path d="m36 32c0 2.209-1.791 4-4 4h-28c-2.209 0-4-1.791-4-4v-28c0-2.209 1.791-4 4-4h28c2.209 0 4 1.791 4 4z" fill="#9266cc"/><path d="m18.964 4.033c-7.713-.532-14.398 5.289-14.931 13.003s5.289 14.399 13.002 14.931c7.714.533 14.399-5.289 14.931-13.002.533-7.714-5.288-14.399-13.002-14.932zm-1.183 25.983c-3.317-.06-5.958-2.799-5.897-6.118.059-3.315 2.799-5.958 6.116-5.898s6.056-2.581 6.118-5.897c.046-2.558-1.524-4.748-3.758-5.657l.151-.171c5.517 1.174 9.612 6.096 9.506 11.943-.122 6.639-5.597 11.919-12.236 11.798z" fill="#fff"/><circle cx="18" cy="24" fill="#fff" r="2.5"/><circle cx="18" cy="12" fill="#9266cc" r="2.5"/></svg>