<svg viewBox="0 0 36 36" xmlns="http://www.w3.org/2000/svg"><path d="m36 32c0 2.209-1.791 4-4 4h-28c-2.209 0-4-1.791-4-4v-28c0-2.209 1.791-4 4-4h28c2.209 0 4 1.791 4 4z" fill="#9266cc"/><g fill="#fff"><path d="m18 29.5c-4.687 0-8.5-3.813-8.5-8.5s3.813-8.5 8.5-8.5 8.5 3.813 8.5 8.5-3.813 8.5-8.5 8.5zm0-14c-3.033 0-5.5 2.467-5.5 5.5 0 3.032 2.467 5.5 5.5 5.5 3.032 0 5.5-2.468 5.5-5.5 0-3.033-2.468-5.5-5.5-5.5z"/><path d="m18 15.5c-5.109 0-7.58-2.79-8.131-3.507-.481-.45-1.816-1.493-2.869-1.493-1.297 0-1.94.563-1.967.587-.604.543-1.547.519-2.106-.07-.559-.59-.562-1.503.013-2.077.146-.148 1.512-1.44 4.06-1.44s4.811 2.189 5.061 2.439c.07.07.133.146.188.229.057.08 1.69 2.332 5.752 2.332 4.083 0 5.736-2.309 5.752-2.332.055-.082.117-.159.188-.229.249-.25 2.511-2.439 5.059-2.439s3.913 1.292 4.061 1.439c.586.585.586 1.536 0 2.121-.586.586-1.535.586-2.121 0-.002 0-.645-.561-1.94-.561-1.052 0-2.384 1.04-2.869 1.494-.552.718-3.024 3.507-8.131 3.507z"/></g></svg>