<svg viewBox="0 0 36 36" xmlns="http://www.w3.org/2000/svg"><path d="m36 32c0 2.209-1.791 4-4 4h-28c-2.209 0-4-1.791-4-4v-28c0-2.209 1.791-4 4-4h28c2.209 0 4 1.791 4 4z" fill="#9266cc"/><path d="m21.5 16.5c-.21 0-.421-.044-.62-.134-.536-.243-.88-.778-.88-1.366v-3.694l-5.512 4.823c-.443.387-1.072.48-1.607.237-.537-.243-.881-.778-.881-1.366v-3.548l-4.977 4.645c-.605.565-1.555.532-2.12-.073s-.532-1.555.073-2.12l7.5-7c.437-.406 1.073-.517 1.621-.279.549.237.903.778.903 1.375v3.694l5.513-4.823c.442-.387 1.071-.48 1.607-.237s.88.778.88 1.366v3.694l5.513-4.823c.442-.387 1.07-.48 1.607-.237.536.243.88.778.88 1.366v7c0 .829-.672 1.5-1.5 1.5s-1.5-.671-1.5-1.5v-3.694l-5.513 4.823c-.278.244-.631.371-.987.371zm0 13c-.21 0-.421-.044-.62-.134-.536-.243-.88-.778-.88-1.366v-3.694l-5.512 4.823c-.443.387-1.072.48-1.607.237-.537-.243-.881-.778-.881-1.366v-3.548l-4.977 4.645c-.605.565-1.555.532-2.12-.073s-.532-1.555.073-2.12l7.5-7c.437-.406 1.073-.517 1.621-.279.549.237.903.778.903 1.375v3.694l5.513-4.823c.442-.387 1.071-.48 1.607-.237s.88.778.88 1.366v3.694l5.513-4.823c.442-.387 1.07-.48 1.607-.237.536.243.88.778.88 1.366v7c0 .829-.672 1.5-1.5 1.5s-1.5-.671-1.5-1.5v-3.694l-5.513 4.823c-.278.244-.631.371-.987.371z" fill="#fff"/></svg>