<svg viewBox="0 0 36 36" xmlns="http://www.w3.org/2000/svg"><g fill="#d67909"><path d="m6.814 33.279c-1.166 1.166-3.021 1.221-4.121.121s-1.045-2.955.121-4.121l23.265-23.265c1.167-1.167 3.021-1.221 4.121-.121 1.101 1.1 1.046 2.955-.121 4.121z"/><path d="m32.585 7.657c.781-.781.781-2.048 0-2.829l-1.414-1.414c-.78-.78-2.047-.78-2.828 0-.781.781-.781 2.048 0 2.829l1.414 1.414c.781.781 2.048.781 2.828 0z"/><path d="m32.585 7.657c.781-.781.781-2.048 0-2.829l-1.414-1.414c-.78-.78-2.047-.78-2.828 0-.781.781-.781 2.048 0 2.829l1.414 1.414c.781.781 2.048.781 2.828 0z"/></g><path d="m35.789 13.424c-.252-1.765-.375-4.354-3.204-7.182l-.707-.708-4.949-4.95c-.781-.781-2.048-.781-2.828 0l-3.536 3.536c-.781.781-.781 2.047 0 2.829l6.364 6.364 2.121 2.121 1.414 1.414c1.027 1.027 3.314 3.315 4.718 1.911.773-.772.961-2.86.607-5.335z" fill="#66757f"/><path d="m29.185 33.279c1.166 1.166 3.022 1.221 4.121.121 1.1-1.1 1.045-2.955-.121-4.121l-23.264-23.265c-1.167-1.167-3.022-1.222-4.121-.121-1.101 1.1-1.046 2.955.121 4.121z" fill="#f4900c"/><path d="m3.415 7.657c-.781-.781-.781-2.048 0-2.829l1.414-1.414c.78-.78 2.047-.78 2.828 0 .781.781.781 2.048 0 2.829l-1.414 1.414c-.781.781-2.048.781-2.828 0z" fill="#f4900c"/><path d="m4.122 15.436c.78.78 2.047.78 2.828 0l8.485-8.485c.781-.781.781-2.048 0-2.829l-3.536-3.535c-.78-.781-2.047-.781-2.828 0l-8.485 8.484c-.781.781-.781 2.047 0 2.828z" fill="#66757f"/></svg>