<svg viewBox="0 0 36 36" xmlns="http://www.w3.org/2000/svg"><path d="m24 29 5-5-23-23h-5v5z" fill="#ccd6dd"/><path d="m1 1v5l23 23 2.5-2.5z" fill="#9aaab4"/><path d="m33.424 32.808c.284-.284.458-.626.531-.968l-5.242-6.195-.701-.702c-.564-.564-1.57-.473-2.248.205l-.614.612c-.677.677-.768 1.683-.204 2.247l.741.741 6.15 5.205c.345-.072.688-.247.974-.532z" fill="#d99e82"/><path d="m33.424 32.808c.284-.284.458-.626.531-.968l-1.342-1.586-.737 3.684c.331-.077.661-.243.935-.518zm-3.31-5.506-.888 4.441 1.26 1.066.82-4.1zm-1.401-1.657-.701-.702c-.096-.096-.208-.166-.326-.224l-.978 4.892 1.26 1.066.957-4.783zm-2.401-.888c-.195.095-.382.225-.548.392l-.614.611c-.254.254-.425.554-.511.86-.142.51-.046 1.035.307 1.387l.596.596.77-3.846c0-.001 0-.001 0 0z" fill="#bf6952"/><circle cx="33.25" cy="33.25" fill="#8a4633" r="2.75"/><g fill="#ffac33"><path d="m29.626 22.324c.404.404.404 1.059 0 1.462l-6.092 6.092c-.404.404-1.058.404-1.462 0s-.404-1.058 0-1.462l6.092-6.092c.402-.404 1.058-.404 1.462 0z"/><circle cx="22.072" cy="29.877" r="1.75"/><circle cx="29.626" cy="22.323" r="1.75"/></g><circle cx="22.072" cy="29.877" fill="#ffcc4d" r="1"/><circle cx="29.626" cy="22.323" fill="#ffcc4d" r="1"/><path d="m33.903 29.342c.298.298.298.781 0 1.078l-3.476 3.475c-.298.298-.78.298-1.078 0s-.298-.78 0-1.078l3.476-3.475c.297-.298.78-.298 1.078 0z" fill="#ffac33"/><path d="m12 29-5-5 23-23h5v5z" fill="#ccd6dd"/><path d="m35 1v5l-23 23-2.5-2.5z" fill="#9aaab4"/><path d="m2.576 32.808c-.284-.284-.458-.626-.531-.968l5.242-6.195.701-.702c.564-.564 1.57-.473 2.248.205l.613.612c.677.677.768 1.683.204 2.247l-.741.741-6.15 5.205c-.345-.072-.688-.247-.974-.532z" fill="#d99e82"/><path d="m2.576 32.808c-.284-.284-.458-.626-.531-.968l1.342-1.586.737 3.684c-.331-.077-.661-.243-.935-.518zm3.31-5.506.888 4.441-1.26 1.066-.82-4.1zm1.401-1.657.701-.702c.096-.096.208-.166.326-.224l.978 4.892-1.26 1.066-.957-4.783zm2.401-.888c.195.095.382.225.548.392l.613.612c.254.254.425.554.511.86.142.51.046 1.035-.307 1.387l-.596.596-.769-3.847c0-.001 0-.001 0 0z" fill="#bf6952"/><circle cx="2.75" cy="33.25" fill="#8a4633" r="2.75"/><path d="m6.374 22.324c-.404.404-.404 1.059 0 1.462l6.092 6.092c.404.404 1.058.404 1.462 0s.404-1.058 0-1.462l-6.092-6.092c-.402-.404-1.058-.404-1.462 0z" fill="#ffac33"/><circle cx="13.928" cy="29.877" fill="#ffac33" r="1.75"/><circle cx="6.374" cy="22.323" fill="#ffac33" r="1.75"/><circle cx="13.928" cy="29.877" fill="#ffcc4d" r="1"/><circle cx="6.374" cy="22.323" fill="#ffcc4d" r="1"/><path d="m2.097 29.342c-.298.298-.298.781 0 1.078l3.476 3.475c.298.298.78.298 1.078 0s.298-.78 0-1.078l-3.476-3.475c-.297-.298-.78-.298-1.078 0z" fill="#ffac33"/></svg>