<svg viewBox="0 0 36 36" xmlns="http://www.w3.org/2000/svg"><path d="m3.923 22.923c-.212.511-.798.751-1.308.539-.51-.213-.751-.798-.539-1.308l4.617-12.538c.212-.51.798-.751 1.307-.539.51.213.751.798.539 1.308z" fill="#66757f"/><path d="m13.923 22.154c.212.51-.029 1.095-.539 1.308-.51.212-1.095-.028-1.308-.539l-4.615-12.538c-.212-.51.029-1.095.539-1.308.51-.212 1.095.029 1.308.539zm10.001.769c-.213.511-.799.751-1.309.539-.51-.213-.75-.798-.538-1.308l4.616-12.539c.212-.509.797-.75 1.307-.538.51.213.752.798.539 1.308z" fill="#66757f"/><path d="m33.923 22.154c.212.51-.028 1.095-.538 1.308-.51.212-1.096-.028-1.309-.539l-4.615-12.538c-.213-.51.029-1.095.539-1.308.51-.212 1.095.029 1.307.539z" fill="#66757f"/><g fill="#ffac33"><path d="m14.857 22h-13.714c-.631 0-1.143.511-1.143 1.143 0 2.524 3.582 4.571 8 4.571s8-2.047 8-4.571c0-.632-.512-1.143-1.143-1.143zm9.143 12h-12c-.552 0-1-.447-1-1 0-2.209 3.134-4 7-4s7 1.791 7 4c0 .553-.447 1-1 1zm10.857-12h-13.714c-.632 0-1.143.511-1.143 1.143 0 2.524 3.581 4.571 8 4.571s8-2.047 8-4.571c0-.632-.511-1.143-1.143-1.143z"/><path d="m19 3c0-.552-.447-1-1-1-.552 0-1 .448-1 1v27c0 .553.448 1 1 1 .553 0 1-.447 1-1z"/><circle cx="18" cy="4" r="2"/><circle cx="8" cy="10" r="2"/><circle cx="28" cy="10" r="2"/><path d="m28 10c0 1.104 0 0-10 0s-10 1.104-10 0 3-4 10-4 10 2.896 10 4z"/></g></svg>