<svg viewBox="0 0 36 36" xmlns="http://www.w3.org/2000/svg"><path d="m14 2s0-2 2-2 2 2 2 2v2s0 2-2 2-2-2-2-2zm16 12s2 0 2 2-2 2-2 2h-2s-2 0-2-2 2-2 2-2zm-26 0s2 0 2 2-2 2-2 2h-2s-2 0-2-2 2-2 2-2zm3.872-7.957s1.414 1.414 0 2.828-2.828 0-2.828 0l-1.415-1.413s-1.414-1.414 0-2.829c1.415-1.414 2.829 0 2.829 0zm19.085 2.828s-1.414 1.414-2.828 0 0-2.828 0-2.828l1.414-1.414s1.414-1.414 2.828 0 0 2.828 0 2.828z" fill="#ffac33"/><circle cx="16" cy="16" fill="#ffac33" r="9"/><path d="m28 20c-.825 0-1.62.125-2.369.357-.887-2.535-3.293-4.357-6.131-4.357-3.044 0-5.592 2.096-6.299 4.921-.754-.57-1.682-.921-2.701-.921-2.485 0-4.5 2.015-4.5 4.5 0 .604.123 1.178.339 1.704-.429-.119-.872-.204-1.339-.204-2.762 0-5 2.238-5 5s2.238 5 5 5h23c4.418 0 8-3.581 8-8 0-4.418-3.582-8-8-8z" fill="#e1e8ed"/></svg>