<svg viewBox="0 0 36 36" xmlns="http://www.w3.org/2000/svg"><path d="m15.14 20.8-2.12 2.12c1.18 1.18 1.19 3.09.01 4.26l-2.83 2.83c-1.17 1.17-3.08 1.16-4.26-.01l-2.12 2.12c2.36 2.36 6.17 2.37 8.51.03l2.83-2.83c2.35-2.35 2.34-6.16-.02-8.52z" fill="#c6d5db"/><path d="m14.14 22.63c-.12-.12-.26-.22-.39-.32l-.68.68c1.12 1.18 1.11 3.04-.04 4.19l-2.83 2.83c-1.15 1.15-3.01 1.16-4.19.04l-.68.68c.1.14.2.27.32.39a3.52 3.52 0 0 0 4.97.02l3.54-3.54a3.51 3.51 0 0 0 -.02-4.97z" fill="#e1e8ed"/><path d="m8.82 22.96c1.17-1.17 3.08-1.16 4.26.01l2.12-2.12c-2.36-2.36-6.17-2.37-8.51-.03l-2.83 2.83c-2.34 2.35-2.33 6.16.03 8.52l2.12-2.12c-1.18-1.18-1.19-3.09-.01-4.26z" fill="#e1e8ed"/><path d="m13.43 21.92a3.52 3.52 0 0 0 -4.97-.02l-3.54 3.54c-1.37 1.37-1.36 3.59.02 4.97.12.12.26.22.39.32l.68-.68c-1.11-1.19-1.11-3.05.04-4.2l2.83-2.83c1.15-1.15 3.01-1.16 4.19-.04l.68-.68c-.1-.13-.2-.26-.32-.38zm18.68-18.09-2.12 2.12c1.18 1.18 1.19 3.09.01 4.26l-2.83 2.83c-1.17 1.17-3.08 1.16-4.26-.01l-2.12 2.12c2.36 2.36 6.17 2.37 8.51.03l2.83-2.83c2.35-2.35 2.34-6.16-.02-8.52z" fill="#c6d5db"/><path d="m31.11 5.66c-.12-.12-.26-.22-.39-.32l-.68.68c1.12 1.18 1.11 3.04-.04 4.19l-2.83 2.83c-1.15 1.15-3.01 1.16-4.19.04l-.68.68c.1.14.2.27.32.39a3.52 3.52 0 0 0 4.97.02l3.54-3.54a3.51 3.51 0 0 0 -.02-4.97zm-5.32.33c1.17-1.17 3.08-1.16 4.26.01l2.12-2.12c-2.36-2.35-6.17-2.36-8.51-.02l-2.83 2.83c-2.34 2.34-2.33 6.16.03 8.51l2.12-2.12c-1.18-1.18-1.19-3.09-.01-4.26z" fill="#e1e8ed"/><path d="m30.4 4.95a3.519 3.519 0 0 0 -4.97-.02l-3.53 3.53c-1.37 1.37-1.36 3.59.02 4.97.12.12.26.22.39.32l.68-.68c-1.12-1.18-1.11-3.04.04-4.19l2.83-2.83c1.14-1.15 3-1.15 4.18-.04l.68-.68c-.1-.13-.2-.26-.32-.38zm-25.84 29.31-2.83-2.83 4.24-4.24c.78-.78 2.05-.78 2.83 0s.78 2.05 0 2.83z" fill="#c6d5db"/><path d="m8.81 27.19c-.78-.78-2.05-.78-2.83 0l-4.24 4.24 1.41 1.41z" fill="#edf1f4"/><path d="m20.51 18.32 5.27-5.27c.78-.78.78-2.05 0-2.83s-2.05-.78-2.83 0l-5.27 5.27zm-4.95-.71-5.34 5.34c-.78.78-.78 2.05 0 2.83s2.05.78 2.83 0l5.34-5.34z" fill="#c6d5db"/><path d="m19.11 16.92 6.68-6.68c-.79-.79-2.06-.79-2.84-.01l-5.27 5.27zm-3.55.69-5.34 5.34c-.78.78-.78 2.05 0 2.83l6.75-6.75z" fill="#edf1f4"/><path d="m34.26 4.56-2.83-2.83-4.24 4.24c-.78.78-.78 2.05 0 2.83s2.05.78 2.83 0z" fill="#c6d5db"/><path d="m27.19 8.81c-.78-.78-.78-2.05 0-2.83l4.24-4.24 1.41 1.41z" fill="#edf1f4"/><path d="m20.515 18.32c.188-.187-.294-.972-1.075-1.753-.78-.781-1.566-1.262-1.753-1.075-.188.188.293.973 1.075 1.754.78.78 1.566 1.261 1.753 1.074z" fill="#8899a6"/><path d="m17.18 19.258.132-.564c-.78-.781-1.566-1.263-1.753-1.075-.188.187.293.972 1.075 1.753 0 0 .178-.06.546-.114z" fill="#edf1f4"/><path d="m17.31 18.69c.78.78 1.26 1.57 1.07 1.75-.19.19-.97-.29-1.75-1.07" fill="#c6d5db"/><path d="m8.777 8.76a.75.75 0 0 1 1.061 0l3.89 3.89a.75.75 0 1 1 -1.062 1.06l-3.889-3.888a.75.75 0 0 1 0-1.06zm-2.882 4.872a.75.75 0 0 1 .918-.53l5.313 1.423a.75.75 0 0 1 -.388 1.45l-5.313-1.425a.75.75 0 0 1 -.53-.919zm7.737-7.816a.75.75 0 0 1 .919.53l1.423 5.313a.749.749 0 1 1 -1.449.388l-1.423-5.312a.75.75 0 0 1 .53-.919zm13.608 21.407a.748.748 0 0 0 0-1.061l-3.89-3.89a.75.75 0 1 0 -1.06 1.062l3.889 3.889a.75.75 0 0 0 1.061 0zm-4.872 2.882a.75.75 0 0 0 .53-.918l-1.423-5.313a.75.75 0 0 0 -1.45.388l1.424 5.313a.75.75 0 0 0 .919.53zm7.816-7.737a.75.75 0 0 0 -.53-.919l-5.313-1.423a.749.749 0 1 0 -.388 1.449l5.312 1.423a.75.75 0 0 0 .919-.53z" fill="#fa743e"/></svg>