<svg viewBox="0 0 36 36" xmlns="http://www.w3.org/2000/svg"><path d="m20 2h-1v-1c0-.552-.447-1-1-1s-1 .448-1 1v1h-1c-.553 0-1 .448-1 1s.447 1 1 1h1v6c0 .552.447 1 1 1s1-.448 1-1v-6h1c.553 0 1-.448 1-1s-.447-1-1-1z" fill="#bcbec0"/><path d="m18 9-5.143 4h.143v9h10v-9h.143z" fill="#ffd983"/><path d="m19.999 15c0-1.104-.896-2-1.999-2-1.105 0-2 .896-2 2v7h4z" fill="#662113"/><path d="m17.999 18-13.999 8v9c0 .553.448 1 1 1h26c.553 0 1-.447 1-1v-9z" fill="#ffd983"/><path d="m31.998 27c-.168 0-.339-.042-.495-.132l-13.504-7.717-13.504 7.717c-.478.276-1.09.107-1.364-.372s-.107-1.09.372-1.364l14-8c.308-.176.685-.176.992 0l14 8c.48.274.647.885.372 1.364-.184.323-.521.504-.869.504zm-8.999-13c-.219 0-.439-.072-.624-.219l-4.376-3.5-4.374 3.5c-.432.343-1.061.275-1.406-.156-.345-.432-.275-1.061.156-1.406l4.999-4c.365-.292.884-.292 1.25 0l5.001 4c.431.345.501.974.156 1.405-.198.247-.488.376-.782.376z" fill="#dd2e44"/><path d="m12.999 31c0-1.104-.895-2-1.999-2-1.105 0-2 .896-2 2v5h4v-5zm7-2c0-1.104-.896-2-1.999-2-1.105 0-2 .896-2 2v7h4zm7 2c0-1.104-.896-2-1.999-2-1.105 0-2 .896-2 2v5h4z" fill="#662113"/></svg>