<svg viewBox="0 0 36 36" xmlns="http://www.w3.org/2000/svg"><path d="m34 31h-32c-1.104 0-2 .896-2 2v3h36v-3c0-1.104-.896-2-2-2z" fill="#ffac33"/><path d="m16.996 32.5c-.175.809-.975 1.323-1.784 1.147-.81-.176-1.324-.975-1.148-1.784l5.94-30.363c.176-.81.975-1.323 1.784-1.148.809.176 1.323.975 1.147 1.784z" fill="#66757f"/><path d="m21.363 2.307c-8.905-1.932-17.359 2.188-18.882 9.205 0 0-.424 1.954.553 2.167.977.212 3.356-1.318 3.356-1.318l24.431 5.303s1.53 2.379 2.508 2.591c.977.212 1.401-1.742 1.401-1.742 1.524-7.018-4.461-14.273-13.367-16.206z" fill="#dd2e44"/><path d="m21.363 2.307c-6.746-1.464-13.449 3.037-14.972 10.053 0 0-.424 1.955 1.53 2.379s5.31-.894 5.31-.894l10.749 2.333s2.508 2.59 4.463 3.015c1.954.424 2.378-1.53 2.378-1.53 1.524-7.017-2.712-13.892-9.458-15.356z" fill="#e1e8ed"/><path d="m21.363 2.307c-3.508-.761-6.609 4.521-8.132 11.538 0 0 2.507 2.591 4.462 3.015l.977.212c1.955.424 5.31-.894 5.31-.894 1.524-7.016.892-13.109-2.617-13.871z" fill="#dd2e44"/></svg>