<svg viewBox="0 0 36 36" xmlns="http://www.w3.org/2000/svg"><ellipse cx="19.5" cy="11.5" fill="#ea596e" rx=".5" ry="1.5"/><ellipse cx="25.5" cy="11.5" fill="#ea596e" rx=".5" ry="1.5"/><ellipse cx="21.5" cy="11.5" fill="#a6d388" rx=".5" ry="1.5"/><ellipse cx="18.5" cy="11.5" fill="#a6d388" rx=".5" ry="1.5"/><g fill="#55acee"><ellipse cx="22.5" cy="11.5" rx=".5" ry="1.5"/><ellipse cx="26.5" cy="11.5" rx=".5" ry="1.5"/><ellipse cx="30.5" cy="16.5" rx=".5" ry="1.5"/><ellipse cx="3.5" cy="16.5" rx=".5" ry="1.5"/></g><ellipse cx="32.5" cy="16.5" fill="#a6d388" rx=".5" ry="1.5"/><ellipse cx="6.5" cy="16.5" fill="#a6d388" rx=".5" ry="1.5"/><ellipse cx="33.5" cy="16.5" fill="#f4900c" rx=".5" ry="1.5"/><ellipse cx="5.5" cy="16.5" fill="#f4900c" rx=".5" ry="1.5"/><ellipse cx="23.5" cy="12.5" fill="#f4900c" rx=".5" ry="1.5"/><path d="m29 16.5v-2c0-.276.224-.5.5-.5h1.9l-.4-2h-24l-.4 2h.9c.276 0 .5.224.5.5v2c0 .276-.224.5-.5.5h21c-.276 0 .5-.224.5-.5z" fill="#ccd6dd"/><path d="m14 16.5c0 .276-.224.5-.5.5h-4c-.276 0-.5-.224-.5-.5v-2c0-.276.224-.5.5-.5h4c.276 0 .5.224.5.5zm7 0c0 .276-.224.5-.5.5h-4c-.276 0-.5-.224-.5-.5v-2c0-.276.224-.5.5-.5h4c.276 0 .5.224.5.5zm7 0c0 .276-.224.5-.5.5h-4c-.276 0-.5-.224-.5-.5v-2c0-.276.224-.5.5-.5h4c.276 0 .5.224.5.5z" fill="#66757f"/><path d="m33.402 24.708s1.598-4.708 1.598-8.708h-34c1 2 2.8 5.557 4.24 6.878 5.005 4.592 28.162 1.83 28.162 1.83z" fill="#ccd6dd"/><path d="m3.762 21c.504.771 1.01 1.448 1.478 1.878 5.004 4.592 28.162 1.83 28.162 1.83s.538-1.593.99-3.708z" fill="#dd2e44"/><path d="m8 19.5c0 .276-.224.5-.5.5h-1c-.276 0-.5-.224-.5-.5v-1c0-.276.224-.5.5-.5h1c.276 0 .5.224.5.5zm4 0c0 .276-.224.5-.5.5h-1c-.276 0-.5-.224-.5-.5v-1c0-.276.224-.5.5-.5h1c.276 0 .5.224.5.5zm4 0c0 .276-.224.5-.5.5h-1c-.276 0-.5-.224-.5-.5v-1c0-.276.224-.5.5-.5h1c.276 0 .5.224.5.5zm4 0c0 .276-.224.5-.5.5h-1c-.276 0-.5-.224-.5-.5v-1c0-.276.224-.5.5-.5h1c.276 0 .5.224.5.5zm4 0c0 .276-.224.5-.5.5h-1c-.276 0-.5-.224-.5-.5v-1c0-.276.224-.5.5-.5h1c.276 0 .5.224.5.5zm4 0c0 .276-.224.5-.5.5h-1c-.276 0-.5-.224-.5-.5v-1c0-.276.224-.5.5-.5h1c.276 0 .5.224.5.5zm4 0c0 .276-.224.5-.5.5h-1c-.276 0-.5-.224-.5-.5v-1c0-.276.224-.5.5-.5h1c.276 0 .5.224.5.5z" fill="#66757f"/><path d="m15 13-8.4 1 .9-6.208h7.5z" fill="#ccd6dd"/><path d="m14 7.5c0 .276-.224.5-.5.5s-.5-.224-.5-.5v-4c0-.276.224-.5.5-.5s.5.224.5.5zm-2 2c0 .276-.224.5-.5.5s-.5-.224-.5-.5v-4c0-.276.224-.5.5-.5s.5.224.5.5z" fill="#ccd6dd"/><path d="m15.5 7.75c0 .138-.224.25-.5.25h-7.5c-.276 0-.5-.112-.5-.25v-.5c0-.138.224-.25.5-.25h7.5c.276 0 .5.112.5.25z" fill="#269"/><path d="m13.5 9h-6.15l-.3 2h6.45c.276 0 .5-.224.5-.5v-1c0-.276-.224-.5-.5-.5z" fill="#66757f"/><path d="m11 8h1v4h-1z" fill="#ccd6dd"/><path d="m0 24h36v12h-36z" fill="#55acee"/></svg>