<svg viewBox="0 0 36 36" xmlns="http://www.w3.org/2000/svg"><path d="m16.812 33c-.588 0-1.112-.37-1.31-.924l-6.953-19.468c-.152-.426-.087-.872.173-1.242.261-.369.685-.563 1.137-.563h16.313c.557 0 1.059.305 1.279.817l8.343 19.455c.184.43.14.917-.116 1.307-.259.39-.696.618-1.163.618z" fill="#f4900c"/><path d="m1.515 33c-.467 0-.904-.236-1.162-.625-.256-.391-.3-.885-.116-1.315l8.348-19.479c.218-.51.722-.843 1.278-.843.557 0 1.061.333 1.279.843l8.348 19.479c.184.431.139.924-.117 1.315-.256.389-.693.625-1.161.625z" fill="#ffcc4d"/><path d="m9.859 14.182-2.782 18.818h5.563z" fill="#292f33"/><path d="m15.46 31.456.621 1.544h-3.441zm-11.203 0-.621 1.544h3.441z" fill="#ffac33"/><path d="m12.64 33s2.529-.645 3.766-1.786l-6.547-17.032zm-5.563 0s-2.529-.645-3.766-1.786l6.546-17.031z" fill="#ffe8b6"/></svg>