<svg viewBox="0 0 36 36" xmlns="http://www.w3.org/2000/svg"><path d="m6.203 21.641c-.078.922.321 1.198.946 1.636.618.433 4.383-2.867 5.614-3.369s12.787-2.949 12.286-5.183-3.993-2.564-6.683-2.108-7.838 2.822-9.342 4.099c-1.504 1.276-2.821 4.925-2.821 4.925zm8.622 1.497s-3.557 1.155-3.557 4.155.866 4.692 1.276 5.513c.411.82 1.688 1.616 3.455.851 2.052-.889-.491-6.004 6-3.656 2.974 1.075 6.059 2.528 9.059 1.528 2.846-.949 3.942-4.529 3.942-6.529 0-4.094-3-3-4-2s-9 3-10 3-6.175-2.862-6.175-2.862z" fill="#ef9645"/><path d="m19.312 28.188s-.12-1.316-1.375-1.469c-1.031-.125-2.656.219-3.5 1.906-.844 1.688-2.344 1.406-2.281 2.812.062 1.406.5 2.5 1.406 2.781.907.282 2.188-.218 2.344-1.718s.344-2.875 1.312-3.469c.97-.593 2.094-.843 2.094-.843z" fill="#f9ca55"/><path d="m18 26s-1-1-3-1-6.664 2.133-5.25 6.375c1 3 3.844 1.594 4.25-1.375.407-2.973 4-4 4-4z" fill="#ef9645"/><path d="m17 26s-1-1-3-1-4.885 1.53-5 6c-.094 3.656 4.031 2 4-1s4-4 4-4z" fill="#f9ca55"/><path d="m5 27c0 3.297.457 5.286 2.428 4.947 3.269-.562 2.028-4.614 4.889-5.754 2.077-.827 5.101-.63 8.02 1.103 1.923 1.142.663-3.296-1.337-4.296s-8 0-9 0-5 4-5 4z" fill="#ef9645"/><path d="m4.842 27.174c-1.591 2.665-.623 5.42 2.158 4.826 2.691-.574 1.343-4.07 4-6 1.489-1.082 4.698-1.445 6.698-.445s2.302-1.555.302-2.555-8.54-.025-9.538.037c-1.909.119-3.62 4.137-3.62 4.137z" fill="#f9ca55"/><path d="m9.418 29.114c-.679.778-1.86.859-2.639.18l-.196-.171c-.779-.679-.859-1.859-.18-2.638l22.523-25.817c.679-.778 1.86-.859 2.639-.18l.195.171c.779.679.859 1.86.181 2.638z" fill="#3b88c3"/><path d="m10.49 27.886c-2.36 2.705-8.313 8.009-9.067 7.352-.753-.657 3.693-7.275 6.053-9.981s1.661-.542 2.493.185c.832.726 2.881-.26.521 2.444z" fill="#3b88c3"/><path d="m6.672 25.026c0 1 2.421 1.915 3.421.915s3.341-2.228 6.419-.941c7.204 3.01 4.488-1 1.488-2s-8 0-9 0-2.328 2.026-2.328 2.026z" fill="#ef9645"/><path d="m6.195 22.043c-.358-1.113 2.188-7.279 3.341-8.234 1.452-1.202 7.069-3.063 9.069-3.063s16.395 7.254 16.395 12.254-2 5.625-4.875 6.406c-2.299.625-7.115.242-9.219-1.719-1.844-1.718-3.125-2.906-4.906-3.687-3.302-1.448-5.503.424-6.503 1.424-2 2-5.768-.159-2.625-3.58 2.249-2.449 4.23-3.212 6.128-3.844 6-2 10-2 8-4-.707-.707-1.092.346-2.076.525-1.98.36-3.556.602-6.165 1.472-.902.3-5.172 3.023-6.564 6.046z" fill="#ffdc5d"/><path d="m13.196 16.275c1.064-.388 5.702-1.232 8.115-2.068 1.949-.676 3.659.636-.04 2.028-3.57 1.343-7.279 1.233-9.984 2.307-1.023.406-1.91-.875 1.909-2.267z" fill="#ef9645"/><path d="m22.487 8.023s-5.928 6.795-8.446 9.661c2.254-.926 4.271-.75 6.198-1.884 1.927-1.133 2.806-2.342 5.73-5.695 1.086-1.244-3.482-2.082-3.482-2.082z" fill="#3b88c3"/></svg>