<svg viewBox="0 0 36 36" xmlns="http://www.w3.org/2000/svg"><path d="m35.222 33.598c-.647-2.101-1.705-6.059-2.325-7.566-.501-1.216-.969-2.438-1.544-3.014-.575-.575-1.553-.53-2.143.058 0 0-2.469 1.675-3.354 2.783-1.108.882-2.785 3.357-2.785 3.357-.59.59-.635 1.567-.06 2.143.576.575 1.798 1.043 3.015 1.544 1.506.62 5.465 1.676 7.566 2.325.359.11 1.74-1.271 1.63-1.63z" fill="#d99e82"/><path d="m13.643 5.308c1.151 1.151 1.151 3.016 0 4.167l-4.167 4.168c-1.151 1.15-3.018 1.15-4.167 0l-4.168-4.168c-1.15-1.151-1.15-3.016 0-4.167l4.167-4.167c1.15-1.151 3.016-1.151 4.167 0z" fill="#ea596e"/><path d="m31.353 23.018-4.17 4.17-4.163 4.165-15.628-15.627 8.335-8.334z" fill="#ffcc4d"/><path d="m32.078 34.763s2.709 1.489 3.441.757-.765-3.435-.765-3.435-2.566.048-2.676 2.678z" fill="#292f33"/><path d="m2.183 10.517 8.335-8.335 5.208 5.209-8.334 8.335z" fill="#ccd6dd"/><path d="m3.225 11.558 8.334-8.334 1.042 1.042-8.334 8.334zm2.083 2.086 8.335-8.335 1.042 1.042-8.335 8.334z" fill="#99aab5"/></svg>