<svg viewBox="0 0 36 36" xmlns="http://www.w3.org/2000/svg"><path d="m31.986 32.729c-.292.167-.626.271-.987.271-1.104 0-2-.896-2-2s.896-2 2-2 2 .896 2 2c0 .361-.104.695-.271.987l3.146 3.146-.875-7.133-9-7-5 5 7 9 7.134.876z" fill="#99aab5"/><path d="m13.643 5.308c1.151 1.151 1.151 3.016 0 4.167l-4.167 4.168c-1.151 1.15-3.018 1.15-4.167 0l-4.168-4.168c-1.15-1.151-1.15-3.016 0-4.167l4.167-4.167c1.15-1.151 3.016-1.151 4.167 0z" fill="#66757f"/><path d="m26.643 18.309-17.203-17.204-8.333 8.335 17.202 17.202c1.15 1.15 3.016 1.15 4.168 0l4.166-4.168c1.15-1.15 1.15-3.015 0-4.165z" fill="#31373d"/><path d="m8.225 16.56 8.334-8.335 2.124 2.125-8.333 8.334z" fill="#66757f"/></svg>