<svg viewBox="0 0 36 36" xmlns="http://www.w3.org/2000/svg"><path d="m36 32c0 2.209-1.791 4-4 4h-28c-2.209 0-4-1.791-4-4v-28c0-2.209 1.791-4 4-4h28c2.209 0 4 1.791 4 4z" fill="#9266cc"/><path d="m27.152 18 3.716-6.504c.177-.31.176-.69-.003-.998s-.509-.498-.865-.498h-7.42l-3.712-6.496c-.355-.623-1.381-.623-1.736 0l-3.712 6.496h-7.42c-.356 0-.686.19-.865.498s-.18.688-.003.998l3.716 6.504-3.716 6.504c-.177.31-.176.689.003.998s.509.498.865.498h7.42l3.712 6.496c.178.312.509.504.868.504s.69-.192.868-.504l3.712-6.496h7.42c.356 0 .686-.189.865-.498s.18-.688.003-.998zm1.124-6-2.276 3.984-2.277-3.984zm-3.428 6-3.428 6h-6.84l-3.429-6 3.429-6h6.839zm-6.848-11.984 2.277 3.984h-4.553zm-10.277 5.984h4.554l-2.277 3.985zm0 12 2.277-3.985 2.277 3.985zm10.277 5.984-2.277-3.984h4.553zm5.723-5.984 2.277-3.984 2.276 3.984z" fill="#fff"/></svg>