<svg viewBox="0 0 36 36" xmlns="http://www.w3.org/2000/svg"><path d="m36 32c0 2.209-1.791 4-4 4h-28c-2.209 0-4-1.791-4-4v-28c0-2.209 1.791-4 4-4h28c2.209 0 4 1.791 4 4z" fill="#3b88c3"/><path d="m16.389 14.489c.744-.155 1.551-.31 2.326-.31 3.752 0 6.418 2.977 6.418 6.604 0 5.178-2.851 8.589-8.216 8.589-2.201 0-6.821-1.427-6.821-4.155 0-1.147.961-2.107 2.108-2.107 1.24 0 2.729 1.984 4.806 1.984 2.17 0 3.288-2.109 3.288-4.062 0-1.86-1.055-3.131-2.977-3.131-1.799 0-2.078 1.023-3.659 1.023-1.209 0-1.829-.93-1.829-1.457 0-.403.062-.713.093-1.054l.774-6.544c.341-2.418.93-2.945 2.418-2.945h7.472c1.428 0 2.264.837 2.264 1.953 0 2.14-1.611 2.326-2.17 2.326h-5.829z" fill="#fff"/></svg>