<svg width="12" height="12" viewBox="0 0 12 12" fill="none" xmlns="http://www.w3.org/2000/svg">
<path d="M10.4697 11.5303C10.7626 11.8232 11.2374 11.8232 11.5303 11.5303C11.8232 11.2374 11.8232 10.7626 11.5303 10.4697L7.41421 6.35355C7.21895 6.15829 7.21895 5.84171 7.41421 5.64645L11.5303 1.53033C11.8232 1.23744 11.8232 0.762564 11.5303 0.46967C11.2374 0.176777 10.7626 0.176777 10.4697 0.46967L6.35355 4.58579C6.15829 4.78105 5.84171 4.78105 5.64645 4.58579L1.53033 0.46967C1.23744 0.176777 0.762563 0.176777 0.46967 0.46967C0.176777 0.762563 0.176777 1.23744 0.46967 1.53033L4.58579 5.64645C4.78105 5.84171 4.78105 6.15829 4.58579 6.35355L0.46967 10.4697C0.176777 10.7626 0.176777 11.2374 0.46967 11.5303C0.762563 11.8232 1.23744 11.8232 1.53033 11.5303L5.64645 7.41421C5.84171 7.21895 6.15829 7.21895 6.35355 7.41421L10.4697 11.5303Z" fill="black"/>
</svg>
