<svg width="20" height="20" viewBox="0 0 20 20" fill="none" xmlns="http://www.w3.org/2000/svg">
<path d="M4.25 8.5C4.66421 8.5 5 8.16421 5 7.75C5 7.33579 4.66421 7 4.25 7H4C1.79086 7 0 8.79086 0 11V16C0 18.2091 1.79086 20 4 20H9C11.2091 20 13 18.2091 13 16V15.75C13 15.3358 12.6642 15 12.25 15C11.8358 15 11.5 15.3358 11.5 15.75V16C11.5 17.3807 10.3807 18.5 9 18.5H4C2.61929 18.5 1.5 17.3807 1.5 16V11C1.5 9.61929 2.61929 8.5 4 8.5H4.25Z" fill="#4360DF"/>
<path fill-rule="evenodd" clip-rule="evenodd" d="M7 4C7 1.79086 8.79086 0 11 0H16C18.2091 0 20 1.79086 20 4V9C20 11.2091 18.2091 13 16 13H11C8.79086 13 7 11.2091 7 9V4ZM11 1.5H16C17.3807 1.5 18.5 2.61929 18.5 4V9C18.5 10.3807 17.3807 11.5 16 11.5H11C9.61929 11.5 8.5 10.3807 8.5 9V4C8.5 2.61929 9.61929 1.5 11 1.5Z" fill="#4360DF"/>
</svg>
