<svg fill="none" height="17" viewBox="0 0 16 17" width="16" xmlns="http://www.w3.org/2000/svg"><g fill="#000"><path d="m13.7774 4.08403c.2297.15317.2918.46361.1386.69337l-4.99997 7.5c-.08682.1302-.22964.2123-.38588.2217-.15625.0095-.3079-.0548-.40977-.1737l-3-3.49995c-.17971-.20966-.15543-.52531.05423-.70503.20967-.17971.52532-.15543.70503.05424l2.39864 2.79844c.08625.1006.24475.091.31827-.0192l4.48745-6.7312c.1532-.22976.4636-.29185.6934-.13867z"/><path d="m8.54225 8.33804c-.18379.27568-.58003.29961-.79566.04805-.14578-.17008-.16065-.41637-.03639-.60275l2.3738-3.56064c.1531-.22976.4636-.29185.6933-.13867.2298.15317.2919.46361.1387.69337z"/><path d="m2.87964 8.17461c-.17971-.20966-.49536-.23394-.70503-.05423-.20966.17971-.23394.49536-.05423.70502l3 3.5c.17971.2097.49536.2339.70502.0542.20967-.1797.23395-.4953.05424-.705z"/></g></svg>