<svg fill="none" height="40" viewBox="0 0 40 40" width="40" xmlns="http://www.w3.org/2000/svg" xmlns:xlink="http://www.w3.org/1999/xlink"><clipPath id="a"><path d="m3 3h34v34h-34z"/></clipPath><rect fill="#fff" height="40" rx="20" width="40"/><g clip-path="url(#a)"><path clip-rule="evenodd" d="m20.0555 3.38867c-9.4385 0-17.05745 7.61893-17.05745 17.05743 0 7.5052 4.88979 13.8733 11.71275 16.1477.9097.1137 1.1372-.3412 1.1372-.7961v-2.9566c-4.7761 1.0235-5.7996-2.2743-5.7996-2.2743-.79597-1.9332-1.93313-2.5018-1.93313-2.5018-1.59203-1.0234.11372-1.0234.11372-1.0234 1.70574.1137 2.61551 1.7057 2.61551 1.7057 1.4783 2.6155 3.98 1.8195 5.0035 1.3646.1137-1.1371.5685-1.8194 1.1371-2.2743-3.7526-.4548-7.73267-1.9332-7.73267-8.415 0-1.8194.6823-3.4114 1.70577-4.5486-.2275-.4549-.796-2.1606.1137-4.5487 0 0 1.4783-.45481 4.6623 1.7058 1.3646-.3412 2.8429-.5686 4.3213-.5686 1.4783 0 2.9566.2274 4.3212.5686 3.2977-2.16061 4.6623-1.7058 4.6623-1.7058.9098 2.3881.3412 4.0938.1137 4.5487 1.1372 1.1372 1.7058 2.7292 1.7058 4.5486 0 6.5956-3.9801 7.9602-7.7327 8.415.5686.5686 1.1371 1.592 1.1371 3.1841v4.6623c0 .4549.3412 1.0235 1.1372.796 6.823-2.2743 11.599-8.6424 11.599-16.1476.1138-9.3248-7.5052-16.94373-16.9436-16.94373z" fill="#000" fill-rule="evenodd"/></g></svg>