<svg fill="none" height="40" viewBox="0 0 40 40" width="40" xmlns="http://www.w3.org/2000/svg"><rect fill="#fff" height="40" rx="20" width="40"/><path d="m13.897 12c4.3614 0 7.8967 3.567 7.8967 7.9667 0 4.3998-3.5356 7.9665-7.8967 7.9665-4.36115 0-7.897-3.5667-7.897-7.9665 0-4.3997 3.53558-7.9667 7.897-7.9667zm12.6109.4667c2.1807 0 3.9485 3.3575 3.9485 7.5h.0002c0 4.1415-1.7678 7.5001-3.9484 7.5001-2.1807 0-3.9485-3.3586-3.9485-7.5001 0-4.1414 1.7675-7.5 3.9482-7.5zm6.1034.7812c.7668 0 1.3887 3.008 1.3887 6.7188 0 3.7097-.6216 6.7189-1.3887 6.7189-.767 0-1.3884-3.0084-1.3884-6.7189s.6216-6.7188 1.3884-6.7188z" fill="#000"/></svg>