<svg fill="none" height="40" viewBox="0 0 40 40" width="40" xmlns="http://www.w3.org/2000/svg"><g clip-rule="evenodd" fill-rule="evenodd"><path d="m20 .00000001c-11.04581-.00032352-20 8.95373999-20 19.99969999 0 11.0459 8.95419 20 20 20 11.0458 0 20-8.9544 20-20 0-11.04564-8.9542-19.99969999-20-19.99969999z" fill="#fff"/><path d="m23.3735 19.8153c-2.397.1381-3.8993-.4203-6.2967-.2818-.5946.0334-1.1851.1196-1.7645.2575.3538-4.4335 3.4916-8.3119 7.7583-8.5584 2.6184-.1511 5.2355 1.4656 5.3775 4.0899.1396 2.5795-1.8271 4.3051-5.0742 4.4924zm-6.437 9.0686c-2.5084.1417-5.0152-1.3718-5.1513-3.8276-.1339-2.4141 1.7506-4.0291 4.8613-4.2045 2.2961-.1294 3.7354.3934 6.0316.2637.5693-.0312 1.1348-.1119 1.6903-.241-.3384 4.1491-3.3442 7.779-7.4319 8.0094zm3.0635-28.88357648c-11.04581-.00032352-20 8.95373648-20 19.99967648 0 11.0459 8.95419 20 20 20 11.0458 0 20-8.9544 20-20 0-11.04562-8.9542-20-20-20" fill="#4360df"/></g></svg>