<svg fill="none" height="40" viewBox="0 0 40 40" width="40" xmlns="http://www.w3.org/2000/svg" xmlns:xlink="http://www.w3.org/1999/xlink"><clipPath id="a"><path d="m5.71387 16h28.5714v8h-28.5714z"/></clipPath><rect fill="#fff" height="40" rx="20" width="40"/><g clip-path="url(#a)" clip-rule="evenodd" fill="#007add" fill-rule="evenodd"><path d="m11.4595 21.2914c.043.3221.136.6103.3007.8698.3866.6103.9485.9002 1.668.8948.5906-.0036 1.0971-.2183 1.5338-.6121.2291-.2076.5512-.1682.7123.0806.1163.1789.0931.3955-.068.5566-.4886.4886-1.0703.7928-1.7593.8769-.451.0555-.9002.0448-1.3387-.0912-.9987-.3097-1.6626-.9719-1.9579-1.9669-.3455-1.1687-.1611-2.2551.6532-3.1893.553-.6318 1.2689-.9324 2.1119-.9181.7266.0125 1.3601.2595 1.8702.7875.4242.4384.6586.9736.766 1.5677.0412.2255.0591.4546.0698.6837.0125.2524-.1843.4492-.4367.4618-.0358.0017-.0716 0-.1074 0h-3.8908c-.0358-.0018-.0734-.0018-.1271-.0018zm3.4935-.9003c-.0268-.2326-.093-.4474-.1807-.6568-.5226-1.2295-1.881-1.2617-2.579-.6622-.3669.315-.5834.7177-.6908 1.183-.0108.043-.0143.0859-.0233.136z"/><path d="m23.1924 20.8548c.0018-1.5821 1.2277-3.0693 3.1033-3.0657 1.7486.0018 3.0891 1.3566 3.0855 3.1176-.0036 1.7307-1.3709 3.0801-3.123 3.0819-1.6877 0-3.0694-1.4103-3.0658-3.1338zm5.1293.0824c-.009-.6139-.1861-1.1258-.5745-1.5589-.7928-.8859-2.2407-.8519-3.0013.0609-.6336.7606-.6783 2.1029.0572 2.9297.6551.7374 1.8327.8895 2.6345.3168.6103-.4367.8662-1.0541.8841-1.7485z"/><path d="m18.0582 18.6588c.1128-.1074.204-.1987.2989-.2846.4582-.4188 1.0058-.5906 1.6161-.5852.4814.0054.9342.1127 1.3351.3919.4976.3472.7678.8394.8734 1.4246.034.1898.0519.3848.0537.5781.0054 1.0953.0018 2.1888.0018 3.2841 0 .2094-.1325.4081-.3275.4797-.2041.0751-.3956.0447-.5531-.1128-.1109-.1091-.1592-.247-.1592-.4044.0018-1.0148.0053-2.0278-.0036-3.0426-.0018-.2004-.0304-.4062-.0788-.5995-.1521-.5924-.5762-.9521-1.183-1.0219-.4313-.0501-.8411.0179-1.2009.2792-.4778.3472-.6693.8411-.6711 1.4138-.0036.9987 0 1.9991-.0018 2.9978 0 .383-.3722.6318-.7266.4868-.1879-.077-.315-.281-.315-.5101v-1.5839-3.5346c0-.2023.0931-.3562.2649-.4564.1772-.1038.3615-.0984.5351.0107.1485.0949.238.2327.2416.4152.0018.1182 0 .2327 0 .3741z"/><path d="m8.06052 17.911h.11633 1.28859c.19329 0 .35078.0626.451.2362.16646.2917-.00357.6443-.33646.6944-.0519.0072-.10738.009-.16107.009h-1.24385-.11454v.1002 3.1946c0 .2148.034.4206.17897.596.11812.1432.2774.204.451.2309.25951.0411.51723.0196.76958-.0591.23982-.077.47606.0304.55663.2541.0823.2273-.03404.451-.25596.5584-.30067.1468-.61566.2112-.94855.2291-.86264.043-1.63758-.5834-1.76823-1.4389-.0179-.111-.02326-.2255-.02326-.3383-.00179-1.0648-.00179-2.1297-.00179-3.1946v-.1235c-.03938-.0018-.07159-.0054-.10202-.0054-.19687 0-.39373.0036-.5906-.0017-.32215-.009-.52975-.2506-.48143-.5549.034-.2147.22908-.3758.47427-.383.19329-.0053.38837-.0017.58166-.0017.11812 0 .11812 0 .11812-.1235v-1.2439c0-.3042.22013-.5369.51364-.5405s.52439.2309.52618.5387c.00179.417 0 .8358 0 1.2528.00179.034.00179.0698.00179.1146z"/><path d="m31.4612 19.0441c.1539-.1754.2899-.349.4474-.5029.3598-.3508.7821-.596 1.2797-.6944.1503-.0305.3078-.0376.4617-.0305.2917.0161.5101.2595.5101.5459 0 .2828-.2219.5226-.5101.5494-.213.0197-.4295.0233-.6389.068-.5745.1235-.9808.4707-1.2421.9915-.229.4546-.306.945-.3078 1.4479-.0036.6712 0 1.3423 0 2.0134 0 .3114-.2291.5531-.5244.5513-.2971-.0018-.5208-.2327-.5208-.5441v-5.1347c0-.2326.1647-.4438.3866-.4993.2434-.0609.4796.0394.5852.2631.0412.0859.0645.1861.068.2828.0108.1986.0036.3991.0036.5995.0018.0304.0018.0591.0018.0931z"/></g></svg>