<svg fill="none" height="40" viewBox="0 0 40 40" width="40" xmlns="http://www.w3.org/2000/svg"><rect fill="#fff" height="40" rx="20" width="40"/><path d="m31.4384 14.5459c-.1359-.4808-.4009-.9191-.7687-1.2713-.3677-.3521-.8255-.6059-1.3275-.736-1.838-.48-9.2355-.48-9.2355-.48s-7.3974.0145-9.2354.4945c-.5021.1301-.95978.3839-1.32756.7361s-.63279.7904-.76865 1.2712c-.55595 3.1273-.77165 7.8924.01519 10.8946.13586.4807.40087.919.76865 1.2712s.82547.6059 1.32757.736c1.838.48 9.2354.48 9.2354.48s7.3975 0 9.2355-.48c.502-.1301.9597-.3838 1.3275-.736s.6328-.7905.7687-1.2712c.5863-3.1317.7671-7.8939-.0152-10.9091z" fill="#f00"/><path d="m17.752 23.404 6.1367-3.4037-6.1367-3.4036z" fill="#fff"/></svg>