<svg width="12" height="12" viewBox="0 0 12 12" fill="none" xmlns="http://www.w3.org/2000/svg">
<path d="M0 4.21333C0 2.92999 0.914 1.82866 2.17533 1.59266L9.87733 0.147995C10.2873 0.0713282 10.6667 0.385995 10.6667 0.803328V1.99999C10.6667 2.36866 10.368 2.66666 10 2.66666H2.412C2.15933 2.66666 1.92867 2.80933 1.816 3.03533L1.66667 3.33333C1.51333 3.64 1.736 3.99999 2.07867 3.99999H11.3333C11.7013 3.99999 12 4.29866 12 4.66666V11.3333C12 11.702 11.7013 12 11.3333 12H2.66667C1.194 12 0 10.8067 0 9.33333V4.21333ZM8.66667 8C8.66667 8.55266 9.11467 9 9.66667 9C10.2187 9 10.6667 8.55266 10.6667 8C10.6667 7.448 10.2187 7 9.66667 7C9.11467 7 8.66667 7.448 8.66667 8Z" fill="white"/>
</svg>
