<svg width="16" height="12" viewBox="0 0 16 12" fill="none" xmlns="http://www.w3.org/2000/svg">
<path d="M10.028 6.00002C10.028 7.10459 9.12002 8.00003 8 8.00003C6.87998 8.00003 5.97202 7.10459 5.97202 6.00002C5.97202 4.89546 6.87998 4.00002 8 4.00002C9.12002 4.00002 10.028 4.89546 10.028 6.00002Z" fill="#4360DF"/>
<path fill-rule="evenodd" clip-rule="evenodd" d="M1.64606 6.00002C1.99772 6.53799 2.72309 7.52514 3.78173 8.3853C4.88005 9.27771 6.2938 10 8 10C9.70621 10 11.1199 9.27771 12.2183 8.3853C13.2769 7.52514 14.0023 6.53799 14.3539 6.00002C14.0023 5.46206 13.2769 4.47491 12.2183 3.61475C11.1199 2.72234 9.70621 2.00002 8 2.00002C6.2938 2.00002 4.88005 2.72234 3.78173 3.61475C2.72309 4.47491 1.99772 5.46206 1.64606 6.00002ZM2.7501 2.37988C4.03615 1.33494 5.80282 0.400024 8 0.400024C10.1972 0.400024 11.9639 1.33494 13.2499 2.37988C14.533 3.42239 15.3807 4.60758 15.7655 5.20707C16.0782 5.69425 16.0782 6.3058 15.7655 6.79298C15.3807 7.39247 14.533 8.57766 13.2499 9.62017C11.9639 10.6651 10.1972 11.6 8 11.6C5.80282 11.6 4.03615 10.6651 2.7501 9.62017C1.46704 8.57766 0.619349 7.39247 0.23454 6.79298C-0.0781801 6.3058 -0.0781801 5.69425 0.23454 5.20707C0.619349 4.60758 1.46704 3.42239 2.7501 2.37988Z" fill="#4360DF"/>
</svg>
