<svg width="14" height="14" viewBox="0 0 14 14" fill="none" xmlns="http://www.w3.org/2000/svg">
<path d="M9.66665 5.66666H7.66665V9.66666H6.33331V5.66666H4.33331V4.33333H9.66665V5.66666Z" fill="#4360DF"/>
<path fill-rule="evenodd" clip-rule="evenodd" d="M6.99998 13.6667C3.31801 13.6667 0.333313 10.6819 0.333313 7C0.333313 3.31811 3.31801 0.333328 6.99998 0.333328C10.6819 0.333328 13.6666 3.31811 13.6666 7C13.6666 10.6819 10.6819 13.6667 6.99998 13.6667ZM6.99998 12.3333C9.94546 12.3333 12.3333 9.94555 12.3333 7C12.3333 4.05444 9.94546 1.66666 6.99998 1.66666C4.0545 1.66666 1.66665 4.05444 1.66665 7C1.66665 9.94555 4.0545 12.3333 6.99998 12.3333Z" fill="#4360DF"/>
</svg>
