<svg width="16" height="16" viewBox="0 0 16 16" fill="none" xmlns="http://www.w3.org/2000/svg">
<path d="M7.39587 10.2538C8.16322 10.4594 8.94377 10.2576 9.50775 9.78084C9.64827 9.66206 9.85751 9.64733 9.99518 9.76941L10.2447 9.99071C10.3826 10.1129 10.3962 10.3252 10.2607 10.4499C9.86821 10.8114 9.39309 11.075 8.87759 11.2162C8.75627 11.2495 8.65768 11.3409 8.62512 11.4624L8.41357 12.2519C8.36592 12.4298 8.18314 12.5353 8.00532 12.4876L7.68334 12.4014C7.50552 12.3537 7.39999 12.1709 7.44764 11.9931L7.5296 11.6872C7.58236 11.4903 7.44698 11.2936 7.2484 11.2476C7.21127 11.239 7.17415 11.2297 7.13705 11.2197C7.10002 11.2098 7.0633 11.1993 7.0269 11.1882C6.83189 11.1289 6.61632 11.2315 6.56356 11.4284L6.4816 11.7343C6.43395 11.9121 6.25117 12.0176 6.07335 11.97L5.75138 11.8837C5.57355 11.8361 5.46803 11.6533 5.51567 11.4755L5.72719 10.6861C5.75975 10.5645 5.72007 10.436 5.63161 10.3466C4.82606 9.53209 4.46214 8.32364 4.78003 7.13726C5.09793 5.95083 6.01738 5.08623 7.12229 4.78366C7.24364 4.75044 7.34227 4.65897 7.37483 4.53745L7.58634 3.74806C7.63399 3.57024 7.81677 3.46471 7.99459 3.51236L8.31657 3.59863C8.49439 3.64628 8.59992 3.82906 8.55227 4.00688L8.47029 4.31281C8.41754 4.50971 8.5529 4.70639 8.75146 4.75247C8.78849 4.76107 8.82551 4.77032 8.86251 4.78023C8.89955 4.79016 8.93628 4.80067 8.97269 4.81176C9.16769 4.87113 9.38327 4.76849 9.43603 4.57159L9.51798 4.26572C9.56563 4.0879 9.74841 3.98237 9.92623 4.03002L10.2482 4.11629C10.426 4.16394 10.5316 4.34672 10.4839 4.52454L10.2724 5.31393C10.2398 5.43545 10.2795 5.56396 10.368 5.6534C10.7439 6.03348 11.0236 6.49934 11.1828 7.00871C11.2377 7.18452 11.1198 7.36152 10.9393 7.39845L10.6126 7.46532C10.4323 7.50221 10.2585 7.38483 10.1961 7.21171C9.94608 6.51687 9.37105 5.95177 8.60369 5.74616C7.35894 5.41263 6.07948 6.15132 5.74595 7.39608C5.41242 8.64083 6.15112 9.92028 7.39587 10.2538Z" fill="#4360DF"/>
<path fill-rule="evenodd" clip-rule="evenodd" d="M14.6666 8C14.6666 11.6819 11.6819 14.6667 7.99998 14.6667C4.31808 14.6667 1.33331 11.6819 1.33331 8C1.33331 4.3181 4.31808 1.33333 7.99998 1.33333C11.6819 1.33333 14.6666 4.3181 14.6666 8ZM13.6666 8C13.6666 11.1296 11.1296 13.6667 7.99998 13.6667C4.87037 13.6667 2.33331 11.1296 2.33331 8C2.33331 4.87038 4.87037 2.33333 7.99998 2.33333C11.1296 2.33333 13.6666 4.87038 13.6666 8Z" fill="#4360DF"/>
</svg>
