<svg width="44" height="44" viewBox="0 0 44 44" fill="none" xmlns="http://www.w3.org/2000/svg">
<circle cx="22" cy="22" r="22" fill="#ECEFFC"/>
<path fill-rule="evenodd" clip-rule="evenodd" d="M25.496 23.3333L22.3889 26.4254C21.8795 26.9323 21.872 27.7699 22.3866 28.282C22.9047 28.7976 23.7363 28.793 24.2521 28.2797L29.6111 22.9465C29.8369 22.7218 29.9641 22.4321 29.9909 22.1346C30.0368 21.7486 29.9094 21.3466 29.6111 21.0497L24.2521 15.7166C23.7428 15.2097 22.9011 15.2022 22.3866 15.7143C21.8685 16.2299 21.8731 17.0575 22.3889 17.5708L25.4997 20.6667H15.3274C14.5931 20.6667 14 21.2636 14 22C14 22.7415 14.5943 23.3333 15.3274 23.3333H25.496Z" fill="#4360DF"/>
</svg>
