<svg width="44" height="44" viewBox="0 0 44 44" fill="none" xmlns="http://www.w3.org/2000/svg">
<circle cx="22" cy="22" r="22" fill="#ECEFFC"/>
<path d="M20.2852 15.6187C20.6269 15.277 20.6269 14.723 20.2852 14.3813C19.9435 14.0396 19.3895 14.0396 19.0478 14.3813L12.0478 21.3813C11.7061 21.723 11.7061 22.277 12.0478 22.6187L19.0478 29.6187C19.3895 29.9604 19.9435 29.9604 20.2852 29.6187C20.6269 29.277 20.6269 28.723 20.2852 28.3813L15.7748 23.8708C15.4073 23.5033 15.6675 22.875 16.1872 22.875H31.3332C31.8164 22.875 32.2082 22.4832 32.2082 22C32.2082 21.5168 31.8164 21.125 31.3332 21.125H16.1872C15.6675 21.125 15.4073 20.4967 15.7748 20.1292L20.2852 15.6187Z" fill="#4360DF"/>
</svg>
