<svg width="22" height="16" viewBox="0 0 22 16" fill="none" xmlns="http://www.w3.org/2000/svg">
<path d="M12.7147 1.61872C12.373 1.27701 12.373 0.72299 12.7147 0.381282C13.0564 0.0395728 13.6104 0.0395728 13.9521 0.381282L20.9521 7.38128C21.2938 7.72299 21.2938 8.27701 20.9521 8.61872L13.9521 15.6187C13.6104 15.9604 13.0564 15.9604 12.7147 15.6187C12.373 15.277 12.373 14.723 12.7147 14.3813L17.2252 9.87081C17.5926 9.50333 17.3324 8.875 16.8127 8.875H1.66675C1.1835 8.875 0.791748 8.48325 0.791748 8C0.791748 7.51675 1.1835 7.125 1.66675 7.125H16.8127C17.3324 7.125 17.5926 6.49667 17.2252 6.12919L12.7147 1.61872Z" fill="#4360DF"/>
</svg>
