<svg width="20" height="20" viewBox="0 0 20 20" fill="none" xmlns="http://www.w3.org/2000/svg">
<path fill-rule="evenodd" clip-rule="evenodd" d="M10 0C4.47715 0 0 4.47715 0 10C0 15.5228 4.47715 20 10 20C10.4142 20 10.75 19.6642 10.75 19.25C10.75 18.8358 10.4142 18.5 10 18.5C5.30558 18.5 1.5 14.6944 1.5 10C1.5 5.30558 5.30558 1.5 10 1.5C14.6944 1.5 18.5 5.30558 18.5 10V12.375C18.5 13.4105 17.6605 14.25 16.625 14.25C15.5895 14.25 14.75 13.4105 14.75 12.375V6C14.75 5.58579 14.4142 5.25 14 5.25C13.5858 5.25 13.25 5.58579 13.25 6C13.25 6.1176 13.107 6.17946 13.0171 6.10367C12.1792 5.39741 11.1144 5 10 5C7.23858 5 5 7.23858 5 10C5 12.7614 7.23858 15 10 15C11.031 15 12.0194 14.6599 12.8251 14.0497C13.1255 13.8223 13.6002 13.9204 13.8081 14.2346C14.4121 15.1477 15.4482 15.75 16.625 15.75C18.489 15.75 20 14.239 20 12.375V10C20 4.47715 15.5228 0 10 0ZM13.25 10C13.25 12.1716 11.6716 13.5 10 13.5C8.067 13.5 6.5 11.933 6.5 10C6.5 8.067 8.067 6.5 10 6.5C11.6716 6.5 13.25 7.82843 13.25 10Z" fill="#4360DF"/>
</svg>
