<svg width="18" height="21" viewBox="0 0 18 21" fill="none" xmlns="http://www.w3.org/2000/svg">
<path fill-rule="evenodd" clip-rule="evenodd" d="M12.2815 17C11.9452 17 11.7036 17.3279 11.7349 17.6628C11.7449 17.7703 11.7504 17.8827 11.7504 18C11.7504 19.3889 10.5441 20.75 9.00041 20.75C7.45677 20.75 6.25041 19.3889 6.25041 18C6.25041 17.8827 6.25591 17.7703 6.26596 17.6628C6.29725 17.3279 6.05564 17 5.71934 17H2.52151C0.785229 17 -0.126317 14.9394 1.04163 13.6547L2.21849 12.3601C2.72921 11.7983 3.06949 11.1028 3.19958 10.3548L4.31505 3.94085C4.71121 1.66293 6.6883 0 9.00041 0C11.3125 0 13.2896 1.66293 13.6858 3.94085L14.8012 10.3548C14.9313 11.1028 15.2716 11.7983 15.7823 12.3601L16.9592 13.6547C18.1271 14.9394 17.2156 17 15.4793 17H12.2815ZM8.03273 17.0283L8.03176 17.0293L8.03951 17.0214L8.04195 17.0188C8.04319 17.0175 8.04382 17.0168 8.04389 17.0167C8.04428 17.0163 8.04393 17.0167 8.04389 17.0167L8.04195 17.0188C8.05295 17.0073 8.06855 17 8.08446 17H9.91637C9.93228 17 9.94735 17.0068 9.95835 17.0183C9.96125 17.0217 9.96836 17.0302 9.97854 17.0438C10.0015 17.0744 10.0394 17.13 10.0796 17.2104C10.1587 17.3687 10.2504 17.6296 10.2504 18C10.2504 18.6111 9.66591 19.25 9.00041 19.25C8.33491 19.25 7.75041 18.6111 7.75041 18C7.75041 17.6296 7.84209 17.3687 7.92123 17.2104C7.96142 17.13 7.9993 17.0744 8.02229 17.0438C8.03246 17.0302 8.03906 17.0222 8.04195 17.0188L8.03951 17.0214L8.03766 17.0233L8.03454 17.0265L8.03273 17.0283ZM2.15154 14.6637L3.3284 13.3691C4.03064 12.5967 4.49853 11.6403 4.6774 10.6118L5.79286 4.19786C6.06407 2.63842 7.41757 1.5 9.00041 1.5C10.5833 1.5 11.9368 2.63842 12.208 4.19786L13.3234 10.6118C13.5023 11.6403 13.9702 12.5967 14.6724 13.3691L15.8493 14.6637C16.1413 14.9849 15.9134 15.5 15.4793 15.5H2.52151C2.08744 15.5 1.85956 14.9849 2.15154 14.6637Z" fill="#4360DF"/>
</svg>
