<svg width="14" height="14" viewBox="0 0 14 14" fill="none" xmlns="http://www.w3.org/2000/svg">
<path d="M10.0829 4.61072C10.236 4.38096 10.1739 4.07052 9.94418 3.91735C9.71442 3.76417 9.40398 3.82626 9.2508 4.05602L5.58912 9.54856L4.02038 7.97982C3.82512 7.78456 3.50854 7.78456 3.31328 7.97982C3.11801 8.17508 3.11801 8.49167 3.31328 8.68693L5.31328 10.6869C5.4192 10.7929 5.56703 10.8457 5.7161 10.8309C5.86517 10.8162 5.99976 10.7354 6.08286 10.6107L10.0829 4.61072Z" fill="#4360DF"/>
<path fill-rule="evenodd" clip-rule="evenodd" d="M7.00016 13.6667C3.31826 13.6667 0.333496 10.6819 0.333496 7.00004C0.333496 3.31814 3.31826 0.333374 7.00016 0.333374C10.6821 0.333374 13.6668 3.31814 13.6668 7.00004C13.6668 10.6819 10.6821 13.6667 7.00016 13.6667ZM7.00016 12.6667C3.87055 12.6667 1.3335 10.1297 1.3335 7.00004C1.3335 3.87043 3.87055 1.33337 7.00016 1.33337C10.1298 1.33337 12.6668 3.87043 12.6668 7.00004C12.6668 10.1297 10.1298 12.6667 7.00016 12.6667Z" fill="#4360DF"/>
</svg>
