<svg xmlns="http://www.w3.org/2000/svg" width="24" height="24" fill="none" style=""><rect id="backgroundrect" width="100%" height="100%" x="0" y="0" fill="none" stroke="none"/>


<g class="currentLayer" style=""><title>Layer 1</title><path fill-rule="evenodd" clip-rule="evenodd" d="M9.981384403012125,8.34997267450389 L16.40271282511512,6.487633228553849 C16.880807862977278,6.348977392913064 17.322779601319095,6.797637159124946 17.186271553658027,7.282900419110423 L15.351461434863605,13.801062748129752 C15.110892934900093,14.656001996374176 14.452688393113727,15.324128334392729 13.610445146402693,15.568323171588805 L7.189078699773887,17.430791276567927 C6.711021686437542,17.569357050888357 6.269024598411853,17.12072301648229 6.405621369966476,16.635421158788088 L8.240304740341529,10.117297427477483 C8.480923939672788,9.262409642844693 9.13919185566884,8.594218975311597 9.981384403012125,8.34997267450389 zM10.503587890814902,10.205557521427172 L13.63452734608292,9.297585021395484 C14.112622383945073,9.15894205165761 14.554594122286892,9.607550354257858 14.417959326206454,10.09285221195206 L13.523495730715144,13.270987548315302 C13.46329023151458,13.484690195619137 13.298770783172833,13.651689615366505 13.088241658599916,13.712802654180063 L9.9573022033319,14.620749422405932 C9.479207165469745,14.759443855755443 9.037260776811802,14.310809821349375 9.173844873524487,13.825507963655175 L10.068333818699674,10.647372627291933 C10.128539317900238,10.433669979988098 10.293058766241986,10.26667056024073 10.503587890814902,10.205557521427172 z" fill="#939BA1" id="svg_1" class=""/><path fill-rule="evenodd" clip-rule="evenodd" d="M23.91836643218994,11.918367147445679 C23.91836643218994,18.500642955636977 18.564000922679902,23.836734294891357 11.95918321609497,23.836734294891357 C5.35430571359396,23.836734294891357 0,18.500642955636977 0,11.918367147445679 C0,5.336031747418642 5.35430571359396,0 11.95918321609497,0 C18.564000922679902,0 23.91836643218994,5.336031747418642 23.91836643218994,11.918367147445679 zM22.124488949775696,11.918367147445679 C22.124488949775696,17.51332542114258 17.573302185058594,22.048979222774506 11.95918321609497,22.048979222774506 C6.345040328764916,22.048979222774506 1.7938774824142456,17.51332542114258 1.7938774824142456,11.918367147445679 C1.7938774824142456,6.323385037014484 6.345040328764916,1.7877550721168518 11.95918321609497,1.7877550721168518 C17.573302185058594,1.7877550721168518 22.124488949775696,6.323385037014484 22.124488949775696,11.918367147445679 z" fill="#939BA1" id="svg_2" class=""/></g></svg>