<svg width="18" height="18" viewBox="0 0 18 18" fill="none" xmlns="http://www.w3.org/2000/svg">
<path d="M6.84181 7.47427L5.25291 12.241C5.14867 12.5537 5.44617 12.8512 5.75887 12.7469L10.5256 11.158C10.8242 11.0585 11.0585 10.8242 11.158 10.5256L12.7469 5.75887C12.8512 5.44617 12.5537 5.14867 12.241 5.25291L7.47427 6.84181C7.17566 6.94135 6.94135 7.17566 6.84181 7.47427Z" fill="#939BA1"/>
<path fill-rule="evenodd" clip-rule="evenodd" d="M18 9C18 13.9706 13.9706 18 9 18C4.02944 18 0 13.9706 0 9C0 4.02944 4.02944 0 9 0C13.9706 0 18 4.02944 18 9ZM16 9C16 12.866 12.866 16 9 16C5.13401 16 2 12.866 2 9C2 5.13401 5.13401 2 9 2C12.866 2 16 5.13401 16 9Z" fill="#939BA1"/>
</svg>
