<svg width="22" height="22" viewBox="0 0 22 22" fill="none" xmlns="http://www.w3.org/2000/svg">
<path fill-rule="evenodd" clip-rule="evenodd" d="M11 20.5C16.2467 20.5 20.5 16.2467 20.5 11C20.5 5.75329 16.2467 1.5 11 1.5C5.75329 1.5 1.5 5.75329 1.5 11C1.5 16.2467 5.75329 20.5 11 20.5ZM11 22C17.0751 22 22 17.0751 22 11C22 4.92487 17.0751 0 11 0C4.92487 0 0 4.92487 0 11C0 17.0751 4.92487 22 11 22Z" fill="#939BA1"/>
<path fill-rule="evenodd" clip-rule="evenodd" d="M6.24014 15.1491C6.1427 15.5194 6.48062 15.8573 6.85093 15.7599L13.6218 13.9781C13.7961 13.9322 13.9322 13.7961 13.9781 13.6218L15.7599 6.85093C15.8573 6.48062 15.5194 6.1427 15.1491 6.24014L8.37823 8.02194C8.20394 8.06781 8.06781 8.20394 8.02194 8.37823L6.24014 15.1491ZM8.25791 13.3756C8.19944 13.5978 8.4022 13.8006 8.62438 13.7421L12.3938 12.7501C12.5681 12.7043 12.7043 12.5681 12.7501 12.3938L13.7421 8.62438C13.8006 8.4022 13.5978 8.19944 13.3756 8.25791L9.60616 9.24988C9.43187 9.29574 9.29574 9.43187 9.24987 9.60617L8.25791 13.3756Z" fill="#939BA1"/>
</svg>
