<svg width="20" height="20" viewBox="0 0 20 20" fill="none" xmlns="http://www.w3.org/2000/svg">
<path d="M9.09383 13.3807C10.2449 13.6891 11.4157 13.3863 12.2617 12.6713C12.4724 12.4931 12.7863 12.471 12.9928 12.6541L13.3671 12.9861C13.5739 13.1694 13.5943 13.4877 13.3911 13.6749C12.8023 14.2172 12.0897 14.6125 11.3164 14.8243C11.1344 14.8742 10.9865 15.0114 10.9377 15.1936L10.6204 16.3779C10.5489 16.6447 10.2747 16.8029 10.008 16.7315L9.52504 16.6021C9.25831 16.5306 9.10002 16.2564 9.17149 15.9897L9.29443 15.5309C9.37357 15.2355 9.1705 14.9405 8.87263 14.8714C8.81694 14.8584 8.76126 14.8445 8.70561 14.8296C8.65006 14.8147 8.59498 14.799 8.54038 14.7823C8.24787 14.6933 7.92451 14.8473 7.84537 15.1426L7.72243 15.6014C7.65096 15.8682 7.37679 16.0265 7.11006 15.955L6.6271 15.8256C6.36036 15.7541 6.20207 15.4799 6.27354 15.2132L6.59082 14.0291C6.63966 13.8468 6.58014 13.654 6.44745 13.5199C5.23912 12.2981 4.69324 10.4855 5.17007 8.70589C5.64692 6.92625 7.02609 5.62935 8.68347 5.1755C8.86548 5.12566 9.01343 4.98846 9.06227 4.80618L9.37954 3.6221C9.45102 3.35537 9.72518 3.19708 9.99192 3.26855L10.4749 3.39796C10.7416 3.46943 10.8999 3.7436 10.8284 4.01033L10.7055 4.46923C10.6263 4.76457 10.8294 5.05959 11.1272 5.12872C11.1828 5.14161 11.2383 5.15549 11.2938 5.17036C11.3494 5.18525 11.4045 5.20101 11.4591 5.21764C11.7516 5.30671 12.0749 5.15274 12.1541 4.85739L12.277 4.39859C12.3485 4.13186 12.6226 3.97357 12.8894 4.04504L13.3723 4.17445C13.6391 4.24592 13.7974 4.52009 13.7259 4.78682L13.4086 5.97091C13.3598 6.15318 13.4193 6.34594 13.552 6.48011C14.1158 7.05022 14.5354 7.74901 14.7742 8.51307C14.8566 8.77679 14.6797 9.04229 14.409 9.09769L13.9189 9.19799C13.6485 9.25332 13.3877 9.07726 13.2943 8.81757C12.9191 7.77531 12.0566 6.92767 10.9056 6.61925C9.03844 6.11895 7.11926 7.22699 6.61896 9.09412C6.11866 10.9613 7.2267 12.8804 9.09383 13.3807Z" fill="#4360DF"/>
<path fill-rule="evenodd" clip-rule="evenodd" d="M20 10C20 15.5228 15.5228 20 10 20C4.47715 20 0 15.5228 0 10C0 4.47715 4.47715 0 10 0C15.5228 0 20 4.47715 20 10ZM18.5 10C18.5 14.6944 14.6944 18.5 10 18.5C5.30558 18.5 1.5 14.6944 1.5 10C1.5 5.30558 5.30558 1.5 10 1.5C14.6944 1.5 18.5 5.30558 18.5 10Z" fill="#4360DF"/>
</svg>
