<svg width="20" height="20" viewBox="0 0 20 20" fill="none" xmlns="http://www.w3.org/2000/svg">
<path d="M3.6 12.6001C3.26863 12.6001 3 12.8687 3 13.2001C3 13.5314 3.26863 13.8001 3.6 13.8001H10C10.3314 13.8001 10.6 13.5314 10.6 13.2001C10.6 12.8687 10.3314 12.6001 10 12.6001H3.6Z" fill="#4360DF"/>
<path d="M3 10.0001C3 9.6687 3.26863 9.40007 3.6 9.40007H13.2C13.5314 9.40007 13.8 9.6687 13.8 10.0001C13.8 10.3314 13.5314 10.6001 13.2 10.6001H3.6C3.26863 10.6001 3 10.3314 3 10.0001Z" fill="#4360DF"/>
<path d="M3 6.80007C3 6.4687 3.26863 6.20007 3.6 6.20007H16.4C16.7314 6.20007 17 6.4687 17 6.80007C17 7.13144 16.7314 7.40007 16.4 7.40007H3.6C3.26863 7.40007 3 7.13144 3 6.80007Z" fill="#4360DF"/>
</svg>
