<svg width="10" height="10" viewBox="0 0 10 10" fill="none" xmlns="http://www.w3.org/2000/svg">
<path fill-rule="evenodd" clip-rule="evenodd" d="M0.199951 1.00007C0.199951 0.558245 0.558123 0.200073 0.999951 0.200073H8.99995C9.44178 0.200073 9.79995 0.558245 9.79995 1.00007C9.79995 1.4419 9.44178 1.80007 8.99995 1.80007H0.999951C0.558123 1.80007 0.199951 1.4419 0.199951 1.00007ZM0.199951 5.00007C0.199951 4.55825 0.558123 4.20007 0.999951 4.20007H8.99995C9.44178 4.20007 9.79995 4.55825 9.79995 5.00007C9.79995 5.4419 9.44178 5.80007 8.99995 5.80007H0.999951C0.558123 5.80007 0.199951 5.4419 0.199951 5.00007ZM0.999951 8.20007C0.558123 8.20007 0.199951 8.55825 0.199951 9.00007C0.199951 9.4419 0.558123 9.80007 0.999951 9.80007H5.79995C6.24178 9.80007 6.59995 9.4419 6.59995 9.00007C6.59995 8.55825 6.24178 8.20007 5.79995 8.20007H0.999951Z" fill="#4360DF"/>
</svg>
