<svg width="14" height="12" viewBox="0 0 14 12" fill="none" xmlns="http://www.w3.org/2000/svg">
<path d="M1.96548 0.634326C1.65317 0.321924 1.14653 0.321924 0.834229 0.634326C0.521729 0.946826 0.521729 1.45327 0.834229 1.76577L5.06841 6.00005L0.834229 10.2343C0.521729 10.5468 0.521729 11.0533 0.834229 11.3658C1.14653 11.6782 1.65317 11.6782 1.96548 11.3658L6.76548 6.56577C7.07798 6.25327 7.07798 5.74683 6.76548 5.43433L1.96548 0.634326Z" fill="#4360DF"/>
<path d="M7.79985 10C7.35806 10 6.99985 10.3583 6.99985 10.8C6.99985 11.2418 7.35806 11.6 7.79985 11.6H12.5999C13.0416 11.6 13.3999 11.2418 13.3999 10.8C13.3999 10.3583 13.0416 10 12.5999 10H7.79985Z" fill="#4360DF"/>
</svg>
