<svg width="14" height="14" viewBox="0 0 14 14" fill="none" xmlns="http://www.w3.org/2000/svg">
<path d="M9.66683 7.83337C9.66683 7.55723 9.89237 7.33774 10.1647 7.29225C11.5846 7.05507 12.6668 5.8206 12.6668 4.33337C12.6668 2.67652 11.3237 1.33337 9.66683 1.33338L4.3335 1.33338C2.67664 1.33338 1.3335 2.67652 1.3335 4.33337C1.3335 5.8206 2.4157 7.05507 3.83559 7.29225C4.10796 7.33774 4.3335 7.55723 4.3335 7.83338C4.3335 8.10952 4.10852 8.33665 3.83449 8.30255C1.86085 8.05694 0.333496 6.37353 0.333496 4.33337C0.333496 2.12424 2.12436 0.333374 4.3335 0.333374L9.66683 0.333375C11.876 0.333375 13.6668 2.12424 13.6668 4.33337C13.6668 6.37353 12.1395 8.05694 10.1658 8.30255C9.89181 8.33665 9.66683 8.10952 9.66683 7.83337Z" fill="#4360DF"/>
<path d="M7.00016 3.83337C7.27631 3.83337 7.50016 4.05723 7.50016 4.33337V10.9882C7.50016 11.2852 7.85921 11.4339 8.0692 11.2239L9.31328 9.97982C9.50854 9.78456 9.82512 9.78456 10.0204 9.97982C10.2156 10.1751 10.2156 10.4917 10.0204 10.6869L7.35372 13.3536C7.15845 13.5489 6.84187 13.5489 6.64661 13.3536L3.97994 10.6869C3.78468 10.4917 3.78468 10.1751 3.97994 9.97982C4.1752 9.78456 4.49179 9.78456 4.68705 9.97982L5.93113 11.2239C6.14112 11.4339 6.50016 11.2852 6.50016 10.9882V4.33337C6.50016 4.05723 6.72402 3.83337 7.00016 3.83337Z" fill="#4360DF"/>
</svg>
