<svg width="40" height="40" viewBox="0 0 40 40" fill="none" xmlns="http://www.w3.org/2000/svg">
<rect width="40" height="40" rx="20" fill="#EEF2F5"/>
<path d="M19 12.5H15.6923C14.9828 12.5 14.8299 12.5062 14.7296 12.5246C14.1166 12.6369 13.6369 13.1166 13.5246 13.7296C13.5062 13.8299 13.5 13.9828 13.5 14.6923V16.25C13.5 16.6642 13.1642 17 12.75 17C12.3358 17 12 16.6642 12 16.25V14.6923C12 14.049 12 13.7274 12.0491 13.4592C12.2738 12.2332 13.2332 11.2738 14.4592 11.0491C14.7274 11 15.049 11 15.6923 11H19C23.9706 11 28 15.0294 28 20C28 24.9706 23.9706 29 19 29H15.6923C15.049 29 14.7274 29 14.4592 28.9509C13.2332 28.7262 12.2738 27.7668 12.0491 26.5408C12 26.2726 12 25.951 12 25.3077V23.75C12 23.3358 12.3358 23 12.75 23C13.1642 23 13.5 23.3358 13.5 23.75V25.3077C13.5 26.0172 13.5062 26.1701 13.5246 26.2704C13.6369 26.8834 14.1166 27.3631 14.7296 27.4754C14.8299 27.4938 14.9828 27.5 15.6923 27.5H19C23.1421 27.5 26.5 24.1421 26.5 20C26.5 15.8579 23.1421 12.5 19 12.5Z" fill="#939BA1"/>
<path d="M11 19.25C10.5858 19.25 10.25 19.5858 10.25 20C10.25 20.4142 10.5858 20.75 11 20.75H19C19.4142 20.75 19.75 20.4142 19.75 20C19.75 19.5858 19.4142 19.25 19 19.25H11Z" fill="#939BA1"/>
</svg>
