<svg width="12" height="12" viewBox="0 0 12 12" fill="none" xmlns="http://www.w3.org/2000/svg">
<path fill-rule="evenodd" clip-rule="evenodd" d="M6.7999 5.20002V1.2055C6.7999 0.759983 6.44173 0.400024 5.9999 0.400024C5.55499 0.400024 5.1999 0.760649 5.1999 1.2055V5.20002H1.20538C0.759861 5.20002 0.399902 5.5582 0.399902 6.00002C0.399902 6.44493 0.760526 6.80002 1.20538 6.80002H5.1999V10.7945C5.1999 11.2401 5.55807 11.6 5.9999 11.6C6.44481 11.6 6.7999 11.2394 6.7999 10.7945V6.80002H10.7944C11.2399 6.80002 11.5999 6.44185 11.5999 6.00002C11.5999 5.55512 11.2393 5.20002 10.7944 5.20002H6.7999Z" fill="#4360DF"/>
</svg>
