<svg width="20" height="20" viewBox="0 0 20 20" fill="none" xmlns="http://www.w3.org/2000/svg">
<path fill-rule="evenodd" clip-rule="evenodd" d="M16 1.49997H4C2.61929 1.49997 1.5 2.61926 1.5 3.99997V16C1.5 17.3807 2.61929 18.5 4 18.5H16C17.3807 18.5 18.5 17.3807 18.5 16V3.99997C18.5 2.61926 17.3807 1.49997 16 1.49997ZM4 -3.05176e-05C1.79086 -3.05176e-05 0 1.79083 0 3.99997V16C0 18.2091 1.79086 20 4 20H16C18.2091 20 20 18.2091 20 16V3.99997C20 1.79083 18.2091 -3.05176e-05 16 -3.05176e-05H4Z" fill="#4360DF"/>
<path d="M8.72261 11.4868V10.4133C8.72261 9.99525 8.38061 9.65325 7.96261 9.65325H6.22411C5.90111 9.65325 5.64461 9.90975 5.64461 10.2328C5.64461 10.5748 5.90111 10.8313 6.22411 10.8313H7.37361V11.5913C7.11711 11.8288 6.58511 12.0758 6.02461 12.0758C4.87511 12.0758 4.03911 11.1923 4.03911 9.99525C4.03911 8.79825 4.87511 7.91475 6.02461 7.91475C6.50911 7.91475 6.98411 8.12375 7.34511 8.47525C7.46861 8.59875 7.63961 8.66525 7.80111 8.66525C8.13361 8.66525 8.43761 8.38975 8.43761 8.05725C8.43761 7.91475 8.38061 7.76275 8.27611 7.64875C7.78211 7.11675 7.05061 6.71775 6.02461 6.71775C4.17211 6.71775 2.65211 7.99075 2.65211 9.99525C2.65211 11.9903 4.17211 13.2823 6.02461 13.2823C7.30711 13.2823 8.72261 12.6363 8.72261 11.4868Z" fill="#4360DF"/>
<path d="M11.4392 12.5602V7.43975C11.4392 7.07875 11.1352 6.77475 10.7742 6.77475C10.3942 6.77475 10.0902 7.07875 10.0902 7.43975V12.5602C10.0902 12.9212 10.3942 13.2252 10.7552 13.2252C11.1352 13.2252 11.4392 12.9212 11.4392 12.5602Z" fill="#4360DF"/>
<path d="M17.3479 7.43025C17.3479 7.09775 17.0819 6.83175 16.7684 6.83175H13.5669C13.1489 6.83175 12.8069 7.17375 12.8069 7.59175V12.5603C12.8069 12.9213 13.1109 13.2253 13.4719 13.2253C13.8519 13.2253 14.1559 12.9213 14.1559 12.5603V11.0463C14.1559 10.7701 14.3797 10.5463 14.6559 10.5463H16.2425C16.556 10.5463 16.822 10.2803 16.822 9.95725C16.822 9.62475 16.556 9.35876 16.2425 9.35876H14.6559C14.3797 9.35876 14.1559 9.1349 14.1559 8.85876V8.51925C14.1559 8.24311 14.3797 8.01925 14.6559 8.01925H16.7684C17.0819 8.01925 17.3479 7.75325 17.3479 7.43025Z" fill="#4360DF"/>
</svg>
