<svg width="20" height="20" viewBox="0 0 20 20" fill="none" xmlns="http://www.w3.org/2000/svg">
<path fill-rule="evenodd" clip-rule="evenodd" d="M11.8763 10.388C12.078 10.2861 12.3279 10.3392 12.4756 10.5103C13.0868 11.2184 13.991 11.6667 14.9999 11.6667C16.8409 11.6667 18.3333 10.1743 18.3333 8.33333C18.3333 6.49238 16.8409 5 14.9999 5C14.7551 5 14.5165 5.02639 14.2867 5.07647C14.066 5.12459 13.8342 5.01741 13.7336 4.81507C13.0519 3.44297 11.636 2.5 9.99996 2.5C8.36388 2.5 6.94804 3.44297 6.26628 4.81507C6.16574 5.01741 5.93394 5.1246 5.71318 5.07648C5.4834 5.02639 5.24476 5 4.99996 5C3.15901 5 1.66663 6.49238 1.66663 8.33333C1.66663 10.1743 3.15901 11.6667 4.99996 11.6667C6.00886 11.6667 6.91308 11.2184 7.52433 10.5103C7.67202 10.3392 7.9219 10.286 8.12365 10.388C8.68755 10.6729 9.32501 10.8333 9.99996 10.8333C10.6749 10.8333 11.3124 10.6729 11.8763 10.388ZM12.9166 6.66667C12.9166 8.2775 11.6108 9.58333 9.99996 9.58333C8.38913 9.58333 7.08329 8.2775 7.08329 6.66667C7.08329 5.05584 8.38913 3.75 9.99996 3.75C11.6108 3.75 12.9166 5.05584 12.9166 6.66667ZM13.3629 9.1272C13.26 9.26764 13.2373 9.45795 13.343 9.59635C13.7236 10.095 14.3242 10.4167 14.9999 10.4167C16.1505 10.4167 17.0833 9.48393 17.0833 8.33333C17.0833 7.18274 16.1505 6.25 14.9999 6.25C14.7859 6.25 14.5793 6.28229 14.3849 6.34226C14.2467 6.3849 14.1666 6.52203 14.1666 6.66667C14.1666 7.58703 13.8682 8.4377 13.3629 9.1272ZM5.61498 6.34227C5.42058 6.28229 5.21404 6.25 4.99996 6.25C3.84937 6.25 2.91663 7.18274 2.91663 8.33333C2.91663 9.48393 3.84937 10.4167 4.99996 10.4167C5.67569 10.4167 6.27629 10.095 6.65693 9.59634C6.76258 9.45794 6.73995 9.26763 6.63703 9.12719C6.13169 8.43769 5.83329 7.58703 5.83329 6.66667C5.83329 6.52204 5.75318 6.38491 5.61498 6.34227Z" fill="#4360DF"/>
<path d="M4.28941 17.5307C4.60911 17.6106 4.93283 17.4284 5.06964 17.1286C5.92321 15.2582 7.8098 13.9583 9.99999 13.9583C12.2237 13.9583 14.1344 15.2983 14.9687 17.2148C15.1074 17.5332 15.4565 17.7219 15.788 17.6183C16.1154 17.516 16.3018 17.1671 16.1717 16.8497C15.1765 14.4199 12.7881 12.7083 9.99999 12.7083C7.25333 12.7083 4.89462 14.3694 3.87357 16.7417C3.7302 17.0748 3.93758 17.4427 4.28941 17.5307Z" fill="#4360DF"/>
</svg>
