<svg width="20" height="20" viewBox="0 0 20 20" fill="none" xmlns="http://www.w3.org/2000/svg">
<path fill-rule="evenodd" clip-rule="evenodd" d="M9.16665 6.66668C9.16665 8.5076 7.67434 10 5.83332 10C3.9923 10 2.49999 8.5076 2.49999 6.66668C2.49999 4.82575 3.9923 3.33334 5.83332 3.33334C7.67434 3.33334 9.16665 4.82575 9.16665 6.66668ZM7.49999 6.66668C7.49999 7.58719 6.75373 8.33334 5.83332 8.33334C4.91291 8.33334 4.16665 7.58719 4.16665 6.66668C4.16665 5.74616 4.91291 5.00001 5.83332 5.00001C6.75373 5.00001 7.49999 5.74616 7.49999 6.66668Z" fill="#4360DF"/>
<path fill-rule="evenodd" clip-rule="evenodd" d="M17.5 9.16668C17.5 11.0076 16.0077 12.5 14.1667 12.5C12.3256 12.5 10.8333 11.0076 10.8333 9.16668C10.8333 7.32575 12.3256 5.83334 14.1667 5.83334C16.0077 5.83334 17.5 7.32575 17.5 9.16668ZM15.8333 9.16668C15.8333 10.0872 15.0871 10.8333 14.1667 10.8333C13.2462 10.8333 12.5 10.0872 12.5 9.16668C12.5 8.24616 13.2462 7.50001 14.1667 7.50001C15.0871 7.50001 15.8333 8.24616 15.8333 9.16668Z" fill="#4360DF"/>
<path d="M2.12665 14.1113L1.84447 13.8619C1.55577 13.6068 1.56432 13.1538 1.86258 12.9099L2.19644 12.6366C3.11929 12.024 4.22606 11.6671 5.41665 11.6667H6.24999C7.44119 11.6667 8.54877 12.0237 9.47203 12.6366L9.80589 12.9099C10.1042 13.1538 10.1127 13.6068 9.824 13.8619L9.54182 14.1113C9.33633 14.2929 9.03665 14.3194 8.80268 14.1767L8.33332 13.8907C7.72053 13.5363 7.00886 13.3333 6.24999 13.3333H5.41848C4.65961 13.3333 3.94794 13.5363 3.33515 13.8907L2.86579 14.1767C2.63182 14.3194 2.33214 14.2929 2.12665 14.1113Z" fill="#4360DF"/>
<path d="M10.0433 16.6113L9.76114 16.3619C9.47244 16.1068 9.48098 15.6538 9.77924 15.4099L10.1131 15.1366C11.0364 14.5237 12.1439 14.1667 13.3352 14.1667H15.0018C16.193 14.1667 17.3006 14.5237 18.2239 15.1366L18.5577 15.4099C18.856 15.6538 18.8645 16.1068 18.5758 16.3619L18.2936 16.6113C18.2607 16.6405 18.2251 16.6658 18.1879 16.6868C18.1557 16.705 18.1223 16.7202 18.0882 16.7323C18.0017 16.7628 17.9097 16.774 17.8188 16.7651C17.7272 16.7562 17.6367 16.7269 17.5545 16.6767L17.0851 16.3907C16.4724 16.0363 15.7607 15.8333 15.0018 15.8333H13.3352C12.5763 15.8333 11.8646 16.0363 11.2518 16.3907L10.7825 16.6767C10.5485 16.8194 10.2488 16.7929 10.0433 16.6113Z" fill="#4360DF"/>
</svg>
