<svg width="14" height="13" viewBox="0 0 14 13" fill="none" xmlns="http://www.w3.org/2000/svg">
<path fill-rule="evenodd" clip-rule="evenodd" d="M8.5012 6.31038C8.6626 6.22884 8.8625 6.27133 8.98065 6.40821C9.46966 6.97475 10.193 7.33333 11.0001 7.33333C12.4729 7.33333 13.6668 6.13943 13.6668 4.66667C13.6668 3.19391 12.4729 2 11.0001 2C10.8043 2 10.6134 2.02111 10.4296 2.06118C10.253 2.09968 10.0675 2.01392 9.98711 1.85205C9.4417 0.754375 8.30903 0 7.00016 0C5.6913 0 4.55862 0.754376 4.01322 1.85206C3.93279 2.01393 3.74735 2.09968 3.57074 2.06118C3.38691 2.02111 3.196 2 3.00016 2C1.5274 2 0.333496 3.19391 0.333496 4.66667C0.333496 6.13943 1.5274 7.33333 3.00016 7.33333C3.80729 7.33333 4.53066 6.97475 5.01966 6.40821C5.13781 6.27132 5.33772 6.22884 5.49911 6.31037C5.95024 6.53828 6.46021 6.66667 7.00016 6.66667C7.54012 6.66667 8.05008 6.53828 8.5012 6.31038ZM9.3335 3.33333C9.3335 4.622 8.28883 5.66667 7.00016 5.66667C5.7115 5.66667 4.66683 4.622 4.66683 3.33333C4.66683 2.04467 5.7115 1 7.00016 1C8.28883 1 9.3335 2.04467 9.3335 3.33333ZM9.6905 5.30176C9.60816 5.41411 9.59006 5.56636 9.67458 5.67708C9.97909 6.07597 10.4596 6.33333 11.0001 6.33333C11.9206 6.33333 12.6668 5.58714 12.6668 4.66667C12.6668 3.74619 11.9206 3 11.0001 3C10.8289 3 10.6637 3.02583 10.5082 3.07381C10.3976 3.10792 10.3335 3.21762 10.3335 3.33333C10.3335 4.06962 10.0948 4.75016 9.6905 5.30176ZM3.49218 3.07381C3.33666 3.02583 3.17143 3 3.00016 3C2.07969 3 1.3335 3.74619 1.3335 4.66667C1.3335 5.58714 2.07969 6.33333 3.00016 6.33333C3.54075 6.33333 4.02123 6.07596 4.32574 5.67707C4.41026 5.56635 4.39216 5.4141 4.30982 5.30175C3.90555 4.75015 3.66683 4.06962 3.66683 3.33333C3.66683 3.21763 3.60274 3.10793 3.49218 3.07381Z" fill="#4360DF"/>
<path d="M2.43173 12.0246C2.68748 12.0885 2.94646 11.9427 3.05591 11.7029C3.73877 10.2066 5.24803 9.16667 7.00019 9.16667C8.77912 9.16667 10.3077 10.2386 10.9752 11.7718C11.0861 12.0265 11.3654 12.1775 11.6306 12.0947C11.8925 12.0128 12.0416 11.7337 11.9376 11.4797C11.1414 9.53592 9.2307 8.16667 7.00019 8.16667C4.80286 8.16667 2.9159 9.49549 2.09905 11.3934C1.98436 11.6599 2.15026 11.9542 2.43173 12.0246Z" fill="#4360DF"/>
</svg>
