<svg width="20" height="20" viewBox="0 0 20 20" fill="none" xmlns="http://www.w3.org/2000/svg">
<path d="M7.25 8C7.25 7.58579 7.58579 7.25 8 7.25H10.5C10.9142 7.25 11.25 7.58579 11.25 8V15.5C11.25 15.9142 10.9142 16.25 10.5 16.25C10.0858 16.25 9.75 15.9142 9.75 15.5V8.75H8C7.58579 8.75 7.25 8.41421 7.25 8Z" fill="#4360DF"/>
<path d="M10 5.75C10.6904 5.75 11.25 5.19036 11.25 4.5C11.25 3.80964 10.6904 3.25 10 3.25C9.30964 3.25 8.75 3.80964 8.75 4.5C8.75 5.19036 9.30964 5.75 10 5.75Z" fill="#4360DF"/>
<path fill-rule="evenodd" clip-rule="evenodd" d="M0 10C0 15.5228 4.47715 20 10 20C15.5228 20 20 15.5228 20 10C20 4.47715 15.5228 0 10 0C4.47715 0 0 4.47715 0 10ZM1.5 10C1.5 14.6944 5.30558 18.5 10 18.5C14.6944 18.5 18.5 14.6944 18.5 10C18.5 5.30558 14.6944 1.5 10 1.5C5.30558 1.5 1.5 5.30558 1.5 10Z" fill="#4360DF"/>
</svg>
