<svg width="16" height="20" viewBox="0 0 16 20" fill="none" xmlns="http://www.w3.org/2000/svg">
<path d="M7.0157 14.1319C7.15033 14.2491 7.25 14.4092 7.25 14.5877V16C7.25 16.4142 7.58579 16.75 8 16.75C8.41421 16.75 8.75 16.4142 8.75 16V14.5877C8.75 14.4092 8.84967 14.2491 8.9843 14.1319C9.30027 13.8569 9.5 13.4518 9.5 13C9.5 12.1716 8.82843 11.5 8 11.5C7.17157 11.5 6.5 12.1716 6.5 13C6.5 13.4518 6.69973 13.8569 7.0157 14.1319Z" fill="#4360DF"/>
<path fill-rule="evenodd" clip-rule="evenodd" d="M3.50099 8.03082C3.77502 7.99672 4 7.77614 4 7.5V4C4 1.79086 5.79086 0 8 0C10.2091 0 12 1.79086 12 4V7.5C12 7.77614 12.225 7.99672 12.499 8.03082C14.4726 8.27643 16 9.95985 16 12V16C16 18.2091 14.2091 20 12 20H4C1.79086 20 0 18.2091 0 16V12C0 9.95985 1.52736 8.27643 3.50099 8.03082ZM1.5 12C1.5 10.6193 2.61929 9.5 4 9.5H12C13.3807 9.5 14.5 10.6193 14.5 12V16C14.5 17.3807 13.3807 18.5 12 18.5H4C2.61929 18.5 1.5 17.3807 1.5 16V12ZM6 8C5.72386 8 5.5 7.77614 5.5 7.5V4C5.5 2.61929 6.61929 1.5 8 1.5C9.38071 1.5 10.5 2.61929 10.5 4V7.5C10.5 7.77614 10.2761 8 10 8H6Z" fill="#4360DF"/>
</svg>
