<svg width="12" height="20" viewBox="0 0 12 20" fill="none" xmlns="http://www.w3.org/2000/svg">
<path d="M4.7977 15.9103C5.05303 15.9488 5.25 16.1628 5.25 16.421V19C5.25 19.4142 5.58579 19.75 6 19.75C6.41421 19.75 6.75 19.4142 6.75 19V16.4209C6.75 16.1627 6.94696 15.9487 7.20227 15.9102C8.67126 15.6888 10.0094 15.0679 11.1024 14.1617C11.4213 13.8974 11.4192 13.4194 11.1263 13.1265C10.8334 12.8336 10.3609 12.8376 10.0364 13.095C8.92766 13.9746 7.52509 14.5 5.99981 14.5C4.47453 14.5 3.07195 13.9746 1.96317 13.095C1.63867 12.8376 1.16618 12.8336 0.873283 13.1265C0.58039 13.4194 0.578337 13.8974 0.897218 14.1617C1.99034 15.068 3.32857 15.6889 4.7977 15.9103Z" fill="#939BA1"/>
<path fill-rule="evenodd" clip-rule="evenodd" d="M6 0C3.79086 0 2 1.79086 2 4V8C2 10.2091 3.79086 12 6 12C8.20914 12 10 10.2091 10 8V4C10 1.79086 8.20914 0 6 0ZM8.5 8V4C8.5 2.61929 7.38071 1.5 6 1.5C4.61929 1.5 3.5 2.61929 3.5 4V8C3.5 9.38071 4.61929 10.5 6 10.5C7.38071 10.5 8.5 9.38071 8.5 8Z" fill="#939BA1"/>
</svg>
