<svg width="22" height="22" viewBox="0 0 22 22" fill="none" xmlns="http://www.w3.org/2000/svg">
<path fill-rule="evenodd" clip-rule="evenodd" d="M14.75 8C14.75 10.0711 13.0711 11.75 11 11.75C8.92893 11.75 7.25 10.0711 7.25 8C7.25 5.92893 8.92893 4.25 11 4.25C13.0711 4.25 14.75 5.92893 14.75 8ZM13.25 8C13.25 9.24264 12.2426 10.25 11 10.25C9.75736 10.25 8.75 9.24264 8.75 8C8.75 6.75736 9.75736 5.75 11 5.75C12.2426 5.75 13.25 6.75736 13.25 8Z" fill="#4360DF"/>
<path fill-rule="evenodd" clip-rule="evenodd" d="M22 11C22 17.0751 17.0751 22 11 22C4.92487 22 0 17.0751 0 11C0 4.92487 4.92487 0 11 0C17.0751 0 22 4.92487 22 11ZM20.5 11C20.5 16.2467 16.2467 20.5 11 20.5C5.75329 20.5 1.5 16.2467 1.5 11C1.5 5.75329 5.75329 1.5 11 1.5C16.2467 1.5 20.5 5.75329 20.5 11Z" fill="#4360DF"/>
<path fill-rule="evenodd" clip-rule="evenodd" d="M5.99199 15.3857L5.98744 15.39C5.68505 15.6731 5.6694 16.1477 5.95248 16.4501C6.23544 16.7523 6.70978 16.7681 7.01218 16.4854L7.01129 16.4862L7.02005 16.4783C7.02921 16.4702 7.04496 16.4563 7.06705 16.4376C7.11126 16.4002 7.18068 16.3436 7.27353 16.274C7.45962 16.1346 7.73733 15.9451 8.09253 15.7549C8.80556 15.3731 9.80846 15 11 15C12.1915 15 13.1944 15.3731 13.9075 15.7549C14.2627 15.9451 14.5404 16.1346 14.7265 16.274C14.8193 16.3436 14.8887 16.4002 14.933 16.4376C14.955 16.4563 14.9708 16.4702 14.98 16.4783L14.9887 16.4862C15.2911 16.7685 15.7647 16.7522 16.0475 16.4501C16.3306 16.1477 16.3149 15.6731 16.0126 15.39L16.0117 15.3892L16.0106 15.3882L16.008 15.3857L16.0008 15.3791L15.9782 15.3588C15.9597 15.3422 15.9341 15.3198 15.9016 15.2923C15.8367 15.2374 15.7442 15.1623 15.6259 15.0736C15.3897 14.8967 15.0482 14.6642 14.6156 14.4326C13.753 13.9707 12.5059 13.5 11 13.5C9.49414 13.5 8.24704 13.9707 7.38442 14.4326C6.95179 14.6642 6.61027 14.8967 6.37408 15.0736C6.25578 15.1623 6.1633 15.2374 6.0984 15.2923C6.06593 15.3198 6.04031 15.3422 6.02176 15.3588L5.99924 15.3791L5.99199 15.3857L5.98937 15.3882L5.98832 15.3892L5.99199 15.3857Z" fill="#4360DF"/>
</svg>
