<svg width="18" height="18" viewBox="0 0 18 18" fill="none" xmlns="http://www.w3.org/2000/svg">
<path fill-rule="evenodd" clip-rule="evenodd" d="M4.83329 0.666656C2.53211 0.666656 0.666626 2.53214 0.666626 4.83332V13.1667C0.666626 13.4823 0.844961 13.7709 1.12728 13.912C1.4096 14.0532 1.74744 14.0227 1.99996 13.8333L4.66663 11.8333C4.95512 11.617 5.30601 11.5 5.66663 11.5H7.33329C7.33329 13.3409 8.82568 14.8333 10.6666 14.8333H12.8888L16 17.1667C16.2525 17.356 16.5903 17.3865 16.8726 17.2453C17.155 17.1042 17.3333 16.8156 17.3333 16.5V9.83332C17.3333 7.99237 15.8409 6.49999 14 6.49999V4.83332C14 2.53214 12.1345 0.666656 9.83329 0.666656H4.83329ZM12.3333 7.33332V4.83332C12.3333 3.45261 11.214 2.33332 9.83329 2.33332H4.83329C3.45258 2.33332 2.33329 3.45261 2.33329 4.83332V11.0833C2.33329 11.255 2.52929 11.353 2.66663 11.25L3.66663 10.5C4.24361 10.0672 4.94539 9.83332 5.66663 9.83332H9.83329C11.214 9.83332 12.3333 8.71404 12.3333 7.33332ZM8.99996 11.5H9.83329C11.8491 11.5 13.5306 10.0685 13.9166 8.16666H14C14.9204 8.16666 15.6666 8.91285 15.6666 9.83332V14.4167C15.6666 14.5883 15.4706 14.6863 15.3333 14.5833L13.6666 13.3333C13.5224 13.2251 13.3469 13.1667 13.1666 13.1667H10.6666C9.74615 13.1667 8.99996 12.4205 8.99996 11.5Z" fill="white"/>
</svg>
