<svg width="20" height="20" viewBox="0 0 20 20" fill="none" xmlns="http://www.w3.org/2000/svg">
<path fill-rule="evenodd" clip-rule="evenodd" d="M5.83317 1.66667C3.53198 1.66667 1.6665 3.53215 1.6665 5.83334V14.1667C1.6665 14.4823 1.84484 14.7709 2.12716 14.912C2.40948 15.0532 2.74732 15.0227 2.99984 14.8333L5.6665 12.8333C5.955 12.617 6.30589 12.5 6.6665 12.5H8.33317C8.33317 14.341 9.82555 15.8333 11.6665 15.8333H13.8887L16.9998 18.1667C17.2524 18.3561 17.5902 18.3865 17.8725 18.2454C18.1548 18.1042 18.3332 17.8156 18.3332 17.5V10.8333C18.3332 8.99239 16.8408 7.50001 14.9998 7.50001V5.83334C14.9998 3.53215 13.1344 1.66667 10.8332 1.66667H5.83317ZM13.3332 8.33334V5.83334C13.3332 4.45263 12.2139 3.33334 10.8332 3.33334H5.83317C4.45246 3.33334 3.33317 4.45263 3.33317 5.83334V12.0833C3.33317 12.255 3.52916 12.353 3.6665 12.25L4.6665 11.5C5.24349 11.0673 5.94527 10.8333 6.6665 10.8333H10.8332C12.2139 10.8333 13.3332 9.71405 13.3332 8.33334ZM9.99984 12.5H10.8332C12.849 12.5 14.5304 11.0685 14.9165 9.16667H14.9998C15.9203 9.16667 16.6665 9.91286 16.6665 10.8333V15.4167C16.6665 15.5883 16.4705 15.6863 16.3332 15.5833L14.6665 14.3333C14.5223 14.2252 14.3468 14.1667 14.1665 14.1667H11.6665C10.746 14.1667 9.99984 13.4205 9.99984 12.5Z" fill="#4360DF"/>
</svg>
