<svg width="16" height="16" viewBox="0 0 16 16" fill="none" xmlns="http://www.w3.org/2000/svg">
<path d="M2.10144 13.5959L2.79885 10.8062C2.83108 10.6773 2.87171 10.5512 2.92034 10.4285C2.9822 10.2724 3.18194 10.2423 3.30066 10.361L5.63945 12.6998C5.75817 12.8185 5.72809 13.0183 5.572 13.0801C5.44932 13.1288 5.32315 13.1694 5.19424 13.2016L2.40461 13.899C2.22152 13.9448 2.05567 13.779 2.10144 13.5959Z" fill="white"/>
<path d="M6.32361 11.2627C6.71413 11.6532 7.3473 11.6532 7.73782 11.2627L14.2933 4.7072C14.6838 4.31668 14.6838 3.68351 14.2933 3.29299L12.7075 1.7072C12.317 1.31668 11.6838 1.31668 11.2933 1.7072L4.73782 8.26266C4.3473 8.65318 4.3473 9.28635 4.73782 9.67687L6.32361 11.2627Z" fill="white"/>
</svg>
