<svg width="14" height="20" viewBox="0 0 14 20" fill="none" xmlns="http://www.w3.org/2000/svg">
<path d="M7 16.5C7.82843 16.5 8.5 15.8284 8.5 15C8.5 14.1716 7.82843 13.5 7 13.5C6.17157 13.5 5.5 14.1716 5.5 15C5.5 15.8284 6.17157 16.5 7 16.5Z" fill="#4360DF"/>
<path fill-rule="evenodd" clip-rule="evenodd" d="M0 4C0 1.79086 1.79086 0 4 0H10C12.2091 0 14 1.79086 14 4V16C14 18.2091 12.2091 20 10 20H4C1.79086 20 0 18.2091 0 16V4ZM1.5 4C1.5 2.61929 2.61929 1.5 4 1.5H10C11.3807 1.5 12.5 2.61929 12.5 4V16C12.5 17.3807 11.3807 18.5 10 18.5H4C2.61929 18.5 1.5 17.3807 1.5 16V4Z" fill="#4360DF"/>
</svg>
