<svg width="24" height="24" viewBox="0 0 24 24" fill="none" xmlns="http://www.w3.org/2000/svg">
<path fill-rule="evenodd" clip-rule="evenodd" d="M17 8.00003C17 10.7615 14.7614 13 12 13C9.23858 13 7 10.7615 7 8.00003C7 5.23861 9.23858 3.00003 12 3.00003C14.7614 3.00003 17 5.23861 17 8.00003ZM15.5 8.00003C15.5 9.93303 13.933 11.5 12 11.5C10.067 11.5 8.5 9.93303 8.5 8.00003C8.5 6.06703 10.067 4.50003 12 4.50003C13.933 4.50003 15.5 6.06703 15.5 8.00003Z" fill="#939BA1"/>
<path d="M18.3835 20.3874C18.686 20.7312 19.222 20.7779 19.5458 20.4541C19.8065 20.1934 19.8379 19.7785 19.598 19.4984C17.764 17.357 15.0404 16 11.9998 16C8.95932 16 6.23574 17.357 4.40167 19.4984C4.16181 19.7784 4.19319 20.1933 4.45392 20.4541C4.77772 20.7779 5.31374 20.7312 5.61624 20.3874C7.17395 18.6171 9.45645 17.5 11.9998 17.5C14.5433 17.5 16.8258 18.6171 18.3835 20.3874Z" fill="#939BA1"/>
</svg>
