<svg width="16" height="16" viewBox="0 0 16 16" fill="none" xmlns="http://www.w3.org/2000/svg">
<path fill-rule="evenodd" clip-rule="evenodd" d="M11.3334 5.33333C11.3334 7.17428 9.84103 8.66667 8.00008 8.66667C6.15913 8.66667 4.66675 7.17428 4.66675 5.33333C4.66675 3.49238 6.15913 2 8.00008 2C9.84103 2 11.3334 3.49238 11.3334 5.33333ZM10.3334 5.33333C10.3334 6.622 9.28875 7.66667 8.00008 7.66667C6.71142 7.66667 5.66675 6.622 5.66675 5.33333C5.66675 4.04467 6.71142 3 8.00008 3C9.28875 3 10.3334 4.04467 10.3334 5.33333Z" fill="#4360DF"/>
<path d="M12.2557 13.5916C12.4574 13.8208 12.8147 13.8519 13.0306 13.6361C13.2044 13.4622 13.2254 13.1856 13.0654 12.9989C11.8427 11.5713 10.027 10.6667 7.99998 10.6667C5.97296 10.6667 4.15724 11.5713 2.93453 12.9989C2.77462 13.1856 2.79554 13.4622 2.96936 13.636C3.18523 13.8519 3.54257 13.8208 3.74424 13.5916C4.78272 12.4114 6.30438 11.6667 7.99998 11.6667C9.69559 11.6667 11.2173 12.4114 12.2557 13.5916Z" fill="#4360DF"/>
</svg>
