<svg width="20" height="20" viewBox="0 0 20 20" fill="none" xmlns="http://www.w3.org/2000/svg">
<path fill-rule="evenodd" clip-rule="evenodd" d="M14.7953 3.87842C16.1369 3.45921 17.5 4.4614 17.5 5.86694V13.2998C17.5 14.7053 16.1369 15.7075 14.7953 15.2883L10.6085 13.9799L9.42423 16.3484C9.07125 17.0542 8.34981 17.5 7.56083 17.5H6.10799C4.59269 17.5 3.58439 15.934 4.21143 14.5546L5.2358 12.301L4.25435 11.9943C3.21065 11.6681 2.5 10.7015 2.5 9.60809V9.55865C2.5 8.46521 3.21065 7.49862 4.25435 7.17248L14.7953 3.87842ZM15.8333 5.86694C15.8333 5.58587 15.5607 5.38537 15.2924 5.4692L14.1667 5.82096V13.3458L15.2924 13.6975C15.5607 13.7814 15.8333 13.5809 15.8333 13.2998V5.86694ZM4.75138 8.76326L12.5 6.3418V12.825L4.75138 10.4035C4.40348 10.2947 4.16667 9.97257 4.16667 9.60809V9.55865C4.16667 9.19417 4.40348 8.87201 4.75138 8.76326ZM6.83879 12.8019L5.72856 15.2443C5.60323 15.5202 5.80485 15.8334 6.10799 15.8334H7.56083C7.71871 15.8334 7.86296 15.7442 7.93355 15.6031L8.99679 13.4763L6.83879 12.8019Z" fill="#4360DF"/>
</svg>
