<svg width="22" height="22" viewBox="0 0 22 22" fill="none" xmlns="http://www.w3.org/2000/svg">
<path fill-rule="evenodd" clip-rule="evenodd" d="M3.66659 1.83325C2.65406 1.83325 1.83325 2.65406 1.83325 3.66659V8.24992C1.83325 9.26244 2.65406 10.0833 3.66659 10.0833H8.24992C9.26244 10.0833 10.0833 9.26244 10.0833 8.24992V3.66659C10.0833 2.65406 9.26244 1.83325 8.24992 1.83325H3.66659ZM8.24992 3.20825H3.66659C3.41345 3.20825 3.20825 3.41345 3.20825 3.66659V8.24992C3.20825 8.50305 3.41345 8.70825 3.66659 8.70825H8.24992C8.50305 8.70825 8.70825 8.50305 8.70825 8.24992V3.66659C8.70825 3.41345 8.50305 3.20825 8.24992 3.20825Z" fill="black"/>
<path d="M5.95825 14.6666C5.19886 14.6666 4.58325 15.2822 4.58325 16.0416C4.58325 16.801 5.19886 17.4166 5.95825 17.4166C6.71764 17.4166 7.33325 16.801 7.33325 16.0416C7.33325 15.2822 6.71764 14.6666 5.95825 14.6666Z" fill="black"/>
<path fill-rule="evenodd" clip-rule="evenodd" d="M5.95825 11.9166C3.68008 11.9166 1.83325 13.7634 1.83325 16.0416C1.83325 18.3198 3.68008 20.1666 5.95825 20.1666C8.23643 20.1666 10.0833 18.3198 10.0833 16.0416C10.0833 13.7634 8.23643 11.9166 5.95825 11.9166ZM3.20825 16.0416C3.20825 17.5604 4.43947 18.7916 5.95825 18.7916C7.47704 18.7916 8.70825 17.5604 8.70825 16.0416C8.70825 14.5228 7.47704 13.2916 5.95825 13.2916C4.43947 13.2916 3.20825 14.5228 3.20825 16.0416Z" fill="black"/>
<path d="M12.8333 11.9166C12.327 11.9166 11.9166 12.327 11.9166 12.8333V14.2083C11.9166 14.7145 12.327 15.1249 12.8333 15.1249H14.2083C14.7145 15.1249 15.1249 14.7145 15.1249 14.2083V12.8333C15.1249 12.327 14.7145 11.9166 14.2083 11.9166H12.8333Z" fill="black"/>
<path d="M16.9583 12.8333C16.9583 12.327 17.3687 11.9166 17.8749 11.9166H19.2499C19.7562 11.9166 20.1666 12.327 20.1666 12.8333V14.2083C20.1666 14.7145 19.7562 15.1249 19.2499 15.1249H17.8749C17.3687 15.1249 16.9583 14.7145 16.9583 14.2083V12.8333Z" fill="black"/>
<path d="M17.8749 16.9583C17.3687 16.9583 16.9583 17.3687 16.9583 17.8749V19.2499C16.9583 19.7562 17.3687 20.1666 17.8749 20.1666H19.2499C19.7562 20.1666 20.1666 19.7562 20.1666 19.2499V17.8749C20.1666 17.3687 19.7562 16.9583 19.2499 16.9583H17.8749Z" fill="black"/>
<path d="M11.9166 17.8749C11.9166 17.3687 12.327 16.9583 12.8333 16.9583H14.2083C14.7145 16.9583 15.1249 17.3687 15.1249 17.8749V19.2499C15.1249 19.7562 14.7145 20.1666 14.2083 20.1666H12.8333C12.327 20.1666 11.9166 19.7562 11.9166 19.2499V17.8749Z" fill="black"/>
<path d="M14.6666 5.49992C14.6666 4.99366 15.077 4.58325 15.5833 4.58325H16.4999C17.0062 4.58325 17.4166 4.99366 17.4166 5.49992V6.41659C17.4166 6.92285 17.0062 7.33325 16.4999 7.33325H15.5833C15.077 7.33325 14.6666 6.92285 14.6666 6.41659V5.49992Z" fill="black"/>
<path fill-rule="evenodd" clip-rule="evenodd" d="M11.9166 3.66659C11.9166 2.65406 12.7374 1.83325 13.7499 1.83325H18.3333C19.3458 1.83325 20.1666 2.65406 20.1666 3.66659V8.24992C20.1666 9.26244 19.3458 10.0833 18.3333 10.0833H13.7499C12.7374 10.0833 11.9166 9.26244 11.9166 8.24992V3.66659ZM13.7499 3.20825H18.3333C18.5864 3.20825 18.7916 3.41345 18.7916 3.66659V8.24992C18.7916 8.50305 18.5864 8.70825 18.3333 8.70825H13.7499C13.4968 8.70825 13.2916 8.50305 13.2916 8.24992V3.66659C13.2916 3.41345 13.4968 3.20825 13.7499 3.20825Z" fill="black"/>
</svg>
