<svg width="20" height="20" viewBox="0 0 20 20" fill="none" xmlns="http://www.w3.org/2000/svg">
<path d="M6.25 7C6.25 4.92579 7.92579 3.25 10 3.25C12.0742 3.25 13.75 4.92579 13.75 7C13.75 7.7486 13.3603 8.37716 12.9449 8.84255C12.5214 9.3171 11.9927 9.71085 11.5401 10.0028C11.0428 10.3237 10.75 10.8155 10.75 11.2971V12C10.75 12.4142 10.4142 12.75 10 12.75C9.58579 12.75 9.25 12.4142 9.25 12V11.2971C9.25 10.2007 9.89813 9.27715 10.7269 8.74244C11.124 8.48621 11.5285 8.17685 11.8258 7.84374C12.1313 7.50148 12.25 7.21784 12.25 7C12.25 5.75421 11.2458 4.75 10 4.75C8.75421 4.75 7.75 5.75421 7.75 7C7.75 7.41421 7.41421 7.75 7 7.75C6.58579 7.75 6.25 7.41421 6.25 7Z" fill="#4360DF"/>
<path d="M10 16.75C10.6904 16.75 11.25 16.1904 11.25 15.5C11.25 14.8096 10.6904 14.25 10 14.25C9.30964 14.25 8.75 14.8096 8.75 15.5C8.75 16.1904 9.30964 16.75 10 16.75Z" fill="#4360DF"/>
<path fill-rule="evenodd" clip-rule="evenodd" d="M0 10C0 15.5228 4.47715 20 10 20C15.5228 20 20 15.5228 20 10C20 4.47715 15.5228 0 10 0C4.47715 0 0 4.47715 0 10ZM1.5 10C1.5 14.6944 5.30558 18.5 10 18.5C14.6944 18.5 18.5 14.6944 18.5 10C18.5 5.30558 14.6944 1.5 10 1.5C5.30558 1.5 1.5 5.30558 1.5 10Z" fill="#4360DF"/>
</svg>
