<svg width="16" height="20" viewBox="0 0 16 20" fill="none" xmlns="http://www.w3.org/2000/svg">
<path d="M8 4.25C12.2802 4.25 15.75 7.71979 15.75 12C15.75 16.2802 12.2802 19.75 8 19.75C3.71979 19.75 0.25 16.2802 0.25 12C0.25 11.5858 0.585787 11.25 1 11.25C1.41421 11.25 1.75 11.5858 1.75 12C1.75 15.4518 4.54822 18.25 8 18.25C11.4518 18.25 14.25 15.4518 14.25 12C14.25 8.54822 11.4518 5.75 8 5.75H7.01777C6.57232 5.75 6.34923 6.28857 6.66421 6.60355L8.53033 8.46967C8.82322 8.76256 8.82322 9.23744 8.53033 9.53033C8.23744 9.82322 7.76256 9.82322 7.46967 9.53033L3.46967 5.53033C3.17678 5.23744 3.17678 4.76256 3.46967 4.46967L7.46967 0.469669C7.76256 0.176777 8.23744 0.176777 8.53033 0.469669C8.82322 0.762564 8.82322 1.23744 8.53033 1.53033L6.66421 3.39645C6.34923 3.71143 6.57232 4.25 7.01777 4.25H8Z" fill="black"/>
</svg>
