<svg width="16" height="18" viewBox="0 0 16 18" fill="none" xmlns="http://www.w3.org/2000/svg">
<path fill-rule="evenodd" clip-rule="evenodd" d="M7.61923 15.1568L1.00164 17.8817C0.45399 18.1072 -0.0905163 17.553 0.144557 17.0094L7.30153 0.458929C7.42199 0.180353 7.69648 0 7.99998 0C8.30349 0 8.57797 0.180354 8.69844 0.458929L15.8554 17.0094C16.0905 17.553 15.546 18.1072 14.9983 17.8817L8.38073 15.1568C8.13683 15.0563 7.86313 15.0564 7.61923 15.1568ZM7.24998 13.4818C7.24998 13.6096 7.16631 13.7211 7.04811 13.7698L3.47933 15.2393C3.06444 15.4101 2.65194 14.9903 2.83002 14.5785L6.77052 5.46607C6.87825 5.21695 7.24998 5.29388 7.24998 5.5653V13.4818ZM8.74998 13.4818C8.74998 13.6096 8.83366 13.7211 8.95186 13.7698L12.5206 15.2393C12.9355 15.4101 13.348 14.9903 13.1699 14.5785L9.22945 5.46607C9.12172 5.21695 8.74998 5.29388 8.74998 5.5653V13.4818Z" fill="#4360DF"/>
</svg>
