<svg width="20" height="18" viewBox="0 0 20 18" fill="none" xmlns="http://www.w3.org/2000/svg">
<path fill-rule="evenodd" clip-rule="evenodd" d="M8.30767 16.25C8.15286 16.25 8.00809 16.3229 7.9069 16.44C7.08172 17.3954 5.86147 18 4.5 18C2.01472 18 0 15.9853 0 13.5C0 11.0147 2.01472 9 4.5 9C5.86147 9 7.08172 9.60461 7.9069 10.56C8.00809 10.6771 8.15286 10.75 8.30767 10.75H17C18.5188 10.75 19.75 11.9812 19.75 13.5C19.75 15.0188 18.5188 16.25 17 16.25H8.30767ZM7.5 13.5C7.5 15.1569 6.15685 16.5 4.5 16.5C2.84315 16.5 1.5 15.1569 1.5 13.5C1.5 11.8431 2.84315 10.5 4.5 10.5C6.15685 10.5 7.5 11.8431 7.5 13.5ZM9.4888 14.75C9.15606 14.75 8.91639 14.4299 8.96034 14.1C8.9865 13.9038 9 13.7035 9 13.5C9 13.2965 8.9865 13.0962 8.96034 12.9C8.91639 12.5701 9.15606 12.25 9.4888 12.25H17C17.6904 12.25 18.25 12.8096 18.25 13.5C18.25 14.1904 17.6904 14.75 17 14.75H9.4888Z" fill="#4360DF"/>
<path fill-rule="evenodd" clip-rule="evenodd" d="M20 4.5C20 6.98528 17.9853 9 15.5 9C14.1385 9 12.9183 8.39539 12.0931 7.44002C11.9919 7.32286 11.8471 7.25 11.6923 7.25H3C1.48122 7.25 0.25 6.01878 0.25 4.5C0.25 2.98122 1.48122 1.75 3 1.75H11.6923C11.8471 1.75 11.9919 1.67714 12.0931 1.55998C12.9183 0.604614 14.1385 0 15.5 0C17.9853 0 20 2.01472 20 4.5ZM18.5 4.5C18.5 6.15685 17.1569 7.5 15.5 7.5C13.8431 7.5 12.5 6.15685 12.5 4.5C12.5 2.84315 13.8431 1.5 15.5 1.5C17.1569 1.5 18.5 2.84315 18.5 4.5ZM10.5112 3.25C10.8439 3.25 11.0836 3.57013 11.0397 3.89995C11.0135 4.09625 11 4.29655 11 4.5C11 4.70345 11.0135 4.90375 11.0397 5.10005C11.0836 5.42987 10.8439 5.75 10.5112 5.75H3C2.30964 5.75 1.75 5.19036 1.75 4.5C1.75 3.80964 2.30964 3.25 3 3.25H10.5112Z" fill="#4360DF"/>
</svg>
