<svg fill="none" height="41" viewBox="0 0 39 41" width="39" xmlns="http://www.w3.org/2000/svg"><path d="m19.402 40.4286c10.655 0 19.2926-8.869 19.2926-19.8095s-8.6376-19.80953-19.2926-19.80953c-10.65504 0-19.292625 8.86903-19.292625 19.80953s8.637585 19.8095 19.292625 19.8095z" fill="#4360df"/><g clip-rule="evenodd" fill="#fff" fill-rule="evenodd"><path d="m16.1669 21.464c-3.0002.1732-4.8181 1.773-4.6898 4.164.1316 2.4326 2.5502 3.9272 4.9699 3.7909 3.9373-.231 6.8419-3.8232 7.1692-7.933-.5359.128-1.0817.208-1.6311.2391-2.215.1282-3.6032-.3893-5.8182-.261z"/><path d="m22.6544 20.4367c3.133-.1849 5.0296-1.8944 4.8957-4.4494-.1372-2.5989-2.6615-4.201-5.187-4.0508-4.1161.2437-7.1433 4.0855-7.4842 8.4771.5588-.1372 1.1284-.2227 1.702-.2553 2.3129-.1375 3.7641.4158 6.0735.2784z"/></g></svg>