<svg width="20" height="20" viewBox="0 0 20 20" fill="none" xmlns="http://www.w3.org/2000/svg">
<path d="M10 16.25C10.4142 16.25 10.75 16.5858 10.75 17V19C10.75 19.4142 10.4142 19.75 10 19.75C9.58579 19.75 9.25 19.4142 9.25 19V17C9.25 16.5858 9.58579 16.25 10 16.25Z" fill="#4360DF"/>
<path d="M0.25 10C0.25 9.58579 0.585786 9.25 1 9.25H3C3.41421 9.25 3.75 9.58579 3.75 10C3.75 10.4142 3.41421 10.75 3 10.75H1C0.585786 10.75 0.25 10.4142 0.25 10Z" fill="#4360DF"/>
<path d="M16.25 10C16.25 9.58579 16.5858 9.25 17 9.25H19C19.4142 9.25 19.75 9.58579 19.75 10C19.75 10.4142 19.4142 10.75 19 10.75H17C16.5858 10.75 16.25 10.4142 16.25 10Z" fill="#4360DF"/>
<path d="M10.75 1C10.75 0.585787 10.4142 0.25 10 0.25C9.58579 0.25 9.25 0.585787 9.25 1V3C9.25 3.41421 9.58579 3.75 10 3.75C10.4142 3.75 10.75 3.41421 10.75 3V1Z" fill="#4360DF"/>
<path d="M4.16656 3.10566C3.87367 2.81276 3.39879 2.81276 3.1059 3.10566C2.81301 3.39855 2.81301 3.87342 3.1059 4.16632L4.52011 5.58053C4.81301 5.87342 5.28788 5.87342 5.58077 5.58053C5.87367 5.28764 5.87367 4.81276 5.58077 4.51987L4.16656 3.10566Z" fill="#4360DF"/>
<path d="M14.4194 14.4194C14.7123 14.1265 15.1871 14.1265 15.48 14.4194L16.8943 15.8336C17.1871 16.1265 17.1871 16.6014 16.8943 16.8943C16.6014 17.1871 16.1265 17.1871 15.8336 16.8943L14.4194 15.48C14.1265 15.1871 14.1265 14.7123 14.4194 14.4194Z" fill="#4360DF"/>
<path d="M16.8941 4.16632C17.187 3.87342 17.187 3.39855 16.8941 3.10566C16.6012 2.81276 16.1263 2.81276 15.8334 3.10566L14.4192 4.51987C14.1263 4.81276 14.1263 5.28764 14.4192 5.58053C14.7121 5.87342 15.187 5.87342 15.4799 5.58053L16.8941 4.16632Z" fill="#4360DF"/>
<path d="M5.58062 14.4194C5.87352 14.7123 5.87352 15.1871 5.58062 15.48L4.16641 16.8943C3.87352 17.1871 3.39864 17.1871 3.10575 16.8943C2.81286 16.6014 2.81286 16.1265 3.10575 15.8336L4.51996 14.4194C4.81286 14.1265 5.28773 14.1265 5.58062 14.4194Z" fill="#4360DF"/>
<path fill-rule="evenodd" clip-rule="evenodd" d="M10 6.25C7.92893 6.25 6.25 7.92893 6.25 10C6.25 12.0711 7.92893 13.75 10 13.75C12.0711 13.75 13.75 12.0711 13.75 10C13.75 7.92893 12.0711 6.25 10 6.25ZM7.75 10C7.75 8.75736 8.75736 7.75 10 7.75C11.2426 7.75 12.25 8.75736 12.25 10C12.25 11.2426 11.2426 12.25 10 12.25C8.75736 12.25 7.75 11.2426 7.75 10Z" fill="#4360DF"/>
</svg>
