<svg width="28" height="40" viewBox="0 0 28 40" fill="none" xmlns="http://www.w3.org/2000/svg">
<circle cx="14" cy="20" r="14" fill="#4EBC60"/>
<path d="M6.05322 22.4878C6.05322 25.0732 7.7085 27.1899 9.83252 27.1899H12.2422C13.231 27.6953 14.4028 27.9883 15.6919 27.9883H16.7173C17.6694 27.9883 18.4824 27.9297 19.0098 27.7979C20.0864 27.5269 20.7676 26.7651 20.7676 25.8057C20.7676 25.6299 20.7456 25.4761 20.6943 25.3149C21.1997 24.9268 21.4854 24.3481 21.4854 23.7183C21.4854 23.4253 21.4268 23.1396 21.3242 22.8979C21.6611 22.5391 21.8589 22.0264 21.8589 21.4917C21.8589 21.1328 21.771 20.7812 21.6245 20.5029C21.8296 20.188 21.9468 19.7705 21.9468 19.3164C21.9468 18.1445 21.0532 17.2437 19.896 17.2437H17.1714C17.0176 17.2437 16.915 17.1704 16.9224 17.0312C16.959 16.2695 18.1455 14.4604 18.1455 12.9736C18.1455 11.8823 17.3765 11.084 16.3145 11.084C15.5454 11.084 15.0181 11.4868 14.5127 12.4463C13.6045 14.2041 12.4985 15.7422 10.8652 17.749H9.5542C7.56201 17.749 6.05322 19.8584 6.05322 22.4878ZM10.6162 22.4292C10.6162 20.8765 10.9604 19.8804 11.9565 18.5547C13.0625 17.0679 14.6006 15.2881 15.7065 13.0762C15.9409 12.6147 16.1021 12.4976 16.3364 12.4976C16.6147 12.4976 16.7979 12.7026 16.7979 13.0542C16.7979 14.1382 15.5527 15.9546 15.5527 17.1411C15.5527 18.0273 16.2632 18.5913 17.23 18.5913H19.8594C20.2842 18.5913 20.5991 18.9136 20.5991 19.3384C20.5991 19.6387 20.5039 19.8364 20.2476 20.0854C20.0571 20.2759 20.0278 20.5542 20.1963 20.752C20.4087 21.0449 20.4966 21.2427 20.4966 21.4917C20.4966 21.792 20.3574 22.0483 20.0645 22.2607C19.8154 22.4438 19.7275 22.7368 19.874 23.0298C20.0278 23.3301 20.1084 23.4766 20.1084 23.7109C20.1084 24.0625 19.8813 24.3262 19.4272 24.5679C19.1855 24.6997 19.1196 24.9634 19.2222 25.1904C19.376 25.564 19.3979 25.6372 19.3906 25.7983C19.3906 26.1133 19.1636 26.3623 18.6729 26.4868C18.2407 26.5894 17.5522 26.6406 16.644 26.6333L15.6992 26.626C12.667 26.5967 10.6162 24.8901 10.6162 22.4292ZM7.38623 22.4878C7.38623 20.6274 8.33838 19.1406 9.43701 19.0894C9.62744 19.0894 9.81787 19.0894 10.0083 19.0894C9.48828 20.1001 9.26123 21.1621 9.26123 22.4292C9.26123 23.7769 9.72998 24.9634 10.5869 25.8862C10.3159 25.8862 10.0303 25.8862 9.75195 25.8862C8.47021 25.835 7.38623 24.3262 7.38623 22.4878Z" fill="white"/>
</svg>
