<svg width="20" height="20" viewBox="0 0 20 20" fill="none" xmlns="http://www.w3.org/2000/svg">
<path fill-rule="evenodd" clip-rule="evenodd" d="M10 20C15.5228 20 20 15.5228 20 10C20 4.47715 15.5228 0 10 0C4.47715 0 0 4.47715 0 10C0 15.5228 4.47715 20 10 20ZM10 18.5C11.3807 18.5 12.5 17.3807 12.5 16C12.5 14.6193 11.3807 13.5 10 13.5C8.61929 13.5 7.5 14.6193 7.5 16C7.5 17.3807 8.61929 18.5 10 18.5ZM18.5 10C18.5 11.8106 17.9339 13.4889 16.9691 14.8677C16.7804 15.1373 16.3583 14.8961 16.4121 14.5715C16.4699 14.2229 16.5 13.865 16.5 13.5C16.5 9.91015 13.5899 7 10 7C6.41015 7 3.5 9.91015 3.5 13.5C3.5 13.865 3.53008 14.2229 3.5879 14.5715C3.64173 14.896 3.21955 15.1372 3.03094 14.8677C2.06609 13.4889 1.5 11.8106 1.5 10C1.5 5.30558 5.30558 1.5 10 1.5C14.6944 1.5 18.5 5.30558 18.5 10ZM14 16C14 16.1504 14.1963 16.2238 14.2745 16.0954C14.7349 15.3388 15 14.4504 15 13.5C15 10.7386 12.7614 8.5 10 8.5C7.23858 8.5 5 10.7386 5 13.5C5 14.4504 5.26515 15.3388 5.7255 16.0954C5.80367 16.2238 6 16.1504 6 16C6 13.7909 7.79086 12 10 12C12.2091 12 14 13.7909 14 16Z" fill="#939BA1"/>
</svg>

