<svg width="16" height="16" viewBox="0 0 16 16" fill="none" xmlns="http://www.w3.org/2000/svg">
<path d="M7.99992 4.16671C8.27606 4.16671 8.49992 4.39057 8.49992 4.66671V9.33337C8.49992 9.60952 8.27606 9.83337 7.99992 9.83337C7.72378 9.83337 7.49992 9.60952 7.49992 9.33337V4.66671C7.49992 4.39057 7.72378 4.16671 7.99992 4.16671Z" fill="#FF2D55"/>
<path d="M7.99992 12.5C8.46016 12.5 8.83325 12.1269 8.83325 11.6667C8.83325 11.2065 8.46016 10.8334 7.99992 10.8334C7.53968 10.8334 7.16659 11.2065 7.16659 11.6667C7.16659 12.1269 7.53968 12.5 7.99992 12.5Z" fill="#FF2D55"/>
<path fill-rule="evenodd" clip-rule="evenodd" d="M1.33325 8.00004C1.33325 11.6819 4.31802 14.6667 7.99992 14.6667C11.6818 14.6667 14.6666 11.6819 14.6666 8.00004C14.6666 4.31814 11.6818 1.33337 7.99992 1.33337C4.31802 1.33337 1.33325 4.31814 1.33325 8.00004ZM2.33325 8.00004C2.33325 11.1297 4.8703 13.6667 7.99992 13.6667C11.1295 13.6667 13.6666 11.1297 13.6666 8.00004C13.6666 4.87043 11.1295 2.33337 7.99992 2.33337C4.8703 2.33337 2.33325 4.87043 2.33325 8.00004Z" fill="#FF2D55"/>
</svg>
