<svg fill="none" height="24" viewBox="0 0 24 24" width="24" xmlns="http://www.w3.org/2000/svg"><path clip-rule="evenodd" d="m19.8164 3.74494c-.2433-.00806-.571.03259-1.1204.10445-7.7551 1.0144-13.8325 7.09181-14.8469 14.84691-.07186.5493-.11251.8771-.10445 1.1204.00679.2046.04627.2651.08855.3132.03278.0374.08849.0907.32693.1272.26874.0411.63917.043 1.23967.043h.91692c.17364-3.6438 1.69758-7.1029 4.28888-9.6942 2.5912-2.59121 6.0504-4.11548 9.6942-4.28921v-.9166c0-.6005-.0019-.97093-.043-1.23967-.0365-.23844-.0898-.29415-.1272-.32693-.0481-.04228-.1086-.08176-.3132-.08855zm.4834 3.97351c-3.2722.17249-6.3756 1.54875-8.7043 3.87735-2.32865 2.3287-3.70462 5.432-3.87702 8.7043h2.60422c.1692-2.5822 1.2701-5.025 3.1111-6.866s4.2838-2.9419 6.866-3.1111zm-7.7 12.58165h-.8736c.1667-2.2105 1.1192-4.2977 2.6975-5.8761 1.5784-1.5783 3.6656-2.5307 5.8761-2.6975v.8736c0 .4972-.0007.8232-.0222 1.0643-.0191.2138-.0498.2823-.0588.2984-.0001-.0001-.0009.0004-.0023.0015-.0008.0006-.0017.0014-.0028.0023-.0211.0173-.113.0925-.3862.2294-.3228.1616-.7818.3561-1.4369.633-.7877.3331-1.5119.817-2.1284 1.4335s-1.1004 1.3407-1.4335 2.1284c-.2769.6551-.4714 1.1141-.633 1.4369-.1369.2732-.2121.365-.2293.3862-.0019.0023-.0031.0037-.0036.0045-.0003.0003-.0004.0005-.0003.0006-.0161.009-.0846.0397-.2984.0588-.2411.0215-.5671.0222-1.0643.0222zm7.263-17.95439c.4234.01404.8301.1194 1.1904.43559.371.32568.5219.73824.5875 1.1675.0592.38715.0592.86632.0591 1.40211v.04918 7.20001.0314c0 .4571 0 .8464-.0277 1.1575-.0285.3185-.0921.6547-.2887.9512-.2145.3237-.5887.5371-.929.7076-.3681.1843-.8691.3961-1.4939.6603l-.0247.0104c-.6231.2635-1.196.6463-1.6837 1.1339-.4876.4877-.8704 1.0606-1.1339 1.6837l-.0104.0247c-.2642.6247-.476 1.1258-.6603 1.4939-.1705.3403-.3839.7145-.7076.929-.2965.1966-.6327.2602-.9512.2886-.3111.0278-.7003.0278-1.1575.0278h-.0314-7.2-.04918c-.53579.0001-1.01496.0001-1.40211-.0591-.42926-.0656-.84182-.2165-1.1675-.5876-.31619-.3602-.42155-.7669-.43559-1.1903-.01234-.3721.04575-.8157.10904-1.299l.00647-.0494c1.09669-8.3843 7.66917-14.95679 16.05347-16.05348l.0494-.00647c.4833-.06329.9269-.12138 1.299-.10904z" fill="#09101c" fill-rule="evenodd"/></svg>