<svg fill="none" height="24" viewBox="0 0 24 24" width="24" xmlns="http://www.w3.org/2000/svg"><path clip-rule="evenodd" d="m4.97165 6.70318c1.47448-1.95346 3.74456-3.27273 6.32835-3.47601v2.29891l-2.05992.82399-.26415.10566-.11555.25998-.70249 1.58059zm-1.77185 5.29662c0-1.4842.36743-2.8826 1.01629-4.10915l3.37262 1.68631-.72833 1.63874-.07698.1732.02093.1884.5 4.5.04946.4451.4249.1417 3.00001 1 .9213.3071v-.9712-2.7545l1.8467-2.3082.5409-.6762-.7745-.3872-3.90172-1.95085.61282-1.37877 2.2358-.89434.44-.17601v-.47393-2.77279c1.9147.15073 3.657.91424 5.0309 2.09447l-2.7623 3.22277-.4713.5498.5655.45236 2.0944 1.67559-.8071 2.0178-.2657.6642.6699.2512 3.3583 1.2594c-1.3335 3.1639-4.4638 5.385-8.1128 5.385-4.8601 0-8.8-3.9399-8.8-8.8zm17.3517 2.0844c.1623-.6682.2483-1.3663.2483-2.0844 0-2.16551-.7822-4.14829-2.0794-5.68129l-2.2176 2.58725 1.9345 1.54764.4055.3244-.1928.4822-.7343 1.8358zm-18.7517-2.0844c0-5.63335 4.5667-10.20004 10.2-10.20004s10.2 4.56669 10.2 10.20004c0 5.6333-4.5667 10.2-10.2 10.2s-10.2-4.5667-10.2-10.2zm7.0424-1.7961-.6255 1.4074.42961 3.8665 1.65369.5512v-2.0288-.2455l.1534-.1918 1.4591-1.8238z" fill="#09101c" fill-rule="evenodd"/></svg>