<svg fill="none" height="24" viewBox="0 0 24 24" width="24" xmlns="http://www.w3.org/2000/svg"><path clip-rule="evenodd" d="m11.9998 3.19976c-4.8601 0-8.8 3.93989-8.8 8.80004 0 1.8038.54275 3.4809 1.47384 4.8768-.24266-.7485-.37379-1.5473-.37379-2.3766 0-4.2526 3.44741-7.70005 7.70005-7.70005 4.2525 0 7.7 3.44745 7.7 7.70005 0 .8292-.1311 1.6279-.3737 2.3763.9309-1.3958 1.4736-3.0728 1.4736-4.8765 0-4.86015-3.9399-8.80004-8.8-8.80004zm5.0418 15.07854c.1033-.409.1583-.8372.1583-1.2783 0-2.8719-2.3282-5.2-5.2-5.2-2.87193 0-5.20004 2.3281-5.20004 5.2 0 .4411.05492.8693.1583 1.2783-.79014-1.0526-1.2583-2.3608-1.2583-3.7783 0-3.4794 2.8206-6.30005 6.30004-6.30005 3.4793 0 6.3 2.82065 6.3 6.30005 0 1.4175-.4682 2.7257-1.2583 3.7783zm-5.0933 2.5213c-2.07492-.0276-3.74845-1.7182-3.74845-3.7996 0-2.0987 1.70132-3.8 3.80005-3.8 2.0986 0 3.8 1.7013 3.8 3.8 0 2.0814-1.6736 3.772-3.7485 3.7996-.0172.0001-.0344.0002-.0516.0002s-.0343-.0001-.0515-.0002zm.0516 1.4004c.0363 0 .0726-.0003.1088-.0008 5.5831-.0584 10.0911-4.6025 10.0911-10.1994 0-5.63335-4.5667-10.20004-10.2-10.20004s-10.2 4.56669-10.2 10.20004c0 5.597 4.50803 10.1411 10.0912 10.1994.0362.0005.0725.0008.1089.0008z" fill="#09101c" fill-rule="evenodd"/></svg>