<svg fill="none" height="24" viewBox="0 0 24 24" width="24" xmlns="http://www.w3.org/2000/svg"><path clip-rule="evenodd" d="m10.6429 1.8h-.3602l-.2094.29314-1.17635 1.64687c-.26122.36571-.29441.39373-.31418.40702-.03988.02681-.08561.04364-.13335.0491-.02367.0027-.06711.0029-.50311-.10611l-1.47649-.36912-.3845-.09612-.28025.28025-1.9 1.9-.28025.28025.09613.3845.37567 1.50269c.10642.42569.10637.46791.10388.4912-.00502.04684-.021.09184-.04664.13136-.01275.01964-.03933.05245-.39037.31572l-1.68344 1.26255-.28.21v.35 2.5334.35l.28.21 1.68829 1.2662c.34912.2618.37556.2944.38829.314.02559.0392.04161.084.04677.1306.00257.0232.00282.0651-.1008.4891l-.38253 1.5651-.09523.3896.28795.2791 1.9 1.8422.27944.2709.37759-.0944 1.5027-.3757c.42569-.1064.46791-.1063.4912-.1038.04684.005.09184.021.13135.0466.01965.0127.05245.0393.31573.3904l1.2626 1.6834.21.28h.35 2.5333.35l.21-.28 1.2626-1.6834c.2633-.3511.2961-.3777.3157-.3904.0395-.0256.0845-.0416.1314-.0466.0233-.0025.0655-.0026.4912.1038l1.5027.3757.3845.0961.2802-.2802 1.9-1.9.2803-.2803-.0961-.3845-.3757-1.5027c-.1064-.4257-.1064-.4679-.1039-.4912.005-.0468.021-.0918.0466-.1313.0128-.0197.0394-.0525.3904-.3157l1.6834-1.2626.28-.21v-.35-2.5334-.35l-.28-.21-1.6834-1.26255c-.351-.26327-.3776-.29608-.3904-.31572-.0256-.03952-.0416-.08452-.0466-.13136-.0025-.02329-.0025-.06551.1039-.4912l.3757-1.50269.0961-.3845-.2803-.28025-1.9-1.9-.2802-.28025-.3845.09612-1.4765.36913c-.436.109-.4795.1088-.5031.1061-.0478-.00546-.0935-.02229-.1334-.0491-.0197-.01329-.0529-.04131-.3142-.40702l-1.1763-1.64687-.2094-.29314h-.3602zm-.6067 2.75374.9669-1.35374h1.9939l.9669 1.35374.0448.06298c.1814.25515.3679.51757.6275.69215.226.15192.4851.24733.7557.27822.3109.03549.623-.04335.9265-.12l.0749-.01887 1.092-.27299 1.3395 1.3395-.2795 1.11819-.0184.07312c-.0749.29662-.152.60181-.1193.90673.0284.26542.1189.52042.2642.74434.167.25726.4192.44552.6644.6285l.0604.04519 1.4034 1.0525v1.8334l-1.4034 1.0526-.0604.0451c-.2452.183-.4974.3712-.6644.6285-.1453.2239-.2358.4789-.2642.7443-.0327.305.0444.6101.1193.9068l.0184.0731.2795 1.1182-1.3395 1.3395-1.1182-.2796-.0731-.0184c-.2966-.0749-.6018-.1519-.9067-.1193-.2654.0284-.5204.119-.7444.2643-.2572.1669-.4455.4192-.6285.6644l-.0451.0604-1.0526 1.4034h-1.8333l-1.0526-1.4034-.04515-.0604c-.18297-.2452-.37124-.4975-.62849-.6644-.22392-.1453-.47892-.2359-.74434-.2643-.30493-.0326-.61011.0444-.90673.1193l-.07312.0184-1.1251.2813-1.33261-1.292.28731-1.1755.01792-.0728c.07295-.2955.14802-.5995.11439-.9029-.02927-.2641-.12005-.5177-.26505-.7404-.16657-.2558-.41754-.4431-.66143-.6251h-.00001l-.06005-.0449-1.40829-1.0562v-1.8334l1.40344-1.0525.0604-.04519c.24517-.18298.49744-.37124.66437-.6285.14531-.22392.23584-.47892.26427-.74434.03266-.30492-.0444-.61011-.11931-.90673l-.0184-.07312-.27955-1.11819 1.3395-1.3395 1.09199.27299.07497.01887v.00001c.30348.07665.61562.15548.9265.11999.27052-.03089.52967-.1263.75564-.27822.25967-.17458.44616-.437.62748-.69215zm-.83615 7.44626c0-1.5464 1.25355-2.80005 2.79995-2.80005s2.8 1.25365 2.8 2.80005-1.2536 2.8-2.8 2.8-2.79995-1.2536-2.79995-2.8zm2.79995-4.20005c-2.31955 0-4.19995 1.88041-4.19995 4.20005 0 2.3195 1.8804 4.2 4.19995 4.2 2.3196 0 4.2-1.8805 4.2-4.2 0-2.31964-1.8804-4.20005-4.2-4.20005z" fill="#09101c" fill-rule="evenodd"/></svg>