<svg width="20" height="20" viewBox="0 0 20 20" fill="none" xmlns="http://www.w3.org/2000/svg">
<g id="20/shell">
<path id="body" d="M17 10C17 13 11 17 10 17C9 17 3 13 3 10C3 6.13401 6.13401 3 10 3C13.866 3 17 6.13401 17 10Z" stroke="#09101C" stroke-width="1.2"/>
<path id="body_2" d="M10 3V17" stroke="#09101C" stroke-width="1.2"/>
<path id="body_3" d="M14 4V4C14 5.95535 14 6.93302 13.8848 7.88779C13.6854 9.54061 13.2293 11.1522 12.5328 12.6643C12.1306 13.5378 11.6182 14.3705 10.5934 16.0358L10 17" stroke="#09101C" stroke-width="1.2"/>
<path id="body_4" d="M6 4V4C6 5.95535 6 6.93302 6.11519 7.88779C6.3146 9.54061 6.77074 11.1522 7.46716 12.6643C7.86945 13.5378 8.38184 14.3705 9.40663 16.0358L10 17" stroke="#09101C" stroke-width="1.2"/>
</g>
</svg>
