<svg fill="none" height="20" viewBox="0 0 20 20" width="20" xmlns="http://www.w3.org/2000/svg"><g stroke="#09101c" stroke-width="1.2"><path d="m17 10c0 3-6 7-7 7s-7-4-7-7c0-3.86599 3.13401-7 7-7 3.866 0 7 3.13401 7 7z"/><path d="m10 3v14"/><path d="m14 4c0 1.95535 0 2.93302-.1152 3.88779-.1994 1.65282-.6555 3.26441-1.352 4.77651-.4022.8735-.9146 1.7062-1.9394 3.3715l-.5934.9642"/><path d="m6 4c0 1.95535 0 2.93302.11519 3.88779.19941 1.65282.65555 3.26441 1.35197 4.77651.40229.8735.91468 1.7062 1.93947 3.3715l.59337.9642"/></g></svg>