<svg fill="none" height="24" viewBox="0 0 24 24" width="24" xmlns="http://www.w3.org/2000/svg"><path clip-rule="evenodd" d="m17.0469 8.81019-2.0003-2.50019-1.0932.87461 1.0903 1.3627h-8.5437v1.4h8.5438l-1.0904 1.36269 1.0932.8747 2.0003-2.49986.3499-.43731z" fill="#09101c" fill-rule="evenodd"/><path clip-rule="evenodd" d="m6.95337 15.1849 2.00005 2.4997 1.09318-.8746-1.09037-1.3627h8.54377v-1.4h-8.54353l1.08993-1.3628-1.0933-.8744-1.99981 2.5003-.34977.4373z" fill="#09101c" fill-rule="evenodd"/><path d="m12 2.49976c-8.5 0-9.5 1-9.5 9.50004 0 8.5 1 9.5 9.5 9.5s9.5-1 9.5-9.5c0-8.50004-1-9.50004-9.5-9.50004z" stroke="#09101c" stroke-width="1.4"/></svg>