<svg fill="none" height="24" viewBox="0 0 24 24" width="24" xmlns="http://www.w3.org/2000/svg"><path clip-rule="evenodd" d="m1.80005 11.9998c0 .1002.00014.1995.00042.2979-.00029.0669-.00042.1343-.00042.2021h.00123c.00968 1.8966.07925 3.4445.2984 4.6914.23913 1.3606.66917 2.4423 1.46789 3.241.79873.7988 1.88039 1.2288 3.24099 1.4679 1.35476.2381 3.06493.2997 5.19144.2997 2.1266 0 3.8368-.0616 5.1915-.2997 1.3606-.2391 2.4423-.6691 3.241-1.4679.7987-.7987 1.2288-1.8804 1.4679-3.241.2192-1.2469.2887-2.7948.2984-4.6914h.0012c0-.0678-.0001-.1352-.0004-.2021.0003-.0984.0004-.1977.0004-.2979 0-.1693-.0003-.336-.0012-.5h.0012c0-.0253-.0005-.0503-.0016-.0751-.0111-1.8624-.0817-3.386-.298-4.61643-.2391-1.3606-.6692-2.44226-1.4679-3.24099-.7987-.79872-1.8804-1.22876-3.241-1.46789-1.3547-.23811-3.0649-.29963-5.1915-.29963-2.12651 0-3.83668.06152-5.19144.29963-1.3606.23913-2.44226.66917-3.24099 1.46789-.79872.79873-1.22876 1.88039-1.46789 3.24099-.21626 1.23043-.28685 2.75403-.29799 4.61653-.00109.0247-.00164.0497-.00164.075h.00123c-.00084.164-.00123.3307-.00123.5zm1.41747-.5733c-.00999.2745-.01545.5677-.017.8812.0061 1.9714.07353 3.4777.27802 4.6412.21399 1.2175.5652 1.9796 1.07898 2.4934s1.27587.865 2.49339 1.079c1.22337.215 2.82569.2785 4.94909.2785 2.1235 0 3.7258-.0635 4.9492-.2785 1.2175-.214 1.9796-.5652 2.4934-1.079s.865-1.2759 1.079-2.4934c.2044-1.1635.2719-2.6698.278-4.6412-.0016-.3135-.007-.6067-.017-.8812-.0409-.0939-.1738-.2546-.5915-.4474-.5197-.2399-1.2552-.4156-2.0475-.5375-.7808-.1201-1.5679-.181-2.1638-.2115-.1939-.01-.3666-.0166-.5109-.0211-.1092.2184-.271.4848-.5045.7517-.561.6411-1.4985 1.2391-2.9644 1.2391-1.4658 0-2.40333-.598-2.96425-1.2391-.23354-.2669-.39532-.5333-.50454-.7517-.14436.0045-.31701.0111-.51094.0211-.59587.0305-1.38292.0914-2.16378.2115-.79226.1219-1.52775.2976-2.04748.5375-.41773.1928-.55057.3535-.59149.4474zm17.38278-1.79621c-.1854-.91532-.5178-1.47925-1.0696-1.87342-.5217-.37261-1.3127-.64818-2.557-.82163-1.2386-.17266-2.8547-.23548-4.9737-.23548-2.11894 0-3.73496.06282-4.97362.23548-1.24431.17345-2.03531.44902-2.55696.82163-.55184.39417-.88427.9581-1.06965 1.87342.66852-.2775 1.48005-.45489 2.24384-.57239.84414-.12987 1.68209-.19403 2.30496-.22597.31251-.01603.57332-.02406.7568-.0281.09179-.00201.16435-.00303.2145-.00355l.05806-.00045.0157-.00006.00439-.00001h.00131.00043c.00016 0 .00029 0 .00029.7v-.7h.54654l.13119.52475.00049.00171c.00161.00549.00518.01732.01103.03457.01176.03464.0324.09024.06428.15981.06429.14026.17074.32959.33582.5182.314.3589.8765.761 1.9106.761 1.0342 0 1.5967-.4021 1.9107-.761.1651-.18861.2715-.37794.3358-.5182.0319-.06957.0525-.12517.0643-.15981.0059-.01725.0094-.02908.011-.03457l.0005-.0017.1312-.52476h.5465v.7c0-.7.0002-.7.0003-.7h.0005.0013l.0044.00001.0157.00006.058.00045c.0502.00052.1227.00154.2145.00355.1835.00404.4443.01207.7568.0281.6229.03194 1.4608.0961 2.305.22597.7638.1175 1.5753.29489 2.2438.57239zm-1.1577-5.07306c.4623.46229.7929 1.1256 1.0104 2.14082-.0354-.02722-.0717-.05403-.1086-.08041-.7908-.56489-1.8436-.88307-3.1774-1.06899-1.3395-.18671-3.0359-.24889-5.167-.24889-2.13096 0-3.82744.06218-5.1669.24889-1.33382.18593-2.38657.50411-3.17742 1.06899-.03693.02638-.07313.05318-.10863.08041.21752-1.01522.54819-1.67853 1.01047-2.14082.51378-.51378 1.27587-.86499 2.49339-1.07898 1.22337-.21501 2.82569-.27849 4.94909-.27849 2.1235 0 3.7258.06348 4.9492.27849 1.2175.21399 1.9796.5652 2.4934 1.07898z" fill="#09101c" fill-rule="evenodd"/></svg>