<svg fill="none" height="500" viewBox="0 0 503 500" width="503" xmlns="http://www.w3.org/2000/svg"><path d="m0 250c0-138.071 113.429-250 251.5-250s251.5 111.929 251.5 250-113.429 250-251.5 250-251.5-111.929-251.5-250z" fill="#2d374b"/><path d="m291.788 234.692 26.095-44.304 70.337 109.615.033 21.036-.229-144.756c-.167-3.539-2.044-6.776-5.041-8.685l-126.632-72.8824c-2.962-1.4565-6.719-1.441-9.676.0452-.399.2008-.775.4182-1.133.6554l-.441.278-122.918 71.2708-.477.216c-.614.283-1.233.641-1.816 1.058-2.33 1.673-3.878 4.146-4.378 6.919-.075.421-.131.849-.157 1.28l.193 117.963 65.516-101.604c8.248-13.473 26.22-17.813 42.903-17.577l19.581.518-115.371 185.127 13.6 7.835 116.754-192.775 51.605-.187-116.453 197.639 48.529 27.928 5.798 3.337c2.452.997 5.343 1.047 7.817.154l128.412-74.459-24.55 14.234zm9.956 143.478-49.015-76.972 29.92-50.8 64.372 101.518z" fill="#2d374b"/><path d="m252.729 301.198 49.015 76.972 45.278-26.254-64.372-101.518z" fill="#28a0f0"/><path d="m388.253 321.039-.033-21.036-70.337-109.615-26.095 44.304 67.901 109.879 24.55-14.234c2.409-1.957 3.865-4.829 4.019-7.928z" fill="#28a0f0"/><path d="m93.5068 340.877 34.6692 19.988 115.371-185.127-19.581-.518c-16.683-.236-34.654 4.104-42.903 17.577l-65.516 101.604-22.0413 33.885v12.591z" fill="#fff"/><path d="m310.135 175.738-51.604.187-116.754 192.775 40.808 23.51 11.098-18.833z" fill="#fff"/><path d="m410 175.472c-.431-10.799-6.274-20.685-15.428-26.44l-128.292-73.8192c-9.055-4.5624-20.367-4.5679-29.435-.0033-1.072.5406-124.763 72.3175-124.763 72.3175-1.711.821-3.36 1.8-4.911 2.91-8.1715 5.86-13.1525 14.965-13.6641 24.969v152.881l22.0411-33.885-.193-117.963c.026-.431.08-.855.157-1.274.497-2.776 2.046-5.252 4.378-6.925.583-.417 126.385-73.2773 126.785-73.4781 2.958-1.4862 6.715-1.5016 9.676-.0452l126.632 72.8823c2.997 1.909 4.874 5.146 5.041 8.685v146.126c-.153 3.1-1.377 5.97-3.786 7.928l-24.551 14.234-12.667 7.345-45.277 26.254-45.917 26.626c-2.474.894-5.365.844-7.817-.154l-54.327-31.265-11.098 18.832 48.822 28.126c1.614.918 3.054 1.732 4.233 2.396 1.829 1.026 3.074 1.711 3.514 1.924 3.47 1.686 8.462 2.668 12.961 2.668 4.125 0 8.147-.758 11.953-2.249l133.369-77.282c7.655-5.934 12.158-14.883 12.564-24.578z" fill="#96bedc"/></svg>