<svg fill="none" height="531" viewBox="0 0 531 531" width="531" xmlns="http://www.w3.org/2000/svg"><path d="m0 265.5c0-146.632 118.868-265.5 265.5-265.5s265.5 118.868 265.5 265.5-118.868 265.5-265.5 265.5-265.5-118.868-265.5-265.5z" fill="#eef2f5"/><path clip-rule="evenodd" d="m216.241 367.649c1.216-3.539 4.394-6.17 8.135-6.17h85.248c3.741 0 6.919 2.631 8.135 6.17 7.515 21.878 28.271 37.601 52.699 37.601 30.767 0 55.709-24.941 55.709-55.708s-24.942-55.708-55.709-55.708c-3.125 0-6.191.257-9.177.752-3.685.611-7.502-.932-9.282-4.216l-45.545-84.03c-1.781-3.287-.987-7.331 1.545-10.081 9.132-9.923 14.709-23.169 14.709-37.717 0-30.767-24.941-55.709-55.708-55.709s-55.708 24.942-55.708 55.709c0 14.548 5.577 27.795 14.71 37.717 2.531 2.75 3.325 6.795 1.544 10.081l-45.542 84.031c-1.78 3.284-5.598 4.826-9.283 4.215-2.986-.495-6.053-.752-9.179-.752-30.767 0-55.709 24.941-55.709 55.708s24.942 55.708 55.709 55.708c24.428 0 45.184-15.723 52.699-37.601zm32.297-149.936c1.78-3.284 5.598-4.827 9.283-4.216 2.986.495 6.053.753 9.179.753 3.127 0 6.193-.258 9.179-.753 3.685-.611 7.503.932 9.283 4.216l45.544 84.028c1.781 3.287.987 7.332-1.545 10.082-5.154 5.6-9.177 12.259-11.703 19.613-1.215 3.538-4.393 6.168-8.134 6.168h-85.248c-3.741 0-6.919-2.63-8.134-6.168-2.526-7.353-6.548-14.012-11.702-19.611-2.531-2.751-3.325-6.795-1.544-10.082zm-53.163 131.829c0 17.581-14.252 31.833-31.833 31.833s-31.834-14.252-31.834-31.833 14.253-31.833 31.834-31.833 31.833 14.252 31.833 31.833zm206.917 0c0 17.581-14.253 31.833-31.834 31.833s-31.833-14.252-31.833-31.833 14.252-31.833 31.833-31.833 31.834 14.252 31.834 31.833zm-103.459-191c0 17.581-14.252 31.833-31.833 31.833s-31.833-14.252-31.833-31.833 14.252-31.834 31.833-31.834 31.833 14.253 31.833 31.834z" fill="#939ba1" fill-rule="evenodd"/><path d="m265.5 530c-146.079 0-264.5-118.421-264.5-264.5h-2c0 147.184 119.316 266.5 266.5 266.5zm264.5-264.5c0 146.079-118.421 264.5-264.5 264.5v2c147.184 0 266.5-119.316 266.5-266.5zm-264.5-264.5c146.079 0 264.5 118.421 264.5 264.5h2c0-147.184-119.316-266.5-266.5-266.5zm0-2c-147.184 0-266.5 119.316-266.5 266.5h2c0-146.079 118.421-264.5 264.5-264.5z" fill="#000" fill-opacity=".1"/></svg>