<svg fill="none" height="40" viewBox="0 0 40 40" width="40" xmlns="http://www.w3.org/2000/svg" xmlns:xlink="http://www.w3.org/1999/xlink"><clipPath id="a"><rect height="40" rx="20" width="40"/></clipPath><g clip-path="url(#a)"><rect fill="#7140fd" height="40" rx="20" width="40"/><path clip-rule="evenodd" d="m25.019 10.9888c-.2394.3401-.4446.7019-.6102 1.0852-.0791.1836-.1529.3618-.2159.5363-.2268.6101-.369 1.1663-.5111 1.7242l-.0066.0253c-.1813.7061-.3631 1.4135-.7205 2.2333-.1656.3816-.369.7487-.6066 1.0925-.009.0144-.0197.0288-.0305.0414-.0071.0106-.015.0213-.0221.0309h-.0001l-.0102.0141c3.1891.9052 6.7544-.297 8.0484-3.2468.7955-1.8105.3527-4.0782-1.4434-4.86104-1.4452-.62991-2.8634-.11338-3.8694 1.32464zm-17.57982 9.0327c.13498-.3941.30956-.7721.52193-1.1302.10258-.1728.20337-.3348.30775-.4896.36175-.5417.72889-.9826 1.09784-1.4253l.03439-.0415c.46014-.5549.92161-1.1113 1.36941-1.8717.2124-.3581.3905-.7379.5291-1.1302l.0081-.0252.0081-.0252c.0054-.0198.0108-.0378.0162-.0522 2.6024 2.0535 3.7165 5.6476 2.0859 8.4228-1.0006 1.7061-3.0973 2.6762-4.78369 1.6791-1.357-.8009-1.76914-2.2532-1.19503-3.9108zm24.43592 6.9203c-3.442 0-6.2321-2.7901-6.2321-6.2321h-3.6398c0 5.4522 4.4197 9.8719 9.8719 9.8719zm-11.8823-6.2321c0 5.4522-4.4197 9.8719-9.8719 9.8719v-3.6398c3.442 0 6.2321-2.7901 6.2321-6.2321zm-.0023-.0016v-11.018h-3.6398v11.018z" fill="#fff" fill-rule="evenodd"/></g><rect height="39" rx="19.5" stroke="#1b273d" stroke-opacity=".05" width="39" x=".5" y=".5"/></svg>