<svg fill="none" height="500" viewBox="0 0 500 500" width="500" xmlns="http://www.w3.org/2000/svg" xmlns:xlink="http://www.w3.org/1999/xlink"><clipPath id="a"><path d="m71 65h368v368h-368z"/></clipPath><path d="m250 500c138.071 0 250-111.929 250-250s-111.929-250-250-250-250 111.929-250 250 111.929 250 250 250z" fill="#627eea"/><g clip-path="url(#a)"><g fill="#fff"><path d="m254.967 65v9 235.5 9.677l112.947-66.765z" fill-opacity=".8"/><path d="m254.967 65-112.951 187.412 112.951 66.765v-118.105z"/><path d="m254.967 340.561v9.439 75.5 7.497l113.017-159.165z" fill-opacity=".8"/><path d="m254.967 432.997v-92.436l-112.951-66.729z"/></g><path d="m254.967 319.177 112.947-66.765-112.947-51.34z" fill="#627eea" fill-opacity=".2"/><path d="m142.016 252.412 112.951 66.765v-118.105z" fill="#627eea" fill-opacity=".1"/></g></svg>