<svg fill="none" height="201" viewBox="0 0 201 201" width="201" xmlns="http://www.w3.org/2000/svg"><path d="m100.517 200.483c55.228 0 100-44.771 100-100 0-55.2281-44.772-99.999663-100-99.999663-55.2288 0-100.000337 44.771563-100.000337 99.999663 0 55.229 44.771537 100 100.000337 100z" fill="#000"/><path clip-rule="evenodd" d="m126.452 111.118 15.085 15.041-41.006 40.962-40.9622-40.962 15.0845-15.041 25.8777 25.877zm-25.921-25.9215 15.301 15.3015-15.301 15.301-15.2578-15.258v-.043l2.6875-2.6877 1.3004-1.3004zm-51.582.2168 15.0845 15.0847-15.0845 15.041-15.0846-15.085zm103.164 0 15.085 15.0847-15.085 15.041-15.084-15.085zm-51.582-51.5822 40.962 40.9623-15.084 15.0845-25.878-25.9211-25.8777 25.8778-15.0845-15.0412z" fill="#f3ba2f" fill-rule="evenodd"/></svg>