<svg fill="none" height="500" viewBox="0 0 503 500" width="503" xmlns="http://www.w3.org/2000/svg"><path d="m0 250c0-138.071 113.429-250 251.5-250s251.5 111.929 251.5 250-113.429 250-251.5 250-251.5-111.929-251.5-250z" fill="#7b3fe4"/><g fill="#fff"><path d="m383.936 142.027-109.367-63.1761c-7.834-4.4892-16.705-6.8509-25.734-6.8509s-17.9 2.3617-25.734 6.8509l-109.367 63.1761c-7.826 4.518-14.3244 11.017-18.8416 18.843s-6.8943 16.704-6.8924 25.74v126.61c.0653 8.972 2.4746 17.769 6.9883 25.522 4.514 7.752 10.9757 14.188 18.7457 18.676l109.367 63.176c7.824 4.516 16.7 6.893 25.734 6.893s17.91-2.377 25.734-6.893l109.367-63.176c7.827-4.52 14.324-11.018 18.84-18.844 4.52-7.826 6.897-16.704 6.894-25.74v-126.61c-.064-8.97-2.474-17.768-6.99-25.521-4.513-7.753-10.975-14.191-18.744-18.676zm-270.202 44.583c-.007-4.523 1.179-8.969 3.438-12.888s5.511-7.174 9.428-9.436l109.368-63.111c3.907-2.2747 8.346-3.4729 12.867-3.4729 4.52 0 8.96 1.1982 12.867 3.4729l109.367 63.111c3.861 2.229 7.077 5.423 9.332 9.269 2.258 3.845 3.474 8.211 3.535 12.669v12.867c-.035 10.016-4.033 19.612-11.12 26.688-7.089 7.077-16.691 11.059-26.708 11.076h-194.546c-13.637-.032-26.914 4.371-37.828 12.545zm270.202 126.224c.007 4.523-1.18 8.968-3.438 12.886-2.258 3.921-5.511 7.177-9.429 9.438l-109.367 63.112c-3.912 2.258-8.35 3.448-12.867 3.448s-8.955-1.19-12.867-3.448l-109.368-63.112c-3.861-2.229-7.077-5.423-9.333-9.27-2.255-3.844-3.473-8.209-3.533-12.668v-12.867c.034-10.016 4.032-19.612 11.121-26.689 7.088-7.076 16.69-11.059 26.707-11.075h194.546c13.635.033 26.914-4.371 37.828-12.545z"/><path d="m189.004 180.177h24.962v37.378h25.734v-37.378c0-6.825-2.711-13.37-7.537-18.196s-11.372-7.537-18.197-7.537h-24.962c-6.824 0-13.37 2.711-18.196 7.537s-7.537 11.371-7.537 18.196v37.378h25.733z"/><path d="m213.966 319.268h-24.962v-37.378h-25.733v37.378c0 6.825 2.711 13.371 7.537 18.196 4.826 4.826 11.372 7.537 18.196 7.537h24.962c6.825 0 13.371-2.711 18.197-7.537 4.826-4.825 7.537-11.371 7.537-18.196v-37.378h-25.734z"/><path d="m290.395 180.177h25.026v37.378h25.733v-37.378c0-6.825-2.711-13.37-7.537-18.196-4.825-4.826-11.371-7.537-18.196-7.537h-25.026c-6.825 0-13.371 2.711-18.197 7.537s-7.537 11.371-7.537 18.196v37.378h25.734z"/><path d="m315.421 319.268h-25.026v-37.378h-25.734v37.378c0 6.825 2.711 13.371 7.537 18.196 4.826 4.826 11.372 7.537 18.197 7.537h25.026c6.825 0 13.371-2.711 18.196-7.537 4.826-4.825 7.537-11.371 7.537-18.196v-37.378h-25.733z"/></g></svg>