<svg fill="none" height="120" viewBox="0 0 120 120" width="120" xmlns="http://www.w3.org/2000/svg"><path d="m0 60c0-33.1371 26.8629-60 60-60s60 26.8629 60 60-26.8629 60-60 60-60-26.8629-60-60z" fill="#eef2f5"/><path clip-rule="evenodd" d="m59.3823 49.0395h1.2653c1.8702 0 3.7724.7532 4.671 2.3933l7.8327 14.2958c1.1685 2.1328.5558 4.7507-.7116 6.8263-1.4261 2.3354-3.661 4.3942-6.3974 4.3942h-16.6921c-.0532 0-.0974-.0394-.1072-.0917-.2805-1.4982-.8314-2.9574-1.6528-4.3025-1.2502-2.0474-1.8394-4.6336-.6741-6.7305l8.0748-14.53c.8543-1.5373 2.6327-2.2549 4.3914-2.2549zm11.4527.7037c-1.1671-2.1302-.5558-4.7448.71-6.8179 2.4946-4.0854 2.4946-9.2229 0-13.3083-2.3189-3.7977-6.4477-6.1142-10.8974-6.1142h-1.2653c-4.4497 0-8.5785 2.3165-10.8974 6.1142-2.4946 4.0854-2.4946 9.2229 0 13.3083 1.3192 2.1604 1.9746 4.8923.745 7.1049l-7.7777 13.9955c-.923 1.6609-2.8593 2.415-4.7594 2.415h-1.2653c-4.4497 0-8.5785 2.3165-10.8974 6.1142-2.4946 4.0854-2.4946 9.2229 0 13.3083 2.3189 3.7977 6.4477 6.1142 10.8974 6.1142h1.2653c4.4497 0 8.5785-2.3165 10.8974-6.1142.5702-.9338 1.0101-1.9226 1.3196-2.9413.0586-.1928.2388-.323.4404-.323h21.5073c.0991 0 .1867.065.2143.1602.3114 1.0761.7673 2.1206 1.3679 3.1041 2.3189 3.7977 6.4477 6.1142 10.8974 6.1142h1.2653c4.4497 0 8.5785-2.3165 10.8974-6.1142 2.4946-4.0854 2.4946-9.2229 0-13.3083-2.3189-3.7977-6.4477-6.1142-10.8974-6.1142h-1.2653c-1.8671 0-3.7658-.7524-4.6629-2.3898zm-15.9613-13.472c0 2.8394 2.3018 5.1412 5.1412 5.1412 1.3636 0 2.6713-.5416 3.6355-1.5058.9641-.9642 1.5058-2.2719 1.5058-3.6354 0-2.8395-2.3018-5.1413-5.1413-5.1413-2.8394 0-5.1412 2.3018-5.1412 5.1413zm-18.8136 48.0791c-2.8394 0-5.1412-2.3018-5.1412-5.1413 0-2.8394 2.3018-5.1412 5.1412-5.1412 2.8395 0 5.1413 2.3018 5.1413 5.1412 0 1.3636-.5417 2.6713-1.5058 3.6354-.9642.9642-2.2719 1.5059-3.6355 1.5059zm47.9096 0c-2.8394 0-5.1412-2.3018-5.1412-5.1413 0-2.8394 2.3018-5.1412 5.1412-5.1412 2.8395 0 5.1413 2.3018 5.1413 5.1412 0 1.3636-.5417 2.6713-1.5058 3.6354-.9642.9642-2.2719 1.5059-3.6355 1.5059z" fill="#939ba1" fill-rule="evenodd"/><path d="m60 119c-32.5848 0-59-26.4152-59-59h-2c0 33.6894 27.3106 61 61 61zm59-59c0 32.5848-26.4152 59-59 59v2c33.6894 0 61-27.3106 61-61zm-59-59c32.5848 0 59 26.4152 59 59h2c0-33.6894-27.3106-61-61-61zm0-2c-33.6894 0-61 27.3106-61 61h2c0-32.5848 26.4152-59 59-59z" fill="#000" fill-opacity=".1"/></svg>