<svg fill="none" height="24" viewBox="0 0 24 24" width="24" xmlns="http://www.w3.org/2000/svg"><path clip-rule="evenodd" d="m16.75 20.2272c4.5438-2.6233 6.1006-8.4334 3.4772-12.9772-2.6233-4.54378-8.4334-6.10059-12.9772-3.47724-4.54378 2.62335-6.10059 8.43344-3.47724 12.97724s8.43344 6.1006 12.97724 3.4772zm2.5871-7.2768c.2885.1394.6192-.0515.6427-.3711.1135-1.5441-.2191-3.1374-1.0516-4.5793-.8325-1.44191-2.0461-2.52662-3.44-3.20037-.2885-.13942-.6192.05152-.6427.37105-.1135 1.5441.2191 3.13743 1.0516 4.57933.8325 1.44189 2.046 2.52659 3.44 3.20039zm-.2526 1.5327c.2516.1076.3869.3903.2802.6423-.6545 1.5456-1.799 2.8989-3.3647 3.8028s-3.3099 1.2185-4.9757 1.0125c-.2716-.0335-.4488-.2921-.4161-.5638.2367-1.9686-.1386-4.0276-1.20625-5.8769-1.06768-1.8493-2.66324-3.2038-4.48645-3.98313-.25159-.10754-.38693-.39029-.28024-.64223.65455-1.54566 1.79907-2.89891 3.36474-3.80284 1.56567-.90394 3.3099-1.21851 4.9757-1.01253.2716.03357.4488.29216.4161.5638-.2367 1.9686.1386 4.02765 1.2062 5.87693 1.0677 1.8493 2.6633 3.2038 4.4865 3.9831zm-14.0127 1.5169c-.83249-1.4419-1.16509-3.0352-1.05159-4.5793.02349-.3196.35421-.5105.64267-.3711 1.39398.6738 2.60755 1.7585 3.44004 3.2004.83248 1.4419 1.16508 3.0352 1.05158 4.5793-.02349.3195-.35421.5105-.64267.3711-1.39398-.6738-2.60755-1.7585-3.44003-3.2004z" fill="#000" fill-rule="evenodd"/></svg>