<svg width="18" height="18" viewBox="0 0 18 18" fill="none" xmlns="http://www.w3.org/2000/svg">
<rect width="18" height="18" rx="9" fill="#FF007A"/>
<g clip-path="url(#clip0_966_25308)">
<path d="M9 6.24902C9.45036 6.24902 9.87482 6.35887 10.25 6.55078V6.49902H11.75V9.49902C11.75 9.91314 12.0859 10.2489 12.5 10.249C12.9142 10.249 13.25 9.91322 13.25 9.49902V8.99902C13.25 8.0636 12.9414 7.15428 12.3721 6.41211C11.8025 5.66991 11.0033 5.13569 10.0996 4.89355C9.19626 4.65165 8.23806 4.71449 7.37402 5.07227C6.50976 5.43031 5.78708 6.06386 5.31934 6.87402C4.85163 7.68419 4.66404 8.62623 4.78613 9.55371C4.90825 10.4812 5.33362 11.3424 5.99512 12.0039C6.65661 12.6654 7.51783 13.0907 8.44531 13.2129C9.37277 13.335 10.3148 13.1474 11.125 12.6797L11.875 13.9785C10.7789 14.6113 9.50389 14.8654 8.24902 14.7002C6.99431 14.5349 5.82946 13.9593 4.93457 13.0645C4.03968 12.1695 3.46411 11.0047 3.29883 9.75C3.13362 8.49511 3.38768 7.22018 4.02051 6.12402C4.65336 5.02793 5.6305 4.17092 6.7998 3.68652C7.96909 3.20226 9.26579 3.11779 10.4883 3.44531C11.7108 3.77293 12.791 4.49491 13.5615 5.49902C14.332 6.50321 14.75 7.7333 14.75 8.99902V9.49902C14.75 10.7416 13.7426 11.749 12.5 11.749C11.8479 11.749 11.2625 11.4697 10.8516 11.0264C10.3626 11.4731 9.71453 11.749 9 11.749C7.48134 11.7489 6.25002 10.5177 6.25 8.99902C6.25 7.48032 7.48132 6.24915 9 6.24902ZM9 7.74902C8.30975 7.74915 7.75 8.30874 7.75 8.99902C7.75002 9.68928 8.30976 10.2489 9 10.249C9.69034 10.249 10.25 9.68936 10.25 8.99902C10.25 8.30867 9.69036 7.74902 9 7.74902Z" fill="white"/>
</g>
<defs>
<clipPath id="clip0_966_25308">
<rect width="12" height="12" fill="white" transform="translate(3 3)"/>
</clipPath>
</defs>
</svg>
