<svg width="18" height="18" viewBox="0 0 18 18" fill="none" xmlns="http://www.w3.org/2000/svg">
<rect width="18" height="18" rx="9" fill="#FFC93C"/>
<path opacity="0.5" d="M9.59863 4.95996C9.87524 5.01302 10.1474 5.10056 10.4082 5.22656C11.1501 5.58515 11.7516 6.20953 12.1348 6.9834L11.5967 7.25L11.0596 7.5166C10.7824 6.95665 10.3636 6.53757 9.88574 6.30664C9.41088 6.07733 8.89135 6.03921 8.40137 6.19238C7.90873 6.34649 7.4536 6.69227 7.12012 7.19922C6.78614 7.70709 6.59872 8.3404 6.59863 9C6.59863 9.65958 6.78623 10.2929 7.12012 10.8008C7.45356 11.3078 7.90876 11.6534 8.40137 11.8076C8.89147 11.9608 9.41079 11.9228 9.88574 11.6934C10.3637 11.4624 10.7824 11.0436 11.0596 10.4834L11.5967 10.75L12.1348 11.0166C11.7516 11.7907 11.1502 12.4148 10.4082 12.7734C10.1473 12.8995 9.8753 12.987 9.59863 13.04V14H8.39941V13.04C8.2804 13.0172 8.16127 12.9898 8.04395 12.9531C7.26113 12.7083 6.5876 12.1752 6.11719 11.46C5.64764 10.7456 5.39941 9.88073 5.39941 9C5.3995 8.11926 5.64755 7.25431 6.11719 6.54004C6.58764 5.82485 7.2611 5.29161 8.04395 5.04688C8.16133 5.01019 8.28035 4.98283 8.39941 4.95996V4H9.59863V4.95996Z" fill="black"/>
<path opacity="0.2" d="M9 1.40039C13.1972 1.40039 16.5994 4.80282 16.5996 9C16.5996 13.1974 13.1974 16.5996 9 16.5996C4.80282 16.5994 1.40039 13.1972 1.40039 9C1.4006 4.80295 4.80295 1.4006 9 1.40039ZM9 2.59961C5.46569 2.59982 2.59982 5.46569 2.59961 9C2.59961 12.5345 5.46556 15.4002 9 15.4004C12.5346 15.4004 15.4004 12.5346 15.4004 9C15.4002 5.46556 12.5345 2.59961 9 2.59961Z" fill="black"/>
</svg>
