<svg width="18" height="18" viewBox="0 0 18 18" fill="none" xmlns="http://www.w3.org/2000/svg">
<rect width="18" height="18" rx="9" fill="#2A4AF5"/>
<path d="M12.667 9.49316L10.0898 11.791L9.22461 10.8203L10.6016 9.5918C9.73595 9.58448 9.02909 9.57699 8.42871 9.58594C7.5286 9.59936 7.00897 9.65724 6.69043 9.77637C6.5479 9.8297 6.46835 9.88782 6.41602 9.94434C6.36282 10.0019 6.30813 10.0904 6.26074 10.2451C6.15629 10.5864 6.12371 11.1168 6.12891 12.0049L4.82813 12.0127C4.82308 11.1515 4.84609 10.4244 5.01758 9.86426C5.10819 9.56843 5.24611 9.29391 5.46094 9.06152C5.6767 8.82821 5.94098 8.6687 6.23535 8.55859C6.7914 8.35069 7.52398 8.29933 8.40918 8.28613C9.04943 8.27659 9.84298 8.28559 10.7842 8.29297L9.50293 6.77539L10.4971 5.9375L12.7314 8.58887L13.1387 9.07227L12.667 9.49316Z" fill="white"/>
</svg>
