<svg fill="none" height="24" viewBox="0 0 24 24" width="24" xmlns="http://www.w3.org/2000/svg"><g fill="#000"><path clip-rule="evenodd" d="m17 8c0 2.7614-2.2386 5-5 5-2.76142 0-5-2.2386-5-5 0-2.76142 2.23858-5 5-5 2.7614 0 5 2.23858 5 5zm-1.5 0c0 1.933-1.567 3.5-3.5 3.5s-3.5-1.567-3.5-3.5 1.567-3.5 3.5-3.5 3.5 1.567 3.5 3.5z" fill-rule="evenodd"/><path d="m6 11.8c-1.5464 0-2.8-1.2536-2.8-2.8s1.2536-2.8 2.8-2.8c.47563 0 .92355.11859 1.31583.32782l.46994-1.10805c-.53752-.26863-1.14399-.41977-1.78577-.41977-2.20914 0-4 1.79086-4 4 0 2.2091 1.79086 4 4 4 1.2416 0 2.35108-.5657 3.08475-1.4534l-.94921-.7356c-.5136.6051-1.27973.989-2.13554.989z"/><path d="m18.085 11.8c1.5464 0 2.8-1.2536 2.8-2.8s-1.2536-2.8-2.8-2.8c-.4757 0-.9236.11859-1.3159.32782l-.4699-1.10805c.5375-.26863 1.144-.41977 1.7858-.41977 2.2091 0 4 1.79086 4 4 0 2.2091-1.7909 4-4 4-1.2416 0-2.3511-.5657-3.0848-1.4534l.9492-.7356c.5136.6051 1.2798.989 2.1356.989z"/><path d="m12.1099 17.5007c.4189.0053.7898-.2992.8246-.7168.034-.4077-.2656-.7701-.6746-.7806-.0864-.0022-.1731-.0033-.2601-.0033-3.04048 0-5.76406 1.357-7.59813 3.4984-.23986.28-.20848.6949.05225.9556.3238.3239.85982.2772 1.16232-.0666 1.55771-1.7703 3.84021-2.8874 6.38356-2.8874.0368 0 .0734.0002.1101.0007z"/><path d="m15.25 16.75c0-.4142.3358-.75.75-.75h1.25c.2761 0 .5-.2239.5-.5v-1.25c0-.4142.3358-.75.75-.75s.75.3358.75.75v1.25c0 .2761.2239.5.5.5h1.25c.4142 0 .75.3358.75.75s-.3358.75-.75.75h-1.25c-.2761 0-.5.2239-.5.5v1.25c0 .4142-.3358.75-.75.75s-.75-.3358-.75-.75v-1.25c0-.2761-.2239-.5-.5-.5h-1.25c-.4142 0-.75-.3358-.75-.75z"/></g></svg>