<svg fill="none" height="24" viewBox="0 0 24 24" width="24" xmlns="http://www.w3.org/2000/svg"><g fill="#000"><path d="m11.9999 7.25c.4142 0 .75.33579.75.75v2.75c0 .2761.2239.5.5.5h2.75c.4142 0 .75.3358.75.75s-.3358.75-.75.75h-2.75c-.2761 0-.5.2239-.5.5v2.75c0 .4142-.3358.75-.75.75s-.75-.3358-.75-.75v-2.75c0-.2761-.2238-.5-.5-.5h-2.74998c-.41421 0-.75-.3358-.75-.75s.33579-.75.75-.75h2.74998c.2762 0 .5-.2239.5-.5v-2.75c0-.41421.3358-.75.75-.75z"/><path clip-rule="evenodd" d="m11.9999 22c5.5229 0 10-4.4772 10-10 0-5.52285-4.4771-10-10-10-5.52282 0-9.99998 4.47715-9.99998 10 0 5.5228 4.47716 10 9.99998 10zm0-1.5c4.6944 0 8.5-3.8056 8.5-8.5 0-4.69442-3.8056-8.5-8.5-8.5s-8.49998 3.80558-8.49998 8.5c0 4.6944 3.80558 8.5 8.49998 8.5z" fill-rule="evenodd"/></g></svg>