<svg fill="none" height="24" viewBox="0 0 24 24" width="24" xmlns="http://www.w3.org/2000/svg"><g fill="#000"><path d="m12.9697 21.0303c-.2929-.2929-.2929-.7677 0-1.0606l3.1161-3.1161c.1952-.1953.1952-.5119 0-.7072l-3.1161-3.1161c-.2929-.2929-.2929-.7677 0-1.0606s.7677-.2929 1.0606 0l3.1161 3.1161c.1953.1952.5119.1952.7072 0l3.1161-3.1161c.2929-.2929.7677-.2929 1.0606 0s.2929.7677 0 1.0606l-3.1161 3.1161c-.1952.1953-.1952.5119 0 .7072l3.1161 3.1161c.2929.2929.2929.7677 0 1.0606s-.7677.2929-1.0606 0l-3.1161-3.1161c-.1953-.1952-.5119-.1952-.7072 0l-3.1161 3.1161c-.2929.2929-.7677.2929-1.0606 0z"/><path clip-rule="evenodd" d="m6 3c-2.20914 0-4 1.79086-4 4v10c0 2.2091 1.79086 4 4 4h1c2.20914 0 4-1.7909 4-4v-10c0-2.20914-1.79086-4-4-4zm1 1.5h-1c-1.38071 0-2.5 1.11929-2.5 2.5v6.3358c0 .2227.26929.3343.42678.1768l5.54289-5.54293c.0188-.0188.03033-.0439.03033-.07049v-.89918c0-1.38071-1.11929-2.5-2.5-2.5zm-3.5 11.6008c0-.0266.01153-.0517.03033-.0705l5.54289-5.5429c.15749-.1575.42678-.0459.42678.1768v6.3358c0 1.3807-1.11929 2.5-2.5 2.5h-1c-1.38071 0-2.5-1.1193-2.5-2.5z" fill-rule="evenodd"/></g></svg>