<svg fill="none" height="24" viewBox="0 0 24 24" width="24" xmlns="http://www.w3.org/2000/svg"><g fill="#000"><path clip-rule="evenodd" d="m17 8c0 2.7614-2.2386 5-5 5-2.76142 0-5-2.2386-5-5 0-2.76142 2.23858-5 5-5 2.7614 0 5 2.23858 5 5zm-1.5 0c0 1.933-1.567 3.5-3.5 3.5s-3.5-1.567-3.5-3.5 1.567-3.5 3.5-3.5 3.5 1.567 3.5 3.5z" fill-rule="evenodd"/><path d="m12.1099 17.5007c.4189.0053.7898-.2992.8246-.7168.034-.4077-.2656-.7701-.6746-.7806-.0864-.0022-.1731-.0033-.2601-.0033-3.04048 0-5.76406 1.357-7.59813 3.4984-.23986.28-.20848.6949.05225.9556.3238.3239.85982.2772 1.16232-.0666 1.55771-1.7703 3.84021-2.8874 6.38356-2.8874.0368 0 .0734.0002.1101.0007z"/><path d="m17.9983 13.9425c.2852-.2567.7182-.2567 1.0034 0l2.5 2.25c.3079.2771.3329.7513.0558 1.0592s-.7513.3329-1.0592.0558l-.4138-.3724c-.3218-.2896-.8345-.0613-.8345.3716v2.6933c0 .4142-.3358.75-.75.75s-.75-.3358-.75-.75v-2.6933c0-.4329-.5127-.6612-.8345-.3716l-.4138.3724c-.3079.2771-.7821.2521-1.0592-.0558s-.2521-.7821.0558-1.0592z"/></g></svg>