<svg fill="none" height="24" viewBox="0 0 24 24" width="24" xmlns="http://www.w3.org/2000/svg"><path clip-rule="evenodd" d="m12.0001 2.25c-4.94741 0-9.03308 3.68416-9.66523 8.459-.13711 1.0356.29806 1.994.94287 2.6746l7.45186 7.8659c.6903.7286 1.8506.7286 2.5409 0l7.4519-7.8659c.6448-.6806 1.08-1.639.9429-2.6746-.6322-4.77484-4.7179-8.459-9.6652-8.459zm-7.38117 8.9046c-.463-.1389-.75738-.5993-.64562-1.0696.86324-3.63268 4.12994-6.335 8.02679-6.335 3.8968 0 7.1635 2.70231 8.0267 6.3349.1118.4704-.1826.9308-.6456 1.0697-.1763.0529-.3291.0963-.3903.1075-1.3213.2402-3.5252.4879-6.9909.4879-3.46568 0-5.66949-.2477-6.9908-.4879-.06124-.0112-.21397-.0546-.39027-.1075zm.86562 1.7054c-.23908-.0353-.39469.2554-.22848.4308l4.50931 4.7598c.07622.0805.20726-.0043.16506-.1068l-1.75095-4.2523c-.14448-.3509-.47522-.5886-.85331-.621-.61565-.0527-1.23042-.1201-1.84163-.2105zm8.58485 5.0841c-.0422.1025.0888.1873.165.1069l4.5097-4.7602c.1662-.1755.0106-.4661-.2285-.4308-.6113.0904-1.2261.1578-1.8418.2105-.3781.0324-.7089.2701-.8533.621zm.1328-4.2621c.0914-.2221-.0774-.4645-.3175-.4577-.5851.0166-1.2125.0257-1.8847.0257s-1.2996-.0091-1.8848-.0257c-.24005-.0068-.40887.2356-.31742.4577l1.89702 4.6071c.1122.2725.4981.2725.6103 0z" fill="#000" fill-rule="evenodd"/></svg>