<svg fill="none" height="24" viewBox="0 0 24 24" width="24" xmlns="http://www.w3.org/2000/svg"><path clip-rule="evenodd" d="m4.67443 18.3332c.03439-.1575-.00611-.3214-.10615-.4477-1.46905-1.8552-2.57726-5.4835-.12683-8.83713 4.00329-5.47889 14.31155-8.218312 15.96295-6.57463 1.6513 1.64368 0 11.70476-6.6054 15.88866-3.0235 1.9151-5.39746 1.9263-7.10681 1.1708-.32404-.1432-.71852.0368-.75599.3891-.04572.4297-.06938.8721-.06938 1.3278 0 .4142-.33578.75-.75.75-.41421 0-.75-.3358-.75-.75 0-1.0331.10808-2.0036.30761-2.9169zm.97816-8.39988c1.74887-2.39349 5.00511-4.31323 8.15351-5.42945 1.5537-.55083 2.9961-.87494 4.1022-.97255.556-.04906.9775-.03631 1.2631.00942.108.01729.1943.09634.2206.20253.0036.01442.0072.02957.0108.04546.0652.28736.1066.70292.0954 1.24148-.0224 1.07336-.2498 2.47243-.7296 3.98049-.9674 3.0403-2.867 6.2443-5.7722 8.0845-1.8956 1.2007-3.36091 1.4811-4.42937 1.3883-.73092-.0634-1.3528-.3079-1.87041-.6534-.17293-.1154-.23804-.3351-.1687-.5311 1.49941-4.2382 5.33168-7.067 9.22958-9.40577.3552-.21311.4704-.6738.2573-1.02899-.2131-.35518-.6738-.47036-1.029-.25725-3.4974 2.09844-7.29694 4.78091-9.26525 8.75211-.18547.3742-.71181.3995-.85463.0071-.55474-1.5243-.59949-3.5358.78667-5.43288z" fill="#000" fill-rule="evenodd"/></svg>