<svg fill="none" height="24" viewBox="0 0 24 24" width="24" xmlns="http://www.w3.org/2000/svg"><g fill="#000"><path d="m8.14203 5.91248c-.23204-.13396-.51792-.13396-.74995 0l-.54905.31696c-.16668.09623-.16668.3368 0 .43303l.54703.3158c.11464.06618.15568.20974.11233.33482-.06873.19833-.09826.40165-.08667.6061.03136.55296.36196 1.08637.94537 1.5253.58341.43892 1.39032.76131 2.30741.92191.7331.1284 1.5073.1482 2.2519.0602.2305-.0273.4652.0128.6662.1288l.4403.2542c.2321.134.518.134.75 0l.549-.3169c.1667-.0963.1667-.3368 0-.4331l-.1969-.11365c-.0693-.04002-.0661-.14169.0044-.17973.0652-.03524.1288-.07161.1905-.10907.1082-.06574.244-.07177.3537-.00843l.1802.10402c.232.13396.5179.13396.7499 0l.5491-.31697c.1666-.09622.1666-.33679 0-.43302l-.547-.31577c-.1147-.06618-.1557-.20975-.1124-.33483.0221-.06355.0401-.12762.054-.19211.0385-.17815-.1125-.32749-.2948-.32749h-1.1771c-.1823 0-.3259.15178-.3877.32324-.0776.21549-.2325.4205-.4569.60133-.3346.26958-.8071.47189-1.3512.57849-.544.10661-1.1321.11217-1.6819.01589-.5498-.09627-1.0335-.28954-1.3832-.55266-.34973-.26312-.54791-.58287-.56671-.91435-.01879-.33148.14274-.65803.46191-.93379.3192-.27576.78-.48688 1.3176-.60371.4183-.09088.8668-.12115 1.3066-.0897.2221.01589.4381-.09703.5319-.29906l.1324-.28536c.0925-.19922-.0319-.43142-.2505-.4524-.5555-.05328-1.1225-.04698-1.6726.01809-.2304.02726-.4652-.01281-.6661-.12883l-.44026-.25414c-.23204-.13395-.51791-.13395-.74995 0l-.54905.31697c-.16668.09622-.16668.3368 0 .43302l.19687.11366c.06933.04002.06607.14168-.00436.17972-.06527.03526-.12879.07163-.19047.10908-.10828.06575-.244.07177-.35371.00844z"/><path clip-rule="evenodd" d="m2 7.75c0-3.17564 4.47715-5.75 10-5.75 5.5228 0 10 2.57436 10 5.75v8.5c0 3.1756-4.4772 5.75-10 5.75-5.52285 0-10-2.5744-10-5.75zm16.3234 2.7655c1.5844-.91105 2.1766-1.94354 2.1766-2.7655s-.5922-1.85445-2.1766-2.7655c-1.5438-.88766-3.7762-1.4845-6.3234-1.4845s-4.77962.59684-6.32336 1.4845c-1.58444.91105-2.17664 1.94354-2.17664 2.7655s.5922 1.85445 2.17664 2.7655c1.54374.8877 3.77616 1.4845 6.32336 1.4845s4.7796-.5968 6.3234-1.4845zm-6.3234 2.9845c3.3101 0 6.2446-.9248 8.0647-2.3495.1717-.1344.4353-.0161.4353.202v.6475c0 .822-.5922 1.8545-2.1766 2.7655-1.5438.8877-3.7762 1.4845-6.3234 1.4845s-4.77962-.5968-6.32336-1.4845c-1.58444-.911-2.17664-1.9435-2.17664-2.7655v-.6475c0-.2181.2636-.3364.43533-.202 1.82006 1.4247 4.75455 2.3495 8.06467 2.3495zm8.0647 1.9005c.1717-.1344.4353-.0161.4353.202v.3975c0 .822-.5922 2.1045-2.1766 3.0155-1.5438.8877-3.7762 1.4845-6.3234 1.4845s-4.77962-.5968-6.32336-1.4845c-1.58444-.911-2.17664-1.9435-2.17664-2.7655v-.6475c0-.2181.2636-.3364.43533-.202 1.82006 1.4247 4.75455 2.3495 8.06467 2.3495 3.3101 0 6.2446-.9248 8.0647-2.3495z" fill-rule="evenodd"/></g></svg>