<svg fill="none" height="44" viewBox="0 0 44 44" width="44" xmlns="http://www.w3.org/2000/svg"><circle cx="22" cy="22" fill="#eef2f5" r="22"/><path d="m23.7145 15.6187c-.3418-.3417-.3418-.8957 0-1.2374.3417-.3417.8957-.3417 1.2374 0l7 7c.3417.3417.3417.8957 0 1.2374l-7 7c-.3417.3417-.8957.3417-1.2374 0-.3418-.3417-.3418-.8957 0-1.2374l4.5104-4.5105c.3675-.3675.1072-.9958-.4125-.9958h-15.1459c-.4832 0-.875-.3918-.875-.875s.3918-.875.875-.875h15.1459c.5197 0 .78-.6283.4125-.9958z" fill="#939ba1"/></svg>