<svg fill="none" height="12" viewBox="0 0 10 12" width="10" xmlns="http://www.w3.org/2000/svg"><path clip-rule="evenodd" d="m5.95235 3.34577 2.42007 2.48756c.36684.37707.97426.38076 1.34669-.00206.37499-.38549.37329-1.00257.00201-1.38425l-4.0501-4.163047c-.18309-.1881984-.42612-.28338491-.66994-.28392818-.24704-.00242926-.48942.09342618-.67475.28392818l-4.050103 4.163047c-.3668425.37707-.3704302 1.00143.002002 1.38425.375029.38549.975371.38374 1.346691.00206l2.42008-2.48756v7.67843c0 .5291.42697.9758.95367.9758.53037 0 .95367-.4369.95367-.9758z" fill="#fff" fill-rule="evenodd"/></svg>