<svg fill="none" height="12" viewBox="0 0 14 12" width="14" xmlns="http://www.w3.org/2000/svg"><g fill="#939ba1"><path d="m6.99971.668945c-.27977 0-.50657.226799-.50657.506565v9.64829c0 .2798.2268.5066.50657.5066s.50657-.2268.50657-.5066v-9.64828c0-.279776-.2268-.506575-.50657-.506575z"/><path d="m2.38654 2.97442c0-.27977.22679-.50657.50657-.50657.27977 0 .50657.2268.50657.50657v6.05051c0 .27977-.2268.50657-.50657.50657-.27978 0-.50657-.2268-.50657-.50657z"/><path d="m4.43992 4.43813c0-.27977.2268-.50657.50657-.50657s.50657.2268.50657.50657v3.12313c0 .27977-.2268.50657-.50657.50657s-.50657-.2268-.50657-.50657z"/><path d="m.333313 5.35146c0-.27977.226799-.50657.50657-.50657.279767 0 .506567.2268.506567.50657v1.29644c0 .27977-.2268.50657-.506567.50657-.279771 0-.50657-.2268-.50657-.50657z"/><path d="m9.0531 3.93156c-.27977 0-.50657.2268-.50657.50657v3.1231c0 .27977.2268.50657.50657.50657s.50657-.2268.50657-.50657v-3.1231c0-.27977-.2268-.50657-.50657-.50657z"/><path d="m11.1063 2.46785c-.2797 0-.5065.2268-.5065.50657v6.05051c0 .27977.2268.50657.5065.50657.2798 0 .5066-.2268.5066-.50657v-6.05051c0-.27977-.2268-.50657-.5066-.50657z"/><path d="m12.6531 5.35146c0-.27977.2268-.50657.5066-.50657s.5066.2268.5066.50657v1.29645c0 .27978-.2268.50657-.5066.50657s-.5066-.22679-.5066-.50657z"/></g></svg>