<svg width="14" height="12" viewBox="0 0 14 12" fill="none" xmlns="http://www.w3.org/2000/svg">
<path d="M6.99971 0.668945C6.71994 0.668945 6.49314 0.895744 6.49314 1.17551V10.8238C6.49314 11.1036 6.71994 11.3304 6.99971 11.3304C7.27948 11.3304 7.50628 11.1036 7.50628 10.8238V1.17552C7.50628 0.895744 7.27948 0.668945 6.99971 0.668945Z" fill="#939BA1"/>
<path d="M2.38654 2.97442C2.38654 2.69465 2.61333 2.46785 2.89311 2.46785C3.17288 2.46785 3.39968 2.69465 3.39968 2.97442V9.02493C3.39968 9.3047 3.17288 9.5315 2.89311 9.5315C2.61333 9.5315 2.38654 9.3047 2.38654 9.02493V2.97442Z" fill="#939BA1"/>
<path d="M4.43992 4.43813C4.43992 4.15836 4.66672 3.93156 4.94649 3.93156C5.22626 3.93156 5.45306 4.15836 5.45306 4.43813V7.56126C5.45306 7.84103 5.22626 8.06783 4.94649 8.06783C4.66672 8.06783 4.43992 7.84103 4.43992 7.56126V4.43813Z" fill="#939BA1"/>
<path d="M0.333313 5.35146C0.333313 5.07169 0.560112 4.84489 0.839883 4.84489C1.11965 4.84489 1.34645 5.07169 1.34645 5.35146V6.6479C1.34645 6.92767 1.11965 7.15447 0.839883 7.15447C0.560112 7.15447 0.333313 6.92767 0.333313 6.6479V5.35146Z" fill="#939BA1"/>
<path d="M9.0531 3.93156C8.77333 3.93156 8.54653 4.15836 8.54653 4.43813V7.56123C8.54653 7.841 8.77333 8.0678 9.0531 8.0678C9.33287 8.0678 9.55967 7.841 9.55967 7.56123V4.43813C9.55967 4.15836 9.33287 3.93156 9.0531 3.93156Z" fill="#939BA1"/>
<path d="M11.1063 2.46785C10.8266 2.46785 10.5998 2.69465 10.5998 2.97442V9.02493C10.5998 9.3047 10.8266 9.5315 11.1063 9.5315C11.3861 9.5315 11.6129 9.3047 11.6129 9.02493V2.97442C11.6129 2.69465 11.3861 2.46785 11.1063 2.46785Z" fill="#939BA1"/>
<path d="M12.6531 5.35146C12.6531 5.07169 12.8799 4.84489 13.1597 4.84489C13.4395 4.84489 13.6663 5.07169 13.6663 5.35146V6.64791C13.6663 6.92769 13.4395 7.15448 13.1597 7.15448C12.8799 7.15448 12.6531 6.92769 12.6531 6.64791V5.35146Z" fill="#939BA1"/>
</svg>
