<svg fill="none" height="24" viewBox="0 0 24 24" width="24" xmlns="http://www.w3.org/2000/svg"><g fill="#000"><path d="m16.5303 15.5303c-.2929.2929-.7677.2929-1.0606 0l-2.1161-2.1161c-.1953-.1952-.5119-.1952-.7072 0l-2.1161 2.1161c-.2929.2929-.76774.2929-1.06063 0s-.29289-.7677 0-1.0606l2.11613-2.1161c.1952-.1953.1952-.5119 0-.7072l-2.11613-2.11607c-.29289-.29289-.29289-.76777 0-1.06066s.76773-.29289 1.06063 0l2.1161 2.11613c.1953.1952.5119.1952.7072 0l2.1161-2.11613c.2929-.29289.7677-.29289 1.0606 0s.2929.76777 0 1.06066l-2.1161 2.11607c-.1952.1953-.1952.5119 0 .7072l2.1161 2.1161c.2929.2929.2929.7677 0 1.0606z"/><path clip-rule="evenodd" d="m6.79911 6.56116c.75718-.98434 1.92862-1.56116 3.1705-1.56116h7.03039c1.6569 0 3 1.34315 3 3v8c0 1.6569-1.3431 3-3 3h-7.03039c-1.24188 0-2.41331-.5768-3.1705-1.5612l-3.59173-4.6692c-.13447-.1748-.20738-.3892-.20738-.6097v-.3198c0-.2205.07291-.4349.20738-.6097zm3.1705-.06116h7.03039c.8284 0 1.5.67157 1.5 1.5v8c0 .8284-.6716 1.5-1.5 1.5h-7.03039c-.77618 0-1.50832-.3605-1.98156-.9757l-3.24571-4.2194c-.13825-.1798-.13825-.43 0-.6098l3.24571-4.21938c.47324-.61521 1.20538-.97572 1.98156-.97572z" fill-rule="evenodd"/></g></svg>