<svg fill="none" height="14" viewBox="0 0 14 14" width="14" xmlns="http://www.w3.org/2000/svg"><path clip-rule="evenodd" d="m6.99967 13.6668c-3.68189 0-6.666662-2.9847-6.666662-6.66664 0-3.6819 2.984772-6.666664 6.666662-6.666664 3.68193 0 6.66663 2.984764 6.66663 6.666664 0 3.68194-2.9847 6.66664-6.66663 6.66664zm-4.08759-3.2862c-.13833.1384-.36627.1288-.4821-.0288-.68961-.93868-1.09697-2.09759-1.09697-3.35164 0-3.12961 2.53705-5.66666 5.66666-5.66666 1.25406 0 2.41296.40736 3.35163 1.09697.1577.11583.1672.34377.0289.4821zm.70711.7072c-.13833.1383-.12879.3662.02887.4821.93866.6896 2.09756 1.0969 3.35161 1.0969 3.12963 0 5.66663-2.537 5.66663-5.66664 0-1.25405-.4073-2.41296-1.0969-3.35161-.1159-.15766-.3438-.1672-.4821-.02887z" fill="#4360df" fill-rule="evenodd"/></svg>