<svg fill="none" height="20" viewBox="0 0 20 20" width="20" xmlns="http://www.w3.org/2000/svg"><path clip-rule="evenodd" d="m7.95973 2.90003h.03796.00305.00305.00306.00306.00306.00306.00307.00307.00308.00308.00308.00308.00309.00309.00309.0031.0031.0031.0031.00311.00311.00312.00312.00312.00312.00313.00313.00314.00313.00314.00315.00314.00315.00315.00316.00316.00316.00317.00317.00317.00317.00318.00318.00319.00318.00319.0032.0032.0032.0032.00321.00321.00321.00321.00322.00323.00322.00323.00323.00324.00324.00324.00324.00325.00325.00326.00326.00326.00326.00327.00327.00327.00328.00328.00328.00329.00329.00329.0033.0033.0033.00331.00331.00331.00331.00332.00332.00333.00333.00333.00333.00334.00334.00335.00335.00335.00335.00336.00336.00337.00336.00337.00338.00338.00338.00338.00339.00339.00339.0034.0034.0034.00341.00341.00341.00342.00342.00342.00343.00343.00343.00344.00344.00344.00345.00345.00345.00346.00345.00347.00346.00347.00348.00347.00348.00348.00349.00349.00349.0035.0035.0035.0035.00351.00352.00351.00352.00352.00353.00353.00353.00354.00354.00354.00354.00355.00356.00355.00356.00356.00357.00357.00357.00358.00358.00358.00359.00358.0036.00359.0036.00361.0036.00361.00362.00361.00362.00362.00363.00363.00363.00364.00364.00364.00365.00365.00366.00365.00366.00367.00366.00367.00368.00368.00368.00368.00369.00369.00369.0037.0037.00371.00371.00371.00371.00372.00372.00373.00373.00373.00374.00373.00375.00374.00375.00375.00376.00376.00376.00377.00377.00377.00378.00378.00378.00379.00379.0038.00379.0038.00381.00381.00381.00381.00382.00382.00383.00383.00383.00384.00384.00384.00384.00385.00386.00385.00386.00387.00386.00388.00387.00388.00388.00388.00389.00389.0039.0039.0039.0039.00391.00392.00391.00392.00392.00393.00393.00394.00393.00394.00395.00395.00395.00395.00396.00396.00397.00397.00397.00398.00398.00398.00399.00399.00399.004.004.004.00401.00401.00402.00402.00402.00402.00403.00404.00403.00404.00405.00404.00406.00405.00406.00406.00406.00407.00408.00407.00408.00408.00409.00409.00409.0041.0041.00411.00411.00411.00411.00412.00412.00413.00413.00413.00414.00414.00415.00414.00416.00415.00416.00416.00417.00417.00417.00418.00418.00418.00419.00419.0042.0042.0042.0042.00421.00422.00421.00422.00423.00423.00423.00423.00424.00424.00425.00425.00425.00426.00426.00427.00426.00428.00427.00428.00428.00429.00429.00429.0043.0043.00431.00431.00431.00431.00432.00433.00432.00434.00433.00434.00434.00435.00434.00436.00435.00436.00437.00437.00437.00437.00438.00438.00439.00439.00439.0044.0044.00441.00441.00441.00442.00442.00442.00443.00443.00443.00444.00444.00445.00445.00445.00446.00446.00447.00446.00448.00447.00448.00449.00448.00449.0045.0045.0045.00451.00451.00451.00452.00452.00452.00453.00453.00454.00454.00455.00454.00455.00456.00456.00456.00457.00457.00457.00458.00458.00459.00459.00459.0046.0046.0046.00461.00461.00462.00462.00462.00463.00463.00464.00464.00464.00465.00465.00465.00466.00466.00467.00467.00467.00468.00468.00469.00468.0047.00469.0047.00471.00471.00471.00471.00472.00473.00472.00474.00473.00474.00474.00475.00475.00476.00475.00477.00476.00477.00478.00477.00479.00478.00479.00479.0048.0048.00481.00481.00481.00481.00483.00482.00483.00483.00484.00484c2.09799 0 3.32399.57043 3.98269 1.46232.6183.83728.6177 1.82049.6173 2.35229v.03539.03539c.0004.5318.001 1.51501-.6173 2.35228-.1802.24394-.4028.46383-.674.65458.7126.24902 1.2277.60662 1.5903 1.04312.702.8449.7013 1.8458.701 2.3814v.0332.0333c.0003.5356.001 1.5365-.701 2.3814-.7287.8771-2.0727 1.4353-4.399 1.4353h-.0062-.0063-.0062-.0063-.0062-.0062-.0062-.0062-.0062-.0062-.0062-.0062-.0062-.0062-.0061-.0062-.0062-.0061-.0062-.0061-.0061-.0062-.0061-.0061-.0061-.0061-.0061-.0061-.0061-.0061-.0061-.0061-.006-.0061-.006-.0061-.006-.0061-.006-.006-.006-.0061-.006-.006-.006-.006-.006-.0059-.006-.006-.0059-.006-.006-.0059-.0059-.006-.0059-.0059-.006-.0059-.0059-.0059-.0059-.0059-.0059-.0058-.0059-.0059-.0058-.0059-.0058-.0059-.0058-.0059-.0058-.0058-.0058-.0059-.0058-.0058-.0058-.0057-.0058-.00581-.00577-.00577-.00576-.00576-.00575-.00575-.00574-.00573-.00573-.00572-.00572-.00571-.00571-.0057-.0057-.00569-.00568-.00568-.00568-.00566-.00567-.00565-.00566-.00564-.00564-.00564-.00563-.00562-.00562-.00561-.00561-.0056-.0056-.00559-.00559-.00558-.00557-.00557-.00556-.00556-.00556-.00554-.00555-.00553-.00553-.00553-.00552-.00551-.00551-.00551-.0055-.00549-.00549-.00548-.00548-.00547-.00546-.00546-.00546-.00545-.00544-.00544-.00544-.00542-.00543-.00541-.00542-.0054-.0054-.0054-.00539-.00538-.00538-.00538-.00537-.00536-.00536-.00535-.00535-.00534-.00534-.00533-.00533-.00532-.00531-.00531-.00531-.0053-.00529-.00529-.00528-.00528-.00527-.00527-.00526-.00526-.00525-.00525-.00524-.00523-.00523-.00523-.00522-.00521-.00521-.0052-.0052-.0052-.00518-.00519-.00517-.00518-.00516-.00516-.00516-.00515-.00515-.00514-.00513-.00513-.00513-.00512-.00511-.00511-.00511-.00509-.0051-.00509-.00508-.00508-.00507-.00507-.00506-.00505-.00506-.00504-.00504-.00504-.00503-.00503-.00502-.00501-.00501-.00501-.005-.00499-.00499-.00499-.00497-.00498-.00497-.00496-.00496-.00495-.00495-.00494-.00494-.00493-.00493-.00492-.00492-.00491-.00491-.0049-.0049-.00489-.00489-.00488-.00487-.00487-.00487-.00486-.00486-.00485-.00484-.00484-.00484-.00483-.00482-.00482-.00482-.00481-.0048-.0048-.0048-.00479-.00478-.00478-.00478-.00476-.00477-.00476-.00475-.00475-.00475-.00473-.00474-.00473-.00472-.00472-.00471-.00471-.00471-.0047-.00469-.00469-.00468-.00468-.00467-.00467-.00467-.00465-.00466-.00465-.00464-.00464-.00463-.00463-.00463-.00461-.00462-.00461-.0046-.0046-.00459-.00459-.00459-.00458-.00457-.00457-.00456-.00456-.00456-.00454-.00455-.00454-.00453-.00453-.00453-.00452-.00451-.00451-.00451-.0045-.00449-.00449-.00449-.00448-.00447-.00447-.00447-.00446-.00446-.00445-.00444-.00444-.00444-.00443-.00443-.00442-.00442-.00441-.00441-.0044-.0044-.00439-.00439-.00438-.00438-.00437-.00437-.00436-.00436-.00435-.00435-.00435-.00434-.00433-.00433-.00433-.00432-.00431-.00431-.00431-.0043-.00429-.0043-.00428-.00428-.00428-.00427-.00427-.00426-.00426-.00425-.00425-.00424-.00424-.00424-.00422-.00423-.00422-.00421-.00421-.00421-.0042-.00419-.0042-.00418-.00418-.00418-.00417-.00417-.00416-.00416-.00415-.00415-.00415-.00413-.00414-.00413-.00412-.00412-.00412-.00411-.00411-.0041-.00409-.0041-.00408-.00409-.00407-.00408-.00406-.00407-.00406-.00405-.00405-.00405-.00404-.00403-.00404-.00402-.00402-.00402-.00401-.00401-.00401-.00399-.004-.00399-.00398-.00398-.00398-.00397-.00397-.00396-.00396-.00395-.00395-.00394-.00394-.00393-.00393-.00393-.00392-.00391-.00391-.00391-.0039-.0039-.00389-.00389-.00389-.00388-.00387-.00387-.00387-.00386-.00385-.00385-.00385-.00384-.00384-.00384-.00383-.00382-.00382-.00382-.00381-.0038-.00381-.00379-.0038-.00379-.00378-.00378-.00377-.00377-.00377-.00376-.00376-.00375-.00375-.00374-.00374-.00374-.00373-.00372-.00372-.00372-.00371-.00371-.0037-.0037-.0037-.00369-.00368-.00368-.00368-.00367-.00367-.00366-.00366-.00366-.00365-.00364-.00364-.03797c-.43801.0001-.82528.0001-1.13754-.0419-.33866-.0456-.67707-.1503-.95342-.4267-.27651-.2765-.38111-.6153-.42667-.9542-.04203-.3126-.042-.7004-.04197-1.1392l.00001-.038v-3.9-.6-.59997-3.9l-.00001-.03795c-.00003-.43884-.00006-.82666.04197-1.13927.04556-.33885.15016-.67764.42667-.95415.27636-.27637.61481-.38106.95349-.42666.31229-.04204.69961-.04201 1.1377-.04197zm2.04027 1.39997h-2.00222c-.4933 0-.7827.0017-.98887.02946-.08268.01113-.1268.02362-.14786.03149-.00789.02111-.02041.06539-.03157.14838-.02778.20661-.02948.49665-.02948.99067v3.7h3.2c1.8693 0 2.568-.50331 2.8565-.89398.3236-.43825.3435-.98897.3435-1.55602s-.0199-1.11777-.3435-1.55602c-.2885-.39067-.9872-.89398-2.8565-.89398zm-3.13107.04457c.00013.00033-.00104.00286-.00387.00661.00233-.00505.00375-.00693.00387-.00661zm-.01761.02038c-.00376.00285-.0063.00402-.00663.00389s.00155-.00155.00663-.00389zm3.64868 6.43505h-3.7v3.7c0 .494.0017.7841.02948.9907.01116.083.02368.1272.03157.1484.02105.0078.06516.0203.14782.0314.20612.0278.49546.0295.98869.0295h2.50244c2.1482 0 2.9812-.5196 3.3221-.93.3569-.4295.3779-.9582.3779-1.52s-.021-1.0905-.3779-1.52c-.3409-.4104-1.1739-.93-3.3221-.93zm-3.6553 4.8312c.00033-.0002.00287.001.00664.0039-.00508-.0024-.00697-.0038-.00664-.0039zm.02036.0176c.00283.0038.004.0063.00387.0066-.00012.0004-.00154-.0015-.00387-.0066z" fill="#09101c" fill-rule="evenodd"/></svg>