<svg width="24" height="24" viewBox="0 0 24 24" fill="none" xmlns="http://www.w3.org/2000/svg">
<path d="M5.99909 19.1962C5.99909 19.6381 6.37127 19.9962 6.83037 19.9962H12.6457C16.1399 19.9962 18.0009 18.1221 18.0009 15.5764C18.0009 13.2499 16.4072 11.8293 14.6713 11.7008C14.6217 11.6972 14.5827 11.6578 14.5827 11.61C14.5827 11.5685 14.6124 11.5324 14.6542 11.5221C16.2356 11.1294 17.3932 9.95742 17.3932 8.10332C17.3932 5.706 15.6613 4.00366 12.2279 4.00366H6.83037C6.37127 4.00366 5.99909 4.36183 5.99909 4.80366V19.1962ZM10.1195 17.2319C9.66037 17.2319 9.2882 16.8737 9.2882 16.4319V13.7839C9.2882 13.342 9.66037 12.9839 10.1195 12.9839H12.0456C13.6256 12.9839 14.6055 13.9209 14.6055 15.2406C14.6055 16.4432 13.8079 17.2319 11.9696 17.2319H10.1195ZM10.1195 10.6959C9.66037 10.6959 9.2882 10.3377 9.2882 9.89586V7.53677C9.2882 7.09494 9.66037 6.73677 10.1195 6.73677H11.7873C13.2458 6.73677 14.0737 7.50984 14.0737 8.66556C14.0737 9.93059 13.071 10.6959 11.7265 10.6959H10.1195Z" fill="black"/>
</svg>
