<svg width="21" height="14" viewBox="0 0 21 14" fill="none" xmlns="http://www.w3.org/2000/svg">
<path d="M18.5 0.999984H6.72C5.61 -0.230016 3.71 -0.320016 2.5 0.799984C1.86 1.35998 1.5 2.15998 1.5 2.99998V12C1.23478 12 0.98043 12.1053 0.792893 12.2929C0.605357 12.4804 0.5 12.7348 0.5 13V14H8.5V13C8.5 12.7348 8.39464 12.4804 8.20711 12.2929C8.01957 12.1053 7.76522 12 7.5 12V4.99998H18.5C19.0304 4.99998 19.5391 4.78927 19.9142 4.4142C20.2893 4.03912 20.5 3.53042 20.5 2.99998C20.5 2.46955 20.2893 1.96084 19.9142 1.58577C19.5391 1.2107 19.0304 0.999984 18.5 0.999984ZM6 12H3V5.59998C3.93 6.13998 5.07 6.13998 6 5.59998V12ZM4.5 4.49998C4.10218 4.49998 3.72064 4.34195 3.43934 4.06064C3.15804 3.77934 3 3.39781 3 2.99998C3 2.60216 3.15804 2.22063 3.43934 1.93932C3.72064 1.65802 4.10218 1.49998 4.5 1.49998C4.89782 1.49998 5.27936 1.65802 5.56066 1.93932C5.84196 2.22063 6 2.60216 6 2.99998C6 3.39781 5.84196 3.77934 5.56066 4.06064C5.27936 4.34195 4.89782 4.49998 4.5 4.49998ZM9 3.99998L7.5 1.99998H9L10.5 3.99998H9ZM13 3.99998L11.5 1.99998H13L14.5 3.99998H13ZM17 3.99998L15.5 1.99998H17L18.5 3.99998H17Z" fill="#4360DF"/>
</svg>
