<svg fill="none" height="14" viewBox="0 0 21 14" width="21" xmlns="http://www.w3.org/2000/svg"><path d="m18.5.999984h-11.78c-1.11-1.23-3.01-1.32-4.22-.2-.64.559996-1 1.359996-1 2.199996v9.00002c-.26522 0-.51957.1053-.707107.2929-.187536.1875-.292893.4419-.292893.7071v1h8v-1c0-.2652-.10536-.5196-.29289-.7071-.18754-.1876-.44189-.2929-.70711-.2929v-7.00002h11c.5304 0 1.0391-.21071 1.4142-.58578.3751-.37508.5858-.88378.5858-1.41422 0-.53043-.2107-1.03914-.5858-1.41421s-.8838-.585786-1.4142-.585786zm-12.5 11.000016h-3v-6.40002c.93.54 2.07.54 3 0zm-1.5-7.50002c-.39782 0-.77936-.15803-1.06066-.43934-.2813-.2813-.43934-.66283-.43934-1.06066 0-.39782.15804-.77935.43934-1.06066.2813-.2813.66284-.43934 1.06066-.43934s.77936.15804 1.06066.43934c.2813.28131.43934.66284.43934 1.06066 0 .39783-.15804.77936-.43934 1.06066-.2813.28131-.66284.43934-1.06066.43934zm4.5-.5-1.5-2h1.5l1.5 2zm4 0-1.5-2h1.5l1.5 2zm4 0-1.5-2h1.5l1.5 2z" fill="#4360df"/></svg>