<svg width="24" height="24" viewBox="0 0 24 24" fill="none" xmlns="http://www.w3.org/2000/svg">
<path d="M11.3001 2.5C11.3001 2.1134 11.6137 1.79981 12.0003 1.7998C12.3869 1.7998 12.7005 2.1134 12.7005 2.5V9.2998H17.0287C17.8526 9.2998 18.5581 9.89095 18.7025 10.7021L20.4808 20.7021C20.666 21.7437 19.8649 22.7001 18.807 22.7002H5.1937C4.13582 22.7001 3.33471 21.7437 3.51987 20.7021L5.29819 10.7021C5.44258 9.89095 6.14804 9.2998 6.97202 9.2998H11.3001V2.5ZM4.89878 20.9473C4.86611 21.131 5.00706 21.2997 5.1937 21.2998H8.38218L8.80601 17.9131C8.85402 17.5295 9.20368 17.2577 9.58726 17.3057C9.97081 17.3537 10.2426 17.7033 10.1947 18.0869L9.79331 21.2998H14.2396L13.8031 16.0586C13.771 15.6735 14.0567 15.3351 14.4417 15.3027C14.8269 15.2706 15.1653 15.5564 15.1976 15.9414L15.6439 21.2998H18.807C18.9936 21.2997 19.1346 21.131 19.1019 20.9473L17.9134 14.2627H6.08726L4.89878 20.9473ZM6.97202 10.7002C6.82666 10.7002 6.70166 10.8042 6.67612 10.9473L6.33628 12.8623H17.6644L17.3246 10.9473C17.299 10.8042 17.174 10.7002 17.0287 10.7002H6.97202Z" fill="#131D2F"/>
</svg>
