<svg width="24" height="24" viewBox="0 0 24 24" fill="none" xmlns="http://www.w3.org/2000/svg">
<path d="M9.98557 10.5481L8.55179 15.3274C8.52923 15.4026 8.59815 15.4732 8.67388 15.4526L13.9449 14.015C13.979 14.0057 14.0057 13.979 14.015 13.9449L15.4492 8.68627C15.4705 8.60803 15.3948 8.53827 15.3185 8.56598L10.0472 10.4828C10.0175 10.4936 9.99465 10.5178 9.98557 10.5481Z" stroke="#131D2F" stroke-width="1.4"/>
<path d="M21 12C21 16.9706 16.9706 21 12 21C7.02944 21 3 16.9706 3 12C3 7.02944 7.02944 3 12 3C16.9706 3 21 7.02944 21 12Z" stroke="#131D2F" stroke-width="1.4"/>
</svg>
