<svg fill="none" height="24" viewBox="0 0 24 24" width="24" xmlns="http://www.w3.org/2000/svg"><g fill="#939ba1"><path clip-rule="evenodd" d="m16.25 2.25c0 .27614-.2239.5-.5.5h-7.5c-.27614 0-.5-.22386-.5-.5v-.5c0-.41421-.33579-.75-.75-.75s-.75.33579-.75.75v.75c0 .13807-.11193.25-.25.25-2.20914 0-4 1.79086-4 4v10c0 2.2091 1.79086 4 4 4h12c2.2091 0 4-1.7909 4-4v-10c0-2.20914-1.7909-4-4-4-.1381 0-.25-.11193-.25-.25v-.75c0-.41421-.3358-.75-.75-.75s-.75.33579-.75.75zm-9.25 3.25c-.41421 0-.75-.33579-.75-.75v-.25c0-.13807-.11193-.25-.25-.25-1.38071 0-2.5 1.11929-2.5 2.5v.75c0 .27614.22386.5.5.5h16c.2761 0 .5-.22386.5-.5v-.75c0-1.38071-1.1193-2.5-2.5-2.5-.1381 0-.25.11193-.25.25v.25c0 .41421-.3358.75-.75.75s-.75-.33579-.75-.75c0-.27614-.2239-.5-.5-.5h-7.5c-.27614 0-.5.22386-.5.5 0 .41421-.33579.75-.75.75zm13 4c.2761 0 .5.22386.5.5v6.75c0 1.3807-1.1193 2.5-2.5 2.5h-12c-1.38071 0-2.5-1.1193-2.5-2.5v-6.75c0-.27614.22386-.5.5-.5z" fill-rule="evenodd"/><path d="m5.8 11.75c0-.5523.44772-1 1-1h.5c.55228 0 1 .4477 1 1v.5c0 .5523-.44772 1-1 1h-.5c-.55228 0-1-.4477-1-1z"/><path d="m5.8 16.25c0-.5523.44772-1 1-1h.5c.55228 0 1 .4477 1 1v.5c0 .5523-.44772 1-1 1h-.5c-.55228 0-1-.4477-1-1z"/><path d="m10.75 11.75c0-.5523.4477-1 1-1h.5c.5523 0 1 .4477 1 1v.5c0 .5523-.4477 1-1 1h-.5c-.5523 0-1-.4477-1-1z"/><path d="m10.75 16.25c0-.5523.4477-1 1-1h.5c.5523 0 1 .4477 1 1v.5c0 .5523-.4477 1-1 1h-.5c-.5523 0-1-.4477-1-1z"/><path d="m15.7 11.75c0-.5523.4477-1 1-1h.5c.5523 0 1 .4477 1 1v.5c0 .5523-.4477 1-1 1h-.5c-.5523 0-1-.4477-1-1z"/><path d="m15.7 16.25c0-.5523.4477-1 1-1h.5c.5523 0 1 .4477 1 1v.5c0 .5523-.4477 1-1 1h-.5c-.5523 0-1-.4477-1-1z"/></g></svg>