<svg fill="none" height="24" viewBox="0 0 24 24" width="24" xmlns="http://www.w3.org/2000/svg"><g clip-rule="evenodd" fill="#000" fill-rule="evenodd"><path d="m18 12c0 2.7614-2.2386 5-5 5s-5-2.2386-5-5c0-2.76142 2.2386-5 5-5s5 2.23858 5 5zm-1.5 0c0 1.933-1.567 3.5-3.5 3.5s-3.5-1.567-3.5-3.5 1.567-3.5 3.5-3.5 3.5 1.567 3.5 3.5z"/><path d="m2 7c0-2.20914 1.79086-4 4-4h12c2.2091 0 4 1.79086 4 4v10c0 2.2091-1.7909 4-4 4h-12c-2.20914 0-4-1.7909-4-4zm4-2.5h12c1.3807 0 2.5 1.11929 2.5 2.5v10c0 1.3807-1.1193 2.5-2.5 2.5h-12c-1.38071 0-2.5-1.1193-2.5-2.5v-10c0-1.38071 1.11929-2.5 2.5-2.5z"/></g></svg>