<svg fill="none" height="24" viewBox="0 0 24 24" width="24" xmlns="http://www.w3.org/2000/svg"><path clip-rule="evenodd" d="m12 22c-5.52285 0-10-4.4772-10-10 0-5.52285 4.47715-10 10-10 5.5228 0 10 4.47715 10 10 0 5.5228-4.4772 10-10 10zm-6.13139-4.9293c-.2075.2075-.5494.1932-.72315-.0433-1.03442-1.408-1.64546-3.1463-1.64546-5.0274 0-4.69442 3.80558-8.5 8.5-8.5 1.8811 0 3.6194.61104 5.0274 1.64546.2365.17375.2508.51565.0433.72316zm1.06067 1.0607c-.20751.2075-.19319.5494.0433.7231 1.40798 1.0345 3.14632 1.6455 5.02742 1.6455 4.6944 0 8.5-3.8056 8.5-8.5 0-1.8811-.611-3.61944-1.6455-5.02742-.1737-.23649-.5156-.25081-.7231-.0433z" fill="#000" fill-rule="evenodd"/></svg>