<svg fill="none" height="24" viewBox="0 0 24 24" width="24" xmlns="http://www.w3.org/2000/svg"><path clip-rule="evenodd" d="m12.2932 3.72698 8.1321 15.92722c.1072.2098.0933.4457-.0059.6301-.0974.1811-.2128.2157-.2873.2157h-16.26419c-.07456 0-.18989-.0346-.28733-.2157-.09923-.1844-.11307-.4203-.00592-.6301l8.13214-15.92722c.0565-.11066.1175-.16254.1588-.18796.0444-.02728.0904-.03902.1344-.03902s.09.01174.1344.03902c.0413.02542.1023.0773.1588.18796zm-1.9224-.6821c.7113-1.39317 2.5471-1.39317 3.2584 0l8.1321 15.92722c.693 1.3573-.2058 3.0279-1.6292 3.0279h-16.26419c-1.42339 0-2.32224-1.6706-1.62919-3.0279zm2.3792 5.20512c0-.75-.3358-.75-.75-.75s-.75.33579-.75.75v6c0 .4142.3358.75.75.75s.75-.3358.75-.75zm.5 9.5c0 .6904-.5596 1.25-1.25 1.25s-1.25-.5596-1.25-1.25.5596-1.25 1.25-1.25 1.25.5596 1.25 1.25z" fill="#f6793c" fill-rule="evenodd"/></svg>