<svg fill="none" height="24" viewBox="0 0 24 24" width="24" xmlns="http://www.w3.org/2000/svg"><g clip-rule="evenodd" fill="#000" fill-rule="evenodd"><path d="m12 20.5c4.6944 0 8.5-3.8056 8.5-8.5 0-4.69442-3.8056-8.5-8.5-8.5-4.69442 0-8.5 3.80558-8.5 8.5 0 4.6944 3.80558 8.5 8.5 8.5zm0 1.5c5.5228 0 10-4.4772 10-10 0-5.52285-4.4772-10-10-10-5.52285 0-10 4.47715-10 10 0 5.5228 4.47715 10 10 10z"/><path d="m11.4898 7.62329c.0681-.40857-.2079-.79499-.6165-.86309s-.795.20792-.8631.6165l-.24258 1.4555c-.04019.24109-.24878.4178-.4932.4178h-1.27442c-.41421 0-.75.33579-.75.75 0 .4142.33579.75.75.75h.85775c.30897 0 .54399.2774.4932.5822l-.25 1.5c-.04018.2411-.24878.4178-.4932.4178h-1.10775c-.41421 0-.75.3358-.75.75s.33579.75.75.75h.69109c.30897 0 .54399.2774.49319.5822l-.17408 1.0445c-.0681.4086.20792.795.6165.8631.40857.0681.79499-.2079.86309-.6165l.24261-1.4555c.0402-.2411.2487-.4178.4932-.4178h1.4655c.309 0 .544.2774.4932.5822l-.1741 1.0445c-.0681.4086.2079.795.6165.8631s.795-.2079.8631-.6165l.2426-1.4555c.0402-.2411.2487-.4178.4932-.4178h1.2744c.4142 0 .75-.3358.75-.75s-.3358-.75-.75-.75h-.8578c-.3089 0-.544-.2774-.4932-.5822l.25-1.5c.0402-.2411.2488-.4178.4932-.4178h1.1078c.4142 0 .75-.3358.75-.75 0-.41421-.3358-.75-.75-.75h-.6911c-.309 0-.544-.27743-.4932-.5822l.1741-1.04451c.0681-.40857-.2079-.79499-.6165-.86309s-.795.20792-.8631.6165l-.2426 1.4555c-.0402.24109-.2488.4178-.4932.4178h-1.4655c-.309 0-.544-.27743-.4932-.5822zm1.118 5.62671c.2444 0 .453-.1767.4931-.4178l.25-1.5c.0508-.3048-.1842-.5822-.4931-.5822h-1.4656c-.2444 0-.453.1767-.4932.4178l-.25 1.5c-.0508.3048.1843.5822.4932.5822z"/></g></svg>