<svg fill="none" height="16" viewBox="0 0 16 16" width="16" xmlns="http://www.w3.org/2000/svg"><g fill="#939ba1"><path d="m8 7.5c1.24265 0 2.25-1.00736 2.25-2.25s-1.00735-2.25-2.25-2.25c-1.24264 0-2.25 1.00736-2.25 2.25s1.00736 2.25 2.25 2.25z"/><path d="m4.12343 12.0101c.44052-1.7303 2.00909-3.0101 3.87657-3.0101 1.86749 0 3.4361 1.2798 3.8766 3.0101.1362.5352-.3243.9899-.8766.9899h-6c-.55228 0-1.01282-.4547-.87657-.9899z"/><path d="m4.5 7.25c0 .9665-.7835 1.75-1.75 1.75s-1.75-.7835-1.75-1.75.7835-1.75 1.75-1.75 1.75.7835 1.75 1.75z"/><path d="m13.25 9c.9665 0 1.75-.7835 1.75-1.75s-.7835-1.75-1.75-1.75-1.75.7835-1.75 1.75.7835 1.75 1.75 1.75z"/></g></svg>