<svg fill="none" height="24" viewBox="0 0 24 24" width="24" xmlns="http://www.w3.org/2000/svg"><path clip-rule="evenodd" d="m10.7383 5.13185c.0728-.40777-.1987-.79735-.6065-.87017-.40772-.07281-.79731.19872-.87012.60648l-.53031 2.96974c-.04258.23846-.24998.41211-.49222.41211h-2.73915c-.41421 0-.75.33578-.75.75 0 .41421.33579.75.75.75h2.29273c.31131 0 .54694.28139.49221.58789l-.625 3.5c-.04258.2385-.24998.4121-.49221.4121h-2.66773c-.41421 0-.75.3358-.75.75s.33579.75.75.75h2.2213c.31131 0 .54694.2814.49221.5879l-.45183 2.5303c-.07282.4077.19871.7973.60648.8701.40776.0728.79735-.1987.87016-.6065l.53031-2.9697c.04258-.2385.24998-.4121.49221-.4121h3.96046c.3113 0 .5469.2814.4922.5879l-.4518 2.5303c-.0728.4077.1987.7973.6065.8701.4077.0728.7973-.1987.8701-.6065l.5303-2.9697c.0426-.2385.25-.4121.4922-.4121h2.7392c.4142 0 .75-.3358.75-.75s-.3358-.75-.75-.75h-2.2927c-.3113 0-.547-.2814-.4922-.5879l.625-3.5c.0425-.23845.2499-.41209.4922-.41209h2.6677c.4142 0 .75-.33579.75-.75 0-.41422-.3358-.75-.75-.75h-2.2213c-.3113 0-.5469-.28143-.4922-.5879l.4518-2.53026c.0728-.40777-.1987-.79735-.6065-.87017-.4077-.07281-.7973.19872-.8701.60648l-.5303 2.96974c-.0426.23846-.25.41211-.4922.41211h-3.9605c-.3113 0-.5469-.28143-.4922-.5879zm4.0466 5.20605c.0548-.3065-.1809-.58789-.4922-.58789h-3.9604c-.2423 0-.44966.17364-.49224.41209l-.625 3.5c-.05473.3065.1809.5879.49221.5879h3.96043c.2423 0 .4497-.1736.4922-.4121z" fill="#fff" fill-rule="evenodd"/></svg>