<svg fill="none" height="50" viewBox="0 0 66 50" width="66" xmlns="http://www.w3.org/2000/svg" xmlns:xlink="http://www.w3.org/1999/xlink"><radialGradient id="a" cx="0" cy="0" gradientTransform="matrix(-11.62513198 16.87489191 -21.90707105 -15.09180584 24.125 4.875)" gradientUnits="userSpaceOnUse" r="1"><stop offset="0" stop-color="#ffd764"/><stop offset="1" stop-color="#ffb746"/></radialGradient><path d="m0 0h66v50h-66z"/><path d="m8 38c0-6.6274 5.3726-12 12-12h9.0003c1.6568 0 2.9997 1.341 2.9997 2.9979v9.0021c0 6.6274-5.3726 12-12 12s-12-5.3726-12-12z" fill="#7cda00"/><path d="m19.2071 31h6.7929c.5523 0 1 .4477 1 1v6.7929c0 .4454-.5386.6685-.8536.3535l-2.1967-2.1967c-.251-.251-.6556-.2585-.9158-.0169l-5.8277 5.4115c-.3942.366-1.0073.3546-1.3876-.0257l-.1372-.1372c-.3803-.3803-.3917-.9934-.0257-1.3876l5.4115-5.8277c.2416-.2602.2341-.6648-.0169-.9158l-2.1967-2.1967c-.315-.315-.0919-.8536.3535-.8536z" fill="#fff"/><path d="m58 38c0-6.6274-5.3726-12-12-12-1.918 0-6.1153 0-9.0003 0-1.6568 0-2.9997 1.341-2.9997 2.9979v9.0021c0 6.6274 5.3726 12 12 12s12-5.3726 12-12z" fill="#fe8f59"/><path d="m43.2071 43h6.7929c.5523 0 1-.4477 1-1v-6.7929c0-.4454-.5386-.6685-.8536-.3535l-2.1967 2.1967c-.251.251-.6556.2585-.9158.0169l-5.8277-5.4115c-.3942-.366-1.0073-.3546-1.3876.0257l-.1372.1372c-.3803.3803-.3917.9934-.0257 1.3876l5.4115 5.8277c.2416.2602.2341.6648-.0169.9158l-2.1967 2.1967c-.315.315-.0919.8536.3535.8536z" fill="#fff"/><path d="m8 12c0 6.6274 5.3726 12 12 12h9.0003c1.6568 0 2.9997-1.341 2.9997-2.9979 0-2.7836 0-6.8173 0-9.0021 0-6.62742-5.3726-12-12-12s-12 5.37258-12 12z" fill="#eceffc"/><path d="m32 12v9.0003c0 1.6568-1.341 2.9997-2.9979 2.9997-2.7836 0-6.8173 0-9.0021 0-6.6274 0-12-5.3726-12-12 0-6.62742 5.3726-12 12-12s12 5.37258 12 12z" fill="#ffd764"/><path d="m32 12v9.0003c0 1.6568-1.341 2.9997-2.9979 2.9997-2.7836 0-6.8173 0-9.0021 0-6.6274 0-12-5.3726-12-12 0-6.62742 5.3726-12 12-12s12 5.37258 12 12z" fill="url(#a)"/><path d="m26.75 14.625c0 3.3137-3.75 5.625-6.75 5.625s-6.75-2.3113-6.75-5.625c0-1.5 3.375-2.25 6.75-2.25s6.75.75 6.75 2.25z" fill="#772622"/><path d="m24.0185 14.0618c-.6602-.2222-1.9998-.5618-4.0186-.5618s-3.3583.3396-4.0186.5618c-.2713.0913-.3776.3957-.2496.6517.0878.1756.2663.2865.4626.2865h7.6112c.1963 0 .3749-.1109.4627-.2865.128-.256.0216-.5604-.2497-.6517z" fill="#fff"/><path d="m22.2083 17.8282c.3297.186.3087.6418-.0335.8035-.6703.3169-1.4154.4933-2.1748.4933s-1.5045-.1764-2.1747-.4933c-.3422-.1617-.3632-.6175-.0336-.8035.6524-.3681 1.4058-.5782 2.2083-.5782s1.556.2101 2.2083.5782z" fill="#e45852"/><path clip-rule="evenodd" d="m14.1522 6.98615c.232-.27844.6458-.31606.9243-.08403l2.25 1.875c.2122.17688.2909.46776.1969.72755-.0941.25979-.3408.43285-.6171.43285-1.0404 0-2.556.33688-3.4021.86588-.3073.1921-.7122.0988-.9043-.2086-.1921-.3073-.0988-.71216.2085-.90431.5781-.36144 1.3362-.63512 2.1008-.81456.1539-.03612.2043-.23449.0828-.3357l-.7558-.62982c-.2784-.23202-.316-.64583-.084-.92426z" fill="#424242" fill-rule="evenodd"/><path clip-rule="evenodd" d="m25.8478 6.98615c-.232-.27844-.6458-.31606-.9243-.08403l-2.25 1.875c-.2122.17688-.2909.46776-.1969.72755.0941.25979.3408.43285.6171.43285 1.0404 0 2.556.33688 3.4021.86588.3073.1921.7122.0988.9043-.2086.1921-.3073.0988-.71216-.2085-.90431-.5781-.36144-1.3362-.63512-2.1008-.81456-.1539-.03612-.2043-.23449-.0828-.3357l.7558-.62982c.2784-.23202.316-.64583.084-.92426z" fill="#424242" fill-rule="evenodd"/><path d="m58 12c0 6.6274-5.3726 12-12 12-1.918 0-6.1153 0-9.0003 0-1.6568 0-2.9997-1.341-2.9997-2.9979 0-2.7836 0-6.8173 0-9.0021 0-6.62742 5.3726-12 12-12s12 5.37258 12 12z" fill="#887af9"/><path clip-rule="evenodd" d="m46 14c1.1046 0 2-.8954 2-2s-.8954-2-2-2-2 .8954-2 2 .8954 2 2 2zm8-2c0 1.1046-.8954 2-2 2s-2-.8954-2-2 .8954-2 2-2 2 .8954 2 2zm-14 2c1.1046 0 2-.8954 2-2s-.8954-2-2-2-2 .8954-2 2 .8954 2 2 2z" fill="#fff" fill-rule="evenodd"/></svg>