<svg fill="none" height="24" viewBox="0 0 24 24" width="24" xmlns="http://www.w3.org/2000/svg"><g fill="#000"><path d="m12 7.25c.4142 0 .75.33579.75.75v2.75c0 .2761.2239.5.5.5h2.75c.4142 0 .75.3358.75.75s-.3358.75-.75.75h-2.75c-.2761 0-.5.2239-.5.5v2.75c0 .4142-.3358.75-.75.75s-.75-.3358-.75-.75v-2.75c0-.2761-.2239-.5-.5-.5h-2.75c-.41421 0-.75-.3358-.75-.75s.33579-.75.75-.75h2.75c.2761 0 .5-.2239.5-.5v-2.75c0-.41421.3358-.75.75-.75z"/><path clip-rule="evenodd" d="m2 12c0-5.52285 4.47715-10 10-10 5.5228 0 10 4.47715 10 10v6.6667c0 1.8409-1.4924 3.3333-3.3333 3.3333h-6.6667c-5.52285 0-10-4.4772-10-10zm18.5 0v6.6667c0 1.0125-.8208 1.8333-1.8333 1.8333h-6.6667c-4.69442 0-8.5-3.8056-8.5-8.5 0-4.69442 3.80558-8.5 8.5-8.5 4.6944 0 8.5 3.80558 8.5 8.5z" fill-rule="evenodd"/></g></svg>