<svg width="24" height="24" viewBox="0 0 24 24" fill="none" xmlns="http://www.w3.org/2000/svg">
<path d="M16.624 8.41603C16.8538 8.07138 16.7607 7.60573 16.416 7.37596C16.0714 7.1462 15.6057 7.23933 15.376 7.58397L9.88343 15.8228L7.53033 13.4697C7.23744 13.1768 6.76256 13.1768 6.46967 13.4697C6.17678 13.7626 6.17678 14.2374 6.46967 14.5303L9.46967 17.5303C9.62855 17.6892 9.8503 17.7685 10.0739 17.7464C10.2975 17.7242 10.4994 17.603 10.624 17.416L16.624 8.41603Z" fill="black"/>
<path fill-rule="evenodd" clip-rule="evenodd" d="M12 22C6.47715 22 2 17.5228 2 12C2 6.47715 6.47715 2 12 2C17.5228 2 22 6.47715 22 12C22 17.5228 17.5228 22 12 22ZM12 20.5C7.30558 20.5 3.5 16.6944 3.5 12C3.5 7.30558 7.30558 3.5 12 3.5C16.6944 3.5 20.5 7.30558 20.5 12C20.5 16.6944 16.6944 20.5 12 20.5Z" fill="black"/>
</svg>
