<svg fill="none" height="16" viewBox="0 0 16 16" width="16" xmlns="http://www.w3.org/2000/svg"><g fill="#4360df"><path d="m11.0824 5.61085c.1531-.22977.0911-.5402-.1387-.69338-.2298-.15317-.5402-.09109-.6934.13868l-3.66167 5.49255-1.56873-1.56876c-.19527-.19526-.51185-.19526-.70711 0-.19526.19527-.19526.51185 0 .70711l2 1.99995c.10592.106.25375.1588.40282.1441.14907-.0148.28366-.0956.36676-.2203z"/><path clip-rule="evenodd" d="m7.99967 14.6668c-3.68189 0-6.66666-2.9847-6.66666-6.66664 0-3.6819 2.98477-6.66666 6.66666-6.66666 3.68193 0 6.66663 2.98476 6.66663 6.66666 0 3.68194-2.9847 6.66664-6.66663 6.66664zm0-1c-3.12961 0-5.66666-2.537-5.66666-5.66664 0-3.12961 2.53705-5.66666 5.66666-5.66666 3.12963 0 5.66663 2.53705 5.66663 5.66666 0 3.12964-2.537 5.66664-5.66663 5.66664z" fill-rule="evenodd"/></g></svg>