<svg fill="none" height="24" viewBox="0 0 24 24" width="24" xmlns="http://www.w3.org/2000/svg"><path clip-rule="evenodd" d="m20.5 12c0 4.6944-3.8056 8.5-8.5 8.5-4.69442 0-8.5-3.8056-8.5-8.5 0-4.69442 3.80558-8.5 8.5-8.5 4.6944 0 8.5 3.80558 8.5 8.5zm1.5 0c0 5.5228-4.4772 10-10 10-5.52285 0-10-4.4772-10-10 0-5.52285 4.47715-10 10-10 5.5228 0 10 4.47715 10 10zm-5.2272-1.8839c.2929-.29292.2929-.76779 0-1.06069-.2929-.29289-.7677-.29289-1.0606 0l-5.1266 5.12649-2.29806-2.2981c-.29289-.2929-.76777-.2929-1.06066 0-.2929.2929-.29289.7678 0 1.0607l2.82842 2.8284c.2929.2929.7678.2929 1.0607 0z" fill="#0d1625" fill-rule="evenodd"/></svg>