<svg fill="none" height="24" viewBox="0 0 24 24" width="24" xmlns="http://www.w3.org/2000/svg"><path d="m16.4697 17.5303c.2929.2929.7677.2929 1.0606 0s.2929-.7677 0-1.0606l-4.1161-4.1161c-.1952-.1953-.1952-.5119 0-.7072l4.1161-4.11607c.2929-.29289.2929-.76777 0-1.06066s-.7677-.29289-1.0606 0l-4.1161 4.11613c-.1953.1952-.5119.1952-.7072 0l-4.11607-4.11613c-.29289-.29289-.76777-.29289-1.06066 0s-.29289.76777 0 1.06066l4.11613 4.11607c.1952.1953.1952.5119 0 .7072l-4.11613 4.1161c-.29289.2929-.29289.7677 0 1.0606s.76777.2929 1.06066 0l4.11607-4.1161c.1953-.1952.5119-.1952.7072 0z" fill="#000"/></svg>