<svg fill="none" height="16" viewBox="0 0 16 16" width="16" xmlns="http://www.w3.org/2000/svg"><g fill="#fff"><path d="m10.6866 5.31319c.1952.19527.1952.51185 0 .70711l-1.74416 1.74412c-.13017.13017-.13017.34123 0 .4714l1.74416 1.74412c.1952.19526.1952.51186 0 .70706-.1953.1953-.5119.1953-.70715 0l-1.74411-1.74407c-.13018-.13017-.34123-.13017-.47141 0l-1.74404 1.74407c-.19526.1952-.51184.1952-.7071 0-.19526-.1953-.19526-.5119 0-.70714l1.74403-1.74404c.13018-.13017.13018-.34123 0-.4714l-1.74403-1.74404c-.19526-.19526-.19526-.51184 0-.7071.19526-.19527.51184-.19527.7071 0l1.74404 1.74403c.13018.13018.34123.13018.47141 0l1.74411-1.74412c.19525-.19526.51185-.19526.70715 0z"/><path clip-rule="evenodd" d="m7.99967 14.6668c3.68193 0 6.66663-2.9847 6.66663-6.66664 0-3.6819-2.9847-6.66666-6.66663-6.66666-3.68189 0-6.66666 2.98476-6.66666 6.66666 0 3.68194 2.98477 6.66664 6.66666 6.66664zm0-1c3.12963 0 5.66663-2.537 5.66663-5.66664 0-3.12961-2.537-5.66666-5.66663-5.66666-3.12961 0-5.66666 2.53705-5.66666 5.66666 0 3.12964 2.53705 5.66664 5.66666 5.66664z" fill-rule="evenodd"/></g></svg>