<svg fill="none" height="24" viewBox="0 0 24 24" width="24" xmlns="http://www.w3.org/2000/svg"><g fill="#000"><path d="m16.0303 7.96955c.2929.29289.2929.76776 0 1.06066l-2.6161 2.61619c-.1953.1952-.1953.5118 0 .7071l2.6161 2.6162c.2929.2929.2929.7677 0 1.0606s-.7677.2929-1.0606 0l-2.6162-2.6161c-.1953-.1953-.5119-.1953-.7071 0l-2.61607 2.616c-.29289.2929-.76777.2929-1.06066 0s-.29289-.7678 0-1.0607l2.61603-2.616c.1953-.1953.1953-.5119 0-.7071l-2.61603-2.61607c-.29289-.29289-.29289-.76777 0-1.06066s.76777-.29289 1.06066 0l2.61607 2.61603c.1952.1953.5118.1953.7071 0l2.6162-2.61615c.2929-.2929.7677-.2929 1.0606 0z"/><path clip-rule="evenodd" d="m12 22c5.5228 0 10-4.4772 10-10 0-5.52285-4.4772-10-10-10-5.52285 0-10 4.47715-10 10 0 5.5228 4.47715 10 10 10zm0-1.5c4.6944 0 8.5-3.8056 8.5-8.5 0-4.69442-3.8056-8.5-8.5-8.5-4.69442 0-8.5 3.80558-8.5 8.5 0 4.6944 3.80558 8.5 8.5 8.5z" fill-rule="evenodd"/></g></svg>