<svg fill="none" height="24" viewBox="0 0 24 24" width="24" xmlns="http://www.w3.org/2000/svg"><rect fill="#939ba1" height="22" rx="11" width="22" x="1" y="1"/><path d="m15.7728 8.22709c-.3028-.30279-.7937-.30279-1.0965 0l-2.3108 2.31091c-.2019.2018-.5291.2018-.731 0l-2.31081-2.31091c-.30278-.30279-.79368-.30279-1.09646 0-.30278.30278-.30278.79369 0 1.09648l2.31087 2.31083c.2018.2019.2018.5292 0 .731l-2.31102 2.311c-.30277.3028-.30277.7937 0 1.0965.30278.3028.79368.3028 1.09646 0l2.31096-2.311c.2019-.2019.5291-.2019.731 0l2.311 2.311c.3027.3028.7936.3028 1.0964 0s.3028-.7937 0-1.0965l-2.311-2.311c-.2018-.2018-.2018-.5291 0-.731l2.3109-2.31083c.3027-.30279.3027-.7937 0-1.09648z" fill="#fff"/><rect height="22" rx="11" stroke="#eef2f5" stroke-width="2" width="22" x="1" y="1"/></svg>