<svg fill="none" height="20" viewBox="0 0 20 20" width="20" xmlns="http://www.w3.org/2000/svg"><path clip-rule="evenodd" d="m4.90453 9.42566 1-8 1.19073.14884-1 8zm-3.8289-3.50132 2.5 2.5.84853-.84852-2.07574-2.07574 2.07574-2.07574-.84853-.84852-2.5 2.5-.424263.42426zm9.84857 0-2.50004 2.5-.84853-.84852 2.07574-2.07574-2.07574-2.07574.84853-.84852 2.50004 2.5.4242.42426zm.0754-2.82434c1.3671 0 2.4052.06321 3.2041.24313.7868.1772 1.2983.45808 1.6585.86628.3673.41635.6347 1.02984.8045 1.98173.17.95354.2328 2.19126.2328 3.80874 0 1.61902-.0631 2.85182-.2468 3.79992-.1826.9419-.4741 1.5475-.89 1.9633-.4158.4158-1.0213.7074-1.9633.8899-.948.1838-2.1809.2469-3.79989.2469-1.61748 0-2.85518-.0629-3.8087-.2329-.95187-.1697-1.56532-.4371-1.98164-.8044-.40816-.3602-.68901-.8716-.86619-1.6584-.1799-.7989-.2431-1.837-.2431-3.2041h-1.2c0 1.3829.06175 2.5323.27241 3.4677.21338.9476.58869 1.7173 1.24293 2.2946.64609.5701 1.5013.8964 2.56498 1.086 1.06204.1894 2.3868.2515 4.01931.2515 1.63099 0 2.96069-.0619 4.02819-.2688 1.0737-.2081 1.9369-.5728 2.5836-1.2195.6466-.6466 1.0114-1.5098 1.2194-2.5835.2069-1.0676.2688-2.3972.2688-4.02822 0-1.63252-.0621-2.95729-.2515-4.01936-.1896-1.0637-.5159-1.91893-1.086-2.56505-.5773-.65427-1.3471-1.02962-2.2946-1.24302-.9355-.21068-2.0848-.27245-3.4678-.27245z" fill="#09101c" fill-rule="evenodd"/></svg>