<svg fill="none" height="24" viewBox="0 0 24 24" width="24" xmlns="http://www.w3.org/2000/svg"><g fill="#939ba1"><path d="m12.7959 4.65686c0-.41422.3358-.75.75-.75.4143 0 .75.33578.75.75v2.63908c0 .44545.5386.66854.8536.35356l4.1798-4.17983c.2929-.29289.7678-.29289 1.0607 0s.2929.76777 0 1.06066l-4.1798 4.17983c-.315.31498-.0919.85355.3535.85355h2.6391c.4142 0 .75.33578.75.74999 0 .4142-.3358.75-.75.75h-5.6569c-.4142 0-.75-.3358-.75-.75z"/><path d="m4.54594 12.7647c-.41421 0-.75.3358-.75.75s.33579.75.75.75h2.63909c.44545 0 .66853.5386.35355.8536l-4.17983 4.1798c-.29289.2929-.29289.7678.00001 1.0607.29289.2929.76776.2929 1.06066 0l4.17982-4.1799c.31498-.3149.85355-.0919.85355.3536v2.6391c0 .4142.33579.75.75001.75.4142 0 .75-.3358.75-.75v-5.6569c0-.4142-.3358-.75-.75-.75z"/></g></svg>