<svg fill="none" height="24" viewBox="0 0 24 24" width="24" xmlns="http://www.w3.org/2000/svg"><path clip-rule="evenodd" d="m2.25 18c0-8.69848 7.05152-15.75 15.75-15.75h1c1.5188 0 2.75 1.23122 2.75 2.75v8c0 1.5188-1.2312 2.75-2.75 2.75h-1c-1.2426 0-2.25 1.0074-2.25 2.25v1c0 1.5188-1.2312 2.75-2.75 2.75h-8c-1.51878 0-2.75-1.2312-2.75-2.75zm15.75-14.25c-7.8701 0-14.25 6.3799-14.25 14.25v1c0 .6904.55964 1.25 1.25 1.25h.75c.27614 0 .5-.2239.5-.5v-1.75c0-6.4893 5.2607-11.75 11.75-11.75h1.75c.2761 0 .5-.22386.5-.5v-.75c0-.69036-.5596-1.25-1.25-1.25zm-7.75 16c0 .2761-.2239.5-.5.5h-1.5c-.27614 0-.5-.2239-.5-.5v-1.75c0-5.6609 4.5891-10.25 10.25-10.25h1.75c.2761 0 .5.22386.5.5v1.5c0 .2761-.2239.5-.5.5h-1.75c-4.2802 0-7.75 3.4698-7.75 7.75zm1.5 0c0 .2761.2239.5.5.5h.75c.6904 0 1.25-.5596 1.25-1.25v-1c0-2.0711 1.6789-3.75 3.75-3.75h1c.6904 0 1.25-.5596 1.25-1.25v-.75c0-.2761-.2239-.5-.5-.5h-1.75c-3.4518 0-6.25 2.7982-6.25 6.25z" fill="#000" fill-rule="evenodd"/></svg>