<svg width="24" height="24" viewBox="0 0 24 24" fill="none" xmlns="http://www.w3.org/2000/svg">
<path d="M10.9996 21.0001C10.9996 18.3479 12.0531 15.8044 13.9285 13.929C15.8039 12.0537 18.3474 11.0001 20.9996 11.0001M6.99981 21.0003C6.99981 17.2873 8.4748 13.7263 11.1003 11.1008C13.7258 8.47532 17.287 6.99996 21.0001 6.99996M15.4732 18.6635C15.7715 17.9581 16.2049 17.3095 16.7569 16.7574C17.309 16.2053 17.9576 15.772 18.663 15.4737C19.9543 14.9277 20.5999 14.6548 20.7998 14.3534C20.9996 14.0519 20.9996 13.568 20.9996 12.6001V5.40005C20.9996 4.24389 20.9996 3.66581 20.5912 3.30735C20.1827 2.94888 19.6568 3.01767 18.605 3.15526C10.5353 4.21081 4.21032 10.5358 3.15477 18.6055C3.01719 19.6573 2.94839 20.1832 3.30686 20.5916C3.66533 21.0001 4.2434 21.0001 5.39956 21.0001H12.5996C13.5675 21.0001 14.0515 21.0001 14.3529 20.8002C14.6543 20.6004 14.9273 19.9548 15.4732 18.6635Z" stroke="#131D2F" stroke-width="1.4"/>
</svg>
