<svg fill="none" height="24" viewBox="0 0 24 24" width="24" xmlns="http://www.w3.org/2000/svg"><g clip-rule="evenodd" fill="#4360df" fill-rule="evenodd"><path d="m10.5684 9.19475 5.0662-1.4475c.3772-.10777.7259.24095.6182.61812l-1.4476 5.06623c-.1898.6645-.7091 1.1838-1.3736 1.3736l-5.06623 1.4476c-.37717.1077-.72589-.241-.61812-.6182l1.4475-5.0662c.18984-.66446.70919-1.18381 1.37365-1.37365zm.412 1.44225 2.4702-.70572c.3772-.10776.7259.24092.6181.61812l-.7057 2.4702c-.0475.1661-.1773.2959-.3434.3434l-2.4702.7057c-.3772.1078-.72588-.2409-.61812-.6181l.70572-2.4702c.0475-.1661.1773-.2959.3434-.3434z"/><path d="m22 12c0 5.5228-4.4772 10-10 10-5.52285 0-10-4.4772-10-10 0-5.52285 4.47715-10 10-10 5.5228 0 10 4.47715 10 10zm-1.5 0c0 4.6944-3.8056 8.5-8.5 8.5-4.69442 0-8.5-3.8056-8.5-8.5 0-4.69442 3.80558-8.5 8.5-8.5 4.6944 0 8.5 3.80558 8.5 8.5z"/></g></svg>