<svg fill="none" height="24" viewBox="0 0 24 24" width="24" xmlns="http://www.w3.org/2000/svg"><g stroke="#000" stroke-width="1.5"><path d="m9.00704 4.07812v4.27373c0 .72625-.58874 1.31499-1.31499 1.31499h-3.94498"/><path d="m16.9913 16.6009-3.2296-1.9964 3.2296-5.58971 3.2296 5.58971z"/><path d="m16.9913 20.4378-3.3722-5.5865 3.3722-5.83651 3.3722 5.83651z"/></g><path clip-rule="evenodd" d="m10.3807 3c-.94664-.00013-1.85828.35776-2.55201 1.00184l-3.63018 3.37039c-.76425.70955-1.19851 1.70531-1.19851 2.74817v7.7254c0 2.071 1.67893 3.75 3.75 3.75h7.1499c.0691 0 .1378-.0019.206-.0056.3377-.0183.4967-.3936.3219-.6831l-.4703-.7791c-.0121-.0202-.0341-.0322-.0576-.0322h-7.1499c-1.24264 0-2.25-1.0074-2.25-2.25v-7.7254c0-.62572.26056-1.22318.71911-1.64891l3.63018-3.37039c.41623-.38644.96322-.60118 1.53121-.6011l3.5197.00047c1.2426.00017 2.2497 1.00748 2.2497 2.25 0 .18728.1874.31831.3717.28519.2546-.04575.516-.04767.7712-.00577.1785.02931.3571-.09851.3571-.27942 0-2.07087-1.6786-3.74972-3.7495-3.75z" fill="#000" fill-rule="evenodd"/></svg>