<svg fill="none" height="16" viewBox="0 0 15 16" width="15" xmlns="http://www.w3.org/2000/svg"><path clip-rule="evenodd" d="m14.6515 5.77187v.02823 4.4.0282.0001c0 .8161 0 1.4682-.0431 1.995-.0441.5405-.1368 1.006-.3548 1.4338-.3499.6868-.9083 1.2451-1.5951 1.5951-.4277.2179-.8933.3106-1.4337.3548-.5268.043-1.1789.043-1.99506.043h-.00001-.00001-.00001-.00002-.02823-2.4-.02823c-.81614 0-1.46829 0-1.99509-.043-.54045-.0442-1.00597-.1369-1.43374-.3548-.68679-.35-1.24517-.9083-1.59511-1.5951-.21796-.4278-.31064-.8933-.35479-1.4338-.03536-.4327-.04167-.95-.04279-1.5733h-.35025c-.35898 0-.649995-.291-.649995-.65 0-.35899.291015-.65.649995-.65h.35v-2.7h-.35c-.35898 0-.649995-.29102-.649995-.65 0-.35899.291015-.65.649995-.65h.35025c.00112-.6233.00743-1.1406.04279-1.57333.04415-.54045.13683-1.00597.35479-1.43374.34994-.68679.90832-1.24517 1.59511-1.595106.42777-.217961.89329-.310638 1.43374-.354795.5268-.043042 1.17895-.043037 1.99509-.043031h.02824 2.39999.02824c.8161-.000006 1.4683-.00001 1.9951.043031.5404.044157 1.006.136835 1.4337.354795.6868.349936 1.2452.908316 1.5951 1.595106.218.42777.3107.89329.3548 1.43374.0431.5268.0431 1.17893.0431 1.99505v.00001.00001.00001zm-12.00004 3.57823v-2.7h.35c.35899 0 .65-.29102.65-.65 0-.35899-.29101-.65-.65-.65h-.3497c.0012-.6194.00733-1.08692.03842-1.46747.03759-.46006.1084-.73545.21742-.94941.2253-.44218.58481-.80169 1.02699-1.02699.21396-.10902.48935-.17983.94941-.21742.46765-.03821 1.06666-.03871 1.91747-.03871h2.39999c.85084 0 1.44984.0005 1.91744.03871.4601.03759.7355.1084.9494.21742.4422.22531.8017.58481 1.027 1.02699.109.21396.1799.48935.2175.94941.0382.46765.0387 1.06666.0387 1.91747v4.4c0 .8508-.0005 1.4498-.0387 1.9175-.0376.46-.1085.7354-.2175.9494-.2253.4422-.5848.8017-1.027 1.027-.2139.109-.4893.1798-.9494.2174-.4676.0382-1.0666.0387-1.91744.0387h-2.4c-.8508 0-1.44981-.0005-1.91746-.0387-.46006-.0376-.73545-.1084-.94941-.2174-.44218-.2253-.80169-.5848-1.02699-1.027-.10902-.214-.17983-.4894-.21742-.9494-.03109-.3806-.03722-.8481-.03842-1.4675h.3497c.35899 0 .65-.291.65-.65 0-.35899-.29101-.65-.65-.65zm1.7001 1.9c0-1.60163 1.29838-2.9 2.9-2.9h1.5c1.60164 0 2.90004 1.29837 2.90004 2.9 0 .7732-.6268 1.4-1.4 1.4h-4.50004c-.7732 0-1.4-.6268-1.4-1.4zm2.9-1.6c-.88365 0-1.6.7163-1.6 1.6 0 .0552.04477.1.1.1h4.50004c.0552 0 .1-.0448.1-.1 0-.8837-.71638-1.6-1.60004-1.6zm-.1-4.15c0-.46944.38056-.85.85-.85s.85.38056.85.85-.38056.85-.85.85-.85-.38056-.85-.85zm.85-2.15c-1.18741 0-2.15.96259-2.15 2.15s.96259 2.15 2.15 2.15 2.15004-.96259 2.15004-2.15-.96263-2.15-2.15004-2.15z" fill="#647084" fill-rule="evenodd"/></svg>