<svg fill="none" height="16" viewBox="0 0 16 16" width="16" xmlns="http://www.w3.org/2000/svg"><g clip-rule="evenodd" fill="#4360df" fill-rule="evenodd"><path d="m8.00001 13.6667c3.12959 0 5.66669-2.537 5.66669-5.66666 0-3.12961-2.5371-5.66667-5.66669-5.66667-3.12961 0-5.66667 2.53706-5.66667 5.66667 0 3.12966 2.53706 5.66666 5.66667 5.66666zm0 1c3.68189 0 6.66669-2.9848 6.66669-6.66666 0-3.6819-2.9848-6.66667-6.66669-6.66667-3.6819 0-6.66667 2.98477-6.66667 6.66667 0 3.68186 2.98477 6.66666 6.66667 6.66666z"/><path d="m7.65987 5.08224c.0454-.27239-.13861-.53-.411-.5754-.27238-.0454-.53.13861-.57539.411l-.16173.97033c-.02678.16073-.16585.27854-.32879.27854h-.84962c-.27614 0-.5.22385-.5.5 0 .27614.22386.5.5.5h.57184c.20598 0 .36266.18495.3288.38813l-.16667 1c-.02679.16073-.16585.27853-.3288.27853h-.7385c-.27614 0-.5.22386-.5.5 0 .27615.22386.5.5.5h.46072c.20598 0 .36266.18493.3288.38813l-.11605.6963c-.0454.2724.13861.53.41099.5754.27239.0454.53-.1386.5754-.411l.16172-.9703c.02679-.16072.16585-.27853.3288-.27853h.97701c.20598 0 .36266.18493.3288.38813l-.11606.6963c-.04539.2724.13862.53.411.5754.27239.0454.53-.1386.5754-.411l.16172-.9703c.02679-.16072.16585-.27853.3288-.27853h.84964c.2761 0 .5-.22385.5-.5 0-.27614-.2239-.5-.5-.5h-.5719c-.20595 0-.36263-.18495-.32876-.38813l.16666-1c.02679-.16073.1659-.27853.3288-.27853h.7385c.2762 0 .5-.22386.5-.5 0-.27615-.2238-.5-.5-.5h-.4607c-.206 0-.3627-.18496-.3288-.38814l.116-.69633c.0454-.27239-.1386-.53-.41096-.5754-.27238-.0454-.53.13861-.5754.411l-.16172.97033c-.02679.16073-.16585.27854-.3288.27854h-.97701c-.20598 0-.36266-.18496-.3288-.38814zm.74531 3.75113c.16294 0 .30201-.1178.3288-.27853l.16666-1c.03387-.20318-.12282-.38813-.32879-.38813h-.97702c-.16294 0-.30201.1178-.32879.27853l-.16667 1c-.03386.20318.12282.38813.3288.38813z"/></g></svg>