<svg fill="none" height="26" viewBox="0 0 28 26" width="28" xmlns="http://www.w3.org/2000/svg"><path clip-rule="evenodd" d="m3.9549.987813c-.36917-.369167-.96771-.369167-1.33688 0s-.36917.967707 0 1.336877l22.68748 22.68751c.3692.3692.9677.3692 1.3369 0s.3692-.9677 0-1.3369l-3.3125-3.3125c.2936-2.8285.677-6.3221 1.0229-8.9274.038-.2862.2687-.5016.5478-.5755 1.4232-.377 2.4722-1.6738 2.4722-3.21562 0-1.83704-1.4892-3.32626-3.3261-3.32626-1.837 0-3.3261 1.48922-3.3261 3.32626 0 .1007.0045.20035.0132.29877.029.32558-.134.65832-.4503.74066-.6087.15843-1.2219.20907-1.8081.11135-.5807-.09682-1.1859-.3475-1.7723-.85813-.2634-.22935-.2282-.63116-.013-.90622.4418-.56463.7052-1.27566.7052-2.0482 0-1.83704-1.4891-3.32626-3.3261-3.32626s-3.3261 1.48922-3.3261 3.32626c0 .77275.2635 1.48395.7055 2.04866.2154.27509.2506.67704-.0129.90639-.0982.08547-.1969.16366-.296.23506zm8.5334 8.533367 7.8206 7.82062h.8758c.3216 0 .5916-.2421.6269-.5617.2209-2.0026.4598-4.0444.6833-5.7154.0357-.2673-.1094-.5255-.3315-.6784-.1984-.1365-.4525-.1826-.6787-.1-1.0161.371-2.1585.5673-3.3202.3736-1.2665-.2111-2.4603-.86981-3.4725-2.09035-.1432-.17267-.3618-.2634-.5861-.26097l-.0367.00019-.0358-.00018c-.2242-.00237-.4428.08836-.5859.26097-.3043.36696-.625.68313-.9592.95162zm-10.3881-4.54125c.22407-.16777.53286-.11937.73079.07856l4.41641 4.41641c.4172.4172.09179 1.05-.46562.8566-.06762-.0234-.13472-.0477-.20125-.0727-.18052-.0678-.38246-.0329-.53858.0803-.17382.126-.27498.3359-.23667.5472.31874 1.7574.63939 3.8919.87276 5.8943.03722.3194.30692.5612.62841.5612h7.54685c.1672 0 .3274.0664.4456.1846l.6302.6302c.3971.397.1159 1.0759-.4456 1.0759h-7.90961c-.36231 0-.64994.3046-.63331.6665.03193.6955.05613 1.4518.07165 2.1446.0077.3441.28807.6203.63227.6203h12.5308c.1672 0 .3275.0664.4457.1845l1.0831 1.0832c.2323.2323.1526.6229-.1758.6229h-14.86348c-.8431 0-1.5173-.6816-1.52644-1.5126-.01602-1.4553-.08662-3.6027-.19004-4.663-.21813-2.2364-.59012-4.8375-.9625-6.9281-.05088-.2856-.29377-.4913-.57781-.5506-1.50898-.3153-2.642405-1.65324-2.642405-3.25592 0-1.09009.524345-2.0577 1.334575-2.66435z" fill="#ff2d55" fill-rule="evenodd"/></svg>