<svg fill="none" height="16" viewBox="0 0 16 16" width="16" xmlns="http://www.w3.org/2000/svg"><path clip-rule="evenodd" d="m14.6666 8c0 3.6819-2.9847 6.6667-6.66662 6.6667-3.6819 0-6.66667-2.9848-6.66667-6.6667s2.98477-6.66667 6.66667-6.66667c3.68192 0 6.66662 2.98477 6.66662 6.66667zm-11.94778-.5c-.19556 0-.34996-.16792-.32048-.36124.25697-1.68527 1.2563-3.12642 2.65387-3.97933.2758-.16831.56763.15677.43814.45279-.42806.97852-.71535 2.20959-.79868 3.56684-.01099.17896-.1577.32094-.33699.32094zm-.32048 1.36123c-.02948-.19332.12492-.36123.32047-.36123h1.63587c.17929 0 .326.14197.33699.32093.08333 1.35727.37062 2.58837.79867 3.56687.1295.296-.16233.6211-.43813.4528-1.39757-.8529-2.3969-2.2941-2.65387-3.97937zm3.62522-1.36123c-.18933 0-.3411-.15769-.32814-.34657.09368-1.36556.40911-2.55455.84196-3.42027.55007-1.10012 1.12495-1.39983 1.4626-1.39983s.91253.29971 1.4626 1.39983c.43285.86571.74832 2.05471.84192 3.42027.013.18888-.1388.34657-.3281.34657zm4.28094 1.34656c.013-.18888-.1388-.34656-.3281-.34656h-3.95284c-.18933 0-.3411.15768-.32814.34656.09368 1.36554.40911 2.55454.84196 3.42024.55007 1.1002 1.12495 1.3999 1.4626 1.3999s.91253-.2997 1.4626-1.3999c.43285-.8657.74832-2.0547.84192-3.42024zm1.3408-1.34656c-.1793 0-.326-.14198-.337-.32094-.0833-1.35725-.3706-2.58832-.7987-3.56684-.1295-.29602.1623-.6211.4381-.45279 1.3976.85291 2.397 2.29406 2.6539 3.97933.0295.19332-.1249.36124-.3205.36124zm1.9563 1.36123c.0295-.19332-.1249-.36123-.3205-.36123h-1.6358c-.1793 0-.326.14197-.337.32093-.0833 1.35727-.3706 2.58837-.7987 3.56687-.1295.296.1623.6211.4381.4528 1.3976-.8529 2.397-2.2941 2.6539-3.97937z" fill="#4360df" fill-rule="evenodd"/></svg>