<svg fill="none" height="24" viewBox="0 0 20 24" width="22" xmlns="http://www.w3.org/2000/svg"><g fill="#000"><path d="m11 4.5h-3.30769c-.70956 0-.86241.00619-.96269.02457-.61302.11234-1.09271.59203-1.20505 1.20505-.01838.10028-.02457.25313-.02457.96269v1.55769c0 .41421-.33579.75-.75.75s-.75-.33579-.75-.75v-1.55769c0-.64328 0-.96493.04914-1.23308.22468-1.22603 1.18406-2.18541 2.41009-2.41009.26815-.04914.5898-.04914 1.23308-.04914h3.30769c4.9706 0 9 4.02944 9 9 0 4.9706-4.0294 9-9 9h-3.30769c-.64328 0-.96493 0-1.23308-.0491-1.22603-.2247-2.18541-1.1841-2.41009-2.4101-.04914-.2682-.04914-.5898-.04914-1.2331v-1.5577c0-.4142.33579-.75.75-.75s.75.3358.75.75v1.5577c0 .7095.00619.8624.02457.9627.11234.613.59203 1.0927 1.20505 1.205.10028.0184.25313.0246.96269.0246h3.30769c4.1421 0 7.5-3.3579 7.5-7.5 0-4.14214-3.3579-7.5-7.5-7.5z"/><path d="m3 11.25c-.41421 0-.75.3358-.75.75s.33579.75.75.75h8c.4142 0 .75-.3358.75-.75s-.3358-.75-.75-.75z"/></g></svg>