<svg fill="none" height="24" viewBox="0 0 24 24" width="24" xmlns="http://www.w3.org/2000/svg"><path clip-rule="evenodd" d="m19.6846 14.34c-.1394.2788-.0624.6375.1793.8344.3867.315.6968.7279.8903 1.2114l.8742 2.1857c.6569 1.6422-.5525 3.4285-2.3212 3.4285h-14.61479c-1.76866 0-2.97806-1.7863-2.32119-3.4285l.87427-2.1857c.19342-.4835.50354-.8964.89028-1.2114.24165-.1969.31865-.5556.17924-.8344-.2017-.4033-.31519-.8584-.31519-1.34v-8c0-1.65685 1.34315-3 3-3h9.99998c1.6569 0 3 1.34315 3 3v8c0 .4816-.1135.9367-.3152 1.34zm-15.92067 4.7886.87428-2.1857c.22779-.5695.77936-.9429 1.39271-.9429h11.93778c.6134 0 1.1649.3734 1.3927.9429l.8743 2.1857c.2628.6569-.221 1.3714-.9285 1.3714h-14.61479c-.70747 0-1.19123-.7145-.92848-1.3714zm13.23587-4.6286h-9.99998c-.82842 0-1.5-.6716-1.5-1.5v-8c0-.82843.67158-1.5 1.5-1.5h9.99998c.8285 0 1.5.67157 1.5 1.5v8c0 .8284-.6715 1.5-1.5 1.5z" fill="#000" fill-rule="evenodd"/></svg>