<svg width="20" height="18" viewBox="0 0 20 18" fill="none" xmlns="http://www.w3.org/2000/svg">
<path fill-rule="evenodd" clip-rule="evenodd" d="M10.0446 0.00130059C10.363 0.0197849 10.6369 0.232831 10.7333 0.536864L11.8272 3.98892L14.9936 0.812263C15.2358 0.569261 15.6097 0.516056 15.9101 0.681841C16.2105 0.847625 16.3648 1.19231 16.2883 1.52678L15.2973 5.86077H19.2307C19.5755 5.86077 19.8781 6.09015 19.9713 6.42206C20.0645 6.75397 19.9255 7.10735 19.6311 7.2868L15.5926 9.74875L19.1436 13.1038C19.398 13.3441 19.4581 13.7259 19.2898 14.0328C19.1215 14.3397 18.7673 14.4943 18.4278 14.4089L14.4082 13.3987L14.4613 15.9915C14.4675 16.2897 14.3006 16.5645 14.0333 16.6967C13.7659 16.829 13.4462 16.7947 13.213 16.6089L10.1308 14.1532L6.87431 17.6996C6.64738 17.9468 6.28644 18.0183 5.9824 17.8764C5.67836 17.7345 5.50137 17.4119 5.54503 17.0793L6.03167 13.3715L2.09099 13.8407C1.75956 13.8801 1.4405 13.7014 1.30112 13.3981C1.16173 13.0948 1.23382 12.7363 1.47959 12.5104L4.4864 9.74751L0.37469 7.2903C0.0776818 7.1128 -0.0642681 6.75885 0.0277988 6.42532C0.119866 6.09179 0.42329 5.86077 0.769293 5.86077H5.22351L4.35092 3.36765C4.24487 3.06467 4.33813 2.72768 4.58485 2.52232C4.83157 2.31696 5.17989 2.2864 5.4586 2.44566L7.80001 3.78361L9.29853 0.45357C9.42941 0.162728 9.72618 -0.0171836 10.0446 0.00130059ZM9.87506 2.92137L8.85533 5.18743C8.76633 5.38521 8.59798 5.53622 8.39174 5.60329C8.18549 5.67036 7.96052 5.64725 7.77222 5.53964L6.48329 4.80311L7.03376 6.37589C7.11611 6.61118 7.07933 6.87179 6.93508 7.0751C6.79084 7.27842 6.557 7.39923 6.30772 7.39923H3.55596L6.16079 8.9559C6.36922 9.08046 6.50661 9.29613 6.53139 9.53769C6.55617 9.77924 6.46545 10.0183 6.28665 10.1826L4.27466 12.0314L6.83216 11.7269C7.06791 11.6989 7.30341 11.7812 7.47028 11.9501C7.63715 12.119 7.71668 12.3555 7.68578 12.5909L7.38709 14.8666L9.48264 12.5845C9.75584 12.287 10.2126 12.2514 10.5286 12.5031L12.8896 14.3842L12.8494 12.4228C12.8445 12.1831 12.9516 11.9547 13.1392 11.8053C13.3268 11.6559 13.5734 11.6026 13.8059 11.661L15.9456 12.1988L13.804 10.1753C13.6297 10.0107 13.5422 9.77418 13.5673 9.53574C13.5923 9.29731 13.7272 9.0842 13.9319 8.9594L16.4911 7.39923H14.3323C14.0981 7.39923 13.8767 7.29258 13.7308 7.10948C13.5848 6.92639 13.5302 6.68679 13.5824 6.45853L14.1911 3.79659L12.0217 5.97298C11.8319 6.1634 11.5565 6.2409 11.2952 6.1774C11.034 6.11389 10.8248 5.9186 10.7436 5.66231L9.87506 2.92137Z" fill="#09101C"/>
</svg>
