<svg fill="none" height="20" viewBox="0 0 20 20" width="20" xmlns="http://www.w3.org/2000/svg" xmlns:xlink="http://www.w3.org/1999/xlink"><clipPath id="a"><path d="m0 0h20v20h-20z"/></clipPath><g clip-path="url(#a)"><path clip-rule="evenodd" d="m10.0446 1.0013c.3184.01848.5923.23153.6887.53556l1.0939 3.45206 3.1664-3.17666c.2422-.243.6161-.2962.9165-.13042s.4547.51047.3782.84494l-.991 4.33399h3.9334c.3448 0 .6474.22938.7406.56129s-.0458.68529-.3402.86474l-4.0385 2.462 3.551 3.355c.2544.2403.3145.6221.1462.929s-.5225.4615-.862.3761l-4.0196-1.0102.0531 2.5928c.0062.2982-.1607.573-.428.7052-.2674.1323-.5871.098-.8203-.0878l-3.0822-2.4557-3.25649 3.5464c-.22693.2472-.58787.3187-.89191.1768s-.48103-.4645-.43737-.7971l.48664-3.7078-3.94068.4692c-.33143.0394-.65049-.1393-.78987-.4426-.13939-.3033-.0673-.6618.17847-.8877l3.00681-2.7629-4.11171-2.4572c-.2970082-.1775-.4389581-.53145-.3468912-.86498.0920672-.33353.3954912-.56455.7414942-.56455h4.454217l-.87259-2.49312c-.10605-.30298-.01279-.63997.23393-.84533s.59504-.23592.87375-.07666l2.34141 1.33795 1.49852-3.33004c.13088-.29084.42765-.470754.74607-.45227zm-.16954 2.92007-1.01973 2.26606c-.089.19778-.25735.34879-.46359.41586-.20625.06707-.43122.04396-.61952-.06365l-1.28893-.73653.55047 1.57278c.08235.23529.04557.4959-.09868.69921-.14424.20332-.37808.32413-.62736.32413h-2.75176l2.60483 1.55667c.20843.1246.34582.3402.3706.5818.02478.2415-.06594.4806-.24474.6449l-2.01199 1.8488 2.5575-.3045c.23575-.028.47125.0543.63812.2232s.2464.4054.2155.6408l-.29869 2.2757 2.09555-2.2821c.2732-.2975.72996-.3331 1.04596-.0814l2.361 1.8811-.0402-1.9614c-.0049-.2397.1022-.4681.2898-.6175s.4342-.2027.6667-.1443l2.1397.5378-2.1416-2.0235c-.1743-.1646-.2618-.4011-.2367-.6396.025-.2384.1599-.4515.3646-.5763l2.5592-1.56017h-2.1588c-.2342 0-.4556-.10665-.6015-.28975-.146-.18309-.2006-.42269-.1484-.65095l.6087-2.66194-2.1694 2.17639c-.1898.19042-.4652.26792-.7265.20442-.2612-.06351-.4704-.2588-.5516-.51509z" fill="#09101c" fill-rule="evenodd"/></g></svg>