<svg fill="none" height="16" viewBox="0 0 16 16" width="16" xmlns="http://www.w3.org/2000/svg" xmlns:xlink="http://www.w3.org/1999/xlink"><clipPath id="a"><path d="m3 4h10v8h-10z"/></clipPath><rect fill="#5865f2" height="16" rx="8" width="16"/><g clip-path="url(#a)"><path d="m11.471 4.66999c-.657-.31751-1.3506-.54275-2.06311-.66999-.0975.18397-.18571.37324-.26428.56704-.75891-.12071-1.53068-.12071-2.2896 0-.07861-.19378-.16682-.38305-.26427-.56704-.71293.12831-1.40699.35409-2.06466.67165-1.30564 2.03902-1.65958 4.02739-1.48261 5.98755.76461.5963 1.62044 1.0498 2.53028 1.3408.20486-.2908.38615-.5994.54192-.9224-.29587-.1166-.58143-.2605-.85339-.43.07157-.0548.14157-.1113.20922-.1661.79133.3928 1.65502.5965 2.52949.5965s1.73817-.2037 2.52951-.5965c.0684.059.1384.1154.2092.1661-.2725.1698-.5586.3139-.85496.4309.15556.3228.33686.6311.54196.9215.9106-.2898 1.7671-.7431 2.5318-1.34.2077-2.27312-.3547-4.24323-1.4865-5.99001zm-5.13217 4.78373c-.49316 0-.90058-.4724-.90058-1.05355 0-.58116.39327-1.0577.89901-1.0577s.91002.47654.90137 1.0577c-.00866.58115-.3972 1.05355-.8998 1.05355zm3.32232 0c-.49394 0-.89979-.4724-.89979-1.05355 0-.58116.39326-1.0577.89979-1.0577.50655 0 .90765.47654.89905 1.0577-.0087.58115-.3965 1.05355-.89905 1.05355z" fill="#fff"/></g></svg>