<svg fill="none" height="22" viewBox="0 0 22 22" width="22" xmlns="http://www.w3.org/2000/svg"><path d="m9.04688 12.375c0 .4401-.35678.7969-.79688.7969s-.79688-.3568-.79688-.7969.35678-.7969.79688-.7969.79688.3568.79688.7969z" fill="#939ba1" stroke="#939ba1" stroke-width=".125"/><path d="m13.75 13.2344c.4746 0 .8594-.3848.8594-.8594s-.3848-.8594-.8594-.8594-.8594.3848-.8594.8594.3848.8594.8594.8594z" fill="#939ba1"/><g stroke="#939ba1" stroke-linecap="round" stroke-linejoin="round" stroke-width="1.5"><path d="m6.3938 6.87488c1.49046-.4665 3.04438-.69844 4.6061-.6875 1.5617-.01094 3.1156.22099 4.606.68748"/><path d="m15.6061 15.125c-1.4904.4665-3.0443.6984-4.606.6875-1.56172.0109-3.11562-.221-4.60606-.6875"/><path d="m13.324 15.648 1.0334 2.0668c.0689.1389.1828.2502.3231.3159.1404.0657.2989.0819.4496.0459 2.1088-.5156 3.9267-1.4145 5.2508-2.5654.1011-.0869.1749-.2012.2126-.3291s.0376-.264-.0002-.3918l-2.9196-9.73215c-.0295-.09813-.0805-.18846-.1493-.26441-.0687-.07595-.1536-.13561-.2483-.17465-.8248-.33771-1.6779-.60179-2.5493-.78915-.166-.03638-.3396-.01012-.4875.07374-.1478.08386-.2594.21939-.3134.38056l-.6852 2.05559"/><path d="m8.67591 15.648-1.03342 2.0668c-.06886.1389-.18277.2502-.32312.3159s-.29884.0819-.44956.0459c-2.10879-.5156-3.92672-1.4145-5.25078-2.5653-.10112-.087-.17496-.2013-.21264-.3292-.03769-.1279-.03762-.264.0002-.3918l2.91963-9.73215c.02947-.09813.08045-.18846.14923-.26442.06878-.07595.15362-.13561.24836-.17464.82483-.33771 1.67792-.60179 2.54928-.78915.16602-.03638.33963-.01012.48746.07374.14784.08386.25946.21939.31342.38056l.68519 2.05559"/></g></svg>