<svg fill="none" height="24" viewBox="0 0 24 24" width="24" xmlns="http://www.w3.org/2000/svg"><path clip-rule="evenodd" d="m2.23291 3.29594c.25989-.33414.74145-.39434 1.07559-.13445l5.0638 3.93852c.20342.15821.49282.14019.67504-.04203l1.22976-1.22978c1.5129-1.51283 3.8175-1.75134 5.5799-.71552.2164.12719.4952.10779.6727-.0697l1.083-1.08297c.2993-.29933.7846-.29933 1.0839 0 .2994.29933.2994.78464 0 1.08397l-1.0955 1.09554c-.1755.17547-.1966.45028-.0738.66589 1 1.75543.7513 4.02899-.7464 5.52659l-.3264.3265c-.2174.2173-.195.576.0476.7647l5.202 4.0459c.3341.2599.3943.7415.1344 1.0756-.2599.3342-.7414.3944-1.0756.1345l-18.39555-14.30766c-.33414-.25989-.39434-.74145-.13444-1.0756zm8.17179 5.38485c-.2426-.1887-.2649-.54733-.0476-.76467l1.004-1.00395c1.1973-1.19732 3.1385-1.19732 4.3359 0 1.1973 1.19732 1.1973 3.13853 0 4.33583l-.5523.5523c-.1823.1823-.4717.2003-.6751.0421zm2.5655 6.36001c.2993.2993.2993.7846 0 1.0839l-1.626 1.626c-1.49996 1.5-3.77837 1.7472-5.53493.7416-.21074-.1207-.47967-.0999-.65137.0718l-1.84943 1.8494c-.29933.2994-.78464.2994-1.08397 0-.29933-.2993-.29933-.7846 0-1.0839l1.83711-1.8371c.17367-.1737.19273-.4464.06788-.6579-1.04109-1.7635-.80411-4.0727.71095-5.5877l.9033-.9033c.29933-.2994.78464-.2994 1.08397 0 .29933.2993.29933.7846 0 1.0839l-.90331.9034c-1.19731 1.1973-1.19731 3.1385 0 4.3358 1.19732 1.1973 3.13856 1.1973 4.3359 0l1.6259-1.6259c.2994-.2994.7847-.2994 1.084 0z" fill="#000" fill-rule="evenodd"/></svg>