<svg fill="none" height="24" viewBox="0 0 24 24" width="24" xmlns="http://www.w3.org/2000/svg"><g clip-rule="evenodd" fill="#4360df" fill-rule="evenodd"><path d="m22.864 4.42199c.3446.22977.4377.69542.208 1.04007l-9.8741 13.96014c-.1246.1869-.3265.3081-.5501.3303-.2236.0221-.4453-.0572-.6042-.216l-6.00003-6c-.2929-.2929-.2929-.7678 0-1.0607.29289-.2929.76776-.2929 1.06066 0l5.35307 5.3531 9.3666-13.1989c.2298-.34464.6954-.43777 1.0401-.20801z"/><path d="m17.8555 4.38365c.337.24075.4151.70916.1744 1.04623l-5.9775 8.36872c-.2408.3371-.7092.4151-1.0463.1744-.337-.2408-.4151-.7092-.1743-1.0462l5.9774-8.36877c.2408-.33706.7092-.41513 1.0463-.17438z"/><path d="m1.01928 12.4798c.2917-.2941.76657-.296 1.06065-.0043l6.01761 5.9689c.29408.2917.29601.7666.00431 1.0606-.2917.2941-.76657.296-1.06065.0043l-6.01761-5.9689c-.294084-.2917-.296013-.7666-.00431-1.0606z"/></g></svg>