<svg width="24" height="24" viewBox="0 0 24 24" fill="none" xmlns="http://www.w3.org/2000/svg">
<path fill-rule="evenodd" clip-rule="evenodd" d="M22.8641 4.42199C23.2087 4.65176 23.3019 5.11741 23.0721 5.46206L13.1981 19.4222C13.0734 19.6091 12.8715 19.7303 12.6479 19.7525C12.4243 19.7746 12.2026 19.6953 12.0437 19.5365L6.04369 13.5365C5.7508 13.2436 5.7508 12.7687 6.04369 12.4758C6.33658 12.1829 6.81146 12.1829 7.10435 12.4758L12.4575 17.8289L21.824 4.63C22.0538 4.28536 22.5194 4.19223 22.8641 4.42199Z" fill="black"/>
<path fill-rule="evenodd" clip-rule="evenodd" d="M17.8556 4.38365C18.1927 4.6244 18.2707 5.09281 18.03 5.42988L12.0525 13.7986C11.8117 14.1357 11.3433 14.2137 11.0063 13.973C10.6692 13.7322 10.5911 13.2638 10.8319 12.9268L16.8094 4.55803C17.0501 4.22097 17.5185 4.1429 17.8556 4.38365Z" fill="black"/>
<path fill-rule="evenodd" clip-rule="evenodd" d="M1.0194 12.4798C1.3111 12.1857 1.78597 12.1838 2.08005 12.4755L8.09766 18.4444C8.39174 18.7361 8.39367 19.211 8.10197 19.505C7.81027 19.7991 7.3354 19.801 7.04132 19.5093L1.02371 13.5404C0.729628 13.2487 0.727699 12.7738 1.0194 12.4798Z" fill="black"/>
</svg>
