<svg fill="none" height="24" viewBox="0 0 24 24" width="24" xmlns="http://www.w3.org/2000/svg"><g clip-rule="evenodd" fill="#000" fill-rule="evenodd"><path d="m22.8641 4.42199c.3446.22977.4378.69542.208 1.04007l-9.874 13.96014c-.1247.1869-.3266.3081-.5502.3303-.2236.0221-.4453-.0572-.6042-.216l-6.00001-6c-.29289-.2929-.29289-.7678 0-1.0607s.76777-.2929 1.06066 0l5.35315 5.3531 9.3665-13.1989c.2298-.34464.6954-.43777 1.0401-.20801z"/><path d="m17.8556 4.38365c.3371.24075.4151.70916.1744 1.04623l-5.9775 8.36872c-.2408.3371-.7092.4151-1.0462.1744-.3371-.2408-.4152-.7092-.1744-1.0462l5.9775-8.36877c.2407-.33706.7091-.41513 1.0462-.17438z"/><path d="m1.0194 12.4798c.2917-.2941.76657-.296 1.06065-.0043l6.01761 5.9689c.29408.2917.29601.7666.00431 1.0606-.2917.2941-.76657.296-1.06065.0043l-6.01761-5.9689c-.294082-.2917-.296011-.7666-.00431-1.0606z"/></g></svg>