<svg fill="none" height="24" viewBox="0 0 24 24" width="24" xmlns="http://www.w3.org/2000/svg"><g fill="#000"><path d="m16 13.25c0-.4142.3383-.7434.7469-.8117 2.1298-.3558 3.7531-2.2075 3.7531-4.4383 0-2.48528-2.0147-4.5-4.5-4.5h-8c-2.48528 0-4.5 2.01472-4.5 4.5 0 2.2308 1.62331 4.0825 3.75314 4.4383.40855.0683.74686.3975.74686.8117s-.33747.7549-.74851.7038c-2.96045-.3684-5.25149-2.8936-5.25149-5.9538 0-3.31371 2.68629-6 6-6h8c3.3137 0 6 2.68629 6 6 0 3.0602-2.291 5.5854-5.2515 5.9538-.411.0511-.7485-.2896-.7485-.7038z"/><path d="m12 7.25c.4142 0 .75.33579.75.75v9.9822c0 .4455.5386.6686.8536.3536l1.8661-1.8661c.2929-.2929.7677-.2929 1.0606 0s.2929.7677 0 1.0606l-4 4c-.2929.2929-.7677.2929-1.0606 0l-4.00003-4c-.29289-.2929-.29289-.7677 0-1.0606s.76777-.2929 1.06066 0l1.86607 1.8661c.315.315.8536.0919.8536-.3536v-9.9822c0-.41421.3358-.75.75-.75z"/></g></svg>