<svg fill="none" height="24" viewBox="0 0 24 24" width="24" xmlns="http://www.w3.org/2000/svg"><g fill="#000"><path d="m11.25 3.49995c.4142 0 .75-.33579.75-.75 0-.41422-.3358-.75-.75-.75h-5.25c-2.20914 0-4 1.79086-4 4v11.99995c0 2.2092 1.79086 4 4 4h12c2.2091 0 4-1.7908 4-4v-5.25c0-.4142-.3358-.75-.75-.75s-.75.3358-.75.75v5.25c0 1.3808-1.1193 2.5-2.5 2.5h-12c-1.38071 0-2.5-1.1192-2.5-2.5v-11.99995c0-1.38072 1.11929-2.5 2.5-2.5z"/><path clip-rule="evenodd" d="m21.2803 2.71962c-.9832-.98325-2.5774-.98326-3.5606-.00001l-8.38357 8.38359c-.33046.3304-.57126.7397-.69965 1.189l-.85762 3.0017c-.07483.2619-.00179.5438.19081.7364s.47448.2656.73637.1908l3.00166-.8576c.4494-.1284.8586-.3692 1.1891-.6997l8.3835-8.38352c.9833-.98325.9833-2.57741 0-3.56066zm-2.5 1.06066c.3975-.39747 1.0419-.39747 1.4394 0 .3974.39746.3974 1.04187 0 1.43934l-8.3836 8.38358c-.1502.1502-.3362.2596-.5405.318-.7425.2121-1.42898-.4744-1.2168-1.2169.0583-.2043.1678-.3903.318-.5405z" fill-rule="evenodd"/></g></svg>