<svg fill="none" height="24" viewBox="0 0 24 24" width="24" xmlns="http://www.w3.org/2000/svg"><path clip-rule="evenodd" d="m16.187 3.24584c1.2612-1.26112 3.3058-1.26112 4.567.00001 1.2611 1.26112 1.2611 3.3058 0 4.56692l-11.75175 11.75173c-.42718.4272-.95618.7384-1.53706.9044l-4.20764 1.2022c-.26236.0749-.54473.0018-.73767-.1912-.19294-.1929-.26611-.4753-.19115-.7376l1.20219-4.2077c.16596-.5809.47723-1.1099.90441-1.5371zm3.5044 1.06253c-.6743-.6743-1.7675-.6743-2.4418 0l-11.75175 11.75173c-.24661.2466-.4263.552-.52211.8873-.36205 1.2672.80948 2.4387 2.07664 2.0767.33534-.0958.64073-.2755.88734-.5222l11.75168-11.75166c.6743-.6743.6743-1.76756 0-2.44187z" fill="#000" fill-rule="evenodd"/></svg>