<svg fill="none" height="22" viewBox="0 0 22 22" width="22" xmlns="http://www.w3.org/2000/svg"><path clip-rule="evenodd" d="m14.8383 2.97542c1.156-1.15603 3.0303-1.15603 4.1863 0 1.1561 1.15603 1.1561 3.03032 0 4.18635l-10.77235 10.77243c-.39159.3915-.8765.6769-1.40898.829l-3.857 1.102c-.2405.0687-.49934.0017-.6762-.1752s-.24393-.4357-.17522-.6762l1.10201-3.857c.15213-.5325.43746-1.0174.82904-1.409zm3.2124.97398c-.6182-.61811-1.6203-.61811-2.2384 0l-10.77242 10.7724c-.22606.2261-.39078.506-.4786.8134-.33188 1.1616.74202 2.2355 1.90359 1.9036.30739-.0878.58733-.2526.81339-.4786l10.77244-10.77241c.6181-.61812.6181-1.62028 0-2.23839z" fill="#4360df" fill-rule="evenodd"/></svg>