<svg fill="none" height="21" viewBox="0 0 21 21" width="21" xmlns="http://www.w3.org/2000/svg"><g fill="#4360df"><path d="m17.3761 0c.3797 0 .6875.307804.6875.6875v1.74167c0 .30375.2462.55.55.55h1.699c.3797 0 .6875.3078.6875.6875 0 .37969-.3078.6875-.6875.6875h-1.699c-.3038 0-.55.24624-.55.55v1.74166c0 .3797-.3078.6875-.6875.6875s-.6875-.3078-.6875-.6875v-1.74166c0-.30376-.2463-.55-.55-.55h-1.7866c-.3797 0-.6875-.30781-.6875-.6875 0-.3797.3078-.6875.6875-.6875h1.7866c.3037 0 .55-.24625.55-.55v-1.74167c0-.379696.3078-.6875.6875-.6875z"/><path d="m12.0914 2.7009c.0949-.29396-.0409-.64273-.3442-.70126-.5656-.10915-1.1497-.16631-1.7472-.16631-5.06257 0-9.166626 4.10406-9.166626 9.16667 0 5.0626 4.104056 9.1667 9.166626 9.1667 5.0627 0 9.1667-4.1041 9.1667-9.1667 0-.5222-.0437-1.03419-.1275-1.53254-.0534-.31706-.4233-.45705-.7263-.34951-.0583.0207-.1176.03932-.1778.05576-.275.07506-.4796.3405-.4359.62214.0609.39245.0925.79465.0925 1.20415 0 4.3032-3.4884 7.7917-7.7917 7.7917-4.30318 0-7.79163-3.4885-7.79163-7.7917 0-4.30322 3.48845-7.79167 7.79163-7.79167.4762 0 .9423.04271 1.3949.1245.294.05315.5761-.16642.6469-.45674.0145-.05925.031-.11767.0496-.17519z"/><g clip-rule="evenodd" fill-rule="evenodd"><path d="m4.40336 12.2118c.25049-.2876.64338-.441 1.0512-.3768.82016.1291 2.36622.3079 4.63854.3079 2.2723 0 3.8183-.1788 4.6385-.3079.4078-.0642.8007.0892 1.0512.3768.2591.2975.3603.7389.1701 1.1609-.581 1.2892-2.2 3.8119-5.8598 3.8119-3.65985 0-5.27886-2.5227-5.85983-3.8119-.19019-.422-.08907-.8634.17009-1.1609zm2.22016 1.153c-.3755-.0359-.63543.3609-.39978.6555.72377.9047 1.92583 1.7893 3.86936 1.7893 1.9435 0 3.1455-.8846 3.8693-1.7893.2357-.2946-.0243-.6914-.3998-.6555-.8878.085-2.0443.1531-3.4695.1531-1.42525 0-2.58179-.0681-3.46958-.1531z"/><path d="m5.5036 6.45233c.25793-.30952.71793-.35133 1.02744-.09341l2.50118 2.08432c.23595.19663.32348.51998.21892.80877s-.3788.48117-.68594.48117c-1.15664 0-2.84143.37452-3.78188.96252-.34162.2136-.79171.1098-1.00531-.2318-.21359-.3416-.10981-.79173.23181-1.00533.64263-.40179 1.4853-.70602 2.33527-.90549.1711-.04016.22708-.26066.09206-.37318l-.84015-.70013c-.30951-.25792-.35133-.71793-.0934-1.02744z"/><path d="m14.4965 6.45233c-.2579-.30952-.7179-.35133-1.0275-.09341l-2.5011 2.08432c-.236.19663-.3235.51998-.219.80877.1046.28879.3788.48117.686.48117 1.1566 0 2.8414.37452 3.7819.96252.3416.2136.7917.1098 1.0053-.2318s.1098-.79173-.2318-1.00533c-.6427-.40179-1.4853-.70602-2.3353-.90549-.1711-.04016-.2271-.26066-.0921-.37318l.8402-.70013c.3095-.25792.3513-.71793.0934-1.02744z"/></g></g></svg>