<svg fill="none" height="24" viewBox="0 0 24 24" width="24" xmlns="http://www.w3.org/2000/svg"><g fill="#000"><path d="m6.46967 12.4697c.29289-.2929.76777-.2929 1.06066 0s.29289.7677 0 1.0606l-1.86612 1.8661c-.31498.315-.09189.8536.35356.8536h12.98223c.4142 0 .75.3358.75.75s-.3358.75-.75.75h-12.98223c-.44546 0-.66854.5386-.35356.8536l1.86612 1.8661c.29289.2929.29289.7677 0 1.0606s-.76777.2929-1.06066 0l-4-4c-.29289-.2929-.29289-.7677 0-1.0606z"/><path d="m17.5303 2.46967c-.2929-.29289-.7677-.29289-1.0606 0s-.2929.76777 0 1.06066l1.8661 1.86612c.315.31498.0919.85355-.3536.85355h-12.9822c-.41421 0-.75.33579-.75.75s.33579.75.75.75h12.9822c.4455 0 .6686.53857.3536.85355l-1.8661 1.86615c-.2929.2929-.2929.7677 0 1.0606s.7677.2929 1.0606 0l4-3.99997c.2929-.29289.2929-.76777 0-1.06066z"/></g></svg>