<svg fill="none" height="14" viewBox="0 0 14 14" width="14" xmlns="http://www.w3.org/2000/svg"><g fill="#ff2d55"><path d="m6.99992 3.16671c.27614 0 .5.22386.5.5v4.66666c0 .27615-.22386.5-.5.5s-.5-.22385-.5-.5v-4.66666c0-.27614.22386-.5.5-.5z"/><path d="m6.99992 11.5c.46024 0 .83333-.3731.83333-.8333s-.37309-.83333-.83333-.83333-.83333.37313-.83333.83333.37309.8333.83333.8333z"/><path clip-rule="evenodd" d="m.333252 7.00004c0 3.68186 2.984768 6.66666 6.666668 6.66666 3.68188 0 6.66668-2.9848 6.66668-6.66666 0-3.6819-2.9848-6.666666-6.66668-6.666666-3.6819 0-6.666668 2.984766-6.666668 6.666666zm.999998 0c0 3.12966 2.53705 5.66666 5.66667 5.66666 3.12958 0 5.66668-2.537 5.66668-5.66666 0-3.12961-2.5371-5.66667-5.66668-5.66667-3.12962 0-5.66667 2.53706-5.66667 5.66667z" fill-rule="evenodd"/></g></svg>