<svg fill="none" height="24" viewBox="0 0 24 24" width="24" xmlns="http://www.w3.org/2000/svg"><g fill="#939ba1"><path d="m3.21016 14.2426c0-.4142.33578-.75.75-.75.41421 0 .75.3358.75.75l-.00001 2.6391c0 .4455.53858.6686.85356.3536l4.17982-4.1798c.29287-.2929.76777-.2929 1.06067 0s.2929.7677 0 1.0606l-4.17983 4.1798c-.31498.315-.0919.8536.35355.8536h2.63909c.41419 0 .74999.3358.74999.75s-.3358.75-.74999.75h-5.65685c-.41422 0-.75-.3358-.75-.75z"/><path d="m13.9602 3.35051c-.4143 0-.75.33578-.75.75 0 .41421.3357.75.75.75h2.639c.4455 0 .6686.53857.3536.85355l-4.1798 4.17982c-.2929.29292-.2929.76782 0 1.06062.2929.2929.7677.2929 1.0606 0l4.1799-4.17978c.3149-.31498.8535-.0919.8535.35356v2.63908c0 .41424.3358.75004.75.75004s.75-.3358.75-.75004v-5.65685c0-.41422-.3358-.75-.75-.75z"/></g></svg>