<svg fill="none" height="24" viewBox="0 0 24 24" width="24" xmlns="http://www.w3.org/2000/svg"><path clip-rule="evenodd" d="m12 5.75c0 .41421.3358.75.75.75h2.2959c.4455 0 .6686.53857.3536.85355l-5.1798 5.17985c-.29292.2929-.29292.7677 0 1.0606.2929.2929.7677.2929 1.0606 0l5.1799-5.17979c.3149-.31498.8535-.0919.8535.35356v2.57623c0 .4143.3358.75.75.75s.75-.3357.75-.75v-5.594c0-.41421-.3358-.75-.75-.75h-5.3137c-.4142 0-.75.33579-.75.75zm-2 1c0 .41421-.33579.75-.75.75h-.25c-1.38071 0-2.5 1.11929-2.5 2.5v5c0 1.3807 1.11929 2.5 2.5 2.5h5c1.3807 0 2.5-1.1193 2.5-2.5v-.25c0-.4142.3358-.75.75-.75s.75.3358.75.75v.25c0 2.2091-1.7909 4-4 4h-5c-2.20914 0-4-1.7909-4-4v-5c0-2.20914 1.79086-4 4-4h.25c.41421 0 .75.33579.75.75z" fill="#4360df" fill-rule="evenodd"/></svg>