<svg fill="none" height="24" viewBox="0 0 24 24" width="24" xmlns="http://www.w3.org/2000/svg"><g fill="#000"><path d="m6 20.25c-1.24264 0-2.25-1.0074-2.25-2.25v-2c0-.4142-.33579-.75-.75-.75s-.75.3358-.75.75v2c0 2.0711 1.67893 3.75 3.75 3.75h2c.41421 0 .75-.3358.75-.75s-.33579-.75-.75-.75z"/><path d="m9.8409 15.0381c-.25076-.321-.71353-.3836-1.0409-.1381-.33137.2485-.39853.7186-.15 1.05.22353.2974.53287.5183.8529.7012.5499.3142 1.3655.5988 2.4971.5988s1.9472-.2846 2.4971-.5988c.2724-.1557.474-.3154.6132-.4438.0853-.0788.1668-.1617.2373-.2542.2468-.3263.1814-.8064-.1476-1.0532-.3274-.2455-.7901-.1829-1.0409.1381-.1118.1276-.2602.2273-.4062.3107-.3251.1858-.8845.4012-1.7529.4012s-1.4278-.2154-1.7529-.4012c-.1651-.0943-.27602-.1846-.33995-.2437-.02309-.0213-.04553-.0433-.06625-.067z"/><path d="m12.75 9.5c0-.41421-.3358-.75-.75-.75s-.75.33579-.75.75v3h-.25c-.4142 0-.75.3358-.75.75s.3358.75.75.75h.5c.6904 0 1.25-.5596 1.25-1.25z"/><path d="m8.75 9.5c0-.41421-.33579-.75-.75-.75s-.75.33579-.75.75v1.5c0 .4142.33579.75.75.75s.75-.3358.75-.75z"/><path d="m3.75 6c0-1.24264 1.00736-2.25 2.25-2.25h2c.41421 0 .75-.33579.75-.75s-.33579-.75-.75-.75h-2c-2.07107 0-3.75 1.67893-3.75 3.75v2c0 .41421.33579.75.75.75s.75-.33579.75-.75z"/><path d="m16 8.75c.4142 0 .75.33579.75.75v1.5c0 .4142-.3358.75-.75.75s-.75-.3358-.75-.75v-1.5c0-.41421.3358-.75.75-.75z"/><path d="m18 3.75c1.2426 0 2.25 1.00736 2.25 2.25v2c0 .41421.3358.75.75.75s.75-.33579.75-.75v-2c0-2.07107-1.6789-3.75-3.75-3.75h-2c-.4142 0-.75.33579-.75.75s.3358.75.75.75z"/><path d="m18 20.25c1.2426 0 2.25-1.0074 2.25-2.25v-2c0-.4142.3358-.75.75-.75s.75.3358.75.75v2c0 2.0711-1.6789 3.75-3.75 3.75h-2c-.4142 0-.75-.3358-.75-.75s.3358-.75.75-.75z"/></g></svg>