<svg fill="none" height="24" viewBox="0 0 24 24" width="24" xmlns="http://www.w3.org/2000/svg"><g fill="#000"><path d="m17 10.5c0 .8284-.6716 1.5-1.5 1.5s-1.5-.6716-1.5-1.5c0-.82843.6716-1.5 1.5-1.5s1.5.67157 1.5 1.5z"/><path d="m8.5 12c.82843 0 1.5-.6716 1.5-1.5 0-.82843-.67157-1.5-1.5-1.5s-1.5.67157-1.5 1.5c0 .8284.67157 1.5 1.5 1.5z"/><path d="m8.46422 17.2144c.2929.2929.76481.2864 1.10436.0492.68892-.4813 1.52702-.7636 2.43122-.7636.9041 0 1.7422.2823 2.4311.7636.3396.2372.8115.2437 1.1044-.0492s.2955-.7723-.0329-1.0248c-.9698-.7461-2.1844-1.1896-3.5026-1.1896s-2.53285.4435-3.50272 1.1896c-.32832.2525-.32575.7319-.03286 1.0248z"/><path clip-rule="evenodd" d="m12 22c5.5228 0 10-4.4772 10-10 0-5.52285-4.4772-10-10-10-5.52285 0-10 4.47715-10 10 0 5.5228 4.47715 10 10 10zm0-1.5c4.6944 0 8.5-3.8056 8.5-8.5 0-4.69442-3.8056-8.5-8.5-8.5-4.69442 0-8.5 3.80558-8.5 8.5 0 4.6944 3.80558 8.5 8.5 8.5z" fill-rule="evenodd"/></g></svg>