<svg fill="none" height="20" viewBox="0 0 18 20" width="18" xmlns="http://www.w3.org/2000/svg"><path d="m16.8536 1.1484c-.1953.19526-.5119.19526-.7072 0l-.7928-.792893c-.1953-.195262-.5119-.195263-.7072-.000001l-.7928.792894c-.1953.19526-.5119.19526-.7072 0l-.7928-.792893c-.1953-.195262-.5119-.195263-.7072-.000001l-.7928.792894c-.1953.19526-.5119.19526-.7072 0l-.79285-.792893c-.19526-.195262-.51184-.195263-.7071-.000001l-.7929.792894c-.19526.19526-.51184.19526-.7071 0l-.7929-.792893c-.19526-.195262-.51184-.195263-.7071-.000001l-.7929.792894c-.19526.19526-.51184.19526-.7071 0l-.7929-.792893c-.19526-.195262-.51184-.195263-.7071-.000001l-.7929.792894c-.19526.19526-.51184.19526-.7071 0l-.292896-.292893c-.314983-.314982-.853554-.091899-.853554.353553v17.58574c0 .4455.538571.6686.853553.3536l.292897-.2929c.19526-.1953.51184-.1953.7071 0l.7929.7929c.19526.1953.51184.1953.7071 0l.7929-.7929c.19526-.1953.51184-.1953.7071 0l.7929.7929c.19526.1953.51184.1953.7071 0l.7929-.7929c.19526-.1953.51184-.1953.7071 0l.7929.7929c.19526.1953.51184.1953.7071 0l.79285-.7929c.1953-.1953.5119-.1953.7072 0l.7928.7929c.1953.1953.5119.1953.7072 0l.7928-.7929c.1953-.1953.5119-.1953.7072 0l.7928.7929c.1953.1953.5119.1953.7072 0l.7928-.7929c.1953-.1953.5119-.1953.7072 0l.2928.2929c.315.315.8536.0919.8536-.3536v-17.58574c0-.445452-.5386-.668536-.8536-.353553zm-.8536 15.4436c0 .2761-.2239.5-.5.5h-13c-.27614 0-.5-.2239-.5-.5v-13.18005c0-.27614.22386-.5.5-.5h13c.2761 0 .5.22386.5.5zm-13-3.09c0-.2762.22386-.5.5-.5h11c.2761 0 .5.2238.5.5v1c0 .2761-.2239.5-.5.5h-11c-.27614 0-.5-.2239-.5-.5zm0-4.00005c0-.27614.22386-.5.5-.5h11c.2761 0 .5.22386.5.5v1.00005c0 .2761-.2239.5-.5.5h-11c-.27614 0-.5-.2239-.5-.5zm0-4c0-.27614.22386-.5.5-.5h11c.2761 0 .5.22386.5.5v1c0 .27615-.2239.5-.5.5h-11c-.27614 0-.5-.22385-.5-.5z" fill="#000"/></svg>