<svg fill="none" height="24" viewBox="0 0 24 24" width="24" xmlns="http://www.w3.org/2000/svg"><path clip-rule="evenodd" d="m18.7883 6.37753-3.3382-3.24551c-.7467-.72591-1.747-1.13202-2.7883-1.13202h-4.6618c-2.20914 0-4 1.79086-4 4v12c0 2.2091 1.79086 4 4 4h8c2.2091 0 4-1.7909 4-4v-8.75449c0-1.0804-.437-2.11486-1.2117-2.86798zm-2.7883 14.12247h-8c-1.38071 0-2.5-1.1193-2.5-2.5v-12c0-1.38071 1.11929-2.5 2.5-2.5h4.6618c.1137 0 .2267.00776.3382.02298v4.47702c0 1.10457.8954 2 2 2h3.5v8c0 1.3807-1.1193 2.5-2.5 2.5zm2.3863-12c-.123-.39342-.3425-.75421-.6436-1.04698l-3.2427-3.15262v3.6996c0 .27614.2239.5.5.5z" fill="#000" fill-rule="evenodd"/></svg>