<svg fill="none" height="24" viewBox="0 0 24 24" width="24" xmlns="http://www.w3.org/2000/svg"><path clip-rule="evenodd" d="m5.80244 5.38251c-.03248.0171-.05244.05097-.05244.08766v6.68313c0 .36.39262.5907.72817.4602 1.33942-.5208 3.21314-.6283 5.41933.7506 1.7999 1.1249 3.4639 1.1199 4.6863.8421.6169-.1402 1.1223-.3508 1.4714-.5254.1213-.0606.1948-.1862.1948-.3218v-6.52654c0-.34294-.3379-.58465-.6697-.4982-.2161.05628-.4487.10874-.6961.15373-1.4942.27166-3.5415.27197-5.7196-.81709-1.84088-.92044-3.28944-.90257-4.25191-.68869-.48791.10843-.86286.2701-1.11025.4003zm12.82596-1.03392-.001.00057-.02.01079c-.0197.01047-.0519.02722-.0959.04882-.0882.04324-.2232.10573-.3994.1762-.3531.14125-.867.31279-1.4963.42721-1.2558.22834-2.9585.22803-4.7804-.68292-2.15913-1.07958-3.96057-1.09745-5.2481-.81133-.63709.14158-1.13713.35492-1.48349.53721-.17331.09122-.30882.17502-.4046.23887-.04793.03195-.08601.05898-.11402.07954-.014.01028-.0255.01896-.03446.02583l-.01154.00894-.00433.00342-.00181.00144-.00082.00065s.00954-.00757.0185-.01445l-.0185.01445-.09458.07566c-.11861.09489-.18765.23854-.18765.39043v15.62008c0 .2762.22386.5.5.5h.5c.27614 0 .5-.2238.5-.5v-5.4761c0-.1394.05713-.2737.16474-.3622.00413-.0034.00828-.0068.01248-.0102.25163-.2053.62194-.4561 1.09461-.6399.91058-.3542 2.28686-.4967 4.08067.6245 2.2001 1.3751 4.2861 1.38 5.8137 1.0328.7581-.1723 1.3777-.4304 1.8098-.6464.2167-.1084.3879-.207.5079-.2805.06-.0368.1073-.0674.1412-.09.0137-.0091.0252-.0169.0345-.0233.0041-.0028.0082-.0057.0123-.0086.0022-.0015.0046-.0032.0066-.0044.012-.0077.0359-.0246.0496-.0342.0068-.0049.0137-.0095.0207-.014l.0442-.0284.0582-.0446c.028-.0214.0539-.0455.0744-.0741.0314-.0438.0744-.1133.0744-.1655v-9.68561c0-.38392-.4147-.6246-.7481-.43412l-.3718.21248z" fill="#000" fill-rule="evenodd"/></svg>