<svg fill="none" height="24" viewBox="0 0 24 24" width="24" xmlns="http://www.w3.org/2000/svg"><g fill="#000"><path clip-rule="evenodd" d="m2.46967 2.46971c.29289-.2929.76777-.2929 1.06066 0l17.99997 17.99999c.2929.2929.2929.7678 0 1.0607s-.7677.2929-1.0606 0l-4.7548-4.7548c-.2038-.2038-.5371-.1936-.7281.0222l-4.4408 5.0202c-.3234.3656-.92537.0986-.87147-.3866l.70237-6.3209c.0658-.5924-.39792-1.1104-.99393-1.1104h-4.71793c-.64629 0-.98996-.7629-.56175-1.2469l3.25064-3.67468c.1751-.19794.16592-.49797-.02095-.68484l-4.86331-4.86331c-.29289-.2929-.29289-.76777 0-1.06066zm11.47413 12.53479c.1869.1869.1961.4869.021.6848l-1.4051 1.5884c-.3234.3656-.9254.0986-.8715-.3865l.1795-1.615c.1645-1.481-.9947-2.7761-2.48473-2.7761h-1.94326c-.43086 0-.65998-.5086-.3745-.8313l1.3108-1.4818c.19093-.21581.52429-.226.72805-.0222z" fill-rule="evenodd"/><path d="m17.8484 13.5626c-.1909.2158-.5243.226-.728.0223l-.3543-.3543c-.1868-.1868-.196-.4868-.0209-.6848l.1897-.2144c.2855-.3227.0564-.8313-.3745-.8313h-1.3177c-.1326 0-.2598-.0527-.3536-.1465l-.5-.5c-.315-.315-.0919-.8535.3536-.8535h4.5924c.6463 0 .9899.7628.5617 1.2469z"/><path d="m12.1717 8.3708c-.0168.15096.036.30136.1434.40877l.4527.45277c.2965.29645.8042.11835.8505-.29834l.7073-6.36529c.0539-.48513-.548-.7521-.8715-.3865l-3.3197 3.75278c-.17513.19794-.16595.49796.0209.68484l.3542.35421c.2038.20376.5372.19357.7281-.02226l.2028-.22931c.3235-.3656.9254-.09864.8715.3865z"/></g></svg>