<svg fill="none" height="24" viewBox="0 0 24 24" width="24" xmlns="http://www.w3.org/2000/svg"><path clip-rule="evenodd" d="m12.3821 11.0003c-.2846-.3179-.4203-.7419-.3732-1.16599l.3029-2.72546c.0539-.48514-.5481-.7521-.8715-.3865l-4.37558 4.94635c-.28547.3227-.05636.8313.3745.8313h1.94326c1.49002 0 2.64922 1.2951 2.48472 2.776l-.1795 1.6151c-.0539.4851.5481.7521.8715.3865l4.3756-4.9464c.2855-.3227.0563-.8312-.3745-.8312h-3.0606c-.4266 0-.8331-.1817-1.1176-.4997zm-1.8366 10.8175c-.3234.3656-.92536.0987-.87146-.3865l.70236-6.3209c.0658-.5924-.3979-1.1104-.99392-1.1104h-4.71793c-.64629 0-.98996-.7629-.56175-1.247l9.3512-10.57091c.3234-.3656.9254-.09864.8715.3865l-.7641 6.87615c-.0329.29618.199.55521.497.55521h5.2765c.6463 0 .99.76285.5618 1.24695z" fill="#000" fill-rule="evenodd"/></svg>