<svg fill="none" height="24" viewBox="0 0 24 24" width="24" xmlns="http://www.w3.org/2000/svg"><path clip-rule="evenodd" d="m12.7177 6.32837c.0885.07864.229.02763.247-.08938.1021-.66712.2272-1.39663.3674-2.03295.1175-.53369.2572-1.05795.4226-1.42637.0717-.1596.202-.41879.4312-.59258.134-.10159.346-.20639.6142-.18502.2648.02109.4563.15511.5727.27159.4759.47585.8422 1.2878 1.0703 1.86488.0652.16479.2531.24484.4181.18013.0719-.02824.1458-.05602.2209-.08285.3536-.12619.7756-.24564 1.1853-.27341.3879-.0263.9349.0194 1.3409.4254.406.40601.4517.95296.4254 1.34093-.0278.40966-.1472.83169-.2734 1.18524-.0268.07515-.0546.149-.0828.22098-.0648.16495.0153.35289.1801.41803.5771.2281 1.389.59445 1.8649 1.0703.1136.11366.2444.29893.27.55554.0262.26227-.0698.47432-.1695.61253-.1693.23464-.4259.36674-.5796.43774-.3563.1645-.863.3024-1.3782.4182-.5628.1265-1.2047.2411-1.8144.3382-.0318.0051-.0434.0448-.0193.0662.9886.8788.8708 2.4506-.2519 3.1501-4.5217 2.8172-14.47506 8.8029-15.62975 7.6483-1.171494-1.1714 4.88388-10.9124 7.59256-15.12319.65739-1.02194 2.06709-1.20584 2.97529-.39854zm2.7691-.32026c.0895.31107.4466.45636.7279.29619l.2758-.15707.0028-.00157.0149-.00826c.0138-.00764.0352-.0194.0635-.03449.0565-.03024.1395-.07358.2418-.12388.2066-.10153.4827-.22694.7729-.33049.2978-.10631.5713-.17525.7824-.18956.0982-.00666.175.0701.1683.16831-.0143.21118-.0832.48463-.1895.78247-.1036.29012-.229.56628-.3305.77283-.0503.10232-.0937.18536-.1239.24187-.0151.02821-.0268.04968-.0345.06349l-.0082.01483-.0018.00313-.1569.27552c-.1601.28131-.0149.63835.2962.72789l.3054.08791.0029.00085.0139.0041c.0128.00378.0325.00966.0582.0175.0514.01572.1269.03928.2201.06984.1872.06134.4428.1498.7177.25844.0823.03253.1635.0658.2428.09959.0653.02778.0565.12069-.0127.13624-.8674.1949-1.9602.36416-2.8034.48079-.1442.01996-.2897-.02467-.3986-.12143l-1.865-1.65782c-.1238-.11007-.1852-.27422-.163-.43841.1136-.84023.2875-1.9958.4907-2.91831.0202-.09186.1427-.10337.1789-.01655.0245.05852.0486.1179.0723.17788.1086.27485.1971.53045.2584.71763.0306.09327.0541.16876.0698.22019.0079.02569.0138.04533.0175.05811l.0041.01393.001.00332zm1.5482 6.16479-5.3138-4.72341c-.2297-.20418-.565-.14776-.7172.08895-.4764.74059-1.05478 1.64988-1.67762 2.65106-.107.172-.05208.3979.11933.5058.31244.1967.72269.4685 1.03479.7289.3476.2901.7466.6905 1.0463 1.0033.1527.1594.2851.3018.3794.4044.0472.0514.085.093.1112.122l.0304.0337.0082.0091.0032.0036c.276.3089.2494.783-.0595 1.059-.3088.276-.7829.2494-1.0589-.0594l-.0018-.0021-.0067-.0074-.0272-.0301c-.0239-.0265-.0592-.0653-.1036-.1136-.0889-.0968-.2139-.2313-.3578-.3815-.2934-.3062-.64444-.6558-.92422-.8893-.23149-.1931-.57124-.4213-.87291-.6112-.16427-.1034-.38045-.0499-.4809.1162-.1747.2889-.3501.581-.52512.875-.02967.0498-.02442.1122.00514.1621.00654.0111.01411.0213.02326.0303.0498.0489.14421.1362.31162.2759.34759.2901.74659.6905 1.04632 1.0033.15271.1594.28506.3018.37935.4044.0472.0514.08501.093.11123.122l.0304.0337.00819.0091.00312.0035c.276.3088.24949.7831-.05937 1.0591-.30884.276-.78293.2494-1.05894-.0594l-.00184-.0021-.00667-.0074-.02714-.0301c-.02395-.0265-.05922-.0653-.10363-.1136-.08894-.0968-.21396-.2313-.35783-.3815-.29343-.3062-.64443-.6558-.9242-.8893-.11462-.0956-.28932-.0672-.36364.0623-.29241.5093-.57757 1.0157-.8499 1.5119l-1.33209 2.7266c-.20761.425.23622.8739.66355.6712l2.85917-1.3562c3.15185-1.6797 6.73585-3.8587 8.98975-5.263.2536-.158.3048-.5281.0486-.7558z" fill="#000" fill-rule="evenodd"/></svg>