<svg fill="none" height="20" viewBox="0 0 20 20" width="20" xmlns="http://www.w3.org/2000/svg"><g fill="#000"><path d="m15 8.5c0 .82843-.6716 1.5-1.5 1.5s-1.5-.67157-1.5-1.5.6716-1.5 1.5-1.5 1.5.67157 1.5 1.5z"/><path d="m6.5 10c.82843 0 1.5-.67157 1.5-1.5s-.67157-1.5-1.5-1.5-1.5.67157-1.5 1.5.67157 1.5 1.5 1.5z"/><path d="m6.46422 15.2144c.2929.2929.76481.2864 1.10436.0492.68889-.4813 1.52707-.7636 2.43118-.7636.90414 0 1.74224.2823 2.43114.7636.3396.2372.8115.2437 1.1044-.0492s.2955-.7723-.0329-1.0248c-.9698-.7461-2.1844-1.1896-3.50264-1.1896-1.31821 0-2.53281.4435-3.50268 1.1896-.32832.2525-.32575.7319-.03286 1.0248z"/><path clip-rule="evenodd" d="m10 20c5.5228 0 10-4.4772 10-10 0-5.52285-4.4772-10-10-10-5.52285 0-10 4.47715-10 10 0 5.5228 4.47715 10 10 10zm0-1.5c4.6944 0 8.5-3.8056 8.5-8.5 0-4.69442-3.8056-8.5-8.5-8.5-4.69442 0-8.5 3.80558-8.5 8.5 0 4.6944 3.80558 8.5 8.5 8.5z" fill-rule="evenodd"/></g></svg>