<svg fill="none" height="24" viewBox="0 0 24 24" width="24" xmlns="http://www.w3.org/2000/svg"><path clip-rule="evenodd" d="m8.75 3c-2.07107 0-3.75 1.67893-3.75 3.75v12c0 .9665.7835 1.75 1.75 1.75h6c.9665 0 1.75-.7835 1.75-1.75v-5.75h.25c.6904 0 1.25.5596 1.25 1.25v3.5c0 1.5188 1.2312 2.75 2.75 2.75s2.75-1.2312 2.75-2.75v-8.6387c0-1.08136-.4668-2.11008-1.2806-2.82216l-2.9755-2.60357c-.3117-.27276-.7856-.24118-1.0583.07055-.2728.31173-.2412.78555.0705 1.05831l1.4879 1.30191c-1.0112.32041-1.744 1.26645-1.744 2.38366 0 1.38071 1.1193 2.5 2.5 2.5.5628 0 1.0822-.186 1.5-.4998v7.2498c0 .6904-.5596 1.25-1.25 1.25s-1.25-.5596-1.25-1.25v-3.5c0-1.5188-1.2312-2.75-2.75-2.75h-.25v-4.75c0-2.07107-1.6789-3.75-3.75-3.75zm-2.25 3.75c0-1.24264 1.00736-2.25 2.25-2.25h2c1.2426 0 2.25 1.00736 2.25 2.25v2.5h-6.5zm0 4v8c0 .1381.11193.25.25.25h6c.1381 0 .25-.1119.25-.25v-8zm12-3.25c-.5523 0-1 .44772-1 1s.4477 1 1 1 1-.44772 1-1-.4477-1-1-1z" fill="#4360df" fill-rule="evenodd"/></svg>