<svg width="20" height="20" viewBox="0 0 20 20" fill="none" xmlns="http://www.w3.org/2000/svg">
<g clip-path="url(#clip0_3221_3033)">
<path fill-rule="evenodd" clip-rule="evenodd" d="M7.75351 2.65901C7.53509 2.5329 7.25945 2.42204 6.93102 2.43125C6.59944 2.44056 6.29071 2.56982 6.00037 2.78365C5.45101 3.18824 4.8528 3.98319 4.10137 5.28471C3.34993 6.58624 2.96059 7.50177 2.88488 8.17984C2.84487 8.53818 2.88729 8.87019 3.04503 9.16199C3.20126 9.45103 3.43509 9.63431 3.65351 9.76042C3.87194 9.88653 4.14758 9.99739 4.47601 9.98817C4.77752 9.97971 5.06015 9.87206 5.32722 9.69183C5.34062 9.74712 5.35641 9.80235 5.37473 9.85753C5.54263 10.3633 5.89537 10.7809 6.35828 11.1675C6.51686 11.2999 6.6938 11.4331 6.88869 11.5688C6.795 11.6895 6.7047 11.8237 6.61485 11.9644C6.41834 12.2724 6.17857 12.6877 5.87286 13.2172L5.86483 13.2311L5.8568 13.245C5.55109 13.7745 5.31132 14.1898 5.1429 14.5139C4.98086 14.8258 4.84507 15.1249 4.80508 15.4024C4.78307 15.5553 4.78646 15.7212 4.8412 15.8896C4.89625 16.0589 4.99029 16.1908 5.09121 16.2936C5.25284 16.4582 5.48123 16.5896 5.66234 16.6938L5.70047 16.7158L5.73856 16.7378C5.91934 16.8426 6.1473 16.9747 6.37069 17.0323C6.51016 17.0683 6.67148 17.0838 6.8456 17.0468C7.01877 17.0101 7.1642 16.93 7.28553 16.8345C7.50592 16.6611 7.69703 16.394 7.88609 16.0977C8.08259 15.7898 8.32235 15.3745 8.62805 14.8451L8.62806 14.845L8.62807 14.845L8.62808 14.845L8.63611 14.8311L8.64415 14.8172L8.64416 14.8171L8.64417 14.8171L8.64418 14.8171C8.94987 14.2876 9.18964 13.8724 9.35805 13.5482C9.43505 13.4 9.50612 13.2547 9.56381 13.1132C9.77866 13.2141 9.98242 13.3008 10.1764 13.3719C10.7426 13.5794 11.2807 13.6761 11.8026 13.5687C11.8595 13.5569 11.9151 13.543 11.9696 13.527C11.9471 13.8484 11.9952 14.1469 12.1386 14.4122C12.2949 14.7012 12.5287 14.8845 12.7471 15.0106C12.9655 15.1367 13.2412 15.2476 13.5696 15.2384C13.9012 15.2291 14.2099 15.0998 14.5002 14.886C15.0496 14.4814 15.6478 13.6865 16.3993 12.3849C17.1507 11.0834 17.54 10.1679 17.6157 9.48981C17.6557 9.13146 17.6133 8.79946 17.4556 8.50765C17.2994 8.21861 17.0655 8.03533 16.8471 7.90923C16.6287 7.78312 16.353 7.67225 16.0246 7.68147C15.7231 7.68993 15.4405 7.79756 15.1735 7.97776C15.1601 7.92254 15.1443 7.86738 15.126 7.81227C14.9581 7.30655 14.6054 6.8889 14.1425 6.50232C13.6807 6.11671 13.0634 5.72472 12.3004 5.2842C11.5374 4.84368 10.8892 4.50503 10.3244 4.29795C9.75817 4.09036 9.2201 3.9937 8.69818 4.10115C8.64125 4.11288 8.58553 4.12681 8.53096 4.14285C8.55352 3.82141 8.50544 3.5228 8.362 3.25743C8.20577 2.96839 7.97194 2.78512 7.75351 2.65901ZM8.17807 12.3727C8.18549 12.377 8.19293 12.3813 8.20038 12.3856C8.20786 12.3899 8.21534 12.3942 8.2228 12.3985C8.36027 12.4781 8.44092 12.527 8.48999 12.56C8.46443 12.6389 8.40856 12.7729 8.2932 12.995C8.13859 13.2925 7.91234 13.6847 7.59688 14.2311C7.28143 14.7775 7.05493 15.1695 6.87453 15.4522C6.73992 15.6631 6.65179 15.7785 6.59621 15.8401C6.54028 15.8127 6.45164 15.7638 6.30047 15.6765C6.14931 15.5893 6.06263 15.5369 6.01096 15.5022C6.03652 15.4233 6.09238 15.2892 6.20775 15.0672C6.36236 14.7696 6.58861 14.3775 6.90406 13.8311C7.21952 13.2847 7.44602 12.8927 7.62642 12.61C7.76102 12.3991 7.84916 12.2837 7.90474 12.2221C7.95785 12.2481 8.04045 12.2935 8.17807 12.3727ZM8.88001 11.3922C9.5936 11.8017 10.1433 12.0816 10.5894 12.2452C11.0506 12.4143 11.3454 12.4376 11.5606 12.3933C11.7652 12.3512 11.9804 12.2308 12.2489 11.9349C12.5254 11.6303 12.8229 11.1792 13.1949 10.5349C13.5668 9.89063 13.8087 9.40747 13.9344 9.01566C14.0563 8.63522 14.053 8.38867 13.9872 8.19039C13.9179 7.98185 13.7503 7.73824 13.3733 7.42338C12.9951 7.10754 12.4529 6.75791 11.7004 6.32343C10.9478 5.88895 10.374 5.59423 9.91134 5.42462C9.45014 5.25553 9.15538 5.23219 8.94016 5.2765C8.73552 5.31863 8.52034 5.43902 8.25185 5.73486C7.97533 6.03955 7.67786 6.49063 7.30589 7.1349C6.93392 7.77917 6.69201 8.26233 6.5664 8.65415C6.44444 9.03459 6.44777 9.28114 6.5136 9.47942C6.58284 9.68796 6.75043 9.93156 7.12747 10.2464C7.4922 10.551 8.00948 10.8871 8.72087 11.3003C8.73496 11.3085 8.74881 11.3165 8.76239 11.3244L8.80047 11.3464L8.83861 11.3684C8.85216 11.3762 8.86598 11.3841 8.88001 11.3922ZM5.1406 5.88471C5.88916 4.58816 6.38246 3.99257 6.71198 3.74988C6.86109 3.64007 6.93865 3.63151 6.96468 3.63078C6.99387 3.62996 7.04718 3.63685 7.15351 3.69824C7.25985 3.75963 7.29246 3.80236 7.30635 3.82804C7.31873 3.85096 7.3501 3.9224 7.32955 4.10644C7.28415 4.51315 7.01499 5.23816 6.26643 6.53471C5.51787 7.83126 5.02457 8.42686 4.69505 8.66954C4.54594 8.77936 4.46838 8.78791 4.44234 8.78864C4.41316 8.78946 4.35985 8.78258 4.25351 8.72119C4.14718 8.6598 4.11456 8.61707 4.10068 8.59138C4.08829 8.56847 4.05693 8.49703 4.07747 8.31299C4.12288 7.90627 4.39203 7.18126 5.1406 5.88471ZM15.8056 9.0001C15.4761 9.24278 14.9828 9.83838 14.2342 11.1349C13.4856 12.4315 13.2165 13.1565 13.1711 13.5632C13.1505 13.7472 13.1819 13.8187 13.1943 13.8416C13.2082 13.8673 13.2408 13.91 13.3471 13.9714C13.4534 14.0328 13.5067 14.0397 13.5359 14.0389C13.562 14.0381 13.6395 14.0296 13.7886 13.9198C14.1182 13.6771 14.6115 13.0815 15.36 11.7849C16.1086 10.4884 16.3777 9.76337 16.4231 9.35666C16.4437 9.17262 16.4123 9.10117 16.3999 9.07826C16.3861 9.05257 16.3534 9.00985 16.2471 8.94846C16.1408 8.88707 16.0875 8.88018 16.0583 8.881C16.0322 8.88173 15.9547 8.89029 15.8056 9.0001Z" fill="#09101C"/>
</g>
<defs>
<clipPath id="clip0_3221_3033">
<rect width="20" height="20" fill="white"/>
</clipPath>
</defs>
</svg>
