<svg fill="none" height="20" viewBox="0 0 20 20" width="20" xmlns="http://www.w3.org/2000/svg"><g fill="#939ba1"><path clip-rule="evenodd" d="m16 1.5h-12c-1.38071 0-2.5 1.11929-2.5 2.5v12c0 1.3807 1.11929 2.5 2.5 2.5h12c1.3807 0 2.5-1.1193 2.5-2.5v-12c0-1.38071-1.1193-2.5-2.5-2.5zm-12-1.5c-2.20914 0-4 1.79086-4 4v12c0 2.2091 1.79086 4 4 4h12c2.2091 0 4-1.7909 4-4v-12c0-2.20914-1.7909-4-4-4z" fill-rule="evenodd"/><path d="m8.72261 11.4868v-1.0735c0-.41802-.342-.76002-.76-.76002h-1.7385c-.323 0-.5795.2565-.5795.57952 0 .342.2565.5985.5795.5985h1.1495v.76c-.2565.2375-.7885.4845-1.349.4845-1.1495 0-1.9855-.8835-1.9855-2.08052 0-1.197.836-2.0805 1.9855-2.0805.4845 0 .9595.209 1.3205.5605.1235.1235.2945.19.456.19.3325 0 .6365-.2755.6365-.608 0-.1425-.057-.2945-.1615-.4085-.494-.532-1.2255-.931-2.2515-.931-1.8525 0-3.3725 1.273-3.3725 3.2775 0 1.99502 1.52 3.28702 3.3725 3.28702 1.2825 0 2.698-.646 2.698-1.7955z"/><path d="m11.4392 12.5603v-5.12052c0-.361-.304-.665-.665-.665-.38 0-.684.304-.684.665v5.12052c0 .361.304.665.665.665.38 0 .684-.304.684-.665z"/><path d="m17.3479 7.43029c0-.33251-.266-.5985-.5795-.5985h-3.2015c-.418 0-.76.342-.76.76v4.96851c0 .361.304.665.665.665.38 0 .684-.304.684-.665v-1.514c0-.2762.2238-.5.5-.5h1.5866c.3135 0 .5795-.266.5795-.58902 0-.3325-.266-.59849-.5795-.59849h-1.5866c-.2762 0-.5-.22386-.5-.5v-.3395c0-.27615.2238-.5.5-.5h2.1125c.3135 0 .5795-.266.5795-.589z"/></g></svg>