<svg fill="none" height="94" viewBox="0 0 132 94" width="132" xmlns="http://www.w3.org/2000/svg"><g fill="#4360df"><g clip-rule="evenodd" fill-rule="evenodd"><path d="m15 21c-3.3137 0-6 2.6863-6 6v52c0 3.3137 2.6863 6 6 6h90c3.314 0 6-2.6863 6-6v-52c0-3.3137-2.686-6-6-6zm40.4939 31.4786c-.1024-.0753-.212-.1421-.3275-.1993-.0769-.038-.1564-.0718-.2382-.1009-.2343-.0835-.4873-.1292-.751-.1292h-4.9685c-.9232 0-1.6562.7033-1.6562 1.589 0 .9378.733 1.6411 1.6562 1.6411h3.2852v2.0839c-.3702.329-.9413.6645-1.6224.9161-.6673.2465-1.4402.4125-2.233.4125-3.2852 0-5.6745-2.4226-5.6745-5.7048s2.3893-5.7048 5.6745-5.7048c1.3847 0 2.7422.5731 3.774 1.5369.0909.0872.1908.1641.2969.2301.3059.1904.6636.2909 1.0063.2909.1573 0 .3123-.0207.4615-.0594.1761-.0456.3442-.1163.4982-.2075.5044-.2986.8594-.8175.8594-1.4003 0-.3907-.1629-.8075-.4616-1.1201-1.4118-1.4587-3.5024-2.5528-6.4347-2.5528-5.2944 0-9.6385 3.4906-9.6385 8.987 0 5.4703 4.3441 9.013 9.6385 9.013 3.6653 0 7.7108-1.7713 7.7108-4.9233v-2.9436c0-.6722-.3363-1.2728-.8554-1.6545zm-.141 10.8487c.7626-.4343 1.5267-1.0036 2.1794-1.7123.6885 1.9244 2.5814 3.2287 4.6262 3.2287 1.5179 0 2.9723-.7012 3.9081-1.8561.9206 1.1457 2.3469 1.8561 3.8559 1.8561 2.5684 0 4.9549-2.0074 4.9549-4.8234v-2.5225h2.9636c2.4666 0 4.6562-1.9876 4.6562-4.615 0-1.0887-.3719-2.0732-.9856-2.8526 1.4511-.7627 2.4884-2.268 2.4884-4.0765 0-2.6226-2.1579-4.6411-4.6562-4.6411h-9.1498c-1.5637 0-3.0312.7087-4.0006 1.8618-.9132-1.2404-2.4016-2.0181-3.9806-2.0181-2.1565 0-4.1849 1.4153-4.7799 3.5362-.0612-.0725-.1248-.1433-.1906-.2121l-.0066-.007-.0068-.007c-1.9668-2.0322-4.831-3.4664-8.5904-3.4664-6.6209 0-12.6385 4.5216-12.6385 11.987 0 7.4227 5.9991 12.013 12.6385 12.013 2.2555 0 4.7145-.5339 6.7144-1.6727zm8.7605-17.3476v14.0406c0 .9898-.8689 1.8234-1.9549 1.8234-1.0317 0-1.9005-.8336-1.9005-1.8234v-14.0406c0-.9898.8688-1.8234 1.9548-1.8234 1.0317 0 1.9006.8336 1.9006 1.8234zm16.8866-.026c0-.9117-.7602-1.6411-1.6562-1.6411h-9.1498c-1.1946 0-2.172.9378-2.172 2.0839v13.6238c0 .9898.8688 1.8234 1.9005 1.8234 1.086 0 1.9549-.8336 1.9549-1.8234v-4.1514c0-.7572.6397-1.3711 1.4289-1.3711h4.5347c.896 0 1.6562-.7293 1.6562-1.615 0-.9117-.7602-1.6411-1.6562-1.6411h-4.5347c-.7892 0-1.4289-.6138-1.4289-1.371v-.9309c0-.7572.6397-1.3711 1.4289-1.3711h6.0375c.896 0 1.6562-.7293 1.6562-1.615z" opacity=".15"/><path d="m21 15c-3.3137 0-6 2.6863-6 6h90c3.314 0 6 2.6863 6 6v52c3.314 0 6-2.6863 6-6v-52c0-3.3137-2.686-6-6-6z" opacity=".1"/><path d="m27 9c-3.3137 0-6 2.6863-6 6h90c3.314 0 6 2.6863 6 6v52c3.314 0 6-2.6863 6-6v-52c0-3.3137-2.686-6-6-6z" opacity=".05"/></g><path d="m56.3493 57.0767v-2.9436c0-1.1461-.9774-2.0839-2.1721-2.0839h-4.9685c-.9232 0-1.6562.7033-1.6562 1.589 0 .9378.733 1.6411 1.6562 1.6411h3.2852v2.0839c-.7331.6513-2.2535 1.3286-3.8554 1.3286-3.2852 0-5.6745-2.4226-5.6745-5.7048s2.3893-5.7048 5.6745-5.7048c1.3847 0 2.7422.5731 3.774 1.5369.3529.3386.8416.521 1.3032.521.9503 0 1.8191-.7554 1.8191-1.6672 0-.3907-.1629-.8075-.4616-1.1201-1.4118-1.4587-3.5024-2.5528-6.4347-2.5528-5.2944 0-9.6385 3.4906-9.6385 8.987 0 5.4703 4.3441 9.013 9.6385 9.013 3.6653 0 7.7108-1.7713 7.7108-4.9233z"/><path d="m64.1134 60.0203v-14.0406c0-.9898-.8689-1.8234-1.9006-1.8234-1.086 0-1.9548.8336-1.9548 1.8234v14.0406c0 .9898.8688 1.8234 1.9005 1.8234 1.086 0 1.9549-.8336 1.9549-1.8234z"/><path d="m81 45.9537c0-.9117-.7602-1.6411-1.6562-1.6411h-9.1498c-1.1946 0-2.172.9378-2.172 2.0839v13.6238c0 .9898.8688 1.8234 1.9005 1.8234 1.086 0 1.9549-.8336 1.9549-1.8234v-4.1515c0-.7571.6397-1.371 1.4289-1.371h4.5347c.8959 0 1.6562-.7293 1.6562-1.615 0-.9117-.7603-1.6411-1.6562-1.6411h-4.5347c-.7892 0-1.4289-.6138-1.4289-1.371v-.9309c0-.7572.6397-1.3711 1.4289-1.3711h6.0375c.896 0 1.6562-.7293 1.6562-1.615z"/></g></svg>