<svg fill="none" height="22" viewBox="0 0 22 22" width="22" xmlns="http://www.w3.org/2000/svg"><g stroke="#939ba1" stroke-linecap="round" stroke-linejoin="round" stroke-width="1.5"><path d="m7.21875 20.625c.54701 0 1.07161-.2173 1.45841-.6041.38679-.3868.60409-.9114.60409-1.4584v-4.125"/><path d="m14.7812 20.625c-.547 0-1.0716-.2173-1.4584-.6041s-.604-.9114-.604-1.4584v-4.125"/><path d="m13.0625 14.4375h1.375c.547 0 1.0716.2173 1.4584.6041s.6041.9114.6041 1.4584v.6875c0 .547.2173 1.0716.6041 1.4584s.9114.6041 1.4584.6041"/><path d="m8.9375 14.4375h-1.375c-.54701 0-1.07161.2173-1.45841.6041-.38679.3868-.60409.9114-.60409 1.4584v.6875c0 .547-.2173 1.0716-.60409 1.4584-.3868.3868-.9114.6041-1.45841.6041"/><path d="m9.60996 5.49994c-.40386-.63258-.96065-1.15316-1.61892-1.51364s-1.39678-.54923-2.14729-.5488c-.33399.57721-.5343 1.22196-.58618 1.88681s.04599 1.33288.28639 1.95491c-.47039.6924-.72494 1.50873-.73146 2.34578v.6875c0 1.094.4346 2.1432 1.20818 2.9168.77359.7736 1.8228 1.2082 2.91682 1.2082h4.125c1.094 0 2.1432-.4346 2.9168-1.2082s1.2082-1.8228 1.2082-2.9168v-.6875c-.0065-.83705-.2611-1.65338-.7315-2.34578.2404-.62203.3383-1.29006.2864-1.95491s-.2522-1.3096-.5862-1.88681c-.7505-.00043-1.489.18832-2.1473.54881-.6582.36049-1.215.88108-1.6189 1.51368z"/></g></svg>