<svg fill="none" height="14" viewBox="0 0 14 14" width="14" xmlns="http://www.w3.org/2000/svg"><path clip-rule="evenodd" d="m6.99998 13.6667c3.68192 0 6.66662-2.9848 6.66662-6.6667s-2.9847-6.666672-6.66662-6.666672c-3.6819 0-6.666667 2.984772-6.666667 6.666672s2.984767 6.6667 6.666667 6.6667zm5.29212-7.33337c-.2254-1.80754-1.3554-3.33417-2.92253-4.11267.04332.08682.08506.17554.12524.26594.45985 1.03467.75419 2.37738.82299 3.84673zm0 1.33333c-.2254 1.80754-1.3554 3.33414-2.92253 4.11264.04332-.0868.08506-.1755.12524-.2659.45985-1.0347.75419-2.37739.82299-3.84674zm-3.30923-1.33333c-.06779-1.31102-.33217-2.46303-.70648-3.30522-.21866-.49197-.46175-.84883-.69801-1.07368-.23283-.22157-.42713-.28777-.5784-.28777s-.34557.0662-.5784.28777c-.23626.22485-.47936.58171-.69801 1.07368-.37431.84219-.63869 1.9942-.70648 3.30522zm-3.96578 1.33333h3.96578c-.06779 1.31102-.33217 2.46304-.70648 3.30524-.21866.492-.46175.8488-.69801 1.0737-.23283.2215-.42713.2877-.5784.2877s-.34557-.0662-.5784-.2877c-.23626-.2249-.47936-.5817-.69801-1.0737-.37431-.8422-.63869-1.99422-.70648-3.30524zm-1.33493-1.33333c.06878-1.46935.36314-2.81206.82299-3.84673.04018-.0904.08192-.17912.12524-.26594-1.56718.7785-2.69708 2.30513-2.92248 4.11267zm-1.97425 1.33333h1.97425c.06878 1.46935.36314 2.81204.82299 3.84674.04018.0904.08192.1791.12524.2659-1.56718-.7785-2.69708-2.3051-2.92248-4.11264z" fill="#4360df" fill-rule="evenodd"/></svg>