<svg fill="none" height="24" viewBox="0 0 24 24" width="24" xmlns="http://www.w3.org/2000/svg"><g fill="#000"><path clip-rule="evenodd" d="m14.2516 12.4656c.2421-.1223.5419-.0586.7191.1467.7335.8498 1.8186 1.3877 3.0293 1.3877 2.2091 0 4-1.7909 4-4 0-2.20914-1.7909-4-4-4-.2938 0-.5801.03167-.8559.09177-.2649.05774-.543-.07088-.6637-.31369-.8181-1.64652-2.5171-2.77808-4.4804-2.77808s-3.66231 1.13156-4.48042 2.77808c-.12064.24281-.3988.37144-.66371.31369-.27574-.0601-.56211-.09177-.85587-.09177-2.20914 0-4 1.79086-4 4 0 2.2091 1.79086 4 4 4 1.21068 0 2.29574-.5379 3.02925-1.3877.17722-.2053.47708-.269.71917-.1467.67668.3418 1.44168.5344 2.25158.5344s1.5749-.1926 2.2516-.5344zm1.2484-4.4656c0 1.933-1.567 3.5-3.5 3.5s-3.5-1.567-3.5-3.5 1.567-3.5 3.5-3.5 3.5 1.567 3.5 3.5zm.5355 2.9526c-.1235.1686-.1507.3969-.0239.563.4568.5984 1.1775.9844 1.9884.9844 1.3807 0 2.5-1.1193 2.5-2.5 0-1.38071-1.1193-2.5-2.5-2.5-.2569 0-.5047.03875-.738.11071-.1659.05117-.262.21573-.262.38929 0 1.10444-.3581 2.1252-.9645 2.9526zm-9.29748-3.34188c-.23327-.07197-.48112-.11072-.73802-.11072-1.38071 0-2.5 1.11929-2.5 2.5 0 1.3807 1.11929 2.5 2.5 2.5.81088 0 1.53159-.3861 1.98837-.9844.12678-.1661.09962-.3944-.02389-.563-.6064-.8274-.96448-1.84817-.96448-2.9526 0-.17356-.09613-.33811-.26198-.38928z" fill-rule="evenodd"/><path d="m5.14735 21.0368c.38363.0959.77209-.1227.93627-.4825 1.02428-2.2444 3.28819-3.8043 5.91638-3.8043 2.6684 0 4.9613 1.6079 5.9625 3.9077.1664.3821.5853.6086.9831.4843.393-.1228.6166-.5414.4605-.9224-1.1942-2.9157-4.0603-4.9696-7.4061-4.9696-3.29596 0-6.1264 1.9932-7.35166 4.8401-.17205.3997.07681.8412.49901.9467z"/></g></svg>