<svg fill="none" height="24" viewBox="0 0 24 24" width="24" xmlns="http://www.w3.org/2000/svg"><path clip-rule="evenodd" d="m10.9901 5.14143c.0781-.54674-.3018-1.05327-.8486-1.13137-.54669-.07811-1.05322.30179-1.13132.84852l-.36782 2.57476c-.04645.32515-.32492.56666-.65337.56666h-1.98899c-.55228 0-1 .44772-1 1s.44772 1 1 1h1.5147c.40165 0 .71017.3557.65337.7533l-.38286 2.68c-.04645.3252-.32491.5667-.65336.5667h-1.63185c-.55228 0-1 .4477-1 1s.44772 1 1 1h1.15756c.40164 0 .71017.3557.65337.7533l-.30075 2.1053c-.07811.5467.30179 1.0532.84853 1.1314.54673.0781 1.05326-.3018 1.13137-.8486l.36782-2.5747c.04645-.3252.32492-.5667.6534-.5667h2.6463c.4016 0 .7101.3557.6533.7533l-.3007 2.1053c-.0781.5467.3018 1.0532.8485 1.1314.5467.0781 1.0533-.3018 1.1314-.8486l.3678-2.5747c.0465-.3252.3249-.5667.6534-.5667h1.9887c.5523 0 1-.4477 1-1s-.4477-1-1-1h-1.5144c-.4017 0-.7102-.3557-.6534-.7533l.3828-2.68c.0465-.3252.325-.5667.6534-.5667h1.6316c.5523 0 1-.44772 1-1s-.4477-1-1-1h-1.1573c-.4016 0-.7102-.35573-.6534-.75334l.3008-2.10523c.0781-.54674-.3018-1.05327-.8486-1.13137-.5467-.07811-1.0532.30179-1.1313.84852l-.3678 2.57476c-.0465.32515-.325.56666-.6534.56666h-2.6463c-.4016 0-.7102-.35573-.6534-.75334zm3.178 5.61187c.0568-.3976-.2518-.7533-.6534-.7533h-2.6463c-.3284 0-.6069.2415-.6534.5667l-.38281 2.68c-.0568.3976.25171.7533.65341.7533h2.6462c.3285 0 .607-.2415.6534-.5667z" fill="#939ba1" fill-rule="evenodd"/></svg>