<svg fill="none" height="24" viewBox="0 0 24 24" width="24" xmlns="http://www.w3.org/2000/svg"><g fill="#000"><path clip-rule="evenodd" d="m4.96615 7.47938c.24656.19177.25853.56004.03317.77634-1.31988 1.26686-2.25114 2.57658-2.6983 3.26098-.19368.2964-.19368.6701 0 .9665 1.03483 1.5838 4.66222 6.5168 9.69898 6.5168 1.9068 0 3.6116-.707 5.0502-1.6716.1836-.1231.426-.119.6005.0168l2.8889 2.2468c.3269.2544.7981.1954 1.0524-.1315.2544-.327.1955-.7982-.1315-1.0525l-18.00001-13.99998c-.32696-.2543-.79817-.1954-1.05247.13156s-.1954.79817.13156 1.05247zm10.59515 8.24062c.2708.2107.2536.6254-.0458.7928-1.0808.6044-2.2619.9872-3.5155.9872-2.01721 0-3.84676-.9912-5.37269-2.3022-.80303-.69-1.48262-1.4354-2.0153-2.0927-.5236-.6461-.5236-1.5642 0-2.2103.53268-.6573 1.21227-1.40271 2.0153-2.09264.01094-.0094.02699-.00978.03837-.00092l1.44501 1.1239c.18957.14746.24422.40776.15755.63166-.17323.4477-.26824.9344-.26824 1.4432 0 2.2091 1.79086 4 4 4 .8635 0 1.6631-.2736 2.3168-.7389.1956-.1392.4613-.1502.6508-.0028zm-6.05263-3.9298c.02795-.3365.41902-.4518.68553-.2445l2.6906 2.0927c.2665.2072.2512.6148-.0678.725-.256.0885-.5309.1366-.817.1366-1.3807 0-2.5-1.1193-2.5-2.5 0-.0707.00293-.1406.00867-.2098z" fill-rule="evenodd"/><path d="m8.85704 6.41675c-.29108-.2264-.24414-.67767.09853-.81391.94161-.37438 1.96033-.60284 3.04423-.60284 5.0368 0 8.6642 4.93293 9.699 6.5167.1937.2965.1937.6701 0 .9666-.3096.4738-.8512 1.2474-1.5932 2.0989-.1712.1965-.4659.221-.6717.061l-.3932-.3058c-.2315-.1801-.2585-.5195-.0658-.7407.146-.1677.2838-.3322.4129-.4915.5236-.6462.5236-1.5642 0-2.2104-.5326-.6573-1.2122-1.40268-2.0153-2.09261-1.5259-1.31103-3.3554-2.30219-5.3727-2.30219-.7486 0-1.4713.13648-2.16224.37515-.16605.05736-.35074.03143-.48942-.07643z"/><path d="m15.8613 10.9529c.1091.4032-.346.6425-.6756.3861l-1.4018-1.0903c-.1565-.1593-.3341-.29781-.5283-.41087l-1.4504-1.12808c-.3093-.24052-.1972-.70975.1946-.70975 1.8468 0 3.4013 1.25163 3.8615 2.9529z"/></g></svg>