<svg fill="none" height="18" viewBox="0 0 20 18" width="20" xmlns="http://www.w3.org/2000/svg"><g clip-rule="evenodd" fill="#939ba1" fill-rule="evenodd"><path d="m16.5 6.5c0 1.65685-1.3431 3-3 3s-3-1.34315-3-3 1.3431-3 3-3 3 1.34315 3 3zm-1.5 0c0 .82843-.6716 1.5-1.5 1.5s-1.5-.67157-1.5-1.5.6716-1.5 1.5-1.5 1.5.67157 1.5 1.5z"/><path d="m4 0c-2.20914 0-4 1.79086-4 4v10c0 2.2091 1.79086 4 4 4h12c2.2091 0 4-1.7909 4-4v-10c0-2.20914-1.7909-4-4-4zm12 1.5h-12c-1.38071 0-2.5 1.11929-2.5 2.5v3.23223c0 .44545.53857.66854.85355.35356l1.40901-1.40901c.68342-.68342 1.79146-.68342 2.47488 0l10.08066 10.08072c.1191.119.2913.1736.4514.1218 1.0042-.3245 1.7305-1.2671 1.7305-2.3793v-10c0-1.38071-1.1193-2.5-2.5-2.5zm-14.46967 9.0303c-.0188.0188-.03033.0439-.03033.0705v3.3992c0 1.3807 1.11929 2.5 2.5 2.5h9.2322c.4455 0 .6686-.5386.3536-.8536l-8.40902-8.40896c-.09764-.09764-.25593-.09763-.35356 0z"/></g></svg>