<svg fill="none" height="24" viewBox="0 0 24 24" width="24" xmlns="http://www.w3.org/2000/svg"><g clip-rule="evenodd" fill="#000" fill-rule="evenodd"><path d="m18.5 9.5c0 1.6569-1.3431 3-3 3s-3-1.3431-3-3c0-1.65685 1.3431-3 3-3s3 1.34315 3 3zm-1.5 0c0 .8284-.6716 1.5-1.5 1.5s-1.5-.6716-1.5-1.5c0-.82843.6716-1.5 1.5-1.5s1.5.67157 1.5 1.5z"/><path d="m6 3c-2.20914 0-4 1.79086-4 4v10c0 2.2091 1.79086 4 4 4h12c2.2091 0 4-1.7909 4-4v-10c0-2.20914-1.7909-4-4-4zm12 1.5h-12c-1.38071 0-2.5 1.11929-2.5 2.5v3.2322c0 .4455.53857.6686.85355.3536l1.40901-1.40902c.68342-.68342 1.79146-.68342 2.47488 0l10.08066 10.08072c.1191.119.2913.1736.4514.1218 1.0042-.3245 1.7305-1.2671 1.7305-2.3793v-10c0-1.38071-1.1193-2.5-2.5-2.5zm-14.46967 9.0303c-.0188.0188-.03033.0439-.03033.0705v3.3992c0 1.3807 1.11929 2.5 2.5 2.5h9.2322c.4455 0 .6686-.5386.3536-.8536l-8.40902-8.409c-.09764-.0976-.25593-.0976-.35356 0z"/></g></svg>