<svg fill="none" height="24" viewBox="0 0 24 24" width="24" xmlns="http://www.w3.org/2000/svg"><g fill="#000"><path d="m9.25 10c0-.41421.33579-.75.75-.75h2.5c.4142 0 .75.33579.75.75v7.5c0 .4142-.3358.75-.75.75s-.75-.3358-.75-.75v-6.75h-1.75c-.41421 0-.75-.3358-.75-.75z"/><path d="m12 7.75c.6904 0 1.25-.55964 1.25-1.25s-.5596-1.25-1.25-1.25-1.25.55964-1.25 1.25.5596 1.25 1.25 1.25z"/><path clip-rule="evenodd" d="m2 12c0 5.5228 4.47715 10 10 10 5.5228 0 10-4.4772 10-10 0-5.52285-4.4772-10-10-10-5.52285 0-10 4.47715-10 10zm1.5 0c0 4.6944 3.80558 8.5 8.5 8.5 4.6944 0 8.5-3.8056 8.5-8.5 0-4.69442-3.8056-8.5-8.5-8.5-4.69442 0-8.5 3.80558-8.5 8.5z" fill-rule="evenodd"/></g></svg>