<svg width="24" height="24" viewBox="0 0 24 24" fill="none" xmlns="http://www.w3.org/2000/svg">
<path d="M8.53098 4.75C8.53098 4.33579 8.86676 4 9.28098 4H17.2511C17.6653 4 18.0011 4.33579 18.0011 4.75C18.0011 5.16421 17.6653 5.5 17.2511 5.5H14.9826C14.5034 5.5 14.0916 5.83991 14.0007 6.3104L11.8766 17.3104C11.7575 17.9273 12.2301 18.5 12.8585 18.5H14.7189C15.1331 18.5 15.4689 18.8358 15.4689 19.25C15.4689 19.6642 15.1331 20 14.7189 20H6.74879C6.33458 20 5.99879 19.6642 5.99879 19.25C5.99879 18.8358 6.33458 18.5 6.74879 18.5H9.1225C9.60168 18.5 10.0135 18.1601 10.1044 17.6896L12.2285 6.6896C12.3476 6.07266 11.875 5.5 11.2466 5.5H9.28097C8.86676 5.5 8.53098 5.16421 8.53098 4.75Z" fill="black"/>
</svg>
