<svg width="19" height="14" viewBox="0 0 19 14" fill="none" xmlns="http://www.w3.org/2000/svg">
<path d="M0.523438 1.35162C0.523438 0.929285 0.859224 0.586914 1.27344 0.586914H8.02344C8.43765 0.586914 8.77344 0.929285 8.77344 1.35162C8.77344 1.77396 8.43765 2.11633 8.02344 2.11633H1.27344C0.859224 2.11633 0.523438 1.77396 0.523438 1.35162Z" fill="#4360DF"/>
<path d="M10.5234 1.35162C10.5234 0.929285 10.8592 0.586914 11.2734 0.586914H17.7734C18.1877 0.586914 18.5234 0.929285 18.5234 1.35162C18.5234 1.77396 18.1877 2.11633 17.7734 2.11633H11.2734C10.8592 2.11633 10.5234 1.77396 10.5234 1.35162Z" fill="#4360DF"/>
<path d="M13.5234 5.17515C13.5234 4.75281 13.8592 4.41044 14.2734 4.41044H17.7734C18.1876 4.41044 18.5234 4.75281 18.5234 5.17515C18.5234 5.59749 18.1876 5.93986 17.7734 5.93986H14.2734C13.8592 5.93986 13.5234 5.59749 13.5234 5.17515Z" fill="#4360DF"/>
<path d="M5.52344 8.99868C5.52344 8.57634 5.18765 8.23397 4.77344 8.23397H1.27344C0.859229 8.23397 0.523442 8.57634 0.523442 8.99868C0.523442 9.42101 0.859229 9.76339 1.27344 9.76339H4.77344C5.18765 9.76339 5.52344 9.42101 5.52344 8.99868Z" fill="#4360DF"/>
<path d="M0.523438 5.17515C0.523438 4.75281 0.859224 4.41044 1.27344 4.41044H11.0234C11.4377 4.41044 11.7734 4.75281 11.7734 5.17515C11.7734 5.59749 11.4377 5.93986 11.0234 5.93986H1.27344C0.859224 5.93986 0.523438 5.59749 0.523438 5.17515Z" fill="#4360DF"/>
<path d="M18.5234 8.99868C18.5234 8.57634 18.1877 8.23397 17.7734 8.23397H8.02344C7.60922 8.23397 7.27344 8.57634 7.27344 8.99868C7.27344 9.42101 7.60922 9.76339 8.02344 9.76339H17.7734C18.1877 9.76339 18.5234 9.42101 18.5234 8.99868Z" fill="#4360DF"/>
<path d="M0.523438 12.8222C0.523438 12.3999 0.859224 12.0575 1.27344 12.0575H8.02344C8.43765 12.0575 8.77344 12.3999 8.77344 12.8222C8.77344 13.2445 8.43765 13.5869 8.02344 13.5869H1.27344C0.859224 13.5869 0.523438 13.2445 0.523438 12.8222Z" fill="#4360DF"/>
<path d="M10.5234 12.8222C10.5234 12.3999 10.8592 12.0575 11.2734 12.0575H17.7734C18.1877 12.0575 18.5234 12.3999 18.5234 12.8222C18.5234 13.2445 18.1877 13.5869 17.7734 13.5869H11.2734C10.8592 13.5869 10.5234 13.2445 10.5234 12.8222Z" fill="#4360DF"/>
</svg>
