<svg width="24" height="24" viewBox="0 0 24 24" fill="none" xmlns="http://www.w3.org/2000/svg">
<path d="M3 6.26471C3 5.84237 3.33579 5.5 3.75 5.5H10.5C10.9142 5.5 11.25 5.84237 11.25 6.26471C11.25 6.68704 10.9142 7.02941 10.5 7.02941H3.75C3.33579 7.02941 3 6.68704 3 6.26471Z" fill="black"/>
<path d="M13 6.26471C13 5.84237 13.3358 5.5 13.75 5.5H20.25C20.6642 5.5 21 5.84237 21 6.26471C21 6.68704 20.6642 7.02941 20.25 7.02941H13.75C13.3358 7.02941 13 6.68704 13 6.26471Z" fill="black"/>
<path d="M16 10.0882C16 9.6659 16.3358 9.32353 16.75 9.32353H20.25C20.6642 9.32353 21 9.6659 21 10.0882C21 10.5106 20.6642 10.8529 20.25 10.8529H16.75C16.3358 10.8529 16 10.5106 16 10.0882Z" fill="black"/>
<path d="M8 13.9118C8 13.4894 7.66421 13.1471 7.25 13.1471H3.75C3.33579 13.1471 3 13.4894 3 13.9118C3 14.3341 3.33579 14.6765 3.75 14.6765H7.25C7.66421 14.6765 8 14.3341 8 13.9118Z" fill="black"/>
<path d="M3 10.0882C3 9.6659 3.33579 9.32353 3.75 9.32353H13.5C13.9142 9.32353 14.25 9.6659 14.25 10.0882C14.25 10.5106 13.9142 10.8529 13.5 10.8529H3.75C3.33579 10.8529 3 10.5106 3 10.0882Z" fill="black"/>
<path d="M21 13.9118C21 13.4894 20.6642 13.1471 20.25 13.1471H10.5C10.0858 13.1471 9.75 13.4894 9.75 13.9118C9.75 14.3341 10.0858 14.6765 10.5 14.6765H20.25C20.6642 14.6765 21 14.3341 21 13.9118Z" fill="black"/>
<path d="M3 17.7353C3 17.313 3.33579 16.9706 3.75 16.9706H10.5C10.9142 16.9706 11.25 17.313 11.25 17.7353C11.25 18.1576 10.9142 18.5 10.5 18.5H3.75C3.33579 18.5 3 18.1576 3 17.7353Z" fill="black"/>
<path d="M13 17.7353C13 17.313 13.3358 16.9706 13.75 16.9706H20.25C20.6642 16.9706 21 17.313 21 17.7353C21 18.1576 20.6642 18.5 20.25 18.5H13.75C13.3358 18.5 13 18.1576 13 17.7353Z" fill="black"/>
</svg>
