<svg width="19" height="18" viewBox="0 0 19 18" fill="none" xmlns="http://www.w3.org/2000/svg">
<path d="M1.52344 16.3369C1.10922 16.3369 0.773438 16.6727 0.773438 17.0869C0.773438 17.5011 1.10922 17.8369 1.52344 17.8369H17.5234C17.9377 17.8369 18.2734 17.5011 18.2734 17.0869C18.2734 16.6727 17.9377 16.3369 17.5234 16.3369H1.52344Z" fill="#4360DF"/>
<path d="M10.2734 1.08691C10.2734 0.672701 9.93765 0.336914 9.52344 0.336914C9.10922 0.336914 8.77344 0.672701 8.77344 1.08691V5.61134C8.77344 5.92031 8.496 6.15533 8.19124 6.10454L3.64674 5.34712C3.23816 5.27902 2.85174 5.55504 2.78364 5.96361C2.71555 6.37219 2.99156 6.75861 3.40014 6.82671L7.6022 7.52705C7.9486 7.58479 8.12912 7.97227 7.95046 8.27462L5.62774 12.2054C5.41702 12.562 5.53528 13.0219 5.89189 13.2326C6.2485 13.4433 6.70841 13.3251 6.91913 12.9685L9.09297 9.28965C9.2865 8.96214 9.76037 8.96214 9.9539 9.28965L12.1277 12.9685C12.3385 13.3251 12.7984 13.4433 13.155 13.2326C13.5116 13.0219 13.6299 12.562 13.4191 12.2054L11.0964 8.27462C10.9178 7.97227 11.0983 7.58479 11.4447 7.52705L15.6467 6.82671C16.0553 6.75861 16.3313 6.37219 16.2632 5.96361C16.1951 5.55504 15.8087 5.27902 15.4001 5.34712L10.8556 6.10454C10.5509 6.15533 10.2734 5.92031 10.2734 5.61134V1.08691Z" fill="#4360DF"/>
</svg>
