<svg fill="none" height="14" viewBox="0 0 19 14" width="19" xmlns="http://www.w3.org/2000/svg"><g fill="#4360df"><path d="m.523438 1.35162c0-.422335.335786-.764706.750002-.764706h6.75c.41421 0 .75.342371.75.764706 0 .42234-.33579.76471-.75.76471h-6.75c-.414216 0-.750002-.34237-.750002-.76471z"/><path d="m10.5234 1.35162c0-.422335.3358-.764706.75-.764706h6.5c.4143 0 .75.342371.75.764706 0 .42234-.3357.76471-.75.76471h-6.5c-.4142 0-.75-.34237-.75-.76471z"/><path d="m13.5234 5.17515c0-.42234.3358-.76471.75-.76471h3.5c.4142 0 .75.34237.75.76471s-.3358.76471-.75.76471h-3.5c-.4142 0-.75-.34237-.75-.76471z"/><path d="m5.52344 8.99868c0-.42234-.33579-.76471-.75-.76471h-3.5c-.414211 0-.749998.34237-.749998.76471 0 .42233.335787.76471.749998.76471h3.5c.41421 0 .75-.34238.75-.76471z"/><path d="m.523438 5.17515c0-.42234.335786-.76471.750002-.76471h9.74996c.4143 0 .75.34237.75.76471s-.3357.76471-.75.76471h-9.74996c-.414216 0-.750002-.34237-.750002-.76471z"/><path d="m18.5234 8.99868c0-.42234-.3357-.76471-.75-.76471h-9.74996c-.41422 0-.75.34237-.75.76471 0 .42233.33578.76471.75.76471h9.74996c.4143 0 .75-.34238.75-.76471z"/><path d="m.523438 12.8222c0-.4223.335786-.7647.750002-.7647h6.75c.41421 0 .75.3424.75.7647s-.33579.7647-.75.7647h-6.75c-.414216 0-.750002-.3424-.750002-.7647z"/><path d="m10.5234 12.8222c0-.4223.3358-.7647.75-.7647h6.5c.4143 0 .75.3424.75.7647s-.3357.7647-.75.7647h-6.5c-.4142 0-.75-.3424-.75-.7647z"/></g></svg>