<svg fill="none" height="24" viewBox="0 0 24 24" width="24" xmlns="http://www.w3.org/2000/svg"><g fill="#000"><path d="m7 16.5c0-.5523.44772-1 1-1h8c.5523 0 1 .4477 1 1s-.4477 1-1 1h-8c-.55228 0-1-.4477-1-1z"/><path d="m7 7c-.55228 0-1 .44772-1 1v.5c0 .55228.44772 1 1 1h.5c.55228 0 1-.44772 1-1v-.5c0-.55228-.44772-1-1-1z"/><path d="m8.25 12c0-.5523.44772-1 1-1h.5c.5523 0 1 .4477 1 1v.5c0 .5523-.4477 1-1 1h-.5c-.55228 0-1-.4477-1-1z"/><path d="m14.25 11c-.5523 0-1 .4477-1 1v.5c0 .5523.4477 1 1 1h.5c.5523 0 1-.4477 1-1v-.5c0-.5523-.4477-1-1-1z"/><path d="m10.75 8c0-.55228.4477-1 1-1h.5c.5523 0 1 .44772 1 1v.5c0 .55228-.4477 1-1 1h-.5c-.5523 0-1-.44772-1-1z"/><path d="m16.5 7c-.5523 0-1 .44772-1 1v.5c0 .55228.4477 1 1 1h.5c.5523 0 1-.44772 1-1v-.5c0-.55228-.4477-1-1-1z"/><path clip-rule="evenodd" d="m6 3c-2.20914 0-4 1.79086-4 4v10c0 2.2091 1.79086 4 4 4h12c2.2091 0 4-1.7909 4-4v-10c0-2.20914-1.7909-4-4-4zm12 1.5h-12c-1.38071 0-2.5 1.11929-2.5 2.5v10c0 1.3807 1.11929 2.5 2.5 2.5h12c1.3807 0 2.5-1.1193 2.5-2.5v-10c0-1.38071-1.1193-2.5-2.5-2.5z" fill-rule="evenodd"/></g></svg>