<svg fill="none" height="24" viewBox="0 0 24 24" width="24" xmlns="http://www.w3.org/2000/svg"><g fill="#000"><path d="m7 10c-.55228 0-1 .4477-1 1v2c0 .5523.44772 1 1 1h1c.55228 0 1-.4477 1-1v-2c0-.5523-.44772-1-1-1z"/><path clip-rule="evenodd" d="m2 8c0-2.20914 1.79086-4 4-4h12c2.2091 0 4 1.79086 4 4v8c0 2.2091-1.7909 4-4 4h-12c-2.20914 0-4-1.7909-4-4zm4-2.5h12c1.3807 0 2.5 1.11929 2.5 2.5v8c0 1.3807-1.1193 2.5-2.5 2.5h-12c-1.38071 0-2.5-1.1193-2.5-2.5v-8c0-1.38071 1.11929-2.5 2.5-2.5z" fill-rule="evenodd"/></g></svg>