<svg fill="none" height="24" viewBox="0 0 24 24" width="24" xmlns="http://www.w3.org/2000/svg"><path clip-rule="evenodd" d="m9.25 21.25c0 .4142.33579.75.75.75.4142 0 .75-.3358.75-.75v-1.7321c0-.1326.0527-.2598.1464-.3536l.3102-.3101c.2172-.2173.5772-.189.7579.0595l1.9451 2.6745c.1882.2587.4888.4118.8087.4118h.3637c.4086 0 .6447-.4636.4044-.7941l-2.541-3.4937c-.1447-.199-.1231-.4737.0509-.6477l2.2109-2.2109c.315-.315.0919-.8536-.3535-.8536h-.5c-.2652 0-.5196.1054-.7071.2929l-2.043 2.043c-.315.315-.8536.0919-.8536-.3536v-4.6214c0-.2442.1775-.4498.4134-.5127 1.9214-.5128 3.3366-2.26524 3.3366-4.3482 0-2.48528-2.0147-4.5-4.5-4.5-2.48528 0-4.5 2.01472-4.5 4.5 0 2.08296 1.41522 3.8354 3.33657 4.3482.23596.0629.41343.2685.41343.5127zm3.75-14.75c0 1.65685-1.3431 3-3 3-1.65685 0-3-1.34315-3-3s1.34315-3 3-3c1.6569 0 3 1.34315 3 3z" fill="#000" fill-rule="evenodd"/></svg>