<svg fill="none" height="24" viewBox="0 0 24 24" width="24" xmlns="http://www.w3.org/2000/svg"><path clip-rule="evenodd" d="m3.46967 2.21967c.29289-.29289.76777-.29289 1.06066 0l2.38388 2.38388c.09377.09377.22095.14645.35356.14645h9.73223c2.2091 0 4 1.79086 4 4v8c0 .45-.0743.8826-.2113 1.2862-.0662.1951-.0276.4142.118.5598l2.1236 2.1237c.2929.2929.2929.7677 0 1.0606s-.7677.2929-1.0606 0l-18.50003-18.49997c-.29289-.29289-.29289-.76777 0-1.06066zm15.70883 14.64813c.1205.1206.3215.0527.3215-.1178v-8c0-1.38071-1.1193-2.5-2.5-2.5h-7.23223c-.44546 0-.66854.53857-.35356.85355zm-14.1785-5.1178c0-.5523.44772-1 1-1h1c.55228 0 1 .4477 1 1v2c0 .5523-.44772 1-1 1h-1c-.55228 0-1-.4477-1-1zm-2.09046-6.41094c.23387-.14364.53156-.0873.72563.10677.3674.3674.17602 1.04397-.22481 1.37456-.55596.45853-.91036 1.15268-.91036 1.92961v8c0 1.3807 1.11929 2.5 2.5 2.5h12c.2563 0 .5139.0746.6951.2558l.0221.0221c.4267.4266.2787 1.1439-.3218 1.2028-.1301.0128-.262.0193-.3954.0193h-12c-2.20914 0-4-1.7909-4-4v-8c0-1.44291.764-2.70737 1.90954-3.41094z" fill="#000" fill-rule="evenodd"/></svg>