<svg fill="none" height="24" viewBox="0 0 24 24" width="24" xmlns="http://www.w3.org/2000/svg"><path clip-rule="evenodd" d="m22 12c0 5.5228-4.4772 10-10 10-5.52285 0-10-4.4772-10-10 0-5.52285 4.47715-10 10-10 5.5228 0 10 4.47715 10 10zm-17.92175-.75c-.29332 0-.52493-.2519-.48071-.5418.38545-2.52796 1.88445-4.68969 3.98081-5.96905.4137-.25247.85144.23516.6572.67918-.64208 1.46778-1.07302 3.3144-1.19802 5.35027-.01648.2684-.23655.4814-.50549.4814zm-.48071 2.0418c-.04422-.2899.18739-.5418.48071-.5418h2.45379c.26894 0 .48901.213.50549.4814.125 2.0359.55594 3.8825 1.19802 5.3503.19424.444-.2435.9316-.6572.6791-2.09637-1.2793-3.59536-3.441-3.98081-5.969zm5.43783-2.0418c-.28399 0-.51165-.2365-.49221-.5199.14052-2.04828.61366-3.83178 1.26295-5.13035.82509-1.65018 1.68739-2.09975 2.19389-2.09975s1.3688.44957 2.1939 2.09975c.6493 1.29857 1.1224 3.08207 1.2629 5.13035.0195.2834-.2082.5199-.4922.5199zm6.42143 2.0199c.0195-.2834-.2082-.5199-.4922-.5199h-5.92923c-.28399 0-.51165.2365-.49221.5199.14052 2.0483.61366 3.8318 1.26295 5.1303.82509 1.6502 1.68739 2.0998 2.19389 2.0998s1.3688-.4496 2.1939-2.0998c.6493-1.2985 1.1224-3.082 1.2629-5.1303zm2.0112-2.0199c-.269 0-.4891-.213-.5055-.4814-.125-2.03587-.556-3.88249-1.198-5.35027-.1943-.44403.2434-.93165.6571-.67918 2.0964 1.27936 3.5954 3.44109 3.9809 5.96905.0442.2899-.1874.5418-.4808.5418zm2.9345 2.0418c.0442-.2899-.1874-.5418-.4808-.5418h-2.4537c-.269 0-.4891.213-.5055.4814-.125 2.0359-.556 3.8825-1.198 5.3503-.1943.444.2434.9316.6571.6791 2.0964-1.2793 3.5954-3.441 3.9809-5.969z" fill="#000" fill-rule="evenodd"/></svg>