<svg fill="none" height="24" viewBox="0 0 24 24" width="24" xmlns="http://www.w3.org/2000/svg"><g fill="#000"><path d="m12 11.5c.8284 0 1.5-.6716 1.5-1.5 0-.82843-.6716-1.5-1.5-1.5s-1.5.67157-1.5 1.5c0 .8284.6716 1.5 1.5 1.5z"/><path clip-rule="evenodd" d="m7 20v-16c0-1.10457.89543-2 2-2h6c1.1046 0 2 .89543 2 2v16c0 1.1046-.8954 2-2 2h-6c-1.10457 0-2-.8954-2-2zm2-16.5c-.27614 0-.5.22386-.5.5v6c0 1.933 1.567 3.5 3.5 3.5s3.5-1.567 3.5-3.5v-6c0-.27614-.2239-.5-.5-.5zm3 11.5c-.9354 0-1.8109-.2569-2.55965-.704-.3804-.2271-.94035.022-.94035.4651v5.2389c0 .2761.22386.5.5.5h6c.2761 0 .5-.2239.5-.5v-5.2389c0-.4431-.5599-.6922-.9404-.4651-.7487.4471-1.6242.704-2.5596.704z" fill-rule="evenodd"/></g></svg>