<svg fill="none" height="24" viewBox="0 0 24 24" width="24" xmlns="http://www.w3.org/2000/svg"><g fill="#000"><path d="m9.03022 11.0303c1.08778-1.08778 2.85148-1.08778 3.93938 0 .2929.2929.7677.2929 1.0606 0s.2929-.7677 0-1.06062c-1.6736-1.6736-4.38703-1.67361-6.06064 0l-4 4.00002c-1.67361 1.6736-1.67361 4.387 0 6.0606s4.38705 1.6736 6.06064 0l2-2c.2929-.2929.2929-.7677 0-1.0606s-.7677-.2929-1.0606 0l-2.00004 2c-1.08782 1.0878-2.85152 1.0878-3.93934 0s-1.08782-2.8515 0-3.9394z"/><path d="m15.0302 5.03034c1.0878-1.08782 2.8515-1.08782 3.9394 0 1.0878 1.08782 1.0878 2.85152 0 3.93934l-4 4.00002c-1.0879 1.0878-2.8516 1.0878-3.9394 0-.2929-.2929-.7677-.2929-1.06064 0-.29289.2929-.29289.7677 0 1.0606 1.67364 1.6736 4.38704 1.6737 6.06064 0l4-4c1.6736-1.67356 1.6736-4.38701 0-6.06062-1.6736-1.6736-4.387-1.6736-6.0606 0l-2 2c-.2929.2929-.2929.76777 0 1.06066.2929.2929.7677.2929 1.0606 0z"/></g></svg>