<svg fill="none" height="18" viewBox="0 0 18 18" width="18" xmlns="http://www.w3.org/2000/svg"><path clip-rule="evenodd" d="m15.4026 7.61613c-.3023-1.34009-1.0358-2.55001-2.0937-3.44779-1.0581-.89797-2.3837-1.43505-3.77924-1.52864-1.39552-.09359-2.78318.26155-3.95546 1.01066-1.17206.74898-2.06494 1.85081-2.54799 3.13896-.48298 1.28796-.5312 2.69509-.13772 4.01208.39353 1.3171 1.20852 2.4756 2.32606 3.3009 1.11775.8255 2.47755 1.2727 3.87631 1.2727v2.25c-1.87767 0-3.70638-.6001-5.21297-1.7127-1.50679-1.1128-2.61113-2.6792-3.145232-4.4668-.534155-1.78781-.468529-3.69861.186808-5.4462.655264-1.7474 1.864084-3.23581 3.443184-4.24489 1.57888-1.008943 3.44419-1.485307 5.31758-1.359664 1.87337.125645 3.65717.846784 5.08457 2.058074 1.4275 1.21147 2.4222 2.84865 2.8326 4.66825z" fill="#939ba1" fill-rule="evenodd"/></svg>