<svg fill="none" height="24" viewBox="0 0 24 24" width="24" xmlns="http://www.w3.org/2000/svg"><g clip-rule="evenodd" fill="#000" fill-rule="evenodd"><path d="m15 10c0 1.6569-1.3431 3-3 3s-3-1.3431-3-3c0-1.65685 1.3431-3 3-3s3 1.34315 3 3zm-1.5 0c0 .8284-.6716 1.5-1.5 1.5s-1.5-.6716-1.5-1.5c0-.82843.6716-1.5 1.5-1.5s1.5.67157 1.5 1.5z"/><path d="m11.2346 21.7791c-1.33293-1.1343-7.2346-6.4567-7.2346-11.7791 0-4.41828 3.58172-8 8-8 4.4183 0 8 3.58172 8 8 0 5.3224-5.9017 10.6448-7.2346 11.7791-.173.1471-.3891.2209-.6162.2209h-.2984c-.2271 0-.4432-.0738-.6162-.2209zm4.4584-5.2328c-1.2233 1.5926-2.5519 2.8848-3.3668 3.622-.1856.1678-.4668.1678-.6524 0-.8149-.7372-2.14346-2.0294-3.36678-3.622-1.58561-2.0642-2.80702-4.3931-2.80702-6.5463 0-3.58985 2.91015-6.5 6.5-6.5 3.5899 0 6.5 2.91015 6.5 6.5 0 2.1532-1.2214 4.4821-2.807 6.5463z"/></g></svg>