<svg width="10" height="12" viewBox="0 0 10 12" fill="none" xmlns="http://www.w3.org/2000/svg">
<path fill-rule="evenodd" clip-rule="evenodd" d="M2 5.5V3.75641C2 1.97326 3.32593 0.5 5 0.5C6.67407 0.5 8 1.97326 8 3.75641V5.5H8.5C9.32843 5.5 10 6.17157 10 7V10C10 10.8284 9.32843 11.5 8.5 11.5H1.5C0.671573 11.5 0 10.8284 0 10V7C0 6.17157 0.671573 5.5 1.5 5.5H2ZM3.38462 5.5H6.61538V3.75641C6.61538 2.70733 5.87494 1.88462 5 1.88462C4.12506 1.88462 3.38462 2.70733 3.38462 3.75641V5.5Z" fill="#4360DF"/>
</svg>
