<svg fill="none" height="16" viewBox="0 0 16 16" width="16" xmlns="http://www.w3.org/2000/svg"><g fill="#4360df"><path clip-rule="evenodd" d="m11.3332 5.33333c0 1.84095-1.49241 3.33334-3.33336 3.33334s-3.33334-1.49239-3.33334-3.33334 1.49239-3.33333 3.33334-3.33333 3.33336 1.49238 3.33336 3.33333zm-1 0c0 1.28867-1.0447 2.33334-2.33336 2.33334-1.28867 0-2.33334-1.04467-2.33334-2.33334 0-1.28866 1.04467-2.33333 2.33334-2.33333 1.28866 0 2.33336 1.04467 2.33336 2.33333z" fill-rule="evenodd"/><path d="m8.07308 11.6671c.27932.0036.52659-.1994.54979-.4778.02265-.2718-.17712-.5135-.44979-.5204-.0576-.0015-.11539-.0022-.17335-.0022-2.02701 0-3.84273.9046-5.06544 2.3322-.15991.1867-.13899.4633.03483.6371.21587.2159.57321.1848.77488-.0444 1.03847-1.1802 2.56013-1.9249 4.25573-1.9249.02449 0 .04894.0001.07335.0004z"/><path d="m11.9987 9.29502c.1901-.17114.4788-.17114.669 0l1.6666 1.49998c.2053.1847.2219.5009.0372.7061-.1847.2053-.5009.2219-.7061.0372l-.2759-.2483c-.2145-.193-.5563-.0408-.5563.2478v1.7955c0 .2762-.2239.5-.5.5-.2762 0-.5-.2238-.5-.5v-1.7955c0-.2886-.3418-.4408-.5564-.2478l-.2758.2483c-.2053.1847-.5214.1681-.7061-.0372-.1848-.2052-.1681-.5214.0371-.7061z"/></g></svg>