<svg fill="none" height="20" viewBox="0 0 21 20" width="21" xmlns="http://www.w3.org/2000/svg"><g fill="#4360df"><path d="m15.25 1.5c.4142 0 .75-.33579.75-.75 0-.414213-.3358-.75000002-.75-.75l-11.25.00000023c-2.20914.0000001-4.0000001 1.79085977-4 3.99999977l.00000052 12c.0000001 2.2091 1.79085948 4 3.99999948 4h12c2.2091 0 4-1.7909 4-4v-3.25c0-.4142-.3358-.75-.75-.75s-.75.3358-.75.75v3.25c0 1.3807-1.1193 2.5-2.5 2.5h-12c-1.38071 0-2.5-1.1193-2.5-2.5v-12c0-1.38071 1.11929-2.5 2.5-2.5z"/><path clip-rule="evenodd" d="m20.0303 4.46967c.2929.29289.2929.76777 0 1.06066l-6.156 6.15607c-.1783.1783-.4615.1959-.6605.0411l-3.76054-2.92483c-.20624-.1604-.5012-.13498-.67694.05834l-4.22136 4.64349c-.27863.3065-.75297.3291-1.05946.0505-.30649-.2787-.32908-.753-.05045-1.0595l5.15573-5.67131c.17575-.19332.47071-.21874.67694-.05834l3.81168 2.96467c.1991.15481.4822.13718.6606-.04113l5.2197-5.21972c.2929-.29289.7677-.29289 1.0606 0z" fill-rule="evenodd"/></g></svg>