<svg fill="none" height="24" viewBox="0 0 24 24" width="24" xmlns="http://www.w3.org/2000/svg"><g fill="#000"><path d="m8 19.25c4.5563 0 8.25-3.6937 8.25-8.25 0-.4389-.5306-.6587-.841-.3484l-.8787.8787c-.2929.2929-.7677.2929-1.0606 0s-.2929-.7677 0-1.0606l3-3.00003c.2929-.29289.7677-.29289 1.0606 0l3 3.00003c.2929.2929.2929.7677 0 1.0606s-.7677.2929-1.0606 0l-.8787-.8787c-.3104-.3103-.841-.0905-.841.3484 0 5.3848-4.3652 9.75-9.75 9.75h-4c-.41421 0-.75-.3358-.75-.75s.33579-.75.75-.75z"/><path d="m3.25 4c0-.41421.33579-.75.75-.75h16c.4142 0 .75.33579.75.75s-.3358.75-.75.75h-16c-.41421 0-.75-.33579-.75-.75z"/></g></svg>