<svg fill="none" height="24" viewBox="0 0 24 24" width="24" xmlns="http://www.w3.org/2000/svg"><g fill="#4360df"><path clip-rule="evenodd" d="m17 8c0 2.7614-2.2386 5-5 5-2.76142 0-5-2.2386-5-5 0-2.76142 2.23858-5 5-5 2.7614 0 5 2.23858 5 5zm-1.5 0c0 1.933-1.567 3.5-3.5 3.5s-3.5-1.567-3.5-3.5 1.567-3.5 3.5-3.5 3.5 1.567 3.5 3.5z" fill-rule="evenodd"/><path d="m18.3835 20.3874c.3025.3438.8385.3905 1.1623.0667.2607-.2608.2921-.6757.0522-.9557-1.834-2.1414-4.5576-3.4984-7.5982-3.4984-3.04048 0-5.76406 1.357-7.59813 3.4984-.23986.28-.20848.6949.05225.9556.3238.3239.85982.2772 1.16232-.0666 1.55771-1.7703 3.84021-2.8874 6.38356-2.8874 2.5435 0 4.826 1.1171 6.3837 2.8874z"/></g></svg>