<svg fill="none" height="24" viewBox="0 0 24 24" width="24" xmlns="http://www.w3.org/2000/svg"><g fill="#000"><path d="m20 8.99988c-.4142 0-.7444-.33771-.8028-.74777-.3282-2.30106-2.1484-4.12124-4.4494-4.44938-.4101-.05847-.7478-.38863-.7478-.80285 0-.41421.3371-.75437.7488-.70893 3.1297.3454 5.6147 2.83046 5.9601 5.96013.0455.41172-.2947.7488-.7089.7488z"/><path clip-rule="evenodd" d="m11 5.25h-.7136c-.58816-.00001-1.07905-.00002-1.47873.03585-.41741.03745-.80762.11861-1.17018.32541-.4278.24402-.78221.59843-1.02622 1.02623-.2068.36256-.28796.75277-.32542 1.17018-.03587.39967-.03586.89055-.03585 1.47872v8.42721c-.00001.5881-.00002 1.0791.03585 1.4787.03746.4174.11862.8077.32542 1.1702.24401.4278.59842.7822 1.02622 1.0262.36256.2068.75277.288 1.17018.3255.39967.0358.89056.0358 1.47873.0358h3.4272c.5882 0 1.0791 0 1.4787-.0358.4174-.0375.8077-.1187 1.1702-.3255.4278-.244.7822-.5984 1.0262-1.0262.2068-.3625.288-.7528.3255-1.1702.0358-.3996.0358-.8905.0358-1.4787v-5.7136c0-.4142-.3358-.75-.75-.75s-.75.3358-.75.75v3.75c0 .2761-.2239.5-.5.5h-7.5c-.27614 0-.5-.2239-.5-.5v-6.43c0-.63042.00071-1.0536.02984-1.37826.02823-.31451.07843-.46299.13437-.56106.11092-.19446.27202-.35555.46647-.46647.09807-.05594.24655-.10614.56106-.13437.32466-.02913.74784-.02984 1.37826-.02984h.68c.4142 0 .75-.33579.75-.75s-.3358-.75-.75-.75zm-2.74992 12.5c-.27617 0-.50077.2239-.49878.5001.00239.3339.00921.5927.02854.8082.02823.3145.07843.463.13437.561.11092.1945.27202.3556.46647.4665.09807.0559.24655.1061.56106.1344.32466.0291.74784.0298 1.37826.0298h3.36c.6304 0 1.0536-.0007 1.3783-.0298.3145-.0283.463-.0785.561-.1344.1945-.1109.3556-.272.4665-.4665.0559-.098.1061-.2465.1344-.561.0193-.2155.0261-.4743.0285-.8082.002-.2762-.2226-.5001-.4988-.5001z" fill-rule="evenodd"/><path d="m16.1267 8.2637c.1355.39142.4591.73642.8733.73642s.7578-.33917.676-.74521c-.2971-1.47322-1.4576-2.63371-2.9308-2.93075-.406-.08187-.7452.26174-.7452.67596 0 .41421.345.73776.7364.87328.6503.22512 1.1652.74005 1.3903 1.3903z"/></g></svg>