<svg fill="none" height="24" viewBox="0 0 24 24" width="24" xmlns="http://www.w3.org/2000/svg"><g fill="#000"><path d="m3.53033 2.46967c-.29289-.29289-.76777-.29289-1.06066 0s-.29289.76777 0 1.06066l18.00003 17.99997c.2929.2929.7677.2929 1.0606 0s.2929-.7677 0-1.0606l-3.4874-3.4875c-.1875-.1875-.2929-.4419-.2929-.7071v-4.2751c0-.4142-.3358-.75-.75-.75s-.75.3358-.75.75v2.2237c0 .3563-.4309.5348-.6828.2828l-7.05433-7.05429c-.20002-.20002-.19458-.54811.07936-.6186.007-.0018.01404-.00352.02112-.00517.08392-.01953.19011-.03619.32839-.0486.32466-.02913.74784-.02984 1.37826-.02984h.68c.4142 0 .75-.33579.75-.75s-.3358-.75-.75-.75h-.7136c-.58816-.00001-1.07905-.00002-1.47873.03585-.41741.03745-.80762.11862-1.17018.32541-.0578.03297-.11427.06796-.1693.10487-.22681.15212-.53713.15427-.73025-.03885z"/><path d="m19.1972 8.25211c.0584.41006.3886.74777.8028.74777s.7544-.33708.7089-.7488c-.3454-3.12967-2.8304-5.61473-5.9601-5.96013-.4117-.04544-.7488.29472-.7488.70893 0 .41422.3377.74438.7478.80285 2.301.32814 4.1212 2.14832 4.4494 4.44938z"/><path d="m7.75 15.75v-4.5073c0-.1989-.07902-.3897-.21967-.5303l-.42678-.4268c-.31498-.31501-.85355-.0919-.85355.3535v7.0745c-.00001.5881-.00002 1.0791.03585 1.4787.03746.4174.11862.8077.32542 1.1702.24401.4278.59842.7822 1.02622 1.0262.36256.2068.75277.288 1.17018.3255.39967.0358.89056.0358 1.47873.0358h3.4272c.5882 0 1.0791 0 1.4787-.0358.4174-.0375.8077-.1187 1.1702-.3255.2414-.1377.4595-.3105.6475-.5119.1945-.2083.1561-.5287-.0454-.7302l-.3579-.3579c-.1849-.1849-.5364-.0921-.7209.0932-.0789.0793-.1684.148-.2665.2039-.098.0559-.2465.1061-.561.1344-.3247.0291-.7479.0298-1.3783.0298h-3.36c-.63042 0-1.0536-.0007-1.37826-.0298-.31451-.0283-.46299-.0785-.56106-.1344-.19445-.1109-.35555-.272-.46647-.4665-.05593-.098-.10614-.2465-.13437-.561-.01933-.2155-.02615-.4743-.02854-.8082-.00199-.2762.22261-.5001.49878-.5001h5.11082c.4454 0 .6685-.5386.3535-.8536l-.4268-.4267c-.1406-.1407-.3314-.2197-.5303-.2197h-4.5073c-.27614 0-.5-.2239-.5-.5z"/><path d="m16.1267 8.2637c.1355.39142.4591.73642.8733.73642s.7578-.33917.676-.74521c-.2971-1.47322-1.4576-2.63371-2.9308-2.93075-.406-.08187-.7452.26174-.7452.67596 0 .41421.345.73776.7364.87328.6503.22512 1.1652.74005 1.3903 1.3903z"/></g></svg>