<svg fill="none" height="24" viewBox="0 0 24 24" width="24" xmlns="http://www.w3.org/2000/svg"><path clip-rule="evenodd" d="m8.81097 18.6376c.07636-.2223.27605-.3876.5111-.3876h5.35583c.2351 0 .4348.1653.5111.3876.4722 1.3746 1.7762 2.3624 3.311 2.3624 1.933 0 3.5-1.567 3.5-3.5s-1.567-3.5-3.5-3.5c-.1964 0-.389.0162-.5766.0473-.2315.0383-.4713-.0586-.5832-.2649l-2.8614-5.27936c-.1119-.20649-.062-.46058.097-.63339.5738-.62339.9242-1.4556.9242-2.36965 0-1.933-1.567-3.5-3.5-3.5s-3.5 1.567-3.5 3.5c0 .91406.35039 1.74628.92419 2.36967.15905.1728.20895.42689.09703.63338l-2.86131 5.27935c-.11183.2064-.35169.3033-.58322.2649-.18761-.0311-.38026-.0473-.57669-.0473-1.933 0-3.5 1.567-3.5 3.5s1.567 3.5 3.5 3.5c1.53476 0 2.8388-.9878 3.31097-2.3624zm2.02913-9.42003c.1118-.20633.3517-.30324.5832-.26485.1876.0311.3803.04728.5767.04728s.3891-.01618.5767-.04729c.2315-.03838.4714.05852.5832.26485l2.8614 5.27924c.1119.2065.062.4606-.097.6335-.3239.3518-.5766.7701-.7353 1.2322-.0764.2223-.276.3875-.5111.3875h-5.35583c-.23505 0-.43472-.1652-.51107-.3875-.15869-.462-.41136-.8803-.73518-1.2321-.15906-.1729-.20894-.4269-.09703-.6334zm-3.3401 8.28243c0 1.1046-.89543 2-2 2s-2-.8954-2-2 .89543-2 2-2 2 .8954 2 2zm13 0c0 1.1046-.8954 2-2 2s-2-.8954-2-2 .8954-2 2-2 2 .8954 2 2zm-6.5-12c0 1.10457-.8954 2-2 2s-2-.89543-2-2 .8954-2 2-2 2 .89543 2 2z" fill="#000" fill-rule="evenodd"/></svg>