<svg fill="none" height="20" viewBox="0 0 20 20" width="20" xmlns="http://www.w3.org/2000/svg"><g clip-rule="evenodd" fill-rule="evenodd"><path d="m18.3333 5.41666c0-2.07107-1.6789-3.75-3.75-3.75h-4.58334c-2.76142 0-5 2.23857-5 5v.83333c0 .92047.74619 1.66667 1.66667 1.66667h7.91667c2.0711 0 3.75-1.67893 3.75-3.75zm-3.75-2.5h-4.58334c-2.07107 0-3.75 1.67893-3.75 3.75v.83333c0 .23012.18655.41667.41667.41667h7.91667c1.3807 0 2.5-1.11929 2.5-2.5 0-1.38072-1.1193-2.5-2.5-2.5z" fill="#000"/><path d="m1.66663 14.5833c0 2.0711 1.67893 3.75 3.75 3.75h4.58333c2.76144 0 5.00004-2.2386 5.00004-5v-.8333c0-.9205-.7462-1.6667-1.6667-1.6667h-7.91667c-2.07107 0-3.75 1.679-3.75 3.75zm3.75 2.5h4.58333c2.07104 0 3.75004-1.6789 3.75004-3.75v-.8333c0-.2301-.1866-.4167-.4167-.4167h-7.91667c-1.38071 0-2.5 1.1193-2.5 2.5s1.11928 2.5 2.5 2.5z" fill="#4360df"/></g></svg>