<svg fill="none" height="16" viewBox="0 0 16 16" width="16" xmlns="http://www.w3.org/2000/svg" xmlns:xlink="http://www.w3.org/1999/xlink"><clipPath id="a"><path d="m0 0h16v16h-16z"/></clipPath><g clip-path="url(#a)"><path clip-rule="evenodd" d="m7.9987 8.66667c1.28866 0 2.3333-1.04467 2.3333-2.33334 0-1.28866-1.04464-2.33333-2.3333-2.33333-1.28867 0-2.33334 1.04467-2.33334 2.33333 0 1.28867 1.04467 2.33334 2.33334 2.33334zm0-1c.73638 0 1.33333-.59696 1.33333-1.33334s-.59695-1.33333-1.33333-1.33333-1.33334.59695-1.33334 1.33333.59696 1.33334 1.33334 1.33334z" fill="#4360df" fill-rule="evenodd"/><path d="m10.963 10.8487c.2437.1895.2504.5482.0128.7452-.203.1684-.4951.1394-.7075-.0169-.6354-.4675-1.4202-.7437-2.2695-.7437s-1.6341.2762-2.26946.7437c-.21245.1563-.50452.1853-.70755.0169-.23757-.197-.23085-.5557.01279-.7452.81852-.6364 1.84711-1.01537 2.96422-1.01537s2.1457.37897 2.9642 1.01537z" fill="#4360df"/><path d="m1.49116 6.62799 2.4-4c.48193-.80321 1.34995-1.29468 2.28665-1.29468h3.64698c.93671 0 1.80471.49147 2.28661 1.29468l2.4 4c.5067.84449.5067 1.89949 0 2.74398l-2.4 4.00003c-.4819.8032-1.3499 1.2946-2.2866 1.2946h-3.64699c-.9367 0-1.80472-.4914-2.28665-1.2946l-2.4-4.00003c-.50669-.84449-.506689-1.89949 0-2.74398z" stroke="#4360df"/></g></svg>