<svg fill="none" height="24" viewBox="0 0 24 24" width="24" xmlns="http://www.w3.org/2000/svg"><path clip-rule="evenodd" d="m9.32207 12.75c-.23505 0-.43474.1653-.5111.3876-.47217 1.3746-1.77621 2.3624-3.31097 2.3624-1.933 0-3.5-1.567-3.5-3.5s1.567-3.5 3.5-3.5c1.53476 0 2.8388.98785 3.31097 2.3624.07636.2223.27605.3876.5111.3876h5.35583c.2351 0 .4348-.1653.5111-.3876.4722-1.37455 1.7762-2.3624 3.311-2.3624 1.933 0 3.5 1.567 3.5 3.5s-1.567 3.5-3.5 3.5c-1.5348 0-2.8388-.9878-3.311-2.3624-.0763-.2223-.276-.3876-.5111-.3876zm-3.82207 1.25c1.10457 0 2-.8954 2-2s-.89543-2-2-2-2 .8954-2 2 .89543 2 2 2zm13 0c1.1046 0 2-.8954 2-2s-.8954-2-2-2-2 .8954-2 2 .8954 2 2 2z" fill="#000" fill-rule="evenodd"/></svg>