<svg fill="none" height="24" viewBox="0 0 24 24" width="24" xmlns="http://www.w3.org/2000/svg"><g fill="#000"><path clip-rule="evenodd" d="m3.53033 2.46967c-.29289-.29289-.76777-.29289-1.06066 0s-.29289.76777 0 1.06066l18.00003 17.99997c.2929.2929.7677.2929 1.0606 0s.2929-.7677 0-1.0606l-1.1179-1.118c-.2172-.2172-.1871-.5761.0342-.789.8035-.7732 1.3034-1.8596 1.3034-3.0627 0-2.0331-1.4276-3.7327-3.335-4.1512.2166-.5756.335-1.1989.335-1.8488 0-2.8995-2.3505-5.25-5.25-5.25-1.9439 0-3.64102 1.05647-4.54855 2.62656-.17981.3111-.61431.39992-.86839.14584zm6.35403 6.03197c-.04439.1611.00921.33127.12734.44943l8.6293 8.62923c.1625.1625.4182.1969.5962.0516.6181-.5043 1.0128-1.272 1.0128-2.1319 0-1.5188-1.2312-2.75-2.75-2.75-.6781 0-1.1238-.7447-.7688-1.3455.3295-.5576.5188-1.2078.5188-1.9045 0-2.07107-1.6789-3.75-3.75-3.75-1.7254 0-3.1786 1.16521-3.61564 2.75164z" fill-rule="evenodd"/><path d="m14.7574 18.25c.199 0 .3897.079.5304.2197.4724.4724.1378 1.2803-.5304 1.2803h-7.2574c-2.8995 0-5.25-2.3505-5.25-5.25 0-2.2609 1.4292-4.1881 3.43345-4.92723.32946-.12151.69265-.01477.94095.23353l.20168.2017c.27082.2708.07334.77-.29668.8688-1.60058.4277-2.7794 1.8878-2.7794 3.6232 0 2.0711 1.67893 3.75 3.75 3.75z"/></g></svg>