<svg width="24" height="25" viewBox="0 0 24 25" fill="none" xmlns="http://www.w3.org/2000/svg">
<path fill-rule="evenodd" clip-rule="evenodd" d="M15.281 20C14.9447 20 14.7031 20.3279 14.7344 20.6628C14.7444 20.7703 14.7499 20.8827 14.7499 21C14.7499 22.3889 13.5436 23.75 11.9999 23.75C10.4563 23.75 9.24992 22.3889 9.24992 21C9.24992 20.8827 9.25542 20.7703 9.26547 20.6628C9.29677 20.3279 9.05515 20 8.71885 20H5.52103C3.78474 20 2.87319 17.9394 4.04115 16.6547L5.218 15.3601C5.72872 14.7983 6.069 14.1028 6.19909 13.3548L7.31456 6.94085C7.71072 4.66293 9.68781 3 11.9999 3C14.312 3 16.2891 4.66293 16.6853 6.94085L17.8008 13.3548C17.9308 14.1028 18.2711 14.7983 18.7818 15.3601L19.9587 16.6547C21.1266 17.9394 20.2151 20 18.4788 20H15.281ZM11.0322 20.0283L11.0313 20.0293L11.039 20.0214L11.0415 20.0188C11.0427 20.0175 11.0433 20.0168 11.0434 20.0167C11.0438 20.0163 11.0434 20.0167 11.0434 20.0167L11.0415 20.0188C11.0525 20.0073 11.0681 20 11.084 20H12.9159C12.9318 20 12.9469 20.0068 12.9579 20.0183C12.9608 20.0217 12.9679 20.0302 12.978 20.0438C13.001 20.0744 13.0389 20.13 13.0791 20.2104C13.1582 20.3687 13.2499 20.6296 13.2499 21C13.2499 21.6111 12.6654 22.25 11.9999 22.25C11.3344 22.25 10.7499 21.6111 10.7499 21C10.7499 20.6296 10.8416 20.3687 10.9207 20.2104C10.9609 20.13 10.9988 20.0744 11.0218 20.0438C11.032 20.0302 11.0386 20.0222 11.0415 20.0188L11.039 20.0214L11.0372 20.0233L11.034 20.0265L11.0322 20.0283ZM5.15106 17.6637L6.32791 16.3691C7.03015 15.5967 7.49804 14.6403 7.67691 13.6118L8.79238 7.19786C9.06358 5.63842 10.4171 4.5 11.9999 4.5C13.5828 4.5 14.9363 5.63842 15.2075 7.19786L16.3229 13.6118C16.5018 14.6403 16.9697 15.5967 17.6719 16.3691L18.8488 17.6637C19.1408 17.9849 18.9129 18.5 18.4788 18.5H5.52103C5.08696 18.5 4.85907 17.9849 5.15106 17.6637Z" fill="black"/>
<rect x="0.585786" y="20.7988" width="28" height="4" rx="2" transform="rotate(-45 0.585786 20.7988)" fill="black" stroke="white" stroke-width="2"/>
</svg>
