<svg width="24" height="24" viewBox="0 0 24 24" fill="none" xmlns="http://www.w3.org/2000/svg">
<path d="M12 2.89941C13.2302 2.89946 14.6959 3.18992 15.8916 4.3877C17.077 5.57542 17.8869 7.54647 18.0635 10.6621C18.1092 11.4696 18.1292 11.7975 18.168 12C18.207 12.204 18.2817 12.4312 18.4746 13.0098L19.8643 17.1787L20.1709 18.0996H16.2412C16.0958 18.9805 15.6795 19.801 15.04 20.4404C14.2336 21.2468 13.1394 21.7002 11.999 21.7002C10.8589 21.7 9.76522 21.2466 8.95898 20.4404C8.31969 19.801 7.90424 18.9804 7.75879 18.0996H3.82812L4.13574 17.1787L5.52539 13.0098C5.71818 12.4314 5.79198 12.2039 5.83105 12C5.86979 11.7975 5.89078 11.4695 5.93652 10.6621C6.11306 7.54653 6.92203 5.57543 8.10742 4.3877C9.3032 3.18971 10.7697 2.89941 12 2.89941ZM9.18848 18.0996C9.31463 18.6063 9.57389 19.0748 9.94922 19.4502C10.4929 19.9938 11.2302 20.2996 11.999 20.2998C12.7681 20.2998 13.506 19.994 14.0498 19.4502C14.4252 19.0748 14.6834 18.6063 14.8096 18.0996H9.18848ZM12 4.2998C10.9825 4.2998 9.93753 4.53654 9.09863 5.37695C8.2494 6.22787 7.50018 7.80812 7.33398 10.7412C7.29148 11.4915 7.26708 11.9436 7.20605 12.2627C7.14528 12.5801 7.0333 12.9128 6.85352 13.4521L5.77148 16.6992H18.2285L17.1465 13.4521C16.9667 12.9127 16.8537 12.5802 16.793 12.2627C16.732 11.9436 16.7085 11.4914 16.666 10.7412C16.4998 7.80834 15.7505 6.22792 14.9014 5.37695C14.0625 4.53655 13.0174 4.29985 12 4.2998Z" fill="#131D2F"/>
</svg>
