<svg fill="none" height="24" viewBox="0 0 24 24" width="24" xmlns="http://www.w3.org/2000/svg"><g clip-rule="evenodd" fill="#000" fill-rule="evenodd"><path d="m9.35614 16.8391c0 1.1926-.97154 2.1594-2.17 2.1594s-2.17-.9668-2.17-2.1594.97154-2.1594 2.17-2.1594 2.17.9668 2.17 2.1594zm-1.50807 0c0 .3638-.29635.6587-.66193.6587-.36557 0-.66193-.2949-.66193-.6587s.29636-.6587.66193-.6587c.36558 0 .66193.2949.66193.6587z"/><path d="m17.1478 11.0812c-.0473.1918-.2036.338-.3989.3731l-.9687.1739c-.2191.0393-.3861.2174-.4104.4376l-.1561 1.4119c-.013.1178-.0676.2272-.1541.3086l-.9076.8549c-.1253.118-.1795.2914-.154.4611.0439.2919.0666.5907.0666.8948 0 3.3153-2.7008 6.0029-6.03231 6.0029-3.33154 0-6.03229-2.6876-6.03229-6.0029 0-3.3154 2.70075-6.00296 6.03229-6.00296.69597 0 1.36442.11726 1.98651.33306.1902.066.4036.0262.5473-.1143l8.2481-8.06938c.0941-.09198.2206-.14352.3525-.14352h2.3304c.3193 0 .5576.29229.492.60318l-.8236 3.89744c-.036.17051-.1586.31008-.3236.36842l-.8895.31457c-.1486.05257-.2638.1715-.3111.32124l-.4005 1.26681c-.0506.15996-.1784.28407-.3403.33053l-1.0814.31029c-.1729.04963-.306.18748-.3489.36143zm-4.5913 4.9159c0-.3473-.0395-.6854-.1143-1.01l-.0093-.0276c-.057-.1681-.1213-.3331-.1925-.4946-.0125-.0283-.0061-.0614.0163-.0829l1.4528-1.3904c.0294-.0277.0479-.0648.0523-.1048l.2321-2.099c.0243-.2202.1913-.3982.4104-.4376l1.1133-.1998c.1953-.0351.3517-.18128.399-.37311l.2971-1.20469c.0429-.17396.1759-.31181.3489-.36144l1.1423-.32777c.1619-.04646.2897-.17057.3402-.33054l.3831-1.21168c.0473-.14974.1626-.26868.3112-.32124l.8007-.28318c.165-.05835.2876-.19792.3236-.36843l.2896-1.3703c.0541-.25631-.1424-.49729-.4056-.49729-.1087 0-.213.0425-.2905.11832l-7.7699 7.60215-1.0886 1.0622c-.0019.0018-.0049.0021-.0071.0006-.72785-.4978-1.6094-.7891-2.55931-.7891-2.49866 0-4.52422 2.0157-4.52422 4.5022s2.02556 4.5022 4.52422 4.5022c2.49861 0 4.52421-2.0157 4.52421-4.5022z"/></g></svg>