<svg fill="none" height="24" viewBox="0 0 24 24" width="24" xmlns="http://www.w3.org/2000/svg"><g fill="#000"><path d="m4.53033 3.46967c-.29289-.29289-.76777-.29289-1.06066 0s-.29289.76777 0 1.06066l15.00003 14.99997c.2929.2929.7677.2929 1.0606 0s.2929-.7677 0-1.0606l-6.13-6.13c-.1697-.1697-.0283-.442.2037-.3804.2677.0711.5309.16.7878.2665.7583.314 1.4473.7744 2.0277 1.3548.2929.2929.7677.2929 1.0606 0s.2929-.7678 0-1.0607c-.7196-.7196-1.574-1.2905-2.5143-1.68-.9402-.3894-1.948-.5899-2.9658-.5899-.1044 0-.2087.0021-.3129.0063-.2211.009-.4385-.0683-.5949-.2247l-2.12094-2.121c-.26223-.26223-.15676-.70658.2022-.79975.92104-.23907 1.87074-.36085 2.82644-.36085 1.4774 0 2.9403.29099 4.3052.85635 1.3649.56537 2.6051 1.39404 3.6498 2.43865.2929.2929.7678.2929 1.0606 0 .2929-.29285.2929-.76772 0-1.06061-1.1839-1.18395-2.5895-2.12311-4.1364-2.76385-1.5469-.64075-3.2048-.97054-4.8792-.97054-1.523 0-3.0324.27286-4.45703.80441-.18783.07008-.40024.02756-.542-.1142z"/><path d="m7.6416 11.5917c.27164-.1848.63323-.1348.86552.0974.35039.3504.25253.9436-.15011 1.2324-.27565.1978-.53538.4181-.77639.6591-.29289.2929-.76776.2929-1.06066 0-.29289-.2929-.29289-.7678 0-1.0607.34476-.3447.72042-.6553 1.12164-.9282z"/><path d="m4.87178 9.29644c.35772-.29297.40746-.83518.08051-1.16213-.2581-.2581-.66714-.29196-.95138-.06296-.35427.28541-.69367.59012-1.01659.91304-.2929.29289-.29289.76777 0 1.06071.29289.2928.76777.2928 1.06066 0 .26354-.26359.53952-.51338.8268-.74866z"/><path d="m13.4089 17.6516c.2929-.2929.2929-.7677 0-1.0606l-1.1281-1.1282c-.1361-.1361-.3197-.2192-.5114-.2031-.1882.0159-.3739.051-.5532.1043-.4345.1292-.8345.3651-1.1608.6915-.14069.1406-.21971.3314-.21971.5303s.07902.3897.21971.5303l1.4142 1.4142c.1406.1407.3314.2197.5303.2197s.3897-.079.5303-.2197z"/></g></svg>