<svg fill="none" height="24" viewBox="0 0 24 24" width="24" xmlns="http://www.w3.org/2000/svg"><g fill="#000"><path d="m4 19.25c-.41421 0-.75.3358-.75.75s.33579.75.75.75h16c.4142 0 .75-.3358.75-.75s-.3358-.75-.75-.75z"/><path d="m12.75 4c0-.41421-.3358-.75-.75-.75s-.75.33579-.75.75v4.52442c0 .30897-.2774.544-.5822.4932l-4.5445-.75742c-.40858-.06809-.795.20792-.8631.6165-.06809.40858.20792.795.6165.8631l4.2021.7003c.3464.0578.5269.4453.3482.7476l-2.32269 3.9308c-.21073.3566-.09246.8165.26414 1.0272.35661.2107.81652.0925 1.02724-.2642l2.17381-3.6788c.1936-.3275.6674-.3275.861 0l2.1738 3.6788c.2107.3567.6706.4749 1.0272.2642.3567-.2107.4749-.6706.2642-1.0272l-2.3227-3.9308c-.1787-.3023.0018-.6898.3482-.7476l4.2021-.7003c.4086-.0681.6846-.45452.6165-.8631s-.4545-.68459-.8631-.6165l-4.5445.75742c-.3048.0508-.5822-.18423-.5822-.4932z"/></g></svg>