<svg fill="none" height="24" viewBox="0 0 24 24" width="24" xmlns="http://www.w3.org/2000/svg"><g fill="#000"><path clip-rule="evenodd" d="m13 9c-2.2091 0-4 1.7909-4 4v5c0 2.2091 1.7909 4 4 4h5c2.2091 0 4-1.7909 4-4v-5c0-2.2091-1.7909-4-4-4zm5 1.5h-5c-1.3807 0-2.5 1.1193-2.5 2.5v5c0 1.3807 1.1193 2.5 2.5 2.5h5c1.3807 0 2.5-1.1193 2.5-2.5v-5c0-1.3807-1.1193-2.5-2.5-2.5z" fill-rule="evenodd"/><path d="m14.25 7c-.4142 0-.75-.33579-.75-.75v-.25c0-1.38071-1.1193-2.5-2.5-2.5h-5c-1.38071 0-2.5 1.11929-2.5 2.5v5c0 1.3807 1.11929 2.5 2.5 2.5h.25c.41421 0 .75.3358.75.75s-.33579.75-.75.75h-.25c-2.20914 0-4-1.7909-4-4v-5c0-2.20914 1.79086-4 4-4h5c2.2091 0 4 1.79086 4 4v.25c0 .41421-.3358.75-.75.75z"/></g></svg>