<svg fill="none" height="24" viewBox="0 0 24 24" width="24" xmlns="http://www.w3.org/2000/svg"><g clip-rule="evenodd" fill="#000" fill-rule="evenodd"><path d="m8.25 5.25c-1.51878 0-2.75 1.23122-2.75 2.75v8c0 1.5188 1.23122 2.75 2.75 2.75s2.75-1.2312 2.75-2.75v-8c0-1.51878-1.23122-2.75-2.75-2.75zm-1.25 2.75c0-.69036.55964-1.25 1.25-1.25s1.25.55964 1.25 1.25v8c0 .6904-.55964 1.25-1.25 1.25s-1.25-.5596-1.25-1.25z"/><path d="m15.75 5.25c-1.5188 0-2.75 1.23122-2.75 2.75v8c0 1.5188 1.2312 2.75 2.75 2.75s2.75-1.2312 2.75-2.75v-8c0-1.51878-1.2312-2.75-2.75-2.75zm-1.25 2.75c0-.69036.5596-1.25 1.25-1.25s1.25.55964 1.25 1.25v8c0 .6904-.5596 1.25-1.25 1.25s-1.25-.5596-1.25-1.25z"/></g></svg>