<svg fill="none" height="13" viewBox="0 0 13 13" width="13" xmlns="http://www.w3.org/2000/svg"><g fill="#000"><path d="m.100954 12.5959.697408-2.78967c.032226-.1289.072864-.25507.12149-.37776.061862-.15608.261598-.18616.380318-.06745l2.3388 2.33878c.11872.1187.08863.3185-.06745.3803-.12269.0487-.24886.0893-.37776.1215l-2.789637.6974c-.183095.0458-.3489432-.12-.303169-.3031z"/><path d="m4.32312 10.2627c.39052.3905 1.02369.3905 1.41421 0l6.55547-6.5555c.3905-.39052.3905-1.02369 0-1.41421l-1.5858-1.58579c-.3905-.390524-1.02368-.390525-1.41421-.000001l-6.55546 6.555461c-.39052.39052-.39052 1.02369 0 1.41421z"/></g></svg>