<svg fill="none" height="14" viewBox="0 0 14 14" width="14" xmlns="http://www.w3.org/2000/svg"><path clip-rule="evenodd" d="m9.79136 1.16389c.84074-.840753 2.20384-.840751 3.04464 0 .8407.84074.8407 2.20387 0 3.04461l-7.8345 7.8345c-.28479.2848-.63745.4923-1.02471.6029l-2.80509.8015c-.174908.0499-.363156.0012-.49178-.1275-.128625-.1286-.177405-.3168-.127433-.4917l.801453-2.8051c.11065-.38729.31816-.73996.60294-1.02474zm2.33624.70835c-.4495-.44954-1.1784-.44954-1.6279 0l-7.83446 7.83447c-.16441.1644-.28421.36799-.34808.59159-.24137.8447.53966 1.6258 1.38443 1.3844.22356-.0639.42715-.1837.59156-.3481l7.83445-7.83445c.4496-.44953.4496-1.17838 0-1.62791z" fill="#4360df" fill-rule="evenodd"/></svg>