<svg fill="none" height="24" viewBox="0 0 24 24" width="24" xmlns="http://www.w3.org/2000/svg"><g fill="#000"><path d="m14.8956 7.28455c0-.82843-.6482-1.67563-1.4478-1.89228-.7996-.21664-1.4478.2793-1.4478 1.10773s.6482 1.67563 1.4478 1.89227c.7996.21665 1.4478-.2793 1.4478-1.10772z"/><path clip-rule="evenodd" d="m12 2c-3.31371 0-6 2.68629-6 6 0 2.9077 2.06835 5.3323 4.814 5.8828.2473.0496.436.2601.436.5123v6.6049c0 .4142.3358.75.75.75s.75-.3358.75-.75v-6.6049c0-.2522.1887-.4627.436-.5123 2.7457-.5505 4.814-2.9751 4.814-5.8828 0-3.31371-2.6863-6-6-6zm-4.5 6c0 2.4853 2.01472 4.5 4.5 4.5 2.4853 0 4.5-2.0147 4.5-4.5 0-2.48528-2.0147-4.5-4.5-4.5-2.48528 0-4.5 2.01472-4.5 4.5z" fill-rule="evenodd"/></g></svg>