<svg fill="none" height="24" viewBox="0 0 24 24" width="24" xmlns="http://www.w3.org/2000/svg"><g clip-rule="evenodd" fill="#000" fill-rule="evenodd"><path d="m22 6.5c0-2.48528-2.0147-4.5-4.5-4.5h-5.5c-3.31371 0-6 2.68629-6 6v1c0 1.1046.89543 2 2 2h9.5c2.4853 0 4.5-2.01472 4.5-4.5zm-4.5-3h-5.5c-2.48528 0-4.5 2.01472-4.5 4.5v1c0 .27614.22386.5.5.5h9.5c1.6569 0 3-1.34315 3-3s-1.3431-3-3-3z"/><path d="m2 17.5c0 2.4853 2.01472 4.5 4.5 4.5h5.5c3.3137 0 6-2.6863 6-6v-1c0-1.1046-.8954-2-2-2h-9.5c-2.48528 0-4.5 2.0147-4.5 4.5zm4.5 3h5.5c2.4853 0 4.5-2.0147 4.5-4.5v-1c0-.2761-.2239-.5-.5-.5h-9.5c-1.65685 0-3 1.3431-3 3s1.34315 3 3 3z"/></g></svg>