<svg fill="none" height="24" viewBox="0 0 24 24" width="24" xmlns="http://www.w3.org/2000/svg"><path clip-rule="evenodd" d="m2 10.7149c0-1.54128 1.16788-2.83178 2.70149-2.98514l3.63626-.36363c2.42115-.24211 4.77785-.92401 6.95425-2.0122l3.8136-1.90681c1.3298-.6649 2.8944.30209 2.8944 1.78886v11.52782c0 1.4868-1.5646 2.4538-2.8944 1.7889l-3.8136-1.9068c-.6152-.3076-1.2447-.5827-1.886-.8246-.3201-.1207-.656.1201-.656.4623v2.2164c0 1.2426-1.0074 2.25-2.25 2.25h-.5c-2.07107 0-3.75-1.6789-3.75-3.75v-2.1226c0-.2569-.19465-.472-.45025-.4975l-1.09826-.1098c-1.5336-.1534-2.70149-1.4439-2.70149-2.9852zm18.5-5.47892v11.52782c0 .3717-.3912.6135-.7236.4473l-3.8136-1.9069c-2.3396-1.1697-4.873-1.9028-7.47579-2.1631l-3.63626-.3636c-.76681-.0767-1.35075-.7219-1.35075-1.4926v-.57c0-.77066.58394-1.4159 1.35074-1.49258l3.63627-.36363c2.60279-.26028 5.13619-.99332 7.47579-2.16311l3.8136-1.90681c.3324-.16623.7236.07552.7236.44721zm-12.20025 9.39392c-.29434-.0294-.54975.2017-.54975.4975v1.8726c0 1.2426 1.00736 2.25 2.25 2.25h.5c.4142 0 .75-.3358.75-.75v-2.9661c0-.229-.1553-.4293-.3783-.4811-.8333-.1935-1.67959-.3337-2.53395-.4191z" fill="#000" fill-rule="evenodd"/></svg>