<svg fill="none" height="16" viewBox="0 0 16 16" width="16" xmlns="http://www.w3.org/2000/svg"><g fill="#4360df"><path d="m.50293 8.00049c0-.27614.223857-.5.5-.5h13.99397c.2761 0 .5.22386.5.5s-.2239.5-.5.5h-13.99397c-.276143 0-.5-.22386-.5-.5z"/><g clip-rule="evenodd" fill-rule="evenodd"><path d="m1.33323 4.5026c0-1.7489 1.41777-3.16666 3.16667-3.16666h1.33333c.27614 0 .5.22386.5.5s-.22386.5-.5.5h-1.33333c-1.19662 0-2.16667.97005-2.16667 2.16666v1.19147c0 .27614-.22386.5-.5.5s-.5-.22386-.5-.5z"/><path d="m1.33323 11.5005c0 1.7489 1.41777 3.1667 3.16667 3.1667h1.33333c.27614 0 .5-.2239.5-.5 0-.2762-.22386-.5-.5-.5h-1.33333c-1.19662 0-2.16667-.9701-2.16667-2.1667v-1.1915c0-.2761-.22386-.49998-.5-.49998s-.5.22388-.5.49998z"/><path d="m14.6666 4.5026c0-1.7489-1.4178-3.16666-3.1667-3.16666h-1.3333c-.27618 0-.50004.22386-.50004.5s.22386.5.50004.5h1.3333c1.1966 0 2.1667.97005 2.1667 2.16666v1.19147c0 .27614.2238.5.5.5.2761 0 .5-.22386.5-.5z"/><path d="m14.6666 11.5005c0 1.7489-1.4178 3.1667-3.1667 3.1667h-1.3333c-.27618 0-.50004-.2239-.50004-.5 0-.2762.22386-.5.50004-.5h1.3333c1.1966 0 2.1667-.9701 2.1667-2.1667v-1.1915c0-.2761.2238-.49998.5-.49998.2761 0 .5.22388.5.49998z"/></g></g></svg>