<svg fill="none" height="24" viewBox="0 0 24 24" width="24" xmlns="http://www.w3.org/2000/svg"><g fill="#000"><path clip-rule="evenodd" d="m4 2c-1.10457 0-2 .89543-2 2v5c0 1.1046.89543 2 2 2h5c1.1046 0 2-.8954 2-2v-5c0-1.10457-.8954-2-2-2zm5 1.5h-5c-.27614 0-.5.22386-.5.5v5c0 .27614.22386.5.5.5h5c.27614 0 .5-.22386.5-.5v-5c0-.27614-.22386-.5-.5-.5z" fill-rule="evenodd"/><path d="m6.5 16c-.82843 0-1.5.6716-1.5 1.5s.67157 1.5 1.5 1.5 1.5-.6716 1.5-1.5-.67157-1.5-1.5-1.5z"/><path clip-rule="evenodd" d="m6.5 13c-2.48528 0-4.5 2.0147-4.5 4.5s2.01472 4.5 4.5 4.5 4.5-2.0147 4.5-4.5-2.01472-4.5-4.5-4.5zm-3 4.5c0 1.6569 1.34315 3 3 3s3-1.3431 3-3-1.34315-3-3-3-3 1.3431-3 3z" fill-rule="evenodd"/><path d="m14 13c-.5523 0-1 .4477-1 1v1.5c0 .5523.4477 1 1 1h1.5c.5523 0 1-.4477 1-1v-1.5c0-.5523-.4477-1-1-1z"/><path d="m18.5 14c0-.5523.4477-1 1-1h1.5c.5523 0 1 .4477 1 1v1.5c0 .5523-.4477 1-1 1h-1.5c-.5523 0-1-.4477-1-1z"/><path d="m19.5 18.5c-.5523 0-1 .4477-1 1v1.5c0 .5523.4477 1 1 1h1.5c.5523 0 1-.4477 1-1v-1.5c0-.5523-.4477-1-1-1z"/><path d="m13 19.5c0-.5523.4477-1 1-1h1.5c.5523 0 1 .4477 1 1v1.5c0 .5523-.4477 1-1 1h-1.5c-.5523 0-1-.4477-1-1z"/><path d="m16 6c0-.55228.4477-1 1-1h1c.5523 0 1 .44772 1 1v1c0 .55228-.4477 1-1 1h-1c-.5523 0-1-.44772-1-1z"/><path clip-rule="evenodd" d="m13 4c0-1.10457.8954-2 2-2h5c1.1046 0 2 .89543 2 2v5c0 1.1046-.8954 2-2 2h-5c-1.1046 0-2-.8954-2-2zm2-.5h5c.2761 0 .5.22386.5.5v5c0 .27614-.2239.5-.5.5h-5c-.2761 0-.5-.22386-.5-.5v-5c0-.27614.2239-.5.5-.5z" fill-rule="evenodd"/></g></svg>