<svg fill="none" height="24" viewBox="0 0 24 24" width="24" xmlns="http://www.w3.org/2000/svg"><g fill="#000"><path d="m5 10.75c0-2.62335 2.12665-4.75 4.75-4.75h1c.4142 0 .75.33579.75.75s-.3358.75-.75.75h-1c-1.79492 0-3.25 1.45507-3.25 3.25v.75c0 .2761.22386.5.5.5h3.5c.2761 0 .5.2239.5.5v4c0 .2761-.2239.5-.5.5h-5c-.27614 0-.5-.2239-.5-.5z"/><path d="m13 10.75c0-2.62335 2.1266-4.75 4.75-4.75h1c.4142 0 .75.33579.75.75s-.3358.75-.75.75h-1c-1.7949 0-3.25 1.45507-3.25 3.25v.75c0 .2761.2239.5.5.5h3.5c.2761 0 .5.2239.5.5v4c0 .2761-.2239.5-.5.5h-5c-.2761 0-.5-.2239-.5-.5z"/></g></svg>