<svg fill="none" height="24" viewBox="0 0 24 24" width="24" xmlns="http://www.w3.org/2000/svg" xmlns:xlink="http://www.w3.org/1999/xlink"><clipPath id="a"><path d="m0 0h24v24h-24z"/></clipPath><g clip-path="url(#a)" fill="#000"><path d="m20.0466 0c.4142 0 .75.335786.75.75v1.9c0 .33137.2686.6.6.6h1.8534c.4142 0 .75.33579.75.75s-.3358.75-.75.75h-1.8534c-.3314 0-.6.26863-.6.6v1.9c0 .41421-.3358.75-.75.75s-.75-.33579-.75-.75v-1.9c0-.33137-.2686-.6-.6-.6h-1.949c-.4143 0-.75-.33579-.75-.75s.3357-.75.75-.75h1.949c.3314 0 .6-.26863.6-.6v-1.900001c0-.414213.3358-.749999.75-.749999z"/><path d="m14.2815 2.94644c.1035-.32069-.0446-.70116-.3755-.76501-.617-.11907-1.2542-.18143-1.906-.18143-5.52285 0-10 4.47715-10 10 0 5.5228 4.47715 10 10 10 5.5228 0 10-4.4772 10-10 0-.5697-.0476-1.1282-.1391-1.6719-.0583-.34585-.4618-.49856-.7923-.38124-.0636.02258-.1283.04289-.194.06084-.3.0819-.5232.3714-.4755.6787.0664.4281.1009.8668.1009 1.3136 0 4.6944-3.8056 8.5-8.5 8.5-4.69442 0-8.5-3.8056-8.5-8.5 0-4.69442 3.80558-8.5 8.5-8.5.5194 0 1.0279.04659 1.5216.13581.3208.05798.6285-.18155.7058-.49826.0158-.06463.0338-.12836.0541-.19111z"/><g clip-rule="evenodd" fill-rule="evenodd"><path d="m5.89453 13.3219c.27326-.3137.70187-.481 1.14676-.411.89472.1409 2.58134.3359 5.06021.3359 2.4789 0 4.1655-.195 5.0602-.3359.4449-.07.8735.0973 1.1467.411.2828.3246.3931.8062.1856 1.2666-.6338 1.4063-2.4 4.1583-6.3925 4.1583-3.99254 0-5.75874-2.752-6.39253-4.1583-.20748-.4604-.09716-.942.18556-1.2666zm2.42199 1.2579c-.40964-.0392-.69319.3937-.43612.715.78957.987 2.10091 1.952 4.2211 1.952 2.1202 0 3.4315-.965 4.2211-1.952.257-.3213-.0265-.7542-.4361-.715-.9685.0927-2.2302.167-3.785.167s-2.81648-.0743-3.78498-.167z"/><path d="m7.09479 7.0389c.28138-.33765.7832-.38327 1.12085-.10189l2.72856 2.2738c.2574.2145.3529.56724.2388.88229-.114.315-.4132.5249-.7483.5249-1.26177 0-3.09973.4086-4.12567 1.05-.37268.233-.86368.1198-1.0967-.2529-.23301-.3726-.11979-.8636.25289-1.0967.70104-.43828 1.62033-.77017 2.54756-.98777.18666-.0438.24772-.28436.10043-.4071l-.91653-.76378c-.33765-.28137-.38327-.7832-.10189-1.12085z"/><path d="m16.9052 7.0389c-.2814-.33765-.7832-.38327-1.1208-.10189l-2.7286 2.2738c-.2574.2145-.3529.56724-.2388.88229.114.315.4132.5249.7483.5249 1.2618 0 3.0997.4086 4.1257 1.05.3726.233.8637.1198 1.0967-.2529.233-.3726.1198-.8636-.2529-1.0967-.7011-.43828-1.6203-.77017-2.5476-.98777-.1866-.0438-.2477-.28436-.1004-.4071l.9165-.76378c.3377-.28137.3833-.7832.1019-1.12085z"/></g></g></svg>