<svg fill="none" height="24" viewBox="0 0 24 24" width="24" xmlns="http://www.w3.org/2000/svg"><g clip-rule="evenodd" fill="#000" fill-rule="evenodd"><path d="m7.04129 12.9109c-.44489-.07-.8735.0973-1.14676.411-.28272.3246-.39304.8062-.18556 1.2666.63379 1.4063 2.39999 4.1583 6.39253 4.1583 3.9925 0 5.7587-2.752 6.3925-4.1583.2075-.4604.0972-.942-.1856-1.2666-.2732-.3137-.7018-.481-1.1467-.411-.8947.1409-2.5813.3359-5.0602.3359-2.47887 0-4.16549-.195-5.06021-.3359zm.83911 2.3839c-.25707-.3213.02648-.7542.43612-.715.9685.0927 2.23018.167 3.78498.167s2.8165-.0743 3.785-.167c.4096-.0392.6931.3937.4361.715-.7896.987-2.1009 1.952-4.2211 1.952-2.12019 0-3.43153-.965-4.2211-1.952z"/><path d="m22 12c0 5.5228-4.4772 10-10 10-5.52285 0-10-4.4772-10-10 0-5.52285 4.47715-10 10-10 5.5228 0 10 4.47715 10 10zm-1.5 0c0 4.6944-3.8056 8.5-8.5 8.5-4.69442 0-8.5-3.8056-8.5-8.5 0-4.69442 3.80558-8.5 8.5-8.5 4.6944 0 8.5 3.80558 8.5 8.5z"/><path d="m7.09479 7.5112c.28138-.33766.7832-.38328 1.12085-.1019l2.72856 2.2738c.2574.2145.3529.5672.2388.8823-.114.315-.4132.5249-.7483.5249-1.26177 0-3.09973.4086-4.12567 1.05-.37268.233-.86368.1198-1.0967-.2529-.23301-.3726-.11979-.8637.25289-1.0967.70104-.4383 1.62033-.7702 2.54756-.98778.18666-.0438.24772-.28436.10043-.4071l-.91653-.76377c-.33765-.28138-.38327-.7832-.10189-1.12085z"/><path d="m16.9052 7.5112c-.2814-.33766-.7832-.38328-1.1208-.1019l-2.7286 2.2738c-.2574.2145-.3529.5672-.2388.8823.114.315.4132.5249.7483.5249 1.2618 0 3.0997.4086 4.1257 1.05.3726.233.8637.1198 1.0967-.2529.233-.3726.1198-.8637-.2529-1.0967-.7011-.4383-1.6203-.7702-2.5476-.98778-.1866-.0438-.2477-.28436-.1004-.4071l.9165-.76377c.3377-.28138.3833-.7832.1019-1.12085z"/></g></svg>