<svg fill="none" height="44" viewBox="0 0 256 44" width="256" xmlns="http://www.w3.org/2000/svg" xmlns:xlink="http://www.w3.org/1999/xlink"><filter id="a" color-interpolation-filters="sRGB" filterUnits="userSpaceOnUse" height="48" width="48" x="104" y="2"><feFlood flood-opacity="0" result="BackgroundImageFix"/><feColorMatrix in="SourceAlpha" type="matrix" values="0 0 0 0 0 0 0 0 0 0 0 0 0 0 0 0 0 0 127 0"/><feOffset dy="4"/><feGaussianBlur stdDeviation="6"/><feColorMatrix type="matrix" values="0 0 0 0 0 0 0 0 0 0.133333 0 0 0 0 0.2 0 0 0 0.08 0"/><feBlend in2="BackgroundImageFix" mode="normal" result="effect1_dropShadow"/><feColorMatrix in="SourceAlpha" type="matrix" values="0 0 0 0 0 0 0 0 0 0 0 0 0 0 0 0 0 0 127 0"/><feOffset dy="2"/><feGaussianBlur stdDeviation="2"/><feColorMatrix type="matrix" values="0 0 0 0 0 0 0 0 0 0.133333 0 0 0 0 0.2 0 0 0 0.16 0"/><feBlend in2="effect1_dropShadow" mode="normal" result="effect2_dropShadow"/><feBlend in="SourceGraphic" in2="effect2_dropShadow" mode="normal" result="shape"/></filter><g filter="url(#a)"><rect fill="#4360df" height="24" rx="12" width="24" x="116" y="10"/></g><path clip-rule="evenodd" d="m122.47 25.53c-.293-.292-.293-.767 0-1.06l4.646-4.647c.488-.488 1.28-.488 1.768 0l4.646 4.647c.293.293.293.768 0 1.06-.293.293-.767.293-1.06 0l-4.116-4.116c-.196-.195-.512-.195-.708 0l-4.116 4.116c-.293.293-.767.293-1.06 0z" fill="#fff" fill-rule="evenodd" transform="matrix(-1 0 0 -1 256.000008 45.206749)"/></svg>