<svg fill="none" height="24" viewBox="0 0 24 24" width="24" xmlns="http://www.w3.org/2000/svg"><path clip-rule="evenodd" d="m11.6192 6.84322-6.61756-2.72489c-.54765-.2255-1.09216.32864-.85708.87225l7.15694 16.55052c.1205.2785.395.4589.6985.4589s.578-.1804.6984-.4589l7.157-16.55052c.2351-.54361-.3094-1.09775-.8571-.87225l-6.6176 2.72489c-.2439.10043-.5176.10043-.7615 0zm-.3692 1.67496c0-.12783-.0837-.23927-.2019-.28794l-3.56877-1.4695c-.41489-.17084-.82739.24897-.64931.66079l3.94048 9.11237c.1077.2491.4795.1722.4795-.0992zm1.5.00001c0-.12784.0837-.23928.2019-.28795l3.5687-1.4695c.4149-.17084.8274.24897.6493.66079l-3.9405 9.11237c-.1077.2491-.4794.1722-.4794-.0992z" fill="#000" fill-rule="evenodd"/></svg>