<svg fill="none" height="24" viewBox="0 0 24 24" width="24" xmlns="http://www.w3.org/2000/svg"><path d="m12 6.25c4.2802 0 7.75 3.46979 7.75 7.75 0 4.2802-3.4698 7.75-7.75 7.75-4.28021 0-7.75-3.4698-7.75-7.75 0-.4142.33579-.75.75-.75s.75.3358.75.75c0 3.4518 2.79822 6.25 6.25 6.25 3.4518 0 6.25-2.7982 6.25-6.25s-2.7982-6.25-6.25-6.25h-.9822c-.4455 0-.6686.53857-.3536.85355l1.8661 1.86615c.2929.2929.2929.7677 0 1.0606s-.7677.2929-1.0606 0l-4.00003-3.99997c-.29289-.29289-.29289-.76777 0-1.06066l4.00003-4c.2929-.29289.7677-.29289 1.0606 0s.2929.76777 0 1.06066l-1.8661 1.86612c-.315.31498-.0919.85355.3536.85355z" fill="#000"/></svg>