<svg fill="none" height="20" viewBox="0 0 16 20" width="16" xmlns="http://www.w3.org/2000/svg"><path d="m8 4.25c4.2802 0 7.75 3.46979 7.75 7.75 0 4.2802-3.4698 7.75-7.75 7.75-4.28021 0-7.75-3.4698-7.75-7.75 0-.4142.335787-.75.75-.75.41421 0 .75.3358.75.75 0 3.4518 2.79822 6.25 6.25 6.25 3.4518 0 6.25-2.7982 6.25-6.25 0-3.45178-2.7982-6.25-6.25-6.25h-.98223c-.44545 0-.66854.53857-.35356.85355l1.86612 1.86612c.29289.29289.29289.76777 0 1.06066s-.76777.29289-1.06066 0l-4-4c-.29289-.29289-.29289-.76777 0-1.06066l4-4.000001c.29289-.292892.76777-.292892 1.06066 0 .29289.292895.29289.767771 0 1.060661l-1.86612 1.86612c-.31498.31498-.09189.85355.35356.85355z" fill="#000"/></svg>