<svg fill="none" height="24" viewBox="0 0 24 24" width="24" xmlns="http://www.w3.org/2000/svg"><g fill="#000"><path clip-rule="evenodd" d="m12 13c2.7614 0 5-2.2386 5-5 0-2.76142-2.2386-5-5-5-2.76142 0-5 2.23858-5 5 0 2.7614 2.23858 5 5 5zm0-1.5c1.933 0 3.5-1.567 3.5-3.5s-1.567-3.5-3.5-3.5-3.5 1.567-3.5 3.5 1.567 3.5 3.5 3.5z" fill-rule="evenodd"/><path d="m12.9345 16.7839c-.0348.4176-.4057.7221-.8246.7168-.0367-.0005-.0733-.0007-.1101-.0007-2.54335 0-4.82585 1.1171-6.38356 2.8874-.3025.3438-.83852.3905-1.16232.0666-.26073-.2607-.29211-.6756-.05225-.9556 1.83407-2.1414 4.55765-3.4984 7.59813-3.4984.087 0 .1737.0011.2601.0033.409.0105.7086.3729.6746.7806z"/><path d="m16 16c-.4142 0-.75.3358-.75.75s.3358.75.75.75h5c.4142 0 .75-.3358.75-.75s-.3358-.75-.75-.75z"/></g></svg>