<svg fill="none" height="24" viewBox="0 0 25 24" width="25" xmlns="http://www.w3.org/2000/svg"><path d="m14.2903 6.93202-1.7109-5.66893c-.027-.08939-.1509-.09632-.1877-.0105l-2.1466 5.00878c-.0238.0557-.0914.07753-.1433.04636l-3.50333-2.10198c-.07961-.04777-.17568.02929-.14632.11737l1.40398 4.21192c.02158.06476-.02662.13163-.09487.13163h-6.41375c-.10038 0-.13818.13135-.05316.1847l5.82273 3.65373c.05503.0345.06304.1115.01628.1567l-4.384 4.2298c-.06918.0667-.01354.1831.08183.1712l5.7079-.7135c.06471-.0081.11972.0469.11163.1116l-.71021 5.6817c-.01223.0978.10958.1524.17451.0782l4.38188-5.0106c.0358-.041.0978-.0458.1395-.0109l4.2952 3.5931c.0658.0551.1658.0072.1641-.0786l-.0851-4.3575c-.0013-.0664.0613-.1156.1255-.0987l5.7362 1.5138c.099.0261.1686-.0956.096-.1677l-4.9823-4.9428c-.0455-.0451-.0375-.1207.0165-.1552l5.7097-3.65481c.0841-.05386.046-.18422-.0539-.18422h-5.6368c-.0638 0-.1113-.05894-.0978-.12128l1.4002-6.42906c.0215-.09886-.1006-.16351-.1703-.09012l-4.6951 4.94577c-.0528.05565-.1461.03351-.1682-.03996z" stroke="#ff2d55" stroke-width="1.5"/></svg>