<svg fill="none" height="24" viewBox="0 0 24 24" width="24" xmlns="http://www.w3.org/2000/svg"><g fill="#000"><path d="m16 12.7499c.4142 0 .75-.3358.75-.75s-.3358-.75-.75-.75h-7.99997c-.41421 0-.75.3358-.75.75s.33579.75.75.75z"/><path clip-rule="evenodd" d="m22 11.9999c0 5.5228-4.4771 10-10 10-5.52282 0-9.99997-4.4772-9.99997-10 0-5.52287 4.47715-10.00002 9.99997-10.00002 5.5229 0 10 4.47715 10 10.00002zm-1.5 0c0 4.6944-3.8055 8.5-8.5 8.5-4.69439 0-8.49997-3.8056-8.49997-8.5 0-4.69444 3.80558-8.50002 8.49997-8.50002 4.6945 0 8.5 3.80558 8.5 8.50002z" fill-rule="evenodd"/></g></svg>