<svg fill="none" height="16" viewBox="0 0 16 16" width="16" xmlns="http://www.w3.org/2000/svg"><g fill="#ff2d55"><path clip-rule="evenodd" d="m7.99984 8.66667c1.84095 0 3.33336-1.49239 3.33336-3.33334s-1.49241-3.33333-3.33336-3.33333-3.33334 1.49238-3.33334 3.33333 1.49239 3.33334 3.33334 3.33334zm0-1c1.28866 0 2.33336-1.04467 2.33336-2.33334 0-1.28866-1.0447-2.33333-2.33336-2.33333-1.28867 0-2.33334 1.04467-2.33334 2.33333 0 1.28867 1.04467 2.33334 2.33334 2.33334z" fill-rule="evenodd"/><path d="m8.62287 11.1893c-.0232.2784-.27047.4814-.54979.4778-.02441-.0003-.04886-.0004-.07335-.0004-1.6956 0-3.21726.7447-4.25573 1.9249-.20167.2292-.55901.2603-.77488.0444-.17382-.1738-.19474-.4504-.03483-.6371 1.22271-1.4276 3.03843-2.3322 5.06544-2.3322.05796 0 .11575.0007.17335.0022.27267.0069.47244.2486.44979.5204z"/><path d="m10.6665 10.6667c-.2761 0-.5.2238-.5.5 0 .2761.2239.5.5.5h3.3333c.2762 0 .5-.2239.5-.5 0-.2762-.2238-.5-.5-.5z"/></g></svg>