<svg fill="none" height="24" viewBox="0 0 24 24" width="24" xmlns="http://www.w3.org/2000/svg"><path d="m15.5303 12.4697c-.2929-.2929-.7677-.2929-1.0606 0s-.2929.7677 0 1.0606l1.8661 1.8661c.315.315.0919.8536-.3536.8536h-3.9822c-3.45178 0-6.25-2.7982-6.25-6.25 0-3.45178 2.79822-6.25 6.25-6.25.4142 0 .75-.33579.75-.75s-.3358-.75-.75-.75c-4.28021 0-7.75 3.46979-7.75 7.75 0 4.2802 3.46979 7.75 7.75 7.75h3.9822c.4455 0 .6686.5386.3536.8536l-1.8661 1.8661c-.2929.2929-.2929.7677 0 1.0606s.7677.2929 1.0606 0l4-4c.2929-.2929.2929-.7677 0-1.0606z" fill="#000"/></svg>