<svg fill="none" height="24" viewBox="0 0 24 24" width="24" xmlns="http://www.w3.org/2000/svg"><g fill="#000"><path d="m8.85365 18.7033c-.33142-.2485-.8036-.2536-1.09649.0393-.2929.2929-.29522.7716.02818 1.0304 1.15494.9243 2.62016 1.477 4.21446 1.477 3.7279 0 6.75-3.0221 6.75-6.75v-.4824c0-.4455.5386-.6686.8536-.3536l.8663.8663c.2929.2929.7677.2929 1.0606 0s.2929-.7677 0-1.0606l-3-3c-.2929-.2929-.7677-.2929-1.0606 0l-3 3c-.2929.2929-.2929.7677 0 1.0606s.7677.2929 1.0606 0l.8659-.8659c.315-.315.8536-.0919.8536.3536v.482c0 2.8995-2.3505 5.25-5.25 5.25-1.1802 0-2.26937-.3894-3.14615-1.0467z"/><path d="m6.53033 13.5303 3-3c.29289-.2929.29289-.76774 0-1.06063s-.76777-.29289-1.06066 0l-.86689.86693c-.29985.2998-.81254.0874-.81254-.3366 0-2.8995 2.35051-5.25 5.24996-5.25 1.1802 0 2.2694.3894 3.1462 1.04673.3314.24846.8036.25352 1.0965-.03937s.2952-.77152-.0282-1.03033c-1.1549-.9243-2.6202-1.47703-4.2145-1.47703-3.72788 0-6.74996 3.02208-6.74996 6.75v.0225c0 .4454-.53857.6685-.85355.3535l-.90636-.90633c-.29289-.29289-.76777-.29289-1.06066 0s-.29289.76773 0 1.06063l3 3c.29289.2929.76777.2929 1.06066 0z"/></g></svg>