<svg fill="none" height="16" viewBox="0 0 16 16" width="16" xmlns="http://www.w3.org/2000/svg"><path clip-rule="evenodd" d="m1.5 1.83398c0-.27614.22386-.5.5-.5h12c.2761 0 .5.22386.5.5 0 .27615-.2239.5-.5.5h-.758c-.1697 0-.3116.12773-.3363.29554-.3197 2.16436-1.425 3.95271-2.9035 4.81513-.20004.11668-.33553.32443-.33553.556 0 .23158.13549.43932.33553.556 1.4785.86242 2.5838 2.65075 2.9035 4.81515.0247.1678.1666.2955.3363.2955h.758c.2761 0 .5.2239.5.5 0 .2762-.2239.5-.5.5h-11-1c-.27614 0-.5-.2238-.5-.5 0-.2761.22386-.5.5-.5h.75803c.16964 0 .31153-.1277.33632-.2955.31969-2.1644 1.425-3.95273 2.90346-4.81515.20003-.11668.33552-.32442.33552-.556 0-.23157-.13549-.43932-.33552-.556-1.47846-.86242-2.58377-2.65077-2.90346-4.81513-.02479-.16781-.16668-.29554-.33632-.29554h-.75803c-.27614 0-.5-.22385-.5-.5zm10.3805 11.45932c.0352.1976-.1206.374-.3214.374h-7.1182c-.20076 0-.35657-.1764-.32138-.374.32315-1.8151 1.2655-3.2215 2.38215-3.87286.46462-.27102.83166-.7858.83166-1.41979s-.36704-1.14876-.83166-1.41978c-1.11665-.65137-2.05899-2.05774-2.38215-3.87286-.03519-.19766.12062-.37403.32138-.37403h7.1182c.2008 0 .3566.17637.3214.37403-.3232 1.81512-1.2655 3.22149-2.38217 3.87286-.46462.27102-.83166.78579-.83166 1.41978s.36704 1.14877.83166 1.41979c1.11667.65136 2.05897 2.05776 2.38217 3.87286z" fill="#939ba1" fill-rule="evenodd"/></svg>