<svg fill="none" height="24" viewBox="0 0 24 24" width="24" xmlns="http://www.w3.org/2000/svg"><path clip-rule="evenodd" d="m14.8504 15.9111c-.1795-.1796-.4641-.1942-.6734-.0504-1.0457.7187-2.3122 1.1393-3.677 1.1393-3.58985 0-6.5-2.9101-6.5-6.5 0-3.58985 2.91015-6.5 6.5-6.5 3.5899 0 6.5 2.91015 6.5 6.5 0 1.3648-.4206 2.6313-1.1393 3.677-.1438.2093-.1292.4939.0504.6734l4.6192 4.6194c.2929.2929.2929.7678 0 1.0607-.2929.2928-.7677.2928-1.0606-.0001zm.6496-5.4111c0 2.7614-2.2386 5-5 5-2.76142 0-5-2.2386-5-5 0-2.76142 2.23858-5 5-5 2.7614 0 5 2.23858 5 5z" fill="#000" fill-rule="evenodd"/></svg>