<svg fill="none" height="25" viewBox="0 0 24 25" width="24" xmlns="http://www.w3.org/2000/svg"><g fill="#000"><path d="m5.00003 4.5.31623-.94868c-.2662-.08874-.55743-.06155-.80261.07493-.24517.13648-.42172.36968-.48656.64268zm13.99997 0 .9703-.24202c-.0674-.27035-.2446-.50031-.4888-.63446s-.5334-.16032-.7977-.0722zm1 6-.9965.083zm-15.99997 0-.9955-.0948zm14.99997-6c-.9702.24202-.9703.24195-.9703.2419v-.00004c0-.00001 0 .00003 0 .00011.0001.00017.0002.00052.0003.00105.0003.00106.0007.00284.0013.00533.0013.00497.0032.01278.0057.02333.0052.0211.013.05316.023.09544.0202.08456.0496.20995.0858.37026.0725.32076.172.78052.2792 1.33226.2151 1.1072.4581 2.56831.5785 4.01336l1.9931-.166c-.1287-1.54459-.3858-3.08347-.6084-4.22886-.1116-.57456-.2154-1.05425-.2915-1.39135-.0381-.16863-.0693-.30179-.0912-.39353-.0109-.04587-.0195-.08141-.0255-.10587-.003-.01223-.0053-.02169-.0069-.02828-.0009-.0033-.0015-.00589-.002-.00775-.0002-.00092-.0004-.00167-.0005-.00223-.0001-.00029-.0001-.00052-.0002-.00071 0-.0001 0-.00021-.0001-.00025 0-.0001 0-.00019-.9703.24183zm-14.00447 6.0948c.1381-1.45074.38214-2.91745.59348-4.02775.10536-.55355.20193-1.01501.27194-1.33716.03499-.16101.06331-.28705.08273-.3722.00971-.04256.01719-.07489.02217-.09625.00248-.01068.00434-.01861.00554-.0237.0006-.00255.00103-.00439.0013-.0055.00013-.00056.00022-.00094.00027-.00113.00002-.0001.00003-.00015.00003-.00016 0 0 0 .00003 0 .00002-.00001.00004-.00002.0001-.97296-.23097s-.97296-.23099-.97298-.2309c-.00001.00004-.00003.00014-.00005.00023-.00004.00017-.0001.00039-.00016.00066-.00013.00054-.0003.00126-.00051.00216-.00043.00181-.00103.00434-.00179.00758-.00153.0065-.00372.01585-.00654.02797-.00565.02425-.01382.05958-.02424.10524-.02083.09133-.05064.22405-.08719.39222-.07307.3362-.17319.81478-.28229 1.38791-.21758 1.14308-.47355 2.67638-.61975 4.21213zm14.00797-.0118c.2273 2.7274-.6825 5.2318-2.104 7.0514-1.4402 1.8434-3.3021 2.8656-4.8995 2.8656v2c2.4026 0 4.7907-1.4778 6.4755-3.6344 1.7035-2.1804 2.7938-5.176 2.5211-8.4486zm-7.0035 9.917c-1.5998 0-3.47974-1.0247-4.92785-2.8678-1.42889-1.8186-2.33553-4.3178-2.07662-7.0374l-1.991-.1896c-.31229 3.2804.78107 6.2812 2.49498 8.4626 1.69469 2.1569 4.10034 3.6322 6.50049 3.6322zm-6.99997-16c-.31623.94868-.31603.94875-.31582.94882.00008.00003.0003.0001.00047.00016.00034.00011.00072.00024.00116.00038.00086.00029.00191.00063.00313.00104.00246.00081.00565.00186.00957.00313.00783.00256.01855.00603.03212.01036.02712.00866.06559.02074.11493.03575.09865.03003.24082.07181.42257.12137.36336.0991.8858.22958 1.53575.35957 1.29792.25958 3.11521.51942 5.19609.51942v-2c-1.9191 0-3.60177-.24016-4.80386-.48058-.60005-.12001-1.0776-.23953-1.40174-.32793-.162-.04419-.28546-.08053-.36649-.1052-.04051-.01232-.0704-.02173-.08917-.02772-.00939-.00299-.016-.00514-.01977-.00637-.00188-.00061-.00305-.001-.00351-.00115-.00023-.00007-.00028-.00009-.00014-.00005.00006.00003.00017.00006.00033.00012.00008.00002.00023.00007.00027.00008.00016.00006.00034.00012-.31589.9488zm6.99997 2c2.0809 0 3.8982-.25984 5.1961-.51942.65-.12999 1.1724-.26047 1.5358-.35957.1817-.04956.3239-.09134.4226-.12137.0493-.01501.0878-.02709.1149-.03575.0136-.00433.0243-.0078.0321-.01036.0039-.00127.0071-.00232.0096-.00313.0012-.00041.0023-.00075.0031-.00104.0005-.00014.0008-.00027.0012-.00038.0001-.00006.0004-.00013.0005-.00016.0002-.00007.0004-.00014-.3159-.94882-.3162-.94868-.316-.94874-.3159-.9488.0001-.00001.0002-.00006.0003-.00008.0002-.00006.0003-.00009.0003-.00012.0002-.00004.0001-.00002-.0001.00005-.0005.00015-.0016.00054-.0035.00115-.0038.00123-.0104.00338-.0198.00637-.0188.00599-.0486.0154-.0892.02772-.081.02467-.2044.06101-.3664.1052-.3242.0884-.8017.20792-1.4018.32793-1.2021.24042-2.8848.48058-4.8039.48058z"/><path d="m12 18.5c1.7553 0 3.0075-1.1318 3.8198-2.2601.4367-.6066-.3134-1.2473-.9936-.9376-.8372.3812-1.8317.6977-2.8262.6977s-1.989-.3165-2.82617-.6977c-.68019-.3097-1.4303.331-.99364.9376.8123 1.1283 2.06451 2.2601 3.81981 2.2601z"/><path d="m15.5002 9.5c-1.3008 0-2.1786.6346-2.6333 1.0782-.2479.2419-.2711.613-.1162.9227.1432.2864.4753.4245.7838.339.5276-.1463 1.3435-.3399 1.9657-.3399.5763 0 1.1526.3321 1.5375.6136.1798.1314.4448.0064.4151-.2143-.1177-.8757-.5272-2.3993-1.9526-2.3993z"/><path d="m8.50024 9.5c1.30085 0 2.17866.6346 2.63336 1.0782.2479.2419.2711.613.1162.9227-.1432.2864-.4753.4245-.7838.339-.52763-.1463-1.34349-.3399-1.96576-.3399-.5763 0-1.1526.3321-1.5375.6136-.17979.1314-.44471.0064-.41505-.2143.11769-.8757.52724-2.3993 1.95255-2.3993z"/></g></svg>