<svg fill="none" height="24" viewBox="0 0 24 24" width="24" xmlns="http://www.w3.org/2000/svg"><g fill="#000"><path d="m11.0157 16.1319c.1346.1172.2343.2773.2343.4558v1.4123c0 .4142.3358.75.75.75s.75-.3358.75-.75v-1.4123c0-.1785.0997-.3386.2343-.4558.316-.275.5157-.6801.5157-1.1319 0-.8284-.6716-1.5-1.5-1.5s-1.5.6716-1.5 1.5c0 .4518.1997.8569.5157 1.1319z"/><path clip-rule="evenodd" d="m7.50099 10.0308c.27403-.03408.49901-.25466.49901-.5308v-3.5c0-2.20914 1.79086-4 4-4 2.2091 0 4 1.79086 4 4v3.5c0 .27614.225.49672.499.5308 1.9736.2456 3.501 1.929 3.501 3.9692v4c0 2.2091-1.7909 4-4 4h-8c-2.20914 0-4-1.7909-4-4v-4c0-2.0402 1.52736-3.7236 3.50099-3.9692zm-2.00099 3.9692c0-1.3807 1.11929-2.5 2.5-2.5h8c1.3807 0 2.5 1.1193 2.5 2.5v4c0 1.3807-1.1193 2.5-2.5 2.5h-8c-1.38071 0-2.5-1.1193-2.5-2.5zm4.5-4c-.27614 0-.5-.22386-.5-.5v-3.5c0-1.38071 1.1193-2.5 2.5-2.5s2.5 1.11929 2.5 2.5v3.5c0 .27614-.2239.5-.5.5z" fill-rule="evenodd"/></g></svg>