<svg fill="none" height="24" viewBox="0 0 24 24" width="24" xmlns="http://www.w3.org/2000/svg"><g fill="#000"><path d="m3 6.26471c0-.42234.33579-.76471.75-.76471h6.75c.4142 0 .75.34237.75.76471 0 .42233-.3358.7647-.75.7647h-6.75c-.41421 0-.75-.34237-.75-.7647z"/><path d="m13 6.26471c0-.42234.3358-.76471.75-.76471h6.5c.4142 0 .75.34237.75.76471 0 .42233-.3358.7647-.75.7647h-6.5c-.4142 0-.75-.34237-.75-.7647z"/><path d="m16 10.0882c0-.4223.3358-.76467.75-.76467h3.5c.4142 0 .75.34237.75.76467 0 .4224-.3358.7647-.75.7647h-3.5c-.4142 0-.75-.3423-.75-.7647z"/><path d="m8 13.9118c0-.4224-.33579-.7647-.75-.7647h-3.5c-.41421 0-.75.3423-.75.7647 0 .4223.33579.7647.75.7647h3.5c.41421 0 .75-.3424.75-.7647z"/><path d="m3 10.0882c0-.4223.33579-.76467.75-.76467h9.75c.4142 0 .75.34237.75.76467 0 .4224-.3358.7647-.75.7647h-9.75c-.41421 0-.75-.3423-.75-.7647z"/><path d="m21 13.9118c0-.4224-.3358-.7647-.75-.7647h-9.75c-.4142 0-.75.3423-.75.7647 0 .4223.3358.7647.75.7647h9.75c.4142 0 .75-.3424.75-.7647z"/><path d="m3 17.7353c0-.4223.33579-.7647.75-.7647h6.75c.4142 0 .75.3424.75.7647s-.3358.7647-.75.7647h-6.75c-.41421 0-.75-.3424-.75-.7647z"/><path d="m13 17.7353c0-.4223.3358-.7647.75-.7647h6.5c.4142 0 .75.3424.75.7647s-.3358.7647-.75.7647h-6.5c-.4142 0-.75-.3424-.75-.7647z"/></g></svg>