<svg fill="none" height="18" viewBox="0 0 21 18" width="21" xmlns="http://www.w3.org/2000/svg"><g clip-rule="evenodd" fill="#000" fill-rule="evenodd"><path d="m4.25 1c0-.414214-.33579-.75-.75-.75s-.75.335786-.75.75v.67793c0 .23505-.1653.43474-.3876.5111-1.374552.47217-2.3624 1.77621-2.3624 3.31097s.987848 2.8388 2.3624 3.31097c.2223.07636.3876.27606.3876.5111v7.67793c0 .4142.33579.75.75.75s.75-.3358.75-.75v-7.67793c0-.23504.1653-.43474.3876-.5111 1.37455-.47217 2.3624-1.77621 2.3624-3.31097s-.98785-2.8388-2.3624-3.31097c-.2223-.07636-.3876-.27606-.3876-.5111zm-.75 6.5c1.10457 0 2-.89543 2-2s-.89543-2-2-2-2 .89543-2 2 .89543 2 2 2zm14.75-6.5c0-.414214-.3358-.75-.75-.75s-.75.335786-.75.75v.67793c0 .23505-.1653.43474-.3876.5111-1.3746.47217-2.3624 1.77621-2.3624 3.31097s.9878 2.8388 2.3624 3.31097c.2223.07636.3876.27606.3876.5111v7.67793c0 .4142.3358.75.75.75s.75-.3358.75-.75v-7.67793c0-.23504.1653-.43474.3876-.5111 1.3746-.47217 2.3624-1.77621 2.3624-3.31097s-.9878-2.8388-2.3624-3.31097c-.2223-.07636-.3876-.27606-.3876-.5111zm-.75 6.5c1.1046 0 2-.89543 2-2s-.8954-2-2-2-2 .89543-2 2 .8954 2 2 2z"/><path d="m10.5.25c.4142 0 .75.335786.75.75v6.67793c0 .23505.1653.43474.3876.5111 1.3746.47217 2.3624 1.77621 2.3624 3.31097 0 1.6493-1.1408 3.0321-2.6763 3.4025-.0441.0107-.0737.0521-.0737.0975v2c0 .4142-.3358.75-.75.75s-.75-.3358-.75-.75v-2c0-.0454-.02957-.0868-.0737-.0975-1.53554-.3704-2.6763-1.7532-2.6763-3.4025 0-1.53476.98785-2.8388 2.3624-3.31097.2223-.07636.3876-.27605.3876-.5111v-6.67793c0-.414214.3358-.75.75-.75zm2 11.25c0 1.1046-.8954 2-2 2-1.10457 0-2-.8954-2-2s.89543-2 2-2c1.1046 0 2 .8954 2 2z"/></g></svg>