<svg fill="none" height="24" viewBox="0 0 24 24" width="24" xmlns="http://www.w3.org/2000/svg"><g clip-rule="evenodd" fill="#000" fill-rule="evenodd"><path d="m15 12c0 1.6569-1.3431 3-3 3s-3-1.3431-3-3 1.3431-3 3-3 3 1.3431 3 3zm-1.5 0c0 .8284-.6716 1.5-1.5 1.5s-1.5-.6716-1.5-1.5.6716-1.5 1.5-1.5 1.5.6716 1.5 1.5z"/><path d="m12.2457 21.75h-.4914c-.7813 0-1.468-.518-1.6827-1.2692l-.44147-1.5453c-.08601-.301-.42435-.4499-.70437-.3099l-1.44568.7229c-.67373.3369-1.48743.2048-2.02006-.3278l-.4807-.4807c-.53263-.5326-.66467-1.3463-.32781-2.0201l.72285-1.4457c.14-.28-.00883-.6183-.30986-.7043l-1.54526-.4415c-.75128-.2147-1.26924-.9014-1.26924-1.6827v-.4914c0-.7813.51796-1.468 1.26924-1.6827l1.54526-.44147c.30103-.08601.44986-.42435.30986-.70437l-.72285-1.44568c-.33686-.67373-.20482-1.48743.32781-2.02006l.4807-.4807c.53263-.53263 1.34633-.66467 2.02006-.32781l1.44568.72285c.28002.14.61836-.00883.70437-.30986l.44147-1.54526c.2147-.75128.9014-1.26924 1.6827-1.26924h.4914c.7813 0 1.468.51796 1.6827 1.26924l.4415 1.54526c.086.30103.4243.44986.7043.30986l1.4457-.72285c.6738-.33686 1.4875-.20482 2.0201.32781l.4807.4807c.5326.53263.6647 1.34633.3278 2.02006l-.7229 1.44568c-.14.28002.0089.61836.3099.70437l1.5453.44147c.7512.2147 1.2692.9014 1.2692 1.6827v.4914c0 .7813-.518 1.468-1.2692 1.6827l-1.5453.4415c-.301.086-.4499.4243-.3099.7043l.7229 1.4457c.3369.6738.2048 1.4875-.3278 2.0201l-.4807.4807c-.5326.5326-1.3463.6647-2.0201.3278l-1.4457-.7229c-.28-.14-.6183.0089-.7043.3099l-.4415 1.5453c-.2147.7512-.9014 1.2692-1.6827 1.2692zm-.4914-1.5h.4914c.1116 0 .2097-.074.2404-.1813l.6881-2.4086c.154-.5387.6463-.9101 1.2066-.9101.1948 0 .387.0454.5612.1325l2.2487 1.1243c.0963.0482.2125.0293.2886-.0468l.4807-.4807c.0761-.0761.095-.1923.0468-.2886l-1.1243-2.2487c-.0871-.1742-.1325-.3664-.1325-.5612 0-.5603.3714-1.0526.9101-1.2066l2.4086-.6881c.1073-.0307.1813-.1288.1813-.2404v-.4914c0-.1116-.074-.2097-.1813-.2404l-2.4086-.6881c-.5387-.154-.9101-.6463-.9101-1.20662 0-.19481.0454-.38695.1325-.56119l1.1243-2.24873c.0482-.09625.0293-.21249-.0468-.28858l-.4807-.4807c-.0761-.07609-.1923-.09495-.2886-.04683l-2.2487 1.12437c-.1742.08712-.3664.13248-.5612.13248-.5603 0-1.0526-.37141-1.2066-.91012l-.6881-2.40856c-.0307-.10733-.1288-.18132-.2404-.18132h-.4914c-.1116 0-.2097.07399-.2404.18132l-.6881 2.40856c-.154.53871-.6463.91012-1.20662.91012-.19481 0-.38695-.04536-.56119-.13248l-2.24873-1.12437c-.09625-.04812-.21249-.02926-.28858.04683l-.4807.4807c-.07609.07609-.09495.19233-.04683.28858l1.12437 2.24873c.08712.17424.13248.36638.13248.56119 0 .56032-.37141 1.05262-.91012 1.20662l-2.40856.6881c-.10733.0307-.18132.1288-.18132.2404v.4914c0 .1116.07399.2097.18132.2404l2.40856.6881c.53871.154.91012.6463.91012 1.2066 0 .1948-.04536.387-.13248.5612l-1.12437 2.2487c-.04812.0963-.02926.2125.04683.2886l.4807.4807c.07609.0761.19233.095.28858.0468l2.24873-1.1243c.17424-.0871.36638-.1325.56119-.1325.56032 0 1.05262.3714 1.20662.9101l.6881 2.4086c.0307.1073.1288.1813.2404.1813z"/></g></svg>