<svg width="24" height="24" viewBox="0 0 24 24" fill="none" xmlns="http://www.w3.org/2000/svg">
<path d="M15.7666 2.48535C16.6387 2.81122 17.4633 3.25141 18.2178 3.79492L18.5361 4.03418L18.8047 4.24316L18.8057 4.58301L18.8174 7.85352C18.8175 7.87445 18.8229 7.89532 18.834 7.91309L18.8359 7.91602C18.8983 8.01666 18.9677 8.13118 19.0352 8.25586L19.0547 8.28125C19.0615 8.28826 19.0697 8.29362 19.0781 8.29883L21.9795 9.95215L22.2715 10.1191L22.3242 10.4502C22.4452 11.2062 22.4776 11.9727 22.4219 12.7344H24.2891L21.9883 14.042L19.0869 15.6924V15.6934C19.0693 15.7034 19.054 15.7177 19.0439 15.7354L19.041 15.7402C18.9844 15.8379 18.9163 15.956 18.8467 16.0684L18.8447 16.0723C18.8341 16.0891 18.8282 16.109 18.8281 16.1289V16.1309L18.8125 19.4062L18.8115 19.7441L18.5449 19.9531C17.709 20.6096 16.7777 21.1345 15.7832 21.5098L15.4795 21.625L15.1953 21.4668L12.2705 19.8369L12.2158 19.8223H11.8057C11.7843 19.8217 11.7629 19.8266 11.7441 19.8369L8.81934 21.4707L8.53613 21.6279L8.23242 21.5146C7.23608 21.1423 6.30258 20.62 5.46387 19.9658L5.19531 19.7568L5.19434 19.416L5.18262 16.1465V16.1455C5.18246 16.1248 5.17692 16.1045 5.16602 16.0869L5.16406 16.084C5.10149 15.9831 5.03147 15.8683 4.96387 15.7432V15.7441C4.95356 15.7258 4.93892 15.7101 4.9209 15.6992L2.02051 14.0469L1.72754 13.8809L1.6748 13.5488C1.51306 12.5257 1.51311 11.4831 1.6748 10.46L1.72754 10.1279L2.01953 9.96094L4.91602 8.30762L4.91699 8.30664C4.93457 8.29665 4.94898 8.28222 4.95898 8.26465L4.96191 8.25977C5.01861 8.16202 5.08753 8.04308 5.15723 7.93066L5.15918 7.92676C5.16965 7.91002 5.17567 7.89085 5.17578 7.87109V7.86914L5.19043 4.59375L5.19238 4.25586L5.45898 4.04688C6.29494 3.39041 7.22624 2.86549 8.2207 2.49023L8.52441 2.375L8.80859 2.5332L11.7295 4.16309C11.747 4.17279 11.7671 4.17822 11.7871 4.17773H12.1943C12.2049 4.17797 12.2154 4.17632 12.2256 4.17383L12.2549 4.16309L15.1807 2.5293L15.4639 2.37109L15.7666 2.48535Z" stroke="#131D2F" stroke-width="1.4" stroke-linejoin="round"/>
<circle cx="12" cy="12" r="3.7" stroke="#131D2F" stroke-width="1.4" stroke-linejoin="round"/>
</svg>
