<svg fill="none" height="24" viewBox="0 0 24 24" width="24" xmlns="http://www.w3.org/2000/svg"><path clip-rule="evenodd" d="m9.25363 13.0377c-.21-.1049-.31484-.3415-.28405-.5742.02007-.1517.03042-.3064.03042-.4635 0-.1575-.0104-.3126-.03056-.4646-.03091-.233.07417-.4699.28457-.5748l6.17129-3.07486c.2095-.10434.4607-.0466.628.11697.631.617 1.4944.99729 2.4467.99729 1.933 0 3.5-1.567 3.5-3.5s-1.567-3.5-3.5-3.5-3.5 1.567-3.5 3.5c0 .15999.0107.31747.0315.47176.0315.2334-.0736.47099-.2844.57602l-6.16639 3.07245c-.20981.10454-.46153.04637-.6288-.11785-.63147-.61999-1.49704-1.00238-2.45191-1.00238-1.933 0-3.5 1.567-3.5 3.5s1.567 3.5 3.5 3.5c.95527 0 1.82116-.3827 2.4527-1.0031.16744-.1645.41957-.2227.62953-.1178l6.16457 3.0803c.2101.105.3149.3419.2839.5747-.0202.1524-.0307.3079-.0307.4659 0 1.933 1.567 3.5 3.5 3.5s3.5-1.567 3.5-3.5-1.567-3.5-3.5-3.5c-.9544 0-1.8196.382-2.451 1.0014-.1674.1643-.4194.2224-.6292.1175zm-3.75363.9623c1.10457 0 2-.8954 2-2s-.89543-2-2-2-2 .8954-2 2 .89543 2 2 2zm13-6.5c1.1046 0 2-.89543 2-2s-.8954-2-2-2-2 .89543-2 2 .8954 2 2 2zm2 11c0 1.1046-.8954 2-2 2s-2-.8954-2-2 .8954-2 2-2 2 .8954 2 2z" fill="#000" fill-rule="evenodd"/></svg>