<svg fill="none" height="24" viewBox="0 0 24 24" width="24" xmlns="http://www.w3.org/2000/svg"><g clip-rule="evenodd" fill="#000" fill-rule="evenodd"><path d="m16 12c0 2.2091-1.7909 4-4 4-2.20914 0-4-1.7909-4-4 0-2.20914 1.79086-4 4-4 2.2091 0 4 1.79086 4 4zm-1.5 0c0 1.3807-1.1193 2.5-2.5 2.5s-2.5-1.1193-2.5-2.5 1.1193-2.5 2.5-2.5 2.5 1.1193 2.5 2.5z"/><path d="m2.30102 12.4833c1.03483 1.5838 4.66222 6.5167 9.69898 6.5167 5.0368 0 8.6642-4.9329 9.6991-6.5167.1936-.2965.1936-.6701 0-.9666-1.0349-1.58377-4.6623-6.5167-9.6991-6.5167-5.03676 0-8.66415 4.93293-9.69898 6.5167-.19368.2965-.19368.6701 0 .9666zm9.69898 5.0167c-2.0172 0-3.84676-.9912-5.37269-2.3022-.80303-.6899-1.48262-1.4353-2.0153-2.0926-.5236-.6462-.5236-1.5642 0-2.2104.53268-.6573 1.21227-1.40268 2.0153-2.09261 1.52592-1.31104 3.35549-2.30219 5.37269-2.30219 2.0173 0 3.8469.99116 5.3728 2.30219.803.68993 1.4826 1.43531 2.0153 2.09261.5236.6462.5236 1.5642 0 2.2104-.5327.6573-1.2123 1.4027-2.0153 2.0926-1.5259 1.311-3.3555 2.3022-5.3728 2.3022z"/></g></svg>