<svg fill="none" height="16" viewBox="0 0 16 16" width="16" xmlns="http://www.w3.org/2000/svg"><circle cx="8" cy="8" fill="#2946c4" r="8"/><path d="m6.30417 8.87295c-.62778-.31054-1.36061-.87191-1.83799-1.53833-.75048-1.04766-.97071-2.32837.06871-3.09936.77891-.57775 2.08135.14348 2.57659 1.2616.65993 1.48982.54972 3.78742-.67851 5.72944-.61746.9763-1.56903.8779-1.89808.3168-.45426-.7746.01656-2.46913 2.17779-3.54974 1.88636-.94317 2.41457-.4653 2.30551.04649-.03849.18062-.46379.91899.10307.91899.4886 0 .90904-.60484 1.30554-.91899.505-.40026 1.0306-.52392.9669.22948-.0238.2816.0981.88705.7852.5435" stroke="#fff" stroke-linecap="round" stroke-width=".833333"/></svg>