<svg fill="none" height="24" viewBox="0 0 24 24" width="24" xmlns="http://www.w3.org/2000/svg"><path d="m9.94122 13.5754c-1.12999-.559-2.4491-1.5694-3.30838-2.769-1.35086-1.88577-1.74728-4.19106.12368-5.57882 1.40204-1.03996 3.74638.25826 4.63788 2.27086 1.1879 2.68166.9895 6.81736-1.2213 10.31296-1.11146 1.7574-2.82428 1.5803-3.41658.5703-.81767-1.3943.0298-4.4445 3.91998-6.3895 3.3955-1.6978 4.3463-.8376 4.15.0836-.0693.3252-.8349 1.6542.1855 1.6542.8795 0 1.6363-1.0887 2.3499-1.6542.9091-.7204 1.8551-.943 1.7404.4131-.0428.5069.1766 1.5967 1.4134.9783" stroke="#fff" stroke-linecap="round" stroke-width="1.5"/></svg>