<svg width="16" height="16" viewBox="0 0 16 16" fill="none" xmlns="http://www.w3.org/2000/svg">
<circle cx="8" cy="8" r="8" fill="#2946C4"/>
<path d="M6.30417 8.87295C5.67639 8.56241 4.94356 8.00104 4.46618 7.33462C3.7157 6.28696 3.49547 5.00625 4.53489 4.23526C5.3138 3.65751 6.61624 4.37874 7.11148 5.49686C7.77141 6.98668 7.6612 9.28428 6.43297 11.2263C5.81551 12.2026 4.86394 12.1042 4.53489 11.5431C4.08063 10.7685 4.55145 9.07397 6.71268 7.99336C8.59904 7.05019 9.12725 7.52806 9.01819 8.03985C8.9797 8.22047 8.5544 8.95884 9.12126 8.95884C9.60986 8.95884 10.0303 8.354 10.4268 8.03985C10.9318 7.63959 11.4574 7.51593 11.3937 8.26933C11.3699 8.55093 11.4918 9.15638 12.1789 8.81283" stroke="white" stroke-width="0.833333" stroke-linecap="round"/>
</svg>
