<svg fill="none" height="24" viewBox="0 0 24 24" width="24" xmlns="http://www.w3.org/2000/svg"><g fill="#000"><path clip-rule="evenodd" d="m12 20.5c4.6944 0 8.5-3.8056 8.5-8.5 0-4.69442-3.8056-8.5-8.5-8.5-4.69442 0-8.5 3.80558-8.5 8.5 0 4.6944 3.80558 8.5 8.5 8.5zm0 1.5c5.5228 0 10-4.4772 10-10 0-5.52285-4.4772-10-10-10-5.52285 0-10 4.47715-10 10 0 5.5228 4.47715 10 10 10z" fill-rule="evenodd"/><path d="m10 9.5c0 1.1046-.67157 2-1.5 2s-1.5-.8954-1.5-2c0-1.10457.67157-2 1.5-2s1.5.89543 1.5 2z"/><path d="m17 9.5c0 1.1046-.6716 2-1.5 2s-1.5-.8954-1.5-2c0-1.10457.6716-2 1.5-2s1.5.89543 1.5 2z"/><path clip-rule="evenodd" d="m8.21503 14.583c-.40963-.0392-.69319.3937-.43612.715.78957.9869 2.10091 1.952 4.22109 1.952 2.1202 0 3.4315-.9651 4.2211-1.952.2571-.3213-.0265-.7542-.4361-.715-.9685.0926-2.2302.167-3.785.167s-2.81647-.0744-3.78497-.167zm-2.42199-1.2579c.27326-.3137.70187-.481 1.14676-.411.89472.1408 2.58134.3359 5.0602.3359 2.4789 0 4.1655-.1951 5.0602-.3359.4449-.07.8735.0973 1.1468.411.2827.3246.393.8061.1855 1.2665-.6338 1.4064-2.4 4.1584-6.3925 4.1584-3.99253 0-5.75873-2.752-6.39251-4.1584-.20749-.4604-.09717-.9419.18555-1.2665z" fill-rule="evenodd"/></g></svg>