<svg fill="none" height="20" viewBox="0 0 20 20" width="20" xmlns="http://www.w3.org/2000/svg"><g fill="#4360df"><path clip-rule="evenodd" d="m10 18.5c4.6944 0 8.5-3.8056 8.5-8.5 0-4.69442-3.8056-8.5-8.5-8.5-4.69442 0-8.5 3.80558-8.5 8.5 0 4.6944 3.80558 8.5 8.5 8.5zm0 1.5c5.5228 0 10-4.4772 10-10 0-5.52285-4.4772-10-10-10-5.52285 0-10 4.47715-10 10 0 5.5228 4.47715 10 10 10z" fill-rule="evenodd"/><path d="m7.56858 13.1746c-.33955-.2373-.81146-.2438-1.10436.0491-.29289.2929-.29546.7723.03286 1.0248.96987.7461 2.18447 1.1896 3.50268 1.1896 1.31824 0 2.53284-.4435 3.50264-1.1896.3284-.2525.3258-.7319.0329-1.0248s-.7648-.2864-1.1044-.0491c-.6889.4812-1.527.7635-2.43114.7635-.90411 0-1.74229-.2823-2.43118-.7635z"/><path d="m15 8.5c0 .82843-.6716 1.5-1.5 1.5s-1.5-.67157-1.5-1.5.6716-1.5 1.5-1.5 1.5.67157 1.5 1.5z"/><path d="m8 8.5c0 .82843-.67157 1.5-1.5 1.5s-1.5-.67157-1.5-1.5.67157-1.5 1.5-1.5 1.5.67157 1.5 1.5z"/></g></svg>