<svg fill="none" height="81" viewBox="0 0 81 81" width="81" xmlns="http://www.w3.org/2000/svg"><path d="m7.45117 12.354c0-2.76142 2.23858-5 5.00003-5h56.1165c2.7614 0 5 2.23858 5 5v56.0348c0 2.7614-2.2386 5-5 5h-56.1165c-2.76145 0-5.00003-2.2386-5.00003-5z" fill="#4360df"/><path clip-rule="evenodd" d="m40.5094 7.35449c-18.2577-.00053-33.05823 14.78141-33.05823 33.01691 0 18.2354 14.80053 33.0174 33.05823 33.0174 18.2578 0 33.0583-14.7826 33.0583-33.0174 0-18.2349-14.8005-33.01691-33.0583-33.01691z" fill="#fff" fill-rule="evenodd"/><path clip-rule="evenodd" d="m46.0856 40.0664c-3.9622.2281-6.4453-.6937-10.408-.4652-.9828.0552-1.9589.1974-2.9166.4252.5849-7.3192 5.7713-13.7218 12.8239-14.1288 4.328-.2494 8.6538 2.4194 8.8884 6.7519.2309 4.2583-3.02 7.1072-8.3872 7.4164zm-10.64 14.9711c-4.1461.2339-8.2896-2.2645-8.5146-6.3188-.2213-3.9854 2.8937-6.6516 8.0353-6.941 3.7953-.2137 6.1744.6494 9.9697.4352.9411-.0515 1.8759-.1846 2.794-.3978-.5593 6.8496-5.5277 12.8421-12.2844 13.2224zm5.0638-47.68296c-18.2577-.00054-33.05823 14.78146-33.05823 33.01686s14.80053 33.0174 33.05823 33.0174c18.2578 0 33.0583-14.7825 33.0583-33.0174s-14.8005-33.0174-33.0583-33.0174" fill="#4360df" fill-rule="evenodd"/><path d="m12.4512 14.354h56.1165v-13.999996h-56.1165zm54.1165-2v56.0348h14v-56.0348zm2 54.0348h-56.1165v14h56.1165zm-54.1165 2v-56.0348h-14.000028v56.0348zm-2-2c1.1045 0 2 .8954 2 2h-14.000028c0 6.6274 5.372588 12 12.000028 12zm54.1165 2c0-1.1046.8954-2 2-2v14c6.6274 0 12-5.3726 12-12zm2-54.0348c-1.1046 0-2-.8954-2-2h14c0-6.62742-5.3726-11.999996-12-11.999996zm-56.1165-13.999996c-6.62744 0-12.000028 5.372576-12.000028 11.999996h14.000028c0 1.1046-.8955 2-2 2z" fill="#fff"/></svg>