<svg fill="none" height="24" viewBox="0 0 24 24" width="24" xmlns="http://www.w3.org/2000/svg"><path clip-rule="evenodd" d="m8.25 9.01308c-.00017-.00932-.00017-.01862 0-.02789v-1.48146c0-1.81233 1.29609-3.36532 3.0792-3.68952l6.1789-1.12343c1.688-.30692 3.2419.98991 3.2419 2.70564v1.59044c.0002.00936.0002.01869 0 .02799v9.34555c0 1.3109-.9253 2.4395-2.2107 2.6966l-1.0464.2093c-1.6777.3355-3.2429-.9477-3.2429-2.6585 0-1.2924.9122-2.4051 2.1795-2.6585l1.8156-.3632c.5843-.1168 1.0049-.6299 1.0049-1.2257v-3.86264c0-.31195-.2825-.54774-.5894-.49193l-8.5 1.54545c-.23779.04323-.4106.25029-.4106.49192v8.3172c0 1.3109-.92526 2.4395-2.21068 2.6966l-1.04646.2093c-1.67764.3355-3.24286-.9477-3.24286-2.6585 0-1.2924.9122-2.4051 2.17946-2.6585l1.81568-.3632c.58428-.1168 1.00486-.6299 1.00486-1.2257zm9.5264-4.8465c.7673-.13951 1.4736.44996 1.4736 1.22984v.56036c0 .24164-.1728.4487-.4106.49193l-8.5014 1.54572c-.3062.05567-.588-.17953-.588-.4907 0-1.0874.7777-2.01919 1.8475-2.21371zm.7629 10.89042c.3385-.0677.7107.1627.7107.5079v.7955c0 .5958-.4206 1.1089-1.0049 1.2257l-1.0464.2093c-.7495.1499-1.4487-.4233-1.4487-1.1876 0-.5774.4075-1.0745.9736-1.1877zm-10.99998 2c.33852-.0677.71068.1627.71068.5079v.7955c0 .5958-.42057 1.1089-1.00485 1.2257l-1.04646.2093c-.74946.1499-1.44869-.4233-1.44869-1.1876 0-.5774.40751-1.0745.97363-1.1877z" fill="#000" fill-rule="evenodd"/></svg>