<svg fill="none" height="24" viewBox="0 0 24 24" width="24" xmlns="http://www.w3.org/2000/svg"><g fill="#000"><path d="m10.7977 17.9103c.2553.0385.4523.2525.4523.5107v2.579c0 .4142.3358.75.75.75s.75-.3358.75-.75v-2.5791c0-.2582.197-.4722.4523-.5107 1.469-.2214 2.8071-.8423 3.9001-1.7485.3189-.2643.3168-.7423.0239-1.0352s-.7654-.2889-1.0899-.0315c-1.1087.8796-2.5113 1.405-4.0366 1.405s-2.92785-.5254-4.03663-1.405c-.3245-.2574-.79699-.2614-1.08989.0315-.29289.2929-.29494.7709.02394 1.0352 1.09312.9063 2.43135 1.5272 3.90048 1.7486z"/><path clip-rule="evenodd" d="m12 2c-2.20914 0-4 1.79086-4 4v4c0 2.2091 1.79086 4 4 4 2.2091 0 4-1.7909 4-4v-4c0-2.20914-1.7909-4-4-4zm2.5 8v-4c0-1.38071-1.1193-2.5-2.5-2.5s-2.5 1.11929-2.5 2.5v4c0 1.3807 1.1193 2.5 2.5 2.5s2.5-1.1193 2.5-2.5z" fill-rule="evenodd"/></g></svg>