<svg fill="none" height="13" viewBox="0 0 14 13" width="14" xmlns="http://www.w3.org/2000/svg"><path clip-rule="evenodd" d="m8.85145 4.58361-1.54375-3.711619c-.11387-.273764-.50168-.273764-.61555 0l-1.54375 3.711619-4.007.32124c-.295556.02369-.415397.39253-.190218.58542l3.052918 2.61515-.93272 3.91018c-.06879.2884.24496.5163.49799.3618l3.43056-2.0954 3.43057 2.0954c.253.1545.5668-.0734.498-.3618l-.93275-3.91018 3.05295-2.61515c.2251-.19289.1053-.56173-.1902-.58542zm2.02505 1.45064c.1126-.09644.0527-.28086-.0951-.29271l-2.00986-.16113c-.37379-.02996-.6994-.26653-.84341-.61277l-.77432-1.86168c-.05693-.13688-.25084-.13688-.30777 0l-.77432 1.86168c-.14401.34624-.46962.58281-.84341.61277l-2.00983.16113c-.14778.01185-.2077.19627-.09511.29271l1.53128 1.31171c.28479.24395.40916.62673.32216.99148l-.46784 1.96126c-.03439.1442.12248.2582.249.1809l1.7207-1.05099c.32002-.19546.72249-.19546 1.04251 0l1.7207 1.05099c.12652.0773.28339-.0367.249-.1809l-.46784-1.96126c-.087-.36475.03737-.74753.32216-.99148z" fill="#ffca0f" fill-rule="evenodd"/></svg>