<svg fill="none" height="98" viewBox="0 0 256 98" width="256" xmlns="http://www.w3.org/2000/svg"><path clip-rule="evenodd" d="m49 0c-27.062 0-49 21.9384-49 49 0 27.062 21.938 49 49 49s49-21.938 49-49c0-27.0616-21.938-49-49-49z" fill="#4360df" fill-rule="evenodd"/><path clip-rule="evenodd" d="m50.7043 46.9554c2.4633.2568 4.9266.5134 7.9552.3445 8.2054-.458 13.1758-4.6739 12.8232-10.9758-.3596-6.4118-6.9722-10.362-13.5885-9.9926-10.7824.6014-18.7114 10.0779-19.6044 20.9091 1.4644-.3434 3.0056-.5485 4.4591-.6295 3.0287-.1689 5.492.0877 7.9554.3443zm-21.1378 14.0173c.3403 5.8775 6.605 9.4986 12.8733 9.1599 10.2148-.5514 17.7267-9.2382 18.5724-19.1668-1.3872.3148-2.8472.503-4.2243.5772-2.8692.1548-5.2031-.0803-7.537-.3157-2.3336-.2352-4.6675-.4704-7.5366-.3155-7.7732.4197-12.4824 4.2841-12.1478 10.0609z" fill="#fff" fill-rule="evenodd"/><g fill="#000"><path d="m117.204 57.2625h7.091c0 1.2024.338 2.0655 1.016 2.5898.677.524 1.547.786 2.61.786.878 0 1.594-.1618 2.148-.4854.57-.3392.855-.8864.855-1.6418 0-.4471-.124-.8093-.37-1.0867-.231-.2929-.593-.5472-1.085-.7631-.493-.2312-1.124-.4624-1.895-.6937-.769-.2312-1.693-.5241-2.771-.8785-.97-.3083-1.887-.6244-2.749-.9482-.847-.339-1.594-.7552-2.24-1.2485-.647-.4932-1.155-1.0944-1.525-1.8035-.354-.7091-.531-1.5878-.531-2.6359 0-1.2025.239-2.2429.716-3.1216s1.147-1.6032 2.01-2.1735c.862-.5704 1.893-.9943 3.095-1.2718 1.201-.2929 2.525-.4393 3.972-.4393 1.771 0 3.296.2004 4.574.6012s2.325.948 3.141 1.6416c.816.6939 1.417 1.5108 1.802 2.4511.4.9402.6 1.9499.6 3.0291h-7.137c0-.9405-.246-1.6727-.739-2.1967-.477-.5241-1.209-.7861-2.194-.7861-.755 0-1.402.1696-1.941.5086-.538.3238-.808.8169-.808 1.4799 0 .4469.123.8092.37 1.0867.261.262.639.5009 1.131.7168.493.2157 1.101.4394 1.825.6705.724.2159 1.555.4779 2.495.7861 1.016.2776 1.963.5858 2.841.925.877.3392 1.647.7554 2.31 1.2486.677.4779 1.208 1.0867 1.593 1.8266.4.7246.601 1.6494.601 2.7747 0 1.3257-.277 2.4587-.832 3.399-.554.925-1.301 1.6802-2.24 2.266-.924.5858-2.002 1.0019-3.234 1.2485-1.232.2621-2.525.3933-3.88.3933-3.373 0-5.99-.7014-7.854-2.1043-1.848-1.418-2.771-3.4683-2.771-6.1505z"/><path d="m139.816 47.4588v-5.3876h3.581v-6.7748h7.206v6.7748h5.197v5.3876h-5.197v8.1621c0 .8479.077 1.5261.231 2.0347.154.4934.37.8864.647 1.1793.292.2775.639.4625 1.039.5549.416.077.878.1156 1.386.1156.308 0 .701-.0077 1.178-.0231.477-.0307.893-.077 1.247-.1388v5.5495c-.538.0924-1.216.1773-2.032.2543-.801.0771-1.748.1156-2.841.1156-.847 0-1.74-.0616-2.68-.1849-.939-.1233-1.809-.4471-2.61-.9711-.8-.5243-1.462-1.3258-1.986-2.4048-.524-1.0945-.785-2.5897-.785-4.4858v-9.7575z"/><path clip-rule="evenodd" d="m159.218 48.7076c-.539 1.4643-.808 3.0521-.808 4.7632 0 1.711.269 3.2988.808 4.7631.554 1.4645 1.317 2.7285 2.287 3.7921.985 1.0637 2.133 1.9038 3.441 2.5203 1.325.6167 2.741.925 4.25.925 1.756 0 3.265-.3699 4.528-1.1099 1.262-.7399 2.178-1.634 2.749-2.6822v3.214h7.229v-22.8217h-7.229v3.2603c-.633-1.1099-1.579-2.0272-2.842-2.7517-1.247-.7245-2.725-1.0867-4.435-1.0867-1.524 0-2.941.3083-4.25.9248-1.308.6167-2.456 1.4568-3.441 2.5205-.97 1.0481-1.733 2.3044-2.287 3.7689zm6.768 7.0292c-.262-.7246-.393-1.4799-.393-2.266s.131-1.5261.393-2.2197c.277-.6937.646-1.3103 1.108-1.8498.478-.5395 1.047-.9634 1.709-1.2718.663-.3083 1.402-.4625 2.218-.4625.832 0 1.578.1542 2.24.4625.663.3084 1.225.7323 1.687 1.2718.477.5395.847 1.1561 1.108 1.8498.277.6936.417 1.4336.417 2.2197 0 .8015-.14 1.5569-.417 2.266-.261.7091-.631 1.3257-1.108 1.8498-.462.5086-1.032.9248-1.71 1.2486-.662.3083-1.401.4625-2.217.4625s-1.555-.1542-2.218-.4625c-.662-.3238-1.231-.74-1.709-1.2486-.462-.5241-.831-1.1407-1.108-1.8498z" fill-rule="evenodd"/><path d="m187.583 47.4588v-5.3876h3.579v-6.7748h7.208v6.7748h5.197v5.3876h-5.197v8.1621c0 .8479.077 1.5261.23 2.0347.154.4934.369.8864.648 1.1793.293.2775.638.4625 1.039.5549.415.077.878.1156 1.386.1156.308 0 .701-.0077 1.177-.0231.478-.0307.894-.077 1.248-.1388v5.5495c-.538.0924-1.216.1773-2.033.2543-.801.0771-1.748.1156-2.842.1156-.846 0-1.739-.0616-2.678-.1849-.94-.1233-1.81-.4471-2.611-.9711-.801-.5243-1.463-1.3258-1.985-2.4048-.524-1.0945-.787-2.5897-.787-4.4858v-9.7575z"/><path d="m207.679 55.6212v-13.5497h7.183v11.6999c0 1.6339.293 2.9674.878 4.0003.585 1.0172 1.631 1.526 3.142 1.526 1.508 0 2.617-.5165 3.325-1.5492.723-1.0483 1.086-2.4587 1.086-4.2314v-11.4456h7.229v22.8218h-7.229v-3.2603c-.632 1.2024-1.594 2.1427-2.887 2.8209-1.295.6782-2.842 1.0174-4.643 1.0174-1.572 0-2.865-.2466-3.881-.7399-1-.4932-1.817-1.1176-2.447-1.873-.726-.8785-1.202-1.8959-1.433-3.0521-.216-1.1561-.323-2.5512-.323-4.1851z"/><path d="m235.188 57.2625h7.092c0 1.2024.338 2.0655 1.016 2.5898.676.524 1.547.786 2.609.786.877 0 1.594-.1618 2.149-.4854.57-.3392.854-.8864.854-1.6418 0-.4471-.123-.8093-.37-1.0867-.23-.2929-.592-.5472-1.085-.7631-.492-.2312-1.124-.4624-1.894-.6937-.77-.2312-1.694-.5241-2.771-.8785-.971-.3083-1.887-.6244-2.749-.9482-.848-.339-1.595-.7552-2.241-1.2485-.646-.4932-1.155-1.0944-1.524-1.8035-.354-.7091-.531-1.5878-.531-2.6359 0-1.2025.238-2.2429.715-3.1216.478-.8787 1.147-1.6032 2.009-2.1735.864-.5704 1.894-.9943 3.096-1.2718 1.2-.2929 2.525-.4393 3.974-.4393 1.769 0 3.293.2004 4.572.6012 1.278.4008 2.325.948 3.142 1.6416.816.6939 1.415 1.5108 1.801 2.4511.401.9402.601 1.9499.601 3.0291h-7.138c0-.9405-.245-1.6727-.739-2.1967-.477-.5241-1.209-.7861-2.194-.7861-.755 0-1.401.1696-1.941.5086-.538.3238-.808.8169-.808 1.4799 0 .4469.123.8092.37 1.0867.261.262.639.5009 1.132.7168.492.2157 1.1.4394 1.824.6705.725.2159 1.555.4779 2.494.7861 1.017.2776 1.964.5858 2.842.925s1.647.7554 2.309 1.2486c.678.4779 1.209 1.0867 1.595 1.8266.399.7246.601 1.6494.601 2.7747 0 1.3257-.279 2.4587-.833 3.399-.553.925-1.301 1.6802-2.24 2.266-.924.5858-2.001 1.0019-3.233 1.2485-1.233.2621-2.526.3933-3.881.3933-3.372 0-5.99-.7014-7.854-2.1043-1.846-1.418-2.771-3.4683-2.771-6.1505z"/></g></svg>