<svg fill="none" height="24" viewBox="0 0 24 24" width="24" xmlns="http://www.w3.org/2000/svg"><g fill="#000"><path d="m12.0604 11.7829c.5516.0594 1.1032.1188 1.7813.0798 1.8377-.106 2.9509-1.0828 2.8718-2.54258-.0803-1.48521-1.5614-2.40011-3.0432-2.31461-2.4147.13952-4.19039 2.33438-4.39065 4.84339.32791-.078.66208-.1268.99855-.1457.6786-.0392 1.2304.0203 1.7822.0797z"/><path d="m7.28357 14.8287c.07704 1.3898 1.49569 2.2463 2.91523 2.1661 2.3134-.1303 4.0144-2.1846 4.2059-4.5327-.3143.0731-.6344.1187-.9565.1364-.6499.0367-1.1785-.0189-1.7071-.0746-.5284-.0556-1.0568-.1112-1.7064-.0746-1.76039.0992-2.82689 1.0132-2.75113 2.3794z"/><path clip-rule="evenodd" d="m22 12c0 5.5228-4.4772 10-10 10-5.52285 0-10-4.4772-10-10 0-5.52285 4.47715-10 10-10 5.5228 0 10 4.47715 10 10zm-1.5 0c0 4.6944-3.8056 8.5-8.5 8.5-4.69442 0-8.5-3.8056-8.5-8.5 0-4.69442 3.80558-8.5 8.5-8.5 4.6944 0 8.5 3.80558 8.5 8.5z" fill-rule="evenodd"/></g></svg>