<svg fill="none" height="24" viewBox="0 0 24 24" width="24" xmlns="http://www.w3.org/2000/svg"><path clip-rule="evenodd" d="m12 22c5.5228 0 10-4.4772 10-10 0-5.52285-4.4772-10-10-10-5.52285 0-10 4.47715-10 10 0 5.5228 4.47715 10 10 10zm0-1.5c1.3807 0 2.5-1.1193 2.5-2.5s-1.1193-2.5-2.5-2.5-2.5 1.1193-2.5 2.5 1.1193 2.5 2.5 2.5zm8.5-8.5c0 1.8106-.5661 3.4889-1.5309 4.8677-.1887.2696-.6108.0284-.557-.2962.0578-.3486.0879-.7065.0879-1.0715 0-3.5899-2.9101-6.5-6.5-6.5-3.58985 0-6.5 2.9101-6.5 6.5 0 .365.03008.7229.0879 1.0715.05383.3245-.36835.5657-.55696.2962-.96485-1.3788-1.53094-3.0571-1.53094-4.8677 0-4.69442 3.80558-8.5 8.5-8.5 4.6944 0 8.5 3.80558 8.5 8.5zm-4.5 6c0 .1504.1963.2238.2745.0954.4604-.7566.7255-1.645.7255-2.5954 0-2.7614-2.2386-5-5-5-2.76142 0-5 2.2386-5 5 0 .9504.26515 1.8388.7255 2.5954.07817.1284.2745.055.2745-.0954 0-2.2091 1.79086-4 4-4 2.2091 0 4 1.7909 4 4z" fill="#000" fill-rule="evenodd"/></svg>