<svg fill="none" height="32" viewBox="0 0 32 32" width="32" xmlns="http://www.w3.org/2000/svg" xmlns:xlink="http://www.w3.org/1999/xlink"><clipPath id="a"><path d="m2 2h28v28h-28z"/></clipPath><g clip-path="url(#a)"><path clip-rule="evenodd" d="m2 16c0-10.5 3.5-14 14-14s14 3.5 14 14-3.5 14-14 14-14-3.5-14-14zm10.8076-.7547c.228-2.8552 2.2781-5.37912 5.0548-5.53786 1.7049-.09723 3.4078.94386 3.4998 2.63436.0746 1.3605-.7705 2.3533-2.2395 2.7342-.347.091-.7026.1464-1.0611.1654-.7806.044-1.4153-.0236-2.05-.0912-.634-.0675-1.268-.135-2.0476-.0914-.36.0183-.7172.0721-1.0664.1608-.014.0043-.0295.0086-.045.0128l-.0001.0001c-.0155.0043-.0309.0086-.0449.0128zm6.3918 1.5092c-.228 2.8553-2.2781 5.3792-5.0548 5.5379-1.7049.0973-3.4078-.9438-3.4998-2.6343-.0713-1.3605.7705-2.3533 2.2395-2.7336.347-.091.7026-.1464 1.061-.1653.7797-.044 1.4137.0233 2.0476.0907.6348.0674 1.2694.1348 2.0501.0905.36-.0183.7172-.0721 1.0664-.1607l.0331-.0091.0001-.0001c.0193-.0052.0392-.0106.0568-.016z" fill="#fff" fill-rule="evenodd"/></g><circle cx="25" cy="25" fill="#eb2222" r="4.776"/></svg>