<svg fill="none" height="14" viewBox="0 0 12 14" width="12" xmlns="http://www.w3.org/2000/svg"><path clip-rule="evenodd" d="m8.3435 6.82275c-1.72489.0994-2.80587-.3024-4.53099-.20276-.42786.02402-.85275.08603-1.2697.1853.25464-3.19024 2.51247-5.980995 5.58273-6.158385 1.88416-.108716 3.76726 1.054565 3.86946 2.943005.1005 1.85608-1.315 3.09805-3.6515 3.23284zm-4.63196 6.52555c-1.80497.1019-3.608772-.9871-3.70672714-2.7543-.09632986-1.73708 1.25971714-2.89919 3.49804714-3.02537 1.65223-.09312 2.68796.28308 4.34019.18973.40967-.02246.81663-.08049 1.21631-.17343-.2435 2.98557-2.40639 5.59757-5.34782 5.76337z" fill="#fff" fill-rule="evenodd"/></svg>