<svg fill="none" height="16" viewBox="0 0 16 16" width="16" xmlns="http://www.w3.org/2000/svg" xmlns:xlink="http://www.w3.org/1999/xlink"><filter id="a" color-interpolation-filters="sRGB" filterUnits="userSpaceOnUse" height="1922.04" width="1921.2" x="-952.598" y="-697.68"><feFlood flood-opacity="0" result="BackgroundImageFix"/><feColorMatrix in="SourceAlpha" result="hardAlpha" type="matrix" values="0 0 0 0 0 0 0 0 0 0 0 0 0 0 0 0 0 0 127 0"/><feOffset dy="255.342"/><feGaussianBlur stdDeviation="478.766"/><feColorMatrix type="matrix" values="0 0 0 0 0.0352941 0 0 0 0 0.0627451 0 0 0 0 0.109804 0 0 0 0.12 0"/><feBlend in2="BackgroundImageFix" mode="normal" result="effect1_dropShadow_520_8"/><feBlend in="SourceGraphic" in2="effect1_dropShadow_520_8" mode="normal" result="shape"/></filter><clipPath id="b"><path d="m0 0h16v16h-16z"/></clipPath><g clip-path="url(#b)"><path d="m.5 7.99981c0-2.9723.50183-4.79473 1.60355-5.89645s2.92415-1.603551 5.89645-1.603551 4.7947.501831 5.8964 1.603551c1.1018 1.10172 1.6036 2.92415 1.6036 5.89645 0 2.97229-.5018 4.79469-1.6036 5.89649-1.1017 1.1017-2.9241 1.6035-5.8964 1.6035s-4.79473-.5018-5.89645-1.6035c-1.10172-1.1018-1.60355-2.9242-1.60355-5.89649z" fill="#fff" stroke="#82878a"/><g clip-rule="evenodd" fill="#82878a" fill-rule="evenodd" filter="url(#a)"><path d="m9.82589 8.32108c-.13025 1.63158-1.30177 3.07382-2.88843 3.16452-.97423.0556-1.94732-.5393-1.99988-1.50535-.04075-.77743.44027-1.34472 1.27968-1.56204.19832-.05199.40149-.08365.60633-.09449.89158-.05026 1.44992.15421 2.34151.10356.2057-.01042.40983-.04119.60937-.09184.016-.00453.03542-.00945.05142-.01436z"/><path d="m6.17682 7.6789c.13025-1.63158 1.30177-3.07381 2.88843-3.16452.97425-.05555 1.94735.53933 1.99985 1.50535.0427.77743-.4402 1.34473-1.27965 1.56242-.19832.05199-.40149.08365-.60633.09449-.89159.05026-1.44992-.1542-2.34151-.10432-.2057.01043-.40984.04119-.60938.09185-.01599.00491-.03542.00982-.05141.01473z"/></g></g></svg>