<svg fill="none" height="24" viewBox="0 0 24 24" width="24" xmlns="http://www.w3.org/2000/svg"><g fill="#000"><path d="m9.56858 15.4864c-.33955-.2372-.81146-.2437-1.10436.0492-.29289.2929-.29546.7723.03286 1.0248.96987.7461 2.18452 1.1896 3.50272 1.1896s2.5328-.4435 3.5026-1.1896c.3284-.2525.3258-.7319.0329-1.0248s-.7648-.2864-1.1044-.0492c-.6889.4813-1.527.7636-2.4311.7636-.9042 0-1.7423-.2823-2.43122-.7636z"/><path clip-rule="evenodd" d="m21.8645 13.65c.0756-.4553.0314-.9064-.1043-1.3325-.1764-.5533-.5072-1.0645-.931-1.4883l-7.6584-7.65839c-.4238-.42379-.935-.75464-1.4883-.93097-.0533-.01698-.1069-.03252-.1609-.04657-.3781-.09839-.7732-.12393-1.1716-.05779-.061.01013-.1218.02081-.1825.03204-4.64766.86073-8.1675 4.93555-8.1675 9.83248 0 5.5228 4.47715 10 10 10 4.8969 0 8.9717-3.5198 9.8325-8.1675.0112-.0607.0219-.1215.032-.1825zm-18.3645-1.65c0-3.91363 2.64622-7.21172 6.24701-8.19858.12873-.03528.25299.06511.25299.19858 0 5.52285 4.4772 10 10 10 .1335 0 .2339.1243.1986.253-.9869 3.6008-4.285 6.247-8.1986 6.247-4.69442 0-8.5-3.8056-8.5-8.5zm16.5.5c.1011 0 .1641-.1064.1094-.1914-.0909-.1412-.204-.2819-.3409-.4188l-7.6584-7.65833c-.1368-.13687-.2775-.25-.4187-.34083-.085-.0547-.1914.00828-.1914.10936 0 4.69442 3.8056 8.5 8.5 8.5z" fill-rule="evenodd"/></g></svg>