<svg fill="none" height="56" viewBox="0 0 56 56" width="56" xmlns="http://www.w3.org/2000/svg"><path clip-rule="evenodd" d="m28 49.875c10.4868 0 19.25-7.3792 21.3805-17.2284.3814-1.7631-1.3448-3.123-3.1419-2.9665-.5318.0463-1.07.0699-1.6136.0699-10.1482 0-18.375-8.2268-18.375-18.375 0-.5436.0236-1.0818.0699-1.61363.1565-1.79711-1.2034-3.52323-2.9665-3.14186-9.8492 2.13046-17.2284 10.89369-17.2284 21.38049 0 12.0812 9.7938 21.875 21.875 21.875zm16.625-21.875c1.4493 0 2.8544-.1853 4.1933-.5331.434-.1128.6426-.5939.4095-.9769-.5034-.827-1.2548-1.8116-2.2127-2.9292-1.9158-2.2351-4.4875-4.8083-7.1275-7.4484-2.6401-2.64-5.2133-5.2117-7.4484-7.12745-1.1176-.95796-2.1022-1.70939-2.9292-2.21276-.383-.23314-.8641-.02447-.9769.40951-.3478 1.33889-.5331 2.74396-.5331 4.1933 0 9.1817 7.4433 16.625 16.625 16.625zm-16.625 23.625c13.0477 0 23.625-10.5773 23.625-23.625 0-2.625-5.25-7.875-10.5-13.125s-10.5-10.5-13.125-10.5c-13.0477 0-23.625 10.5773-23.625 23.625s10.5773 23.625 23.625 23.625zm-8.1422-9.8706c2.0797-2.0083 4.9566-3.2544 8.1422-3.2544s6.0625 1.2461 8.1422 3.2544c.3476.3357.9015.326 1.2372-.0216s.326-.9015-.0216-1.2372c-2.399-2.3167-5.7092-3.7456-9.3578-3.7456s-6.9588 1.4289-9.3578 3.7456c-.3476.3357-.3573.8896-.0216 1.2372s.8896.3573 1.2372.0216z" fill="#939ba1" fill-rule="evenodd"/></svg>