<svg fill="none" height="20" viewBox="0 0 20 20" width="20" xmlns="http://www.w3.org/2000/svg"><path clip-rule="evenodd" d="m9.16648 2.97119c.82808-.14275 1.68712-.07 2.47132.21151.7842.28154 1.4678.76294 1.9554 1.39537.4886.63382.7568 1.38969.7568 2.17195h-1.2c0-.50331-.1717-1.00415-.5072-1.43925-.3365-.43649-.8243-.78821-1.4105-.99864-.5862-.21046-1.23518-.26643-1.86196-.15838-.62681.10806-1.19253.37329-1.62903.75159-.4357.3776-.72036.84773-.83446 1.34486-.11379.49581-.05654 1.01093.16995 1.48481.22734.47567.61937.89629 1.14049 1.19807.5215.30199 1.14213.46694 1.78271.46694h5v1.19998h-1.8425c.3537.3302.6428.7174.8484 1.1476.3412.7138.4324 1.5056.2568 2.2707-.1752.7637-.6049 1.4518-1.2181 1.9832-.6124.5308-1.383.8846-2.2111 1.0274-.8281.1427-1.6871.07-2.47129-.2116-.78426-.2815-1.4678-.7629-1.95539-1.3953-.48866-.6338-.75682-1.3897-.75682-2.172h1.2c0 .5033.17171 1.0042.50716 1.4393.33652.4365.82431.7882 1.4105.9986.58626.2105 1.23524.2664 1.86204.1584.6268-.1081 1.1925-.3733 1.629-.7516.4357-.3776.7204-.8477.8344-1.3449.1138-.4958.0566-1.0109-.1699-1.4848-.2273-.4756-.6194-.8963-1.1405-1.198-.5215-.302-1.1421-.467-1.7827-.467h-5v-1.19998h1.84255c-.35373-.33014-.64286-.7174-.84845-1.14754-.34117-.71384-.43243-1.50565-.25684-2.27072.17529-.76374.60493-1.45181 1.21813-1.98325.61239-.53073 1.38304-.88457 2.21109-1.02732z" fill="#09101c" fill-rule="evenodd"/></svg>