<svg fill="none" height="24" viewBox="0 0 24 24" width="24" xmlns="http://www.w3.org/2000/svg"><g fill="#000"><path d="m13.9509 21.8079c-1.9398.3858-3.9505.1878-5.77777-.5691-1.82726-.7569-3.38905-2.0386-4.48786-3.6831-.23013-.3444-.13749-.8102.20692-1.0403s.81016-.1375 1.04028.2069c.93399 1.3979 2.26151 2.4873 3.81468 3.1307 1.55315.6433 3.26225.8116 4.91105.4837 1.6489-.328 3.1634-1.1375 4.3522-2.3263 1.1887-1.1887 1.9983-2.7033 2.3262-4.3521.328-1.6489.1597-3.3579-.4837-4.91111-.6433-1.55317-1.7328-2.88069-3.1306-3.81468s-3.0412-1.43251-4.7223-1.43251c-.4143 0-.75-.33579-.75-.75s.3357-.75.75-.75c1.9778 0 3.9112.58649 5.5557 1.6853 1.6445 1.09882 2.9262 2.6606 3.6831 4.48787.7568 1.82723.9549 3.83793.569 5.77773-.3858 1.9398-1.3382 3.7216-2.7368 5.1202-1.3985 1.3985-3.1803 2.3509-5.1201 2.7368z"/><path d="m2.92432 13.9383c-.41074.0535-.78708-.2361-.84057-.6468-.03077-.2362-.05315-.474-.06699-.7129-.01385-.2389-.01909-.4776-.01582-.7158.00568-.4142.34604-.7453.76022-.7397.41417.0057.74532.3461.73964.7603-.00278.2024.00168.4054.01345.6084.01176.2031.03079.4052.05694.606.05349.4107-.23612.787-.64687.8405z"/><path d="m3.32278 8.70895c-.37416-.17771-.5334-.62509-.35569-.99924.1022-.21518.21228-.4271.33014-.63535.11787-.20824.24289-.41172.37476-.6101.22929-.34496.69482-.43872 1.03978-.20943.34496.2293.43872.69482.20943 1.03978-.11209.16862-.21836.34158-.31855.51859-.10019.17702-.19376.35716-.28063.54006-.17771.37415-.62509.5334-.99924.35569z"/><path d="m6.49243 4.53059c-.21807-.35216-.10937-.81442.24279-1.03249.20252-.12541.40991-.24383.62184-.35492.21194-.1111.4273-.21431.64565-.30953.37968-.16557.8217.00799.98727.38767.16558.37968-.00799.8217-.38767.98728-.18559.08093-.36865.16866-.5488.2631-.18016.09444-.35644.19509-.52858.30168-.35216.21808-.81443.10938-1.0325-.24279z"/><path d="m13 6.5c0-.41421-.3358-.75-.75-.75s-.75.33579-.75.75v4c0 .3934-.1852.7639-.5 1l-3.2 2.4c-.33137.2485-.39853.7186-.15 1.05s.71863.3985 1.05.15l3.2-2.4c.6925-.5193 1.1-1.3344 1.1-2.2z"/></g></svg>