<svg fill="none" height="24" viewBox="0 0 24 24" width="24" xmlns="http://www.w3.org/2000/svg"><g fill="#000"><path d="m6.46967 12.4697c.29289-.2929.76777-.2929 1.06066 0s.29289.7677 0 1.0606l-1.86612 1.8661c-.31498.315-.09189.8536.35356.8536h10.98223c1.7949 0 3.25-1.4551 3.25-3.25v-1c0-.4142.3358-.75.75-.75s.75.3358.75.75v1c0 2.6234-2.1266 4.75-4.75 4.75h-10.98223c-.44546 0-.66854.5386-.35356.8536l1.86612 1.8661c.29289.2929.29289.7677 0 1.0606s-.76777.2929-1.06066 0l-4-4c-.29289-.2929-.29289-.7677 0-1.0606z"/><path d="m16.4697 2.46967c-.2929.29289-.2929.76777 0 1.06066l1.8661 1.86612c.315.31498.0919.85355-.3536.85355h-10.9822c-2.62335 0-4.75 2.12665-4.75 4.75v1c0 .4142.33579.75.75.75s.75-.3358.75-.75v-1c0-1.79493 1.45507-3.25 3.25-3.25h10.9822c.4455 0 .6686.53857.3536.85355l-1.8661 1.86615c-.2929.2929-.2929.7677 0 1.0606s.7677.2929 1.0606 0l4-3.99997c.2929-.29289.2929-.76777 0-1.06066l-4-4c-.2929-.29289-.7677-.29289-1.0606 0z"/></g></svg>