<svg fill="none" height="24" viewBox="0 0 24 24" width="24" xmlns="http://www.w3.org/2000/svg"><path clip-rule="evenodd" d="m12.3664 8.56842c-.1998.23767-.5656.23767-.7654 0l-1.4276-1.69813c-1.7819-2.11958-5.1195-1.63656-6.25252.90486-.74575 1.67277-.47027 3.61375.70569 4.94865.69232.7859 1.38003 1.5458 1.89395 2.0698.68985.7034 2.22555 1.9148 3.68168 3.0101.5433.4086 1.0587.7887 1.488 1.1022.1749.1277.4121.1277.587 0 .4293-.3135.9448-.6936 1.488-1.1022 1.4562-1.0953 2.9919-2.3067 3.6817-3.0101.6861-.6994 1.3596-1.4311 1.9681-2.1151 1.1434-1.2852 1.401-3.17745.6621-4.83486-1.1472-2.57335-4.5268-3.06243-6.3311-.91622zm-1.3897-3.06753c-2.56239-2.53766-6.90814-1.76907-8.42736 1.63863-.98464 2.20859-.63361 4.80578.95638 6.61068.69555.7896 1.40556 1.575 1.94948 2.1296 1.34197 1.3682 5.1645 4.1418 6.2424 4.9156.1727.124.3996.124.5723 0 1.0779-.7738 4.9004-3.5474 6.2424-4.9156.7077-.7216 1.3985-1.4723 2.0186-2.1692 1.5751-1.7705 1.8879-4.32647.9178-6.50259-1.5231-3.41638-5.862-4.20374-8.4534-1.70172-.1361.13139-.2674.27184-.3932.42146l-.2357.28036c-.1998.23767-.5656.23767-.7654 0l-.2837-.33748c-.1095-.13023-.2232-.25346-.3406-.36974z" fill="#000" fill-rule="evenodd"/></svg>