<svg width="20" height="20" viewBox="0 0 20 20" fill="none" xmlns="http://www.w3.org/2000/svg">
<path fill-rule="evenodd" clip-rule="evenodd" d="M10.0007 1.90002H13.0009V1.9601C13.0009 1.9601 13.001 1.9601 13.001 1.96011V3.16194C12.1807 3.1148 11.1953 3.10007 10.0066 3.10002C10.0046 3.10002 10.0027 3.10002 10.0007 3.10002C9.99877 3.10002 9.99682 3.10002 9.99486 3.10002C8.80641 3.10007 7.82111 3.1148 7.00098 3.16192V3.10002H7.00093V1.90002H10.0007ZM10.0008 5.9C8.25205 5.9 6.87511 5.93074 5.80368 6.06061C4.73952 6.1896 3.89329 6.42446 3.26591 6.895C2.61251 7.38505 2.27614 8.06826 2.10101 8.90887C1.9304 9.72776 1.90088 10.7555 1.90088 12C1.90088 13.2445 1.93037 14.2722 2.10093 15.0911C2.27602 15.9317 2.61233 16.6149 3.26571 17.105C3.89307 17.5755 4.7393 17.8104 5.80347 17.9394C6.87493 18.0693 8.25193 18.1 10.0008 18.1C11.7496 18.1 13.1266 18.0693 14.1981 17.9394C15.2623 17.8104 16.1085 17.5755 16.7359 17.105C17.3893 16.6149 17.7257 15.9317 17.9008 15.0911C18.0714 14.2722 18.1009 13.2445 18.1009 12C18.1009 10.7555 18.0713 9.72775 17.9007 8.90885C17.7255 8.06823 17.3891 7.38503 16.7357 6.89499C16.1083 6.42446 15.2621 6.1896 14.1979 6.06061C13.1264 5.93074 11.7495 5.9 10.0008 5.9ZM3.10088 12C3.10088 10.7445 3.13388 9.83474 3.27578 9.15363C3.41316 8.49424 3.63931 8.11495 3.98591 7.855C4.35853 7.57554 4.94978 7.3729 5.94808 7.25189C6.9391 7.13176 8.24958 7.1 10.0008 7.1C11.7519 7.1 13.0624 7.13176 14.0535 7.25189C15.0518 7.3729 15.6431 7.57554 16.0157 7.85501C16.3624 8.11497 16.5885 8.49427 16.7259 9.15365C16.8679 9.83475 16.9009 10.7445 16.9009 12C16.9009 13.2555 16.8679 14.1653 16.726 14.8464C16.5886 15.5058 16.3625 15.8851 16.0159 16.145C15.6433 16.4245 15.052 16.6271 14.0537 16.7481C13.0626 16.8682 11.7521 16.9 10.0008 16.9C8.24946 16.9 6.93892 16.8682 5.94787 16.7481C4.94955 16.6271 4.35832 16.4245 3.98574 16.145C3.63918 15.8851 3.41307 15.5058 3.27572 14.8464C3.13385 14.1653 3.10088 13.2555 3.10088 12ZM15.001 4.18852C14.7487 4.13677 14.481 4.09495 14.1978 4.06063C13.1264 3.93076 11.7494 3.90002 10.0007 3.90002C8.25203 3.90002 6.87509 3.93076 5.80365 4.06063C5.52068 4.09493 5.25311 4.13672 5.00098 4.18844V5.41867C5.2677 5.35216 5.58025 5.2965 5.94805 5.25191C6.93908 5.13179 8.24956 5.10002 10.0007 5.10002C11.7519 5.10002 13.0624 5.13179 14.0534 5.25191C14.4215 5.29652 14.7342 5.35222 15.001 5.41877V4.18852Z" fill="#09101C"/>
</svg>
