<svg fill="none" height="24" viewBox="0 0 24 24" width="24" xmlns="http://www.w3.org/2000/svg"><path clip-rule="evenodd" d="m2 6c0-2.20914 1.79086-4 4-4h6c2.2091 0 4 1.79086 4 4v1.5c0 .27614.2239.5.5.5h1.5c2.2091 0 4 1.79086 4 4v6c0 2.2091-1.7909 4-4 4h-6c-2.20914 0-4-1.7909-4-4v-1.5c0-.2761-.22386-.5-.5-.5h-1.5c-2.20914 0-4-1.7909-4-4zm4-2.5h6c1.3807 0 2.5 1.11929 2.5 2.5v6c0 1.3807-1.1193 2.5-2.5 2.5h-6c-1.38071 0-2.5-1.1193-2.5-2.5v-6c0-1.38071 1.11929-2.5 2.5-2.5zm4 12.5c-.27614 0-.5.2239-.5.5v1.5c0 1.3807 1.1193 2.5 2.5 2.5h6c1.3807 0 2.5-1.1193 2.5-2.5v-6c0-1.3807-1.1193-2.5-2.5-2.5h-1.5c-.2761 0-.5.22386-.5.5v2c0 2.2091-1.7909 4-4 4z" fill="#000" fill-rule="evenodd"/></svg>