<svg fill="none" height="22" viewBox="0 0 22 22" width="22" xmlns="http://www.w3.org/2000/svg"><g stroke="#939ba1" stroke-linecap="round" stroke-linejoin="round" stroke-width="1.5"><path d="m7.56245 11.5908 7.72725 6.8c.0894.0787.1977.1328.3143.157s.2375.0177.3509-.0188c.1133-.0366.2152-.1019.2957-.1897s.1368-.195.1634-.3111l3.2324-14.1051c.028-.12195.0221-.24922-.0169-.36809s-.1098-.22483-.2046-.30646c-.0948-.08164-.2101-.13586-.3334-.15681-.1234-.02095-.2501-.00785-.3666.0379l-15.86032 6.23085c-.13823.05431-.25515.15191-.33328.27821-.07813.12629-.11327.2745-.10014.4224.01312.148.07379.2877.17293.3982.09914.1106.23142.1861.37705.2152z"/><path d="m7.5625 11.5905 11.6971-8.44792"/><path d="m11.4217 14.9869-2.68556 2.6856c-.09615.0961-.21865.1616-.35201.1881-.13337.0266-.2716.0129-.39722-.0391-.12563-.052-.233-.1401-.30854-.2532-.07555-.1131-.11587-.246-.11587-.382v-5.5955"/></g></svg>