<svg fill="none" height="25" viewBox="0 0 24 25" width="24" xmlns="http://www.w3.org/2000/svg"><path d="m8.48535 3.98458c1.94105-1.97944 5.08825-1.97944 7.02925 0l5.0296 5.12896c1.9411 1.97946 1.9411 5.18876 0 7.16816l-5.0296 4.7337c-1.941 1.9795-5.0882 1.9795-7.02925 0l-5.02954-4.7337c-1.94108-1.9794-1.94108-5.1887 0-7.16816zm.14388 5.39969c-.32457-.0001-.60142.11533-.83093.34618-.22922.23076-.34375.50975-.34375.83635 0 .3263.11453.6052.34375.836.22951.2309.50636.3462.83093.3462h6.58347c.3247 0 .6014-.1153.831-.3462.2293-.2308.3439-.5097.3437-.836.0001-.3266-.1146-.60559-.3437-.83635l-2.7552-2.7736c-.2295-.23075-.5063-.34618-.8308-.34618-.3244 0-.6012.11543-.8307.34618-.2293.2309-.3439.50973-.3439.83631s.1146.60532.3439.83622l.7499.75489zm2.08447 8.65873c.2298.2309.5067.3463.8314.3463s.6017-.1154.8311-.3463c.2297-.2308.3444-.5094.3444-.836s-.1147-.6053-.3444-.8362l-.7502-.7548h3.744c.3246 0 .6018-.1153.8313-.3464.2295-.2308.3442-.5097.3442-.8363 0-.3264-.1147-.6051-.3442-.836-.2296-.2309-.5068-.3465-.8313-.3463h-6.58194c-.32468-.0002-.60191.1154-.83127.3463-.22951.2309-.34428.5096-.34414.836-.00014.3266.11463.6055.34414.8363z" fill="#000"/></svg>