<svg fill="none" height="24" viewBox="0 0 24 24" width="24" xmlns="http://www.w3.org/2000/svg"><path d="m4.05322 14.9517c0 2.5854 1.65528 4.7021 3.7793 4.7021h2.40968c.9888.5054 2.1606.7983 3.4497.7983h1.0254c.9521 0 1.7651-.0585 2.2925-.1904 1.0766-.271 1.7578-1.0327 1.7578-1.9922 0-.1757-.022-.3296-.0733-.4907.5054-.3882.7911-.9668.7911-1.5967 0-.2929-.0586-.5786-.1612-.8203.3369-.3589.5347-.8716.5347-1.4062 0-.3589-.0879-.7105-.2344-.9888.2051-.3149.3223-.7324.3223-1.1865 0-1.1719-.8936-2.07278-2.0508-2.07278h-2.7246c-.1538 0-.2564-.07324-.249-.2124.0366-.76172 1.2231-2.5708 1.2231-4.05762 0-1.09131-.769-1.88965-1.831-1.88965-.7691 0-1.2964.40283-1.8018 1.36231-.9082 1.75781-2.0142 3.29589-3.64747 5.30274h-1.31103c-1.99219 0-3.50098 2.1094-3.50098 4.7388zm4.56299-.0586c0-1.5528.34424-2.5489 1.34033-3.8745 1.10596-1.48686 2.64406-3.26665 3.74996-5.47856.2344-.46143.3956-.57861.6299-.57861.2783 0 .4615.20507.4615.55664 0 1.08398-1.2452 2.90039-1.2452 4.08691 0 .88622.7105 1.45022 1.6773 1.45022h2.6294c.4248 0 .7397.3222.7397.747 0 .3003-.0952.4981-.3515.7471-.1905.1904-.2198.4688-.0513.6665.2124.293.3003.4907.3003.7398 0 .3003-.1392.5566-.4321.769-.2491.1831-.337.4761-.1905.7691.1538.3002.2344.4467.2344.6811 0 .3516-.2271.6152-.6812.8569-.2417.1319-.3076.3955-.205.6226.1538.3735.1757.4468.1684.6079 0 .3149-.227.564-.7177.6885-.4322.1025-1.1207.1538-2.0289.1465l-.9448-.0074c-3.0322-.0293-5.08299-1.7358-5.08299-4.1967zm-3.22998.0586c0-1.8604.95215-3.3472 2.05078-3.3985h.57129c-.52002 1.0108-.74707 2.0728-.74707 3.3399 0 1.3476.46875 2.5341 1.32568 3.457-.27099 0-.55664 0-.83496 0-1.28174-.0513-2.36572-1.5601-2.36572-3.3984z" fill="#000"/></svg>