<svg fill="none" height="24" viewBox="0 0 24 24" width="24" xmlns="http://www.w3.org/2000/svg"><path d="m19.9468 9.04834c0-2.58545-1.6553-4.70215-3.7793-4.70215h-2.4097c-.9888-.50537-2.1606-.79834-3.4497-.79834h-1.02539c-.95214 0-1.76513.0586-2.29248.19043-1.07666.26367-1.75781 1.03272-1.75781 1.99219 0 .16846.0293.32959.07324.4834-.50537.39551-.79101.96679-.79101 1.59668 0 .29297.05859.57861.16113.82031-.33691.35889-.53467.87891-.53467 1.41354 0 .3516.08789.7105.23438.9888-.20508.3076-.32227.7251-.32227 1.1865 0 1.1719.89356 2.0728 2.05078 2.0728h2.72461c.15381 0 .25635.0732.24903.2124-.03662.7544-1.22315 2.5708-1.22315 4.0576 0 1.0913.76905 1.8896 1.83106 1.8896.76905 0 1.29635-.4028 1.80175-1.3623.9155-1.7578 2.0142-3.2959 3.6475-5.31h1.311c1.9922 0 3.501-2.1021 3.501-4.73146zm-4.563.05859c0 1.55277-.3442 2.54147-1.3403 3.87447-1.106 1.4795-2.6441 3.2666-3.75 5.4786-.2344.4614-.39555.5712-.6226.5712-.27832 0-.46143-.1977-.46143-.5493 0-1.084 1.23783-2.9004 1.23783-4.0942 0-.8789-.71048-1.4502-1.67728-1.4502h-2.6294c-.4248 0-.73974-.3149-.73974-.7397 0-.3003.10254-.4981.35156-.7471.19043-.1978.21973-.4761.05127-.6665-.2124-.3003-.30029-.4907-.30029-.7398 0-.30026.13916-.55661.43213-.77633.24902-.17578.33691-.47608.19043-.76905-.15381-.29297-.23438-.44677-.23438-.67382 0-.35157.22705-.62256.68115-.86426.2417-.13184.30762-.38819.20508-.62256-.15381-.37354-.17578-.43945-.16845-.60059 0-.31494.22705-.56396.71777-.68847.43213-.10987 1.1206-.15381 2.02881-.14649l.94484.00733c3.0322.02929 5.083 1.72851 5.083 4.19677zm3.2373-.05859c0 1.86036-.9595 3.34716-2.0581 3.39116-.1904.0073-.3809.0073-.5713.0073.52-1.0181.7471-2.0728.7471-3.33987 0-1.34765-.4688-2.53418-1.3184-3.46435.271 0 .5493.00732.8276.00732 1.2818.05127 2.3731 1.55274 2.3731 3.39844z" fill="#000"/></svg>