<svg fill="none" height="25" viewBox="0 0 24 25" width="24" xmlns="http://www.w3.org/2000/svg"><g fill="#000"><path d="m12.75 7.5c0-.41421-.3358-.75-.75-.75s-.75.33579-.75.75v4.1716c0 .7293.2897 1.4288.8055 1.9445l2.4142 2.4142c.2929.2929.7677.2929 1.0606 0s.2929-.7677 0-1.0606l-2.4142-2.4142c-.2344-.2345-.3661-.5524-.3661-.8839z"/><path clip-rule="evenodd" d="m22 12.5c0 5.5228-4.4772 10-10 10-5.52285 0-10-4.4772-10-10 0-5.52285 4.47715-10 10-10 5.5228 0 10 4.47715 10 10zm-1.5 0c0 4.6944-3.8056 8.5-8.5 8.5-4.69442 0-8.5-3.8056-8.5-8.5 0-4.69442 3.80558-8.5 8.5-8.5 4.6944 0 8.5 3.80558 8.5 8.5z" fill-rule="evenodd"/></g></svg>