<svg fill="none" height="24" viewBox="0 0 24 24" width="24" xmlns="http://www.w3.org/2000/svg"><g fill="#000"><path d="m11.0938 15.3807c1.1511.3084 2.3219.0056 3.1679-.7094.2107-.1782.5246-.2003.7311-.0172l.3743.332c.2068.1833.2272.5016.024.6888-.5888.5423-1.3014.9376-2.0747 1.1494-.182.0499-.3299.1871-.3787.3693l-.3173 1.1843c-.0715.2668-.3457.425-.6124.3536l-.483-.1294c-.2667-.0715-.425-.3457-.3535-.6124l.1229-.4588c.0792-.2954-.1239-.5904-.4218-.6595-.0557-.013-.1113-.0269-.167-.0418-.0555-.0149-.1106-.0306-.1652-.0473-.2925-.089-.61589.065-.69503.3603l-.12294.4588c-.07147.2668-.34564.4251-.61237.3536l-.48296-.1294c-.26674-.0715-.42503-.3457-.35356-.6124l.31728-1.1841c.04884-.1823-.01068-.3751-.14337-.5092-1.20833-1.2218-1.75421-3.0344-1.27738-4.814.47685-1.77965 1.85602-3.07655 3.51343-3.5304.182-.04984.3299-.18704.3788-.36932l.3172-1.18408c.0715-.26673.3457-.42502.6124-.35355l.483.12941c.2667.07147.425.34564.3535.61237l-.1229.4589c-.0792.29534.1239.59036.4217.65949.0556.01289.1111.02677.1666.04164.0556.01489.1107.03065.1653.04728.2925.08907.6158-.0649.695-.36025l.1229-.4588c.0715-.26673.3456-.42502.6124-.35355l.4829.12941c.2668.07147.4251.34564.3536.61237l-.3173 1.18409c-.0488.18227.0107.37503.1434.5092.5638.57011.9834 1.2689 1.2222 2.03299.0824.2637-.0945.5292-.3652.5846l-.4901.1003c-.2704.0553-.5312-.1207-.6246-.3804-.3752-1.04229-1.2377-1.88993-2.3887-2.19835-1.8672-.5003-3.78634.60774-4.28664 2.47485-.5003 1.8672.60774 3.7863 2.47484 4.2866z"/><path clip-rule="evenodd" d="m22 12c0 5.5228-4.4772 10-10 10-5.52285 0-10-4.4772-10-10 0-5.52285 4.47715-10 10-10 5.5228 0 10 4.47715 10 10zm-1.5 0c0 4.6944-3.8056 8.5-8.5 8.5-4.69442 0-8.5-3.8056-8.5-8.5 0-4.69442 3.80558-8.5 8.5-8.5 4.6944 0 8.5 3.80558 8.5 8.5z" fill-rule="evenodd"/></g></svg>