<svg fill="none" height="24" viewBox="0 0 24 24" width="24" xmlns="http://www.w3.org/2000/svg"><path d="m11.0894 21.5921c.3162.2308.7571.1198.9485-.2217.1795-.3203.0705-.7232-.2291-.9353-2.75473-1.9501-4.0388-5.177-4.0388-7.368 0-1.6464 1.095-2.8964 2.535-2.8964 1.515 0 2.625 1.0519 2.625 2.4848 0 2.2408 1.77 4.0091 4.02 4.0091 2.31 0 4.05-1.9817 4.05-4.6341 0-5.67074-4.65-10.0305-10.71-10.0305-2.25253 0-4.32949.63042-6.06546 1.81772-.37137.25399-.40299.77787-.0919 1.10292.27582.2882.72416.3145 1.05538.09219 1.45761-.97834 3.20976-1.48844 5.10198-1.48844 5.22 0 9.21 3.67378 9.21 8.50611 0 1.7988-1.065 3.0945-2.55 3.0945-1.425 0-2.535-1.0823-2.535-2.4695 0-2.3628-1.62-3.99392-3.96-3.99392-2.445 0-4.17 1.82932-4.17 4.40552 0 2.6718 1.65168 6.2236 4.8044 8.525zm-5.86444-1.3134c.23057.3696.73163.438 1.07049.1642.30716-.2481.36925-.69.16315-1.0267-1.19389-1.9511-1.9586-4.3363-1.9586-6.2577 0-3.68899 2.385-6.28045 5.79-6.28045 3.39 0 6 2.40854 6 5.56405 0 1.0518 1.485 1.0213 1.485 0 0-3.99393-3.27-7.10369-7.485-7.10369-4.23 0-7.29 3.2622-7.29 7.82009 0 2.2354.86032 4.9329 2.22496 7.1202zm10.92034-.3345c.4256.0362.7679-.3198.7596-.7469-.0082-.4229-.3581-.7545-.7788-.7979-2.9242-.3017-5.0261-2.5712-5.0261-5.5915 0-.5183-.255-.8079-.705-.8079-.48 0-.78.3049-.78.8079 0 3.8559 2.7647 6.8154 6.5303 7.1363z" fill="#000"/></svg>