<svg fill="none" height="24" viewBox="0 0 24 24" width="24" xmlns="http://www.w3.org/2000/svg"><g clip-rule="evenodd" fill="#000" fill-rule="evenodd"><path d="m13.2468 8.03149c-1.4924 0-2.7021 1.20978-2.7021 2.70211 0 1.4923 1.2097 2.7021 2.7021 2.7021 1.4923 0 2.7021-1.2098 2.7021-2.7021 0-1.49233-1.2098-2.70211-2.7021-2.70211zm-1.2021 2.70211c0-.6639.5382-1.20211 1.2021-1.20211s1.2021.53821 1.2021 1.20211-.5382 1.2021-1.2021 1.2021-1.2021-.5382-1.2021-1.2021z"/><path d="m9.03269 18.7958c-.25188.0322-.44958.2348-.49803.4836-.11916.6118-.41614 1.196-.89094 1.6699-.38471.3839-.93404.5993-1.42594.7323-.51331.1389-1.07555.2165-1.58189.2606-.51006.0444-.98479.0565-1.33065.0577-.17353.0006-.31609-.0015-.4162-.0039-.05009-.0011-.08965-.0023-.11726-.0033l-.03229-.0012-.0091-.0004-.00274-.0001-.23037-.0102c-.25912-.0115-.46657-.2185-.47807-.4771l-.01023-.2299-.00011-.0028-.00037-.0091-.00119-.0322c-.00095-.0275-.00217-.067-.00334-.117-.00233-.0999-.00447-.2422-.00387-.4154.00122-.3452.01337-.819.05786-1.3281.04417-.5054.12193-1.0665.26103-1.5789.13329-.4909.34905-1.0392.73376-1.4232.46925-.4683 1.04641-.7633 1.6516-.8849.25048-.0504.45301-.2512.48222-.5045.00377-.0327.00786-.0664.01231-.1011.06344-.495.19846-1.1916.48342-2.033.06488-.1916.13746-.3905.21865-.596.10414-.2637-.06815-.5595-.35077-.5871-.469-.0459-.93421-.0904-1.28227-.1235l-.86091-.0811c-.29997-.0281-.50734-.3124-.44207-.6059l.06147-.2765c.36641-1.64796 1.03143-2.78023 1.89607-3.50327.86613-.72427 1.85646-.97426 2.75253-.99863.72669-.01977 1.40747.10756 1.95057.25946.17876.04999.37161.00519.50713-.12145 2.3447-2.19087 5.0574-3.24116 7.1991-3.74439 1.1249-.26429 2.1012-.37991 2.7995-.42949.3494-.02481.6303-.03315.8264-.03518.0981-.00102.1751-.00046.229.00041.027.00044.0482.00095.0634.00138l.0183.00058.0057.00027.0019.00001.0014.00144v-.00139l.2316.0094c.2614.01061.4705.22022.4801.48114l.0085.23117.0001.00336.0002.00566.0005.01817c.0003.01511.0008.0362.0011.06302.0006.05363.0009.13021-.0005.22775-.0029.19503-.0123.47424-.0385.82174-.0524.69433-.1718 1.66528-.4401 2.7844-.5106 2.12988-1.5688 4.82804-3.7613 7.16584-.127.1354-.1718.3281-.1215.5066.1533.5435.2824 1.2264.2625 1.9556-.0245.8943-.2749 1.8827-1.0006 2.7472s-1.8589 1.5267-3.51 1.8924l-.277.0614c-.2942.0651-.5789-.1418-.6071-.4412l-.0813-.8593c-.0331-.3474-.0778-.8117-.1237-1.2798-.0268-.2734-.315-.4393-.5702-.3364-.2032.082-.3998.1555-.5891.2213-.8359.291-1.52681.4324-2.01778.501-.03101.0043-.06123.0083-.09063.0121zm-2.49511-8.5442c.19593.0199.38486-.0765.48736-.2444.32997-.54026.71738-1.10273 1.1721-1.68009.23763-.30172.07626-.75177-.30822-.75765-.05744-.00088-.1151-.00058-.1729.00099-.64591.01757-1.28275.19263-1.82864.64911-.3307.27654-.65573.67953-.93071 1.26769-.13667.29232.07379.61625.39549.64745l.34454.0335c.28685.028.57584.0566.84098.0834zm7.17472 7.164c.0267.2637.0553.551.0833.8361l.0335.3438c.0313.3211.3558.5312.6487.3948.5893-.2745.9931-.5989 1.2701-.9289.4574-.5449.6328-1.1805.6504-1.8252.0017-.0602.0019-.1203.0009-.1802-.0066-.3838-.4579-.5441-.7596-.306-.5797.4575-1.1437.8478-1.6848 1.1807-.1668.1026-.2623.2903-.2425.4849zm-4.86011-.1084c-.14704.0191-.29312-.0349-.39797-.1395l-1.63434-1.6312c-.10315-.103-.15725-.2458-.1405-.3905.00295-.0255.00616-.0519.00966-.0791.05189-.405.16604-1.0037.41646-1.7432.49962-1.4753 1.54711-3.52728 3.7523-5.72819 1.536-1.53305 3.2876-2.49567 4.9157-3.09889.2561-.09487.5349.04372.6504.29075.2486.53152.5928 1.02954 1.0324 1.46834.5155.51449 1.1126.89794 1.7497 1.15035.2642.10469.4202.39179.3228.65839-.6054 1.65727-1.5837 3.45535-3.1614 5.03005-2.2074 2.203-4.2533 3.2617-5.721 3.7724-.73549.256-1.32974.3758-1.7311.4318-.0216.003-.04263.0058-.06311.0085zm11.35711-11.69664c.1437-.73601.2166-1.37403.2531-1.85838.0095-.12568-.0946-.23001-.2206-.2211l-.0039.00028c-.5134.03645-1.1983.11273-1.9889.26938-.2981.05905-.4662.37596-.3138.63833.1571.27034.3515.52497.5834.7564.3231.3225.6914.57248 1.0845.74997.262.1183.5512-.05315.6062-.33488zm-13.62787 11.81684c-.68107-.6798-1.78532-.6798-2.46639 0-.10251.1023-.23341.3402-.34605.7551-.10683.3935-.17427.8577-.21441 1.317-.01448.1657-.02519.328-.033.4827-.01424.2822.2174.5134.50007.4991.15505-.0077.31768-.0184.48369-.0329.46013-.04.92526-.1074 1.31952-.214.41566-.1124.65407-.2431.75657-.3454.68108-.6797.68108-1.7818 0-2.4616z"/></g></svg>