<svg fill="none" height="25" viewBox="0 0 24 25" width="24" xmlns="http://www.w3.org/2000/svg"><g fill="#000"><path d="m13.8417 12.3627c-.6781.039-1.2297-.0204-1.7813-.0798-.5518-.0594-1.1036-.1189-1.7822-.0797-.33647.0189-.67064.0677-.99855.1457.20026-2.50901 1.97595-4.70387 4.39065-4.84339 1.4818-.0855 2.9629.8294 3.0432 2.31461.0791 1.45978-1.0341 2.43658-2.8718 2.54258z"/><path d="m10.1988 17.4948c-1.41954.0802-2.83819-.7763-2.91523-2.1661-.07576-1.3662.99074-2.2802 2.75113-2.3794.6496-.0366 1.178.019 1.7064.0746.5286.0557 1.0572.1113 1.7071.0746.3221-.0177.6422-.0633.9565-.1364-.1915 2.3481-1.8925 4.4024-4.2059 4.5327z"/><path clip-rule="evenodd" d="m2 12.5c0-5.52285 4.47715-10 10-10 5.5228 0 10 4.47715 10 10v6.6667c0 1.8409-1.4924 3.3333-3.3333 3.3333h-6.6667c-5.52285 0-10-4.4772-10-10zm18.5 0v6.6667c0 1.0125-.8208 1.8333-1.8333 1.8333h-6.6667c-4.69442 0-8.5-3.8056-8.5-8.5 0-4.69442 3.80558-8.5 8.5-8.5 4.6944 0 8.5 3.80558 8.5 8.5z" fill-rule="evenodd"/></g></svg>