<svg width="20" height="17" viewBox="0 0 20 17" fill="none" xmlns="http://www.w3.org/2000/svg">
<path d="M8.99998 4.56275C9.00005 3.77295 9.27205 3.00726 9.77024 2.3944C10.2684 1.78155 10.9624 1.35891 11.7356 1.19754C12.5087 1.03616 13.3138 1.1459 14.0156 1.50829C14.7173 1.87069 15.2729 2.46364 15.5889 3.18747L18.625 3.1875L15.8524 5.96006C15.6719 8.74871 14.4368 11.3641 12.398 13.2753C10.3592 15.1864 7.66946 16.25 4.87498 16.25C2.12498 16.25 1.43748 15.2188 1.43748 15.2188C1.43748 15.2188 4.18748 14.1875 5.56248 12.125C5.56248 12.125 0.0624759 9.375 1.43748 1.8125C1.43748 1.8125 4.87498 5.25 8.99879 5.9375L8.99998 4.56275Z" stroke="#939BA1" stroke-width="1.5" stroke-linecap="round" stroke-linejoin="round"/>
</svg>
