<svg fill="none" height="20" viewBox="0 0 20 20" width="20" xmlns="http://www.w3.org/2000/svg"><path clip-rule="evenodd" d="m5.4 3.5v.01275c0 1.7398 0 3.25205.06323 4.53252.06318 1.27929.19085 2.37073.46332 3.25623.27551.8954.71235 1.6227 1.41873 2.1132.69949.4858 1.586.6853 2.65472.6853 1.0687 0 1.9552-.1995 2.6547-.6853.7064-.4905 1.1432-1.2178 1.4188-2.1132.2724-.8855.4001-1.977.4633-3.25628.0632-1.28046.0632-2.79268.0632-4.53244v-.00008-.0127h-1.2c0 1.75487-.0002 3.23837-.0618 4.48603-.0618 1.25197-.1841 2.22297-.4117 2.96247-.2245.7296-.5376 1.1898-.9563 1.4806-.4255.2954-1.0389.4709-1.9702.4709-.93126 0-1.54475-.1754-1.97025-.4709-.41862-.2907-.73178-.7509-.95627-1.4805-.22754-.7395-.34988-1.71054-.41171-2.96252-.06161-1.24766-.06177-2.73118-.06177-4.48608zm-.4 12.4v1.2h10v-1.2z" fill="#09101c" fill-rule="evenodd"/></svg>