<svg fill="none" height="24" viewBox="0 0 24 24" width="24" xmlns="http://www.w3.org/2000/svg"><path clip-rule="evenodd" d="m14.7773 8.37542-2.3156-5.56744c-.1708-.41064-.7526-.41064-.9234.00001l-2.31558 5.56743-6.0105.48185c-.44333.03555-.62309.5888-.28533.87813l4.57938 3.9227-1.39908 5.8653c-.10319.4326.36744.7745.74699.5427l5.14582-3.1431 5.1458 3.1431c.3796.2318.8502-.1101.747-.5427l-1.399-5.8653 4.5793-3.9227c.3378-.28933.158-.84258-.2853-.87813zm3.0375 2.17598c.1689-.1447.079-.4213-.1426-.4391l-3.0148-.24168c-.5607-.04495-1.0491-.39981-1.2651-.91916l-1.1615-2.79252c-.0854-.20532-.3762-.20532-.4616 0l-1.1615 2.79252c-.216.51935-.70442.87421-1.26511.91916l-3.01476.24168c-.22166.0178-.31154.2944-.14266.4391l2.29693 1.9675c.42719.366.61374.9401.48323 1.4873l-.70175 2.9419c-.0516.2163.18372.3872.37349.2713l2.58103-1.5765c.4801-.2932 1.0838-.2932 1.5638 0l2.581 1.5765c.1898.1159.4251-.055.3735-.2713l-.7017-2.9419c-.1305-.5472.056-1.1213.4832-1.4873z" fill="#000" fill-rule="evenodd"/><path d="m19.9544 5.41348-14.54092 13.63212" stroke="#000" stroke-linecap="round" stroke-width="2"/></svg>