<svg fill="none" height="13" viewBox="0 0 14 13" width="14" xmlns="http://www.w3.org/2000/svg"><path clip-rule="evenodd" d="m5.61568.749741c-.40782-.072498-.79719.199334-.86969.607149l-.32807 1.84548c-.05515.31023-.32487.53623-.63997.53623h-1.69725c-.41421 0-.75.33578-.75.75 0 .41421.33579.75.75.75h1.1995c.4045 0 .71076.36551.63996.76376l-.29635 1.66706c-.05515.31024-.32487.53624-.63997.53624h-1.63474c-.414215 0-.750002.33578-.750002.75 0 .41421.335786.75.750002.75h1.13698c.40451 0 .71077.36554.63997.76374l-.25617 1.441c-.0725.4079.19933.7972.60715.8697s.7972-.1993.8697-.6071l.34329-1.9311c.05515-.31025.32487-.53624.63996-.53624h1.975c.4045 0 .71077.36554.63997.76374l-.25617 1.441c-.0725.4079.19933.7972.60715.8697s.7972-.1993.86969-.6071l.34329-1.9311c.05515-.31024.32487-.53624.63999-.53624h1.7677c.4142 0 .75-.33579.75-.75 0-.41422-.3358-.75-.75-.75h-1.27c-.4045 0-.71073-.36551-.6399-.76377l.2963-1.66706c.0552-.31023.3249-.53623.64-.53623h1.7079c.4142 0 .75-.33579.75-.75s-.3358-.75-.75-.75h-1.2101c-.4046 0-.7108-.36551-.64-.76377l.2409-1.3554c.0725-.40782-.1993-.797191-.6071-.869689s-.79721.199334-.86971.607149l-.32807 1.84548c-.05515.31023-.32487.53623-.63997.53623h-1.975c-.4045 0-.71076-.36551-.63996-.76377l.24095-1.3554c.07249-.40782-.19934-.797191-.60716-.869689zm2.18706 7.455919c.3151 0 .58482-.226.63997-.53624l.29635-1.66705c.0708-.39826-.23546-.76377-.63997-.76377h-1.975c-.31509 0-.58481.226-.63996.53623l-.29636 1.66706c-.07079.39826.23547.76377.63997.76377z" fill="#000" fill-rule="evenodd"/></svg>