<svg fill="none" height="24" viewBox="0 0 24 24" width="24" xmlns="http://www.w3.org/2000/svg"><g fill="#000"><path clip-rule="evenodd" d="m3.37002 1.97c-.29311-.29267-.76799-.29231-1.06066.0008s-.29232.76799.0008 1.06066l3.61483 3.60941c.11812.11795.16813.28684.14309.45187-.04487.29588-.06814.59886-.06814.90727 0 2.90769 2.06834 5.33229 4.81396 5.88279.2473.0496.436.2601.436.5123v6.6049c0 .4142.3358.75.75.75s.75-.3358.75-.75v-6.6049c0-.1568.073-.2975.1876-.3934.1298-.1086.314-.0453.4338.0743l6.9423 6.9319c.2931.2926.768.2923 1.0607-.0008.2926-.2931.2923-.768-.0008-1.0607l-6.6211-6.6111c-.0008-.0008-.0006-.0022.0004-.0027s.0012-.0018.0004-.0026l-1.1308-1.1291c-.001-.001-.0025-.0013-.0038-.0008-.0014.0005-.0029.0002-.0039-.0008l-5.81649-5.80775c-.00101-.00101-.00133-.00252-.00082-.00385s.00019-.00284-.00082-.00385l-1.13077-1.12908c-.00079-.00079-.00212-.00058-.00263.00041s-.00183.0012-.00262.00041zm7.50348 9.612c.3233.3228.0812.82-.3504.6701-1.29515-.4498-2.32137-1.4746-2.77303-2.76895-.15053-.43138.34625-.67421.66956-.35139z" fill-rule="evenodd"/><path d="m16.4999 8.00001c0 1.07007-.3735 2.05289-.9972 2.82529-.1742.2157-.1774.5323.0188.7282l.3533.3528c.1948.1945.512.1962.6907-.0131.8945-1.0479 1.4344-2.40751 1.4344-3.89319 0-3.31371-2.6863-6-6-6-1.4889 0-2.85114.54234-3.89996 1.44024-.20912.17904-.20692.49622-.01212.69074l.35331.35277c.19621.19592.51284.19228.72829.01774.77315-.62629 1.75798-1.00149 2.83048-1.00149 2.4853 0 4.5 2.01472 4.5 4.5z"/><path d="m14.8955 7.28455c0-.82842-.6482-1.67562-1.4478-1.89227-.7996-.21664-1.4478.2793-1.4478 1.10773s.6482 1.67563 1.4478 1.89227c.7996.21665 1.4478-.2793 1.4478-1.10773z"/></g></svg>