<svg fill="none" height="14" viewBox="0 0 20 14" width="20" xmlns="http://www.w3.org/2000/svg"><g clip-rule="evenodd" fill="#fff" fill-rule="evenodd"><path d="m14 7c0 2.20914-1.7909 4-4 4-2.20914 0-4-1.79086-4-4s1.79086-4 4-4c2.2091 0 4 1.79086 4 4zm-1.5 0c0 1.38071-1.1193 2.5-2.5 2.5-1.38071 0-2.5-1.11929-2.5-2.5s1.11929-2.5 2.5-2.5c1.3807 0 2.5 1.11929 2.5 2.5z"/><path d="m.30102 7.48327c1.03483 1.5838 4.66222 6.51673 9.69898 6.51673 5.0368 0 8.6642-4.93293 9.6991-6.51673.1936-.29642.1936-.67012 0-.96654-1.0349-1.5838-4.6623-6.51672927-9.6991-6.51673-5.03676.00000022-8.66415 4.93293-9.69898 6.51673-.193678.29642-.193678.67012 0 .96654zm9.69898 5.01673c-2.0172 0-3.84676-.9912-5.37269-2.3022-.80303-.68992-1.48262-1.43534-2.0153-2.09264-.5236-.64611-.5236-1.5642 0-2.21031.53268-.6573 1.21227-1.40273 2.0153-2.09266 1.52592-1.31104 3.35549-2.30219 5.37269-2.30219 2.0173 0 3.8469.99116 5.3728 2.30219.803.68993 1.4826 1.43535 2.0153 2.09265.5236.64611.5236 1.5642 0 2.21032-.5327.65729-1.2123 1.40272-2.0153 2.09264-1.5259 1.311-3.3555 2.3022-5.3728 2.3022z"/></g></svg>