<svg fill="#4360df" height="12" viewBox="0 0 12 12" width="12" xmlns="http://www.w3.org/2000/svg"><path d="m0 4.21337c0-1.28333.914-2.38466 2.17533-2.62066l7.702-1.444669c.40997-.076667.78937.238.78937.655333v1.196666c0 .36867-.2987.66667-.6667.66667h-7.588c-.25267 0-.48333.14266-.596.36866l-.14933.298c-.15334.30667.06933.66667.412.66667h9.25463c.368 0 .6667.29867.6667.66667v6.66669c0 .3686-.2987.6666-.6667.6666h-8.66663c-1.47267 0-2.66667-1.1933-2.66667-2.66663zm8.66667 3.78667c0 .55267.448 1 1 1 .55203 0 1.00003-.44733 1.00003-1 0-.552-.448-1-1.00003-1-.552 0-1 .448-1 1z"/></svg>