<svg fill="none" height="24" viewBox="0 0 24 24" width="24" xmlns="http://www.w3.org/2000/svg"><g fill="#000"><path d="m6 5.25c-.41421 0-.75.33579-.75.75s.33579.75.75.75h12c.4142 0 .75-.33579.75-.75s-.3358-.75-.75-.75z"/><path clip-rule="evenodd" d="m6 2c-2.20914 0-4 1.79086-4 4v12c0 2.2091 1.79086 4 4 4h12c2.2091 0 4-1.7909 4-4v-12c0-2.20914-1.7909-4-4-4zm0 1.5c-1.38071 0-2.5 1.11929-2.5 2.5s1.11929 2.5 2.5 2.5h12c1.3807 0 2.5-1.11929 2.5-2.5s-1.1193-2.5-2.5-2.5zm14.5 14.5v-7.8357c0-.41946-.504-.67171-.8878-.50248-.4932.21744-1.0386.33818-1.6122.33818h-12c-.5736 0-1.119-.12074-1.61218-.33818-.38383-.16923-.88782.08302-.88782.50248v7.8357c0 1.3807 1.11929 2.5 2.5 2.5h12c1.3807 0 2.5-1.1193 2.5-2.5z" fill-rule="evenodd"/></g></svg>