<svg fill="none" height="22" viewBox="0 0 22 22" width="22" xmlns="http://www.w3.org/2000/svg"><g stroke="#939ba1" stroke-linecap="round" stroke-linejoin="round" stroke-width="1.5"><path d="m13.75 11-4.125-2.75v5.5z"/><path d="m2.0625 11.0002c0 2.5571.26418 4.0575.46501 4.8286.05369.2106.15678.4053.30074.5681.14396.1629.32465.289.52709.3681 2.87692 1.1056 7.64466 1.0752 7.64466 1.0752s4.7677.0304 7.6446-1.0752c.2025-.0791.3832-.2052.5271-.368.144-.1629.2471-.3576.3008-.5682.2008-.7711.465-2.2715.465-4.8286s-.2642-4.05742-.465-4.82852c-.0537-.2106-.1568-.40537-.3008-.56818-.1439-.16282-.3246-.28899-.527-.36805-2.877-1.10557-7.6447-1.07521-7.6447-1.07521s-4.76769-.03036-7.64464 1.07519c-.20244.07907-.38312.20524-.52708.36805-.14397.16281-.24706.35759-.30075.56818-.20083.77111-.46503 2.27144-.46503 4.82854z"/></g></svg>