<svg width="20" height="20" viewBox="0 0 20 20" fill="none" xmlns="http://www.w3.org/2000/svg">
<path fill-rule="evenodd" clip-rule="evenodd" d="M8.9999 3.10002C5.74142 3.10002 3.0999 5.74154 3.0999 9.00002C3.0999 12.2585 5.74142 14.9 8.9999 14.9C12.2584 14.9 14.8999 12.2585 14.8999 9.00002C14.8999 5.74154 12.2584 3.10002 8.9999 3.10002ZM1.8999 9.00002C1.8999 5.0788 5.07868 1.90002 8.9999 1.90002C12.9211 1.90002 16.0999 5.0788 16.0999 9.00002C16.0999 10.7446 15.4707 12.3422 14.4268 13.5783L17.9242 17.0757L17.0756 17.9242L13.5783 14.4269C12.3422 15.4708 10.7445 16.1 8.9999 16.1C5.07868 16.1 1.8999 12.9212 1.8999 9.00002ZM6.5 9.6H11.5V8.4H6.5V9.6Z" fill="#09101C"/>
</svg>
