<svg width="20" height="20" viewBox="0 0 20 20" fill="none" xmlns="http://www.w3.org/2000/svg">
<path fill-rule="evenodd" clip-rule="evenodd" d="M7.99986 1.94397C7.23844 1.98365 6.56462 2.05383 5.97164 2.16875C4.89796 2.37683 4.03477 2.74154 3.3881 3.38821C2.74143 4.03488 2.37671 4.89808 2.16863 5.97176C2.05371 6.56475 1.98353 7.2386 1.94385 8.00004H3.14558C3.18351 7.30646 3.24754 6.71178 3.34671 6.20007C3.52926 5.25812 3.82079 4.65257 4.23662 4.23674C4.65245 3.82091 5.258 3.52938 6.19995 3.34683C6.71165 3.24767 7.3063 3.18363 7.99986 3.1457V1.94397ZM11.9999 3.1457V1.94397C12.7613 1.98365 13.4351 2.05383 14.0281 2.16875C15.1018 2.37683 15.965 2.74154 16.6116 3.38821C17.2583 4.03488 17.623 4.89808 17.8311 5.97176C17.946 6.56475 18.0162 7.2386 18.0559 8.00004H16.8541C16.8162 7.30646 16.7522 6.71178 16.653 6.20007C16.4705 5.25812 16.1789 4.65257 15.7631 4.23674C15.3473 3.82091 14.7417 3.52938 13.7998 3.34683C13.2881 3.24767 12.6934 3.18363 11.9999 3.1457ZM11.9999 16.8543C12.6934 16.8163 13.2881 16.7523 13.7998 16.6531C14.7417 16.4706 15.3473 16.179 15.7631 15.7632C16.1789 15.3474 16.4705 14.7418 16.653 13.7999C16.7522 13.2882 16.8162 12.6936 16.8541 12H18.0559C18.0162 12.7614 17.946 13.4352 17.8311 14.0282C17.623 15.1019 17.2583 15.9651 16.6116 16.6117C15.965 17.2584 15.1018 17.6231 14.0281 17.8312C13.4351 17.9461 12.7613 18.0163 11.9999 18.056V16.8543ZM3.14558 12C3.18352 12.6936 3.24755 13.2882 3.34671 13.7999C3.52926 14.7418 3.82079 15.3474 4.23662 15.7632C4.65245 16.179 5.258 16.4706 6.19995 16.6531C6.71165 16.7523 7.3063 16.8163 7.99986 16.8543V18.056C7.23844 18.0163 6.56462 17.9461 5.97164 17.8312C4.89796 17.6231 4.03477 17.2584 3.3881 16.6117C2.74143 15.9651 2.37671 15.1019 2.16863 14.0282C2.05372 13.4352 1.98354 12.7614 1.94385 12H3.14558Z" fill="black"/>
</svg>
