<svg fill="none" height="19" viewBox="0 0 20 19" width="20" xmlns="http://www.w3.org/2000/svg"><path clip-rule="evenodd" d="m12.7773 6.37542-2.3156-5.567436c-.1708-.410646-.75255-.410645-.92335.000001l-2.31563 5.567435-6.0105.48185c-.443331.03555-.623094.5888-.285326.87813l4.579376 3.9227-1.39908 5.8653c-.10319.4326.36744.7745.74699.5427l5.14582-3.1431 5.1458 3.1431c.3796.2318.8502-.1101.747-.5427l-1.399-5.8653 4.5793-3.9227c.3378-.28933.158-.84258-.2853-.87813zm3.0375 2.17595c.1689-.14466.079-.42129-.1426-.43906l-3.0148-.24169c-.5607-.04495-1.0491-.39981-1.2651-.91916l-1.1615-2.79252c-.0854-.20532-.37622-.20532-.46162 0l-1.16148 2.79252c-.21601.51935-.70442.87421-1.26511.91916l-3.01476.24169c-.22166.01777-.31154.2944-.14266.43906l2.29693 1.96753c.42719.366.61374.9401.48323 1.4873l-.70175 2.9419c-.0516.2163.18372.3872.37349.2713l2.58106-1.5765c.48002-.2932 1.08377-.2932 1.56377 0l2.581 1.5765c.1898.1159.4251-.055.3735-.2713l-.7017-2.9419c-.1305-.5472.056-1.1213.4832-1.4873z" fill="#939ba1" fill-rule="evenodd"/></svg>