<svg fill="none" height="20" viewBox="0 0 18 20" width="18" xmlns="http://www.w3.org/2000/svg"><path clip-rule="evenodd" d="m9.38206 9.00034c-.28455-.31792-.42025-.74198-.37314-1.16603l.30283-2.72546c.05391-.48514-.54802-.7521-.87144-.3865l-4.37559 4.94632c-.28547.32271-.05636.83133.3745.83133h1.94326c1.49003 0 2.64926 1.2951 2.48471 2.776l-.17944 1.6151c-.05391.4851.54802.7521.87144.3865l4.37561-4.9464c.2855-.3227.0563-.83125-.3745-.83125h-3.0606c-.4266 0-.83309-.18169-1.11764-.49961zm-1.83658 10.81746c-.32341.3656-.92534.0987-.87144-.3865l.70233-6.3209c.06582-.5924-.39787-1.1104-.99389-1.1104h-4.71793c-.64629 0-.989961-.7629-.56175-1.247l9.3512-10.570913c.3234-.365601.9254-.0986331.8715.386503l-.7641 6.87615c-.0329.29618.199.55521.497.55521h5.2765c.6463 0 .99.76287.5618 1.24693z" fill="#939ba1" fill-rule="evenodd"/></svg>