<svg width="24" height="24" viewBox="0 0 24 24" fill="none" xmlns="http://www.w3.org/2000/svg">
<path d="M12 24C18.6274 24 24 18.6274 24 12C24 5.37258 18.6274 0 12 0C5.37258 0 0 5.37258 0 12C0 18.6274 5.37258 24 12 24Z" fill="#FF0420"/>
<path d="M6.67066 17C5.59211 17 4.70846 16.7407 4.01964 16.2222C3.33988 15.6944 3 14.9445 3 13.9722C3 13.7685 3.02268 13.5185 3.06796 13.2222C3.18584 12.5556 3.3535 11.7546 3.57101 10.8194C4.1873 8.27314 5.77795 7 8.34289 7C9.04077 7 9.66612 7.12036 10.219 7.36107C10.7719 7.59253 11.2069 7.94442 11.5241 8.41666C11.8413 8.87958 12 9.43518 12 10.0833C12 10.2777 11.9773 10.5231 11.932 10.8194C11.796 11.6435 11.6329 12.4445 11.4425 13.2222C11.1253 14.4907 10.577 15.4398 9.79755 16.0694C9.01809 16.6898 7.97584 17 6.67066 17ZM6.86099 15C7.3686 15 7.79905 14.8472 8.15256 14.5417C8.51511 14.2361 8.77341 13.7685 8.92745 13.1389C9.1359 12.2685 9.29457 11.5092 9.40333 10.8611C9.43955 10.6666 9.45767 10.4676 9.45767 10.2638C9.45767 9.42126 9.02715 8.99994 8.16618 8.99994C7.65857 8.99994 7.22355 9.15272 6.86099 9.45827C6.50756 9.7639 6.25376 10.2315 6.09972 10.8611C5.93655 11.4815 5.77339 12.2407 5.61029 13.1389C5.574 13.324 5.55588 13.5185 5.55588 13.7222C5.55588 14.5741 5.99097 15 6.86099 15Z" fill="white"/>
<path d="M13.2721 17C13.1751 17 13.1001 16.9667 13.0472 16.9C13.0031 16.8238 12.9899 16.7381 13.0076 16.6429L14.8325 7.35715C14.8501 7.25238 14.8986 7.16666 14.978 7.09996C15.0573 7.03335 15.141 7 15.2292 7H18.7469C19.7254 7 20.51 7.21904 21.1007 7.65711C21.7003 8.09527 22 8.72855 22 9.55712C22 9.79519 21.9736 10.0429 21.9206 10.3C21.7003 11.3952 21.2551 12.2048 20.585 12.7286C19.9238 13.2524 19.0157 13.5143 17.8608 13.5143H16.0756L15.4673 16.6429C15.4496 16.7476 15.4011 16.8333 15.3218 16.9C15.2425 16.9667 15.1587 17 15.0706 17H13.2721ZM17.9534 11.5429C18.3236 11.5429 18.6454 11.4333 18.9187 11.2143C19.2009 10.9952 19.386 10.6809 19.4742 10.2714C19.5006 10.1095 19.5139 9.96665 19.5139 9.84285C19.5139 9.56664 19.4389 9.35712 19.289 9.21429C19.1391 9.06187 18.8835 8.98573 18.522 8.98573H16.9351L16.4326 11.5429H17.9534Z" fill="white"/>
</svg>
