<svg width="24" height="24" viewBox="0 0 24 24" fill="none" xmlns="http://www.w3.org/2000/svg">
<path d="M0 12C0 5.37258 5.37258 0 12 0C18.6274 0 24 5.37258 24 12C24 18.6274 18.6274 24 12 24C5.37258 24 0 18.6274 0 12Z" fill="#EEF2F5"/>
<path fill-rule="evenodd" clip-rule="evenodd" d="M14.167 9.94863C13.9336 9.5226 14.0558 8.99967 14.309 8.58507C14.8079 7.76799 14.8079 6.74048 14.309 5.9234C13.8452 5.16387 13.0195 4.70056 12.1295 4.70056H11.8765C10.9865 4.70056 10.1608 5.16387 9.69698 5.9234C9.19806 6.74048 9.19806 7.76799 9.69698 8.58507C9.96082 9.01714 10.0919 9.56352 9.84598 10.006L8.29044 12.8051C8.10585 13.1373 7.71858 13.2881 7.33857 13.2881H7.0855C6.19556 13.2881 5.36981 13.7514 4.90602 14.511C4.4071 15.3281 4.4071 16.3556 4.90602 17.1726C5.36981 17.9322 6.19556 18.3955 7.0855 18.3955H7.33857C8.22851 18.3955 9.05426 17.9322 9.51805 17.1726C9.63209 16.9859 9.72006 16.7881 9.78197 16.5844C9.79369 16.5458 9.82974 16.5198 9.87004 16.5198H14.1715C14.1913 16.5198 14.2089 16.5328 14.2144 16.5518C14.2766 16.767 14.3678 16.9759 14.4879 17.1726C14.9517 17.9322 15.7775 18.3955 16.6674 18.3955H16.9205C17.8104 18.3955 18.6362 17.9322 19.1 17.1726C19.5989 16.3556 19.5989 15.3281 19.1 14.511C18.6362 13.7514 17.8104 13.2881 16.9205 13.2881H16.6674C16.294 13.2881 15.9143 13.1377 15.7348 12.8102L14.167 9.94863ZM10.9982 10.2589C11.169 9.95142 11.5247 9.80791 11.8765 9.80791H12.1295C12.5036 9.80791 12.884 9.95854 13.0637 10.2866L14.6303 13.1457C14.864 13.5723 14.7414 14.0959 14.4879 14.511C14.2027 14.9781 13.7557 15.3898 13.2085 15.3898H9.87004C9.8594 15.3898 9.85056 15.3819 9.84861 15.3715C9.79251 15.0718 9.68232 14.78 9.51805 14.511C9.26801 14.1015 9.15017 13.5843 9.38323 13.1649L10.9982 10.2589ZM10.9747 7.25423C10.9747 7.82212 11.4351 8.28248 12.003 8.28248C12.2757 8.28248 12.5372 8.17415 12.7301 7.98132C12.9229 7.78848 13.0312 7.52694 13.0312 7.25423C13.0312 6.68635 12.5709 6.22598 12.003 6.22598C11.4351 6.22598 10.9747 6.68635 10.9747 7.25423ZM7.21204 16.8701C6.64415 16.8701 6.18379 16.4097 6.18379 15.8418C6.18379 15.2739 6.64415 14.8136 7.21204 14.8136C7.77992 14.8136 8.24028 15.2739 8.24028 15.8418C8.24028 16.1145 8.13195 16.3761 7.93912 16.5689C7.74628 16.7617 7.48474 16.8701 7.21204 16.8701ZM17.521 16.5689C17.3282 16.7617 17.0667 16.8701 16.794 16.8701C16.2261 16.8701 15.7657 16.4097 15.7657 15.8418C15.7657 15.2739 16.2261 14.8136 16.794 14.8136C17.3618 14.8136 17.8222 15.2739 17.8222 15.8418C17.8222 16.1145 17.7139 16.3761 17.521 16.5689Z" fill="#939BA1"/>
<path d="M12 23C5.92487 23 1 18.0751 1 12H-1C-1 19.1797 4.8203 25 12 25V23ZM23 12C23 18.0751 18.0751 23 12 23V25C19.1797 25 25 19.1797 25 12H23ZM12 1C18.0751 1 23 5.92487 23 12H25C25 4.8203 19.1797 -1 12 -1V1ZM12 -1C4.8203 -1 -1 4.8203 -1 12H1C1 5.92487 5.92487 1 12 1V-1Z" fill="black" fill-opacity="0.1"/>
</svg>
