<svg width="24" height="24" viewBox="0 0 24 24" fill="none" xmlns="http://www.w3.org/2000/svg">
<path d="M12 24C5.37258 24 0 18.6274 0 12C0 5.37258 5.37258 0 12 0C18.6274 0 24 5.37258 24 12C24 18.6274 18.6274 24 12 24Z" fill="#627EEA"/>
<g clip-path="url(#clip0_7256_79207)">
<path d="M11.7616 3.12L11.7616 3.552L11.7616 14.856V15.3205L6.34011 12.1158L11.7616 3.12Z" fill="white"/>
<path d="M11.7616 3.12L17.1832 12.1158L11.7616 15.3205V9.65147V3.12Z" fill="white"/>
<path d="M11.7616 16.3469V16.8L11.7616 20.424L11.7616 20.7839L6.3368 13.1439L11.7616 16.3469Z" fill="white"/>
<path d="M11.7616 20.7839V16.3469L17.1832 13.1439L11.7616 20.7839Z" fill="white"/>
<path d="M11.7616 15.3205L6.34011 12.1158L11.7616 9.65146V15.3205Z" fill="white"/>
<path d="M17.1832 12.1158L11.7616 15.3205V9.65146L17.1832 12.1158Z" fill="white"/>
</g>
<defs>
<clipPath id="clip0_7256_79207">
<rect width="17.664" height="17.664" fill="white" transform="matrix(-1 0 0 1 20.592 3.12)"/>
</clipPath>
</defs>
</svg>
