<svg width="24" height="24" viewBox="0 0 24 24" fill="none" xmlns="http://www.w3.org/2000/svg">
<rect width="24" height="24" rx="12" fill="#7B3FE4"/>
<path d="M19.5396 5.83825L13.3332 2.2316C12.8886 1.97531 12.3852 1.84048 11.8728 1.84048C11.3605 1.84048 10.857 1.97531 10.4125 2.2316L4.20604 5.83825C3.76195 6.09619 3.39318 6.46719 3.13683 6.91398C2.88049 7.36078 2.74559 7.8676 2.7457 8.38348V15.6115C2.7494 16.1237 2.88613 16.6259 3.14227 17.0685C3.39843 17.5111 3.76514 17.8785 4.20604 18.1347L10.4125 21.7414C10.8565 21.9992 11.3602 22.1349 11.8728 22.1349C12.3855 22.1349 12.8892 21.9992 13.3332 21.7414L19.5396 18.1347C19.9838 17.8767 20.3525 17.5057 20.6088 17.0589C20.8653 16.6122 21.0002 16.1053 21 15.5895V8.36144C20.9963 7.84931 20.8596 7.34704 20.6033 6.90444C20.3472 6.46185 19.9805 6.0943 19.5396 5.83825ZM4.20604 8.38348C4.20566 8.12523 4.27296 7.87144 4.40114 7.64769C4.52934 7.42395 4.71389 7.23814 4.93621 7.10903L11.1427 3.50605C11.3644 3.3762 11.6163 3.30779 11.8728 3.30779C12.1294 3.30779 12.3813 3.3762 12.603 3.50605L18.8095 7.10903C19.0285 7.23627 19.2111 7.41859 19.339 7.63814C19.4672 7.85768 19.5362 8.10694 19.5396 8.36144V9.09599C19.5376 9.6678 19.3107 10.2156 18.9086 10.6196C18.5063 11.0236 17.9614 11.2509 17.3929 11.2519H6.35274C5.57889 11.25 4.82544 11.5014 4.20604 11.9681V8.38348ZM19.5396 15.5895C19.54 15.8477 19.4727 16.1015 19.3445 16.3251C19.2164 16.549 19.0318 16.7348 18.8095 16.8639L12.603 20.4669C12.381 20.5958 12.1292 20.6638 11.8728 20.6638C11.6165 20.6638 11.3647 20.5958 11.1427 20.4669L4.93621 16.8639C4.71709 16.7367 4.53458 16.5543 4.40658 16.3347C4.27858 16.1152 4.20947 15.866 4.20604 15.6115V14.877C4.20798 14.3051 4.43488 13.7573 4.83715 13.3533C5.23942 12.9493 5.78432 12.722 6.35274 12.721H17.3929C18.1667 12.7229 18.9203 12.4715 19.5396 12.0048V15.5895Z" fill="white"/>
<path d="M8.47759 8.01622H9.89412V10.1501H11.3545V8.01622C11.3545 7.6266 11.2006 7.25291 10.9267 6.9774C10.6529 6.70189 10.2814 6.54712 9.89412 6.54712H8.47759C8.09028 6.54712 7.71885 6.70189 7.44498 6.9774C7.17111 7.25291 7.01724 7.6266 7.01724 8.01622V10.1501H8.47759V8.01622Z" fill="white"/>
<path d="M9.89412 15.9568H8.47759V13.8229H7.01724V15.9568C7.01724 16.3464 7.17111 16.7201 7.44498 16.9956C7.71885 17.2711 8.09028 17.4259 8.47759 17.4259H9.89412C10.2814 17.4259 10.6529 17.2711 10.9267 16.9956C11.2006 16.7201 11.3545 16.3464 11.3545 15.9568V13.8229H9.89412V15.9568Z" fill="white"/>
<path d="M14.2313 8.01622H15.6515V10.1501H17.1118V8.01622C17.1118 7.6266 16.958 7.25291 16.6841 6.9774C16.4103 6.70189 16.0388 6.54712 15.6515 6.54712H14.2313C13.844 6.54712 13.4726 6.70189 13.1987 6.9774C12.9248 7.25291 12.771 7.6266 12.771 8.01622V10.1501H14.2313V8.01622Z" fill="white"/>
<path d="M15.6515 15.9568H14.2313V13.8229H12.771V15.9568C12.771 16.3464 12.9248 16.7201 13.1987 16.9956C13.4726 17.2711 13.844 17.4259 14.2313 17.4259H15.6515C16.0388 17.4259 16.4103 17.2711 16.6841 16.9956C16.958 16.7201 17.1118 16.3464 17.1118 15.9568V13.8229H15.6515V15.9568Z" fill="white"/>
</svg>
