<svg fill="none" height="24" viewBox="0 0 24 24" width="24" xmlns="http://www.w3.org/2000/svg"><path clip-rule="evenodd" d="m3.20005 12c0-4.8601 3.93989-8.8 8.79995-8.8 4.8602 0 8.8 3.9399 8.8 8.8s-3.9398 8.8-8.8 8.8c-4.86006 0-8.79995-3.9399-8.79995-8.8zm8.79995-10.2c-5.63326 0-10.19995 4.5667-10.19995 10.2s4.56669 10.2 10.19995 10.2c5.6334 0 10.2-4.5667 10.2-10.2s-4.5666-10.2-10.2-10.2zm-.7452 7.41672c-.256.13475-.4796.26364-.6669.38166l3.8147 3.81402c.118-.1872.2468-.4106.3814-.6665.3156-.5996.6334-1.3198.8873-2.0391.2557-.72475.4358-1.41855.4941-1.97249.0291-.27724.0247-.49205-.0019-.64536-.0239-.13777-.058-.18395-.0623-.18944-.0054-.00425-.0516-.03835-.1894-.06225-.1533-.0266-.3681-.03105-.6454-.00188-.5539.05827-1.2477.23834-1.9724.49409-.7194.25385-1.4395.57166-2.0392.88725zm-2.03779 2.03778c.13456-.2556.26328-.4788.38116-.666l3.81453 3.8138c-.1873.118-.4107.2468-.6665.3814-.5998.3157-1.32.6337-2.0395.8876-.72489.2559-1.41884.4361-1.97288.4945-.2773.0292-.49214.0248-.64548-.0018-.13766-.0239-.18386-.0579-.18939-.0622-.00427-.0055-.03833-.0517-.06219-.1894-.02658-.1533-.031-.3682-.00179-.6455.05836-.554.23856-1.248.49444-1.9728.25397-.7195.57192-1.4398.8876-2.0396zm6.93409-4.79664c.3209.05567.6695.18096.9402.45163.2706.27067.3959.61927.4516.94016.0563.3245.0519.67866.0148 1.03113-.0742.7055-.2918 1.51412-.5662 2.29192-.2764.7831-.6213 1.5655-.9686 2.2252-.3372.6408-.7087 1.2283-1.0524 1.5721-.3438.3438-.9314.7153-1.5722 1.0526-.6599.3473-1.4423.6924-2.2256.9689-.7779.2746-1.58664.4923-2.29222.5666-.35252.0371-.70672.0416-1.03125-.0147-.32092-.0556-.66959-.1809-.9403-.4516-.27072-.2707-.39597-.6194-.4516-.9403-.05625-.3245-.05179-.6787-.01466-1.0312.07432-.7056.292-1.5144.56657-2.2922.27649-.7833.62159-1.5658.96891-2.2256.33732-.6409.70884-1.22844 1.05261-1.57221.34379-.34379.93127-.71524 1.57204-1.05247.6598-.34723 1.4421-.6922 2.2253-.96856.7777-.27445 1.5864-.49199 2.2919-.5662.3524-.03708.7066-.04149 1.0311.0148z" fill="#09101c" fill-rule="evenodd"/></svg>