<svg fill="none" height="24" viewBox="0 0 24 24" width="24" xmlns="http://www.w3.org/2000/svg"><path clip-rule="evenodd" d="m1.80005 10.1c0-4.58392 3.71604-8.29995 8.30005-8.29995h3.342c4.8369 0 8.758 3.92107 8.758 8.75795 0 3.1035-1.6425 5.9752-4.3175 7.5488l-6.7943 3.9966-1.0549.6205v-1.2239-3.1002c-4.55329-.0358-8.23335-3.738-8.23335-8.2998zm8.30005-6.89995c-3.81082 0-6.90005 3.08923-6.90005 6.89995 0 3.8108 3.08923 6.9 6.89995 6.9h.6334.7v.7 2.5762l5.7393-3.3761c2.2474-1.322 3.6273-3.7347 3.6273-6.3421 0-4.06368-3.2942-7.35795-7.3579-7.35795z" fill="#09101c" fill-rule="evenodd"/></svg>