<svg fill="none" height="24" viewBox="0 0 24 24" width="24" xmlns="http://www.w3.org/2000/svg"><path clip-rule="evenodd" d="m6.00005 2.7c-1.82254 0-3.3 1.47746-3.3 3.3s1.47746 3.3 3.3 3.3 3.3-1.47746 3.3-3.3-1.47746-3.3-3.3-3.3zm-4.7 3.3c0-2.59574 2.10426-4.7 4.7-4.7s4.69995 2.10426 4.69995 4.7c0 1.04533-.3412 2.01095-.91839 2.79153l2.00159 2.00157c1.1515-.9337 2.6188-1.49315 4.2169-1.49315 3.7003 0 6.7 2.99965 6.7 6.70005 0 3.7003-2.9997 6.7-6.7 6.7-3.7004 0-6.70005-2.9997-6.70005-6.7 0-1.5981.55946-3.0654 1.49315-4.2169l-2.00153-2.00161c-.7806.57721-1.74625.91851-2.79162.91851-2.59574 0-4.7-2.10426-4.7-4.7zm14.70005 4.7c-2.9272 0-5.3 2.3728-5.3 5.3 0 2.9271 2.3728 5.3 5.3 5.3 2.9271 0 5.3-2.3729 5.3-5.3 0-2.9272-2.3729-5.3-5.3-5.3z" fill="#09101c" fill-rule="evenodd"/></svg>