<svg width="24" height="24" viewBox="0 0 24 24" fill="none" xmlns="http://www.w3.org/2000/svg">
<path fill-rule="evenodd" clip-rule="evenodd" d="M17.0469 8.81019L15.0466 6.31L13.9534 7.18461L15.0437 8.54731L6.5 8.54731V9.94731L15.0438 9.94731L13.9534 11.31L15.0466 12.1847L17.0469 9.68484L17.3968 9.24753L17.0469 8.81019Z" fill="#09101C"/>
<path fill-rule="evenodd" clip-rule="evenodd" d="M6.95337 15.1849L8.95342 17.6846L10.0466 16.81L8.95623 15.4473L17.5 15.4473V14.0473L8.95647 14.0473L10.0464 12.6845L8.9531 11.8101L6.95329 14.3104L6.60352 14.7477L6.95337 15.1849Z" fill="#09101C"/>
<path d="M12 2.49976C3.5 2.49976 2.5 3.49976 2.5 11.9998C2.5 20.4998 3.5 21.4998 12 21.4998C20.5 21.4998 21.5 20.4998 21.5 11.9998C21.5 3.49976 20.5 2.49976 12 2.49976Z" stroke="#09101C" stroke-width="1.4"/>
</svg>
