<svg width="20" height="20" viewBox="0 0 20 20" fill="none" xmlns="http://www.w3.org/2000/svg">
<path fill-rule="evenodd" clip-rule="evenodd" d="M10.9375 5C10.9375 4.48223 10.5178 4.0625 10 4.0625C9.48223 4.0625 9.0625 4.48223 9.0625 5V8.5625C9.0625 8.83864 8.83864 9.0625 8.5625 9.0625H5C4.48223 9.0625 4.0625 9.48223 4.0625 10C4.0625 10.5178 4.48223 10.9375 5 10.9375H8.5625C8.83864 10.9375 9.0625 11.1614 9.0625 11.4375V15C9.0625 15.5178 9.48223 15.9375 10 15.9375C10.5178 15.9375 10.9375 15.5178 10.9375 15V11.4375C10.9375 11.1614 11.1614 10.9375 11.4375 10.9375H15C15.5178 10.9375 15.9375 10.5178 15.9375 10C15.9375 9.48223 15.5178 9.0625 15 9.0625H11.4375C11.1614 9.0625 10.9375 8.83864 10.9375 8.5625V5Z" fill="black" fill-opacity="0.7"/>
</svg>
