<svg width="10" height="12" viewBox="0 0 10 12" fill="none" xmlns="http://www.w3.org/2000/svg">
<path d="M1.35355 5.02055C1.15829 5.21581 0.841709 5.21581 0.646447 5.02055C0.451184 4.82528 0.451184 4.5087 0.646447 4.31344L4.64645 0.313439C4.84171 0.118177 5.15829 0.118177 5.35355 0.313439L9.35355 4.31344C9.54882 4.5087 9.54882 4.82528 9.35355 5.02055C9.15829 5.21581 8.84171 5.21581 8.64645 5.02055L6.06904 2.44313C5.85905 2.23315 5.5 2.38187 5.5 2.67884V11.3337C5.5 11.6098 5.27614 11.8337 5 11.8337C4.72386 11.8337 4.5 11.6098 4.5 11.3337L4.5 2.67884C4.5 2.38187 4.14095 2.23315 3.93096 2.44313L1.35355 5.02055Z" fill="#4360DF"/>
</svg>
