<svg width="16" height="16" viewBox="0 0 16 16" fill="none" xmlns="http://www.w3.org/2000/svg">
<path fill-rule="evenodd" clip-rule="evenodd" d="M10.1873 12.6668C9.96313 12.6668 9.80205 12.8855 9.82292 13.1087C9.82962 13.1804 9.83328 13.2553 9.83328 13.3335C9.83328 14.2594 9.02904 15.1668 7.99995 15.1668C6.97085 15.1668 6.16662 14.2594 6.16662 13.3335C6.16662 13.2553 6.17028 13.1804 6.17698 13.1087C6.19784 12.8855 6.03677 12.6668 5.81257 12.6668H3.68068C2.52316 12.6668 1.91546 11.2931 2.6941 10.4366L3.47867 9.57357C3.81915 9.19905 4.046 8.73536 4.13273 8.23669L4.87637 3.96073C5.14048 2.44212 6.45854 1.3335 7.99995 1.3335C9.54136 1.3335 10.8594 2.44211 11.1235 3.96073L11.8672 8.23668C11.9539 8.73535 12.1808 9.19905 12.5212 9.57357L13.3058 10.4366C14.0844 11.2931 13.4767 12.6668 12.3192 12.6668H10.1873ZM7.35483 12.6857L7.35418 12.6864L7.35935 12.6811L7.36097 12.6794C7.3618 12.6785 7.36222 12.678 7.36227 12.678C7.36253 12.6777 7.36229 12.6779 7.36227 12.678L7.36097 12.6794C7.36831 12.6717 7.37871 12.6668 7.38931 12.6668H8.61059C8.62119 12.6668 8.63124 12.6714 8.63858 12.6791C8.64051 12.6813 8.64525 12.687 8.65203 12.696C8.66736 12.7164 8.69261 12.7535 8.7194 12.8071C8.77216 12.9126 8.83328 13.0865 8.83328 13.3335C8.83328 13.7409 8.44361 14.1668 7.99995 14.1668C7.55628 14.1668 7.16662 13.7409 7.16662 13.3335C7.16662 13.0865 7.22773 12.9126 7.2805 12.8071C7.30729 12.7535 7.33254 12.7164 7.34787 12.696C7.35465 12.687 7.35905 12.6816 7.36097 12.6794L7.35935 12.6811L7.35811 12.6824L7.35603 12.6845L7.35483 12.6857ZM3.43404 11.1093L4.21861 10.2462C4.68676 9.73127 4.99869 9.0937 5.11794 8.40803L5.86158 4.13207C6.04239 3.09244 6.94472 2.3335 7.99995 2.3335C9.05518 2.3335 9.95751 3.09244 10.1383 4.13207L10.882 8.40803C11.0012 9.0937 11.3131 9.73127 11.7813 10.2462L12.5659 11.1093C12.7605 11.3234 12.6086 11.6668 12.3192 11.6668H3.68068C3.3913 11.6668 3.23938 11.3234 3.43404 11.1093Z" fill="#4360DF"/>
</svg>
