<svg width="20" height="20" viewBox="0 0 20 20" fill="none" xmlns="http://www.w3.org/2000/svg">
<path fill-rule="evenodd" clip-rule="evenodd" d="M1.875 15C1.875 7.75126 7.75126 1.875 15 1.875H15.8333C17.099 1.875 18.125 2.90101 18.125 4.16667V10.8333C18.125 12.099 17.099 13.125 15.8333 13.125H15C13.9645 13.125 13.125 13.9645 13.125 15V15.8333C13.125 17.099 12.099 18.125 10.8333 18.125H4.16667C2.90101 18.125 1.875 17.099 1.875 15.8333V15ZM15 3.125C8.44162 3.125 3.125 8.44162 3.125 15V15.8333C3.125 16.4086 3.59137 16.875 4.16667 16.875H4.79167C5.02179 16.875 5.20833 16.6885 5.20833 16.4583V15C5.20833 9.59221 9.59221 5.20833 15 5.20833H16.4583C16.6885 5.20833 16.875 5.02179 16.875 4.79167V4.16667C16.875 3.59137 16.4086 3.125 15.8333 3.125H15ZM8.54167 16.4583C8.54167 16.6885 8.35512 16.875 8.125 16.875H6.875C6.64488 16.875 6.45833 16.6885 6.45833 16.4583V15C6.45833 10.2826 10.2826 6.45833 15 6.45833H16.4583C16.6885 6.45833 16.875 6.64488 16.875 6.875V8.125C16.875 8.35512 16.6885 8.54167 16.4583 8.54167H15C11.4332 8.54167 8.54167 11.4332 8.54167 15V16.4583ZM9.79167 16.4583C9.79167 16.6885 9.97821 16.875 10.2083 16.875H10.8333C11.4086 16.875 11.875 16.4086 11.875 15.8333V15C11.875 13.2741 13.2741 11.875 15 11.875H15.8333C16.4086 11.875 16.875 11.4086 16.875 10.8333V10.2083C16.875 9.97821 16.6885 9.79167 16.4583 9.79167H15C12.1235 9.79167 9.79167 12.1235 9.79167 15V16.4583Z" fill="#4360DF"/>
</svg>
