<svg width="15" height="15" viewBox="0 0 15 15" fill="none" xmlns="http://www.w3.org/2000/svg">
<path d="M2.5 9.53125C2.24112 9.53125 2.03125 9.74112 2.03125 10C2.03125 10.2589 2.24112 10.4688 2.5 10.4688H7.5C7.75888 10.4688 7.96875 10.2589 7.96875 10C7.96875 9.74112 7.75888 9.53125 7.5 9.53125H2.5Z" fill="#939BA1"/>
<path d="M2.03125 7.5C2.03125 7.24112 2.24112 7.03125 2.5 7.03125H10C10.2589 7.03125 10.4688 7.24112 10.4688 7.5C10.4688 7.75888 10.2589 7.96875 10 7.96875H2.5C2.24112 7.96875 2.03125 7.75888 2.03125 7.5Z" fill="#939BA1"/>
<path d="M2.03125 5C2.03125 4.74112 2.24112 4.53125 2.5 4.53125H12.5C12.7589 4.53125 12.9688 4.74112 12.9688 5C12.9688 5.25888 12.7589 5.46875 12.5 5.46875H2.5C2.24112 5.46875 2.03125 5.25888 2.03125 5Z" fill="#939BA1"/>
</svg>
