<svg width="16" height="17" viewBox="0 0 16 17" fill="none" xmlns="http://www.w3.org/2000/svg">
<path fill-rule="evenodd" clip-rule="evenodd" d="M3.3106 5.08383C3.47498 5.21168 3.48295 5.45719 3.33272 5.60139C2.4528 6.44596 1.83196 7.31912 1.53385 7.77538C1.40473 7.97299 1.40473 8.22212 1.53385 8.41973C2.22374 9.4756 4.642 12.7642 7.99987 12.7642C9.27105 12.7642 10.4076 12.2929 11.3666 11.6499C11.4891 11.5678 11.6506 11.5705 11.767 11.661L13.6929 13.1589C13.9109 13.3285 14.225 13.2892 14.3945 13.0712C14.5641 12.8533 14.5248 12.5391 14.3068 12.3696L2.30683 3.03625C2.08886 2.86672 1.77472 2.90599 1.60518 3.12396C1.43565 3.34193 1.47492 3.65607 1.69289 3.82561L3.3106 5.08383ZM10.374 10.5776C10.5546 10.718 10.5431 10.9945 10.3435 11.1061C9.62297 11.5091 8.83558 11.7642 7.99987 11.7642C6.65503 11.7642 5.43533 11.1035 4.41804 10.2294C3.88269 9.76947 3.42963 9.27253 3.07451 8.83433C2.72544 8.40359 2.72544 7.79153 3.07451 7.36079C3.42963 6.92259 3.88269 6.42564 4.41804 5.96568C4.42534 5.95941 4.43603 5.95916 4.44362 5.96507L5.40697 6.71433C5.53334 6.81263 5.56978 6.98616 5.512 7.13547C5.39651 7.43392 5.33317 7.75834 5.33317 8.09756C5.33317 9.57031 6.52708 10.7642 7.99984 10.7642C8.57551 10.7642 9.10858 10.5818 9.54439 10.2716C9.67478 10.1788 9.85188 10.1715 9.97822 10.2697L10.374 10.5776ZM6.33895 7.95774C6.35758 7.73341 6.6183 7.65648 6.79599 7.79468L8.58974 9.18982C8.76734 9.32796 8.75719 9.59968 8.54453 9.67318C8.37384 9.73218 8.19058 9.76422 7.99984 9.76422C7.07936 9.76422 6.33317 9.01803 6.33317 8.09756C6.33317 8.05047 6.33512 8.00384 6.33895 7.95774Z" fill="#2946C4"/>
<path d="M5.90453 4.37541C5.71048 4.22448 5.74177 3.92363 5.97022 3.8328C6.59796 3.58322 7.27707 3.43091 7.99971 3.43091C11.3576 3.43091 13.7758 6.71953 14.4657 7.7754C14.5948 7.97301 14.5948 8.22214 14.4657 8.41975C14.2593 8.73564 13.8982 9.25136 13.4036 9.81907C13.2894 9.95007 13.0929 9.9664 12.9558 9.85973L12.6937 9.65584C12.5393 9.53578 12.5213 9.30948 12.6497 9.16203C12.7471 9.05026 12.839 8.94058 12.9251 8.83435C13.2741 8.4036 13.2741 7.79154 12.9251 7.3608C12.5699 6.9226 12.1169 6.42566 11.5815 5.9657C10.5642 5.09168 9.34454 4.43091 7.99971 4.43091C7.50066 4.43091 7.01885 4.5219 6.55821 4.68101C6.44751 4.71925 6.32438 4.70196 6.23193 4.63005L5.90453 4.37541Z" fill="#2946C4"/>
<path d="M10.574 7.39952C10.6468 7.6683 10.3434 7.82786 10.1236 7.65692L9.18908 6.93006C9.08479 6.82382 8.96638 6.7315 8.83688 6.65613L7.86996 5.90407C7.6638 5.74373 7.7385 5.43091 7.99968 5.43091C9.23091 5.43091 10.2672 6.26533 10.574 7.39952Z" fill="#2946C4"/>
</svg>
