<svg width="20" height="20" viewBox="0 0 20 20" fill="none" xmlns="http://www.w3.org/2000/svg">
<path fill-rule="evenodd" clip-rule="evenodd" d="M13.1999 10C13.1999 11.7673 11.7672 13.2 9.9999 13.2C8.23259 13.2 6.7999 11.7673 6.7999 10C6.7999 8.23271 8.23259 6.80002 9.9999 6.80002C11.7672 6.80002 13.1999 8.23271 13.1999 10ZM11.9999 10C11.9999 11.1046 11.1045 12 9.9999 12C8.89533 12 7.9999 11.1046 7.9999 10C7.9999 8.89546 8.89533 8.00002 9.9999 8.00002C11.1045 8.00002 11.9999 8.89546 11.9999 10Z" fill="#4360DF"/>
<path fill-rule="evenodd" clip-rule="evenodd" d="M2.24072 10.3866C3.06858 11.6537 5.9705 15.6 9.99994 15.6C14.0294 15.6 16.9313 11.6537 17.7592 10.3866C17.9141 10.1495 17.9141 9.85055 17.7592 9.61341C16.9313 8.34637 14.0294 4.40003 9.99994 4.40002C5.9705 4.40002 3.06858 8.34637 2.24072 9.61341C2.08578 9.85055 2.08578 10.1495 2.24072 10.3866ZM9.99994 14.4C8.38614 14.4 6.92249 13.6071 5.70175 12.5583C5.05933 12.0063 4.51565 11.41 4.08951 10.8842C3.67063 10.3673 3.67063 9.63279 4.08951 9.1159C4.51565 8.59006 5.05933 7.99372 5.70175 7.44177C6.92249 6.39295 8.38614 5.60002 9.99994 5.60002C11.6137 5.60003 13.0774 6.39295 14.2981 7.44177C14.9405 7.99372 15.4842 8.59006 15.9104 9.1159C16.3292 9.63279 16.3292 10.3673 15.9104 10.8841C15.4842 11.41 14.9405 12.0063 14.2981 12.5583C13.0774 13.6071 11.6137 14.4 9.99994 14.4Z" fill="#4360DF"/>
</svg>
