<svg width="16" height="16" viewBox="0 0 16 16" fill="none" xmlns="http://www.w3.org/2000/svg">
<path d="M10.6663 8.8335C10.6663 8.55735 10.8919 8.33786 11.1642 8.29237C12.5841 8.05519 13.6663 6.82073 13.6663 5.3335C13.6663 3.67664 12.3232 2.3335 10.6663 2.3335L5.33301 2.3335C3.67615 2.3335 2.33301 3.67664 2.33301 5.3335C2.33301 6.82073 3.41521 8.05519 4.8351 8.29237C5.10747 8.33786 5.33301 8.55735 5.33301 8.8335C5.33301 9.10964 5.10803 9.33678 4.834 9.30267C2.86036 9.05707 1.33301 7.37365 1.33301 5.3335C1.33301 3.12436 3.12387 1.3335 5.33301 1.3335L10.6663 1.3335C12.8755 1.3335 14.6663 3.12436 14.6663 5.3335C14.6663 7.37365 13.139 9.05707 11.1653 9.30267C10.8913 9.33677 10.6663 9.10964 10.6663 8.8335Z" fill="#4360DF"/>
<path d="M7.99968 4.8335C8.27582 4.8335 8.49968 5.05735 8.49968 5.3335V11.9883C8.49968 12.2853 8.85872 12.434 9.06871 12.224L10.3128 10.9799C10.508 10.7847 10.8246 10.7847 11.0199 10.9799C11.2152 11.1752 11.2152 11.4918 11.0199 11.687L8.35323 14.3537C8.15797 14.549 7.84138 14.549 7.64612 14.3537L4.97945 11.687C4.78419 11.4918 4.78419 11.1752 4.97945 10.9799C5.17472 10.7847 5.4913 10.7847 5.68656 10.9799L6.93064 12.224C7.14063 12.434 7.49968 12.2853 7.49968 11.9883V5.3335C7.49968 5.05735 7.72353 4.8335 7.99968 4.8335Z" fill="#4360DF"/>
</svg>
