<svg width="20" height="19" viewBox="0 0 20 19" fill="none" xmlns="http://www.w3.org/2000/svg">
<path d="M15.7503 4.19344C15.7808 4.41937 15.5972 4.61039 15.3692 4.61039H14.6065C14.4011 4.61039 14.2317 4.45413 14.1908 4.25286C13.8385 2.51665 12.2501 1.43102 10.0852 1.43102C7.64738 1.43102 5.9682 2.80335 5.9682 4.67858C5.9682 6.51972 7.74967 7.38062 9.4459 7.85795L10.7581 8.23461C10.794 8.24491 10.8312 8.25014 10.8685 8.25014H19.2693C19.6728 8.25014 20 8.58592 20 9.00014C20 9.41435 19.6728 9.75014 19.2693 9.75014H15.5374C15.1521 9.75014 14.9603 10.2812 15.1992 10.5835C15.7084 11.2277 16.0263 12.0373 16.0263 13.066C16.0263 15.8618 13.7589 18.0013 9.97437 18.0013C6.59769 18.0013 4.40001 16.294 4.01985 13.7646C3.98542 13.5356 4.17013 13.3387 4.40171 13.3387H5.24177C5.44996 13.3387 5.62066 13.4993 5.65915 13.7039C6.00505 15.5429 7.76397 16.5437 9.97437 16.5437C12.5827 16.5437 14.4835 15.1373 14.4835 13.0404C14.4835 11.2589 13.0003 10.4492 10.8353 9.81842L10.6581 9.76637C10.6215 9.7556 10.5835 9.75014 10.5454 9.75014H0.730741C0.327164 9.75014 0 9.41435 0 9.00014C0 8.58592 0.327163 8.25014 0.73074 8.25014H5.09893C5.50213 8.25014 5.68953 7.66156 5.41735 7.36409C4.77078 6.65745 4.42539 5.7931 4.42539 4.74677C4.42539 1.93392 6.90581 -0.000976562 10.1278 -0.000976562C13.2026 -0.000976562 15.4216 1.75649 15.7503 4.19344Z" fill="#939BA1"/>
</svg>
