<svg width="16" height="16" viewBox="0 0 16 16" fill="none" xmlns="http://www.w3.org/2000/svg">
<path fill-rule="evenodd" clip-rule="evenodd" d="M9.50072 8.31038C9.66211 8.22884 9.86201 8.27133 9.98016 8.40821C10.4692 8.97475 11.1925 9.33333 11.9997 9.33333C13.4724 9.33333 14.6663 8.13943 14.6663 6.66667C14.6663 5.19391 13.4724 4 11.9997 4C11.8038 4 11.6129 4.02111 11.4291 4.06118C11.2525 4.09968 11.067 4.01392 10.9866 3.85205C10.4412 2.75437 9.30854 2 7.99967 2C6.69081 2 5.55814 2.75438 5.01273 3.85206C4.9323 4.01393 4.74686 4.09968 4.57025 4.06118C4.38643 4.02111 4.19552 4 3.99967 4C2.52692 4 1.33301 5.19391 1.33301 6.66667C1.33301 8.13943 2.52692 9.33333 3.99967 9.33333C4.8068 9.33333 5.53017 8.97475 6.01918 8.40821C6.13732 8.27132 6.33723 8.22884 6.49862 8.31037C6.94975 8.53828 7.45972 8.66667 7.99967 8.66667C8.53963 8.66667 9.04959 8.53828 9.50072 8.31038ZM10.333 5.33333C10.333 6.622 9.28834 7.66667 7.99967 7.66667C6.71101 7.66667 5.66634 6.622 5.66634 5.33333C5.66634 4.04467 6.71101 3 7.99967 3C9.28834 3 10.333 4.04467 10.333 5.33333ZM10.69 7.30176C10.6077 7.41411 10.5896 7.56636 10.6741 7.67708C10.9786 8.07597 11.4591 8.33333 11.9997 8.33333C12.9201 8.33333 13.6663 7.58714 13.6663 6.66667C13.6663 5.74619 12.9201 5 11.9997 5C11.8284 5 11.6632 5.02583 11.5077 5.07381C11.3971 5.10792 11.333 5.21762 11.333 5.33333C11.333 6.06962 11.0943 6.75016 10.69 7.30176ZM4.49169 5.07381C4.33617 5.02583 4.17094 5 3.99967 5C3.0792 5 2.33301 5.74619 2.33301 6.66667C2.33301 7.58714 3.0792 8.33333 3.99967 8.33333C4.54026 8.33333 5.02074 8.07596 5.32525 7.67707C5.40977 7.56635 5.39167 7.4141 5.30933 7.30175C4.90506 6.75015 4.66634 6.06962 4.66634 5.33333C4.66634 5.21763 4.60225 5.10793 4.49169 5.07381Z" fill="#4360DF"/>
<path d="M3.43124 14.0246C3.68699 14.0885 3.94597 13.9427 4.05542 13.7029C4.73828 12.2066 6.24754 11.1667 7.9997 11.1667C9.77863 11.1667 11.3072 12.2386 11.9747 13.7718C12.0856 14.0265 12.3649 14.1775 12.6301 14.0947C12.892 14.0128 13.0411 13.7337 12.9371 13.4797C12.1409 11.5359 10.2302 10.1667 7.9997 10.1667C5.80237 10.1667 3.91541 11.4955 3.09856 13.3934C2.98387 13.6599 3.14977 13.9542 3.43124 14.0246Z" fill="#4360DF"/>
</svg>
