<svg width="24" height="24" viewBox="0 0 24 24" fill="none" xmlns="http://www.w3.org/2000/svg">
<path fill-rule="evenodd" clip-rule="evenodd" d="M8.81097 18.6376C8.88733 18.4153 9.08702 18.25 9.32207 18.25H14.6779C14.913 18.25 15.1127 18.4153 15.189 18.6376C15.6612 20.0122 16.9652 21 18.5 21C20.433 21 22 19.433 22 17.5C22 15.567 20.433 14 18.5 14C18.3036 14 18.111 14.0162 17.9234 14.0473C17.6919 14.0857 17.4521 13.9888 17.3402 13.7824L14.4788 8.50306C14.3669 8.29657 14.4168 8.04247 14.5758 7.86966C15.1496 7.24627 15.5 6.41406 15.5 5.50002C15.5 3.56702 13.933 2.00002 12 2.00002C10.067 2.00002 8.5 3.56702 8.5 5.50002C8.5 6.41407 8.85039 7.24629 9.42419 7.86968C9.58324 8.04249 9.63314 8.29658 9.52122 8.50307L6.65991 13.7825C6.54808 13.9888 6.30822 14.0857 6.07669 14.0473C5.88908 14.0162 5.69643 14 5.5 14C3.567 14 2 15.567 2 17.5C2 19.433 3.567 21 5.5 21C7.03476 21 8.3388 20.0122 8.81097 18.6376ZM10.8401 9.21759C10.9519 9.01126 11.1918 8.91435 11.4233 8.95273C11.6109 8.98383 11.8036 9.00002 12 9.00002C12.1964 9.00002 12.3891 8.98383 12.5767 8.95273C12.8082 8.91434 13.0481 9.01125 13.1599 9.21757L16.0213 14.4969C16.1332 14.7034 16.0833 14.9575 15.9243 15.1303C15.6004 15.4821 15.3477 15.9005 15.189 16.3625C15.1126 16.5848 14.913 16.75 14.6779 16.75H9.32207C9.08702 16.75 8.88735 16.5848 8.811 16.3625C8.65231 15.9005 8.39964 15.4822 8.07582 15.1304C7.91676 14.9576 7.86688 14.7035 7.97879 14.497L10.8401 9.21759ZM7.5 17.5C7.5 18.6046 6.60457 19.5 5.5 19.5C4.39543 19.5 3.5 18.6046 3.5 17.5C3.5 16.3955 4.39543 15.5 5.5 15.5C6.60457 15.5 7.5 16.3955 7.5 17.5ZM20.5 17.5C20.5 18.6046 19.6046 19.5 18.5 19.5C17.3954 19.5 16.5 18.6046 16.5 17.5C16.5 16.3955 17.3954 15.5 18.5 15.5C19.6046 15.5 20.5 16.3955 20.5 17.5ZM14 5.50002C14 6.60458 13.1046 7.50002 12 7.50002C10.8954 7.50002 10 6.60458 10 5.50002C10 4.39545 10.8954 3.50002 12 3.50002C13.1046 3.50002 14 4.39545 14 5.50002Z" fill="#4360DF"/>
</svg>
