<svg width="14" height="14" viewBox="0 0 14 14" fill="none" xmlns="http://www.w3.org/2000/svg">
<path d="M8.6891 4.24964C8.6891 3.7664 8.31098 3.27219 7.84455 3.14582C7.37812 3.01944 7 3.30874 7 3.79199C7 4.27524 7.37812 4.76944 7.84455 4.89582C8.31098 5.02219 8.6891 4.73289 8.6891 4.24964Z" fill="#939BA1"/>
<path fill-rule="evenodd" clip-rule="evenodd" d="M7 1.16699C5.067 1.16699 3.5 2.734 3.5 4.66699C3.5 6.36315 4.70653 7.7775 6.30817 8.09863C6.45243 8.12755 6.5625 8.25034 6.5625 8.39747L6.5625 12.2503C6.5625 12.492 6.75837 12.6878 7 12.6878C7.24162 12.6878 7.4375 12.492 7.4375 12.2503L7.4375 8.39747C7.4375 8.25034 7.54757 8.12755 7.69183 8.09863C9.29347 7.7775 10.5 6.36315 10.5 4.66699C10.5 2.734 8.933 1.16699 7 1.16699ZM4.375 4.66699C4.375 6.11674 5.55025 7.29199 7 7.29199C8.44975 7.29199 9.625 6.11674 9.625 4.66699C9.625 3.21724 8.44975 2.04199 7 2.04199C5.55025 2.04199 4.375 3.21724 4.375 4.66699Z" fill="#939BA1"/>
</svg>
