<svg width="20" height="19" viewBox="0 0 20 19" fill="none" xmlns="http://www.w3.org/2000/svg">
<path d="M6.85365 15.7033C6.52223 15.4548 6.05005 15.4497 5.75716 15.7426C5.46426 16.0355 5.46194 16.5142 5.78534 16.773C6.94028 17.6973 8.40549 18.25 9.9998 18.25C13.7277 18.25 16.7498 15.2279 16.7498 11.5V11.0176C16.7498 10.5721 17.2884 10.349 17.6034 10.664L18.4697 11.5303C18.7626 11.8232 19.2374 11.8232 19.5303 11.5303C19.8232 11.2374 19.8232 10.7626 19.5303 10.4697L16.5303 7.46967C16.2374 7.17678 15.7626 7.17678 15.4697 7.46967L12.4697 10.4697C12.1768 10.7626 12.1768 11.2374 12.4697 11.5303C12.7626 11.8232 13.2374 11.8232 13.5303 11.5303L14.3962 10.6644C14.7112 10.3494 15.2498 10.5725 15.2498 11.018V11.5C15.2498 14.3995 12.8993 16.75 9.9998 16.75C8.81964 16.75 7.73043 16.3606 6.85365 15.7033Z" fill="black"/>
<path d="M4.53033 10.5303L7.53033 7.53033C7.82322 7.23744 7.82322 6.76256 7.53033 6.46967C7.23744 6.17678 6.76256 6.17678 6.46967 6.46967L5.60278 7.33656C5.30293 7.63641 4.79024 7.42405 4.79024 7C4.79024 4.1005 7.14075 1.75 10.0402 1.75C11.2204 1.75 12.3096 2.1394 13.1864 2.79673C13.5178 3.04519 13.99 3.05025 14.2829 2.75736C14.5758 2.46447 14.5781 1.98584 14.2547 1.72703C13.0998 0.802734 11.6345 0.25 10.0402 0.25C6.31232 0.25 3.29024 3.27208 3.29024 7V7.02247C3.29024 7.46793 2.75167 7.69101 2.43669 7.37603L1.53033 6.46967C1.23744 6.17678 0.762563 6.17678 0.46967 6.46967C0.176777 6.76256 0.176777 7.23744 0.46967 7.53033L3.46967 10.5303C3.76256 10.8232 4.23744 10.8232 4.53033 10.5303Z" fill="black"/>
</svg>
