<svg width="13" height="12" viewBox="0 0 13 12" fill="none" xmlns="http://www.w3.org/2000/svg">
<path fill-rule="evenodd" clip-rule="evenodd" d="M6.00033 6.66667C7.84127 6.66667 9.33366 5.17428 9.33366 3.33333C9.33366 1.49238 7.84127 0 6.00033 0C4.15938 0 2.66699 1.49238 2.66699 3.33333C2.66699 5.17428 4.15938 6.66667 6.00033 6.66667ZM6.00033 5.66667C7.28899 5.66667 8.33366 4.622 8.33366 3.33333C8.33366 2.04467 7.28899 1 6.00033 1C4.71166 1 3.66699 2.04467 3.66699 3.33333C3.66699 4.622 4.71166 5.66667 6.00033 5.66667Z" fill="#FF2D55"/>
<path d="M6.62336 9.18929C6.60016 9.46766 6.35289 9.67067 6.07357 9.66713C6.04916 9.66682 6.02471 9.66667 6.00022 9.66667C4.30462 9.66667 2.78296 10.4114 1.74449 11.5916C1.54282 11.8208 1.18548 11.8519 0.969607 11.636C0.795787 11.4622 0.774868 11.1856 0.934774 10.9989C2.15749 9.57132 3.97321 8.66667 6.00022 8.66667C6.05818 8.66667 6.11597 8.66741 6.17357 8.66888C6.44624 8.67584 6.64601 8.91747 6.62336 9.18929Z" fill="#FF2D55"/>
<path d="M8.66699 8.66667C8.39085 8.66667 8.16699 8.89052 8.16699 9.16667C8.16699 9.44281 8.39085 9.66667 8.66699 9.66667H12.0003C12.2765 9.66667 12.5003 9.44281 12.5003 9.16667C12.5003 8.89052 12.2765 8.66667 12.0003 8.66667H8.66699Z" fill="#FF2D55"/>
</svg>
