<svg width="16" height="16" viewBox="0 0 16 16" fill="none" xmlns="http://www.w3.org/2000/svg">
<path d="M10.6668 8.49967C10.943 8.49967 11.1668 8.27582 11.1668 7.99967C11.1668 7.72353 10.943 7.49967 10.6668 7.49967L5.3335 7.49967C5.05735 7.49967 4.8335 7.72353 4.8335 7.99967C4.8335 8.27582 5.05735 8.49967 5.3335 8.49967L10.6668 8.49967Z" fill="#FF2D55"/>
<path fill-rule="evenodd" clip-rule="evenodd" d="M14.6668 7.99967C14.6668 11.6816 11.6821 14.6663 8.00016 14.6663C4.31826 14.6663 1.3335 11.6816 1.3335 7.99967C1.3335 4.31778 4.31826 1.33301 8.00016 1.33301C11.6821 1.33301 14.6668 4.31778 14.6668 7.99967ZM13.6668 7.99967C13.6668 11.1293 11.1298 13.6663 8.00016 13.6663C4.87055 13.6663 2.3335 11.1293 2.3335 7.99967C2.3335 4.87006 4.87055 2.33301 8.00016 2.33301C11.1298 2.33301 13.6668 4.87006 13.6668 7.99967Z" fill="#FF2D55"/>
</svg>
