<svg width="16" height="18" viewBox="0 0 16 18" fill="none" xmlns="http://www.w3.org/2000/svg">
<path d="M11.2361 9.43053C10.9676 9.16205 10.5323 9.16205 10.2638 9.43053C9.99536 9.69902 9.99536 10.1343 10.2638 10.4028L11.9744 12.1134C12.2632 12.4021 12.0587 12.8958 11.6504 12.8958L7.99998 12.8958C4.83585 12.8958 2.27081 10.3308 2.27081 7.16667C2.27081 4.00254 4.83585 1.4375 7.99998 1.4375C8.37967 1.4375 8.68748 1.1297 8.68748 0.75C8.68748 0.370305 8.37967 0.0625 7.99998 0.0625C4.07646 0.0624998 0.895812 3.24315 0.895813 7.16667C0.895813 11.0902 4.07646 14.2708 7.99998 14.2708H11.6504C12.0587 14.2708 12.2632 14.7645 11.9744 15.0533L10.2638 16.7639C9.99536 17.0324 9.99536 17.4677 10.2638 17.7361C10.5323 18.0046 10.9676 18.0046 11.2361 17.7361L14.9028 14.0695C15.1713 13.801 15.1713 13.3657 14.9028 13.0972L11.2361 9.43053Z" fill="#939BA1"/>
</svg>
