<svg width="20" height="20" viewBox="0 0 20 20" fill="none" xmlns="http://www.w3.org/2000/svg">
<path d="M4.46967 10.4697C4.76256 10.1768 5.23744 10.1768 5.53033 10.4697C5.82322 10.7626 5.82322 11.2374 5.53033 11.5303L3.66421 13.3964C3.34923 13.7114 3.57232 14.25 4.01777 14.25H15C16.7949 14.25 18.25 12.7949 18.25 11V10C18.25 9.58579 18.5858 9.25 19 9.25C19.4142 9.25 19.75 9.58579 19.75 10V11C19.75 13.6234 17.6234 15.75 15 15.75H4.01777C3.57231 15.75 3.34923 16.2886 3.66421 16.6036L5.53033 18.4697C5.82322 18.7626 5.82322 19.2374 5.53033 19.5303C5.23744 19.8232 4.76256 19.8232 4.46967 19.5303L0.46967 15.5303C0.176777 15.2374 0.176777 14.7626 0.46967 14.4697L4.46967 10.4697Z" fill="#4360DF"/>
<path d="M14.4697 0.469669C14.1768 0.762564 14.1768 1.23744 14.4697 1.53033L16.3358 3.39645C16.6508 3.71143 16.4277 4.25 15.9822 4.25H5C2.37665 4.25 0.25 6.37665 0.25 9V10C0.25 10.4142 0.585786 10.75 1 10.75C1.41421 10.75 1.75 10.4142 1.75 10V9C1.75 7.20507 3.20507 5.75 5 5.75H15.9822C16.4277 5.75 16.6508 6.28857 16.3358 6.60355L14.4697 8.46967C14.1768 8.76256 14.1768 9.23744 14.4697 9.53033C14.7626 9.82322 15.2374 9.82322 15.5303 9.53033L19.5303 5.53033C19.8232 5.23744 19.8232 4.76256 19.5303 4.46967L15.5303 0.469669C15.2374 0.176777 14.7626 0.176777 14.4697 0.469669Z" fill="#4360DF"/>
</svg>
