<svg width="28" height="40" viewBox="0 0 28 40" fill="none" xmlns="http://www.w3.org/2000/svg">
<circle cx="14" cy="20" r="14" fill="#FF2D55"/>
<path d="M21.9468 17.4414C21.9468 14.856 20.2915 12.7393 18.1675 12.7393H15.7578C14.769 12.2339 13.5972 11.9409 12.3081 11.9409H11.2827C10.3306 11.9409 9.51758 11.9995 8.99023 12.1313C7.91357 12.395 7.23242 13.1641 7.23242 14.1235C7.23242 14.292 7.26172 14.4531 7.30566 14.6069C6.80029 15.0024 6.51465 15.5737 6.51465 16.2036C6.51465 16.4966 6.57324 16.7822 6.67578 17.0239C6.33887 17.3828 6.14111 17.9028 6.14111 18.4375C6.14111 18.7891 6.229 19.1479 6.37549 19.4263C6.17041 19.7339 6.05322 20.1514 6.05322 20.6128C6.05322 21.7847 6.94678 22.6855 8.104 22.6855H10.8286C10.9824 22.6855 11.085 22.7588 11.0776 22.8979C11.041 23.6523 9.85449 25.4688 9.85449 26.9556C9.85449 28.0469 10.6235 28.8452 11.6855 28.8452C12.4546 28.8452 12.9819 28.4424 13.4873 27.4829C14.4028 25.7251 15.5015 24.187 17.1348 22.1729H18.4458C20.438 22.1729 21.9468 20.0708 21.9468 17.4414ZM17.3838 17.5C17.3838 19.0527 17.0396 20.0415 16.0435 21.3745C14.9375 22.854 13.3994 24.6411 12.2935 26.853C12.0591 27.3145 11.8979 27.4243 11.6709 27.4243C11.3926 27.4243 11.2095 27.2266 11.2095 26.875C11.2095 25.791 12.4473 23.9746 12.4473 22.7808C12.4473 21.9019 11.7368 21.3306 10.77 21.3306H8.14062C7.71582 21.3306 7.40088 21.0156 7.40088 20.5908C7.40088 20.2905 7.50342 20.0928 7.75244 19.8438C7.94287 19.646 7.97217 19.3677 7.80371 19.1772C7.59131 18.877 7.50342 18.6865 7.50342 18.4375C7.50342 18.1372 7.64258 17.8809 7.93555 17.6611C8.18457 17.4854 8.27246 17.1851 8.12598 16.8921C7.97217 16.5991 7.8916 16.4453 7.8916 16.2183C7.8916 15.8667 8.11865 15.5957 8.57275 15.354C8.81445 15.2222 8.88037 14.9658 8.77783 14.7314C8.62402 14.3579 8.60205 14.292 8.60938 14.1309C8.60938 13.8159 8.83643 13.5669 9.32715 13.4424C9.75928 13.3325 10.4478 13.2886 11.356 13.2959L12.3008 13.3032C15.333 13.3325 17.3838 15.0317 17.3838 17.5ZM20.6211 17.4414C20.6211 19.3018 19.6616 20.7886 18.563 20.8325C18.3726 20.8398 18.1821 20.8398 17.9917 20.8398C18.5117 19.8218 18.7388 18.7671 18.7388 17.5C18.7388 16.1523 18.27 14.9658 17.4204 14.0356C17.6914 14.0356 17.9697 14.043 18.248 14.043C19.5298 14.0942 20.6211 15.5957 20.6211 17.4414Z" fill="white"/>
</svg>
