<svg width="22" height="22" viewBox="0 0 22 22" fill="none" xmlns="http://www.w3.org/2000/svg">
<path fill-rule="evenodd" clip-rule="evenodd" d="M11 22C4.92487 22 0 17.0751 0 11C0 4.92487 4.92487 0 11 0C17.0751 0 22 4.92487 22 11C22 17.0751 17.0751 22 11 22ZM11 20.5C9.35708 20.5 8.02523 19.1682 8.02523 17.5252C8.02523 15.8823 9.35708 14.5505 11 14.5505C12.6429 14.5505 13.9748 15.8823 13.9748 17.5252C13.9748 19.1682 12.6429 20.5 11 20.5ZM6.11258 17.6751C6.22604 17.8718 6.52523 17.7523 6.52523 17.5252C6.52523 15.0539 8.52865 13.0505 11 13.0505C13.4713 13.0505 15.4748 15.0539 15.4748 17.5252C15.4748 17.7523 15.774 17.8718 15.8874 17.6751C16.3651 16.847 16.6385 15.8862 16.6385 14.8615C16.6385 11.7475 14.114 9.22308 11 9.22308C7.88597 9.22308 5.36154 11.7475 5.36154 14.8615C5.36154 15.8862 5.63487 16.847 6.11258 17.6751ZM18.0483 15.9992C17.9783 16.4359 18.5498 16.784 18.8025 16.421C19.8726 14.8836 20.5 13.0151 20.5 11C20.5 5.75329 16.2467 1.5 11 1.5C5.75329 1.5 1.5 5.75329 1.5 11C1.5 13.0151 2.1274 14.8836 3.19751 16.421C3.45018 16.784 4.02165 16.4359 3.95171 15.9992C3.89237 15.6287 3.86154 15.2487 3.86154 14.8615C3.86154 10.9191 7.05754 7.72308 11 7.72308C14.9425 7.72308 18.1385 10.9191 18.1385 14.8615C18.1385 15.2487 18.1076 15.6287 18.0483 15.9992Z" fill="#939BA1"/>
</svg>
