<svg width="20" height="20" viewBox="0 0 20 20" fill="none" xmlns="http://www.w3.org/2000/svg">
<path d="M4 3.25C3.58579 3.25 3.25 3.58579 3.25 4C3.25 4.41421 3.58579 4.75 4 4.75H16C16.4142 4.75 16.75 4.41421 16.75 4C16.75 3.58579 16.4142 3.25 16 3.25H4Z" fill="#939BA1"/>
<path fill-rule="evenodd" clip-rule="evenodd" d="M4 0C1.79086 0 0 1.79086 0 4V16C0 18.2091 1.79086 20 4 20H16C18.2091 20 20 18.2091 20 16V4C20 1.79086 18.2091 0 16 0H4ZM4 1.5C2.61929 1.5 1.5 2.61929 1.5 4C1.5 5.38071 2.61929 6.5 4 6.5H16C17.3807 6.5 18.5 5.38071 18.5 4C18.5 2.61929 17.3807 1.5 16 1.5H4ZM18.5 16V8.16432C18.5 7.74484 17.996 7.49259 17.6122 7.66182C17.119 7.87926 16.5736 8 16 8H4C3.4264 8 2.881 7.87926 2.38782 7.66182C2.00399 7.49259 1.5 7.74484 1.5 8.16432V16C1.5 17.3807 2.61929 18.5 4 18.5H16C17.3807 18.5 18.5 17.3807 18.5 16Z" fill="#939BA1"/>
</svg>
