<svg fill="none" height="40" viewBox="0 0 40 40" width="40" xmlns="http://www.w3.org/2000/svg"><g fill="#4360df"><rect fill-opacity=".1" height="40" rx="20" width="40"/><path clip-rule="evenodd" d="m19.9991 10.25c-4.9474 0-9.0331 3.6842-9.6652 8.459-.1371 1.0356.2981 1.994.9429 2.6746l7.4519 7.8659c.6902.7286 1.8506.7286 2.5408 0l7.4519-7.8659c.6448-.6806 1.08-1.639.9429-2.6746-.6322-4.7748-4.7178-8.459-9.6652-8.459zm-7.3811 8.9046c-.463-.1389-.7574-.5993-.6457-1.0696.8633-3.6327 4.13-6.335 8.0268-6.335s7.1635 2.7023 8.0267 6.3349c.1118.4704-.1826.9308-.6456 1.0697-.1763.0529-.3291.0963-.3903.1075-1.3213.2402-3.5251.4879-6.9908.4879-3.4658 0-5.6696-.2477-6.9909-.4879-.0612-.0112-.2139-.0546-.3902-.1075zm.8656 1.7054c-.2391-.0353-.3947.2554-.2285.4308l4.5093 4.7598c.0762.0805.2073-.0043.1651-.1068l-1.751-4.2523c-.1445-.3509-.4752-.5886-.8533-.621-.6156-.0527-1.2304-.1201-1.8416-.2105zm8.5848 5.0841c-.0422.1025.0888.1873.1651.1069l4.5096-4.7602c.1662-.1755.0106-.4661-.2285-.4308-.6112.0904-1.2261.1578-1.8418.2105-.3781.0324-.7088.2701-.8533.621zm.1328-4.2621c.0914-.2221-.0774-.4645-.3175-.4577-.5851.0166-1.2125.0257-1.8846.0257-.6722 0-1.2997-.0091-1.8848-.0257-.2401-.0068-.4089.2356-.3175.4577l1.8971 4.6071c.1121.2725.498.2725.6102 0z" fill-rule="evenodd"/></g></svg>