<svg fill="none" height="40" viewBox="0 0 41 40" width="41" xmlns="http://www.w3.org/2000/svg"><g fill="#4360df"><rect fill-opacity=".1" height="40" rx="20" width="40" x=".5"/><g clip-rule="evenodd" fill-rule="evenodd"><path d="m17.8561 24.8391c0 1.1926-.9715 2.1594-2.17 2.1594-1.1984 0-2.17-.9668-2.17-2.1594s.9716-2.1594 2.17-2.1594c1.1985 0 2.17.9668 2.17 2.1594zm-1.508 0c0 .3638-.2964.6587-.662.6587-.3655 0-.6619-.2949-.6619-.6587s.2964-.6587.6619-.6587c.3656 0 .662.2949.662.6587z"/><path d="m25.6478 19.0812c-.0473.1918-.2036.338-.3989.3731l-.9687.1739c-.2191.0393-.3861.2174-.4104.4376l-.1561 1.4119c-.013.1178-.0676.2272-.1541.3086l-.9076.8549c-.1253.118-.1795.2914-.154.4611.0439.2919.0666.5907.0666.8948 0 3.3153-2.7008 6.0029-6.0323 6.0029-3.3316 0-6.0323-2.6876-6.0323-6.0029 0-3.3154 2.7007-6.003 6.0323-6.003.696 0 1.3644.1173 1.9865.3331.1902.066.4036.0262.5473-.1143l8.2481-8.0694c.0941-.092.2206-.1435.3525-.1435h2.3304c.3193 0 .5576.2923.492.6032l-.8236 3.8974c-.036.1705-.1586.3101-.3236.3684l-.8895.3146c-.1486.0526-.2638.1715-.3111.3212l-.4005 1.2669c-.0506.1599-.1784.284-.3403.3305l-1.0814.3103c-.1729.0496-.306.1875-.3489.3614zm-4.5913 4.9159c0-.3473-.0395-.6854-.1143-1.01l-.0093-.0276c-.057-.1681-.1213-.3331-.1925-.4946-.0125-.0283-.0061-.0614.0163-.0829l1.4528-1.3904c.0294-.0277.0479-.0648.0523-.1048l.2321-2.099c.0243-.2202.1913-.3982.4104-.4376l1.1133-.1998c.1953-.0351.3517-.1813.399-.3731l.2971-1.2047c.0429-.174.1759-.3118.3489-.3614l1.1423-.3278c.1619-.0465.2897-.1706.3402-.3305l.3831-1.2117c.0473-.1498.1626-.2687.3112-.3213l.8007-.2832c.165-.0583.2876-.1979.3236-.3684l.2896-1.3703c.0541-.2563-.1424-.4973-.4056-.4973-.1087 0-.213.0425-.2905.1184l-7.7699 7.6021-1.0886 1.0622c-.0019.0018-.0049.0021-.0071.0006-.7279-.4978-1.6094-.7891-2.5593-.7891-2.4987 0-4.5242 2.0157-4.5242 4.5022s2.0255 4.5022 4.5242 4.5022c2.4986 0 4.5242-2.0157 4.5242-4.5022z"/></g></g></svg>