<svg fill="none" height="24" viewBox="0 0 24 24" width="24" xmlns="http://www.w3.org/2000/svg"><path clip-rule="evenodd" d="m9.39286 2.25c-1.18347 0-2.14286.95939-2.14286 2.14286 0 .61145-.49568 1.10714-1.10714 1.10714h-3.14286c-.41421 0-.75.33579-.75.75s.33579.75.75.75h.73876c.25288 0 .46594.1888.49637.43983l1.33836 11.04147c.24343 2.0083 1.94796 3.5187 3.97094 3.5187h4.91117c2.023 0 3.7275-1.5104 3.9709-3.5187l1.3384-11.04147c.0304-.25103.2435-.43983.4963-.43983h.7388c.4142 0 .75-.33579.75-.75s-.3358-.75-.75-.75h-3.1429c-.6114 0-1.1071-.49568-1.1071-1.10714 0-1.18347-.9594-2.14286-2.1429-2.14286zm5.31594 3.25c.3663 0 .6146-.38913.5652-.75214-.0158-.11608-.024-.23459-.024-.355 0-.35504-.2878-.64286-.6429-.64286h-5.21424c-.35504 0-.64286.28782-.64286.64286 0 .12041-.00816.23892-.02397.355-.04942.36301.19882.75214.56518.75214zm3.1483 1.5c.2393 0 .4247.20925.3959.44679l-1.3156 10.85401c-.1521 1.2552-1.2175 2.1992-2.4818 2.1992h-4.91117c-1.26436 0-2.32969-.944-2.48184-2.1992l-1.31564-10.85401c-.02879-.23754.15663-.44679.39591-.44679z" fill="#ff2d55" fill-rule="evenodd"/></svg>