<svg fill="none" height="24" viewBox="0 0 24 24" width="24" xmlns="http://www.w3.org/2000/svg"><g fill="#4360df"><path d="m11.25 3.50019c.4142 0 .75-.33579.75-.75s-.3358-.75-.75-.75h-5.25c-2.20914 0-4 1.79086-4 4v12.00001c0 2.2091 1.79086 4 4 4h12c2.2091 0 4-1.7909 4-4v-5.25c0-.4142-.3358-.75-.75-.75s-.75.3358-.75.75v5.25c0 1.3807-1.1193 2.5-2.5 2.5h-12c-1.38071 0-2.5-1.1193-2.5-2.5v-12.00001c0-1.38071 1.11929-2.5 2.5-2.5z"/><path clip-rule="evenodd" d="m21.2803 2.71986c-.9832-.98325-2.5774-.98325-3.5606 0l-8.38357 8.38354c-.33046.3305-.57126.7397-.69965 1.1891l-.85762 3.0016c-.07483.2619-.00179.5438.19081.7364s.47448.2657.73637.1908l3.00166-.8576c.4494-.1284.8586-.3692 1.1891-.6996l8.3835-8.38358c.9833-.98325.9833-2.57741 0-3.56066zm-2.5 1.06066c.3975-.39746 1.0419-.39746 1.4394 0 .3974.39746.3974 1.04188 0 1.43934l-8.3836 8.38354c-.1502.1502-.3362.2597-.5405.318-.7425.2122-1.42898-.4743-1.2168-1.2169.0583-.2042.1678-.3902.318-.5404z" fill-rule="evenodd"/></g></svg>