<svg fill="none" height="24" viewBox="0 0 24 24" width="24" xmlns="http://www.w3.org/2000/svg"><g fill="#000"><path d="m2.7072 20.5058c-.39052-.3905-.39052-1.0237 0-1.4142l16.9706-16.97058c.3905-.39053 1.0237-.39053 1.4142 0 .3905.39052.3905 1.02369 0 1.41421l-16.97059 16.97057c-.39052.3905-1.02369.3905-1.41421 0z"/><path clip-rule="evenodd" d="m8.64188 18.8138c-.06865.0687-.02003.1861.07707.1861.33629 0 .57791.3279.54661.6627-.01005.1075-.01554.22-.01554.3373 0 1.3889 1.20638 2.75 2.74998 2.75 1.5437 0 2.75-1.3611 2.75-2.75 0-.1173-.0055-.2298-.0155-.3373-.0313-.3348.2103-.6627.5466-.6627h3.1978c1.7363 0 2.6478-2.0606 1.4799-3.3454l-1.1769-1.2945c-.5107-.5618-.851-1.2574-.9811-2.0054l-.1524-.8763c-.1041-.5986-.8395-.8315-1.2692-.4018-.1726.1726-.2504.4184-.2086.6588l.1524.8764c.1789 1.0285.6468 1.9848 1.349 2.7573l1.1769 1.2945c.292.3212.0641.8364-.37.8364h-8.2124c-.1989 0-.38968.079-.53034.2196zm2.39722.2074-.005.0052.0032-.0032zm.045-.0213c-.0159 0-.0315.0073-.0425.0188-.0029.0033-.0095.0113-.0197.0249-.023.0307-.0609.0863-.1011.1667-.0791.1583-.1708.4191-.1708.7896 0 .611.5845 1.25 1.25 1.25s1.25-.639 1.25-1.25c0-.3705-.0917-.6313-.1708-.7896-.0402-.0804-.0781-.136-.1011-.1667-.0101-.0136-.0172-.022-.0201-.0254-.011-.0115-.0261-.0183-.042-.0183z" fill-rule="evenodd"/><path d="m14.9585 4.01192c-.3003.3003-.788.28027-1.1402.04295-.5223-.352-1.1499-.55501-1.8183-.55501-1.5828 0-2.93632 1.13842-3.20753 2.69786l-.8056 4.63218c-.02105.121-.07895.2326-.1658.3194l-1.35541 1.3554c-.10186.1019-.29116-.0081-.26648-.1501l1.11547-6.41389c.39616-2.27792 2.37325-3.94085 4.68535-3.94085 1.0994 0 2.1231.37598 2.937 1.01527.3162.24833.3058.7125.0215.99679z"/></g></svg>