<svg width="16" height="17" viewBox="0 0 16 17" fill="none" xmlns="http://www.w3.org/2000/svg">
<path fill-rule="evenodd" clip-rule="evenodd" d="M2.76413 10.1901L8.32479 4.77888C8.70676 4.40717 9.32476 4.40591 9.71111 4.78187C10.0948 5.15523 10.0968 5.75861 9.71418 6.13093L3.45575 12.2211C3.26582 12.406 3.01753 12.4992 2.76838 12.5C2.51183 12.4981 2.26284 12.4063 2.07584 12.2244L0.284232 10.5078C-0.0959013 10.1379 -0.0957078 9.53795 0.290638 9.16199C0.674309 8.78863 1.29863 8.79084 1.67363 9.15576L2.76413 10.1901Z" fill="black"/>
<path fill-rule="evenodd" clip-rule="evenodd" d="M8.76413 10.1901L14.3248 4.77888C14.7068 4.40717 15.3248 4.40591 15.7111 4.78187C16.0948 5.15523 16.0968 5.75861 15.7142 6.13093L9.45576 12.2211C9.26582 12.406 9.01753 12.4992 8.76838 12.5C8.51183 12.4981 8.26284 12.4063 8.07584 12.2244L6.28423 10.5078L7.67363 9.15576L8.76413 10.1901Z" fill="black"/>
</svg>
