<svg width="24" height="24" viewBox="0 0 24 24" fill="none" xmlns="http://www.w3.org/2000/svg">
<path d="M17.7503 7.19344C17.7808 7.41937 17.5972 7.61039 17.3692 7.61039H16.6065C16.4011 7.61039 16.2317 7.45413 16.1908 7.25286C15.8385 5.51665 14.2501 4.43102 12.0852 4.43102C9.64738 4.43102 7.9682 5.80335 7.9682 7.67858C7.9682 9.51972 9.74967 10.3806 11.4459 10.858L12.7581 11.2346C12.794 11.2449 12.8312 11.2501 12.8685 11.2501H21.2693C21.6728 11.2501 22 11.5859 22 12.0001C22 12.4144 21.6728 12.7501 21.2693 12.7501H17.5374C17.1521 12.7501 16.9603 13.2812 17.1992 13.5835C17.7084 14.2277 18.0263 15.0373 18.0263 16.066C18.0263 18.8618 15.7589 21.0013 11.9744 21.0013C8.59769 21.0013 6.40001 19.294 6.01985 16.7646C5.98542 16.5356 6.17013 16.3387 6.40171 16.3387H7.24177C7.44996 16.3387 7.62066 16.4993 7.65915 16.7039C8.00505 18.5429 9.76397 19.5437 11.9744 19.5437C14.5827 19.5437 16.4835 18.1373 16.4835 16.0404C16.4835 14.2589 15.0003 13.4492 12.8353 12.8184L12.6581 12.7664C12.6215 12.7556 12.5835 12.7501 12.5454 12.7501H2.73074C2.32716 12.7501 2 12.4144 2 12.0001C2 11.5859 2.32716 11.2501 2.73074 11.2501H7.09893C7.50213 11.2501 7.68953 10.6616 7.41735 10.3641C6.77078 9.65745 6.42539 8.7931 6.42539 7.74677C6.42539 4.93392 8.90581 2.99902 12.1278 2.99902C15.2026 2.99902 17.4216 4.75649 17.7503 7.19344Z" fill="black"/>
</svg>
