<svg width="14" height="13" viewBox="0 0 14 13" fill="none" xmlns="http://www.w3.org/2000/svg">
<path fill-rule="evenodd" clip-rule="evenodd" d="M5.61568 0.749741C5.20786 0.677243 4.81849 0.949075 4.74599 1.35689L4.41792 3.20237C4.36277 3.5126 4.09305 3.7386 3.77795 3.7386H2.0807C1.66649 3.7386 1.3307 4.07438 1.3307 4.4886C1.3307 4.90281 1.66649 5.2386 2.0807 5.2386H3.2802C3.6847 5.2386 3.99096 5.60411 3.92016 6.00236L3.62381 7.66942C3.56866 7.97966 3.29894 8.20566 2.98384 8.20566H1.3491C0.934885 8.20566 0.599098 8.54144 0.599098 8.95566C0.599098 9.36987 0.934884 9.70566 1.3491 9.70566H2.48608C2.89059 9.70566 3.19685 10.0712 3.12605 10.4694L2.86988 11.9104C2.79738 12.3183 3.06921 12.7076 3.47703 12.7801C3.88485 12.8526 4.27423 12.5808 4.34673 12.173L4.69002 10.2419C4.74517 9.93165 5.01489 9.70566 5.32998 9.70566L7.30498 9.70566C7.70948 9.70566 8.01575 10.0712 7.94495 10.4694L7.68878 11.9104C7.61628 12.3183 7.88811 12.7076 8.29593 12.7801C8.70375 12.8526 9.09313 12.5808 9.16562 12.173L9.50891 10.2419C9.56406 9.93166 9.83378 9.70566 10.1489 9.70566H11.9166C12.3308 9.70566 12.6666 9.36987 12.6666 8.95566C12.6666 8.54144 12.3308 8.20566 11.9166 8.20566H10.6466C10.2421 8.20566 9.93587 7.84015 10.0067 7.44189L10.303 5.77483C10.3582 5.4646 10.6279 5.2386 10.943 5.2386H12.6509C13.0651 5.2386 13.4009 4.90281 13.4009 4.4886C13.4009 4.07439 13.0651 3.7386 12.6509 3.7386H11.4408C11.0362 3.7386 10.73 3.37309 10.8008 2.97483L11.0417 1.61943C11.1142 1.21161 10.8424 0.822239 10.4346 0.749741C10.0268 0.677243 9.63739 0.949075 9.56489 1.35689L9.23682 3.20237C9.18167 3.5126 8.91195 3.7386 8.59685 3.7386H6.62185C6.21735 3.7386 5.91109 3.37309 5.98189 2.97483L6.22284 1.61943C6.29533 1.21161 6.0235 0.822239 5.61568 0.749741ZM7.80274 8.20566C8.11784 8.20566 8.38756 7.97966 8.44271 7.66942L8.73906 6.00237C8.80986 5.60411 8.5036 5.2386 8.09909 5.2386L6.12409 5.2386C5.809 5.2386 5.53928 5.4646 5.48413 5.77483L5.18777 7.44189C5.11698 7.84015 5.42324 8.20566 5.82774 8.20566L7.80274 8.20566Z" fill="black"/>
</svg>
