<svg width="24" height="24" viewBox="0 0 24 24" fill="none" xmlns="http://www.w3.org/2000/svg">
<path d="M12 6.25C12.4142 6.25 12.75 6.58579 12.75 7V14C12.75 14.4142 12.4142 14.75 12 14.75C11.5858 14.75 11.25 14.4142 11.25 14V7C11.25 6.58579 11.5858 6.25 12 6.25Z" fill="black"/>
<path d="M12 18.75C12.6904 18.75 13.25 18.1904 13.25 17.5C13.25 16.8096 12.6904 16.25 12 16.25C11.3096 16.25 10.75 16.8096 10.75 17.5C10.75 18.1904 11.3096 18.75 12 18.75Z" fill="black"/>
<path fill-rule="evenodd" clip-rule="evenodd" d="M2 12C2 17.5228 6.47715 22 12 22C17.5228 22 22 17.5228 22 12C22 6.47715 17.5228 2 12 2C6.47715 2 2 6.47715 2 12ZM3.5 12C3.5 16.6944 7.30558 20.5 12 20.5C16.6944 20.5 20.5 16.6944 20.5 12C20.5 7.30558 16.6944 3.5 12 3.5C7.30558 3.5 3.5 7.30558 3.5 12Z" fill="black"/>
</svg>
