<svg fill="none" height="24" viewBox="0 0 24 24" width="24" xmlns="http://www.w3.org/2000/svg" xmlns:xlink="http://www.w3.org/1999/xlink"><mask id="a" fill="#000" height="24" maskUnits="userSpaceOnUse" width="24" x="0" y="0"><path clip-rule="evenodd" d="m2 12c0 1.49.97763 2.7517 2.32644 3.1786-.65184 1.2555-.45098 2.8389.60259 3.8925 1.05355 1.0535 2.63688 1.2544 3.89245.6026.42692 1.3487 1.68852 2.3263 3.17852 2.3263 1.4901 0 2.7518-.9778 3.1786-2.3267 1.2556.6517 2.8388.4508 3.8923-.6027 1.0534-1.0535 1.2544-2.6366.6028-3.8921 1.3487-.4269 2.3263-1.6885 2.3263-3.1785 0-1.4898-.9774-2.7514-2.326-3.17842.6513-1.25544.4503-2.83832-.603-3.89164-1.0535-1.05347-2.6367-1.2544-3.8922-.60277-.4267-1.34918-1.6885-2.32717-3.1788-2.32717-1.4901 0-2.75189.9778-3.17867 2.32678-1.25556-.65176-2.83886-.45088-3.8924.60266-1.05345 1.05345-1.25439 2.63658-.60281 3.8921-1.34864.42697-2.32612 1.68856-2.32612 3.17846z" fill="#000" fill-rule="evenodd"/></mask><path clip-rule="evenodd" d="m2 12c0 1.49.97763 2.7517 2.32644 3.1786-.65184 1.2555-.45098 2.8389.60259 3.8925 1.05355 1.0535 2.63688 1.2544 3.89245.6026.42692 1.3487 1.68852 2.3263 3.17852 2.3263 1.4901 0 2.7518-.9778 3.1786-2.3267 1.2556.6517 2.8388.4508 3.8923-.6027 1.0534-1.0535 1.2544-2.6366.6028-3.8921 1.3487-.4269 2.3263-1.6885 2.3263-3.1785 0-1.4898-.9774-2.7514-2.326-3.17842.6513-1.25544.4503-2.83832-.603-3.89164-1.0535-1.05347-2.6367-1.2544-3.8922-.60277-.4267-1.34918-1.6885-2.32717-3.1788-2.32717-1.4901 0-2.75189.9778-3.17867 2.32678-1.25556-.65176-2.83886-.45088-3.8924.60266-1.05345 1.05345-1.25439 2.63658-.60281 3.8921-1.34864.42697-2.32612 1.68856-2.32612 3.17846z" fill="#4ebc60" fill-rule="evenodd"/><path d="m4.32644 15.1786 1.4792.7679.91315-1.7589-1.88946-.598zm.60259 3.8925-1.17851 1.1785zm3.89245.6026 1.58892-.503-.59798-1.8893-1.75884.9131zm6.35712-.0004.7678-1.4793-1.759-.913-.5978 1.8895zm3.8923-.6027-1.1785-1.1785zm.6028-3.8921-.503-1.589-1.889.598.9127 1.7587zm.0003-6.35692-1.4794-.76749-.9122 1.75841 1.8885.598zm-.603-3.89164-1.1785 1.17851zm-3.8922-.60277-1.5891.50252.5976 1.88984 1.7593-.91306zm-6.35747-.00039-.76787 1.47924 1.75909.91315.59785-1.88967zm-3.8924.60266-1.17851-1.17852zm-.60281 3.8921.50305 1.58896 1.88895-.59805-.91268-1.75864zm.50321 4.76806c-.67596-.214-1.16266-.8471-1.16266-1.5896h-3.333337c0 2.2375 1.468557 4.1277 3.490207 4.7675zm1.27821 4.303c-.525-.525-.62857-1.3169-.3019-1.9461l-2.95841-1.5359c-.977 1.8819-.67885 4.2568.90329 5.839zm1.94604.3019c-.62924.3266-1.42105.223-1.94604-.3019l-2.35702 2.357c1.58211 1.5821 3.95696 1.8803 5.83886.9033zm3.94642 2.1388c-.7425 0-1.3756-.4866-1.5896-1.1626l-3.17788 1.0059c.63988 2.0216 2.53001 3.4901 4.76748 3.4901zm1.5896-1.1628c-.2139.6761-.8471 1.1628-1.5896 1.1628v3.3334c2.2377 0 4.128-1.4688 4.7677-3.4906zm4.3028-1.2784c-.525.5249-1.3167.6285-1.946.3019l-1.5356 2.9586c1.8819.9767 4.2566.6785 5.8386-.9035zm.302-1.9459c.3265.6292.2229 1.4209-.302 1.9459l2.357 2.357c1.5819-1.582 1.8802-3.9565.9036-5.8383zm2.1389-3.9462c0 .7425-.4866 1.3756-1.1626 1.5895l1.006 3.178c2.0215-.6399 3.49-2.53 3.49-4.7675zm-1.1624-1.5895c.6758.214 1.1624.8471 1.1624 1.5895h3.3334c0-2.23729-1.4683-4.1273-3.4896-4.76733zm-1.2784-4.30205c.5248.52488.6285 1.31646.3021 1.94564l2.9588 1.53499c.9762-1.88171.6779-4.25588-.9039-5.83765zm-1.9459-.30198c.6292-.32657 1.4209-.22297 1.9459.30198l2.357-2.35702c-1.582-1.582-3.9566-1.88024-5.8385-.90355zm-3.9466-2.1398c.7426 0 1.3759.48688 1.5897 1.16302l3.1782-1.00504c-.6395-2.02223-2.53-3.491317-4.7679-3.491317zm-1.5896 1.16283c.2139-.67605.8471-1.16283 1.5896-1.16283v-3.333337c-2.23773 0-4.12804 1.468807-4.76771 3.490727zm-4.30296 1.27845c.52499-.52498 1.31679-.62857 1.94602-.30193l1.53575-2.95848c-1.8819-.97689-4.2567-.6787-5.83879.90338zm-.302 1.94586c-.32654-.62921-.22294-1.42092.302-1.94586l-2.35702-2.35703c-1.58196 1.58197-1.88023 3.95652-.90361 5.83835zm-2.13877 3.94619c0-.7424.48662-1.3755 1.1625-1.5895l-1.00609-3.1779c-2.02141.63997-3.489747 2.53003-3.489747 4.7674z" mask="url(#a)"/><path d="m8.25 12.4154 2.5 2.5 5-5.83337" stroke="#fff" stroke-width="1.5"/></svg>