<svg fill="none" height="24" viewBox="0 0 22 24" width="24" xmlns="http://www.w3.org/2000/svg"><path d="m12.9167 2.14434-.4167.72169.4167-.72169c-1.1861-.68476-2.6473-.68476-3.83337 0l.41667.72169-.41667-.72169-5.66025 3.26795c-1.18604.68476-1.91667 1.95024-1.91667 3.31976v6.53585c0 1.3696.73063 2.6351 1.91667 3.3198l5.66025 3.268c1.18607.6847 2.64727.6847 3.83337 0l5.6602-3.268c1.1861-.6847 1.9167-1.9502 1.9167-3.3198v-6.53585c0-1.36952-.7306-2.635-1.9167-3.31976z" fill="#ff2d55"/><path clip-rule="evenodd" d="m11 18.875c.8629 0 1.5625-.6996 1.5625-1.5625s-.6996-1.5625-1.5625-1.5625-1.5625.6996-1.5625 1.5625.6996 1.5625 1.5625 1.5625zm-1.25-11.875c0-.69036.5596-1.25 1.25-1.25s1.25.55964 1.25 1.25v5.625c0 .6904-.5596 1.25-1.25 1.25s-1.25-.5596-1.25-1.25z" fill="#fff" fill-rule="evenodd"/></svg>