<svg fill="none" height="16" viewBox="0 0 16 16" width="16" xmlns="http://www.w3.org/2000/svg"><path clip-rule="evenodd" d="m8.00004 14.6668c-3.6819 0-6.66667-2.9847-6.66667-6.66664 0-3.6819 2.98477-6.66666 6.66667-6.66666 3.68186 0 6.66666 2.98476 6.66666 6.66666 0 3.68194-2.9848 6.66664-6.66666 6.66664zm-4.08759-3.2862c-.13833.1384-.36627.1288-.4821-.0288-.68962-.9387-1.09698-2.09759-1.09698-3.35164 0-3.12961 2.53706-5.66666 5.66667-5.66666 1.25405 0 2.41296.40736 3.35166 1.09697.1576.11583.1672.34377.0288.4821zm.70711.7072c-.13834.1383-.12879.3662.02887.4821.93865.6896 2.09756 1.0969 3.35161 1.0969 3.12966 0 5.66666-2.537 5.66666-5.66664 0-1.25405-.4074-2.41296-1.097-3.35161-.1158-.15766-.3437-.1672-.4821-.02887z" fill="#ff2d55" fill-rule="evenodd"/></svg>