<svg width="16" height="16" viewBox="0 0 16 16" fill="none" xmlns="http://www.w3.org/2000/svg">
<path d="M7.02018 4.35355C7.21544 4.15829 7.21544 3.84171 7.02018 3.64645C6.82492 3.45118 6.50833 3.45118 6.31307 3.64645L2.31307 7.64645C2.11781 7.84171 2.11781 8.15829 2.31307 8.35355L6.31307 12.3536C6.50833 12.5488 6.82492 12.5488 7.02018 12.3536C7.21544 12.1583 7.21544 11.8417 7.02018 11.6464L4.44277 9.06904C4.23278 8.85905 4.3815 8.5 4.67847 8.5H13.3333C13.6094 8.5 13.8333 8.27614 13.8333 8C13.8333 7.72386 13.6094 7.5 13.3333 7.5H4.67847C4.3815 7.5 4.23278 7.14095 4.44277 6.93096L7.02018 4.35355Z" fill="#FF2D55"/>
</svg>
