<svg fill="none" height="16" viewBox="0 0 16 16" width="16" xmlns="http://www.w3.org/2000/svg"><g clip-rule="evenodd" fill="#fff" fill-rule="evenodd"><path d="m6.23747 11.2262c0 .7951-.64769 1.4397-1.44667 1.4397-.79897 0-1.44666-.6446-1.44666-1.4397s.64769-1.4396 1.44666-1.4396c.79898 0 1.44667.6445 1.44667 1.4396zm-1.00538 0c0 .2426-.19757.4392-.44129.4392-.24371 0-.44128-.1966-.44128-.4392 0-.2425.19757-.4391.44128-.4391.24372 0 .44129.1966.44129.4391z"/><path d="m11.4319 7.38763c-.0315.12788-.1357.22533-.2659.24871l-.6458.11594c-.1461.02622-.2574.14492-.2736.29173l-.1041.94129c-.0087.07853-.0451.15144-.1027.20574l-.60512.56995c-.08349.07864-.11962.19424-.10263.30741.02923.1946.04437.3938.04437.5965 0 2.2102-1.8005 4.0019-4.02152 4.0019-2.22103 0-4.02153-1.7917-4.02153-4.0019 0-2.21024 1.8005-4.00198 4.02153-4.00198.46398 0 .90962.0782 1.32432.22206.1268.044.2691.01748.36486-.07621l5.49882-5.3796c.0627-.06131.147-.09567.2349-.09567h1.5537c.2128 0 .3717.19486.3279.40212l-.549 2.59829c-.024.11367-.1058.20672-.2158.24562l-.5929.20971c-.0991.03504-.1759.11433-.2075.21415l-.267.84454c-.0337.10665-.1189.18939-.2268.22036l-.7209.20686c-.1153.03308-.204.12499-.2326.24096zm-3.06086 3.27727c0-.2315-.02634-.4569-.07619-.67337l-.00624-.01838c-.03799-.11207-.08084-.22206-.12832-.32969-.00834-.01889-.00407-.04098.01088-.05528l.96854-.92695c.01958-.01845.03195-.04321.0349-.06989l.15467-1.39929c.01623-.14681.12756-.26551.27362-.29173l.7422-.13325c.1302-.02338.2344-.12083.266-.24871l.198-.80313c.0286-.11597.1174-.20787.2327-.24096l.7615-.21851c.108-.03098.1931-.11372.2268-.22036l.2554-.80779c.0316-.09982.1084-.17912.2075-.21416l.5338-.18879c.11-.0389.1917-.13194.2157-.24561l.1931-.91354c.0361-.17088-.095-.33153-.2704-.33153-.0725 0-.142.02833-.1937.07889l-5.17991 5.06806-.72573.70814c-.00128.00125-.00327.00142-.00475.00041-.48524-.33185-1.07293-.52607-1.70621-.52607-1.66577 0-3.01614 1.3438-3.01614 3.00149 0 1.6576 1.35037 3.0014 3.01614 3.0014s3.01614-1.3438 3.01614-3.0014z"/></g></svg>