<svg fill="none" height="16" viewBox="0 0 16 16" width="16" xmlns="http://www.w3.org/2000/svg"><g fill="#ff2d55"><path d="m4.31311 8.31311c.19527-.19526.51185-.19526.70711 0 .19526.19527.19526.51185 0 .70711l-1.24408 1.24408c-.20999.21-.06126.569.23571.569h8.65485c.2761 0 .5.2239.5.5 0 .2762-.2239.5-.5.5h-8.65486c-.29696 0-.44569.3591-.2357.5691l1.24408 1.244c.19526.1953.19526.5119 0 .7072-.19526.1952-.51184.1952-.70711 0l-2.66666-2.6667c-.19527-.1953-.19527-.5119 0-.7071z"/><path d="m11.6869 1.64645c-.1953-.19527-.5119-.19527-.7071 0-.1953.19526-.1953.51184 0 .7071l1.2441 1.24408c.2099.20999.0612.56904-.2357.56904h-8.65487c-.27614 0-.5.22385-.5.5 0 .27614.22386.5.5.5h8.65487c.2969 0 .4456.35904.2357.56903l-1.2441 1.24408c-.1953.19526-.1953.51184 0 .70711.1952.19526.5118.19526.7071 0l2.6667-2.66667c.1952-.19526.1952-.51184 0-.70711z"/></g></svg>