<svg fill="none" height="16" viewBox="0 0 16 16" width="16" xmlns="http://www.w3.org/2000/svg"><path clip-rule="evenodd" d="m7.15888 3.42099c.04854-.27184-.13248-.53157-.40432-.58011s-.53156.13248-.58011.40432l-.35354 1.97982c-.02839.15898-.16665.27474-.32814.27474h-1.8261c-.27615 0-.5.22386-.5.5s.22385.5.5.5h1.52848c.20754 0 .36463.18762.32814.39193l-.41666 2.33333c-.02839.15898-.16665.27474-.32815.27474h-1.77848c-.27614 0-.5.22386-.5.5s.22386.50004.5.50004h1.48087c.20754 0 .36462.1876.32814.3919l-.30122 1.6868c-.04855.2719.13247.5316.40431.5801.27185.0486.53157-.1324.58011-.4043l.35354-1.9798c.02839-.159.16666-.2747.32815-.2747h2.6403c.20754 0 .36462.1876.32814.3919l-.30122 1.6868c-.04854.2719.13248.5316.40432.5801.27184.0486.53156-.1324.58011-.4043l.35355-1.9798c.0284-.159.1666-.2747.3281-.2747h1.8261c.2762 0 .5-.2239.5-.50004s-.2238-.5-.5-.5h-1.5285c-.2075 0-.3646-.18762-.3281-.39193l.4167-2.33333c.0284-.15898.1666-.27474.3281-.27474h1.7785c.2761 0 .5-.22386.5-.5s-.2239-.5-.5-.5h-1.4809c-.2075 0-.3646-.18762-.3281-.39193l.3012-1.68684c.0486-.27184-.1325-.53157-.4043-.58011s-.5316.13248-.5801.40432l-.3536 1.97982c-.0283.15898-.16661.27474-.3281.27474h-2.6403c-.20754 0-.36463-.18762-.32814-.39193zm2.69775 3.4707c.03648-.20431-.1206-.39193-.32815-.39193h-2.6403c-.16149 0-.29975.11576-.32814.27474l-.41667 2.33333c-.03648.20431.1206.39193.32815.39193h2.6403c.16149 0 .29975-.11576.32814-.27474z" fill="#4360df" fill-rule="evenodd"/></svg>