<svg width="19" height="20" viewBox="0 0 19 20" fill="none" xmlns="http://www.w3.org/2000/svg">
<path d="M10.9502 1.17035C10.1148 0.688043 9.08558 0.688043 8.25019 1.17035L2.97558 4.21565C2.1402 4.69796 1.62558 5.5893 1.62558 6.55392V12.6445C1.62558 13.6091 2.1402 14.5005 2.97558 14.9828L8.2502 18.0281C9.08558 18.5104 10.1148 18.5104 10.9502 18.0281L16.2248 14.9828C17.0602 14.5005 17.5748 13.6091 17.5748 12.6445V6.55392C17.5748 5.5893 17.0602 4.69796 16.2248 4.21565L10.9502 1.17035Z" fill="#FF2D55" />
<path fill-rule="evenodd" clip-rule="evenodd" d="M9.60059 15.3727C10.3255 15.3727 10.9131 14.785 10.9131 14.0602C10.9131 13.3353 10.3255 12.7477 9.60059 12.7477C8.87571 12.7477 8.28809 13.3353 8.28809 14.0602C8.28809 14.785 8.87571 15.3727 9.60059 15.3727ZM8.55059 5.39766C8.55059 4.81776 9.02069 4.34766 9.60059 4.34766C10.1805 4.34766 10.6506 4.81776 10.6506 5.39766V10.1227C10.6506 10.7026 10.1805 11.1727 9.60059 11.1727C9.02069 11.1727 8.55059 10.7026 8.55059 10.1227V5.39766Z" fill="white"/>
</svg>
