<svg width="14" height="14" viewBox="0 0 14 14" fill="none" xmlns="http://www.w3.org/2000/svg">
<mask id="path-1-outside-1_14123_12013" maskUnits="userSpaceOnUse" x="0" y="0" width="14" height="14" fill="black">
<path fill-rule="evenodd" clip-rule="evenodd" d="M1 7C1 7.89401 1.58658 8.65101 2.39586 8.90713C2.00476 9.66048 2.12528 10.6105 2.75742 11.2426C3.38955 11.8748 4.33955 11.9953 5.09289 11.6042C5.34904 12.4135 6.10602 13 7 13C7.894 13 8.65101 12.4134 8.90713 11.6041C9.66048 11.9952 10.6105 11.8747 11.2426 11.2426C11.8748 10.6105 11.9953 9.66045 11.6042 8.90711C12.4135 8.65096 13 7.89398 13 7C13 6.10599 12.4134 5.34899 11.6041 5.09286C11.9952 4.33951 11.8747 3.38949 11.2426 2.75735C10.6105 2.12522 9.66045 2.0047 8.90711 2.39578C8.65096 1.58654 7.89398 1 7 1C6.106 1 5.34899 1.58658 5.09287 2.39586C4.33952 2.00476 3.3895 2.12528 2.75736 2.75742C2.12523 3.38955 2.00471 4.33955 2.39579 5.09289C1.58654 5.34904 1 6.10602 1 7Z"/>
</mask>
<path fill-rule="evenodd" clip-rule="evenodd" d="M1 7C1 7.89401 1.58658 8.65101 2.39586 8.90713C2.00476 9.66048 2.12528 10.6105 2.75742 11.2426C3.38955 11.8748 4.33955 11.9953 5.09289 11.6042C5.34904 12.4135 6.10602 13 7 13C7.894 13 8.65101 12.4134 8.90713 11.6041C9.66048 11.9952 10.6105 11.8747 11.2426 11.2426C11.8748 10.6105 11.9953 9.66045 11.6042 8.90711C12.4135 8.65096 13 7.89398 13 7C13 6.10599 12.4134 5.34899 11.6041 5.09286C11.9952 4.33951 11.8747 3.38949 11.2426 2.75735C10.6105 2.12522 9.66045 2.0047 8.90711 2.39578C8.65096 1.58654 7.89398 1 7 1C6.106 1 5.34899 1.58658 5.09287 2.39586C4.33952 2.00476 3.3895 2.12528 2.75736 2.75742C2.12523 3.38955 2.00471 4.33955 2.39579 5.09289C1.58654 5.34904 1 6.10602 1 7Z" fill="#4360DF"/>
<path d="M2.39586 8.90713L3.28339 9.36789L3.83128 8.31254L2.6976 7.95374L2.39586 8.90713ZM2.75742 11.2426L2.05031 11.9497H2.05031L2.75742 11.2426ZM5.09289 11.6042L6.04627 11.3024L5.68745 10.1688L4.63215 10.7167L5.09289 11.6042ZM8.90713 11.6041L9.36789 10.7166L8.31254 10.1687L7.95374 11.3024L8.90713 11.6041ZM11.6042 8.90711L11.3024 7.95373L10.1688 8.31255L10.7167 9.36785L11.6042 8.90711ZM11.6041 5.09286L10.7166 4.6321L10.1687 5.68746L11.3024 6.04626L11.6041 5.09286ZM11.2426 2.75735L10.5355 3.46446L10.5355 3.46446L11.2426 2.75735ZM8.90711 2.39578L7.95373 2.69756L8.31255 3.83115L9.36785 3.28331L8.90711 2.39578ZM5.09287 2.39586L4.63211 3.28339L5.68746 3.83127L6.04626 2.6976L5.09287 2.39586ZM2.75736 2.75742L3.46447 3.46452L2.75736 2.75742ZM2.39579 5.09289L2.69756 6.04627L3.83116 5.68745L3.28332 4.63215L2.39579 5.09289ZM2.6976 7.95374C2.29202 7.82538 2 7.44549 2 7H0C0 8.34252 0.881134 9.47663 2.09413 9.86053L2.6976 7.95374ZM3.46452 10.5355C3.14953 10.2205 3.08738 9.74544 3.28339 9.36789L1.50834 8.44638C0.922135 9.57553 1.10103 11.0005 2.05031 11.9497L3.46452 10.5355ZM4.63215 10.7167C4.25461 10.9127 3.77952 10.8505 3.46452 10.5355L2.05031 11.9497C2.99958 12.899 4.42449 13.0779 5.55363 12.4917L4.63215 10.7167ZM7 12C6.55453 12 6.17464 11.708 6.04627 11.3024L4.13951 11.906C4.52344 13.1189 5.65752 14 7 14V12ZM7.95374 11.3024C7.82538 11.708 7.44549 12 7 12V14C8.34252 14 9.47663 13.1189 9.86053 11.9059L7.95374 11.3024ZM10.5355 10.5355C10.2205 10.8505 9.74544 10.9126 9.36789 10.7166L8.44638 12.4917C9.57553 13.0779 11.0005 12.899 11.9497 11.9497L10.5355 10.5355ZM10.7167 9.36785C10.9127 9.7454 10.8505 10.2205 10.5355 10.5355L11.9497 11.9497C12.899 11.0004 13.0779 9.57551 12.4917 8.44637L10.7167 9.36785ZM12 7C12 7.44547 11.708 7.82536 11.3024 7.95373L11.906 9.86049C13.1189 9.47656 14 8.34248 14 7H12ZM11.3024 6.04626C11.708 6.17462 12 6.55451 12 7H14C14 5.65747 13.1189 4.52337 11.9059 4.13947L11.3024 6.04626ZM10.5355 3.46446C10.8505 3.77946 10.9126 4.25456 10.7166 4.6321L12.4917 5.55363C13.0779 4.42447 12.899 2.99953 11.9497 2.05025L10.5355 3.46446ZM9.36785 3.28331C9.74539 3.08732 10.2205 3.14947 10.5355 3.46446L11.9497 2.05025C11.0004 1.10098 9.57551 0.922077 8.44637 1.50825L9.36785 3.28331ZM7 2C7.44547 2 7.82536 2.292 7.95373 2.69756L9.86049 2.094C9.47656 0.881076 8.34248 0 7 0V2ZM6.04626 2.6976C6.17462 2.29202 6.55451 2 7 2V0C5.65748 0 4.52337 0.881134 4.13947 2.09413L6.04626 2.6976ZM3.46447 3.46452C3.77946 3.14953 4.25456 3.08738 4.63211 3.28339L5.55362 1.50834C4.42447 0.922135 2.99953 1.10103 2.05025 2.05031L3.46447 3.46452ZM3.28332 4.63215C3.08733 4.25461 3.14947 3.77952 3.46447 3.46452L2.05025 2.05031C1.10099 2.99958 0.922083 4.42449 1.50825 5.55363L3.28332 4.63215ZM2 7C2 6.55453 2.292 6.17464 2.69756 6.04627L2.09401 4.13951C0.88108 4.52344 0 5.65752 0 7H2Z" mask="url(#path-1-outside-1_14123_12013)"/>
<path d="M5.5 5.5H7H8.5L9.5 6.5L7 9.5L4.5 6.5L5.5 5.5Z" stroke="white" stroke-linejoin="round"/>
</svg>
