<svg width="32" height="32" viewBox="0 0 32 32" fill="none" xmlns="http://www.w3.org/2000/svg">
<path d="M16 32C24.8365 32 32 24.8365 32 16C32 7.16344 24.8365 0 16 0C7.16344 0 0 7.16344 0 16C0 24.8365 7.16344 32 16 32Z" fill="#667FE3"/>
<path d="M8.94867 17.1841L15.9729 27.0799V21.334L8.94867 17.1841Z" fill="white"/>
<path opacity="0.6" d="M15.973 21.334V27.0799L23 17.184L15.973 21.334Z" fill="white"/>
<path opacity="0.3" d="M22.9941 15.853L15.9728 12.6586L15.9727 20.003L22.9941 15.853Z" fill="white"/>
<path opacity="0.6" d="M8.94879 15.8532L15.9731 12.6587L15.9728 20.003L8.94879 15.8532Z" fill="white"/>
<path opacity="0.6" d="M15.9728 4.19864L22.9941 15.853L15.9731 12.6587L15.9728 4.19864Z" fill="white"/>
<path d="M15.9731 4.19864V12.6587L8.94879 15.8532L15.9731 4.19864Z" fill="white"/>
</svg>
