<svg width="32" height="32" viewBox="0 0 32 32" fill="none" xmlns="http://www.w3.org/2000/svg">
<path d="M32 16C32 7.16344 24.8366 0 16 0C7.16344 0 0 7.16344 0 16C0 24.8366 7.16344 32 16 32C24.8366 32 32 24.8366 32 16Z" fill="white"/>
<path fill-rule="evenodd" clip-rule="evenodd" d="M18.6988 15.8523C16.7812 15.9627 15.5793 15.516 13.6615 15.6268C13.1857 15.6535 12.7133 15.7224 12.2498 15.8328C12.5329 12.286 15.0431 9.18331 18.4565 8.98609C20.5512 8.86523 22.6449 10.1585 22.7584 12.258C22.8701 14.3216 21.2968 15.7021 18.6991 15.852L18.6988 15.8523ZM13.5492 23.1071C11.5425 23.2204 9.53703 22.0097 9.42813 20.0451C9.32103 18.1137 10.8286 16.8217 13.3172 16.6815C15.154 16.578 16.3056 16.9961 18.1424 16.8924C18.5979 16.8675 19.0504 16.8029 19.4947 16.6996C19.224 20.0189 16.8193 22.9228 13.5492 23.1071ZM16 0.000258812C7.16336 -3.31784e-09 0 7.16325 0 16C0 24.8368 7.16336 32 16 32C24.8367 32 32 24.8365 32 16C32 7.16351 24.8367 0 16 0" fill="#4360DF"/>
</svg>
