<svg width="10" height="10" viewBox="0 0 10 10" fill="none" xmlns="http://www.w3.org/2000/svg">
<g id="Feature / Sign">
<path id="Vector 32" d="M3.30026 5.87295C2.67249 5.56241 1.93965 5.00104 1.46227 4.33462C0.711792 3.28696 0.491562 2.00625 1.53098 1.23526C2.3099 0.657513 3.61233 1.37874 4.10757 2.49686C4.7675 3.98668 4.6573 6.28428 3.42906 8.2263C2.8116 9.2026 1.86004 9.10424 1.53098 8.54312C1.07672 7.76851 1.54754 6.07397 3.70877 4.99336C5.59513 4.05019 6.12334 4.52806 6.01429 5.03985C5.9758 5.22047 5.55049 5.95884 6.11735 5.95884C6.60595 5.95884 7.02642 5.354 7.42285 5.03985C7.92791 4.63959 8.4535 4.51593 8.38977 5.26933C8.36595 5.55093 8.48785 6.15638 9.17496 5.81283" stroke="white" stroke-width="0.833333" stroke-linecap="round"/>
</g>
</svg>
