<svg width="183" height="141" viewBox="0 0 183 141" fill="none" xmlns="http://www.w3.org/2000/svg">
<g id="Feature / Sign" opacity="0.03">
<path id="Vector 32" d="M83.7811 46.6129C73.5386 41.5462 61.5819 32.3871 53.7931 21.514C41.5485 4.42068 37.9553 -16.4751 54.9141 -29.0542C67.6227 -38.4806 88.8728 -26.7132 96.953 -8.47043C107.72 15.8371 105.922 53.3239 85.8826 85.0095C75.8084 100.938 60.2829 99.3336 54.9141 90.1786C47.5025 77.5403 55.1843 49.8927 90.4463 32.2618C121.224 16.8733 129.842 24.6701 128.062 33.0202C127.434 35.9673 120.495 48.0142 129.744 48.0142C137.716 48.0142 144.576 38.1459 151.044 33.0202C159.285 26.4898 167.86 24.4722 166.82 36.7644C166.431 41.3589 168.42 51.2372 179.631 45.632" stroke="#4360DF" stroke-width="5.86371" stroke-linecap="round"/>
</g>
</svg>
