<svg fill="none" height="32" viewBox="0 0 32 32" width="32" xmlns="http://www.w3.org/2000/svg" xmlns:xlink="http://www.w3.org/1999/xlink"><linearGradient id="a" gradientUnits="userSpaceOnUse" x1="16" x2="16" y1="0" y2="32"><stop offset=".110497" stop-color="#ea6433"/><stop offset=".546961" stop-color="#f2b660"/><stop offset="1" stop-color="#ffba49"/></linearGradient><radialGradient id="b" cx="0" cy="0" gradientTransform="matrix(-15.5002138 22.49991078 -29.20940061 -20.12238887 21.5 6.5)" gradientUnits="userSpaceOnUse" r="1"><stop offset="0" stop-color="#ffd764" stop-opacity=".2"/><stop offset="1" stop-color="#ffb746" stop-opacity=".1"/></radialGradient><circle cx="16" cy="16" fill="url(#a)" r="16"/><circle cx="16" cy="16" fill="url(#b)" r="16"/><path d="m7.34466 11.1957c-.44418-.1903-.95857.0154-1.14893.4596s.01539.9586.45957 1.1489l2.11184.9051c.28209.1209.38392.4671.30317.7632-.04584.168-.07031.3449-.07031.5275 0 1.1046.89543 2 2 2 .8304 0 1.5426-.5061 1.845-1.2266.0594-.1415.2202-.2221.3612-.1616l.4491.1924c.4442.1904.9586-.0154 1.1489-.4595.1904-.4442-.0154-.9586-.4595-1.149z" fill="#424242"/><path d="m24.6601 11.1957c.4442-.1903.9586.0154 1.1489.4596.1904.4442-.0154.9586-.4596 1.1489l-2.1118.9051c-.2821.1209-.3839.4671-.3032.7632.0459.168.0703.3449.0703.5275 0 1.1046-.8954 2-2 2-.8303 0-1.5425-.5061-1.8449-1.2266-.0594-.1415-.2202-.2221-.3613-.1616l-.4491.1924c-.4441.1904-.9585-.0154-1.1489-.4595-.1903-.4442.0154-.9586.4596-1.149z" fill="#424242"/><path clip-rule="evenodd" d="m16 21.875c-1.7818 0-3.3518.9085-4.2714 2.2917-.2675.4024-.8107.5117-1.2131.2441-.4024-.2675-.5117-.8106-.2442-1.2131 1.2302-1.8502 3.3365-3.0727 5.7287-3.0727 2.3921 0 4.4984 1.2225 5.7286 3.0727.2676.4025.1583.9456-.2442 1.2131-.4024.2676-.9455.1583-1.2131-.2441-.9196-1.3832-2.4896-2.2917-4.2713-2.2917z" fill="#772622" fill-rule="evenodd"/></svg>