<svg fill="none" height="32" viewBox="0 0 32 32" width="32" xmlns="http://www.w3.org/2000/svg" xmlns:xlink="http://www.w3.org/1999/xlink"><radialGradient id="a" cx="0" cy="0" gradientTransform="matrix(-15.5002138 22.49991078 -29.20940061 -20.12238887 21.5 6.5)" gradientUnits="userSpaceOnUse" r="1"><stop offset="0" stop-color="#ffd764"/><stop offset="1" stop-color="#ffb746"/></radialGradient><circle cx="16" cy="16" fill="#ffd764" r="16"/><circle cx="16" cy="16" fill="url(#a)" r="16"/><path d="m25 19.5c0 4.4183-5 7.5-9 7.5s-9-3.0817-9-7.5c0-2 4.5-3 9-3s9 1 9 3z" fill="#772622"/><path d="m21.3581 18.7491c-.8803-.2963-2.6664-.7491-5.3581-.7491-2.6918 0-4.4778.4528-5.3582.7491-.3617.1217-.5035.5276-.3328.8689.117.2341.3551.382.6169.382h10.1482c.2617 0 .4998-.1479.6169-.382.1706-.3413.0288-.7472-.3329-.8689z" fill="#fff"/><path d="m18.9444 23.7709c.4395.248.4115.8557-.0448 1.0714-.8936.4225-1.8871.6577-2.8996.6577-1.0126 0-2.006-.2352-2.8997-.6577-.4563-.2157-.4842-.8234-.0448-1.0714.8699-.4908 1.8745-.7709 2.9445-.7709 1.0699 0 2.0745.2801 2.9444.7709z" fill="#e45852"/><g clip-rule="evenodd" fill="#424242" fill-rule="evenodd"><path d="m8.20292 9.31486c.30937-.37124.86112-.4214 1.23236-.11203l3.00002 2.49997c.283.2359.388.6237.2626.9701-.1255.3464-.4544.5771-.8228.5771-1.3873 0-3.4081.4492-4.53611 1.1545-.40975.2562-.9496.1317-1.20579-.278-.25619-.4098-.13171-.9497.27804-1.2058.77079-.482 1.78152-.8469 2.801-1.0861.20523-.0482.27237-.3127.11042-.4476l-1.0077-.8398c-.37125-.3094-.42141-.8611-.11204-1.23234z"/><path d="m23.7971 9.31486c-.3094-.37124-.8611-.4214-1.2324-.11203l-3 2.49997c-.283.2359-.388.6237-.2626.9701.1255.3464.4544.5771.8228.5771 1.3873 0 3.4081.4492 4.5361 1.1545.4098.2562.9496.1317 1.2058-.278.2562-.4098.1317-.9497-.278-1.2058-.7708-.482-1.7816-.8469-2.801-1.0861-.2053-.0482-.2724-.3127-.1105-.4476l1.0077-.8398c.3713-.3094.4214-.8611.1121-1.23234z"/></g></svg>