<svg fill="none" height="32" viewBox="0 0 32 32" width="32" xmlns="http://www.w3.org/2000/svg" xmlns:xlink="http://www.w3.org/1999/xlink"><radialGradient id="a" cx="0" cy="0" gradientTransform="matrix(-15.5002138 22.49991078 -29.20940061 -20.12238887 21.5 6.5)" gradientUnits="userSpaceOnUse" r="1"><stop offset="0" stop-color="#ffd764"/><stop offset="1" stop-color="#ffb746"/></radialGradient><linearGradient id="b"><stop offset="0" stop-color="#6bc2ff"/><stop offset="1" stop-color="#2196e8"/></linearGradient><linearGradient id="c" gradientUnits="userSpaceOnUse" x1="8.6946" x2="7.30541" xlink:href="#b" y1="17.0608" y2="24.9393"/><linearGradient id="d" gradientUnits="userSpaceOnUse" x1="23.2158" x2="24.2577" xlink:href="#b" y1="20.3907" y2="26.2996"/><linearGradient id="e" gradientUnits="userSpaceOnUse" x1="22.4772" x2="23.1718" xlink:href="#b" y1="14.2605" y2="18.1997"/><circle cx="16" cy="16" fill="#ffd764" r="16"/><circle cx="16" cy="16" fill="url(#a)" r="16"/><path d="m10.7808 22.5058c-.2877 1.6317-1.84371 2.7212-3.47539 2.4335s-2.72119-1.8437-2.43348-3.4754c.26819-1.521 1.99892-3.8307 3.49933-4.325.2055-.0677.43052-.028.60047.1059 1.24087.9776 2.07727 3.74 1.80907 5.261z" fill="url(#c)"/><path clip-rule="evenodd" d="m16 21.875c-1.2649 0-2.1168.4117-3.1087.9076-.4322.2161-.9578.0409-1.1739-.3913s-.0409-.9578.3913-1.1739l.0053-.0027c1.007-.5035 2.1794-1.0897 3.886-1.0897 1.7069 0 2.8627.578 3.8631 1.0783l.0282.0141c.4323.2161.6074.7417.3913 1.1739s-.7417.6074-1.1739.3913c-.9931-.4965-1.8317-.9076-3.1087-.9076z" fill="#772622" fill-rule="evenodd"/><path d="m26.0828 23.693c.2158 1.2238-.6013 2.3908-1.8251 2.6066s-2.3907-.6014-2.6065-1.8251c-.1965-1.1143.3975-3.117 1.2925-3.8927.1635-.1417.3911-.1818.5932-.1046 1.1063.4228 2.3494 2.1016 2.5459 3.2158z" fill="url(#d)"/><path clip-rule="evenodd" d="m8 11.125c.48325 0 .875.3918.875.875 0 .5512.1799.9425.43122 1.1938s.64262.4312 1.19378.4312c.5512 0 .9425-.1799 1.1938-.4312s.4312-.6426.4312-1.1938c0-.4832.3918-.875.875-.875s.875.3918.875.875c0 .9488-.3201 1.8075-.9438 2.4312s-1.4824.9438-2.4312.9438c-.94884 0-1.80754-.3201-2.43122-.9438s-.94378-1.4824-.94378-2.4312c0-.4832.39175-.875.875-.875z" fill="#424242" fill-rule="evenodd"/><path d="m24.3885 16.462c.1439.8159-.4009 1.5938-1.2167 1.7377-.8158.1438-1.5938-.4009-1.7377-1.2167-.125-.7088.2298-1.9568.7809-2.519.1515-.1545.383-.1953.5782-.1019.7102.3398 1.4704 1.3911 1.5953 2.0999z" fill="url(#e)"/><path clip-rule="evenodd" d="m19 11.125c.4832 0 .875.3918.875.875 0 .5512.1799.9425.4312 1.1938s.6426.4312 1.1938.4312.9425-.1799 1.1938-.4312.4312-.6426.4312-1.1938c0-.4832.3918-.875.875-.875s.875.3918.875.875c0 .9488-.3201 1.8075-.9438 2.4312s-1.4824.9438-2.4312.9438-1.8075-.3201-2.4312-.9438-.9438-1.4824-.9438-2.4312c0-.4832.3918-.875.875-.875z" fill="#424242" fill-rule="evenodd"/></svg>