<svg fill="none" height="32" viewBox="0 0 31 32" width="31" xmlns="http://www.w3.org/2000/svg" xmlns:xlink="http://www.w3.org/1999/xlink"><linearGradient id="a" gradientUnits="userSpaceOnUse" x1="5.48305" x2="5.48305" y1="13.662" y2="31.6932"><stop offset="0" stop-color="#6bc2ff"/><stop offset="1" stop-color="#2196e8"/></linearGradient><radialGradient id="b" cx="0" cy="0" gradientTransform="matrix(-8.50003746 14.9999332 -17.44912738 -9.88792646 21 12)" gradientUnits="userSpaceOnUse" r="1"><stop offset="0" stop-color="#ffd764"/><stop offset="1" stop-color="#ffb746"/></radialGradient><path d="m10.7476 30.4337c-.1065.8518-.9092 1.4484-1.73228 1.2045-7.61419-2.2563-11.44016-10.5808-7.35214-17.5189.22076-.3747.67233-.5383 1.09047-.4188l1.69169.4834c.58437.1669.88205.8143.74769 1.407-.95706 4.222 2.15238 10.1491 5.19427 12.0573.3775.2368.6264.6563.5711 1.0986z" fill="url(#a)"/><path d="m23 3.5c0-2-1.5-3.5-4-3.5-2 0-3 1.56702-3 3.5 0 1.16436.5 2 .5 3.38995 0 3.11005-1.5 4.60995-3.5 5.60995-2 1.0001-6 1.0001-6 5.5001 0 5.5 5.5 10.9999 12 10.9999s12-4.9999 12-12c0-5.5862-3.4674-8.57192-8.3845-6.1324-.5828.2891-1.3141.0242-1.3222-.6263-.0136-1.08041.3466-2.16081.7067-3.2412.5-1.5 1-2.5 1-3.5z" fill="#ffd764"/><path d="m23 3.5c0-2-1.5-3.5-4-3.5-2 0-3 1.56702-3 3.5 0 1.16436.5 2 .5 3.38995 0 3.11005-1.5 4.60995-3.5 5.60995-2 1.0001-6 1.0001-6 5.5001 0 5.5 5.5 10.9999 12 10.9999s12-4.9999 12-12c0-5.5862-3.4674-8.57192-8.3845-6.1324-.5828.2891-1.3141.0242-1.3222-.6263-.0136-1.08041.3466-2.16081.7067-3.2412.5-1.5 1-2.5 1-3.5z" fill="url(#b)"/></svg>