<svg fill="none" height="32" viewBox="0 0 31 32" width="31" xmlns="http://www.w3.org/2000/svg" xmlns:xlink="http://www.w3.org/1999/xlink"><radialGradient id="a" cx="0" cy="0" gradientTransform="matrix(8.00000342 -14.99999818 17.44914494 9.30621574 10 19.5)" gradientUnits="userSpaceOnUse" r="1"><stop offset="0" stop-color="#ffd764"/><stop offset="1" stop-color="#ffb746"/></radialGradient><linearGradient id="b" gradientUnits="userSpaceOnUse" x1="25.517" x2="25.517" y1="18.0312" y2="-.000006"><stop offset="0" stop-color="#2196e8"/><stop offset="1" stop-color="#6bc2ff"/></linearGradient><path d="m8 28.1932c0 2.5 2.567 3.5 4.5 3.5s2.5-1.567 2.5-3.5c0-1.1644-.5-2-.5-3.39 0-3.11 2.1653-4.6089 3.5-5.61 2-1.5 6-1.5001 6-5.5 0-5.50002-5.5-10.99996-12-10.99996-6.62744 0-12 5.37256-12 11.99996 0 5.7984 3.73569 8.795 8.95072 5.831.28279-.1607.64983-.0302.69337.2921.17685 1.3092-.3868 2.6618-.98222 3.9869-.66187 1.39-.66187 2.39-.66187 3.39z" fill="#ffd764"/><path d="m8 28.1932c0 2.5 2.567 3.5 4.5 3.5s2.5-1.567 2.5-3.5c0-1.1644-.5-2-.5-3.39 0-3.11 2.1653-4.6089 3.5-5.61 2-1.5 6-1.5001 6-5.5 0-5.50002-5.5-10.99996-12-10.99996-6.62744 0-12 5.37256-12 11.99996 0 5.7984 3.73569 8.795 8.95072 5.831.28279-.1607.64983-.0302.69337.2921.17685 1.3092-.3868 2.6618-.98222 3.9869-.66187 1.39-.66187 2.39-.66187 3.39z" fill="url(#a)"/><path d="m20.2524 1.25946c.1065-.851821.9092-1.448339 1.7323-1.2044387 7.6142 2.2562887 11.4401 10.5807787 7.3521 17.5188787-.2207.3747-.6723.5382-1.0904.4188l-1.6917-.4834c-.5844-.167-.8821-.8144-.7477-1.4071.957-4.2219-2.1524-10.14899-5.1943-12.0572-.3775-.23682-.6264-.65637-.5711-1.09857z" fill="url(#b)"/></svg>