<svg width="16" height="16" viewBox="0 0 16 16" fill="none" xmlns="http://www.w3.org/2000/svg">
<path fill-rule="evenodd" clip-rule="evenodd" d="M9.34942 7.92611C8.39058 7.98137 7.78968 7.75801 6.83071 7.81339C6.59287 7.82675 6.35668 7.86122 6.1249 7.9164C6.26645 6.143 7.52155 4.59165 9.22826 4.49304C10.2756 4.43261 11.3225 5.07926 11.3792 6.12902C11.4351 7.16079 10.6484 7.85105 9.34955 7.92598L9.34942 7.92611ZM6.77458 11.5535C5.77123 11.6102 4.76852 11.0049 4.71406 10.0225C4.66052 9.05687 5.41432 8.41087 6.65858 8.34073C7.57703 8.28897 8.15277 8.49809 9.07123 8.4462C9.29896 8.43371 9.52518 8.40146 9.74735 8.34979C9.612 10.0094 8.40968 11.4614 6.77458 11.5535ZM8 0.000129406C3.58168 -1.67222e-09 0 3.58162 0 8C0 12.4184 3.58168 16 8 16C12.4183 16 16 12.4182 16 8C16 3.58175 12.4183 0 8 0" fill="#4360DF"/>
</svg>
