<svg width="24" height="24" viewBox="0 0 24 24" fill="none" xmlns="http://www.w3.org/2000/svg">
<g clip-path="url(#clip0_7249_79136)">
<rect width="24" height="24" rx="12" fill="#2D374B"/>
<path d="M12.3165 16.6244L16.6991 23.548L20.7475 21.1865L14.9919 12.0549L12.3165 16.6244Z" fill="#28A0F0"/>
<path d="M24.4341 18.409L24.4311 16.5169L18.1421 6.65701L15.8088 10.6421L21.88 20.5257L24.0752 19.2454C24.2905 19.0694 24.4208 18.8111 24.4345 18.5323L24.4341 18.409Z" fill="#28A0F0"/>
<path d="M-1.92013 20.1935L1.17978 21.9914L11.4955 5.33926L9.74467 5.29272C8.25299 5.27148 6.64614 5.66181 5.90853 6.87371L0.0505441 16.013L-1.92023 19.0609V20.1935H-1.92013Z" fill="white"/>
<path d="M17.4493 5.33923L12.8352 5.35611L2.39587 22.6962L6.04468 24.8109L7.03697 23.1169L17.4493 5.33923Z" fill="white"/>
</g>
<defs>
<clipPath id="clip0_7249_79136">
<rect width="24" height="24" rx="12" fill="white"/>
</clipPath>
</defs>
</svg>
