<svg width="24" height="24" viewBox="0 0 24 24" fill="none" xmlns="http://www.w3.org/2000/svg">
<path d="M0 12C0 5.37258 5.37258 0 12 0C18.6274 0 24 5.37258 24 12C24 18.6274 18.6274 24 12 24C5.37258 24 0 18.6274 0 12Z" fill="#EEF2F5"/>
<path fill-rule="evenodd" clip-rule="evenodd" d="M9.77362 16.6169C9.82855 16.457 9.97221 16.338 10.1413 16.338H13.9943C14.1634 16.338 14.307 16.457 14.362 16.6169C14.7017 17.6057 15.6398 18.3164 16.7439 18.3164C18.1345 18.3164 19.2618 17.1891 19.2618 15.7985C19.2618 14.4079 18.1345 13.2806 16.7439 13.2806C16.6026 13.2806 16.464 13.2922 16.3291 13.3146C16.1625 13.3422 15.99 13.2725 15.9096 13.1241L13.851 9.3261C13.7705 9.17755 13.8064 8.99475 13.9208 8.87043C14.3336 8.42197 14.5857 7.82328 14.5857 7.16572C14.5857 5.77513 13.4584 4.64783 12.0678 4.64783C10.6772 4.64783 9.54991 5.77513 9.54991 7.16572C9.54991 7.82329 9.80198 8.42198 10.2148 8.87045C10.3292 8.99477 10.3651 9.17756 10.2846 9.32611L8.22615 13.1241C8.1457 13.2725 7.97315 13.3422 7.80659 13.3146C7.67162 13.2922 7.53303 13.2806 7.39171 13.2806C6.00112 13.2806 4.87382 14.4079 4.87382 15.7985C4.87382 17.1891 6.00112 18.3164 7.39171 18.3164C8.49582 18.3164 9.43394 17.6057 9.77362 16.6169ZM11.2334 9.84013C11.3138 9.69169 11.4864 9.62198 11.6529 9.64959C11.7879 9.67197 11.9265 9.68361 12.0678 9.68361C12.2091 9.68361 12.3477 9.67197 12.4827 9.64959C12.6492 9.62198 12.8218 9.69169 12.9022 9.84012L14.9607 13.638C15.0412 13.7866 15.0053 13.9694 14.8909 14.0937C14.6579 14.3468 14.4761 14.6478 14.362 14.9802C14.307 15.1401 14.1634 15.2589 13.9943 15.2589H10.1413C9.97221 15.2589 9.82857 15.1401 9.77364 14.9802C9.65948 14.6478 9.47771 14.3469 9.24475 14.0938C9.13033 13.9695 9.09444 13.7867 9.17495 13.6381L11.2334 9.84013ZM8.83051 15.7985C8.83051 16.5931 8.18634 17.2373 7.39171 17.2373C6.59709 17.2373 5.95292 16.5931 5.95292 15.7985C5.95292 15.0039 6.59709 14.3597 7.39171 14.3597C8.18634 14.3597 8.83051 15.0039 8.83051 15.7985ZM18.1827 15.7985C18.1827 16.5931 17.5385 17.2373 16.7439 17.2373C15.9493 17.2373 15.3051 16.5931 15.3051 15.7985C15.3051 15.0039 15.9493 14.3597 16.7439 14.3597C17.5385 14.3597 18.1827 15.0039 18.1827 15.7985ZM13.5066 7.16572C13.5066 7.96034 12.8624 8.60451 12.0678 8.60451C11.2732 8.60451 10.629 7.96034 10.629 7.16572C10.629 6.37109 11.2732 5.72692 12.0678 5.72692C12.8624 5.72692 13.5066 6.37109 13.5066 7.16572Z" fill="#939BA1"/>
</svg>
