<svg width="24" height="24" viewBox="0 0 24 24" fill="none" xmlns="http://www.w3.org/2000/svg">
<path fill-rule="evenodd" clip-rule="evenodd" d="M14.7778 8.37542L12.4622 2.80798C12.2914 2.39734 11.7096 2.39734 11.5388 2.80799L9.22321 8.37542L3.2127 8.85727C2.76938 8.89282 2.58961 9.44607 2.92738 9.7354L7.50676 13.6581L6.10768 19.5234C6.00449 19.956 6.47512 20.2979 6.85466 20.0661L12.0005 16.923L17.1463 20.0661C17.5259 20.2979 17.9965 19.956 17.8933 19.5234L16.4942 13.6581L21.0736 9.7354C21.4114 9.44607 21.2316 8.89282 20.7883 8.85727L14.7778 8.37542ZM17.8153 10.5514C17.9842 10.4067 17.8943 10.1301 17.6727 10.1123L14.6579 9.87062C14.0972 9.82567 13.6088 9.47081 13.3928 8.95146L12.2313 6.15894C12.1459 5.95362 11.8551 5.95362 11.7697 6.15894L10.6082 8.95146C10.3922 9.47081 9.90377 9.82567 9.34308 9.87062L6.32832 10.1123C6.10666 10.1301 6.01678 10.4067 6.18566 10.5514L8.48259 12.5189C8.90977 12.8849 9.09633 13.459 8.96582 14.0062L8.26407 16.9481C8.21247 17.1644 8.44779 17.3353 8.63756 17.2194L11.2186 15.6429C11.6986 15.3497 12.3024 15.3497 12.7824 15.6429L15.3634 17.2194C15.5532 17.3353 15.7885 17.1644 15.7369 16.9481L15.0352 14.0062C14.9047 13.459 15.0912 12.8849 15.5184 12.5189L17.8153 10.5514Z" fill="#4360DF"/>
</svg>
