<svg width="24" height="24" viewBox="0 0 24 24" fill="none" xmlns="http://www.w3.org/2000/svg">
<path fill-rule="evenodd" clip-rule="evenodd" d="M18.7883 6.37753L15.4501 3.13202C14.7034 2.40611 13.7031 2 12.6618 2H8C5.79086 2 4 3.79086 4 6V18C4 20.2091 5.79086 22 8 22H16C18.2091 22 20 20.2091 20 18V9.24551C20 8.16511 19.563 7.13065 18.7883 6.37753ZM16 20.5H8C6.61929 20.5 5.5 19.3807 5.5 18V6C5.5 4.61929 6.61929 3.5 8 3.5H12.6618C12.7755 3.5 12.8885 3.50776 13 3.52298V8C13 9.10457 13.8954 10 15 10H18.5V18C18.5 19.3807 17.3807 20.5 16 20.5ZM18.3863 8.5C18.2633 8.10658 18.0438 7.74579 17.7427 7.45302L14.5 4.3004V8C14.5 8.27614 14.7239 8.5 15 8.5H18.3863Z" fill="#4360DF"/>
</svg>
