<svg width="16" height="16" viewBox="0 0 16 16" fill="none" xmlns="http://www.w3.org/2000/svg">
<path fill-rule="evenodd" clip-rule="evenodd" d="M5.50033 3.5C4.4878 3.5 3.66699 4.32081 3.66699 5.33333V10.6667C3.66699 11.6792 4.4878 12.5 5.50033 12.5C6.51285 12.5 7.33366 11.6792 7.33366 10.6667V5.33333C7.33366 4.32081 6.51285 3.5 5.50033 3.5ZM4.66699 5.33333C4.66699 4.8731 5.04009 4.5 5.50033 4.5C5.96056 4.5 6.33366 4.8731 6.33366 5.33333V10.6667C6.33366 11.1269 5.96056 11.5 5.50033 11.5C5.04009 11.5 4.66699 11.1269 4.66699 10.6667V5.33333Z" fill="#4360DF"/>
<path fill-rule="evenodd" clip-rule="evenodd" d="M10.5003 3.5C9.4878 3.5 8.66699 4.32081 8.66699 5.33333V10.6667C8.66699 11.6792 9.4878 12.5 10.5003 12.5C11.5128 12.5 12.3337 11.6792 12.3337 10.6667V5.33333C12.3337 4.32081 11.5128 3.5 10.5003 3.5ZM9.66699 5.33333C9.66699 4.8731 10.0401 4.5 10.5003 4.5C10.9606 4.5 11.3337 4.8731 11.3337 5.33333V10.6667C11.3337 11.1269 10.9606 11.5 10.5003 11.5C10.0401 11.5 9.66699 11.1269 9.66699 10.6667V5.33333Z" fill="#4360DF"/>
</svg>
