<svg width="14" height="19" viewBox="0 0 14 19" fill="none" xmlns="http://www.w3.org/2000/svg">
<path fill-rule="evenodd" clip-rule="evenodd" d="M7 2C5.34315 2 4 3.34315 4 5C4 6.65685 5.34315 8 7 8C8.65685 8 10 6.65685 10 5C10 3.34315 8.65685 2 7 2ZM2 5C2 2.23858 4.23858 0 7 0C9.76142 0 12 2.23858 12 5C12 7.76142 9.76142 10 7 10C4.23858 10 2 7.76142 2 5ZM4 14C2.89543 14 2 14.8954 2 16V18C2 18.5523 1.55228 19 1 19C0.447715 19 0 18.5523 0 18V16C0 13.7909 1.79086 12 4 12H10C12.2091 12 14 13.7909 14 16V18C14 18.5523 13.5523 19 13 19C12.4477 19 12 18.5523 12 18V16C12 14.8954 11.1046 14 10 14H4Z" fill="#939BA1"/>
</svg>
